<?xml version="1.0" encoding="us-ascii" standalone="no"?><svg xmlns="http://www.w3.org/2000/svg" xmlns:xlink="http://www.w3.org/1999/xlink" contentStyleType="text/css" height="845px" preserveAspectRatio="none" style="width:1003px;height:845px;background:#FFFFFF;" version="1.1" viewBox="0 0 1003 845" width="1003px" zoomAndPan="magnify"><defs/><g><rect fill="#FFFFFF" height="660.9375" style="stroke:#181818;stroke-width:1.0;" width="10" x="32.5" y="92.6094"/><rect fill="#FFFFFF" height="289.3281" style="stroke:#181818;stroke-width:1.0;" width="10" x="171.5" y="114.9609"/><rect fill="#FFFFFF" height="188.625" style="stroke:#181818;stroke-width:1.0;" width="10" x="310.5" y="155.3125"/><rect fill="#FFFFFF" height="60.3516" style="stroke:#181818;stroke-width:1.0;" width="10" x="310.5" y="374.2891"/><rect fill="#FFFFFF" height="198.2031" style="stroke:#181818;stroke-width:1.0;" width="10" x="310.5" y="515.3438"/><rect fill="#FFFFFF" height="146.0156" style="stroke:#181818;stroke-width:1.0;" width="10" x="483.5" y="197.9219"/><rect fill="#FFFFFF" height="137.5" style="stroke:#181818;stroke-width:1.0;" width="10" x="483.5" y="545.6953"/><rect fill="#FFFFFF" height="41.5273" style="stroke:#181818;stroke-width:1.0;" width="10" x="649.5" y="241.707"/><rect fill="#FFFFFF" height="76.7969" style="stroke:#181818;stroke-width:1.0;" width="10" x="649.5" y="576.0469"/><rect fill="#FFFFFF" height="30.3516" style="stroke:#181818;stroke-width:1.0;" width="10" x="794.5" y="313.5859"/><rect fill="none" height="271.9063" style="stroke:#000000;stroke-width:1.5;" width="987" x="10" y="474.6406"/><line style="stroke:#181818;stroke-width:0.5;stroke-dasharray:5.0,5.0;" x1="37" x2="37" y1="82.6094" y2="763.5469"/><line style="stroke:#181818;stroke-width:0.5;stroke-dasharray:5.0,5.0;" x1="176" x2="176" y1="82.6094" y2="763.5469"/><line style="stroke:#181818;stroke-width:0.5;stroke-dasharray:5.0,5.0;" x1="315.5" x2="315.5" y1="154.2656" y2="763.5469"/><line style="stroke:#181818;stroke-width:0.5;stroke-dasharray:5.0,5.0;" x1="488.5" x2="488.5" y1="196.875" y2="763.5469"/><line style="stroke:#181818;stroke-width:0.5;stroke-dasharray:5.0,5.0;" x1="654" x2="654" y1="82.6094" y2="763.5469"/><line style="stroke:#181818;stroke-width:0.5;stroke-dasharray:5.0,5.0;" x1="799" x2="799" y1="82.6094" y2="763.5469"/><line style="stroke:#181818;stroke-width:0.5;stroke-dasharray:5.0,5.0;" x1="932" x2="932" y1="82.6094" y2="763.5469"/><text fill="#000000" font-family="sans-serif" font-size="14" lengthAdjust="spacing" textLength="29" x="20" y="79.5332">User</text><ellipse cx="37.5" cy="13.5" fill="#E3E3E3" rx="8" ry="8" style="stroke:#181818;stroke-width:0.5;"/><path d="M37.5,21.5 L37.5,48.5 M24.5,29.5 L50.5,29.5 M37.5,48.5 L24.5,63.5 M37.5,48.5 L50.5,63.5 " fill="none" style="stroke:#181818;stroke-width:0.5;"/><text fill="#000000" font-family="sans-serif" font-size="14" lengthAdjust="spacing" textLength="29" x="20" y="777.0801">User</text><ellipse cx="37.5" cy="788.6563" fill="#E3E3E3" rx="8" ry="8" style="stroke:#181818;stroke-width:0.5;"/><path d="M37.5,796.6563 L37.5,823.6563 M24.5,804.6563 L50.5,804.6563 M37.5,823.6563 L24.5,838.6563 M37.5,823.6563 L50.5,838.6563 " fill="none" style="stroke:#181818;stroke-width:0.5;"/><rect fill="#E3E3E3" height="31.6094" rx="2.5" ry="2.5" style="stroke:#181818;stroke-width:0.5;" width="65" x="144" y="50"/><text fill="#000000" font-family="sans-serif" font-size="14" lengthAdjust="spacing" textLength="51" x="151" y="71.5332">:MenuUI</text><rect fill="#E3E3E3" height="31.6094" rx="2.5" ry="2.5" style="stroke:#181818;stroke-width:0.5;" width="65" x="144" y="762.5469"/><text fill="#000000" font-family="sans-serif" font-size="14" lengthAdjust="spacing" textLength="51" x="151" y="784.0801">:MenuUI</text><rect fill="#E3E3E3" height="31.6094" rx="2.5" ry="2.5" style="stroke:#181818;stroke-width:0.5;" width="110" x="260.5" y="762.5469"/><text fill="#000000" font-family="sans-serif" font-size="14" lengthAdjust="spacing" textLength="96" x="267.5" y="784.0801">:{NameOfUC}UI</text><rect fill="#E3E3E3" height="31.6094" rx="2.5" ry="2.5" style="stroke:#181818;stroke-width:0.5;" width="160" x="408.5" y="762.5469"/><text fill="#000000" font-family="sans-serif" font-size="14" lengthAdjust="spacing" textLength="146" x="415.5" y="784.0801">:{NameOfUC}Controller</text><rect fill="#E3E3E3" height="31.6094" rx="2.5" ry="2.5" style="stroke:#181818;stroke-width:0.5;" width="133" x="588" y="50"/><text fill="#000000" font-family="sans-serif" font-size="14" lengthAdjust="spacing" textLength="119" x="595" y="71.5332">ApplicationSession</text><rect fill="#E3E3E3" height="31.6094" rx="2.5" ry="2.5" style="stroke:#181818;stroke-width:0.5;" width="133" x="588" y="762.5469"/><text fill="#000000" font-family="sans-serif" font-size="14" lengthAdjust="spacing" textLength="119" x="595" y="784.0801">ApplicationSession</text><rect fill="#E3E3E3" height="49.2188" rx="2.5" ry="2.5" style="stroke:#181818;stroke-width:0.5;" width="137" x="731" y="32.3906"/><text fill="#000000" font-family="sans-serif" font-size="14" lengthAdjust="spacing" textLength="74" x="762.5" y="53.9238">appSession</text><text fill="#000000" font-family="sans-serif" font-size="14" lengthAdjust="spacing" textLength="123" x="738" y="71.5332">:ApplicationSession</text><rect fill="#E3E3E3" height="49.2188" rx="2.5" ry="2.5" style="stroke:#181818;stroke-width:0.5;" width="137" x="731" y="762.5469"/><text fill="#000000" font-family="sans-serif" font-size="14" lengthAdjust="spacing" textLength="74" x="762.5" y="784.0801">appSession</text><text fill="#000000" font-family="sans-serif" font-size="14" lengthAdjust="spacing" textLength="123" x="738" y="801.6895">:ApplicationSession</text><rect fill="#E3E3E3" height="49.2188" rx="2.5" ry="2.5" style="stroke:#181818;stroke-width:0.5;" width="109" x="878" y="32.3906"/><text fill="#000000" font-family="sans-serif" font-size="14" lengthAdjust="spacing" textLength="95" x="885" y="53.9238">currentSession</text><text fill="#000000" font-family="sans-serif" font-size="14" lengthAdjust="spacing" textLength="83" x="891" y="71.5332">:UserSession</text><rect fill="#E3E3E3" height="49.2188" rx="2.5" ry="2.5" style="stroke:#181818;stroke-width:0.5;" width="109" x="878" y="762.5469"/><text fill="#000000" font-family="sans-serif" font-size="14" lengthAdjust="spacing" textLength="95" x="885" y="784.0801">currentSession</text><text fill="#000000" font-family="sans-serif" font-size="14" lengthAdjust="spacing" textLength="83" x="891" y="801.6895">:UserSession</text><rect fill="#FFFFFF" height="660.9375" style="stroke:#181818;stroke-width:1.0;" width="10" x="32.5" y="92.6094"/><rect fill="#FFFFFF" height="289.3281" style="stroke:#181818;stroke-width:1.0;" width="10" x="171.5" y="114.9609"/><rect fill="#FFFFFF" height="188.625" style="stroke:#181818;stroke-width:1.0;" width="10" x="310.5" y="155.3125"/><rect fill="#FFFFFF" height="60.3516" style="stroke:#181818;stroke-width:1.0;" width="10" x="310.5" y="374.2891"/><rect fill="#FFFFFF" height="198.2031" style="stroke:#181818;stroke-width:1.0;" width="10" x="310.5" y="515.3438"/><rect fill="#FFFFFF" height="146.0156" style="stroke:#181818;stroke-width:1.0;" width="10" x="483.5" y="197.9219"/><rect fill="#FFFFFF" height="137.5" style="stroke:#181818;stroke-width:1.0;" width="10" x="483.5" y="545.6953"/><rect fill="#FFFFFF" height="41.5273" style="stroke:#181818;stroke-width:1.0;" width="10" x="649.5" y="241.707"/><rect fill="#FFFFFF" height="76.7969" style="stroke:#181818;stroke-width:1.0;" width="10" x="649.5" y="576.0469"/><rect fill="#FFFFFF" height="30.3516" style="stroke:#181818;stroke-width:1.0;" width="10" x="794.5" y="313.5859"/><polygon fill="#181818" points="159.5,110.9609,169.5,114.9609,159.5,118.9609,163.5,114.9609" style="stroke:#181818;stroke-width:1.0;"/><line style="stroke:#181818;stroke-width:1.0;" x1="42.5" x2="165.5" y1="114.9609" y2="114.9609"/><text fill="#000000" font-family="sans-serif" font-size="13" font-weight="bold" lengthAdjust="spacing" textLength="7" x="49.5" y="110.1045">1</text><text fill="#000000" font-family="sans-serif" font-size="13" lengthAdjust="spacing" textLength="99" x="60.5" y="110.1045">selects an option</text><polygon fill="#181818" points="248.5,141.3125,258.5,145.3125,248.5,149.3125,252.5,145.3125" style="stroke:#181818;stroke-width:1.0;"/><line style="stroke:#181818;stroke-width:1.0;stroke-dasharray:2.0,2.0;" x1="181.5" x2="254.5" y1="145.3125" y2="145.3125"/><text fill="#000000" font-family="sans-serif" font-size="13" font-weight="bold" lengthAdjust="spacing" textLength="7" x="188.5" y="140.4561">2</text><text fill="#000000" font-family="sans-serif" font-size="13" lengthAdjust="spacing" textLength="44" x="199.5" y="140.4561">create()</text><rect fill="#E3E3E3" height="31.6094" rx="2.5" ry="2.5" style="stroke:#181818;stroke-width:0.5;" width="110" x="260.5" y="122.9609"/><text fill="#000000" font-family="sans-serif" font-size="14" lengthAdjust="spacing" textLength="96" x="267.5" y="144.4941">:{NameOfUC}UI</text><polygon fill="#181818" points="396.5,183.9219,406.5,187.9219,396.5,191.9219,400.5,187.9219" style="stroke:#181818;stroke-width:1.0;"/><line style="stroke:#181818;stroke-width:1.0;stroke-dasharray:2.0,2.0;" x1="320.5" x2="402.5" y1="187.9219" y2="187.9219"/><text fill="#000000" font-family="sans-serif" font-size="13" font-weight="bold" lengthAdjust="spacing" textLength="7" x="327.5" y="183.0654">3</text><text fill="#000000" font-family="sans-serif" font-size="13" lengthAdjust="spacing" textLength="44" x="338.5" y="183.0654">create()</text><rect fill="#E3E3E3" height="31.6094" rx="2.5" ry="2.5" style="stroke:#181818;stroke-width:0.5;" width="160" x="408.5" y="165.5703"/><text fill="#000000" font-family="sans-serif" font-size="14" lengthAdjust="spacing" textLength="146" x="415.5" y="187.1035">:{NameOfUC}Controller</text><polygon fill="#181818" points="637.5,237.707,647.5,241.707,637.5,245.707,641.5,241.707" style="stroke:#181818;stroke-width:1.0;"/><line style="stroke:#181818;stroke-width:1.0;" x1="493.5" x2="643.5" y1="241.707" y2="241.707"/><text fill="#000000" font-family="sans-serif" font-size="13" font-weight="bold" lengthAdjust="spacing" textLength="7" x="500.5" y="236.8506">4</text><text fill="#000000" font-family="sans-serif" font-size="13" lengthAdjust="spacing" textLength="75" x="511.5" y="236.8506">getInstance()</text><path d="M664,213.1797 L664,255.1797 L791,255.1797 L791,223.1797 L781,213.1797 L664,213.1797 " fill="#FAFAFA" style="stroke:#181818;stroke-width:0.5;"/><path d="M781,213.1797 L781,223.1797 L791,223.1797 L781,213.1797 " fill="#FAFAFA" style="stroke:#181818;stroke-width:0.5;"/><text fill="#000000" font-family="sans-serif" font-size="13" lengthAdjust="spacing" textLength="79" x="670" y="231.6748">static method</text><text fill="#000000" font-family="sans-serif" font-size="13" lengthAdjust="spacing" textLength="106" x="670" y="248.0264">(Singleton pattern)</text><polygon fill="#181818" points="504.5,279.2344,494.5,283.2344,504.5,287.2344,500.5,283.2344" style="stroke:#181818;stroke-width:1.0;"/><line style="stroke:#181818;stroke-width:1.0;stroke-dasharray:2.0,2.0;" x1="498.5" x2="653.5" y1="283.2344" y2="283.2344"/><text fill="#000000" font-family="sans-serif" font-size="13" font-weight="bold" lengthAdjust="spacing" textLength="7" x="510.5" y="278.3779">5</text><text fill="#000000" font-family="sans-serif" font-size="13" lengthAdjust="spacing" textLength="68" x="521.5" y="278.3779">appSession</text><polygon fill="#181818" points="782.5,309.5859,792.5,313.5859,782.5,317.5859,786.5,313.5859" style="stroke:#181818;stroke-width:1.0;"/><line style="stroke:#181818;stroke-width:1.0;" x1="493.5" x2="788.5" y1="313.5859" y2="313.5859"/><text fill="#000000" font-family="sans-serif" font-size="13" font-weight="bold" lengthAdjust="spacing" textLength="7" x="500.5" y="308.7295">6</text><text fill="#000000" font-family="sans-serif" font-size="13" lengthAdjust="spacing" textLength="115" x="511.5" y="308.7295">getCurrentSession()</text><polygon fill="#181818" points="499.5,339.9375,489.5,343.9375,499.5,347.9375,495.5,343.9375" style="stroke:#181818;stroke-width:1.0;"/><line style="stroke:#181818;stroke-width:1.0;stroke-dasharray:2.0,2.0;" x1="493.5" x2="798.5" y1="343.9375" y2="343.9375"/><text fill="#000000" font-family="sans-serif" font-size="13" font-weight="bold" lengthAdjust="spacing" textLength="7" x="505.5" y="339.0811">7</text><text fill="#000000" font-family="sans-serif" font-size="13" lengthAdjust="spacing" textLength="87" x="516.5" y="339.0811">currentSession</text><polygon fill="#181818" points="298.5,370.2891,308.5,374.2891,298.5,378.2891,302.5,374.2891" style="stroke:#181818;stroke-width:1.0;"/><line style="stroke:#181818;stroke-width:1.0;" x1="181.5" x2="304.5" y1="374.2891" y2="374.2891"/><text fill="#000000" font-family="sans-serif" font-size="13" font-weight="bold" lengthAdjust="spacing" textLength="7" x="188.5" y="369.4326">8</text><text fill="#000000" font-family="sans-serif" font-size="13" lengthAdjust="spacing" textLength="26" x="199.5" y="369.4326">run()</text><polygon fill="#181818" points="53.5,430.6406,43.5,434.6406,53.5,438.6406,49.5,434.6406" style="stroke:#181818;stroke-width:1.0;"/><line style="stroke:#181818;stroke-width:1.0;stroke-dasharray:2.0,2.0;" x1="47.5" x2="314.5" y1="434.6406" y2="434.6406"/><text fill="#000000" font-family="sans-serif" font-size="13" font-weight="bold" lengthAdjust="spacing" textLength="7" x="59.5" y="429.7842">9</text><text fill="#000000" font-family="sans-serif" font-size="13" lengthAdjust="spacing" textLength="131" x="70.5" y="429.7842">displays/requests data</text><path d="M10,474.6406 L83,474.6406 L83,482.9922 L73,492.9922 L10,492.9922 L10,474.6406 " fill="#EEEEEE" style="stroke:#000000;stroke-width:1.5;"/><rect fill="none" height="271.9063" style="stroke:#000000;stroke-width:1.5;" width="987" x="10" y="474.6406"/><text fill="#000000" font-family="sans-serif" font-size="13" font-weight="bold" lengthAdjust="spacing" textLength="28" x="25" y="489.1357">loop</text><text fill="#000000" font-family="sans-serif" font-size="11" font-weight="bold" lengthAdjust="spacing" textLength="96" x="98" y="488.0596">[User interaction]</text><polygon fill="#181818" points="298.5,511.3438,308.5,515.3438,298.5,519.3438,302.5,515.3438" style="stroke:#181818;stroke-width:1.0;"/><line style="stroke:#181818;stroke-width:1.0;" x1="42.5" x2="304.5" y1="515.3438" y2="515.3438"/><text fill="#000000" font-family="sans-serif" font-size="13" font-weight="bold" lengthAdjust="spacing" textLength="14" x="49.5" y="510.4873">10</text><text fill="#000000" font-family="sans-serif" font-size="13" lengthAdjust="spacing" textLength="172" x="67.5" y="510.4873">provides input/performs action</text><polygon fill="#181818" points="471.5,541.6953,481.5,545.6953,471.5,549.6953,475.5,545.6953" style="stroke:#181818;stroke-width:1.0;"/><line style="stroke:#181818;stroke-width:1.0;" x1="320.5" x2="477.5" y1="545.6953" y2="545.6953"/><text fill="#000000" font-family="sans-serif" font-size="13" font-weight="bold" lengthAdjust="spacing" textLength="14" x="327.5" y="540.8389">11</text><text fill="#000000" font-family="sans-serif" font-size="13" lengthAdjust="spacing" textLength="126" x="345.5" y="540.8389">operation(parameters)</text><polygon fill="#181818" points="637.5,572.0469,647.5,576.0469,637.5,580.0469,641.5,576.0469" style="stroke:#181818;stroke-width:1.0;"/><line style="stroke:#181818;stroke-width:1.0;" x1="493.5" x2="643.5" y1="576.0469" y2="576.0469"/><text fill="#000000" font-family="sans-serif" font-size="13" font-weight="bold" lengthAdjust="spacing" textLength="14" x="500.5" y="571.1904">12</text><text fill="#000000" font-family="sans-serif" font-size="13" lengthAdjust="spacing" textLength="119" x="518.5" y="571.1904">performOperation(...)</text><rect fill="none" height="41.4453" style="stroke:#000000;stroke-width:1.5;" width="405" x="585" y="584.0469"/><path d="M585,584.0469 L647,584.0469 L647,592.0469 L637,602.0469 L585,602.0469 L585,584.0469 " fill="#EEEEEE" style="stroke:#000000;stroke-width:2.0;"/><text fill="#000000" font-family="sans-serif" font-size="13" font-weight="bold" lengthAdjust="spacing" textLength="17" x="598" y="599.542">ref</text><text fill="#000000" font-family="sans-serif" font-size="12" lengthAdjust="spacing" textLength="221" x="677" y="618.5039">Authorization Check and Business Logic</text><polygon fill="#181818" points="504.5,648.8438,494.5,652.8438,504.5,656.8438,500.5,652.8438" style="stroke:#181818;stroke-width:1.0;"/><line style="stroke:#181818;stroke-width:1.0;stroke-dasharray:2.0,2.0;" x1="498.5" x2="653.5" y1="652.8438" y2="652.8438"/><text fill="#000000" font-family="sans-serif" font-size="13" font-weight="bold" lengthAdjust="spacing" textLength="14" x="510.5" y="647.9873">13</text><text fill="#000000" font-family="sans-serif" font-size="13" lengthAdjust="spacing" textLength="32" x="528.5" y="647.9873">result</text><polygon fill="#181818" points="331.5,679.1953,321.5,683.1953,331.5,687.1953,327.5,683.1953" style="stroke:#181818;stroke-width:1.0;"/><line style="stroke:#181818;stroke-width:1.0;stroke-dasharray:2.0,2.0;" x1="325.5" x2="487.5" y1="683.1953" y2="683.1953"/><text fill="#000000" font-family="sans-serif" font-size="13" font-weight="bold" lengthAdjust="spacing" textLength="14" x="337.5" y="678.3389">14</text><text fill="#000000" font-family="sans-serif" font-size="13" lengthAdjust="spacing" textLength="72" x="355.5" y="678.3389">result/status</text><polygon fill="#181818" points="53.5,709.5469,43.5,713.5469,53.5,717.5469,49.5,713.5469" style="stroke:#181818;stroke-width:1.0;"/><line style="stroke:#181818;stroke-width:1.0;stroke-dasharray:2.0,2.0;" x1="47.5" x2="314.5" y1="713.5469" y2="713.5469"/><text fill="#000000" font-family="sans-serif" font-size="13" font-weight="bold" lengthAdjust="spacing" textLength="14" x="59.5" y="708.6904">15</text><text fill="#000000" font-family="sans-serif" font-size="13" lengthAdjust="spacing" textLength="200" x="77.5" y="708.6904">displays result/requests more data</text><!--SRC=[fLLDRzim3BtxLn2zh2twSSzXG6O4Gu0aBUBwDY1GRIOHOakQ97VhrlttKMfYouxJ9gqk2Qp7H_BvaJORBXJJh8HI2fcjjImHhAumClMDOjc6hJ2npmM2nimoiIf2W5cpNFxYOWLBLXYC8bPPAQho4NKKVLdp764ffNsKloEMMQdXB3Mepu0PI9FHF28MopEkcB1mDfYYgDAnlvsEPcddzk-CbNYtJED_MqmQBsR3wMYHZWyYOocibaMnpHa_p2Tjx52fWcVCSYaID8P-F71uVxz8HaaolfkryKofBUw76BmVl4Z6i- -JqKEN9gkqHc4RAYTBo16dy_bezb0NuUJZJypYgsuHq77_uFghrme6OB2WDsI02P3ArUH1TPnN5BR7XrnJRAFXvILnP1e9UtvH0vkqZTWGdEQnftC2znEroFnxWCvn3rqxWNn4j48x5eQCbtNPt16Is3HVhUtUbJiKHvf3YNOjyrx4USATfScqP7PhKOlz92XodsZlekudj4jVbh2bdKpKMsEclQWSUycF4QtntAjySSjhFIBsPGgC-qv3GRgWjRR1ZsplGD80t39Ey3nmPyVZeSMfBbs98zmTCFknUSloVWe7a7EZ2lPiRZN-hD3G7ERCibRWoylBCRKNKYfm-m2u84CwNA3WRkXRNIajdsZN6efGbRrLg9TIbmOwiQSCS_qc9R7v5NVkLpvIIURpOxqjyQuclxcvkOW-Fc4Qbo2VIBC0UDLhhQlkQeK3PrZHrj3yZwyFuZLc6zgjENoh31VaQvZ85Szwmzt6e8fEsGKQJLNOJ-w1FRTxqbkt1YlpvaoTuF0TQstqKchyYDjtIZd3Hr68SP-u_m00]--></g></svg>