<?xml version="1.0" encoding="us-ascii" standalone="no"?><svg xmlns="http://www.w3.org/2000/svg" xmlns:xlink="http://www.w3.org/1999/xlink" contentStyleType="text/css" height="544px" preserveAspectRatio="none" style="width:831px;height:544px;background:#FFFFFF;" version="1.1" viewBox="0 0 831 544" width="831px" zoomAndPan="magnify"><defs/><g><rect fill="#FFFFFF" height="414.8672" style="stroke:#181818;stroke-width:1.0;" width="10" x="306" y="65.2188"/><rect fill="#FFFFFF" height="35.3516" style="stroke:#181818;stroke-width:1.0;" width="10" x="311" y="333.3828"/><rect fill="#FFFFFF" height="30.3516" style="stroke:#181818;stroke-width:1.0;" width="10" x="477" y="117.9219"/><rect fill="#FFFFFF" height="30.3516" style="stroke:#181818;stroke-width:1.0;" width="10" x="622" y="178.625"/><rect fill="#FFFFFF" height="30.3516" style="stroke:#181818;stroke-width:1.0;" width="10" x="755" y="239.3281"/><rect fill="none" height="188.4063" style="stroke:#000000;stroke-width:1.5;" width="813.5" x="11" y="284.6797"/><line style="stroke:#181818;stroke-width:0.5;stroke-dasharray:5.0,5.0;" x1="311" x2="311" y1="55.2188" y2="490.0859"/><line style="stroke:#181818;stroke-width:0.5;stroke-dasharray:5.0,5.0;" x1="481.5" x2="481.5" y1="55.2188" y2="490.0859"/><line style="stroke:#181818;stroke-width:0.5;stroke-dasharray:5.0,5.0;" x1="626.5" x2="626.5" y1="55.2188" y2="490.0859"/><line style="stroke:#181818;stroke-width:0.5;stroke-dasharray:5.0,5.0;" x1="759.5" x2="759.5" y1="55.2188" y2="490.0859"/><rect fill="#E3E3E3" height="31.6094" rx="2.5" ry="2.5" style="stroke:#181818;stroke-width:0.5;" width="160" x="231" y="22.6094"/><text fill="#000000" font-family="sans-serif" font-size="14" lengthAdjust="spacing" textLength="146" x="238" y="44.1426">:{NameOfUC}Controller</text><rect fill="#E3E3E3" height="31.6094" rx="2.5" ry="2.5" style="stroke:#181818;stroke-width:0.5;" width="160" x="231" y="489.0859"/><text fill="#000000" font-family="sans-serif" font-size="14" lengthAdjust="spacing" textLength="146" x="238" y="510.6191">:{NameOfUC}Controller</text><rect fill="#E3E3E3" height="31.6094" rx="2.5" ry="2.5" style="stroke:#181818;stroke-width:0.5;" width="133" x="415.5" y="22.6094"/><text fill="#000000" font-family="sans-serif" font-size="14" lengthAdjust="spacing" textLength="119" x="422.5" y="44.1426">ApplicationSession</text><rect fill="#E3E3E3" height="31.6094" rx="2.5" ry="2.5" style="stroke:#181818;stroke-width:0.5;" width="133" x="415.5" y="489.0859"/><text fill="#000000" font-family="sans-serif" font-size="14" lengthAdjust="spacing" textLength="119" x="422.5" y="510.6191">ApplicationSession</text><rect fill="#E3E3E3" height="49.2188" rx="2.5" ry="2.5" style="stroke:#181818;stroke-width:0.5;" width="137" x="558.5" y="5"/><text fill="#000000" font-family="sans-serif" font-size="14" lengthAdjust="spacing" textLength="74" x="590" y="26.5332">appSession</text><text fill="#000000" font-family="sans-serif" font-size="14" lengthAdjust="spacing" textLength="123" x="565.5" y="44.1426">:ApplicationSession</text><rect fill="#E3E3E3" height="49.2188" rx="2.5" ry="2.5" style="stroke:#181818;stroke-width:0.5;" width="137" x="558.5" y="489.0859"/><text fill="#000000" font-family="sans-serif" font-size="14" lengthAdjust="spacing" textLength="74" x="590" y="510.6191">appSession</text><text fill="#000000" font-family="sans-serif" font-size="14" lengthAdjust="spacing" textLength="123" x="565.5" y="528.2285">:ApplicationSession</text><rect fill="#E3E3E3" height="49.2188" rx="2.5" ry="2.5" style="stroke:#181818;stroke-width:0.5;" width="109" x="705.5" y="5"/><text fill="#000000" font-family="sans-serif" font-size="14" lengthAdjust="spacing" textLength="95" x="712.5" y="26.5332">currentSession</text><text fill="#000000" font-family="sans-serif" font-size="14" lengthAdjust="spacing" textLength="83" x="718.5" y="44.1426">:UserSession</text><rect fill="#E3E3E3" height="49.2188" rx="2.5" ry="2.5" style="stroke:#181818;stroke-width:0.5;" width="109" x="705.5" y="489.0859"/><text fill="#000000" font-family="sans-serif" font-size="14" lengthAdjust="spacing" textLength="95" x="712.5" y="510.6191">currentSession</text><text fill="#000000" font-family="sans-serif" font-size="14" lengthAdjust="spacing" textLength="83" x="718.5" y="528.2285">:UserSession</text><rect fill="#FFFFFF" height="414.8672" style="stroke:#181818;stroke-width:1.0;" width="10" x="306" y="65.2188"/><rect fill="#FFFFFF" height="35.3516" style="stroke:#181818;stroke-width:1.0;" width="10" x="311" y="333.3828"/><rect fill="#FFFFFF" height="30.3516" style="stroke:#181818;stroke-width:1.0;" width="10" x="477" y="117.9219"/><rect fill="#FFFFFF" height="30.3516" style="stroke:#181818;stroke-width:1.0;" width="10" x="622" y="178.625"/><rect fill="#FFFFFF" height="30.3516" style="stroke:#181818;stroke-width:1.0;" width="10" x="755" y="239.3281"/><ellipse cx="7.5" cy="86.8203" fill="none" rx="4" ry="4" style="stroke:#181818;stroke-width:1.5;"/><polygon fill="#181818" points="294,83.5703,304,87.5703,294,91.5703,298,87.5703" style="stroke:#181818;stroke-width:1.0;"/><line style="stroke:#181818;stroke-width:1.0;" x1="12" x2="300" y1="87.5703" y2="87.5703"/><text fill="#000000" font-family="sans-serif" font-size="13" font-weight="bold" lengthAdjust="spacing" textLength="7" x="15" y="82.7139">1</text><text fill="#000000" font-family="sans-serif" font-size="13" lengthAdjust="spacing" textLength="44" x="26" y="82.7139">create()</text><polygon fill="#181818" points="465,113.9219,475,117.9219,465,121.9219,469,117.9219" style="stroke:#181818;stroke-width:1.0;"/><line style="stroke:#181818;stroke-width:1.0;" x1="316" x2="471" y1="117.9219" y2="117.9219"/><text fill="#000000" font-family="sans-serif" font-size="13" font-weight="bold" lengthAdjust="spacing" textLength="7" x="323" y="113.0654">2</text><text fill="#000000" font-family="sans-serif" font-size="13" lengthAdjust="spacing" textLength="75" x="334" y="113.0654">getInstance()</text><polygon fill="#181818" points="327,144.2734,317,148.2734,327,152.2734,323,148.2734" style="stroke:#181818;stroke-width:1.0;"/><line style="stroke:#181818;stroke-width:1.0;stroke-dasharray:2.0,2.0;" x1="321" x2="481" y1="148.2734" y2="148.2734"/><text fill="#000000" font-family="sans-serif" font-size="13" font-weight="bold" lengthAdjust="spacing" textLength="7" x="333" y="143.417">3</text><text fill="#000000" font-family="sans-serif" font-size="13" lengthAdjust="spacing" textLength="68" x="344" y="143.417">appSession</text><polygon fill="#181818" points="610,174.625,620,178.625,610,182.625,614,178.625" style="stroke:#181818;stroke-width:1.0;"/><line style="stroke:#181818;stroke-width:1.0;" x1="316" x2="616" y1="178.625" y2="178.625"/><text fill="#000000" font-family="sans-serif" font-size="13" font-weight="bold" lengthAdjust="spacing" textLength="7" x="323" y="173.7686">4</text><text fill="#000000" font-family="sans-serif" font-size="13" lengthAdjust="spacing" textLength="115" x="334" y="173.7686">getCurrentSession()</text><polygon fill="#181818" points="327,204.9766,317,208.9766,327,212.9766,323,208.9766" style="stroke:#181818;stroke-width:1.0;"/><line style="stroke:#181818;stroke-width:1.0;stroke-dasharray:2.0,2.0;" x1="321" x2="626" y1="208.9766" y2="208.9766"/><text fill="#000000" font-family="sans-serif" font-size="13" font-weight="bold" lengthAdjust="spacing" textLength="7" x="333" y="204.1201">5</text><text fill="#000000" font-family="sans-serif" font-size="13" lengthAdjust="spacing" textLength="87" x="344" y="204.1201">currentSession</text><polygon fill="#181818" points="743,235.3281,753,239.3281,743,243.3281,747,239.3281" style="stroke:#181818;stroke-width:1.0;"/><line style="stroke:#181818;stroke-width:1.0;" x1="316" x2="749" y1="239.3281" y2="239.3281"/><text fill="#000000" font-family="sans-serif" font-size="13" font-weight="bold" lengthAdjust="spacing" textLength="7" x="323" y="234.4717">6</text><text fill="#000000" font-family="sans-serif" font-size="13" lengthAdjust="spacing" textLength="232" x="334" y="234.4717">isLoggedInWithRole(REQUIRED_ROLE)</text><polygon fill="#181818" points="327,265.6797,317,269.6797,327,273.6797,323,269.6797" style="stroke:#181818;stroke-width:1.0;"/><line style="stroke:#181818;stroke-width:1.0;stroke-dasharray:2.0,2.0;" x1="321" x2="759" y1="269.6797" y2="269.6797"/><text fill="#000000" font-family="sans-serif" font-size="13" font-weight="bold" lengthAdjust="spacing" textLength="7" x="333" y="264.8232">7</text><text fill="#000000" font-family="sans-serif" font-size="13" lengthAdjust="spacing" textLength="45" x="344" y="264.8232">boolean</text><path d="M11,284.6797 L72,284.6797 L72,293.0313 L62,303.0313 L11,303.0313 L11,284.6797 " fill="#EEEEEE" style="stroke:#000000;stroke-width:1.5;"/><rect fill="none" height="188.4063" style="stroke:#000000;stroke-width:1.5;" width="813.5" x="11" y="284.6797"/><text fill="#000000" font-family="sans-serif" font-size="13" font-weight="bold" lengthAdjust="spacing" textLength="16" x="26" y="299.1748">alt</text><text fill="#000000" font-family="sans-serif" font-size="11" font-weight="bold" lengthAdjust="spacing" textLength="87" x="87" y="298.0986">[boolean = true]</text><line style="stroke:#181818;stroke-width:1.0;" x1="316" x2="363" y1="320.3828" y2="320.3828"/><line style="stroke:#181818;stroke-width:1.0;" x1="363" x2="363" y1="320.3828" y2="333.3828"/><line style="stroke:#181818;stroke-width:1.0;" x1="322" x2="363" y1="333.3828" y2="333.3828"/><polygon fill="#181818" points="332,329.3828,322,333.3828,332,337.3828,328,333.3828" style="stroke:#181818;stroke-width:1.0;"/><text fill="#000000" font-family="sans-serif" font-size="13" font-weight="bold" lengthAdjust="spacing" textLength="7" x="328" y="315.5264">8</text><text fill="#000000" font-family="sans-serif" font-size="13" lengthAdjust="spacing" textLength="136" x="339" y="315.5264">performBusinessLogic()</text><ellipse cx="7.5" cy="367.9844" fill="none" rx="4" ry="4" style="stroke:#181818;stroke-width:1.5;"/><polygon fill="#181818" points="24.5,364.7344,14.5,368.7344,24.5,372.7344,20.5,368.7344" style="stroke:#181818;stroke-width:1.0;"/><line style="stroke:#181818;stroke-width:1.0;stroke-dasharray:2.0,2.0;" x1="22.5" x2="305" y1="368.7344" y2="368.7344"/><text fill="#000000" font-family="sans-serif" font-size="13" font-weight="bold" lengthAdjust="spacing" textLength="7" x="25" y="363.8779">9</text><text fill="#000000" font-family="sans-serif" font-size="13" lengthAdjust="spacing" textLength="113" x="36" y="363.8779">operation succeeds</text><polygon fill="#FFFFFF" points="748,378.7344,758,382.7344,748,386.7344,752,382.7344" style="stroke:#FFFFFF;stroke-width:1.0;"/><line style="stroke:#FFFFFF;stroke-width:1.0;" x1="316" x2="754" y1="382.7344" y2="382.7344"/><line style="stroke:#000000;stroke-width:1.0;stroke-dasharray:2.0,2.0;" x1="11" x2="824.5" y1="391.7344" y2="391.7344"/><ellipse cx="7.5" cy="439.3359" fill="none" rx="4" ry="4" style="stroke:#181818;stroke-width:1.5;"/><polygon fill="#181818" points="24.5,436.0859,14.5,440.0859,24.5,444.0859,20.5,440.0859" style="stroke:#181818;stroke-width:1.0;"/><line style="stroke:#181818;stroke-width:1.0;stroke-dasharray:2.0,2.0;" x1="22.5" x2="305" y1="440.0859" y2="440.0859"/><text fill="#000000" font-family="sans-serif" font-size="13" font-weight="bold" lengthAdjust="spacing" textLength="14" x="25" y="435.2295">10</text><text fill="#000000" font-family="sans-serif" font-size="13" lengthAdjust="spacing" textLength="261" x="43" y="435.2295">throw IllegalStateException("Not Authorized")</text><!--SRC=[XPJ1Zfim54Nt_WehNJIpo0z4xKXfYYgaA9b2eYxIKUIO5x06_93zQAPj-kyr9113Cgqt8BW-llTYOr-KBeKH1IzGeymC5i39LC1izwOKyaMa4DFF7BW1IKAdkI-mcKZmg7JA3oAtm9Ye27LLxC4mzZvJ2V038ktnbRa9fAGgXIO-clvUYW9MXytypnmr6SnpC2CkB9-leqLVEolBN4b12dKCrhfB8vmzFUtY88x3rRAl5sLvqNtNq_zFtiNXyiiYM0yniZ86D5rH6ml6PymtKHGirvq99YIf7uBWd66BayVcZa-vDE2UZnyOTwDvvjvv7fma1GgrTGNBMjS8EvuVbL-6FtjoNUaQlb4cS1Vobezh5sT7yru75__tY5w9TmnwMCzgl-1_sFNWFUE33-2GoYumJI49zJT5MOGvZAFWwoQCWi-xQBK81W66Nx2rFWHxflVeeEB6xSrUQDR9gTNpZ-UZrQtGHZXJIp07DCMdoYhjwd0XbBoqtJTSRopkZIr-c4nQ2ZfCizEvhQG4I6odzQtMZ2kwEw_S4fO3WzjtnqmHF3- -MPKttu2jYdD4gFy5hUHqEh6xVidzSuuyT4S_5NbCpbpmAg6i4un7IoG-goX3etv1CdgumO5EweOP6sRx2m00]--></g></svg>