<?plantuml 1.2026.2?><svg xmlns="http://www.w3.org/2000/svg" xmlns:xlink="http://www.w3.org/1999/xlink" contentStyleType="text/css" data-diagram-type="CLASS" height="1061px" preserveAspectRatio="none" style="width:1623px;height:1061px;background:#FFFFFF;" version="1.1" viewBox="0 0 1623 1061" width="1623px" zoomAndPan="magnify"><defs/><g><!--class RequestedRole--><g class="entity" data-qualified-name="RequestedRole" data-source-line="9" id="ent0002"><rect fill="#F1F1F1" height="116.6055" rx="2.5" ry="2.5" style="stroke:#181818;stroke-width:0.5;" width="224.3516" x="939" y="809"/><ellipse cx="998.6709" cy="825" fill="#EB937F" rx="11" ry="11" style="stroke:#181818;stroke-width:1;"/><path d="M997.5303,825.7969 L997.5303,828.2969 L1001.8584,828.2969 L1001.8584,827.375 Q1001.8584,826.7656 1002.0928,826.5 Q1002.3428,826.2344 1002.7178,826.2344 Q1003.0928,826.2344 1003.3271,826.5 Q1003.5615,826.7656 1003.5615,827.375 L1003.5615,830 L995.5615,830 Q994.9365,830 994.6709,829.7656 Q994.4209,829.5313 994.4209,829.1406 Q994.4209,828.7656 994.6865,828.5313 Q994.9521,828.2969 995.5615,828.2969 L995.8271,828.2969 L995.8271,821.6406 L995.5615,821.6406 Q994.9365,821.6406 994.6709,821.4063 Q994.4209,821.1719 994.4209,820.7813 Q994.4209,820.4063 994.6709,820.1719 Q994.9365,819.9375 995.5615,819.9375 L1003.1865,819.9375 L1003.1865,822.5313 Q1003.1865,823.1406 1002.9521,823.4063 Q1002.7334,823.6563 1002.3428,823.6563 Q1001.9678,823.6563 1001.7334,823.4063 Q1001.499,823.1406 1001.499,822.5313 L1001.499,821.6406 L997.5303,821.6406 L997.5303,824.0938 L999.0146,824.0938 Q999.0146,823.4375 999.1396,823.25 Q999.4053,822.8438 999.874,822.8438 Q1000.249,822.8438 1000.4834,823.1094 Q1000.7178,823.3594 1000.7178,823.9688 L1000.7178,825.9375 Q1000.7178,826.4844 1000.5928,826.6719 Q1000.3271,827.0625 999.874,827.0625 Q999.4053,827.0625 999.1396,826.6563 Q999.0146,826.4688 999.0146,825.7969 L997.5303,825.7969 Z " fill="#000000"/><text fill="#000000" font-family="sans-serif" font-size="14" lengthAdjust="spacing" textLength="96.5098" x="1019.1709" y="830.4995">RequestedRole</text><line style="stroke:#181818;stroke-width:0.5;" x1="940" x2="1162.3516" y1="841" y2="841"/><text fill="#000000" font-family="sans-serif" font-size="14" lengthAdjust="spacing" textLength="127.5928" x="945" y="859.0752">POLITICAL_AGENT</text><text fill="#000000" font-family="sans-serif" font-size="14" lengthAdjust="spacing" textLength="54.4414" x="945" y="876.2266">CITIZEN</text><text fill="#000000" font-family="sans-serif" font-size="14" lengthAdjust="spacing" textLength="87.124" x="945" y="893.3779">JOURNALIST</text><text fill="#000000" font-family="sans-serif" font-size="14" lengthAdjust="spacing" textLength="212.3516" x="945" y="910.5293">ETHICS_COMMITTEE_MEMBER</text><line style="stroke:#181818;stroke-width:0.5;" x1="940" x2="1162.3516" y1="917.6055" y2="917.6055"/></g><!--class RequestStatus--><g class="entity" data-qualified-name="RequestStatus" data-source-line="16" id="ent0003"><rect fill="#F1F1F1" height="99.4541" rx="2.5" ry="2.5" style="stroke:#181818;stroke-width:0.5;" width="123.834" x="59" y="818"/><ellipse cx="74" cy="834" fill="#EB937F" rx="11" ry="11" style="stroke:#181818;stroke-width:1;"/><path d="M72.8594,834.7969 L72.8594,837.2969 L77.1875,837.2969 L77.1875,836.375 Q77.1875,835.7656 77.4219,835.5 Q77.6719,835.2344 78.0469,835.2344 Q78.4219,835.2344 78.6563,835.5 Q78.8906,835.7656 78.8906,836.375 L78.8906,839 L70.8906,839 Q70.2656,839 70,838.7656 Q69.75,838.5313 69.75,838.1406 Q69.75,837.7656 70.0156,837.5313 Q70.2813,837.2969 70.8906,837.2969 L71.1563,837.2969 L71.1563,830.6406 L70.8906,830.6406 Q70.2656,830.6406 70,830.4063 Q69.75,830.1719 69.75,829.7813 Q69.75,829.4063 70,829.1719 Q70.2656,828.9375 70.8906,828.9375 L78.5156,828.9375 L78.5156,831.5313 Q78.5156,832.1406 78.2813,832.4063 Q78.0625,832.6563 77.6719,832.6563 Q77.2969,832.6563 77.0625,832.4063 Q76.8281,832.1406 76.8281,831.5313 L76.8281,830.6406 L72.8594,830.6406 L72.8594,833.0938 L74.3438,833.0938 Q74.3438,832.4375 74.4688,832.25 Q74.7344,831.8438 75.2031,831.8438 Q75.5781,831.8438 75.8125,832.1094 Q76.0469,832.3594 76.0469,832.9688 L76.0469,834.9375 Q76.0469,835.4844 75.9219,835.6719 Q75.6563,836.0625 75.2031,836.0625 Q74.7344,836.0625 74.4688,835.6563 Q74.3438,835.4688 74.3438,834.7969 L72.8594,834.7969 Z " fill="#000000"/><text fill="#000000" font-family="sans-serif" font-size="14" lengthAdjust="spacing" textLength="91.834" x="88" y="839.4995">RequestStatus</text><line style="stroke:#181818;stroke-width:0.5;" x1="60" x2="181.834" y1="850" y2="850"/><text fill="#000000" font-family="sans-serif" font-size="14" lengthAdjust="spacing" textLength="63.7861" x="65" y="868.0752">PENDING</text><text fill="#000000" font-family="sans-serif" font-size="14" lengthAdjust="spacing" textLength="76.2344" x="65" y="885.2266">ACCEPTED</text><text fill="#000000" font-family="sans-serif" font-size="14" lengthAdjust="spacing" textLength="73.8965" x="65" y="902.3779">REJECTED</text><line style="stroke:#181818;stroke-width:0.5;" x1="60" x2="181.834" y1="909.4541" y2="909.4541"/></g><!--class User--><g class="entity" data-qualified-name="User" data-source-line="22" id="ent0004"><rect fill="#F1F1F1" height="116.6055" rx="2.5" ry="2.5" style="stroke:#181818;stroke-width:0.5;" width="124.8203" x="1198.5" y="809"/><ellipse cx="1241.9678" cy="825" fill="#A9DCDF" rx="11" ry="11" style="stroke:#181818;stroke-width:1;"/><path d="M1244.1553,826.7656 L1240.0146,826.7656 L1239.5928,827.7969 L1240.0146,827.7969 Q1240.624,827.7969 1240.8896,828.0313 Q1241.1553,828.2656 1241.1553,828.6563 Q1241.1553,829.0313 1240.8896,829.2656 Q1240.624,829.5 1240.0146,829.5 L1237.7178,829.5 Q1237.1084,829.5 1236.8584,829.2656 Q1236.5928,829.0313 1236.5928,828.6406 Q1236.5928,828.2656 1236.874,828.0313 Q1237.1396,827.7813 1237.7646,827.7969 L1240.4365,821.1406 L1239.3271,821.1406 Q1238.7178,821.1406 1238.4521,820.9063 Q1238.1865,820.6719 1238.1865,820.2813 Q1238.1865,819.9063 1238.4521,819.6719 Q1238.7178,819.4375 1239.3271,819.4375 L1242.999,819.4375 L1246.3896,827.7969 Q1246.9834,827.7969 1247.1709,827.9375 Q1247.5615,828.2031 1247.5615,828.6563 Q1247.5615,829.0313 1247.2959,829.2656 Q1247.0459,829.5 1246.4365,829.5 L1244.1396,829.5 Q1243.5303,829.5 1243.2646,829.2656 Q1242.999,829.0313 1242.999,828.6406 Q1242.999,828.2656 1243.2646,828.0313 Q1243.5303,827.7969 1244.1396,827.7969 L1244.5615,827.7969 L1244.1553,826.7656 Z M1243.4365,825.0625 L1242.0771,821.6875 L1240.7021,825.0625 L1243.4365,825.0625 Z " fill="#000000"/><text fill="#000000" font-family="sans-serif" font-size="14" font-style="italic" lengthAdjust="spacing" textLength="29.5586" x="1262.2939" y="830.4995">User</text><line style="stroke:#181818;stroke-width:0.5;" x1="1199.5" x2="1322.3203" y1="841" y2="841"/><text fill="#000000" font-family="sans-serif" font-size="14" lengthAdjust="spacing" textLength="87.9238" x="1204.5" y="859.0752">-name : String</text><text fill="#000000" font-family="sans-serif" font-size="14" lengthAdjust="spacing" textLength="83.2549" x="1204.5" y="876.2266">-taxId : String</text><text fill="#000000" font-family="sans-serif" font-size="14" lengthAdjust="spacing" textLength="86.3584" x="1204.5" y="893.3779">-email : String</text><text fill="#000000" font-family="sans-serif" font-size="14" lengthAdjust="spacing" textLength="112.8203" x="1204.5" y="910.5293">-password : String</text><line style="stroke:#181818;stroke-width:0.5;" x1="1199.5" x2="1322.3203" y1="917.6055" y2="917.6055"/></g><!--class PoliticalAgent--><g class="entity" data-qualified-name="PoliticalAgent" data-source-line="29" id="ent0005"><rect fill="#F1F1F1" height="48" rx="2.5" ry="2.5" style="stroke:#181818;stroke-width:0.5;" width="116.8271" x="1499.5" y="997.5"/><ellipse cx="1514.5" cy="1013.5" fill="#ADD1B2" rx="11" ry="11" style="stroke:#181818;stroke-width:1;"/><path d="M1517.2656,1009.375 Q1517.4219,1009.1563 1517.6094,1009.0469 Q1517.7969,1008.9375 1518.0156,1008.9375 Q1518.3906,1008.9375 1518.625,1009.2031 Q1518.8594,1009.4531 1518.8594,1010.0625 L1518.8594,1011.5156 Q1518.8594,1012.125 1518.625,1012.3906 Q1518.3906,1012.6563 1518.0156,1012.6563 Q1517.6719,1012.6563 1517.4688,1012.4531 Q1517.2656,1012.2656 1517.1563,1011.75 Q1517.1094,1011.3906 1516.9219,1011.2031 Q1516.5938,1010.8281 1515.9844,1010.6094 Q1515.375,1010.3906 1514.75,1010.3906 Q1513.9844,1010.3906 1513.3438,1010.7188 Q1512.7188,1011.0469 1512.2188,1011.7969 Q1511.7344,1012.5469 1511.7344,1013.5781 L1511.7344,1014.6719 Q1511.7344,1015.9063 1512.625,1016.7344 Q1513.5156,1017.5469 1515.1094,1017.5469 Q1516.0469,1017.5469 1516.7031,1017.2969 Q1517.0938,1017.1406 1517.5156,1016.7031 Q1517.7813,1016.4375 1517.9219,1016.3594 Q1518.0781,1016.2813 1518.2813,1016.2813 Q1518.6094,1016.2813 1518.8594,1016.5469 Q1519.125,1016.7969 1519.125,1017.1406 Q1519.125,1017.4844 1518.7813,1017.8906 Q1518.2813,1018.4688 1517.4844,1018.7969 Q1516.4063,1019.25 1515.1094,1019.25 Q1513.5938,1019.25 1512.3906,1018.625 Q1511.4063,1018.125 1510.7188,1017.0625 Q1510.0313,1015.9844 1510.0313,1014.7031 L1510.0313,1013.5469 Q1510.0313,1012.2188 1510.6406,1011.0781 Q1511.2656,1009.9219 1512.3594,1009.3125 Q1513.4531,1008.6875 1514.6875,1008.6875 Q1515.4219,1008.6875 1516.0625,1008.8594 Q1516.7188,1009.0156 1517.2656,1009.375 Z " fill="#000000"/><text fill="#000000" font-family="sans-serif" font-size="14" lengthAdjust="spacing" textLength="84.8271" x="1528.5" y="1018.9995">PoliticalAgent</text><line style="stroke:#181818;stroke-width:0.5;" x1="1500.5" x2="1615.3271" y1="1029.5" y2="1029.5"/><line style="stroke:#181818;stroke-width:0.5;" x1="1500.5" x2="1615.3271" y1="1037.5" y2="1037.5"/></g><!--class Citizen--><g class="entity" data-qualified-name="Citizen" data-source-line="32" id="ent0006"><rect fill="#F1F1F1" height="48" rx="2.5" ry="2.5" style="stroke:#181818;stroke-width:0.5;" width="74.793" x="951.5" y="997.5"/><ellipse cx="966.5" cy="1013.5" fill="#ADD1B2" rx="11" ry="11" style="stroke:#181818;stroke-width:1;"/><path d="M969.2656,1009.375 Q969.4219,1009.1563 969.6094,1009.0469 Q969.7969,1008.9375 970.0156,1008.9375 Q970.3906,1008.9375 970.625,1009.2031 Q970.8594,1009.4531 970.8594,1010.0625 L970.8594,1011.5156 Q970.8594,1012.125 970.625,1012.3906 Q970.3906,1012.6563 970.0156,1012.6563 Q969.6719,1012.6563 969.4688,1012.4531 Q969.2656,1012.2656 969.1563,1011.75 Q969.1094,1011.3906 968.9219,1011.2031 Q968.5938,1010.8281 967.9844,1010.6094 Q967.375,1010.3906 966.75,1010.3906 Q965.9844,1010.3906 965.3438,1010.7188 Q964.7188,1011.0469 964.2188,1011.7969 Q963.7344,1012.5469 963.7344,1013.5781 L963.7344,1014.6719 Q963.7344,1015.9063 964.625,1016.7344 Q965.5156,1017.5469 967.1094,1017.5469 Q968.0469,1017.5469 968.7031,1017.2969 Q969.0938,1017.1406 969.5156,1016.7031 Q969.7813,1016.4375 969.9219,1016.3594 Q970.0781,1016.2813 970.2813,1016.2813 Q970.6094,1016.2813 970.8594,1016.5469 Q971.125,1016.7969 971.125,1017.1406 Q971.125,1017.4844 970.7813,1017.8906 Q970.2813,1018.4688 969.4844,1018.7969 Q968.4063,1019.25 967.1094,1019.25 Q965.5938,1019.25 964.3906,1018.625 Q963.4063,1018.125 962.7188,1017.0625 Q962.0313,1015.9844 962.0313,1014.7031 L962.0313,1013.5469 Q962.0313,1012.2188 962.6406,1011.0781 Q963.2656,1009.9219 964.3594,1009.3125 Q965.4531,1008.6875 966.6875,1008.6875 Q967.4219,1008.6875 968.0625,1008.8594 Q968.7188,1009.0156 969.2656,1009.375 Z " fill="#000000"/><text fill="#000000" font-family="sans-serif" font-size="14" lengthAdjust="spacing" textLength="42.793" x="980.5" y="1018.9995">Citizen</text><line style="stroke:#181818;stroke-width:0.5;" x1="952.5" x2="1025.293" y1="1029.5" y2="1029.5"/><line style="stroke:#181818;stroke-width:0.5;" x1="952.5" x2="1025.293" y1="1037.5" y2="1037.5"/></g><!--class Journalist--><g class="entity" data-qualified-name="Journalist" data-source-line="35" id="ent0007"><rect fill="#F1F1F1" height="65.1514" rx="2.5" ry="2.5" style="stroke:#181818;stroke-width:0.5;" width="179.2754" x="1061.5" y="989"/><ellipse cx="1116.9292" cy="1005" fill="#ADD1B2" rx="11" ry="11" style="stroke:#181818;stroke-width:1;"/><path d="M1119.6948,1000.875 Q1119.8511,1000.6563 1120.0386,1000.5469 Q1120.2261,1000.4375 1120.4448,1000.4375 Q1120.8198,1000.4375 1121.0542,1000.7031 Q1121.2886,1000.9531 1121.2886,1001.5625 L1121.2886,1003.0156 Q1121.2886,1003.625 1121.0542,1003.8906 Q1120.8198,1004.1563 1120.4448,1004.1563 Q1120.1011,1004.1563 1119.8979,1003.9531 Q1119.6948,1003.7656 1119.5854,1003.25 Q1119.5386,1002.8906 1119.3511,1002.7031 Q1119.0229,1002.3281 1118.4136,1002.1094 Q1117.8042,1001.8906 1117.1792,1001.8906 Q1116.4136,1001.8906 1115.7729,1002.2188 Q1115.1479,1002.5469 1114.6479,1003.2969 Q1114.1636,1004.0469 1114.1636,1005.0781 L1114.1636,1006.1719 Q1114.1636,1007.4063 1115.0542,1008.2344 Q1115.9448,1009.0469 1117.5386,1009.0469 Q1118.4761,1009.0469 1119.1323,1008.7969 Q1119.5229,1008.6406 1119.9448,1008.2031 Q1120.2104,1007.9375 1120.3511,1007.8594 Q1120.5073,1007.7813 1120.7104,1007.7813 Q1121.0386,1007.7813 1121.2886,1008.0469 Q1121.5542,1008.2969 1121.5542,1008.6406 Q1121.5542,1008.9844 1121.2104,1009.3906 Q1120.7104,1009.9688 1119.9136,1010.2969 Q1118.8354,1010.75 1117.5386,1010.75 Q1116.0229,1010.75 1114.8198,1010.125 Q1113.8354,1009.625 1113.1479,1008.5625 Q1112.4604,1007.4844 1112.4604,1006.2031 L1112.4604,1005.0469 Q1112.4604,1003.7188 1113.0698,1002.5781 Q1113.6948,1001.4219 1114.7886,1000.8125 Q1115.8823,1000.1875 1117.1167,1000.1875 Q1117.8511,1000.1875 1118.4917,1000.3594 Q1119.1479,1000.5156 1119.6948,1000.875 Z " fill="#000000"/><text fill="#000000" font-family="sans-serif" font-size="14" lengthAdjust="spacing" textLength="59.917" x="1137.4292" y="1010.4995">Journalist</text><line style="stroke:#181818;stroke-width:0.5;" x1="1062.5" x2="1239.7754" y1="1021" y2="1021"/><text fill="#000000" font-family="sans-serif" font-size="14" lengthAdjust="spacing" textLength="167.2754" x="1067.5" y="1039.0752">-pressCardNumber : String</text><line style="stroke:#181818;stroke-width:0.5;" x1="1062.5" x2="1239.7754" y1="1046.1514" y2="1046.1514"/></g><!--class EthicsCommitteeMember--><g class="entity" data-qualified-name="EthicsCommitteeMember" data-source-line="39" id="ent0008"><rect fill="#F1F1F1" height="48" rx="2.5" ry="2.5" style="stroke:#181818;stroke-width:0.5;" width="189.1514" x="1275.5" y="997.5"/><ellipse cx="1290.5" cy="1013.5" fill="#ADD1B2" rx="11" ry="11" style="stroke:#181818;stroke-width:1;"/><path d="M1293.2656,1009.375 Q1293.4219,1009.1563 1293.6094,1009.0469 Q1293.7969,1008.9375 1294.0156,1008.9375 Q1294.3906,1008.9375 1294.625,1009.2031 Q1294.8594,1009.4531 1294.8594,1010.0625 L1294.8594,1011.5156 Q1294.8594,1012.125 1294.625,1012.3906 Q1294.3906,1012.6563 1294.0156,1012.6563 Q1293.6719,1012.6563 1293.4688,1012.4531 Q1293.2656,1012.2656 1293.1563,1011.75 Q1293.1094,1011.3906 1292.9219,1011.2031 Q1292.5938,1010.8281 1291.9844,1010.6094 Q1291.375,1010.3906 1290.75,1010.3906 Q1289.9844,1010.3906 1289.3438,1010.7188 Q1288.7188,1011.0469 1288.2188,1011.7969 Q1287.7344,1012.5469 1287.7344,1013.5781 L1287.7344,1014.6719 Q1287.7344,1015.9063 1288.625,1016.7344 Q1289.5156,1017.5469 1291.1094,1017.5469 Q1292.0469,1017.5469 1292.7031,1017.2969 Q1293.0938,1017.1406 1293.5156,1016.7031 Q1293.7813,1016.4375 1293.9219,1016.3594 Q1294.0781,1016.2813 1294.2813,1016.2813 Q1294.6094,1016.2813 1294.8594,1016.5469 Q1295.125,1016.7969 1295.125,1017.1406 Q1295.125,1017.4844 1294.7813,1017.8906 Q1294.2813,1018.4688 1293.4844,1018.7969 Q1292.4063,1019.25 1291.1094,1019.25 Q1289.5938,1019.25 1288.3906,1018.625 Q1287.4063,1018.125 1286.7188,1017.0625 Q1286.0313,1015.9844 1286.0313,1014.7031 L1286.0313,1013.5469 Q1286.0313,1012.2188 1286.6406,1011.0781 Q1287.2656,1009.9219 1288.3594,1009.3125 Q1289.4531,1008.6875 1290.6875,1008.6875 Q1291.4219,1008.6875 1292.0625,1008.8594 Q1292.7188,1009.0156 1293.2656,1009.375 Z " fill="#000000"/><text fill="#000000" font-family="sans-serif" font-size="14" lengthAdjust="spacing" textLength="157.1514" x="1304.5" y="1018.9995">EthicsCommitteeMember</text><line style="stroke:#181818;stroke-width:0.5;" x1="1276.5" x2="1463.6514" y1="1029.5" y2="1029.5"/><line style="stroke:#181818;stroke-width:0.5;" x1="1276.5" x2="1463.6514" y1="1037.5" y2="1037.5"/></g><!--class Administrator--><g class="entity" data-qualified-name="Administrator" data-source-line="42" id="ent0009"><rect fill="#F1F1F1" height="48" rx="2.5" ry="2.5" style="stroke:#181818;stroke-width:0.5;" width="114.4688" x="433" y="997.5"/><ellipse cx="448" cy="1013.5" fill="#ADD1B2" rx="11" ry="11" style="stroke:#181818;stroke-width:1;"/><path d="M450.7656,1009.375 Q450.9219,1009.1563 451.1094,1009.0469 Q451.2969,1008.9375 451.5156,1008.9375 Q451.8906,1008.9375 452.125,1009.2031 Q452.3594,1009.4531 452.3594,1010.0625 L452.3594,1011.5156 Q452.3594,1012.125 452.125,1012.3906 Q451.8906,1012.6563 451.5156,1012.6563 Q451.1719,1012.6563 450.9688,1012.4531 Q450.7656,1012.2656 450.6563,1011.75 Q450.6094,1011.3906 450.4219,1011.2031 Q450.0938,1010.8281 449.4844,1010.6094 Q448.875,1010.3906 448.25,1010.3906 Q447.4844,1010.3906 446.8438,1010.7188 Q446.2188,1011.0469 445.7188,1011.7969 Q445.2344,1012.5469 445.2344,1013.5781 L445.2344,1014.6719 Q445.2344,1015.9063 446.125,1016.7344 Q447.0156,1017.5469 448.6094,1017.5469 Q449.5469,1017.5469 450.2031,1017.2969 Q450.5938,1017.1406 451.0156,1016.7031 Q451.2813,1016.4375 451.4219,1016.3594 Q451.5781,1016.2813 451.7813,1016.2813 Q452.1094,1016.2813 452.3594,1016.5469 Q452.625,1016.7969 452.625,1017.1406 Q452.625,1017.4844 452.2813,1017.8906 Q451.7813,1018.4688 450.9844,1018.7969 Q449.9063,1019.25 448.6094,1019.25 Q447.0938,1019.25 445.8906,1018.625 Q444.9063,1018.125 444.2188,1017.0625 Q443.5313,1015.9844 443.5313,1014.7031 L443.5313,1013.5469 Q443.5313,1012.2188 444.1406,1011.0781 Q444.7656,1009.9219 445.8594,1009.3125 Q446.9531,1008.6875 448.1875,1008.6875 Q448.9219,1008.6875 449.5625,1008.8594 Q450.2188,1009.0156 450.7656,1009.375 Z " fill="#000000"/><text fill="#000000" font-family="sans-serif" font-size="14" lengthAdjust="spacing" textLength="82.4688" x="462" y="1018.9995">Administrator</text><line style="stroke:#181818;stroke-width:0.5;" x1="434" x2="546.4688" y1="1029.5" y2="1029.5"/><line style="stroke:#181818;stroke-width:0.5;" x1="434" x2="546.4688" y1="1037.5" y2="1037.5"/></g><!--class RegistrationRequest--><g class="entity" data-qualified-name="RegistrationRequest" data-source-line="45" id="ent0010"><rect fill="#F1F1F1" height="288.1191" rx="2.5" ry="2.5" style="stroke:#181818;stroke-width:0.5;" width="332.2158" x="583" y="442"/><ellipse cx="681.4341" cy="458" fill="#ADD1B2" rx="11" ry="11" style="stroke:#181818;stroke-width:1;"/><path d="M684.1997,453.875 Q684.356,453.6563 684.5435,453.5469 Q684.731,453.4375 684.9497,453.4375 Q685.3247,453.4375 685.5591,453.7031 Q685.7935,453.9531 685.7935,454.5625 L685.7935,456.0156 Q685.7935,456.625 685.5591,456.8906 Q685.3247,457.1563 684.9497,457.1563 Q684.606,457.1563 684.4028,456.9531 Q684.1997,456.7656 684.0903,456.25 Q684.0435,455.8906 683.856,455.7031 Q683.5278,455.3281 682.9185,455.1094 Q682.3091,454.8906 681.6841,454.8906 Q680.9185,454.8906 680.2778,455.2188 Q679.6528,455.5469 679.1528,456.2969 Q678.6685,457.0469 678.6685,458.0781 L678.6685,459.1719 Q678.6685,460.4063 679.5591,461.2344 Q680.4497,462.0469 682.0435,462.0469 Q682.981,462.0469 683.6372,461.7969 Q684.0278,461.6406 684.4497,461.2031 Q684.7153,460.9375 684.856,460.8594 Q685.0122,460.7813 685.2153,460.7813 Q685.5435,460.7813 685.7935,461.0469 Q686.0591,461.2969 686.0591,461.6406 Q686.0591,461.9844 685.7153,462.3906 Q685.2153,462.9688 684.4185,463.2969 Q683.3403,463.75 682.0435,463.75 Q680.5278,463.75 679.3247,463.125 Q678.3403,462.625 677.6528,461.5625 Q676.9653,460.4844 676.9653,459.2031 L676.9653,458.0469 Q676.9653,456.7188 677.5747,455.5781 Q678.1997,454.4219 679.2935,453.8125 Q680.3872,453.1875 681.6216,453.1875 Q682.356,453.1875 682.9966,453.3594 Q683.6528,453.5156 684.1997,453.875 Z " fill="#000000"/><text fill="#000000" font-family="sans-serif" font-size="14" lengthAdjust="spacing" textLength="126.8477" x="701.9341" y="463.4995">RegistrationRequest</text><line style="stroke:#181818;stroke-width:0.5;" x1="584" x2="914.2158" y1="474" y2="474"/><text fill="#000000" font-family="sans-serif" font-size="14" lengthAdjust="spacing" textLength="155.6406" x="589" y="492.0752">-requestDate : LocalDate</text><text fill="#000000" font-family="sans-serif" font-size="14" lengthAdjust="spacing" textLength="191.4199" x="589" y="509.2266">-decisionDate : LocalDateTime</text><text fill="#000000" font-family="sans-serif" font-size="14" lengthAdjust="spacing" textLength="87.9238" x="589" y="526.3779">-name : String</text><text fill="#000000" font-family="sans-serif" font-size="14" lengthAdjust="spacing" textLength="83.2549" x="589" y="543.5293">-taxId : String</text><text fill="#000000" font-family="sans-serif" font-size="14" lengthAdjust="spacing" textLength="86.3584" x="589" y="560.6807">-email : String</text><text fill="#000000" font-family="sans-serif" font-size="14" lengthAdjust="spacing" textLength="112.8203" x="589" y="577.832">-password : String</text><text fill="#000000" font-family="sans-serif" font-size="14" lengthAdjust="spacing" textLength="227.2197" x="589" y="594.9834">-nationalIdentityCardNumber : String</text><text fill="#000000" font-family="sans-serif" font-size="14" lengthAdjust="spacing" textLength="167.2754" x="589" y="612.1348">-pressCardNumber : String</text><text fill="#000000" font-family="sans-serif" font-size="14" lengthAdjust="spacing" textLength="164.9785" x="589" y="629.2861">-requestedPosition : String</text><text fill="#000000" font-family="sans-serif" font-size="14" lengthAdjust="spacing" textLength="175.0957" x="589" y="646.4375">-requestedInstitution : String</text><line style="stroke:#181818;stroke-width:0.5;" x1="584" x2="914.2158" y1="653.5137" y2="653.5137"/><text fill="#000000" font-family="sans-serif" font-size="14" lengthAdjust="spacing" textLength="180.8926" x="589" y="671.5889">+accept(administrator) : User</text><text fill="#000000" font-family="sans-serif" font-size="14" lengthAdjust="spacing" textLength="320.2158" x="589" y="688.7402">+reject(administrator, rejectionReason) : Annotation</text><text fill="#000000" font-family="sans-serif" font-size="14" lengthAdjust="spacing" textLength="123.6826" x="589" y="705.8916">-createUser() : User</text><text fill="#000000" font-family="sans-serif" font-size="14" lengthAdjust="spacing" textLength="195.2754" x="589" y="723.043">-registerDecision(administrator)</text></g><!--class Annotation--><g class="entity" data-qualified-name="Annotation" data-source-line="63" id="ent0011"><rect fill="#F1F1F1" height="99.4541" rx="2.5" ry="2.5" style="stroke:#181818;stroke-width:0.5;" width="201.8613" x="218" y="818"/><ellipse cx="281.2085" cy="834" fill="#ADD1B2" rx="11" ry="11" style="stroke:#181818;stroke-width:1;"/><path d="M283.9741,829.875 Q284.1304,829.6563 284.3179,829.5469 Q284.5054,829.4375 284.7241,829.4375 Q285.0991,829.4375 285.3335,829.7031 Q285.5679,829.9531 285.5679,830.5625 L285.5679,832.0156 Q285.5679,832.625 285.3335,832.8906 Q285.0991,833.1563 284.7241,833.1563 Q284.3804,833.1563 284.1772,832.9531 Q283.9741,832.7656 283.8647,832.25 Q283.8179,831.8906 283.6304,831.7031 Q283.3022,831.3281 282.6929,831.1094 Q282.0835,830.8906 281.4585,830.8906 Q280.6929,830.8906 280.0522,831.2188 Q279.4272,831.5469 278.9272,832.2969 Q278.4429,833.0469 278.4429,834.0781 L278.4429,835.1719 Q278.4429,836.4063 279.3335,837.2344 Q280.2241,838.0469 281.8179,838.0469 Q282.7554,838.0469 283.4116,837.7969 Q283.8022,837.6406 284.2241,837.2031 Q284.4897,836.9375 284.6304,836.8594 Q284.7866,836.7813 284.9897,836.7813 Q285.3179,836.7813 285.5679,837.0469 Q285.8335,837.2969 285.8335,837.6406 Q285.8335,837.9844 285.4897,838.3906 Q284.9897,838.9688 284.1929,839.2969 Q283.1147,839.75 281.8179,839.75 Q280.3022,839.75 279.0991,839.125 Q278.1147,838.625 277.4272,837.5625 Q276.7397,836.4844 276.7397,835.2031 L276.7397,834.0469 Q276.7397,832.7188 277.3491,831.5781 Q277.9741,830.4219 279.0679,829.8125 Q280.1616,829.1875 281.396,829.1875 Q282.1304,829.1875 282.771,829.3594 Q283.4272,829.5156 283.9741,829.875 Z " fill="#000000"/><text fill="#000000" font-family="sans-serif" font-size="14" lengthAdjust="spacing" textLength="66.9443" x="301.7085" y="839.4995">Annotation</text><line style="stroke:#181818;stroke-width:0.5;" x1="219" x2="418.8613" y1="850" y2="850"/><text fill="#000000" font-family="sans-serif" font-size="14" lengthAdjust="spacing" textLength="75.4688" x="224" y="868.0752">-text : String</text><text fill="#000000" font-family="sans-serif" font-size="14" lengthAdjust="spacing" textLength="189.8613" x="224" y="885.2266">-creationDate : LocalDateTime</text><line style="stroke:#181818;stroke-width:0.5;" x1="219" x2="418.8613" y1="892.3027" y2="892.3027"/><text fill="#000000" font-family="sans-serif" font-size="14" lengthAdjust="spacing" textLength="107.0098" x="224" y="910.3779">+Annotation(text)</text></g><!--class RegistrationRequestRepository--><g class="entity" data-qualified-name="RegistrationRequestRepository" data-source-line="70" id="ent0012"><rect fill="#F1F1F1" height="99.4541" rx="2.5" ry="2.5" style="stroke:#181818;stroke-width:0.5;" width="326.002" x="393" y="266"/><ellipse cx="454.8687" cy="282" fill="#ADD1B2" rx="11" ry="11" style="stroke:#181818;stroke-width:1;"/><path d="M457.6343,277.875 Q457.7905,277.6563 457.978,277.5469 Q458.1655,277.4375 458.3843,277.4375 Q458.7593,277.4375 458.9937,277.7031 Q459.228,277.9531 459.228,278.5625 L459.228,280.0156 Q459.228,280.625 458.9937,280.8906 Q458.7593,281.1563 458.3843,281.1563 Q458.0405,281.1563 457.8374,280.9531 Q457.6343,280.7656 457.5249,280.25 Q457.478,279.8906 457.2905,279.7031 Q456.9624,279.3281 456.353,279.1094 Q455.7437,278.8906 455.1187,278.8906 Q454.353,278.8906 453.7124,279.2188 Q453.0874,279.5469 452.5874,280.2969 Q452.103,281.0469 452.103,282.0781 L452.103,283.1719 Q452.103,284.4063 452.9937,285.2344 Q453.8843,286.0469 455.478,286.0469 Q456.4155,286.0469 457.0718,285.7969 Q457.4624,285.6406 457.8843,285.2031 Q458.1499,284.9375 458.2905,284.8594 Q458.4468,284.7813 458.6499,284.7813 Q458.978,284.7813 459.228,285.0469 Q459.4937,285.2969 459.4937,285.6406 Q459.4937,285.9844 459.1499,286.3906 Q458.6499,286.9688 457.853,287.2969 Q456.7749,287.75 455.478,287.75 Q453.9624,287.75 452.7593,287.125 Q451.7749,286.625 451.0874,285.5625 Q450.3999,284.4844 450.3999,283.2031 L450.3999,282.0469 Q450.3999,280.7188 451.0093,279.5781 Q451.6343,278.4219 452.728,277.8125 Q453.8218,277.1875 455.0562,277.1875 Q455.7905,277.1875 456.4312,277.3594 Q457.0874,277.5156 457.6343,277.875 Z " fill="#000000"/><text fill="#000000" font-family="sans-serif" font-size="14" lengthAdjust="spacing" textLength="193.7646" x="475.3687" y="287.4995">RegistrationRequestRepository</text><line style="stroke:#181818;stroke-width:0.5;" x1="394" x2="718.002" y1="298" y2="298"/><line style="stroke:#181818;stroke-width:0.5;" x1="394" x2="718.002" y1="306" y2="306"/><text fill="#000000" font-family="sans-serif" font-size="14" lengthAdjust="spacing" textLength="222.1885" x="399" y="324.0752">+getPendingRegistrationRequests()</text><text fill="#000000" font-family="sans-serif" font-size="14" lengthAdjust="spacing" textLength="289.1055" x="399" y="341.2266">+addRegistrationRequest(registrationRequest)</text><text fill="#000000" font-family="sans-serif" font-size="14" lengthAdjust="spacing" textLength="314.002" x="399" y="358.3779">+validateRegistrationRequest(registrationRequest)</text></g><!--class UserRepository--><g class="entity" data-qualified-name="UserRepository" data-source-line="76" id="ent0013"><rect fill="#F1F1F1" height="99.4541" rx="2.5" ry="2.5" style="stroke:#181818;stroke-width:0.5;" width="216.2305" x="979" y="266"/><ellipse cx="1034.6274" cy="282" fill="#ADD1B2" rx="11" ry="11" style="stroke:#181818;stroke-width:1;"/><path d="M1037.3931,277.875 Q1037.5493,277.6563 1037.7368,277.5469 Q1037.9243,277.4375 1038.1431,277.4375 Q1038.5181,277.4375 1038.7524,277.7031 Q1038.9868,277.9531 1038.9868,278.5625 L1038.9868,280.0156 Q1038.9868,280.625 1038.7524,280.8906 Q1038.5181,281.1563 1038.1431,281.1563 Q1037.7993,281.1563 1037.5962,280.9531 Q1037.3931,280.7656 1037.2837,280.25 Q1037.2368,279.8906 1037.0493,279.7031 Q1036.7212,279.3281 1036.1118,279.1094 Q1035.5024,278.8906 1034.8774,278.8906 Q1034.1118,278.8906 1033.4712,279.2188 Q1032.8462,279.5469 1032.3462,280.2969 Q1031.8618,281.0469 1031.8618,282.0781 L1031.8618,283.1719 Q1031.8618,284.4063 1032.7524,285.2344 Q1033.6431,286.0469 1035.2368,286.0469 Q1036.1743,286.0469 1036.8306,285.7969 Q1037.2212,285.6406 1037.6431,285.2031 Q1037.9087,284.9375 1038.0493,284.8594 Q1038.2056,284.7813 1038.4087,284.7813 Q1038.7368,284.7813 1038.9868,285.0469 Q1039.2524,285.2969 1039.2524,285.6406 Q1039.2524,285.9844 1038.9087,286.3906 Q1038.4087,286.9688 1037.6118,287.2969 Q1036.5337,287.75 1035.2368,287.75 Q1033.7212,287.75 1032.5181,287.125 Q1031.5337,286.625 1030.8462,285.5625 Q1030.1587,284.4844 1030.1587,283.2031 L1030.1587,282.0469 Q1030.1587,280.7188 1030.7681,279.5781 Q1031.3931,278.4219 1032.4868,277.8125 Q1033.5806,277.1875 1034.8149,277.1875 Q1035.5493,277.1875 1036.1899,277.3594 Q1036.8462,277.5156 1037.3931,277.875 Z " fill="#000000"/><text fill="#000000" font-family="sans-serif" font-size="14" lengthAdjust="spacing" textLength="96.4756" x="1055.1274" y="287.4995">UserRepository</text><line style="stroke:#181818;stroke-width:0.5;" x1="980" x2="1194.2305" y1="298" y2="298"/><line style="stroke:#181818;stroke-width:0.5;" x1="980" x2="1194.2305" y1="306" y2="306"/><text fill="#000000" font-family="sans-serif" font-size="14" lengthAdjust="spacing" textLength="97.6514" x="985" y="324.0752">+addUser(user)</text><text fill="#000000" font-family="sans-serif" font-size="14" lengthAdjust="spacing" textLength="122.5479" x="985" y="341.2266">+validateUser(user)</text><text fill="#000000" font-family="sans-serif" font-size="14" lengthAdjust="spacing" textLength="204.2305" x="985" y="358.3779">+getAdministratorByEmail(email)</text></g><!--class Repositories--><g class="entity" data-qualified-name="Repositories" data-source-line="82" id="ent0014"><rect fill="#F1F1F1" height="116.6055" rx="2.5" ry="2.5" style="stroke:#181818;stroke-width:0.5;" width="242.7266" x="879.5" y="46.5"/><ellipse cx="957.7065" cy="62.5" fill="#ADD1B2" rx="11" ry="11" style="stroke:#181818;stroke-width:1;"/><path d="M960.4722,58.375 Q960.6284,58.1563 960.8159,58.0469 Q961.0034,57.9375 961.2222,57.9375 Q961.5972,57.9375 961.8315,58.2031 Q962.0659,58.4531 962.0659,59.0625 L962.0659,60.5156 Q962.0659,61.125 961.8315,61.3906 Q961.5972,61.6563 961.2222,61.6563 Q960.8784,61.6563 960.6753,61.4531 Q960.4722,61.2656 960.3628,60.75 Q960.3159,60.3906 960.1284,60.2031 Q959.8003,59.8281 959.1909,59.6094 Q958.5815,59.3906 957.9565,59.3906 Q957.1909,59.3906 956.5503,59.7188 Q955.9253,60.0469 955.4253,60.7969 Q954.9409,61.5469 954.9409,62.5781 L954.9409,63.6719 Q954.9409,64.9063 955.8315,65.7344 Q956.7222,66.5469 958.3159,66.5469 Q959.2534,66.5469 959.9097,66.2969 Q960.3003,66.1406 960.7222,65.7031 Q960.9878,65.4375 961.1284,65.3594 Q961.2847,65.2813 961.4878,65.2813 Q961.8159,65.2813 962.0659,65.5469 Q962.3315,65.7969 962.3315,66.1406 Q962.3315,66.4844 961.9878,66.8906 Q961.4878,67.4688 960.6909,67.7969 Q959.6128,68.25 958.3159,68.25 Q956.8003,68.25 955.5972,67.625 Q954.6128,67.125 953.9253,66.0625 Q953.2378,64.9844 953.2378,63.7031 L953.2378,62.5469 Q953.2378,61.2188 953.8472,60.0781 Q954.4722,58.9219 955.5659,58.3125 Q956.6597,57.6875 957.894,57.6875 Q958.6284,57.6875 959.269,57.8594 Q959.9253,58.0156 960.4722,58.375 Z " fill="#000000"/><text fill="#000000" font-family="sans-serif" font-size="14" lengthAdjust="spacing" textLength="77.8135" x="978.2065" y="67.9995">Repositories</text><line style="stroke:#181818;stroke-width:0.5;" x1="880.5" x2="1121.2266" y1="78.5" y2="78.5"/><line style="stroke:#181818;stroke-width:0.5;" x1="880.5" x2="1121.2266" y1="86.5" y2="86.5"/><text fill="#000000" font-family="sans-serif" font-size="14" lengthAdjust="spacing" textLength="91.7998" x="885.5" y="104.5752">-Repositories()</text><text fill="#000000" font-family="sans-serif" font-size="14" lengthAdjust="spacing" text-decoration="underline" textLength="89.8857" x="885.5" y="121.7266">+getInstance()</text><text fill="#000000" font-family="sans-serif" font-size="14" lengthAdjust="spacing" textLength="230.7266" x="885.5" y="138.8779">+getRegistrationRequestRepository()</text><text fill="#000000" font-family="sans-serif" font-size="14" lengthAdjust="spacing" textLength="133.4375" x="885.5" y="156.0293">+getUserRepository()</text></g><!--class ApplicationSession--><g class="entity" data-qualified-name="ApplicationSession" data-source-line="89" id="ent0015"><rect fill="#F1F1F1" height="99.4541" rx="2.5" ry="2.5" style="stroke:#181818;stroke-width:0.5;" width="150.2959" x="59" y="266"/><ellipse cx="74" cy="282" fill="#ADD1B2" rx="11" ry="11" style="stroke:#181818;stroke-width:1;"/><path d="M76.7656,277.875 Q76.9219,277.6563 77.1094,277.5469 Q77.2969,277.4375 77.5156,277.4375 Q77.8906,277.4375 78.125,277.7031 Q78.3594,277.9531 78.3594,278.5625 L78.3594,280.0156 Q78.3594,280.625 78.125,280.8906 Q77.8906,281.1563 77.5156,281.1563 Q77.1719,281.1563 76.9688,280.9531 Q76.7656,280.7656 76.6563,280.25 Q76.6094,279.8906 76.4219,279.7031 Q76.0938,279.3281 75.4844,279.1094 Q74.875,278.8906 74.25,278.8906 Q73.4844,278.8906 72.8438,279.2188 Q72.2188,279.5469 71.7188,280.2969 Q71.2344,281.0469 71.2344,282.0781 L71.2344,283.1719 Q71.2344,284.4063 72.125,285.2344 Q73.0156,286.0469 74.6094,286.0469 Q75.5469,286.0469 76.2031,285.7969 Q76.5938,285.6406 77.0156,285.2031 Q77.2813,284.9375 77.4219,284.8594 Q77.5781,284.7813 77.7813,284.7813 Q78.1094,284.7813 78.3594,285.0469 Q78.625,285.2969 78.625,285.6406 Q78.625,285.9844 78.2813,286.3906 Q77.7813,286.9688 76.9844,287.2969 Q75.9063,287.75 74.6094,287.75 Q73.0938,287.75 71.8906,287.125 Q70.9063,286.625 70.2188,285.5625 Q69.5313,284.4844 69.5313,283.2031 L69.5313,282.0469 Q69.5313,280.7188 70.1406,279.5781 Q70.7656,278.4219 71.8594,277.8125 Q72.9531,277.1875 74.1875,277.1875 Q74.9219,277.1875 75.5625,277.3594 Q76.2188,277.5156 76.7656,277.875 Z " fill="#000000"/><text fill="#000000" font-family="sans-serif" font-size="14" lengthAdjust="spacing" textLength="118.2959" x="88" y="287.4995">ApplicationSession</text><line style="stroke:#181818;stroke-width:0.5;" x1="60" x2="208.2959" y1="298" y2="298"/><line style="stroke:#181818;stroke-width:0.5;" x1="60" x2="208.2959" y1="306" y2="306"/><text fill="#000000" font-family="sans-serif" font-size="14" lengthAdjust="spacing" textLength="132.2822" x="65" y="324.0752">-ApplicationSession()</text><text fill="#000000" font-family="sans-serif" font-size="14" lengthAdjust="spacing" text-decoration="underline" textLength="89.8857" x="65" y="341.2266">+getInstance()</text><text fill="#000000" font-family="sans-serif" font-size="14" lengthAdjust="spacing" textLength="133.4512" x="65" y="358.3779">+getCurrentSession()</text></g><!--class UserSession--><g class="entity" data-qualified-name="UserSession" data-source-line="95" id="ent0016"><rect fill="#F1F1F1" height="65.1514" rx="2.5" ry="2.5" style="stroke:#181818;stroke-width:0.5;" width="113.5273" x="142" y="553.5"/><ellipse cx="157.9729" cy="569.5" fill="#ADD1B2" rx="11" ry="11" style="stroke:#181818;stroke-width:1;"/><path d="M160.7386,565.375 Q160.8948,565.1563 161.0823,565.0469 Q161.2698,564.9375 161.4886,564.9375 Q161.8636,564.9375 162.0979,565.2031 Q162.3323,565.4531 162.3323,566.0625 L162.3323,567.5156 Q162.3323,568.125 162.0979,568.3906 Q161.8636,568.6563 161.4886,568.6563 Q161.1448,568.6563 160.9417,568.4531 Q160.7386,568.2656 160.6292,567.75 Q160.5823,567.3906 160.3948,567.2031 Q160.0667,566.8281 159.4573,566.6094 Q158.8479,566.3906 158.2229,566.3906 Q157.4573,566.3906 156.8167,566.7188 Q156.1917,567.0469 155.6917,567.7969 Q155.2073,568.5469 155.2073,569.5781 L155.2073,570.6719 Q155.2073,571.9063 156.0979,572.7344 Q156.9886,573.5469 158.5823,573.5469 Q159.5198,573.5469 160.1761,573.2969 Q160.5667,573.1406 160.9886,572.7031 Q161.2542,572.4375 161.3948,572.3594 Q161.5511,572.2813 161.7542,572.2813 Q162.0823,572.2813 162.3323,572.5469 Q162.5979,572.7969 162.5979,573.1406 Q162.5979,573.4844 162.2542,573.8906 Q161.7542,574.4688 160.9573,574.7969 Q159.8792,575.25 158.5823,575.25 Q157.0667,575.25 155.8636,574.625 Q154.8792,574.125 154.1917,573.0625 Q153.5042,571.9844 153.5042,570.7031 L153.5042,569.5469 Q153.5042,568.2188 154.1136,567.0781 Q154.7386,565.9219 155.8323,565.3125 Q156.9261,564.6875 158.1604,564.6875 Q158.8948,564.6875 159.5354,564.8594 Q160.1917,565.0156 160.7386,565.375 Z " fill="#000000"/><text fill="#000000" font-family="sans-serif" font-size="14" lengthAdjust="spacing" textLength="79.3652" x="172.1892" y="574.9995">UserSession</text><line style="stroke:#181818;stroke-width:0.5;" x1="143" x2="254.5273" y1="585.5" y2="585.5"/><line style="stroke:#181818;stroke-width:0.5;" x1="143" x2="254.5273" y1="593.5" y2="593.5"/><text fill="#000000" font-family="sans-serif" font-size="14" lengthAdjust="spacing" textLength="101.5273" x="148" y="611.5752">+getUserEmail()</text></g><!--class ApproveRejectRegistrationController--><g class="entity" data-qualified-name="ApproveRejectRegistrationController" data-source-line="99" id="ent0017"><rect fill="#F1F1F1" height="168.0596" rx="2.5" ry="2.5" style="stroke:#181818;stroke-width:0.5;" width="314.3193" x="269" y="21"/><ellipse cx="308.7948" cy="37" fill="#ADD1B2" rx="11" ry="11" style="stroke:#181818;stroke-width:1;"/><path d="M311.5604,32.875 Q311.7167,32.6563 311.9042,32.5469 Q312.0917,32.4375 312.3104,32.4375 Q312.6854,32.4375 312.9198,32.7031 Q313.1542,32.9531 313.1542,33.5625 L313.1542,35.0156 Q313.1542,35.625 312.9198,35.8906 Q312.6854,36.1563 312.3104,36.1563 Q311.9667,36.1563 311.7636,35.9531 Q311.5604,35.7656 311.4511,35.25 Q311.4042,34.8906 311.2167,34.7031 Q310.8886,34.3281 310.2792,34.1094 Q309.6698,33.8906 309.0448,33.8906 Q308.2792,33.8906 307.6386,34.2188 Q307.0136,34.5469 306.5136,35.2969 Q306.0292,36.0469 306.0292,37.0781 L306.0292,38.1719 Q306.0292,39.4063 306.9198,40.2344 Q307.8104,41.0469 309.4042,41.0469 Q310.3417,41.0469 310.9979,40.7969 Q311.3886,40.6406 311.8104,40.2031 Q312.0761,39.9375 312.2167,39.8594 Q312.3729,39.7813 312.5761,39.7813 Q312.9042,39.7813 313.1542,40.0469 Q313.4198,40.2969 313.4198,40.6406 Q313.4198,40.9844 313.0761,41.3906 Q312.5761,41.9688 311.7792,42.2969 Q310.7011,42.75 309.4042,42.75 Q307.8886,42.75 306.6854,42.125 Q305.7011,41.625 305.0136,40.5625 Q304.3261,39.4844 304.3261,38.2031 L304.3261,37.0469 Q304.3261,35.7188 304.9354,34.5781 Q305.5604,33.4219 306.6542,32.8125 Q307.7479,32.1875 308.9823,32.1875 Q309.7167,32.1875 310.3573,32.3594 Q311.0136,32.5156 311.5604,32.875 Z " fill="#000000"/><text fill="#000000" font-family="sans-serif" font-size="14" lengthAdjust="spacing" textLength="227.2197" x="328.3048" y="42.4995">ApproveRejectRegistrationController</text><line style="stroke:#181818;stroke-width:0.5;" x1="270" x2="582.3193" y1="53" y2="53"/><text fill="#000000" font-family="sans-serif" font-size="14" lengthAdjust="spacing" textLength="264.5781" x="275" y="71.0752">-registrationRequest : RegistrationRequest</text><line style="stroke:#181818;stroke-width:0.5;" x1="270" x2="582.3193" y1="78.1514" y2="78.1514"/><text fill="#000000" font-family="sans-serif" font-size="14" lengthAdjust="spacing" textLength="244.7197" x="275" y="96.2266">+ApproveRejectRegistrationController()</text><text fill="#000000" font-family="sans-serif" font-size="14" lengthAdjust="spacing" textLength="222.1885" x="275" y="113.3779">+getPendingRegistrationRequests()</text><text fill="#000000" font-family="sans-serif" font-size="14" lengthAdjust="spacing" textLength="302.3193" x="275" y="130.5293">+selectRegistrationRequest(registrationRequest)</text><text fill="#000000" font-family="sans-serif" font-size="14" lengthAdjust="spacing" textLength="185.5957" x="275" y="147.6807">+acceptRegistrationRequest()</text><text fill="#000000" font-family="sans-serif" font-size="14" lengthAdjust="spacing" textLength="279.7539" x="275" y="164.832">+rejectRegistrationRequest(rejectionReason)</text><text fill="#000000" font-family="sans-serif" font-size="14" lengthAdjust="spacing" textLength="198.3857" x="275" y="181.9834">-getAdministratorFromSession()</text></g><g class="entity" data-qualified-name="GMN18" data-source-line="111" id="ent0019"><path d="M618,84 L618,101 L583.26,105 L618,109 L618,125.8525 A0,0 0 0 0 618,125.8525 L844.1943,125.8525 A0,0 0 0 0 844.1943,125.8525 L844.1943,94 L834.1943,84 L618,84 A0,0 0 0 0 618,84" fill="#FEFFDD" style="stroke:#181818;stroke-width:0.5;"/><path d="M834.1943,84 L834.1943,94 L844.1943,94 L834.1943,84" fill="#FEFFDD" style="stroke:#181818;stroke-width:0.5;"/><text fill="#000000" font-family="sans-serif" font-size="13" lengthAdjust="spacing" textLength="189.3252" x="624" y="102.0698">The selected registration request</text><text fill="#000000" font-family="sans-serif" font-size="13" lengthAdjust="spacing" textLength="205.1943" x="624" y="117.9961">is temporarily kept by the controller.</text></g><g class="entity" data-qualified-name="GMN21" data-source-line="116" id="ent0022"><path d="M594.5,807 L594.5,928.4839 A0,0 0 0 0 594.5,928.4839 L903.0742,928.4839 A0,0 0 0 0 903.0742,928.4839 L903.0742,817 L893.0742,807 L753,807 L749,730.03 L745,807 L594.5,807 A0,0 0 0 0 594.5,807" fill="#FEFFDD" style="stroke:#181818;stroke-width:0.5;"/><path d="M893.0742,807 L893.0742,817 L903.0742,817 L893.0742,807" fill="#FEFFDD" style="stroke:#181818;stroke-width:0.5;"/><text fill="#000000" font-family="sans-serif" font-size="13" lengthAdjust="spacing" textLength="252.167" x="600.5" y="825.0698">accept() changes the status to ACCEPTED,</text><text fill="#000000" font-family="sans-serif" font-size="13" lengthAdjust="spacing" textLength="287.5742" x="600.5" y="840.9961">records the decision timestamp and administrator,</text><text fill="#000000" font-family="sans-serif" font-size="13" lengthAdjust="spacing" textLength="210.2852" x="600.5" y="856.9224">and creates the corresponding User.</text><text fill="#000000" font-family="sans-serif" font-size="13" lengthAdjust="spacing" textLength="3.6118" x="600.5" y="872.8486">&#160;</text><text fill="#000000" font-family="sans-serif" font-size="13" lengthAdjust="spacing" textLength="243.4834" x="600.5" y="888.7749">reject() changes the status to REJECTED,</text><text fill="#000000" font-family="sans-serif" font-size="13" lengthAdjust="spacing" textLength="287.5742" x="600.5" y="904.7012">records the decision timestamp and administrator,</text><text fill="#000000" font-family="sans-serif" font-size="13" lengthAdjust="spacing" textLength="211.7515" x="600.5" y="920.6274">and creates the rejection Annotation.</text></g><g class="entity" data-qualified-name="GMN24" data-source-line="126" id="ent0025"><path d="M356,565 L356,606.8525 A0,0 0 0 0 356,606.8525 L548.2725,606.8525 A0,0 0 0 0 548.2725,606.8525 L548.2725,575 L538.2725,565 L463.81,565 L537.17,365.12 L455.81,565 L356,565 A0,0 0 0 0 356,565" fill="#FEFFDD" style="stroke:#181818;stroke-width:0.5;"/><path d="M538.2725,565 L538.2725,575 L548.2725,575 L538.2725,565" fill="#FEFFDD" style="stroke:#181818;stroke-width:0.5;"/><text fill="#000000" font-family="sans-serif" font-size="13" lengthAdjust="spacing" textLength="139.4707" x="362" y="583.0698">Used to obtain the list of</text><text fill="#000000" font-family="sans-serif" font-size="13" lengthAdjust="spacing" textLength="171.2725" x="362" y="598.9961">pending registration requests.</text></g><!--class ApproveRejectRegistrationUI--><g class="entity" data-qualified-name="ApproveRejectRegistrationUI" data-source-line="130" id="ent0027"><rect fill="#F1F1F1" height="48" rx="2.5" ry="2.5" style="stroke:#181818;stroke-width:0.5;" width="212.5303" x="20.5" y="81"/><ellipse cx="35.5" cy="97" fill="#ADD1B2" rx="11" ry="11" style="stroke:#181818;stroke-width:1;"/><path d="M38.2656,92.875 Q38.4219,92.6563 38.6094,92.5469 Q38.7969,92.4375 39.0156,92.4375 Q39.3906,92.4375 39.625,92.7031 Q39.8594,92.9531 39.8594,93.5625 L39.8594,95.0156 Q39.8594,95.625 39.625,95.8906 Q39.3906,96.1563 39.0156,96.1563 Q38.6719,96.1563 38.4688,95.9531 Q38.2656,95.7656 38.1563,95.25 Q38.1094,94.8906 37.9219,94.7031 Q37.5938,94.3281 36.9844,94.1094 Q36.375,93.8906 35.75,93.8906 Q34.9844,93.8906 34.3438,94.2188 Q33.7188,94.5469 33.2188,95.2969 Q32.7344,96.0469 32.7344,97.0781 L32.7344,98.1719 Q32.7344,99.4063 33.625,100.2344 Q34.5156,101.0469 36.1094,101.0469 Q37.0469,101.0469 37.7031,100.7969 Q38.0938,100.6406 38.5156,100.2031 Q38.7813,99.9375 38.9219,99.8594 Q39.0781,99.7813 39.2813,99.7813 Q39.6094,99.7813 39.8594,100.0469 Q40.125,100.2969 40.125,100.6406 Q40.125,100.9844 39.7813,101.3906 Q39.2813,101.9688 38.4844,102.2969 Q37.4063,102.75 36.1094,102.75 Q34.5938,102.75 33.3906,102.125 Q32.4063,101.625 31.7188,100.5625 Q31.0313,99.4844 31.0313,98.2031 L31.0313,97.0469 Q31.0313,95.7188 31.6406,94.5781 Q32.2656,93.4219 33.3594,92.8125 Q34.4531,92.1875 35.6875,92.1875 Q36.4219,92.1875 37.0625,92.3594 Q37.7188,92.5156 38.2656,92.875 Z " fill="#000000"/><text fill="#000000" font-family="sans-serif" font-size="14" lengthAdjust="spacing" textLength="180.5303" x="49.5" y="102.4995">ApproveRejectRegistrationUI</text><line style="stroke:#181818;stroke-width:0.5;" x1="21.5" x2="232.0303" y1="113" y2="113"/><line style="stroke:#181818;stroke-width:0.5;" x1="21.5" x2="232.0303" y1="121" y2="121"/></g><!--reverse link User to PoliticalAgent--><g class="link" data-entity-1="ent0004" data-entity-2="ent0005" data-link-type="extension" data-source-line="133" id="lnk28"><path codeLine="133" d="M1339.6444,908.7488 C1396.3244,937.7488 1462.39,971.57 1512.87,997.4" fill="none" id="User-backto-PoliticalAgent" style="stroke:#181818;stroke-width:1;"/><polygon fill="none" points="1323.62,900.55,1336.9114,914.0902,1342.3773,903.4073,1323.62,900.55" style="stroke:#181818;stroke-width:1;"/></g><!--reverse link User to Citizen--><g class="link" data-entity-1="ent0004" data-entity-2="ent0006" data-link-type="extension" data-source-line="134" id="lnk29"><path codeLine="134" d="M1183.8682,925.1493 C1173.1982,932.9793 1180,928 1180,928 C1180,928 1044,989 1044,989 C1044,989 1036.27,993.43 1026.6,998.97" fill="none" id="User-backto-Citizen" style="stroke:#181818;stroke-width:1;"/><polygon fill="none" points="1198.38,914.5,1180.3184,920.312,1187.4179,929.9865,1198.38,914.5" style="stroke:#181818;stroke-width:1;"/></g><!--reverse link User to Journalist--><g class="link" data-entity-1="ent0004" data-entity-2="ent0007" data-link-type="extension" data-source-line="135" id="lnk30"><path codeLine="135" d="M1208.5466,940.9817 C1193.2466,962.1217 1187.06,970.67 1174.01,988.7" fill="none" id="User-backto-Journalist" style="stroke:#181818;stroke-width:1;"/><polygon fill="none" points="1219.1,926.4,1203.686,937.4639,1213.4071,944.4995,1219.1,926.4" style="stroke:#181818;stroke-width:1;"/></g><!--reverse link User to EthicsCommitteeMember--><g class="link" data-entity-1="ent0004" data-entity-2="ent0008" data-link-type="extension" data-source-line="136" id="lnk31"><path codeLine="136" d="M1313.012,941.0259 C1330.702,965.6859 1339.83,978.43 1353.34,997.26" fill="none" id="User-backto-EthicsCommitteeMember" style="stroke:#181818;stroke-width:1;"/><polygon fill="none" points="1302.52,926.4,1308.1367,944.5233,1317.8873,937.5286,1302.52,926.4" style="stroke:#181818;stroke-width:1;"/></g><!--reverse link User to Administrator--><g class="link" data-entity-1="ent0004" data-entity-2="ent0009" data-link-type="extension" data-source-line="137" id="lnk32"><path codeLine="137" d="M1183.8682,925.1493 C1173.1982,932.9793 1180,928 1180,928 C1180,928 712.37,990.69 547.05,1012.85" fill="none" id="User-backto-Administrator" style="stroke:#181818;stroke-width:1;"/><polygon fill="none" points="1198.38,914.5,1180.3184,920.312,1187.4179,929.9865,1198.38,914.5" style="stroke:#181818;stroke-width:1;"/></g><!--link ApproveRejectRegistrationUI to ApproveRejectRegistrationController--><g class="link" data-entity-1="ent0027" data-entity-2="ent0017" data-link-type="dependency" data-source-line="139" id="lnk33"><path codeLine="139" d="M233.52,105 C241.26,105 248.64,105 262.88,105" fill="none" id="ApproveRejectRegistrationUI-to-ApproveRejectRegistrationController" style="stroke:#181818;stroke-width:1;stroke-dasharray:7,7;"/><polygon fill="#181818" points="268.88,105,259.88,101,263.88,105,259.88,109,268.88,105" style="stroke:#181818;stroke-width:1;"/></g><!--link ApproveRejectRegistrationController to Repositories--><g class="link" data-entity-1="ent0017" data-entity-2="ent0014" data-link-type="dependency" data-source-line="141" id="lnk34"><path codeLine="141" d="M583.26,23.7 C603.59,13.19 617.5,6 617.5,6 C617.5,6 843.5,6 843.5,6 C843.5,6 868.5705,21.7564 902.4805,43.0764" fill="none" id="ApproveRejectRegistrationController-to-Repositories" style="stroke:#181818;stroke-width:1;stroke-dasharray:7,7;"/><polygon fill="#181818" points="907.56,46.27,902.0698,38.0933,903.3271,43.6087,897.8117,44.8659,907.56,46.27" style="stroke:#181818;stroke-width:1;"/></g><!--link ApproveRejectRegistrationController to RegistrationRequestRepository--><g class="link" data-entity-1="ent0017" data-entity-2="ent0012" data-link-type="dependency" data-source-line="142" id="lnk35"><path codeLine="142" d="M477.75,189 C494.04,215.12 508.3052,238.0088 522.5852,260.9088" fill="none" id="ApproveRejectRegistrationController-to-RegistrationRequestRepository" style="stroke:#181818;stroke-width:1;stroke-dasharray:7,7;"/><polygon fill="#181818" points="525.76,266,524.392,256.2466,523.1143,261.7573,517.6036,260.4797,525.76,266" style="stroke:#181818;stroke-width:1;"/></g><!--link ApproveRejectRegistrationController to UserRepository--><g class="link" data-entity-1="ent0017" data-entity-2="ent0013" data-link-type="dependency" data-source-line="143" id="lnk36"><path codeLine="143" d="M583.32,181.04 C593.63,185.96 600,189 600,189 C600,189 791,219 791,219 C791,219 835,236 835,236 C835,236 904.6414,257.696 972.9414,278.966" fill="none" id="ApproveRejectRegistrationController-to-UserRepository" style="stroke:#181818;stroke-width:1;stroke-dasharray:7,7;"/><polygon fill="#181818" points="978.67,280.75,971.2664,274.2549,973.8961,279.2633,968.8877,281.8931,978.67,280.75" style="stroke:#181818;stroke-width:1;"/></g><!--link ApproveRejectRegistrationController to RegistrationRequest--><g class="link" data-entity-1="ent0017" data-entity-2="ent0010" data-link-type="dependency" data-source-line="144" id="lnk37"><path codeLine="144" d="M583.27,187.17 C660.01,226.78 736,266 736,266 C736,266 750,395 750,395 C750,395 750,412 750,412 C750,412 749.9639,418.0301 749.8639,435.7401" fill="none" id="ApproveRejectRegistrationController-to-RegistrationRequest" style="stroke:#181818;stroke-width:1;stroke-dasharray:7,7;"/><polygon fill="#181818" points="749.83,441.74,753.8808,432.7627,749.8582,436.7401,745.8809,432.7176,749.83,441.74" style="stroke:#181818;stroke-width:1;"/></g><!--link ApproveRejectRegistrationController to Administrator--><g class="link" data-entity-1="ent0017" data-entity-2="ent0009" data-link-type="dependency" data-source-line="145" id="lnk38"><path codeLine="145" d="M268.74,180.58 C257.81,185.77 251,189 251,189 C251,189 41,266 41,266 C41,266 6,314.5 6,314.5 C6,314.5 6,314.5 6,868.5 C6,868.5 41,928 41,928 C41,928 305.7534,982.5392 426.8034,1007.4792" fill="none" id="ApproveRejectRegistrationController-to-Administrator" style="stroke:#181818;stroke-width:1;stroke-dasharray:7,7;"/><polygon fill="#181818" points="432.68,1008.69,424.6723,1002.9562,427.7829,1007.681,423.058,1010.7916,432.68,1008.69" style="stroke:#181818;stroke-width:1;"/></g><!--link ApproveRejectRegistrationController to ApplicationSession--><g class="link" data-entity-1="ent0017" data-entity-2="ent0015" data-link-type="dependency" data-source-line="146" id="lnk39"><path codeLine="146" d="M309.75,189 C273.18,215.12 238.8724,239.6126 206.8124,262.5126" fill="none" id="ApproveRejectRegistrationController-to-ApplicationSession" style="stroke:#181818;stroke-width:1;stroke-dasharray:7,7;"/><polygon fill="#181818" points="201.93,266,211.5786,264.0238,205.9987,263.0938,206.9286,257.5139,201.93,266" style="stroke:#181818;stroke-width:1;"/></g><!--link ApproveRejectRegistrationController to UserSession--><g class="link" data-entity-1="ent0017" data-entity-2="ent0016" data-link-type="dependency" data-source-line="147" id="lnk40"><path codeLine="147" d="M386.9,189.02 C351.21,264.77 304,365 304,365 C304,365 245.6649,487.2354 216.6249,548.0654" fill="none" id="ApproveRejectRegistrationController-to-UserSession" style="stroke:#181818;stroke-width:1;stroke-dasharray:7,7;"/><polygon fill="#181818" points="214.04,553.48,221.5271,547.0813,216.1941,548.9678,214.3076,543.6348,214.04,553.48" style="stroke:#181818;stroke-width:1;"/></g><!--link Repositories to Repositories--><g class="link" data-entity-1="ent0014" data-entity-2="ent0014" data-link-type="dependency" data-source-line="149" id="lnk41"><path codeLine="149" d="M1122.72,83.69 C1143.28,86.64 1157.5,93.74 1157.5,105 C1157.5,116.26 1149.2192,122.5078 1128.6592,125.4578" fill="none" id="Repositories-to-Repositories" style="stroke:#181818;stroke-width:1;"/><polygon fill="#181818" points="1122.72,126.31,1132.1969,128.9912,1127.6693,125.5999,1131.0607,121.0723,1122.72,126.31" style="stroke:#181818;stroke-width:1;"/><text fill="#000000" font-family="sans-serif" font-size="13" lengthAdjust="spacing" textLength="48.4199" x="1163.5" y="110.5698">instance</text><text fill="#000000" font-family="sans-serif" font-size="13" lengthAdjust="spacing" textLength="7.23" x="1130.3659" y="125.2616">1</text></g><!--link Repositories to RegistrationRequestRepository--><g class="link" data-entity-1="ent0014" data-entity-2="ent0012" data-link-type="dependency" data-source-line="150" id="lnk42"><path codeLine="150" d="M903.77,163.65 C879.88,177.81 861,189 861,189 C861,189 765.2986,228.3767 679.4686,263.6967" fill="none" id="Repositories-to-RegistrationRequestRepository" style="stroke:#181818;stroke-width:1;"/><polygon fill="#181818" points="673.92,265.98,683.765,266.2541,678.5438,264.0773,680.7206,258.856,673.92,265.98" style="stroke:#181818;stroke-width:1;"/><text fill="#000000" font-family="sans-serif" font-size="13" lengthAdjust="spacing" textLength="174.8652" x="789" y="233.0698">registrationRequestRepository</text><text fill="#000000" font-family="sans-serif" font-size="13" lengthAdjust="spacing" textLength="7.23" x="685.1739" y="254.9999">1</text></g><!--link Repositories to UserRepository--><g class="link" data-entity-1="ent0014" data-entity-2="ent0013" data-link-type="dependency" data-source-line="151" id="lnk43"><path codeLine="151" d="M1025.05,163.82 C1036.61,191.63 1048,219 1048,219 C1048,219 1055.2503,236.7659 1064.8903,260.3559" fill="none" id="Repositories-to-UserRepository" style="stroke:#181818;stroke-width:1;"/><polygon fill="#181818" points="1067.16,265.91,1067.4582,256.0657,1065.2686,261.2815,1060.0527,259.0919,1067.16,265.91" style="stroke:#181818;stroke-width:1;"/><text fill="#000000" font-family="sans-serif" font-size="13" lengthAdjust="spacing" textLength="87.4263" x="1056" y="233.0698">userRepository</text><text fill="#000000" font-family="sans-serif" font-size="13" lengthAdjust="spacing" textLength="7.23" x="1056.586" y="255.2741">1</text></g><!--link ApplicationSession to ApplicationSession--><g class="link" data-entity-1="ent0015" data-entity-2="ent0015" data-link-type="dependency" data-source-line="153" id="lnk44"><path codeLine="153" d="M209.06,299.15 C228.94,300.08 244,305.53 244,315.5 C244,325.47 234.9334,330.6396 215.0534,331.5696" fill="none" id="ApplicationSession-to-ApplicationSession" style="stroke:#181818;stroke-width:1;"/><polygon fill="#181818" points="209.06,331.85,218.2371,335.4251,214.0545,331.6164,217.8632,327.4338,209.06,331.85" style="stroke:#181818;stroke-width:1;"/><text fill="#000000" font-family="sans-serif" font-size="13" lengthAdjust="spacing" textLength="48.4199" x="250" y="321.0698">instance</text><text fill="#000000" font-family="sans-serif" font-size="13" lengthAdjust="spacing" textLength="7.23" x="217.1581" y="330.8568">1</text></g><!--link ApplicationSession to UserSession--><g class="link" data-entity-1="ent0015" data-entity-2="ent0016" data-link-type="dependency" data-source-line="154" id="lnk45"><path codeLine="154" d="M145.77,365.12 C158.98,419.68 178.6076,500.7786 189.8776,547.3086" fill="none" id="ApplicationSession-to-UserSession" style="stroke:#181818;stroke-width:1;stroke-dasharray:7,7;"/><polygon fill="#181818" points="191.29,553.14,193.059,543.4513,190.113,548.2805,185.2838,545.3345,191.29,553.14" style="stroke:#181818;stroke-width:1;"/></g><!--link RegistrationRequestRepository to RegistrationRequest--><g class="link" data-entity-1="ent0012" data-entity-2="ent0010" data-link-type="dependency" data-source-line="156" id="lnk46"><path codeLine="156" d="M590.95,365.12 C606.7,387.04 622.7086,409.2976 642.5786,436.9476" fill="none" id="RegistrationRequestRepository-to-RegistrationRequest" style="stroke:#181818;stroke-width:1;"/><polygon fill="#181818" points="646.08,441.82,644.0761,432.1772,643.1622,437.7597,637.5796,436.8457,646.08,441.82" style="stroke:#181818;stroke-width:1;"/><text fill="#000000" font-family="sans-serif" font-size="13" lengthAdjust="spacing" textLength="119.228" x="625" y="409.0698">registrationRequests</text><text fill="#000000" font-family="sans-serif" font-size="13" lengthAdjust="spacing" textLength="5.0591" x="634.9809" y="431.1442">*</text></g><!--link UserRepository to User--><g class="link" data-entity-1="ent0013" data-entity-2="ent0004" data-link-type="dependency" data-source-line="157" id="lnk47"><path codeLine="157" d="M1102.44,365.31 C1134.55,466.79 1206.5502,694.3995 1240.9402,803.0995" fill="none" id="UserRepository-to-User" style="stroke:#181818;stroke-width:1;"/><polygon fill="#181818" points="1242.75,808.82,1243.8489,799.0326,1241.2418,804.0529,1236.2216,801.4458,1242.75,808.82" style="stroke:#181818;stroke-width:1;"/><text fill="#000000" font-family="sans-serif" font-size="13" lengthAdjust="spacing" textLength="31.7891" x="1216" y="591.5698">users</text><text fill="#000000" font-family="sans-serif" font-size="13" lengthAdjust="spacing" textLength="5.0591" x="1234.9778" y="798.0856">*</text></g><!--link RegistrationRequest to RequestedRole--><g class="link" data-entity-1="ent0010" data-entity-2="ent0002" data-link-type="dependency" data-source-line="159" id="lnk48"><path codeLine="159" d="M903.54,730.03 C933.72,757.96 959.3166,781.6445 984.2966,804.7645" fill="none" id="RegistrationRequest-to-RequestedRole" style="stroke:#181818;stroke-width:1;"/><polygon fill="#181818" points="988.7,808.84,984.8119,799.7911,985.0305,805.4437,979.3779,805.6623,988.7,808.84" style="stroke:#181818;stroke-width:1;"/><text fill="#000000" font-family="sans-serif" font-size="13" lengthAdjust="spacing" textLength="84.5571" x="955" y="774.0698">requestedRole</text><text fill="#000000" font-family="sans-serif" font-size="13" lengthAdjust="spacing" textLength="7.23" x="972.85" y="798.1083">1</text></g><!--link RegistrationRequest to RequestStatus--><g class="link" data-entity-1="ent0010" data-entity-2="ent0003" data-link-type="dependency" data-source-line="160" id="lnk49"><path codeLine="160" d="M582.98,716.03 C571.88,724.65 565,730 565,730 C565,730 303,760 303,760 C303,760 200,807 200,807 C200,807 197.8312,808.6283 188.0412,816.0083" fill="none" id="RegistrationRequest-to-RequestStatus" style="stroke:#181818;stroke-width:1;"/><polygon fill="#181818" points="183.25,819.62,192.8446,817.3965,187.2426,816.6102,188.0289,811.0083,183.25,819.62" style="stroke:#181818;stroke-width:1;"/><text fill="#000000" font-family="sans-serif" font-size="13" lengthAdjust="spacing" textLength="34.6836" x="304" y="774.0698">status</text><text fill="#000000" font-family="sans-serif" font-size="13" lengthAdjust="spacing" textLength="7.23" x="190.8752" y="811.3138">1</text></g><!--link RegistrationRequest to User--><g class="link" data-entity-1="ent0010" data-entity-2="ent0004" data-link-type="dependency" data-source-line="161" id="lnk50"><path codeLine="161" d="M915.02,671.74 C1036.43,733.72 1180,807 1180,807 C1180,807 1182.8727,809.1202 1193.5427,816.9502" fill="none" id="RegistrationRequest-to-User" style="stroke:#181818;stroke-width:1;"/><polygon fill="#181818" points="1198.38,820.5,1193.4906,811.9505,1194.3489,817.5419,1188.7576,818.4002,1198.38,820.5" style="stroke:#181818;stroke-width:1;"/><text fill="#000000" font-family="sans-serif" font-size="13" lengthAdjust="spacing" textLength="70.8081" x="1119" y="774.0698">createdUser</text><text fill="#000000" font-family="sans-serif" font-size="13" lengthAdjust="spacing" textLength="21.6836" x="1168.9754" y="812.3446">0..1</text></g><!--link RegistrationRequest to Administrator--><g class="link" data-entity-1="ent0010" data-entity-2="ent0009" data-link-type="dependency" data-source-line="162" id="lnk51"><path codeLine="162" d="M592.29,730.05 C546.26,772.07 508,807 508,807 C508,807 497.1345,935.9313 492.4645,991.2713" fill="none" id="RegistrationRequest-to-Administrator" style="stroke:#181818;stroke-width:1;"/><polygon fill="#181818" points="491.96,997.25,496.7026,988.6182,492.3804,992.2677,488.731,987.9455,491.96,997.25" style="stroke:#181818;stroke-width:1;"/><text fill="#000000" font-family="sans-serif" font-size="13" lengthAdjust="spacing" textLength="67.1963" x="509" y="873.0698">reviewedBy</text><text fill="#000000" font-family="sans-serif" font-size="13" lengthAdjust="spacing" textLength="21.6836" x="468.5883" y="986.5204">0..1</text></g><!--link RegistrationRequest to Annotation--><g class="link" data-entity-1="ent0010" data-entity-2="ent0011" data-link-type="dependency" data-source-line="163" id="lnk52"><path codeLine="163" d="M582.98,716.03 C571.88,724.65 565,730 565,730 C565,730 351,760 351,760 C351,760 343.7671,784.0939 335.3271,812.1739" fill="none" id="RegistrationRequest-to-Annotation" style="stroke:#181818;stroke-width:1;"/><polygon fill="#181818" points="333.6,817.92,340.0213,810.4523,335.0392,813.1316,332.3599,808.1495,333.6,817.92" style="stroke:#181818;stroke-width:1;"/><text fill="#000000" font-family="sans-serif" font-size="13" lengthAdjust="spacing" textLength="111.2998" x="352" y="774.0698">rejectionAnnotation</text><text fill="#000000" font-family="sans-serif" font-size="13" lengthAdjust="spacing" textLength="21.6836" x="313.2908" y="807.2856">0..1</text></g><?plantuml-src jLTVRzis47_Nfo3wKcTjWlRL60euYjOfIDp0Tbxs4j3InUOYaHf99NMxVlSTALec5SPHiSqFXdJ_xtV7u-cjUc2yePBMf1PS55ifQY1Qjf0SE0qj7kW6bdfN0P5GQCetbI-WjhGKJunlo3sjbC-f60UzQu0qejgPb-HjX2ca5ecdLLHKgPdMagrR3NaX-99z0_8XIO2tDLd0Noqe3UL2O43V4uA_cozN-IfFPrTtiy_PV6LfALB-oERs-VBBxM8-kygN7IjR_Pwdoxlqo_LrlbfbsTrrTdsUBP8VeOkbfhfLUnVP_2AVVxRFipJDRbRPXNrPP9TPQbvGcwwLbhJGNGxaLe5qwgU4KyHsIfQO5zyucgPVyt98X9goQaXiqDwJa9umkkkyt8YAQLRGQhO1hj5VpqcH_WsuJxeKhUIqOahtWJKIb4gfBETjlSQ0dtl8z9OLAXLrpRG6k0OhvrcTbJNZpEIkHS1OmAOZCy4TghrVsRrVK6rmkHAOWNbst18Afb1ho5wn6ludHFTMJR2qoaj4a-bT39bNW0loW_96A6PilYYGSuMUsb362hqZj2YWqHFg8to2KgQtd8Y4F_5OXYBl7TNYJfNWHcV6kT0sFHT18G4XDQOcWKqJcoaSo0jNXa40NkbxctrXDNpLmrojfvVAwV8uc9eO4oT7ssW1ZO5Lo9tp-uviGDy0Bz5fH5vDJlQ8bcM4Fv7FQNkDHpmm9GOxMgqFt20QYHH3iA2t-3Tqyeo1QGNdwtoNcNwUsAuEG79-6AY-5ZwnH-2xCZ0NFunfqtkK5p3nt1s5snSCqvluRT4q5SuaOs69fyHlZ-UiqO6bhPHuAWzg0T2Xepx03gqmDYaUiPhcWFYvfe9hAQhAczgHycBxHW3gc_Xrutv6OnfMGJMmDQ9dkxaHKpe9naRSR3Ww71R3HlmDruMW57XySKLWcwqcuduC4jRmQWikHIW3lFS3qaenXNEbReIaabKxye39aVMEQ5GkUdjdU7-Nn8JXWbaBhKLjeecLpDXry_M455jSRF3a68kgk_crwA_wzrOOrn-yCJgP_GL5D8umLAWRGj5vE8Kx5qZk9groyM8NgqROojlEFKkSUJl8Nufblsdybx7qfVQcxy-XU3Z_rW6cKvfWnLfJngqFkss8UyjkkdwFrbdvZbyvghTvjsRO5UlNlqzF1skGnt1Ra4SvB44UCRhaUFoWzPFaM6HddqOrVp9c4A4jVuQFqx5AnoerraeuuF-Dyz6w8SwZjPvTAZ-Lurud2IxHqq_apSStuSKw9SnTJ0FPNlZOgZADNIWUm56JWoLYIjgmAadaidMg4OwNG8GR0UHOFZR4Nw9PntDLoI2RlGLxqBhKLDIhXx3_0JWzhD7cVOoc-wwRkj7wiig7ixEFVMJTrBHxssiQuUUGYV2HmHEKvxjNDG_RzFGmcxsz_Hy0?></g></svg>