<?xml version="1.0" encoding="us-ascii" standalone="no"?><svg xmlns="http://www.w3.org/2000/svg" xmlns:xlink="http://www.w3.org/1999/xlink" contentStyleType="text/css" height="1016px" preserveAspectRatio="none" style="width:1297px;height:1016px;background:#FFFFFF;" version="1.1" viewBox="0 0 1297 1016" width="1297px" zoomAndPan="magnify"><defs/><g><rect fill="#FFFFFF" height="823.4922" style="stroke:#181818;stroke-width:1.0;" width="10" x="44.5" y="92.6094"/><rect fill="#FFFFFF" height="801.1406" style="stroke:#181818;stroke-width:1.0;" width="10" x="268.5" y="114.9609"/><rect fill="#FFFFFF" height="212.4609" style="stroke:#181818;stroke-width:1.0;" width="10" x="487.5" y="187.9219"/><rect fill="#FFFFFF" height="402.3125" style="stroke:#181818;stroke-width:1.0;" width="10" x="487.5" y="491.4375"/><rect fill="#FFFFFF" height="393.3125" style="stroke:#181818;stroke-width:1.0;" width="10" x="682.5" y="531.7891"/><rect fill="#FFFFFF" height="30.3516" style="stroke:#181818;stroke-width:1.0;" width="10" x="687.5" y="564.3984"/><rect fill="#FFFFFF" height="30.3516" style="stroke:#181818;stroke-width:1.0;" width="10" x="778" y="218.2734"/><rect fill="#FFFFFF" height="30.3516" style="stroke:#181818;stroke-width:1.0;" width="10" x="778" y="650.4531"/><rect fill="#FFFFFF" height="30.3516" style="stroke:#181818;stroke-width:1.0;" width="10" x="883" y="278.9766"/><rect fill="#FFFFFF" height="30.3516" style="stroke:#181818;stroke-width:1.0;" width="10" x="883" y="711.1563"/><rect fill="#FFFFFF" height="30.3516" style="stroke:#181818;stroke-width:1.0;" width="10" x="1030.5" y="339.6797"/><rect fill="#FFFFFF" height="30.3516" style="stroke:#181818;stroke-width:1.0;" width="10" x="1202.5" y="771.8594"/><rect fill="none" height="277" style="stroke:#000000;stroke-width:1.5;" width="1098.5" x="192" y="609.75"/><line style="stroke:#181818;stroke-width:0.5;stroke-dasharray:5.0,5.0;" x1="49" x2="49" y1="82.6094" y2="934.1016"/><line style="stroke:#181818;stroke-width:0.5;stroke-dasharray:5.0,5.0;" x1="273" x2="273" y1="82.6094" y2="934.1016"/><line style="stroke:#181818;stroke-width:0.5;stroke-dasharray:5.0,5.0;" x1="492" x2="492" y1="154.2656" y2="934.1016"/><line style="stroke:#181818;stroke-width:0.5;stroke-dasharray:5.0,5.0;" x1="687.5" x2="687.5" y1="530.7422" y2="934.1016"/><line style="stroke:#181818;stroke-width:0.5;stroke-dasharray:5.0,5.0;" x1="782.5" x2="782.5" y1="82.6094" y2="934.1016"/><line style="stroke:#181818;stroke-width:0.5;stroke-dasharray:5.0,5.0;" x1="887.5" x2="887.5" y1="82.6094" y2="934.1016"/><line style="stroke:#181818;stroke-width:0.5;stroke-dasharray:5.0,5.0;" x1="1035.5" x2="1035.5" y1="82.6094" y2="934.1016"/><line style="stroke:#181818;stroke-width:0.5;stroke-dasharray:5.0,5.0;" x1="1207.5" x2="1207.5" y1="82.6094" y2="934.1016"/><text fill="#000000" font-family="sans-serif" font-size="14" lengthAdjust="spacing" textLength="83" x="5" y="79.5332">Administrator</text><ellipse cx="49.5" cy="13.5" fill="#E2E2F0" rx="8" ry="8" style="stroke:#181818;stroke-width:0.5;"/><path d="M49.5,21.5 L49.5,48.5 M36.5,29.5 L62.5,29.5 M49.5,48.5 L36.5,63.5 M49.5,48.5 L62.5,63.5 " fill="none" style="stroke:#181818;stroke-width:0.5;"/><text fill="#000000" font-family="sans-serif" font-size="14" lengthAdjust="spacing" textLength="83" x="5" y="947.6348">Administrator</text><ellipse cx="49.5" cy="959.2109" fill="#E2E2F0" rx="8" ry="8" style="stroke:#181818;stroke-width:0.5;"/><path d="M49.5,967.2109 L49.5,994.2109 M36.5,975.2109 L62.5,975.2109 M49.5,994.2109 L36.5,1009.2109 M49.5,994.2109 L62.5,1009.2109 " fill="none" style="stroke:#181818;stroke-width:0.5;"/><rect fill="#E2E2F0" height="31.6094" rx="2.5" ry="2.5" style="stroke:#181818;stroke-width:0.5;" width="143" x="202" y="50"/><text fill="#000000" font-family="sans-serif" font-size="14" lengthAdjust="spacing" textLength="129" x="209" y="71.5332">:RegisterInstitutionUI</text><rect fill="#E2E2F0" height="31.6094" rx="2.5" ry="2.5" style="stroke:#181818;stroke-width:0.5;" width="143" x="202" y="933.1016"/><text fill="#000000" font-family="sans-serif" font-size="14" lengthAdjust="spacing" textLength="129" x="209" y="954.6348">:RegisterInstitutionUI</text><rect fill="#E2E2F0" height="31.6094" rx="2.5" ry="2.5" style="stroke:#181818;stroke-width:0.5;" width="193" x="396" y="933.1016"/><text fill="#000000" font-family="sans-serif" font-size="14" lengthAdjust="spacing" textLength="179" x="403" y="954.6348">:RegisterInstitutionController</text><rect fill="#E2E2F0" height="31.6094" rx="2.5" ry="2.5" style="stroke:#181818;stroke-width:0.5;" width="78" x="648.5" y="933.1016"/><text fill="#000000" font-family="sans-serif" font-size="14" lengthAdjust="spacing" textLength="64" x="655.5" y="954.6348">:Institution</text><rect fill="#E2E2F0" height="31.6094" rx="2.5" ry="2.5" style="stroke:#181818;stroke-width:0.5;" width="93" x="736.5" y="50"/><text fill="#000000" font-family="sans-serif" font-size="14" lengthAdjust="spacing" textLength="79" x="743.5" y="71.5332">Repositories</text><rect fill="#E2E2F0" height="31.6094" rx="2.5" ry="2.5" style="stroke:#181818;stroke-width:0.5;" width="93" x="736.5" y="933.1016"/><text fill="#000000" font-family="sans-serif" font-size="14" lengthAdjust="spacing" textLength="79" x="743.5" y="954.6348">Repositories</text><rect fill="#E2E2F0" height="49.2188" rx="2.5" ry="2.5" style="stroke:#181818;stroke-width:0.5;" width="97" x="839.5" y="32.3906"/><text fill="#000000" font-family="sans-serif" font-size="14" lengthAdjust="spacing" textLength="74" x="851" y="53.9238">repositories</text><text fill="#000000" font-family="sans-serif" font-size="14" lengthAdjust="spacing" textLength="83" x="846.5" y="71.5332">:Repositories</text><rect fill="#E2E2F0" height="49.2188" rx="2.5" ry="2.5" style="stroke:#181818;stroke-width:0.5;" width="97" x="839.5" y="933.1016"/><text fill="#000000" font-family="sans-serif" font-size="14" lengthAdjust="spacing" textLength="74" x="851" y="954.6348">repositories</text><text fill="#000000" font-family="sans-serif" font-size="14" lengthAdjust="spacing" textLength="83" x="846.5" y="972.2441">:Repositories</text><rect fill="#E2E2F0" height="49.2188" rx="2.5" ry="2.5" style="stroke:#181818;stroke-width:0.5;" width="178" x="946.5" y="32.3906"/><text fill="#000000" font-family="sans-serif" font-size="14" lengthAdjust="spacing" textLength="160" x="955.5" y="53.9238">institutionTypeRepository</text><text fill="#000000" font-family="sans-serif" font-size="14" lengthAdjust="spacing" textLength="164" x="953.5" y="71.5332">:InstitutionTypeRepository</text><rect fill="#E2E2F0" height="49.2188" rx="2.5" ry="2.5" style="stroke:#181818;stroke-width:0.5;" width="178" x="946.5" y="933.1016"/><text fill="#000000" font-family="sans-serif" font-size="14" lengthAdjust="spacing" textLength="160" x="955.5" y="954.6348">institutionTypeRepository</text><text fill="#000000" font-family="sans-serif" font-size="14" lengthAdjust="spacing" textLength="164" x="953.5" y="972.2441">:InstitutionTypeRepository</text><rect fill="#E2E2F0" height="49.2188" rx="2.5" ry="2.5" style="stroke:#181818;stroke-width:0.5;" width="146" x="1134.5" y="32.3906"/><text fill="#000000" font-family="sans-serif" font-size="14" lengthAdjust="spacing" textLength="128" x="1143.5" y="53.9238">institutionRepository</text><text fill="#000000" font-family="sans-serif" font-size="14" lengthAdjust="spacing" textLength="132" x="1141.5" y="71.5332">:InstitutionRepository</text><rect fill="#E2E2F0" height="49.2188" rx="2.5" ry="2.5" style="stroke:#181818;stroke-width:0.5;" width="146" x="1134.5" y="933.1016"/><text fill="#000000" font-family="sans-serif" font-size="14" lengthAdjust="spacing" textLength="128" x="1143.5" y="954.6348">institutionRepository</text><text fill="#000000" font-family="sans-serif" font-size="14" lengthAdjust="spacing" textLength="132" x="1141.5" y="972.2441">:InstitutionRepository</text><rect fill="#FFFFFF" height="823.4922" style="stroke:#181818;stroke-width:1.0;" width="10" x="44.5" y="92.6094"/><rect fill="#FFFFFF" height="801.1406" style="stroke:#181818;stroke-width:1.0;" width="10" x="268.5" y="114.9609"/><rect fill="#FFFFFF" height="212.4609" style="stroke:#181818;stroke-width:1.0;" width="10" x="487.5" y="187.9219"/><rect fill="#FFFFFF" height="402.3125" style="stroke:#181818;stroke-width:1.0;" width="10" x="487.5" y="491.4375"/><rect fill="#FFFFFF" height="393.3125" style="stroke:#181818;stroke-width:1.0;" width="10" x="682.5" y="531.7891"/><rect fill="#FFFFFF" height="30.3516" style="stroke:#181818;stroke-width:1.0;" width="10" x="687.5" y="564.3984"/><rect fill="#FFFFFF" height="30.3516" style="stroke:#181818;stroke-width:1.0;" width="10" x="778" y="218.2734"/><rect fill="#FFFFFF" height="30.3516" style="stroke:#181818;stroke-width:1.0;" width="10" x="778" y="650.4531"/><rect fill="#FFFFFF" height="30.3516" style="stroke:#181818;stroke-width:1.0;" width="10" x="883" y="278.9766"/><rect fill="#FFFFFF" height="30.3516" style="stroke:#181818;stroke-width:1.0;" width="10" x="883" y="711.1563"/><rect fill="#FFFFFF" height="30.3516" style="stroke:#181818;stroke-width:1.0;" width="10" x="1030.5" y="339.6797"/><rect fill="#FFFFFF" height="30.3516" style="stroke:#181818;stroke-width:1.0;" width="10" x="1202.5" y="771.8594"/><polygon fill="#181818" points="256.5,110.9609,266.5,114.9609,256.5,118.9609,260.5,114.9609" style="stroke:#181818;stroke-width:1.0;"/><line style="stroke:#181818;stroke-width:1.0;" x1="54.5" x2="262.5" y1="114.9609" y2="114.9609"/><text fill="#000000" font-family="sans-serif" font-size="13" font-weight="bold" lengthAdjust="spacing" textLength="7" x="61.5" y="110.1045">1</text><text fill="#000000" font-family="sans-serif" font-size="13" lengthAdjust="spacing" textLength="150" x="72.5" y="110.1045">asks to register institution</text><polygon fill="#181818" points="384,141.3125,394,145.3125,384,149.3125,388,145.3125" style="stroke:#181818;stroke-width:1.0;"/><line style="stroke:#181818;stroke-width:1.0;" x1="278.5" x2="390" y1="145.3125" y2="145.3125"/><text fill="#000000" font-family="sans-serif" font-size="13" font-weight="bold" lengthAdjust="spacing" textLength="7" x="285.5" y="140.4561">2</text><text fill="#000000" font-family="sans-serif" font-size="13" lengthAdjust="spacing" textLength="44" x="296.5" y="140.4561">create()</text><rect fill="#E2E2F0" height="31.6094" rx="2.5" ry="2.5" style="stroke:#181818;stroke-width:0.5;" width="193" x="396" y="122.9609"/><text fill="#000000" font-family="sans-serif" font-size="14" lengthAdjust="spacing" textLength="179" x="403" y="144.4941">:RegisterInstitutionController</text><polygon fill="#181818" points="475.5,183.9219,485.5,187.9219,475.5,191.9219,479.5,187.9219" style="stroke:#181818;stroke-width:1.0;"/><line style="stroke:#181818;stroke-width:1.0;" x1="278.5" x2="481.5" y1="187.9219" y2="187.9219"/><text fill="#000000" font-family="sans-serif" font-size="13" font-weight="bold" lengthAdjust="spacing" textLength="7" x="285.5" y="183.0654">3</text><text fill="#000000" font-family="sans-serif" font-size="13" lengthAdjust="spacing" textLength="117" x="296.5" y="183.0654">getInstitutionTypes()</text><polygon fill="#181818" points="766,214.2734,776,218.2734,766,222.2734,770,218.2734" style="stroke:#181818;stroke-width:1.0;"/><line style="stroke:#181818;stroke-width:1.0;" x1="497.5" x2="772" y1="218.2734" y2="218.2734"/><text fill="#000000" font-family="sans-serif" font-size="13" font-weight="bold" lengthAdjust="spacing" textLength="7" x="504.5" y="213.417">4</text><text fill="#000000" font-family="sans-serif" font-size="13" lengthAdjust="spacing" textLength="75" x="515.5" y="213.417">getInstance()</text><polygon fill="#181818" points="508.5,244.625,498.5,248.625,508.5,252.625,504.5,248.625" style="stroke:#181818;stroke-width:1.0;"/><line style="stroke:#181818;stroke-width:1.0;stroke-dasharray:2.0,2.0;" x1="502.5" x2="782" y1="248.625" y2="248.625"/><text fill="#000000" font-family="sans-serif" font-size="13" font-weight="bold" lengthAdjust="spacing" textLength="7" x="514.5" y="243.7686">5</text><text fill="#000000" font-family="sans-serif" font-size="13" lengthAdjust="spacing" textLength="67" x="525.5" y="243.7686">repositories</text><polygon fill="#181818" points="871,274.9766,881,278.9766,871,282.9766,875,278.9766" style="stroke:#181818;stroke-width:1.0;"/><line style="stroke:#181818;stroke-width:1.0;" x1="497.5" x2="877" y1="278.9766" y2="278.9766"/><text fill="#000000" font-family="sans-serif" font-size="13" font-weight="bold" lengthAdjust="spacing" textLength="7" x="504.5" y="274.1201">6</text><text fill="#000000" font-family="sans-serif" font-size="13" lengthAdjust="spacing" textLength="172" x="515.5" y="274.1201">getInstitutionTypeRepository()</text><polygon fill="#181818" points="508.5,305.3281,498.5,309.3281,508.5,313.3281,504.5,309.3281" style="stroke:#181818;stroke-width:1.0;"/><line style="stroke:#181818;stroke-width:1.0;stroke-dasharray:2.0,2.0;" x1="502.5" x2="887" y1="309.3281" y2="309.3281"/><text fill="#000000" font-family="sans-serif" font-size="13" font-weight="bold" lengthAdjust="spacing" textLength="7" x="514.5" y="304.4717">7</text><text fill="#000000" font-family="sans-serif" font-size="13" lengthAdjust="spacing" textLength="146" x="525.5" y="304.4717">institutionTypeRepository</text><polygon fill="#181818" points="1018.5,335.6797,1028.5,339.6797,1018.5,343.6797,1022.5,339.6797" style="stroke:#181818;stroke-width:1.0;"/><line style="stroke:#181818;stroke-width:1.0;" x1="497.5" x2="1024.5" y1="339.6797" y2="339.6797"/><text fill="#000000" font-family="sans-serif" font-size="13" font-weight="bold" lengthAdjust="spacing" textLength="7" x="504.5" y="334.8232">8</text><text fill="#000000" font-family="sans-serif" font-size="13" lengthAdjust="spacing" textLength="117" x="515.5" y="334.8232">getInstitutionTypes()</text><polygon fill="#181818" points="508.5,366.0313,498.5,370.0313,508.5,374.0313,504.5,370.0313" style="stroke:#181818;stroke-width:1.0;"/><line style="stroke:#181818;stroke-width:1.0;stroke-dasharray:2.0,2.0;" x1="502.5" x2="1034.5" y1="370.0313" y2="370.0313"/><text fill="#000000" font-family="sans-serif" font-size="13" font-weight="bold" lengthAdjust="spacing" textLength="7" x="514.5" y="365.1748">9</text><text fill="#000000" font-family="sans-serif" font-size="13" lengthAdjust="spacing" textLength="105" x="525.5" y="365.1748">institutionTypeList</text><polygon fill="#181818" points="289.5,396.3828,279.5,400.3828,289.5,404.3828,285.5,400.3828" style="stroke:#181818;stroke-width:1.0;"/><line style="stroke:#181818;stroke-width:1.0;stroke-dasharray:2.0,2.0;" x1="283.5" x2="491.5" y1="400.3828" y2="400.3828"/><text fill="#000000" font-family="sans-serif" font-size="13" font-weight="bold" lengthAdjust="spacing" textLength="14" x="295.5" y="395.5264">10</text><text fill="#000000" font-family="sans-serif" font-size="13" lengthAdjust="spacing" textLength="105" x="313.5" y="395.5264">institutionTypeList</text><polygon fill="#181818" points="65.5,426.7344,55.5,430.7344,65.5,434.7344,61.5,430.7344" style="stroke:#181818;stroke-width:1.0;"/><line style="stroke:#181818;stroke-width:1.0;stroke-dasharray:2.0,2.0;" x1="59.5" x2="267.5" y1="430.7344" y2="430.7344"/><text fill="#000000" font-family="sans-serif" font-size="13" font-weight="bold" lengthAdjust="spacing" textLength="14" x="71.5" y="425.8779">11</text><text fill="#000000" font-family="sans-serif" font-size="13" lengthAdjust="spacing" textLength="144" x="89.5" y="425.8779">displays Institution types</text><polygon fill="#181818" points="256.5,457.0859,266.5,461.0859,256.5,465.0859,260.5,461.0859" style="stroke:#181818;stroke-width:1.0;"/><line style="stroke:#181818;stroke-width:1.0;" x1="54.5" x2="262.5" y1="461.0859" y2="461.0859"/><text fill="#000000" font-family="sans-serif" font-size="13" font-weight="bold" lengthAdjust="spacing" textLength="14" x="61.5" y="456.2295">12</text><text fill="#000000" font-family="sans-serif" font-size="13" lengthAdjust="spacing" textLength="172" x="79.5" y="456.2295">selects type and enters name</text><polygon fill="#181818" points="475.5,487.4375,485.5,491.4375,475.5,495.4375,479.5,491.4375" style="stroke:#181818;stroke-width:1.0;"/><line style="stroke:#181818;stroke-width:1.0;" x1="278.5" x2="481.5" y1="491.4375" y2="491.4375"/><text fill="#000000" font-family="sans-serif" font-size="13" font-weight="bold" lengthAdjust="spacing" textLength="14" x="285.5" y="486.5811">13</text><text fill="#000000" font-family="sans-serif" font-size="13" lengthAdjust="spacing" textLength="172" x="303.5" y="486.5811">registerInstitution(name, type)</text><polygon fill="#181818" points="636.5,517.7891,646.5,521.7891,636.5,525.7891,640.5,521.7891" style="stroke:#181818;stroke-width:1.0;"/><line style="stroke:#181818;stroke-width:1.0;" x1="497.5" x2="642.5" y1="521.7891" y2="521.7891"/><text fill="#000000" font-family="sans-serif" font-size="13" font-weight="bold" lengthAdjust="spacing" textLength="14" x="504.5" y="516.9326">14</text><text fill="#000000" font-family="sans-serif" font-size="13" lengthAdjust="spacing" textLength="109" x="522.5" y="516.9326">create(name, type)</text><rect fill="#E2E2F0" height="31.6094" rx="2.5" ry="2.5" style="stroke:#181818;stroke-width:0.5;" width="78" x="648.5" y="499.4375"/><text fill="#000000" font-family="sans-serif" font-size="14" lengthAdjust="spacing" textLength="64" x="655.5" y="520.9707">:Institution</text><polygon fill="#181818" points="675.5,560.3984,685.5,564.3984,675.5,568.3984,679.5,564.3984" style="stroke:#181818;stroke-width:1.0;"/><line style="stroke:#181818;stroke-width:1.0;" x1="497.5" x2="681.5" y1="564.3984" y2="564.3984"/><text fill="#000000" font-family="sans-serif" font-size="13" font-weight="bold" lengthAdjust="spacing" textLength="14" x="504.5" y="559.542">15</text><text fill="#000000" font-family="sans-serif" font-size="13" lengthAdjust="spacing" textLength="51" x="522.5" y="559.542">validate()</text><polygon fill="#181818" points="508.5,590.75,498.5,594.75,508.5,598.75,504.5,594.75" style="stroke:#181818;stroke-width:1.0;"/><line style="stroke:#181818;stroke-width:1.0;stroke-dasharray:2.0,2.0;" x1="502.5" x2="681.5" y1="594.75" y2="594.75"/><text fill="#000000" font-family="sans-serif" font-size="13" font-weight="bold" lengthAdjust="spacing" textLength="14" x="514.5" y="589.8936">16</text><text fill="#000000" font-family="sans-serif" font-size="13" lengthAdjust="spacing" textLength="89" x="532.5" y="589.8936">validation result</text><path d="M192,609.75 L253,609.75 L253,618.1016 L243,628.1016 L192,628.1016 L192,609.75 " fill="#EEEEEE" style="stroke:#000000;stroke-width:1.5;"/><rect fill="none" height="277" style="stroke:#000000;stroke-width:1.5;" width="1098.5" x="192" y="609.75"/><text fill="#000000" font-family="sans-serif" font-size="13" font-weight="bold" lengthAdjust="spacing" textLength="16" x="207" y="624.2451">alt</text><text fill="#000000" font-family="sans-serif" font-size="11" font-weight="bold" lengthAdjust="spacing" textLength="124" x="268" y="623.1689">[validation successful]</text><polygon fill="#181818" points="766,646.4531,776,650.4531,766,654.4531,770,650.4531" style="stroke:#181818;stroke-width:1.0;"/><line style="stroke:#181818;stroke-width:1.0;" x1="497.5" x2="772" y1="650.4531" y2="650.4531"/><text fill="#000000" font-family="sans-serif" font-size="13" font-weight="bold" lengthAdjust="spacing" textLength="14" x="504.5" y="645.5967">17</text><text fill="#000000" font-family="sans-serif" font-size="13" lengthAdjust="spacing" textLength="75" x="522.5" y="645.5967">getInstance()</text><polygon fill="#181818" points="508.5,676.8047,498.5,680.8047,508.5,684.8047,504.5,680.8047" style="stroke:#181818;stroke-width:1.0;"/><line style="stroke:#181818;stroke-width:1.0;stroke-dasharray:2.0,2.0;" x1="502.5" x2="782" y1="680.8047" y2="680.8047"/><text fill="#000000" font-family="sans-serif" font-size="13" font-weight="bold" lengthAdjust="spacing" textLength="14" x="514.5" y="675.9482">18</text><text fill="#000000" font-family="sans-serif" font-size="13" lengthAdjust="spacing" textLength="67" x="532.5" y="675.9482">repositories</text><polygon fill="#181818" points="871,707.1563,881,711.1563,871,715.1563,875,711.1563" style="stroke:#181818;stroke-width:1.0;"/><line style="stroke:#181818;stroke-width:1.0;" x1="497.5" x2="877" y1="711.1563" y2="711.1563"/><text fill="#000000" font-family="sans-serif" font-size="13" font-weight="bold" lengthAdjust="spacing" textLength="14" x="504.5" y="706.2998">19</text><text fill="#000000" font-family="sans-serif" font-size="13" lengthAdjust="spacing" textLength="144" x="522.5" y="706.2998">getInstitutionRepository()</text><polygon fill="#181818" points="508.5,737.5078,498.5,741.5078,508.5,745.5078,504.5,741.5078" style="stroke:#181818;stroke-width:1.0;"/><line style="stroke:#181818;stroke-width:1.0;stroke-dasharray:2.0,2.0;" x1="502.5" x2="887" y1="741.5078" y2="741.5078"/><text fill="#000000" font-family="sans-serif" font-size="13" font-weight="bold" lengthAdjust="spacing" textLength="14" x="514.5" y="736.6514">20</text><text fill="#000000" font-family="sans-serif" font-size="13" lengthAdjust="spacing" textLength="118" x="532.5" y="736.6514">institutionRepository</text><polygon fill="#181818" points="1190.5,767.8594,1200.5,771.8594,1190.5,775.8594,1194.5,771.8594" style="stroke:#181818;stroke-width:1.0;"/><line style="stroke:#181818;stroke-width:1.0;" x1="497.5" x2="1196.5" y1="771.8594" y2="771.8594"/><text fill="#000000" font-family="sans-serif" font-size="13" font-weight="bold" lengthAdjust="spacing" textLength="14" x="504.5" y="767.0029">21</text><text fill="#000000" font-family="sans-serif" font-size="13" lengthAdjust="spacing" textLength="90" x="522.5" y="767.0029">save(institution)</text><polygon fill="#181818" points="508.5,798.2109,498.5,802.2109,508.5,806.2109,504.5,802.2109" style="stroke:#181818;stroke-width:1.0;"/><line style="stroke:#181818;stroke-width:1.0;stroke-dasharray:2.0,2.0;" x1="502.5" x2="1206.5" y1="802.2109" y2="802.2109"/><text fill="#000000" font-family="sans-serif" font-size="13" font-weight="bold" lengthAdjust="spacing" textLength="14" x="514.5" y="797.3545">22</text><text fill="#000000" font-family="sans-serif" font-size="13" lengthAdjust="spacing" textLength="49" x="532.5" y="797.3545">success</text><polygon fill="#181818" points="289.5,828.5625,279.5,832.5625,289.5,836.5625,285.5,832.5625" style="stroke:#181818;stroke-width:1.0;"/><line style="stroke:#181818;stroke-width:1.0;stroke-dasharray:2.0,2.0;" x1="283.5" x2="486.5" y1="832.5625" y2="832.5625"/><text fill="#000000" font-family="sans-serif" font-size="13" font-weight="bold" lengthAdjust="spacing" textLength="14" x="295.5" y="827.7061">23</text><text fill="#000000" font-family="sans-serif" font-size="13" lengthAdjust="spacing" textLength="49" x="313.5" y="827.7061">success</text><line style="stroke:#000000;stroke-width:1.0;stroke-dasharray:2.0,2.0;" x1="192" x2="1290.5" y1="841.5625" y2="841.5625"/><text fill="#000000" font-family="sans-serif" font-size="11" font-weight="bold" lengthAdjust="spacing" textLength="93" x="197" y="852.9814">[validation failed]</text><polygon fill="#181818" points="289.5,874.75,279.5,878.75,289.5,882.75,285.5,878.75" style="stroke:#181818;stroke-width:1.0;"/><line style="stroke:#181818;stroke-width:1.0;stroke-dasharray:2.0,2.0;" x1="283.5" x2="486.5" y1="878.75" y2="878.75"/><text fill="#000000" font-family="sans-serif" font-size="13" font-weight="bold" lengthAdjust="spacing" textLength="14" x="295.5" y="873.8936">24</text><text fill="#000000" font-family="sans-serif" font-size="13" lengthAdjust="spacing" textLength="121" x="313.5" y="873.8936">failure/error message</text><polygon fill="#181818" points="60.5,912.1016,50.5,916.1016,60.5,920.1016,56.5,916.1016" style="stroke:#181818;stroke-width:1.0;"/><line style="stroke:#181818;stroke-width:1.0;stroke-dasharray:2.0,2.0;" x1="54.5" x2="272.5" y1="916.1016" y2="916.1016"/><text fill="#000000" font-family="sans-serif" font-size="13" font-weight="bold" lengthAdjust="spacing" textLength="14" x="66.5" y="911.2451">25</text><text fill="#000000" font-family="sans-serif" font-size="13" lengthAdjust="spacing" textLength="141" x="84.5" y="911.2451">displays result message</text><!--SRC=[bLPDYzim4BtxLuYSqgLBxpaKbcrO36bsIRA7Gc5HxOah8ij6abFoxpkIizROaPFObtpepTERcQUHpK6eccjUiffd1rx0rfuaC0sPvQgGa9WEOFxolFedLC7sN1f84jxOIZNb7z3uFRELPhEdl1HA6Aiv_fmnRjZJZv_fEa46Ap9HSsNPRB610Z6WKsMii8qLbNfFFVezlGrzhfJLbPJGRl2yswm6GGJi8Ubwk-j3Db1NHg160SP3DiktrsqVemdcjrh4GpwswVfbjToz3d8KGSBkL4CNV4AcT6pDq-v-lIq_7FSeuHZPWCXbtHAvxeWZjt3kHk8_sEDth3TR8FPWcAsmwMsj6TahX69h4eOFXc2Wg_h30mPd6d1r_cMuY4i5s46g1d4Erf7wvlc_tEFZCDvNDX1mbS4vi1VSzeoHfmry319e3pja3WEAk83GscWkeTgZseWvBbGITg9tr3QZuiaU5sbqLhhQZ9xku3wgE12DQrsXTs8g0-D0twVzndW8Hx29CnW6jWPUi5oOMl8JcZsGCEkIQ-5zenkGEDUC1p2kSWOAxMwOuYK4TJqFwylvCtVmhvuaKi2-esatt7caHoP6qwFoOukka8hujT5jS9CZbo9lJ-PzvExniQJ5Pn9NL0scaVP-ELnQ6cwQB0DZzesysFI-Kt_7wPys1MvFWwbJ8JeH9as6QHCYCXscJ8cOSJwdXU57c9EjhkGJhfbO9e6Kv70smpNLvFAAw-tET8GByFM4cc_FXOJy1f43DHg-WTRu9bCY9xuDzMbLdiGctEtfr1wUZZGXmNYjab_j_VmV]--></g></svg>