<?xml version="1.0" encoding="us-ascii" standalone="no"?><svg xmlns="http://www.w3.org/2000/svg" xmlns:xlink="http://www.w3.org/1999/xlink" contentStyleType="text/css" height="695px" preserveAspectRatio="none" style="width:787px;height:695px;background:#FFFFFF;" version="1.1" viewBox="0 0 787 695" width="787px" zoomAndPan="magnify"><defs/><g><text fill="#000000" font-family="sans-serif" font-size="14" font-weight="bold" lengthAdjust="spacing" textLength="208" x="282.75" y="24.5332">Design Class Diagram - US004</text><!--class ApplicationSession--><g id="elem_ApplicationSession"><rect codeLine="16" fill="#F1F1F1" height="35.6094" id="ApplicationSession" rx="2.5" ry="2.5" style="stroke:#181818;stroke-width:0.5;" width="125" x="7" y="239.6094"/><text fill="#000000" font-family="sans-serif" font-size="14" lengthAdjust="spacing" textLength="119" x="10" y="259.1426">ApplicationSession</text><line style="stroke:#181818;stroke-width:0.5;" x1="8" x2="131" y1="267.2188" y2="267.2188"/></g><!--class UserSession--><g id="elem_UserSession"><rect codeLine="21" fill="#F1F1F1" height="35.6094" id="UserSession" rx="2.5" ry="2.5" style="stroke:#181818;stroke-width:0.5;" width="85" x="69" y="388.6094"/><text fill="#000000" font-family="sans-serif" font-size="14" lengthAdjust="spacing" textLength="79" x="72" y="408.1426">UserSession</text><line style="stroke:#181818;stroke-width:0.5;" x1="70" x2="153" y1="416.2188" y2="416.2188"/></g><!--class Administrator--><g id="elem_Administrator"><rect codeLine="32" fill="#F1F1F1" height="53.2188" id="Administrator" rx="2.5" ry="2.5" style="stroke:#181818;stroke-width:0.5;" width="89" x="290" y="305.6094"/><text fill="#000000" font-family="sans-serif" font-size="14" lengthAdjust="spacing" textLength="83" x="293" y="325.1426">Administrator</text><line style="stroke:#181818;stroke-width:0.5;" x1="291" x2="378" y1="333.2188" y2="333.2188"/><text fill="#000000" font-family="sans-serif" font-size="14" lengthAdjust="spacing" textLength="33" x="296" y="351.752">email</text></g><!--class Institution--><g id="elem_Institution"><rect codeLine="36" fill="#F1F1F1" height="70.8281" id="Institution" rx="2.5" ry="2.5" style="stroke:#181818;stroke-width:0.5;" width="158" x="377.5" y="485.6094"/><text fill="#000000" font-family="sans-serif" font-size="14" lengthAdjust="spacing" textLength="60" x="426.5" y="505.1426">Institution</text><line style="stroke:#181818;stroke-width:0.5;" x1="378.5" x2="534.5" y1="513.2188" y2="513.2188"/><text fill="#000000" font-family="sans-serif" font-size="14" lengthAdjust="spacing" textLength="35" x="383.5" y="531.752">name</text><text fill="#000000" font-family="sans-serif" font-size="14" lengthAdjust="spacing" textLength="146" x="383.5" y="549.3613">taxIdentificationNumber</text></g><!--class InstitutionType--><g id="elem_InstitutionType"><rect codeLine="41" fill="#F1F1F1" height="53.2188" id="InstitutionType" rx="2.5" ry="2.5" style="stroke:#181818;stroke-width:0.5;" width="98" x="595.5" y="626.6094"/><text fill="#000000" font-family="sans-serif" font-size="14" lengthAdjust="spacing" textLength="92" x="598.5" y="646.1426">InstitutionType</text><line style="stroke:#181818;stroke-width:0.5;" x1="596.5" x2="692.5" y1="654.2188" y2="654.2188"/><text fill="#000000" font-family="sans-serif" font-size="14" lengthAdjust="spacing" textLength="73" x="601.5" y="672.752">designation</text></g><!--class Address--><g id="elem_Address"><rect codeLine="45" fill="#F1F1F1" height="70.8281" id="Address" rx="2.5" ry="2.5" style="stroke:#181818;stroke-width:0.5;" width="97" x="408" y="617.6094"/><text fill="#000000" font-family="sans-serif" font-size="14" lengthAdjust="spacing" textLength="52" x="430.5" y="637.1426">Address</text><line style="stroke:#181818;stroke-width:0.5;" x1="409" x2="504" y1="645.2188" y2="645.2188"/><text fill="#000000" font-family="sans-serif" font-size="14" lengthAdjust="spacing" textLength="51" x="414" y="663.752">address</text><text fill="#000000" font-family="sans-serif" font-size="14" lengthAdjust="spacing" textLength="85" x="414" y="681.3613">nameCountry</text></g><!--class InstitutionRepository--><g id="elem_InstitutionRepository"><rect codeLine="59" fill="#F1F1F1" height="35.6094" id="InstitutionRepository" rx="2.5" ry="2.5" style="stroke:#181818;stroke-width:0.5;" width="134" x="199.5" y="388.6094"/><text fill="#000000" font-family="sans-serif" font-size="14" lengthAdjust="spacing" textLength="128" x="202.5" y="408.1426">InstitutionRepository</text><line style="stroke:#181818;stroke-width:0.5;" x1="200.5" x2="332.5" y1="416.2188" y2="416.2188"/></g><!--class InstitutionTypeRepository--><g id="elem_InstitutionTypeRepository"><rect codeLine="64" fill="#F1F1F1" height="35.6094" id="InstitutionTypeRepository" rx="2.5" ry="2.5" style="stroke:#181818;stroke-width:0.5;" width="166" x="561.5" y="388.6094"/><text fill="#000000" font-family="sans-serif" font-size="14" lengthAdjust="spacing" textLength="160" x="564.5" y="408.1426">InstitutionTypeRepository</text><line style="stroke:#181818;stroke-width:0.5;" x1="562.5" x2="726.5" y1="416.2188" y2="416.2188"/></g><!--class Repositories--><g id="elem_Repositories"><rect codeLine="68" fill="#F1F1F1" height="35.6094" id="Repositories" rx="2.5" ry="2.5" style="stroke:#181818;stroke-width:0.5;" width="85" x="381" y="239.6094"/><text fill="#000000" font-family="sans-serif" font-size="14" lengthAdjust="spacing" textLength="79" x="384" y="259.1426">Repositories</text><line style="stroke:#181818;stroke-width:0.5;" x1="382" x2="465" y1="267.2188" y2="267.2188"/></g><!--class RegisterInstitutionController--><g id="elem_RegisterInstitutionController"><rect codeLine="82" fill="#F1F1F1" height="35.6094" id="RegisterInstitutionController" rx="2.5" ry="2.5" style="stroke:#181818;stroke-width:0.5;" width="181" x="271" y="142.6094"/><text fill="#000000" font-family="sans-serif" font-size="14" lengthAdjust="spacing" textLength="175" x="274" y="162.1426">RegisterInstitutionController</text><line style="stroke:#181818;stroke-width:0.5;" x1="272" x2="451" y1="170.2188" y2="170.2188"/></g><!--class RegisterInstitutionUI--><g id="elem_RegisterInstitutionUI"><rect codeLine="102" fill="#F1F1F1" height="35.6094" id="RegisterInstitutionUI" rx="2.5" ry="2.5" style="stroke:#181818;stroke-width:0.5;" width="131" x="296" y="45.6094"/><text fill="#000000" font-family="sans-serif" font-size="14" lengthAdjust="spacing" textLength="125" x="299" y="65.1426">RegisterInstitutionUI</text><line style="stroke:#181818;stroke-width:0.5;" x1="297" x2="426" y1="73.2188" y2="73.2188"/></g><!--link ApplicationSession to UserSession--><g id="link_ApplicationSession_UserSession"><path codeLine="25" d="M74.4,275.7594 C82.49,304.0894 96.9119,354.5502 104.9819,382.8002 " fill="none" id="ApplicationSession-to-UserSession" style="stroke:#181818;stroke-width:1.0;stroke-dasharray:7.0,7.0;"/><polygon fill="#181818" points="106.63,388.5694,108.0041,378.8168,105.2566,383.7617,100.3118,381.0142,106.63,388.5694" style="stroke:#181818;stroke-width:1.0;"/></g><!--link Institution to InstitutionType--><g id="link_Institution_InstitutionType"><path codeLine="50" d="M506.88,556.9494 C538.53,578.8294 573.7255,603.1661 602.4655,623.0461 " fill="none" id="Institution-to-InstitutionType" style="stroke:#181818;stroke-width:1.0;"/><polygon fill="#181818" points="607.4,626.4594,602.2738,618.0498,603.2879,623.615,597.7227,624.6291,607.4,626.4594" style="stroke:#181818;stroke-width:1.0;"/><text fill="#000000" font-family="sans-serif" font-size="13" lengthAdjust="spacing" textLength="5" x="510.1094" y="578.0245">*</text><text fill="#000000" font-family="sans-serif" font-size="13" lengthAdjust="spacing" textLength="7" x="591.0113" y="615.957">1</text></g><!--link Institution to Address--><g id="link_Institution_Address"><path codeLine="51" d="M456.5,556.9494 C456.5,575.5994 456.5,592.5094 456.5,611.1794 " fill="none" id="Institution-to-Address" style="stroke:#181818;stroke-width:1.0;"/><polygon fill="#181818" points="456.5,617.1794,460.5,608.1794,456.5,612.1794,452.5,608.1794,456.5,617.1794" style="stroke:#181818;stroke-width:1.0;"/><text fill="#000000" font-family="sans-serif" font-size="13" lengthAdjust="spacing" textLength="7" x="448.8984" y="578.0245">1</text><text fill="#000000" font-family="sans-serif" font-size="13" lengthAdjust="spacing" textLength="20" x="434.6563" y="606.6232">1..*</text></g><!--link Administrator to Institution--><g id="link_Administrator_Institution"><path codeLine="52" d="M351.21,358.7194 C372.68,391.6294 406.7519,443.8541 430.7119,480.5841 " fill="none" id="Administrator-to-Institution" style="stroke:#181818;stroke-width:1.0;"/><polygon fill="#181818" points="433.99,485.6094,432.423,475.886,431.2582,481.4216,425.7226,480.2568,433.99,485.6094" style="stroke:#181818;stroke-width:1.0;"/><text fill="#000000" font-family="sans-serif" font-size="13" lengthAdjust="spacing" textLength="50" x="395.5" y="412.1045">registers</text><text fill="#000000" font-family="sans-serif" font-size="13" lengthAdjust="spacing" textLength="7" x="347.2648" y="380.2334">1</text><text fill="#000000" font-family="sans-serif" font-size="13" lengthAdjust="spacing" textLength="5" x="424.2225" y="474.8622">*</text></g><!--link Repositories to InstitutionRepository--><g id="link_Repositories_InstitutionRepository"><path codeLine="74" d="M417.23,276.0294 C406.92,304.6794 387.5,358.6094 387.5,358.6094 C387.5,358.6094 350.7127,372.8963 316.1227,386.3363 " fill="none" id="Repositories-to-InstitutionRepository" style="stroke:#181818;stroke-width:1.0;"/><polygon fill="#181818" points="310.53,388.5094,320.3677,388.9783,315.1906,386.6985,317.4703,381.5214,310.53,388.5094" style="stroke:#181818;stroke-width:1.0;"/></g><!--link Repositories to InstitutionTypeRepository--><g id="link_Repositories_InstitutionTypeRepository"><path codeLine="75" d="M449.28,275.7594 C491.87,304.0894 571.4039,356.9969 613.8839,385.2469 " fill="none" id="Repositories-to-InstitutionTypeRepository" style="stroke:#181818;stroke-width:1.0;"/><polygon fill="#181818" points="618.88,388.5694,613.6009,380.2549,614.7166,385.8006,609.1709,386.9164,618.88,388.5694" style="stroke:#181818;stroke-width:1.0;"/></g><!--link RegisterInstitutionController to Repositories--><g id="link_RegisterInstitutionController_Repositories"><path codeLine="88" d="M372.87,179.0294 C384.06,196.1794 397.7621,217.1639 408.9221,234.2739 " fill="none" id="RegisterInstitutionController-to-Repositories" style="stroke:#181818;stroke-width:1.0;stroke-dasharray:7.0,7.0;"/><polygon fill="#181818" points="412.2,239.2994,410.6335,229.5759,409.4684,235.1115,403.9329,233.9464,412.2,239.2994" style="stroke:#181818;stroke-width:1.0;"/></g><!--link RegisterInstitutionController to InstitutionRepository--><g id="link_RegisterInstitutionController_InstitutionRepository"><path codeLine="89" d="M351.65,178.6894 C329.67,216.8394 278.5,305.6094 278.5,305.6094 C278.5,305.6094 272.7453,353.5822 269.3053,382.2322 " fill="none" id="RegisterInstitutionController-to-InstitutionRepository" style="stroke:#181818;stroke-width:1.0;stroke-dasharray:7.0,7.0;"/><polygon fill="#181818" points="268.59,388.1894,273.6344,379.7304,269.1861,383.225,265.6914,378.7767,268.59,388.1894" style="stroke:#181818;stroke-width:1.0;"/></g><!--link RegisterInstitutionController to InstitutionTypeRepository--><g id="link_RegisterInstitutionController_InstitutionTypeRepository"><path codeLine="90" d="M428.19,178.6394 C480.85,192.0994 545.5,208.6094 545.5,208.6094 C545.5,208.6094 609.1055,335.1784 633.1955,383.1084 " fill="none" id="RegisterInstitutionController-to-InstitutionTypeRepository" style="stroke:#181818;stroke-width:1.0;stroke-dasharray:7.0,7.0;"/><polygon fill="#181818" points="635.89,388.4694,635.4223,378.6316,633.6446,384.0019,628.2743,382.2242,635.89,388.4694" style="stroke:#181818;stroke-width:1.0;"/></g><!--link RegisterInstitutionController to InstitutionType--><g id="link_RegisterInstitutionController_InstitutionType"><path codeLine="91" d="M437.97,178.6394 C498.36,192.0994 572.5,208.6094 572.5,208.6094 C572.5,208.6094 780.5,256.6094 780.5,256.6094 C780.5,256.6094 780.5,256.6094 780.5,522.1094 C780.5,522.1094 715.3368,584.393 675.7068,622.283 " fill="none" id="RegisterInstitutionController-to-InstitutionType" style="stroke:#181818;stroke-width:1.0;stroke-dasharray:7.0,7.0;"/><polygon fill="#181818" points="671.37,626.4294,680.6394,623.101,674.984,622.9741,675.1109,617.3186,671.37,626.4294" style="stroke:#181818;stroke-width:1.0;"/></g><!--link RegisterInstitutionController to Institution--><g id="link_RegisterInstitutionController_Institution"><path codeLine="92" d="M388.27,178.7294 C424.19,201.6894 483.5,239.6094 483.5,239.6094 C483.5,239.6094 483.5,275.6094 483.5,275.6094 C483.5,275.6094 468.4083,412.2356 460.9683,479.6356 " fill="none" id="RegisterInstitutionController-to-Institution" style="stroke:#181818;stroke-width:1.0;stroke-dasharray:7.0,7.0;"/><polygon fill="#181818" points="460.31,485.5994,465.2733,477.0926,460.8586,480.6296,457.3216,476.2148,460.31,485.5994" style="stroke:#181818;stroke-width:1.0;"/></g><!--link RegisterInstitutionController to Administrator--><g id="link_RegisterInstitutionController_Administrator"><path codeLine="93" d="M358.76,178.7994 C354,208.6694 345.1241,264.4141 339.5441,299.4341 " fill="none" id="RegisterInstitutionController-to-Administrator" style="stroke:#181818;stroke-width:1.0;stroke-dasharray:7.0,7.0;"/><polygon fill="#181818" points="338.6,305.3594,343.9663,297.1009,339.3868,300.4217,336.066,295.8421,338.6,305.3594" style="stroke:#181818;stroke-width:1.0;"/></g><!--link RegisterInstitutionController to ApplicationSession--><g id="link_RegisterInstitutionController_ApplicationSession"><path codeLine="94" d="M288.29,178.6394 C230.48,192.0994 159.5,208.6094 159.5,208.6094 C159.5,208.6094 132.6447,222.937 106.7747,236.727 " fill="none" id="RegisterInstitutionController-to-ApplicationSession" style="stroke:#181818;stroke-width:1.0;stroke-dasharray:7.0,7.0;"/><polygon fill="#181818" points="101.48,239.5494,111.3037,238.8457,105.8923,237.1974,107.5405,231.786,101.48,239.5494" style="stroke:#181818;stroke-width:1.0;"/></g><!--link RegisterInstitutionController to UserSession--><g id="link_RegisterInstitutionController_UserSession"><path codeLine="95" d="M343.92,178.7694 C298.02,223.5694 179.2338,339.4985 133.3538,384.2785 " fill="none" id="RegisterInstitutionController-to-UserSession" style="stroke:#181818;stroke-width:1.0;stroke-dasharray:7.0,7.0;"/><polygon fill="#181818" points="129.06,388.4694,138.2946,385.0456,132.6382,384.977,132.7068,379.3206,129.06,388.4694" style="stroke:#181818;stroke-width:1.0;"/></g><!--link RegisterInstitutionUI to RegisterInstitutionController--><g id="link_RegisterInstitutionUI_RegisterInstitutionController"><path codeLine="105" d="M361.5,82.0294 C361.5,99.1794 361.5,119.1894 361.5,136.2994 " fill="none" id="RegisterInstitutionUI-to-RegisterInstitutionController" style="stroke:#181818;stroke-width:1.0;"/><polygon fill="#181818" points="361.5,142.2994,365.5,133.2994,361.5,137.2994,357.5,133.2994,361.5,142.2994" style="stroke:#181818;stroke-width:1.0;"/></g><!--link InstitutionRepository to Institution--><g id="link_InstitutionRepository_Institution"><path codeLine="112" d="M295.36,424.6994 C322.56,440.7994 358.9471,462.3525 393.0471,482.5425 " fill="none" id="InstitutionRepository-to-Institution" style="stroke:#181818;stroke-width:1.0;"/><polygon fill="#181818" points="398.21,485.5994,392.5036,477.5721,393.9076,483.052,388.4277,484.456,398.21,485.5994" style="stroke:#181818;stroke-width:1.0;"/><text fill="#000000" font-family="sans-serif" font-size="13" lengthAdjust="spacing" textLength="5" x="381.6219" y="474.8503">*</text></g><!--link InstitutionTypeRepository to InstitutionType--><g id="link_InstitutionTypeRepository_InstitutionType"><path codeLine="113" d="M644.5,424.7994 C644.5,467.0894 644.5,570.3294 644.5,620.3794 " fill="none" id="InstitutionTypeRepository-to-InstitutionType" style="stroke:#181818;stroke-width:1.0;"/><polygon fill="#181818" points="644.5,626.3794,648.5,617.3794,644.5,621.3794,640.5,617.3794,644.5,626.3794" style="stroke:#181818;stroke-width:1.0;"/><text fill="#000000" font-family="sans-serif" font-size="13" lengthAdjust="spacing" textLength="5" x="638.9219" y="615.8585">*</text></g><!--SRC=[bLJ1Zfim4BtxAwnSDhjjegpKKwLTAKfwY5Jra3GVu8LPCbfZ8zkqfQl-UsqWWBE6E5m0-xsPDy_ZqMye2gPOJdCfP79ICWTgL0b4Tpi5IzvO1WTJSQ0A4iD4neS0VMAf_8qYew-Cw-4EHm6cAe0MabVkPx2NSARrsXY5BwM1NIB50Vy2NH5YqDXCMz2O2RfnCBf5bZdIWXuFgzKNGawO0arG9LP9_Ps3ESbK4tBtDFAGEte0hL4A-frLe2QGf1P7rqN1CM76KixCTqBjyubcO7P2MoiIcD_tQvjIAH2cHTkTV-TOHmqg4CGjVyiPyWORoBXSFW_9PBh2hRJ1uWjCSnIeZM96gbOME3MzRbSbcjBqkWNBeVumxCykjTNYQolvHvc_sBGXxa_N1Gq_hG-s9lJGTPegMs0BOSrVbsuZIs5KvU13FRE76LqidkdiSNQPoySzdd7BfQMqkOXVVGTwy8BHhxRdCui2fQzuluT2QhIngbZ_1ta6v7DxQFOBvjX3xltUQrVriCikN0W4zSaEv0Ne60ZwMhC7rOy0V3LDHY-NipuOS1BcXxroFXjfcqXo7dCo-_RC1xbwUcVC96h22TtjgOyHvgxZFpUtoxuil7LhIf6R4aEZ8k1ZRj_0kx3_PkvjZ0YqTwLZy1_cRGGfVXeVTx6J893Lajz73jvkkOimAJL-MEs1rmxeAPdXKHKOc6Hy1WNGTHVy1m00]--></g></svg>