<?xml version="1.0" encoding="us-ascii" standalone="no"?><svg xmlns="http://www.w3.org/2000/svg" xmlns:xlink="http://www.w3.org/1999/xlink" contentStyleType="text/css" height="635px" preserveAspectRatio="none" style="width:943px;height:635px;background:#FFFFFF;" version="1.1" viewBox="0 0 943 635" width="943px" zoomAndPan="magnify"><defs/><g><rect fill="#FFFFFF" height="442.7578" style="stroke:#181818;stroke-width:1.0;" width="10" x="24" y="92.6094"/><rect fill="#FFFFFF" height="119.4063" style="stroke:#181818;stroke-width:1.0;" width="10" x="360" y="114.9609"/><rect fill="#FFFFFF" height="270.6484" style="stroke:#181818;stroke-width:1.0;" width="10" x="360" y="264.7188"/><rect fill="#FFFFFF" height="209.9453" style="stroke:#181818;stroke-width:1.0;" width="10" x="760" y="295.0703"/><rect fill="#FFFFFF" height="87.7969" style="stroke:#181818;stroke-width:1.0;" width="10" x="765" y="333.4219"/><line style="stroke:#181818;stroke-width:0.5;stroke-dasharray:5.0,5.0;" x1="29" x2="29" y1="82.6094" y2="553.3672"/><line style="stroke:#181818;stroke-width:0.5;stroke-dasharray:5.0,5.0;" x1="365" x2="365" y1="82.6094" y2="553.3672"/><line style="stroke:#181818;stroke-width:0.5;stroke-dasharray:5.0,5.0;" x1="765" x2="765" y1="154.2656" y2="553.3672"/><text fill="#000000" font-family="sans-serif" font-size="14" lengthAdjust="spacing" textLength="42" x="5" y="79.5332">Citizen</text><ellipse cx="29" cy="13.5" fill="#E3E3E3" rx="8" ry="8" style="stroke:#181818;stroke-width:0.5;"/><path d="M29,21.5 L29,48.5 M16,29.5 L42,29.5 M29,48.5 L16,63.5 M29,48.5 L42,63.5 " fill="none" style="stroke:#181818;stroke-width:0.5;"/><text fill="#000000" font-family="sans-serif" font-size="14" lengthAdjust="spacing" textLength="42" x="5" y="566.9004">Citizen</text><ellipse cx="29" cy="578.4766" fill="#E3E3E3" rx="8" ry="8" style="stroke:#181818;stroke-width:0.5;"/><path d="M29,586.4766 L29,613.4766 M16,594.4766 L42,594.4766 M29,613.4766 L16,628.4766 M29,613.4766 L42,628.4766 " fill="none" style="stroke:#181818;stroke-width:0.5;"/><rect fill="#E3E3E3" height="31.6094" rx="2.5" ry="2.5" style="stroke:#181818;stroke-width:0.5;" width="136" x="297" y="50"/><text fill="#000000" font-family="sans-serif" font-size="14" lengthAdjust="spacing" textLength="122" x="304" y="71.5332">:SubmitComplaintUI</text><rect fill="#E3E3E3" height="31.6094" rx="2.5" ry="2.5" style="stroke:#181818;stroke-width:0.5;" width="136" x="297" y="552.3672"/><text fill="#000000" font-family="sans-serif" font-size="14" lengthAdjust="spacing" textLength="122" x="304" y="573.9004">:SubmitComplaintUI</text><rect fill="#E3E3E3" height="31.6094" rx="2.5" ry="2.5" style="stroke:#181818;stroke-width:0.5;" width="186" x="672" y="552.3672"/><text fill="#000000" font-family="sans-serif" font-size="14" lengthAdjust="spacing" textLength="172" x="679" y="573.9004">:SubmitComplaintController</text><rect fill="#FFFFFF" height="442.7578" style="stroke:#181818;stroke-width:1.0;" width="10" x="24" y="92.6094"/><rect fill="#FFFFFF" height="119.4063" style="stroke:#181818;stroke-width:1.0;" width="10" x="360" y="114.9609"/><rect fill="#FFFFFF" height="270.6484" style="stroke:#181818;stroke-width:1.0;" width="10" x="360" y="264.7188"/><rect fill="#FFFFFF" height="209.9453" style="stroke:#181818;stroke-width:1.0;" width="10" x="760" y="295.0703"/><rect fill="#FFFFFF" height="87.7969" style="stroke:#181818;stroke-width:1.0;" width="10" x="765" y="333.4219"/><polygon fill="#181818" points="348,110.9609,358,114.9609,348,118.9609,352,114.9609" style="stroke:#181818;stroke-width:1.0;"/><line style="stroke:#181818;stroke-width:1.0;" x1="34" x2="354" y1="114.9609" y2="114.9609"/><text fill="#000000" font-family="sans-serif" font-size="13" font-weight="bold" lengthAdjust="spacing" textLength="7" x="41" y="110.1045">1</text><text fill="#000000" font-family="sans-serif" font-size="13" lengthAdjust="spacing" textLength="146" x="52" y="110.1045">asks to submit complaint</text><polygon fill="#181818" points="660,141.3125,670,145.3125,660,149.3125,664,145.3125" style="stroke:#181818;stroke-width:1.0;"/><line style="stroke:#181818;stroke-width:1.0;stroke-dasharray:2.0,2.0;" x1="370" x2="666" y1="145.3125" y2="145.3125"/><text fill="#000000" font-family="sans-serif" font-size="13" font-weight="bold" lengthAdjust="spacing" textLength="7" x="377" y="140.4561">2</text><text fill="#000000" font-family="sans-serif" font-size="13" lengthAdjust="spacing" textLength="44" x="388" y="140.4561">create()</text><rect fill="#E3E3E3" height="31.6094" rx="2.5" ry="2.5" style="stroke:#181818;stroke-width:0.5;" width="186" x="672" y="122.9609"/><text fill="#000000" font-family="sans-serif" font-size="14" lengthAdjust="spacing" textLength="172" x="679" y="144.4941">:SubmitComplaintController</text><rect fill="none" height="41.4453" style="stroke:#000000;stroke-width:1.5;" width="192" x="669" y="165.5703"/><path d="M669,165.5703 L731,165.5703 L731,173.5703 L721,183.5703 L669,183.5703 L669,165.5703 " fill="#EEEEEE" style="stroke:#000000;stroke-width:2.0;"/><text fill="#000000" font-family="sans-serif" font-size="13" font-weight="bold" lengthAdjust="spacing" textLength="17" x="682" y="181.0654">ref</text><text fill="#000000" font-family="sans-serif" font-size="12" lengthAdjust="spacing" textLength="108" x="711" y="200.0273">Get Reference Data</text><polygon fill="#181818" points="45,230.3672,35,234.3672,45,238.3672,41,234.3672" style="stroke:#181818;stroke-width:1.0;"/><line style="stroke:#181818;stroke-width:1.0;stroke-dasharray:2.0,2.0;" x1="39" x2="364" y1="234.3672" y2="234.3672"/><text fill="#000000" font-family="sans-serif" font-size="13" font-weight="bold" lengthAdjust="spacing" textLength="7" x="51" y="229.5107">3</text><text fill="#000000" font-family="sans-serif" font-size="13" lengthAdjust="spacing" textLength="266" x="62" y="229.5107">asks political agent, role, date and description</text><polygon fill="#181818" points="348,260.7188,358,264.7188,348,268.7188,352,264.7188" style="stroke:#181818;stroke-width:1.0;"/><line style="stroke:#181818;stroke-width:1.0;" x1="34" x2="354" y1="264.7188" y2="264.7188"/><text fill="#000000" font-family="sans-serif" font-size="13" font-weight="bold" lengthAdjust="spacing" textLength="7" x="41" y="259.8623">4</text><text fill="#000000" font-family="sans-serif" font-size="13" lengthAdjust="spacing" textLength="221" x="52" y="259.8623">provides selected data and description</text><polygon fill="#181818" points="748,291.0703,758,295.0703,748,299.0703,752,295.0703" style="stroke:#181818;stroke-width:1.0;"/><line style="stroke:#181818;stroke-width:1.0;" x1="370" x2="754" y1="295.0703" y2="295.0703"/><text fill="#000000" font-family="sans-serif" font-size="13" font-weight="bold" lengthAdjust="spacing" textLength="7" x="377" y="290.2139">5</text><text fill="#000000" font-family="sans-serif" font-size="13" lengthAdjust="spacing" textLength="360" x="388" y="290.2139">createComplaint(politicalAgent, role, incidentDate, description)</text><line style="stroke:#181818;stroke-width:1.0;" x1="770" x2="817" y1="320.4219" y2="320.4219"/><line style="stroke:#181818;stroke-width:1.0;" x1="817" x2="817" y1="320.4219" y2="333.4219"/><line style="stroke:#181818;stroke-width:1.0;" x1="776" x2="817" y1="333.4219" y2="333.4219"/><polygon fill="#181818" points="786,329.4219,776,333.4219,786,337.4219,782,333.4219" style="stroke:#181818;stroke-width:1.0;"/><text fill="#000000" font-family="sans-serif" font-size="13" font-weight="bold" lengthAdjust="spacing" textLength="7" x="782" y="315.5654">6</text><text fill="#000000" font-family="sans-serif" font-size="13" lengthAdjust="spacing" textLength="143" x="793" y="315.5654">getCitizenFromSession()</text><rect fill="none" height="41.4453" style="stroke:#000000;stroke-width:1.5;" width="192" x="669" y="346.4219"/><path d="M669,346.4219 L731,346.4219 L731,354.4219 L721,364.4219 L669,364.4219 L669,346.4219 " fill="#EEEEEE" style="stroke:#000000;stroke-width:2.0;"/><text fill="#000000" font-family="sans-serif" font-size="13" font-weight="bold" lengthAdjust="spacing" textLength="17" x="682" y="361.917">ref</text><text fill="#000000" font-family="sans-serif" font-size="12" lengthAdjust="spacing" textLength="136" x="697" y="380.8789">Get Citizen from Session</text><line style="stroke:#181818;stroke-width:1.0;stroke-dasharray:2.0,2.0;" x1="775" x2="817" y1="420.2188" y2="420.2188"/><line style="stroke:#181818;stroke-width:1.0;stroke-dasharray:2.0,2.0;" x1="817" x2="817" y1="420.2188" y2="433.2188"/><line style="stroke:#181818;stroke-width:1.0;stroke-dasharray:2.0,2.0;" x1="770" x2="817" y1="433.2188" y2="433.2188"/><polygon fill="#181818" points="780,429.2188,770,433.2188,780,437.2188,776,433.2188" style="stroke:#181818;stroke-width:1.0;"/><text fill="#000000" font-family="sans-serif" font-size="13" font-weight="bold" lengthAdjust="spacing" textLength="7" x="782" y="415.3623">7</text><text fill="#000000" font-family="sans-serif" font-size="13" lengthAdjust="spacing" textLength="38" x="793" y="415.3623">citizen</text><rect fill="none" height="41.4453" style="stroke:#000000;stroke-width:1.5;" width="192" x="669" y="436.2188"/><path d="M669,436.2188 L731,436.2188 L731,444.2188 L721,454.2188 L669,454.2188 L669,436.2188 " fill="#EEEEEE" style="stroke:#000000;stroke-width:2.0;"/><text fill="#000000" font-family="sans-serif" font-size="13" font-weight="bold" lengthAdjust="spacing" textLength="17" x="682" y="451.7139">ref</text><text fill="#000000" font-family="sans-serif" font-size="12" lengthAdjust="spacing" textLength="151" x="689.5" y="470.6758">Create and Save Complaint</text><polygon fill="#181818" points="381,501.0156,371,505.0156,381,509.0156,377,505.0156" style="stroke:#181818;stroke-width:1.0;"/><line style="stroke:#181818;stroke-width:1.0;stroke-dasharray:2.0,2.0;" x1="375" x2="764" y1="505.0156" y2="505.0156"/><text fill="#000000" font-family="sans-serif" font-size="13" font-weight="bold" lengthAdjust="spacing" textLength="7" x="387" y="500.1592">8</text><text fill="#000000" font-family="sans-serif" font-size="13" lengthAdjust="spacing" textLength="147" x="398" y="500.1592">complaintId, SUBMITTED</text><polygon fill="#181818" points="40,531.3672,30,535.3672,40,539.3672,36,535.3672" style="stroke:#181818;stroke-width:1.0;"/><line style="stroke:#181818;stroke-width:1.0;stroke-dasharray:2.0,2.0;" x1="34" x2="364" y1="535.3672" y2="535.3672"/><text fill="#000000" font-family="sans-serif" font-size="13" font-weight="bold" lengthAdjust="spacing" textLength="7" x="46" y="530.5107">9</text><text fill="#000000" font-family="sans-serif" font-size="13" lengthAdjust="spacing" textLength="291" x="57" y="530.5107">informs operation success with complaint identifier</text><!--SRC=[XLJ1RgCm4Btp5QESaYhzWHugTMbtXRHjfK0klLHJCoHMZ8tiIQhThz_1K099a_K9sJFlFRyt9koqRT1Z3RMpJcszgmdOxoa9mqc3QeSRolcF8V2a6Et6Z0l25altgUq6AZI1aWJtxEo-_Y0ltugTXrcgMVybEmCCa6P5zlRqylwG5g-h914GraetQ1bcT_d-ezQSkheng2slizYopgwNfSwoTyQGxnYArUz8hG_8T4e8iYPRS7il370dhRi0x214T51VyB5bW1Cnq2_fkfNcbk_cHW2K9wcOBvAXmbC5xa2-qmIZzOiOLbIH9wi87f5nE2PRjet96Sz4TQ-tSKRCLMX0KhAy1362bb2sKb60IWhAwuQrin6lfF5DhhZHU7VGqWs1ZCHEPOk9ts9UygQpPZ1co6i-Y7uOQzPM2Q5bCQEzmP5aCQ0UGuqPZmsDL4VA3N4_TJzbh7CAGO3cYqdB50rErkNinXds95092_GqPyLVYPxkTvf7FdLWaxfHOEUNlgunZRR7o78yIFzaeY-EsqHPd8NXAMJb4lBrZ-UiA9uUa_zAl32usbRErm5SGnxRWEN9AINUmQVcxP4DuZZeIiklv9lP7TDEtlW_]--></g></svg>