<?xml version="1.0" encoding="us-ascii" standalone="no"?><svg xmlns="http://www.w3.org/2000/svg" xmlns:xlink="http://www.w3.org/1999/xlink" contentStyleType="text/css" height="1193px" preserveAspectRatio="none" style="width:1583px;height:1193px;background:#FFFFFF;" version="1.1" viewBox="0 0 1583 1193" width="1583px" zoomAndPan="magnify"><defs/><g><!--class ComplaintStatus--><g id="elem_ComplaintStatus"><rect codeLine="6" fill="#F1F1F1" height="100.8281" id="ComplaintStatus" rx="2.5" ry="2.5" style="stroke:#181818;stroke-width:0.5;" width="135" x="941" y="942"/><ellipse cx="956" cy="958" fill="#EB937F" rx="11" ry="11" style="stroke:#181818;stroke-width:1.0;"/><path d="M954.8594,958.7969 L954.8594,961.2969 L959.1875,961.2969 L959.1875,960.375 Q959.1875,959.7656 959.4297,959.5 Q959.6719,959.2344 960.0469,959.2344 Q960.4219,959.2344 960.6563,959.5 Q960.8906,959.7656 960.8906,960.375 L960.8906,963 L952.8906,963 Q952.2656,963 952.0078,962.7656 Q951.75,962.5313 951.75,962.1406 Q951.75,961.7656 952.0156,961.5313 Q952.2813,961.2969 952.8906,961.2969 L953.1563,961.2969 L953.1563,954.6406 L952.8906,954.6406 Q952.2656,954.6406 952.0078,954.4063 Q951.75,954.1719 951.75,953.7813 Q951.75,953.4063 952.0078,953.1719 Q952.2656,952.9375 952.8906,952.9375 L960.5156,952.9375 L960.5156,955.5313 Q960.5156,956.1406 960.2891,956.3984 Q960.0625,956.6563 959.6719,956.6563 Q959.2969,956.6563 959.0625,956.3984 Q958.8281,956.1406 958.8281,955.5313 L958.8281,954.6406 L954.8594,954.6406 L954.8594,957.0938 L956.3438,957.0938 Q956.3438,956.4375 956.4688,956.25 Q956.7344,955.8438 957.2031,955.8438 Q957.5781,955.8438 957.8125,956.1016 Q958.0469,956.3594 958.0469,956.9688 L958.0469,958.9375 Q958.0469,959.4844 957.9219,959.6719 Q957.6563,960.0625 957.2031,960.0625 Q956.7344,960.0625 956.4688,959.6563 Q956.3438,959.4688 956.3438,958.7969 L954.8594,958.7969 Z " fill="#000000"/><text fill="#000000" font-family="sans-serif" font-size="14" lengthAdjust="spacing" textLength="103" x="970" y="963.7285">ComplaintStatus</text><line style="stroke:#181818;stroke-width:0.5;" x1="942" x2="1075" y1="974" y2="974"/><text fill="#000000" font-family="sans-serif" font-size="14" lengthAdjust="spacing" textLength="78" x="947" y="992.5332">SUBMITTED</text><text fill="#000000" font-family="sans-serif" font-size="14" lengthAdjust="spacing" textLength="108" x="947" y="1010.1426">UNDER_REVIEW</text><text fill="#000000" font-family="sans-serif" font-size="14" lengthAdjust="spacing" textLength="57" x="947" y="1027.752">CLOSED</text><line style="stroke:#181818;stroke-width:0.5;" x1="942" x2="1075" y1="1034.8281" y2="1034.8281"/></g><!--class ApplicationSession--><g id="elem_ApplicationSession"><rect codeLine="12" fill="#F1F1F1" height="100.8281" id="ApplicationSession" rx="2.5" ry="2.5" style="stroke:#181818;stroke-width:0.5;" width="151" x="74" y="270"/><ellipse cx="89" cy="286" fill="#ADD1B2" rx="11" ry="11" style="stroke:#181818;stroke-width:1.0;"/><path d="M91.7656,281.875 Q91.9219,281.6563 92.1094,281.5469 Q92.2969,281.4375 92.5156,281.4375 Q92.8906,281.4375 93.125,281.6953 Q93.3594,281.9531 93.3594,282.5625 L93.3594,284.0156 Q93.3594,284.625 93.125,284.8906 Q92.8906,285.1563 92.5156,285.1563 Q92.1719,285.1563 91.9688,284.9531 Q91.7656,284.7656 91.6563,284.25 Q91.6094,283.8906 91.4219,283.7031 Q91.0938,283.3281 90.4844,283.1094 Q89.875,282.8906 89.25,282.8906 Q88.4844,282.8906 87.8516,283.2188 Q87.2188,283.5469 86.7266,284.2969 Q86.2344,285.0469 86.2344,286.0781 L86.2344,287.1719 Q86.2344,288.4063 87.125,289.2266 Q88.0156,290.0469 89.6094,290.0469 Q90.5469,290.0469 91.2031,289.7969 Q91.5938,289.6406 92.0156,289.2031 Q92.2813,288.9375 92.4297,288.8594 Q92.5781,288.7813 92.7813,288.7813 Q93.1094,288.7813 93.3672,289.0391 Q93.625,289.2969 93.625,289.6406 Q93.625,289.9844 93.2813,290.3906 Q92.7813,290.9688 91.9844,291.2969 Q90.9063,291.75 89.6094,291.75 Q88.0938,291.75 86.8906,291.125 Q85.9063,290.625 85.2188,289.5547 Q84.5313,288.4844 84.5313,287.2031 L84.5313,286.0469 Q84.5313,284.7188 85.1484,283.5703 Q85.7656,282.4219 86.8594,281.8047 Q87.9531,281.1875 89.1875,281.1875 Q89.9219,281.1875 90.5703,281.3516 Q91.2188,281.5156 91.7656,281.875 Z " fill="#000000"/><text fill="#000000" font-family="sans-serif" font-size="14" lengthAdjust="spacing" textLength="119" x="103" y="291.7285">ApplicationSession</text><line style="stroke:#181818;stroke-width:0.5;" x1="75" x2="224" y1="302" y2="302"/><line style="stroke:#181818;stroke-width:0.5;" x1="75" x2="224" y1="310" y2="310"/><text fill="#000000" font-family="sans-serif" font-size="14" lengthAdjust="spacing" textLength="134" x="80" y="328.5332">-ApplicationSession()</text><text fill="#000000" font-family="sans-serif" font-size="14" lengthAdjust="spacing" text-decoration="underline" textLength="91" x="80" y="346.1426">+getInstance()</text><text fill="#000000" font-family="sans-serif" font-size="14" lengthAdjust="spacing" textLength="136" x="80" y="363.752">+getCurrentSession()</text></g><!--class UserSession--><g id="elem_UserSession"><rect codeLine="18" fill="#F1F1F1" height="65.6094" id="UserSession" rx="2.5" ry="2.5" style="stroke:#181818;stroke-width:0.5;" width="113" x="7" y="484"/><ellipse cx="22.9" cy="500" fill="#ADD1B2" rx="11" ry="11" style="stroke:#181818;stroke-width:1.0;"/><path d="M25.6656,495.875 Q25.8219,495.6563 26.0094,495.5469 Q26.1969,495.4375 26.4156,495.4375 Q26.7906,495.4375 27.025,495.6953 Q27.2594,495.9531 27.2594,496.5625 L27.2594,498.0156 Q27.2594,498.625 27.025,498.8906 Q26.7906,499.1563 26.4156,499.1563 Q26.0719,499.1563 25.8688,498.9531 Q25.6656,498.7656 25.5563,498.25 Q25.5094,497.8906 25.3219,497.7031 Q24.9938,497.3281 24.3844,497.1094 Q23.775,496.8906 23.15,496.8906 Q22.3844,496.8906 21.7516,497.2188 Q21.1188,497.5469 20.6266,498.2969 Q20.1344,499.0469 20.1344,500.0781 L20.1344,501.1719 Q20.1344,502.4063 21.025,503.2266 Q21.9156,504.0469 23.5094,504.0469 Q24.4469,504.0469 25.1031,503.7969 Q25.4938,503.6406 25.9156,503.2031 Q26.1813,502.9375 26.3297,502.8594 Q26.4781,502.7813 26.6813,502.7813 Q27.0094,502.7813 27.2672,503.0391 Q27.525,503.2969 27.525,503.6406 Q27.525,503.9844 27.1813,504.3906 Q26.6813,504.9688 25.8844,505.2969 Q24.8063,505.75 23.5094,505.75 Q21.9938,505.75 20.7906,505.125 Q19.8063,504.625 19.1188,503.5547 Q18.4313,502.4844 18.4313,501.2031 L18.4313,500.0469 Q18.4313,498.7188 19.0484,497.5703 Q19.6656,496.4219 20.7594,495.8047 Q21.8531,495.1875 23.0875,495.1875 Q23.8219,495.1875 24.4703,495.3516 Q25.1188,495.5156 25.6656,495.875 Z " fill="#000000"/><text fill="#000000" font-family="sans-serif" font-size="14" lengthAdjust="spacing" textLength="79" x="37.1" y="505.7285">UserSession</text><line style="stroke:#181818;stroke-width:0.5;" x1="8" x2="119" y1="516" y2="516"/><line style="stroke:#181818;stroke-width:0.5;" x1="8" x2="119" y1="524" y2="524"/><text fill="#000000" font-family="sans-serif" font-size="14" lengthAdjust="spacing" textLength="101" x="13" y="542.5332">+getUserEmail()</text></g><!--class Citizen--><g id="elem_Citizen"><rect codeLine="22" fill="#F1F1F1" height="136.0469" id="Citizen" rx="2.5" ry="2.5" style="stroke:#181818;stroke-width:0.5;" width="479" x="807" y="449"/><ellipse cx="1021.25" cy="465" fill="#ADD1B2" rx="11" ry="11" style="stroke:#181818;stroke-width:1.0;"/><path d="M1024.0156,460.875 Q1024.1719,460.6563 1024.3594,460.5469 Q1024.5469,460.4375 1024.7656,460.4375 Q1025.1406,460.4375 1025.375,460.6953 Q1025.6094,460.9531 1025.6094,461.5625 L1025.6094,463.0156 Q1025.6094,463.625 1025.375,463.8906 Q1025.1406,464.1563 1024.7656,464.1563 Q1024.4219,464.1563 1024.2188,463.9531 Q1024.0156,463.7656 1023.9063,463.25 Q1023.8594,462.8906 1023.6719,462.7031 Q1023.3438,462.3281 1022.7344,462.1094 Q1022.125,461.8906 1021.5,461.8906 Q1020.7344,461.8906 1020.1016,462.2188 Q1019.4688,462.5469 1018.9766,463.2969 Q1018.4844,464.0469 1018.4844,465.0781 L1018.4844,466.1719 Q1018.4844,467.4063 1019.375,468.2266 Q1020.2656,469.0469 1021.8594,469.0469 Q1022.7969,469.0469 1023.4531,468.7969 Q1023.8438,468.6406 1024.2656,468.2031 Q1024.5313,467.9375 1024.6797,467.8594 Q1024.8281,467.7813 1025.0313,467.7813 Q1025.3594,467.7813 1025.6172,468.0391 Q1025.875,468.2969 1025.875,468.6406 Q1025.875,468.9844 1025.5313,469.3906 Q1025.0313,469.9688 1024.2344,470.2969 Q1023.1563,470.75 1021.8594,470.75 Q1020.3438,470.75 1019.1406,470.125 Q1018.1563,469.625 1017.4688,468.5547 Q1016.7813,467.4844 1016.7813,466.2031 L1016.7813,465.0469 Q1016.7813,463.7188 1017.3984,462.5703 Q1018.0156,461.4219 1019.1094,460.8047 Q1020.2031,460.1875 1021.4375,460.1875 Q1022.1719,460.1875 1022.8203,460.3516 Q1023.4688,460.5156 1024.0156,460.875 Z " fill="#000000"/><text fill="#000000" font-family="sans-serif" font-size="14" lengthAdjust="spacing" textLength="42" x="1041.75" y="470.7285">Citizen</text><line style="stroke:#181818;stroke-width:0.5;" x1="808" x2="1285" y1="481" y2="481"/><text fill="#000000" font-family="sans-serif" font-size="14" lengthAdjust="spacing" textLength="89" x="813" y="499.5332">-name : String</text><text fill="#000000" font-family="sans-serif" font-size="14" lengthAdjust="spacing" textLength="83" x="813" y="517.1426">-taxId : String</text><text fill="#000000" font-family="sans-serif" font-size="14" lengthAdjust="spacing" textLength="87" x="813" y="534.752">-email : String</text><line style="stroke:#181818;stroke-width:0.5;" x1="808" x2="1285" y1="541.8281" y2="541.8281"/><text fill="#000000" font-family="sans-serif" font-size="14" lengthAdjust="spacing" textLength="467" x="813" y="560.3613">+submitComplaint(politicalMandate, incidentDate, description, complaintId)</text><text fill="#000000" font-family="sans-serif" font-size="14" lengthAdjust="spacing" textLength="162" x="813" y="577.9707">-addComplaint(complaint)</text></g><!--class PoliticalAgent--><g id="elem_PoliticalAgent"><rect codeLine="31" fill="#F1F1F1" height="83.2188" id="PoliticalAgent" rx="2.5" ry="2.5" style="stroke:#181818;stroke-width:0.5;" width="117" x="501" y="615"/><ellipse cx="516" cy="631" fill="#ADD1B2" rx="11" ry="11" style="stroke:#181818;stroke-width:1.0;"/><path d="M518.7656,626.875 Q518.9219,626.6563 519.1094,626.5469 Q519.2969,626.4375 519.5156,626.4375 Q519.8906,626.4375 520.125,626.6953 Q520.3594,626.9531 520.3594,627.5625 L520.3594,629.0156 Q520.3594,629.625 520.125,629.8906 Q519.8906,630.1563 519.5156,630.1563 Q519.1719,630.1563 518.9688,629.9531 Q518.7656,629.7656 518.6563,629.25 Q518.6094,628.8906 518.4219,628.7031 Q518.0938,628.3281 517.4844,628.1094 Q516.875,627.8906 516.25,627.8906 Q515.4844,627.8906 514.8516,628.2188 Q514.2188,628.5469 513.7266,629.2969 Q513.2344,630.0469 513.2344,631.0781 L513.2344,632.1719 Q513.2344,633.4063 514.125,634.2266 Q515.0156,635.0469 516.6094,635.0469 Q517.5469,635.0469 518.2031,634.7969 Q518.5938,634.6406 519.0156,634.2031 Q519.2813,633.9375 519.4297,633.8594 Q519.5781,633.7813 519.7813,633.7813 Q520.1094,633.7813 520.3672,634.0391 Q520.625,634.2969 520.625,634.6406 Q520.625,634.9844 520.2813,635.3906 Q519.7813,635.9688 518.9844,636.2969 Q517.9063,636.75 516.6094,636.75 Q515.0938,636.75 513.8906,636.125 Q512.9063,635.625 512.2188,634.5547 Q511.5313,633.4844 511.5313,632.2031 L511.5313,631.0469 Q511.5313,629.7188 512.1484,628.5703 Q512.7656,627.4219 513.8594,626.8047 Q514.9531,626.1875 516.1875,626.1875 Q516.9219,626.1875 517.5703,626.3516 Q518.2188,626.5156 518.7656,626.875 Z " fill="#000000"/><text fill="#000000" font-family="sans-serif" font-size="14" lengthAdjust="spacing" textLength="85" x="530" y="636.7285">PoliticalAgent</text><line style="stroke:#181818;stroke-width:0.5;" x1="502" x2="617" y1="647" y2="647"/><text fill="#000000" font-family="sans-serif" font-size="14" lengthAdjust="spacing" textLength="89" x="507" y="665.5332">-name : String</text><text fill="#000000" font-family="sans-serif" font-size="14" lengthAdjust="spacing" textLength="83" x="507" y="683.1426">-taxId : String</text><line style="stroke:#181818;stroke-width:0.5;" x1="502" x2="617" y1="690.2188" y2="690.2188"/></g><!--class Role--><g id="elem_Role"><rect codeLine="36" fill="#F1F1F1" height="65.6094" id="Role" rx="2.5" ry="2.5" style="stroke:#181818;stroke-width:0.5;" width="139" x="1035" y="1121"/><ellipse cx="1085.75" cy="1137" fill="#ADD1B2" rx="11" ry="11" style="stroke:#181818;stroke-width:1.0;"/><path d="M1088.5156,1132.875 Q1088.6719,1132.6563 1088.8594,1132.5469 Q1089.0469,1132.4375 1089.2656,1132.4375 Q1089.6406,1132.4375 1089.875,1132.6953 Q1090.1094,1132.9531 1090.1094,1133.5625 L1090.1094,1135.0156 Q1090.1094,1135.625 1089.875,1135.8906 Q1089.6406,1136.1563 1089.2656,1136.1563 Q1088.9219,1136.1563 1088.7188,1135.9531 Q1088.5156,1135.7656 1088.4063,1135.25 Q1088.3594,1134.8906 1088.1719,1134.7031 Q1087.8438,1134.3281 1087.2344,1134.1094 Q1086.625,1133.8906 1086,1133.8906 Q1085.2344,1133.8906 1084.6016,1134.2188 Q1083.9688,1134.5469 1083.4766,1135.2969 Q1082.9844,1136.0469 1082.9844,1137.0781 L1082.9844,1138.1719 Q1082.9844,1139.4063 1083.875,1140.2266 Q1084.7656,1141.0469 1086.3594,1141.0469 Q1087.2969,1141.0469 1087.9531,1140.7969 Q1088.3438,1140.6406 1088.7656,1140.2031 Q1089.0313,1139.9375 1089.1797,1139.8594 Q1089.3281,1139.7813 1089.5313,1139.7813 Q1089.8594,1139.7813 1090.1172,1140.0391 Q1090.375,1140.2969 1090.375,1140.6406 Q1090.375,1140.9844 1090.0313,1141.3906 Q1089.5313,1141.9688 1088.7344,1142.2969 Q1087.6563,1142.75 1086.3594,1142.75 Q1084.8438,1142.75 1083.6406,1142.125 Q1082.6563,1141.625 1081.9688,1140.5547 Q1081.2813,1139.4844 1081.2813,1138.2031 L1081.2813,1137.0469 Q1081.2813,1135.7188 1081.8984,1134.5703 Q1082.5156,1133.4219 1083.6094,1132.8047 Q1084.7031,1132.1875 1085.9375,1132.1875 Q1086.6719,1132.1875 1087.3203,1132.3516 Q1087.9688,1132.5156 1088.5156,1132.875 Z " fill="#000000"/><text fill="#000000" font-family="sans-serif" font-size="14" lengthAdjust="spacing" textLength="29" x="1106.25" y="1142.7285">Role</text><line style="stroke:#181818;stroke-width:0.5;" x1="1036" x2="1173" y1="1153" y2="1153"/><text fill="#000000" font-family="sans-serif" font-size="14" lengthAdjust="spacing" textLength="127" x="1041" y="1171.5332">-designation : String</text><line style="stroke:#181818;stroke-width:0.5;" x1="1036" x2="1173" y1="1178.6094" y2="1178.6094"/></g><!--class PoliticalMandate--><g id="elem_PoliticalMandate"><rect codeLine="40" fill="#F1F1F1" height="83.2188" id="PoliticalMandate" rx="2.5" ry="2.5" style="stroke:#181818;stroke-width:0.5;" width="151" x="710" y="951"/><ellipse cx="732.2" cy="967" fill="#ADD1B2" rx="11" ry="11" style="stroke:#181818;stroke-width:1.0;"/><path d="M734.9656,962.875 Q735.1219,962.6563 735.3094,962.5469 Q735.4969,962.4375 735.7156,962.4375 Q736.0906,962.4375 736.325,962.6953 Q736.5594,962.9531 736.5594,963.5625 L736.5594,965.0156 Q736.5594,965.625 736.325,965.8906 Q736.0906,966.1563 735.7156,966.1563 Q735.3719,966.1563 735.1688,965.9531 Q734.9656,965.7656 734.8563,965.25 Q734.8094,964.8906 734.6219,964.7031 Q734.2938,964.3281 733.6844,964.1094 Q733.075,963.8906 732.45,963.8906 Q731.6844,963.8906 731.0516,964.2188 Q730.4188,964.5469 729.9266,965.2969 Q729.4344,966.0469 729.4344,967.0781 L729.4344,968.1719 Q729.4344,969.4063 730.325,970.2266 Q731.2156,971.0469 732.8094,971.0469 Q733.7469,971.0469 734.4031,970.7969 Q734.7938,970.6406 735.2156,970.2031 Q735.4813,969.9375 735.6297,969.8594 Q735.7781,969.7813 735.9813,969.7813 Q736.3094,969.7813 736.5672,970.0391 Q736.825,970.2969 736.825,970.6406 Q736.825,970.9844 736.4813,971.3906 Q735.9813,971.9688 735.1844,972.2969 Q734.1063,972.75 732.8094,972.75 Q731.2938,972.75 730.0906,972.125 Q729.1063,971.625 728.4188,970.5547 Q727.7313,969.4844 727.7313,968.2031 L727.7313,967.0469 Q727.7313,965.7188 728.3484,964.5703 Q728.9656,963.4219 730.0594,962.8047 Q731.1531,962.1875 732.3875,962.1875 Q733.1219,962.1875 733.7703,962.3516 Q734.4188,962.5156 734.9656,962.875 Z " fill="#000000"/><text fill="#000000" font-family="sans-serif" font-size="14" lengthAdjust="spacing" textLength="103" x="747.8" y="972.7285">PoliticalMandate</text><line style="stroke:#181818;stroke-width:0.5;" x1="711" x2="860" y1="983" y2="983"/><text fill="#000000" font-family="sans-serif" font-size="14" lengthAdjust="spacing" textLength="139" x="716" y="1001.5332">-startDate : LocalDate</text><text fill="#000000" font-family="sans-serif" font-size="14" lengthAdjust="spacing" textLength="135" x="716" y="1019.1426">-endDate : LocalDate</text><line style="stroke:#181818;stroke-width:0.5;" x1="711" x2="860" y1="1026.2188" y2="1026.2188"/></g><!--class Complaint--><g id="elem_Complaint"><rect codeLine="45" fill="#F1F1F1" height="136.0469" id="Complaint" rx="2.5" ry="2.5" style="stroke:#181818;stroke-width:0.5;" width="378" x="819.5" y="728"/><ellipse cx="972.75" cy="744" fill="#ADD1B2" rx="11" ry="11" style="stroke:#181818;stroke-width:1.0;"/><path d="M975.5156,739.875 Q975.6719,739.6563 975.8594,739.5469 Q976.0469,739.4375 976.2656,739.4375 Q976.6406,739.4375 976.875,739.6953 Q977.1094,739.9531 977.1094,740.5625 L977.1094,742.0156 Q977.1094,742.625 976.875,742.8906 Q976.6406,743.1563 976.2656,743.1563 Q975.9219,743.1563 975.7188,742.9531 Q975.5156,742.7656 975.4063,742.25 Q975.3594,741.8906 975.1719,741.7031 Q974.8438,741.3281 974.2344,741.1094 Q973.625,740.8906 973,740.8906 Q972.2344,740.8906 971.6016,741.2188 Q970.9688,741.5469 970.4766,742.2969 Q969.9844,743.0469 969.9844,744.0781 L969.9844,745.1719 Q969.9844,746.4063 970.875,747.2266 Q971.7656,748.0469 973.3594,748.0469 Q974.2969,748.0469 974.9531,747.7969 Q975.3438,747.6406 975.7656,747.2031 Q976.0313,746.9375 976.1797,746.8594 Q976.3281,746.7813 976.5313,746.7813 Q976.8594,746.7813 977.1172,747.0391 Q977.375,747.2969 977.375,747.6406 Q977.375,747.9844 977.0313,748.3906 Q976.5313,748.9688 975.7344,749.2969 Q974.6563,749.75 973.3594,749.75 Q971.8438,749.75 970.6406,749.125 Q969.6563,748.625 968.9688,747.5547 Q968.2813,746.4844 968.2813,745.2031 L968.2813,744.0469 Q968.2813,742.7188 968.8984,741.5703 Q969.5156,740.4219 970.6094,739.8047 Q971.7031,739.1875 972.9375,739.1875 Q973.6719,739.1875 974.3203,739.3516 Q974.9688,739.5156 975.5156,739.875 Z " fill="#000000"/><text fill="#000000" font-family="sans-serif" font-size="14" lengthAdjust="spacing" textLength="63" x="993.25" y="749.7285">Complaint</text><line style="stroke:#181818;stroke-width:0.5;" x1="820.5" x2="1196.5" y1="760" y2="760"/><text fill="#000000" font-family="sans-serif" font-size="14" lengthAdjust="spacing" textLength="65" x="825.5" y="778.5332">-id : String</text><text fill="#000000" font-family="sans-serif" font-size="14" lengthAdjust="spacing" textLength="160" x="825.5" y="796.1426">-incidentDate : LocalDate</text><text fill="#000000" font-family="sans-serif" font-size="14" lengthAdjust="spacing" textLength="181" x="825.5" y="813.752">-submissionDate : LocalDate</text><text fill="#000000" font-family="sans-serif" font-size="14" lengthAdjust="spacing" textLength="123" x="825.5" y="831.3613">-description : String</text><line style="stroke:#181818;stroke-width:0.5;" x1="820.5" x2="1196.5" y1="838.4375" y2="838.4375"/><text fill="#000000" font-family="sans-serif" font-size="14" lengthAdjust="spacing" textLength="366" x="825.5" y="856.9707">+Complaint(id, incidentDate, description, politicalMandate)</text></g><!--class UserRepository--><g id="elem_UserRepository"><rect codeLine="54" fill="#F1F1F1" height="65.6094" id="UserRepository" rx="2.5" ry="2.5" style="stroke:#181818;stroke-width:0.5;" width="175" x="1039" y="287.5"/><ellipse cx="1074.7" cy="303.5" fill="#ADD1B2" rx="11" ry="11" style="stroke:#181818;stroke-width:1.0;"/><path d="M1077.4656,299.375 Q1077.6219,299.1563 1077.8094,299.0469 Q1077.9969,298.9375 1078.2156,298.9375 Q1078.5906,298.9375 1078.825,299.1953 Q1079.0594,299.4531 1079.0594,300.0625 L1079.0594,301.5156 Q1079.0594,302.125 1078.825,302.3906 Q1078.5906,302.6563 1078.2156,302.6563 Q1077.8719,302.6563 1077.6688,302.4531 Q1077.4656,302.2656 1077.3563,301.75 Q1077.3094,301.3906 1077.1219,301.2031 Q1076.7938,300.8281 1076.1844,300.6094 Q1075.575,300.3906 1074.95,300.3906 Q1074.1844,300.3906 1073.5516,300.7188 Q1072.9188,301.0469 1072.4266,301.7969 Q1071.9344,302.5469 1071.9344,303.5781 L1071.9344,304.6719 Q1071.9344,305.9063 1072.825,306.7266 Q1073.7156,307.5469 1075.3094,307.5469 Q1076.2469,307.5469 1076.9031,307.2969 Q1077.2938,307.1406 1077.7156,306.7031 Q1077.9813,306.4375 1078.1297,306.3594 Q1078.2781,306.2813 1078.4813,306.2813 Q1078.8094,306.2813 1079.0672,306.5391 Q1079.325,306.7969 1079.325,307.1406 Q1079.325,307.4844 1078.9813,307.8906 Q1078.4813,308.4688 1077.6844,308.7969 Q1076.6063,309.25 1075.3094,309.25 Q1073.7938,309.25 1072.5906,308.625 Q1071.6063,308.125 1070.9188,307.0547 Q1070.2313,305.9844 1070.2313,304.7031 L1070.2313,303.5469 Q1070.2313,302.2188 1070.8484,301.0703 Q1071.4656,299.9219 1072.5594,299.3047 Q1073.6531,298.6875 1074.8875,298.6875 Q1075.6219,298.6875 1076.2703,298.8516 Q1076.9188,299.0156 1077.4656,299.375 Z " fill="#000000"/><text fill="#000000" font-family="sans-serif" font-size="14" lengthAdjust="spacing" textLength="97" x="1093.3" y="309.2285">UserRepository</text><line style="stroke:#181818;stroke-width:0.5;" x1="1040" x2="1213" y1="319.5" y2="319.5"/><line style="stroke:#181818;stroke-width:0.5;" x1="1040" x2="1213" y1="327.5" y2="327.5"/><text fill="#000000" font-family="sans-serif" font-size="14" lengthAdjust="spacing" textLength="163" x="1045" y="346.0332">+getCitizenByEmail(email)</text></g><!--class PoliticalAgentRepository--><g id="elem_PoliticalAgentRepository"><rect codeLine="58" fill="#F1F1F1" height="65.6094" id="PoliticalAgentRepository" rx="2.5" ry="2.5" style="stroke:#181818;stroke-width:0.5;" width="185" x="339" y="287.5"/><ellipse cx="354" cy="303.5" fill="#ADD1B2" rx="11" ry="11" style="stroke:#181818;stroke-width:1.0;"/><path d="M356.7656,299.375 Q356.9219,299.1563 357.1094,299.0469 Q357.2969,298.9375 357.5156,298.9375 Q357.8906,298.9375 358.125,299.1953 Q358.3594,299.4531 358.3594,300.0625 L358.3594,301.5156 Q358.3594,302.125 358.125,302.3906 Q357.8906,302.6563 357.5156,302.6563 Q357.1719,302.6563 356.9688,302.4531 Q356.7656,302.2656 356.6563,301.75 Q356.6094,301.3906 356.4219,301.2031 Q356.0938,300.8281 355.4844,300.6094 Q354.875,300.3906 354.25,300.3906 Q353.4844,300.3906 352.8516,300.7188 Q352.2188,301.0469 351.7266,301.7969 Q351.2344,302.5469 351.2344,303.5781 L351.2344,304.6719 Q351.2344,305.9063 352.125,306.7266 Q353.0156,307.5469 354.6094,307.5469 Q355.5469,307.5469 356.2031,307.2969 Q356.5938,307.1406 357.0156,306.7031 Q357.2813,306.4375 357.4297,306.3594 Q357.5781,306.2813 357.7813,306.2813 Q358.1094,306.2813 358.3672,306.5391 Q358.625,306.7969 358.625,307.1406 Q358.625,307.4844 358.2813,307.8906 Q357.7813,308.4688 356.9844,308.7969 Q355.9063,309.25 354.6094,309.25 Q353.0938,309.25 351.8906,308.625 Q350.9063,308.125 350.2188,307.0547 Q349.5313,305.9844 349.5313,304.7031 L349.5313,303.5469 Q349.5313,302.2188 350.1484,301.0703 Q350.7656,299.9219 351.8594,299.3047 Q352.9531,298.6875 354.1875,298.6875 Q354.9219,298.6875 355.5703,298.8516 Q356.2188,299.0156 356.7656,299.375 Z " fill="#000000"/><text fill="#000000" font-family="sans-serif" font-size="14" lengthAdjust="spacing" textLength="153" x="368" y="309.2285">PoliticalAgentRepository</text><line style="stroke:#181818;stroke-width:0.5;" x1="340" x2="523" y1="319.5" y2="319.5"/><line style="stroke:#181818;stroke-width:0.5;" x1="340" x2="523" y1="327.5" y2="327.5"/><text fill="#000000" font-family="sans-serif" font-size="14" lengthAdjust="spacing" textLength="130" x="345" y="346.0332">+getPoliticalAgents()</text></g><!--class RoleRepository--><g id="elem_RoleRepository"><rect codeLine="62" fill="#F1F1F1" height="65.6094" id="RoleRepository" rx="2.5" ry="2.5" style="stroke:#181818;stroke-width:0.5;" width="129" x="1249" y="287.5"/><ellipse cx="1264" cy="303.5" fill="#ADD1B2" rx="11" ry="11" style="stroke:#181818;stroke-width:1.0;"/><path d="M1266.7656,299.375 Q1266.9219,299.1563 1267.1094,299.0469 Q1267.2969,298.9375 1267.5156,298.9375 Q1267.8906,298.9375 1268.125,299.1953 Q1268.3594,299.4531 1268.3594,300.0625 L1268.3594,301.5156 Q1268.3594,302.125 1268.125,302.3906 Q1267.8906,302.6563 1267.5156,302.6563 Q1267.1719,302.6563 1266.9688,302.4531 Q1266.7656,302.2656 1266.6563,301.75 Q1266.6094,301.3906 1266.4219,301.2031 Q1266.0938,300.8281 1265.4844,300.6094 Q1264.875,300.3906 1264.25,300.3906 Q1263.4844,300.3906 1262.8516,300.7188 Q1262.2188,301.0469 1261.7266,301.7969 Q1261.2344,302.5469 1261.2344,303.5781 L1261.2344,304.6719 Q1261.2344,305.9063 1262.125,306.7266 Q1263.0156,307.5469 1264.6094,307.5469 Q1265.5469,307.5469 1266.2031,307.2969 Q1266.5938,307.1406 1267.0156,306.7031 Q1267.2813,306.4375 1267.4297,306.3594 Q1267.5781,306.2813 1267.7813,306.2813 Q1268.1094,306.2813 1268.3672,306.5391 Q1268.625,306.7969 1268.625,307.1406 Q1268.625,307.4844 1268.2813,307.8906 Q1267.7813,308.4688 1266.9844,308.7969 Q1265.9063,309.25 1264.6094,309.25 Q1263.0938,309.25 1261.8906,308.625 Q1260.9063,308.125 1260.2188,307.0547 Q1259.5313,305.9844 1259.5313,304.7031 L1259.5313,303.5469 Q1259.5313,302.2188 1260.1484,301.0703 Q1260.7656,299.9219 1261.8594,299.3047 Q1262.9531,298.6875 1264.1875,298.6875 Q1264.9219,298.6875 1265.5703,298.8516 Q1266.2188,299.0156 1266.7656,299.375 Z " fill="#000000"/><text fill="#000000" font-family="sans-serif" font-size="14" lengthAdjust="spacing" textLength="97" x="1278" y="309.2285">RoleRepository</text><line style="stroke:#181818;stroke-width:0.5;" x1="1250" x2="1377" y1="319.5" y2="319.5"/><line style="stroke:#181818;stroke-width:0.5;" x1="1250" x2="1377" y1="327.5" y2="327.5"/><text fill="#000000" font-family="sans-serif" font-size="14" lengthAdjust="spacing" textLength="74" x="1255" y="346.0332">+getRoles()</text></g><!--class PoliticalMandateRepository--><g id="elem_PoliticalMandateRepository"><rect codeLine="66" fill="#F1F1F1" height="65.6094" id="PoliticalMandateRepository" rx="2.5" ry="2.5" style="stroke:#181818;stroke-width:0.5;" width="445" x="559" y="287.5"/><ellipse cx="691.75" cy="303.5" fill="#ADD1B2" rx="11" ry="11" style="stroke:#181818;stroke-width:1.0;"/><path d="M694.5156,299.375 Q694.6719,299.1563 694.8594,299.0469 Q695.0469,298.9375 695.2656,298.9375 Q695.6406,298.9375 695.875,299.1953 Q696.1094,299.4531 696.1094,300.0625 L696.1094,301.5156 Q696.1094,302.125 695.875,302.3906 Q695.6406,302.6563 695.2656,302.6563 Q694.9219,302.6563 694.7188,302.4531 Q694.5156,302.2656 694.4063,301.75 Q694.3594,301.3906 694.1719,301.2031 Q693.8438,300.8281 693.2344,300.6094 Q692.625,300.3906 692,300.3906 Q691.2344,300.3906 690.6016,300.7188 Q689.9688,301.0469 689.4766,301.7969 Q688.9844,302.5469 688.9844,303.5781 L688.9844,304.6719 Q688.9844,305.9063 689.875,306.7266 Q690.7656,307.5469 692.3594,307.5469 Q693.2969,307.5469 693.9531,307.2969 Q694.3438,307.1406 694.7656,306.7031 Q695.0313,306.4375 695.1797,306.3594 Q695.3281,306.2813 695.5313,306.2813 Q695.8594,306.2813 696.1172,306.5391 Q696.375,306.7969 696.375,307.1406 Q696.375,307.4844 696.0313,307.8906 Q695.5313,308.4688 694.7344,308.7969 Q693.6563,309.25 692.3594,309.25 Q690.8438,309.25 689.6406,308.625 Q688.6563,308.125 687.9688,307.0547 Q687.2813,305.9844 687.2813,304.7031 L687.2813,303.5469 Q687.2813,302.2188 687.8984,301.0703 Q688.5156,299.9219 689.6094,299.3047 Q690.7031,298.6875 691.9375,298.6875 Q692.6719,298.6875 693.3203,298.8516 Q693.9688,299.0156 694.5156,299.375 Z " fill="#000000"/><text fill="#000000" font-family="sans-serif" font-size="14" lengthAdjust="spacing" textLength="171" x="712.25" y="309.2285">PoliticalMandateRepository</text><line style="stroke:#181818;stroke-width:0.5;" x1="560" x2="1003" y1="319.5" y2="319.5"/><line style="stroke:#181818;stroke-width:0.5;" x1="560" x2="1003" y1="327.5" y2="327.5"/><text fill="#000000" font-family="sans-serif" font-size="14" lengthAdjust="spacing" textLength="433" x="565" y="346.0332">+getMandateByAgentRoleAndDate(politicalAgent, role, incidentDate)</text></g><!--class ComplaintRepository--><g id="elem_ComplaintRepository"><rect codeLine="70" fill="#F1F1F1" height="83.2188" id="ComplaintRepository" rx="2.5" ry="2.5" style="stroke:#181818;stroke-width:0.5;" width="163" x="1413" y="279"/><ellipse cx="1428" cy="295" fill="#ADD1B2" rx="11" ry="11" style="stroke:#181818;stroke-width:1.0;"/><path d="M1430.7656,290.875 Q1430.9219,290.6563 1431.1094,290.5469 Q1431.2969,290.4375 1431.5156,290.4375 Q1431.8906,290.4375 1432.125,290.6953 Q1432.3594,290.9531 1432.3594,291.5625 L1432.3594,293.0156 Q1432.3594,293.625 1432.125,293.8906 Q1431.8906,294.1563 1431.5156,294.1563 Q1431.1719,294.1563 1430.9688,293.9531 Q1430.7656,293.7656 1430.6563,293.25 Q1430.6094,292.8906 1430.4219,292.7031 Q1430.0938,292.3281 1429.4844,292.1094 Q1428.875,291.8906 1428.25,291.8906 Q1427.4844,291.8906 1426.8516,292.2188 Q1426.2188,292.5469 1425.7266,293.2969 Q1425.2344,294.0469 1425.2344,295.0781 L1425.2344,296.1719 Q1425.2344,297.4063 1426.125,298.2266 Q1427.0156,299.0469 1428.6094,299.0469 Q1429.5469,299.0469 1430.2031,298.7969 Q1430.5938,298.6406 1431.0156,298.2031 Q1431.2813,297.9375 1431.4297,297.8594 Q1431.5781,297.7813 1431.7813,297.7813 Q1432.1094,297.7813 1432.3672,298.0391 Q1432.625,298.2969 1432.625,298.6406 Q1432.625,298.9844 1432.2813,299.3906 Q1431.7813,299.9688 1430.9844,300.2969 Q1429.9063,300.75 1428.6094,300.75 Q1427.0938,300.75 1425.8906,300.125 Q1424.9063,299.625 1424.2188,298.5547 Q1423.5313,297.4844 1423.5313,296.2031 L1423.5313,295.0469 Q1423.5313,293.7188 1424.1484,292.5703 Q1424.7656,291.4219 1425.8594,290.8047 Q1426.9531,290.1875 1428.1875,290.1875 Q1428.9219,290.1875 1429.5703,290.3516 Q1430.2188,290.5156 1430.7656,290.875 Z " fill="#000000"/><text fill="#000000" font-family="sans-serif" font-size="14" lengthAdjust="spacing" textLength="131" x="1442" y="300.7285">ComplaintRepository</text><line style="stroke:#181818;stroke-width:0.5;" x1="1414" x2="1575" y1="311" y2="311"/><line style="stroke:#181818;stroke-width:0.5;" x1="1414" x2="1575" y1="319" y2="319"/><text fill="#000000" font-family="sans-serif" font-size="14" lengthAdjust="spacing" textLength="89" x="1419" y="337.5332">+nextIdentity()</text><text fill="#000000" font-family="sans-serif" font-size="14" lengthAdjust="spacing" textLength="108" x="1419" y="355.1426">+save(complaint)</text></g><!--class Repositories--><g id="elem_Repositories"><rect codeLine="75" fill="#F1F1F1" height="171.2656" id="Repositories" rx="2.5" ry="2.5" style="stroke:#181818;stroke-width:0.5;" width="221" x="1019" y="21"/><ellipse cx="1085.75" cy="37" fill="#ADD1B2" rx="11" ry="11" style="stroke:#181818;stroke-width:1.0;"/><path d="M1088.5156,32.875 Q1088.6719,32.6563 1088.8594,32.5469 Q1089.0469,32.4375 1089.2656,32.4375 Q1089.6406,32.4375 1089.875,32.6953 Q1090.1094,32.9531 1090.1094,33.5625 L1090.1094,35.0156 Q1090.1094,35.625 1089.875,35.8906 Q1089.6406,36.1563 1089.2656,36.1563 Q1088.9219,36.1563 1088.7188,35.9531 Q1088.5156,35.7656 1088.4063,35.25 Q1088.3594,34.8906 1088.1719,34.7031 Q1087.8438,34.3281 1087.2344,34.1094 Q1086.625,33.8906 1086,33.8906 Q1085.2344,33.8906 1084.6016,34.2188 Q1083.9688,34.5469 1083.4766,35.2969 Q1082.9844,36.0469 1082.9844,37.0781 L1082.9844,38.1719 Q1082.9844,39.4063 1083.875,40.2266 Q1084.7656,41.0469 1086.3594,41.0469 Q1087.2969,41.0469 1087.9531,40.7969 Q1088.3438,40.6406 1088.7656,40.2031 Q1089.0313,39.9375 1089.1797,39.8594 Q1089.3281,39.7813 1089.5313,39.7813 Q1089.8594,39.7813 1090.1172,40.0391 Q1090.375,40.2969 1090.375,40.6406 Q1090.375,40.9844 1090.0313,41.3906 Q1089.5313,41.9688 1088.7344,42.2969 Q1087.6563,42.75 1086.3594,42.75 Q1084.8438,42.75 1083.6406,42.125 Q1082.6563,41.625 1081.9688,40.5547 Q1081.2813,39.4844 1081.2813,38.2031 L1081.2813,37.0469 Q1081.2813,35.7188 1081.8984,34.5703 Q1082.5156,33.4219 1083.6094,32.8047 Q1084.7031,32.1875 1085.9375,32.1875 Q1086.6719,32.1875 1087.3203,32.3516 Q1087.9688,32.5156 1088.5156,32.875 Z " fill="#000000"/><text fill="#000000" font-family="sans-serif" font-size="14" lengthAdjust="spacing" textLength="79" x="1106.25" y="42.7285">Repositories</text><line style="stroke:#181818;stroke-width:0.5;" x1="1020" x2="1239" y1="53" y2="53"/><line style="stroke:#181818;stroke-width:0.5;" x1="1020" x2="1239" y1="61" y2="61"/><text fill="#000000" font-family="sans-serif" font-size="14" lengthAdjust="spacing" textLength="94" x="1025" y="79.5332">-Repositories()</text><text fill="#000000" font-family="sans-serif" font-size="14" lengthAdjust="spacing" text-decoration="underline" textLength="91" x="1025" y="97.1426">+getInstance()</text><text fill="#000000" font-family="sans-serif" font-size="14" lengthAdjust="spacing" textLength="135" x="1025" y="114.752">+getUserRepository()</text><text fill="#000000" font-family="sans-serif" font-size="14" lengthAdjust="spacing" textLength="191" x="1025" y="132.3613">+getPoliticalAgentRepository()</text><text fill="#000000" font-family="sans-serif" font-size="14" lengthAdjust="spacing" textLength="135" x="1025" y="149.9707">+getRoleRepository()</text><text fill="#000000" font-family="sans-serif" font-size="14" lengthAdjust="spacing" textLength="209" x="1025" y="167.5801">+getPoliticalMandateRepository()</text><text fill="#000000" font-family="sans-serif" font-size="14" lengthAdjust="spacing" textLength="169" x="1025" y="185.1895">+getComplaintRepository()</text></g><!--class SubmitComplaintController--><g id="elem_SubmitComplaintController"><rect codeLine="85" fill="#F1F1F1" height="153.6563" id="SubmitComplaintController" rx="2.5" ry="2.5" style="stroke:#181818;stroke-width:0.5;" width="413" x="331" y="29.5"/><ellipse cx="449.25" cy="45.5" fill="#ADD1B2" rx="11" ry="11" style="stroke:#181818;stroke-width:1.0;"/><path d="M452.0156,41.375 Q452.1719,41.1563 452.3594,41.0469 Q452.5469,40.9375 452.7656,40.9375 Q453.1406,40.9375 453.375,41.1953 Q453.6094,41.4531 453.6094,42.0625 L453.6094,43.5156 Q453.6094,44.125 453.375,44.3906 Q453.1406,44.6563 452.7656,44.6563 Q452.4219,44.6563 452.2188,44.4531 Q452.0156,44.2656 451.9063,43.75 Q451.8594,43.3906 451.6719,43.2031 Q451.3438,42.8281 450.7344,42.6094 Q450.125,42.3906 449.5,42.3906 Q448.7344,42.3906 448.1016,42.7188 Q447.4688,43.0469 446.9766,43.7969 Q446.4844,44.5469 446.4844,45.5781 L446.4844,46.6719 Q446.4844,47.9063 447.375,48.7266 Q448.2656,49.5469 449.8594,49.5469 Q450.7969,49.5469 451.4531,49.2969 Q451.8438,49.1406 452.2656,48.7031 Q452.5313,48.4375 452.6797,48.3594 Q452.8281,48.2813 453.0313,48.2813 Q453.3594,48.2813 453.6172,48.5391 Q453.875,48.7969 453.875,49.1406 Q453.875,49.4844 453.5313,49.8906 Q453.0313,50.4688 452.2344,50.7969 Q451.1563,51.25 449.8594,51.25 Q448.3438,51.25 447.1406,50.625 Q446.1563,50.125 445.4688,49.0547 Q444.7813,47.9844 444.7813,46.7031 L444.7813,45.5469 Q444.7813,44.2188 445.3984,43.0703 Q446.0156,41.9219 447.1094,41.3047 Q448.2031,40.6875 449.4375,40.6875 Q450.1719,40.6875 450.8203,40.8516 Q451.4688,41.0156 452.0156,41.375 Z " fill="#000000"/><text fill="#000000" font-family="sans-serif" font-size="14" lengthAdjust="spacing" textLength="168" x="469.75" y="51.2285">SubmitComplaintController</text><line style="stroke:#181818;stroke-width:0.5;" x1="332" x2="743" y1="61.5" y2="61.5"/><line style="stroke:#181818;stroke-width:0.5;" x1="332" x2="743" y1="69.5" y2="69.5"/><text fill="#000000" font-family="sans-serif" font-size="14" lengthAdjust="spacing" textLength="186" x="337" y="88.0332">+SubmitComplaintController()</text><text fill="#000000" font-family="sans-serif" font-size="14" lengthAdjust="spacing" textLength="130" x="337" y="105.6426">+getPoliticalAgents()</text><text fill="#000000" font-family="sans-serif" font-size="14" lengthAdjust="spacing" textLength="74" x="337" y="123.252">+getRoles()</text><text fill="#000000" font-family="sans-serif" font-size="14" lengthAdjust="spacing" textLength="401" x="337" y="140.8613">+createComplaint(politicalAgent, role, incidentDate, description)</text><text fill="#000000" font-family="sans-serif" font-size="14" lengthAdjust="spacing" textLength="160" x="337" y="158.4707">-getCitizenFromSession()</text><text fill="#000000" font-family="sans-serif" font-size="14" lengthAdjust="spacing" textLength="222" x="337" y="176.0801">-validateIncidentDate(incidentDate)</text></g><!--class SubmitComplaintUI--><g id="elem_SubmitComplaintUI"><rect codeLine="94" fill="#F1F1F1" height="48" id="SubmitComplaintUI" rx="2.5" ry="2.5" style="stroke:#181818;stroke-width:0.5;" width="150" x="145.5" y="82.5"/><ellipse cx="160.5" cy="98.5" fill="#ADD1B2" rx="11" ry="11" style="stroke:#181818;stroke-width:1.0;"/><path d="M163.2656,94.375 Q163.4219,94.1563 163.6094,94.0469 Q163.7969,93.9375 164.0156,93.9375 Q164.3906,93.9375 164.625,94.1953 Q164.8594,94.4531 164.8594,95.0625 L164.8594,96.5156 Q164.8594,97.125 164.625,97.3906 Q164.3906,97.6563 164.0156,97.6563 Q163.6719,97.6563 163.4688,97.4531 Q163.2656,97.2656 163.1563,96.75 Q163.1094,96.3906 162.9219,96.2031 Q162.5938,95.8281 161.9844,95.6094 Q161.375,95.3906 160.75,95.3906 Q159.9844,95.3906 159.3516,95.7188 Q158.7188,96.0469 158.2266,96.7969 Q157.7344,97.5469 157.7344,98.5781 L157.7344,99.6719 Q157.7344,100.9063 158.625,101.7266 Q159.5156,102.5469 161.1094,102.5469 Q162.0469,102.5469 162.7031,102.2969 Q163.0938,102.1406 163.5156,101.7031 Q163.7813,101.4375 163.9297,101.3594 Q164.0781,101.2813 164.2813,101.2813 Q164.6094,101.2813 164.8672,101.5391 Q165.125,101.7969 165.125,102.1406 Q165.125,102.4844 164.7813,102.8906 Q164.2813,103.4688 163.4844,103.7969 Q162.4063,104.25 161.1094,104.25 Q159.5938,104.25 158.3906,103.625 Q157.4063,103.125 156.7188,102.0547 Q156.0313,100.9844 156.0313,99.7031 L156.0313,98.5469 Q156.0313,97.2188 156.6484,96.0703 Q157.2656,94.9219 158.3594,94.3047 Q159.4531,93.6875 160.6875,93.6875 Q161.4219,93.6875 162.0703,93.8516 Q162.7188,94.0156 163.2656,94.375 Z " fill="#000000"/><text fill="#000000" font-family="sans-serif" font-size="14" lengthAdjust="spacing" textLength="118" x="174.5" y="104.2285">SubmitComplaintUI</text><line style="stroke:#181818;stroke-width:0.5;" x1="146.5" x2="294.5" y1="114.5" y2="114.5"/><line style="stroke:#181818;stroke-width:0.5;" x1="146.5" x2="294.5" y1="122.5" y2="122.5"/></g><g id="elem_GMN18"><path d="M779.5,85 L779.5,127.7031 L983.5,127.7031 L983.5,95 L973.5,85 L779.5,85 " fill="#FEFFDD" style="stroke:#181818;stroke-width:0.5;"/><path d="M973.5,85 L973.5,95 L983.5,95 L973.5,85 " fill="#FEFFDD" style="stroke:#181818;stroke-width:1.0;"/><text fill="#000000" font-family="sans-serif" font-size="13" lengthAdjust="spacing" textLength="83" x="785.5" y="103.4951">Business rule:</text><text fill="#000000" font-family="sans-serif" font-size="13" lengthAdjust="spacing" textLength="183" x="785.5" y="119.8467">incidentDate must be &lt;= today.</text></g><!--link SubmitComplaintController to GMN18--><g id="link_SubmitComplaintController_GMN18"><path d="M744.18,106.5 C757.51,106.5 766.83,106.5 766.83,106.5 C766.83,106.5 771.56,106.5 779.1,106.5 " fill="none" id="SubmitComplaintController-GMN18" style="stroke:#181818;stroke-width:1.0;stroke-dasharray:7.0,7.0;"/></g><!--link SubmitComplaintUI to SubmitComplaintController--><g id="link_SubmitComplaintUI_SubmitComplaintController"><path codeLine="102" d="M295.6,106.5 C312.81,106.5 326.17,106.5 326.17,106.5 C326.17,106.5 321.92,106.5 324.98,106.5 " fill="none" id="SubmitComplaintUI-to-SubmitComplaintController" style="stroke:#181818;stroke-width:1.0;stroke-dasharray:7.0,7.0;"/><polygon fill="#181818" points="330.98,106.5,321.98,102.5,325.98,106.5,321.98,110.5,330.98,106.5" style="stroke:#181818;stroke-width:1.0;"/></g><!--link SubmitComplaintController to Repositories--><g id="link_SubmitComplaintController_Repositories"><path codeLine="103" d="M722.68,29.44 C755.27,15.88 779,6 779,6 C779,6 983,6 983,6 C983,6 993.262,13.0462 1013.892,27.1962 " fill="none" id="SubmitComplaintController-to-Repositories" style="stroke:#181818;stroke-width:1.0;stroke-dasharray:7.0,7.0;"/><polygon fill="#181818" points="1018.84,30.59,1013.6806,22.2007,1014.7167,27.7619,1009.1555,28.798,1018.84,30.59" style="stroke:#181818;stroke-width:1.0;"/></g><!--link SubmitComplaintController to ApplicationSession--><g id="link_SubmitComplaintController_ApplicationSession"><path codeLine="105" d="M398.25,183.59 C339.89,215.47 279.5953,248.4131 230.4353,275.2731 " fill="none" id="SubmitComplaintController-to-ApplicationSession" style="stroke:#181818;stroke-width:1.0;stroke-dasharray:7.0,7.0;"/><polygon fill="#181818" points="225.17,278.15,234.9859,277.3449,229.5578,275.7526,231.1501,270.3245,225.17,278.15" style="stroke:#181818;stroke-width:1.0;"/></g><!--link SubmitComplaintController to UserSession--><g id="link_SubmitComplaintController_UserSession"><path codeLine="106" d="M334.9,183.59 C321.08,188.78 312.5,192 312.5,192 C312.5,192 56.5,270 56.5,270 C56.5,270 56.5,371 56.5,371 C56.5,371 59.5896,435.107 61.6596,477.827 " fill="none" id="SubmitComplaintController-to-UserSession" style="stroke:#181818;stroke-width:1.0;stroke-dasharray:7.0,7.0;"/><polygon fill="#181818" points="61.95,483.82,65.5097,474.637,61.708,478.8259,57.5191,475.0241,61.95,483.82" style="stroke:#181818;stroke-width:1.0;"/></g><!--link SubmitComplaintController to UserRepository--><g id="link_SubmitComplaintController_UserRepository"><path codeLine="107" d="M739.2,183.59 C752.96,188.78 761.5,192 761.5,192 C761.5,192 915.5,240 915.5,240 C915.5,240 1021.5,270 1021.5,270 C1021.5,270 1032.902,275.3833 1053.092,284.8933 " fill="none" id="SubmitComplaintController-to-UserRepository" style="stroke:#181818;stroke-width:1.0;stroke-dasharray:7.0,7.0;"/><polygon fill="#181818" points="1058.52,287.45,1052.0825,279.9962,1053.9967,285.3194,1048.6735,287.2336,1058.52,287.45" style="stroke:#181818;stroke-width:1.0;"/></g><!--link SubmitComplaintController to PoliticalAgentRepository--><g id="link_SubmitComplaintController_PoliticalAgentRepository"><path codeLine="108" d="M499.38,183.74 C481.58,219.35 464.0133,254.4734 450.3033,281.8934 " fill="none" id="SubmitComplaintController-to-PoliticalAgentRepository" style="stroke:#181818;stroke-width:1.0;stroke-dasharray:7.0,7.0;"/><polygon fill="#181818" points="447.62,287.26,455.2226,280.999,449.8561,282.7879,448.0672,277.4213,447.62,287.26" style="stroke:#181818;stroke-width:1.0;"/></g><!--link SubmitComplaintController to RoleRepository--><g id="link_SubmitComplaintController_RoleRepository"><path codeLine="109" d="M739.2,183.59 C752.96,188.78 761.5,192 761.5,192 C761.5,192 1044.5,222 1044.5,222 C1044.5,222 1231.5,270 1231.5,270 C1231.5,270 1239.3829,274.76 1255.0429,284.21 " fill="none" id="SubmitComplaintController-to-RoleRepository" style="stroke:#181818;stroke-width:1.0;stroke-dasharray:7.0,7.0;"/><polygon fill="#181818" points="1260.18,287.31,1254.541,279.2353,1255.8991,284.7267,1250.4077,286.0848,1260.18,287.31" style="stroke:#181818;stroke-width:1.0;"/></g><!--link SubmitComplaintController to PoliticalMandateRepository--><g id="link_SubmitComplaintController_PoliticalMandateRepository"><path codeLine="110" d="M557.66,183.81 C565.44,213.26 572.5,240 572.5,240 C572.5,240 633.4819,263.197 691.4819,285.257 " fill="none" id="SubmitComplaintController-to-PoliticalMandateRepository" style="stroke:#181818;stroke-width:1.0;stroke-dasharray:7.0,7.0;"/><polygon fill="#181818" points="697.09,287.39,690.0999,280.4518,692.4166,285.6125,687.2559,287.9292,697.09,287.39" style="stroke:#181818;stroke-width:1.0;"/></g><!--link SubmitComplaintController to ComplaintRepository--><g id="link_SubmitComplaintController_ComplaintRepository"><path codeLine="111" d="M739.2,183.59 C752.96,188.78 761.5,192 761.5,192 C761.5,192 1225.5,222 1225.5,222 C1225.5,222 1270.5,240 1270.5,240 C1270.5,240 1395.5,270 1395.5,270 C1395.5,270 1397.3224,270.9188 1407.8324,276.1688 " fill="none" id="SubmitComplaintController-to-ComplaintRepository" style="stroke:#181818;stroke-width:1.0;stroke-dasharray:7.0,7.0;"/><polygon fill="#181818" points="1413.2,278.85,1406.9361,271.2498,1408.727,276.6156,1403.3611,278.4065,1413.2,278.85" style="stroke:#181818;stroke-width:1.0;"/></g><!--link Repositories to Repositories--><g id="link_Repositories_Repositories"><path codeLine="113" d="M1240.21,84.48 C1260.64,87.23 1275,94.57 1275,106.5 C1275,118.43 1266.5864,124.9696 1246.1564,127.7196 " fill="none" id="Repositories-to-Repositories" style="stroke:#181818;stroke-width:1.0;"/><polygon fill="#181818" points="1240.21,128.52,1249.6632,131.2836,1245.1653,127.853,1248.5959,123.3551,1240.21,128.52" style="stroke:#181818;stroke-width:1.0;"/><text fill="#000000" font-family="sans-serif" font-size="13" lengthAdjust="spacing" textLength="49" x="1281" y="111.9951">instance</text><text fill="#000000" font-family="sans-serif" font-size="13" lengthAdjust="spacing" textLength="7" x="1247.8835" y="126.96">1</text></g><!--link Repositories to UserRepository--><g id="link_Repositories_UserRepository"><path codeLine="114" d="M1128.3,192.2 C1127.83,225.65 1127.3931,256.0506 1127.0431,281.3206 " fill="none" id="Repositories-to-UserRepository" style="stroke:#181818;stroke-width:1.0;"/><polygon fill="#181818" points="1126.96,287.32,1131.0843,278.3763,1127.0292,282.3205,1123.085,278.2655,1126.96,287.32" style="stroke:#181818;stroke-width:1.0;"/><text fill="#000000" font-family="sans-serif" font-size="13" lengthAdjust="spacing" textLength="87" x="1129.5" y="236.4951">userRepository</text><text fill="#000000" font-family="sans-serif" font-size="13" lengthAdjust="spacing" textLength="7" x="1119.333" y="276.3983">1</text></g><!--link Repositories to PoliticalAgentRepository--><g id="link_Repositories_PoliticalAgentRepository"><path codeLine="115" d="M1018.98,179.89 C1007.82,187.2 1000.5,192 1000.5,192 C1000.5,192 773.5,222 773.5,222 C773.5,222 541.5,270 541.5,270 C541.5,270 529.3423,275.4794 508.1923,284.9894 " fill="none" id="Repositories-to-PoliticalAgentRepository" style="stroke:#181818;stroke-width:1.0;"/><polygon fill="#181818" points="502.72,287.45,512.5688,287.4073,507.2802,285.3995,509.288,280.111,502.72,287.45" style="stroke:#181818;stroke-width:1.0;"/><text fill="#000000" font-family="sans-serif" font-size="13" lengthAdjust="spacing" textLength="140" x="774.5" y="236.4951">politicalAgentRepository</text><text fill="#000000" font-family="sans-serif" font-size="13" lengthAdjust="spacing" textLength="7" x="509.6873" y="276.5551">1</text></g><!--link Repositories to RoleRepository--><g id="link_Repositories_RoleRepository"><path codeLine="116" d="M1203.01,192.2 C1232.04,225.65 1259.6964,257.5194 1281.6364,282.7894 " fill="none" id="Repositories-to-RoleRepository" style="stroke:#181818;stroke-width:1.0;"/><polygon fill="#181818" points="1285.57,287.32,1282.69,277.9016,1282.292,283.5445,1276.6492,283.1464,1285.57,287.32" style="stroke:#181818;stroke-width:1.0;"/><text fill="#000000" font-family="sans-serif" font-size="13" lengthAdjust="spacing" textLength="83" x="1244.5" y="236.4951">roleRepository</text><text fill="#000000" font-family="sans-serif" font-size="13" lengthAdjust="spacing" textLength="7" x="1272.0876" y="276.3983">1</text></g><!--link Repositories to PoliticalMandateRepository--><g id="link_Repositories_PoliticalMandateRepository"><path codeLine="117" d="M1018.98,179.89 C1007.82,187.2 1000.5,192 1000.5,192 C1000.5,192 906.5351,246.701 841.6651,284.471 " fill="none" id="Repositories-to-PoliticalMandateRepository" style="stroke:#181818;stroke-width:1.0;"/><polygon fill="#181818" points="836.48,287.49,846.2704,286.4183,840.8009,284.9742,842.245,279.5047,836.48,287.49" style="stroke:#181818;stroke-width:1.0;"/><text fill="#000000" font-family="sans-serif" font-size="13" lengthAdjust="spacing" textLength="156" x="949.5" y="236.4951">politicalMandateRepository</text><text fill="#000000" font-family="sans-serif" font-size="13" lengthAdjust="spacing" textLength="7" x="840.0978" y="276.6033">1</text></g><!--link Repositories to ComplaintRepository--><g id="link_Repositories_ComplaintRepository"><path codeLine="118" d="M1240.27,168.77 C1289.49,196 1336.5,222 1336.5,222 C1336.5,222 1380.3541,249.0589 1423.7641,275.8489 " fill="none" id="Repositories-to-ComplaintRepository" style="stroke:#181818;stroke-width:1.0;"/><polygon fill="#181818" points="1428.87,279,1423.3118,270.8694,1424.615,276.3741,1419.1104,277.6773,1428.87,279" style="stroke:#181818;stroke-width:1.0;"/><text fill="#000000" font-family="sans-serif" font-size="13" lengthAdjust="spacing" textLength="118" x="1364.5" y="236.4951">complaintRepository</text><text fill="#000000" font-family="sans-serif" font-size="13" lengthAdjust="spacing" textLength="7" x="1409.9883" y="267.9987">1</text></g><!--link ApplicationSession to ApplicationSession--><g id="link_ApplicationSession_ApplicationSession"><path codeLine="120" d="M225.16,304.16 C245,305.13 260,310.57 260,320.5 C260,330.43 250.9928,335.577 231.1528,336.547 " fill="none" id="ApplicationSession-to-ApplicationSession" style="stroke:#181818;stroke-width:1.0;"/><polygon fill="#181818" points="225.16,336.84,234.3446,340.3957,230.154,336.5958,233.9539,332.4053,225.16,336.84" style="stroke:#181818;stroke-width:1.0;"/><text fill="#000000" font-family="sans-serif" font-size="13" lengthAdjust="spacing" textLength="49" x="266" y="325.9951">instance</text><text fill="#000000" font-family="sans-serif" font-size="13" lengthAdjust="spacing" textLength="7" x="232.9523" y="335.1818">1</text></g><!--link ApplicationSession to UserSession--><g id="link_ApplicationSession_UserSession"><path codeLine="121" d="M127.58,371.08 C111.9,406.54 93.6862,447.7324 80.1262,478.4024 " fill="none" id="ApplicationSession-to-UserSession" style="stroke:#181818;stroke-width:1.0;stroke-dasharray:7.0,7.0;"/><polygon fill="#181818" points="77.7,483.89,84.9977,477.2761,79.7218,479.317,77.6809,474.0412,77.7,483.89" style="stroke:#181818;stroke-width:1.0;"/></g><!--link PoliticalAgentRepository to PoliticalAgent--><g id="link_PoliticalAgentRepository_PoliticalAgent"><path codeLine="123" d="M443.77,353.53 C467.18,414.59 515.993,541.9673 541.763,609.2173 " fill="none" id="PoliticalAgentRepository-to-PoliticalAgent" style="stroke:#181818;stroke-width:1.0;"/><polygon fill="#181818" points="543.91,614.82,544.4247,604.9846,542.1209,610.1511,536.9544,607.8472,543.91,614.82" style="stroke:#181818;stroke-width:1.0;"/><text fill="#000000" font-family="sans-serif" font-size="13" lengthAdjust="spacing" textLength="85" x="470.5" y="415.4951">politicalAgents</text><text fill="#000000" font-family="sans-serif" font-size="13" lengthAdjust="spacing" textLength="5" x="535.9138" y="604.0979">*</text></g><!--link RoleRepository to Role--><g id="link_RoleRepository_Role"><path codeLine="124" d="M1317.79,353.62 C1325.18,408.86 1339.5,516 1339.5,516 C1339.5,516 1339.5,516 1339.5,993.5 C1339.5,993.5 1225.3649,1070.971 1156.7349,1117.541 " fill="none" id="RoleRepository-to-Role" style="stroke:#181818;stroke-width:1.0;"/><polygon fill="#181818" points="1151.77,1120.91,1161.4633,1119.1664,1155.9074,1118.1025,1156.9713,1112.5466,1151.77,1120.91" style="stroke:#181818;stroke-width:1.0;"/><text fill="#000000" font-family="sans-serif" font-size="13" lengthAdjust="spacing" textLength="28" x="1340.5" y="801.4951">roles</text><text fill="#000000" font-family="sans-serif" font-size="13" lengthAdjust="spacing" textLength="5" x="1156.0038" y="1110.0068">*</text></g><!--link UserRepository to Citizen--><g id="link_UserRepository_Citizen"><path codeLine="125" d="M1113.29,353.62 C1102.68,379.41 1089.7129,410.9513 1076.4529,443.1813 " fill="none" id="UserRepository-to-Citizen" style="stroke:#181818;stroke-width:1.0;"/><polygon fill="#181818" points="1074.17,448.73,1081.2934,441.9288,1076.0724,444.106,1073.8951,438.885,1074.17,448.73" style="stroke:#181818;stroke-width:1.0;"/><text fill="#000000" font-family="sans-serif" font-size="13" lengthAdjust="spacing" textLength="45" x="1095.5" y="415.4951">citizens</text><text fill="#000000" font-family="sans-serif" font-size="13" lengthAdjust="spacing" textLength="5" x="1071.7657" y="438.3755">*</text></g><!--link PoliticalMandateRepository to PoliticalMandate--><g id="link_PoliticalMandateRepository_PoliticalMandate"><path codeLine="126" d="M781.69,353.82 C782.35,464.52 784.4942,822.3701 785.2242,944.8501 " fill="none" id="PoliticalMandateRepository-to-PoliticalMandate" style="stroke:#181818;stroke-width:1.0;"/><polygon fill="#181818" points="785.26,950.85,789.2063,941.8263,785.2302,945.8501,781.2064,941.874,785.26,950.85" style="stroke:#181818;stroke-width:1.0;"/><text fill="#000000" font-family="sans-serif" font-size="13" lengthAdjust="spacing" textLength="57" x="785.5" y="661.9951">mandates</text><text fill="#000000" font-family="sans-serif" font-size="13" lengthAdjust="spacing" textLength="5" x="779.8062" y="940.1328">*</text></g><!--link PoliticalAgent to PoliticalMandate--><g id="link_PoliticalAgent_PoliticalMandate"><path codeLine="128" d="M581.03,698.3 C612.8,758.48 668.5,864 668.5,864 C668.5,864 709.8637,909.0688 744.1037,946.3888 " fill="none" id="PoliticalAgent-to-PoliticalMandate" style="stroke:#181818;stroke-width:1.0;"/><polygon fill="#181818" points="748.16,950.81,745.023,941.4741,744.7798,947.1257,739.1281,946.8825,748.16,950.81" style="stroke:#181818;stroke-width:1.0;"/><text fill="#000000" font-family="sans-serif" font-size="13" lengthAdjust="spacing" textLength="57" x="669.5" y="801.4951">mandates</text><text fill="#000000" font-family="sans-serif" font-size="13" lengthAdjust="spacing" textLength="7" x="576.9035" y="719.7426">1</text><text fill="#000000" font-family="sans-serif" font-size="13" lengthAdjust="spacing" textLength="20" x="720.3193" y="940.0862">0..*</text></g><!--link PoliticalMandate to Role--><g id="link_PoliticalMandate_Role"><path codeLine="129" d="M861.1,1031.3 C915.73,1058.61 983.3434,1092.4267 1035.1034,1118.3067 " fill="none" id="PoliticalMandate-to-Role" style="stroke:#181818;stroke-width:1.0;"/><polygon fill="#181818" points="1040.47,1120.99,1034.209,1113.3874,1035.9979,1118.7539,1030.6313,1120.5428,1040.47,1120.99" style="stroke:#181818;stroke-width:1.0;"/><text fill="#000000" font-family="sans-serif" font-size="13" lengthAdjust="spacing" textLength="21" x="975.5" y="1087.4951">role</text><text fill="#000000" font-family="sans-serif" font-size="13" lengthAdjust="spacing" textLength="5" x="869.1541" y="1031.9782">*</text><text fill="#000000" font-family="sans-serif" font-size="13" lengthAdjust="spacing" textLength="7" x="1020.175" y="1110.4843">1</text></g><!--link Citizen to Complaint--><g id="link_Citizen_Complaint"><path codeLine="131" d="M1037.3,585.05 C1031.37,628.29 1024.5056,678.3657 1018.5656,721.6557 " fill="none" id="Citizen-to-Complaint" style="stroke:#181818;stroke-width:1.0;"/><polygon fill="#181818" points="1017.75,727.6,1022.9363,719.2273,1018.4297,722.6464,1015.0106,718.1398,1017.75,727.6" style="stroke:#181818;stroke-width:1.0;"/><text fill="#000000" font-family="sans-serif" font-size="13" lengthAdjust="spacing" textLength="63" x="1034.5" y="661.9951">complaints</text><text fill="#000000" font-family="sans-serif" font-size="13" lengthAdjust="spacing" textLength="7" x="1028.9903" y="606.4035">1</text><text fill="#000000" font-family="sans-serif" font-size="13" lengthAdjust="spacing" textLength="20" x="997.6727" y="717.2321">0..*</text></g><!--link Complaint to ComplaintStatus--><g id="link_Complaint_ComplaintStatus"><path codeLine="132" d="M1008.5,864.21 C1008.5,889.68 1008.5,912.21 1008.5,935.79 " fill="none" id="Complaint-to-ComplaintStatus" style="stroke:#181818;stroke-width:1.0;"/><polygon fill="#181818" points="1008.5,941.79,1012.5,932.79,1008.5,936.79,1004.5,932.79,1008.5,941.79" style="stroke:#181818;stroke-width:1.0;"/><text fill="#000000" font-family="sans-serif" font-size="13" lengthAdjust="spacing" textLength="36" x="1009.5" y="908.4951">status</text><text fill="#000000" font-family="sans-serif" font-size="13" lengthAdjust="spacing" textLength="7" x="1001.0078" y="931.0658">1</text></g><!--link Complaint to PoliticalMandate--><g id="link_Complaint_PoliticalMandate"><path codeLine="133" d="M931.44,864.21 C898.33,893.09 865.2515,921.9359 836.5115,947.0059 " fill="none" id="Complaint-to-PoliticalMandate" style="stroke:#181818;stroke-width:1.0;"/><polygon fill="#181818" points="831.99,950.95,841.4017,948.0482,835.7579,947.6632,836.1428,942.0195,831.99,950.95" style="stroke:#181818;stroke-width:1.0;"/><text fill="#000000" font-family="sans-serif" font-size="13" lengthAdjust="spacing" textLength="43" x="898.5" y="908.4951">context</text><text fill="#000000" font-family="sans-serif" font-size="13" lengthAdjust="spacing" textLength="7" x="832.1102" y="940.2494">1</text></g><!--SRC=[bLTRJzim57xthx1uWWqgzXfjI6tff4YmeOQonyaa9bWaJcGxZ0pnttVYt6p7QJjUY7tkttTyxCeNnaiYI8vB4h-Gb4QgpYWMD5Q4fnb5Sb2GpoGf_Z2UuYUIILEICKvLNL9S5bdTB0nPd14fbqe9zbWf6iO5ZzXVYYyHehpAyRh8oummhY95L2NnEyBm5-rMj-7z_UPQhtO_hZVRtzlDGxZvfJVMDpyZa7qWfBtZPLbcB2QAWNCg9Vph_5nuHATdMlGPlqi8oU8Fd58LSbZmc0v2s5jNGb18R30Rukqa5NOWRT1iRtB2CbDtpHJKEoR4IKvnW2C0XAVTdY9lOU9kqiRJkDc5aTLZpjI0sYaW3W5YajqIdX15pp7ZCKiWxskzIgYC1IkR-iznt9k5oLaNXIJ9w6oG6_dVzG6MAJZzdp865zi2EgetX8HOoZKX7jKxfvp13EWHkYGmkYb0eVdkaUB9H3BYtzSqk68Jg4t8FFurvfhj6GK3v0bX8xeisKkEowJJRrjQ5fAfGjHcotNTjQhRljCzCqkUtuMj8ytUROZp6pKIIzKbpc_M2LTrcmyuMRRSZNsi9UTOWCo6wyp3gISAfs_Gtc33L3sSPabUgRUx1mUCog51pCsZfuNDaIcP8y7KiP7sMa-0jMRL516JdSYU6kk2Am0uesA0RLPZlXBf5Z1kn892gfufDSkkTHZwuJGs-7THvFRyli2l96CD8g7XvdIcOvpoTY4K3a9Um7aMB7rMk7YQnq07N5KIRZRm9QgC1dhBcXjv9HL-fFZhDwoAXDGBkE0It4H0Q1f-SRKdt3nTO6Ps9zgd2hhJs- -0WN6p7Q4vDji1vRaZSC3CFXN7nfWSb0E6dhE3a3KOBgxmoPSJUrW4m7ux1HpTJjcPsG6kRC2yHhFpEi3b78HUHyxa3lI9EphwT8O7a-lfa3FVZ0x65uY9jUVvrZdnI0pSFLAtXz4ieZhFJoxa4w0bSg3ixVIZfiLL8eViNgT_-q7TxPT4Up2UPDI_WGASjr_IhKU3fEqk5ui3fXDP4ylibwuQXFgq7UVZIyhWKQ9nUq9zzwOFcjSRV7XKFGd3BmG5TpZw1m00]--></g></svg>