<?xml version="1.0" encoding="us-ascii" standalone="no"?><svg xmlns="http://www.w3.org/2000/svg" xmlns:xlink="http://www.w3.org/1999/xlink" contentStyleType="text/css" height="855px" preserveAspectRatio="none" style="width:1657px;height:855px;background:#FFFFFF;" version="1.1" viewBox="0 0 1657 855" width="1657px" zoomAndPan="magnify"><defs/><g><rect fill="#FFFFFF" height="695.25" style="stroke:#181818;stroke-width:1.0;" width="10" x="390" y="87.5703"/><rect fill="#FFFFFF" height="41.3516" style="stroke:#181818;stroke-width:1.0;" width="10" x="395" y="151.2734"/><rect fill="#FFFFFF" height="30.3516" style="stroke:#181818;stroke-width:1.0;" width="10" x="631" y="229.9766"/><rect fill="#FFFFFF" height="30.3516" style="stroke:#181818;stroke-width:1.0;" width="10" x="631" y="412.0859"/><rect fill="#FFFFFF" height="30.3516" style="stroke:#181818;stroke-width:1.0;" width="10" x="736" y="290.6797"/><rect fill="#FFFFFF" height="30.3516" style="stroke:#181818;stroke-width:1.0;" width="10" x="736" y="472.7891"/><rect fill="#FFFFFF" height="30.3516" style="stroke:#181818;stroke-width:1.0;" width="10" x="888.5" y="351.3828"/><rect fill="#FFFFFF" height="30.3516" style="stroke:#181818;stroke-width:1.0;" width="10" x="1065.5" y="533.4922"/><rect fill="#FFFFFF" height="30.3516" style="stroke:#181818;stroke-width:1.0;" width="10" x="1065.5" y="715.1172"/><rect fill="#FFFFFF" height="90.5703" style="stroke:#181818;stroke-width:1.0;" width="10" x="1178.5" y="594.1953"/><rect fill="none" height="650.8984" style="stroke:#000000;stroke-width:1.5;" width="1359.5" x="292" y="102.5703"/><line style="stroke:#181818;stroke-width:0.5;stroke-dasharray:5.0,5.0;" x1="395" x2="395" y1="55.2188" y2="800.8203"/><line style="stroke:#181818;stroke-width:0.5;stroke-dasharray:5.0,5.0;" x1="635.5" x2="635.5" y1="55.2188" y2="800.8203"/><line style="stroke:#181818;stroke-width:0.5;stroke-dasharray:5.0,5.0;" x1="740.5" x2="740.5" y1="55.2188" y2="800.8203"/><line style="stroke:#181818;stroke-width:0.5;stroke-dasharray:5.0,5.0;" x1="893.5" x2="893.5" y1="55.2188" y2="800.8203"/><line style="stroke:#181818;stroke-width:0.5;stroke-dasharray:5.0,5.0;" x1="1070.5" x2="1070.5" y1="55.2188" y2="800.8203"/><line style="stroke:#181818;stroke-width:0.5;stroke-dasharray:5.0,5.0;" x1="1183.5" x2="1183.5" y1="55.2188" y2="800.8203"/><line style="stroke:#181818;stroke-width:0.5;stroke-dasharray:5.0,5.0;" x1="1600.5" x2="1600.5" y1="642.3047" y2="800.8203"/><rect fill="#E3E3E3" height="31.6094" rx="2.5" ry="2.5" style="stroke:#181818;stroke-width:0.5;" width="186" x="302" y="22.6094"/><text fill="#000000" font-family="sans-serif" font-size="14" lengthAdjust="spacing" textLength="172" x="309" y="44.1426">:SubmitComplaintController</text><rect fill="#E3E3E3" height="31.6094" rx="2.5" ry="2.5" style="stroke:#181818;stroke-width:0.5;" width="186" x="302" y="799.8203"/><text fill="#000000" font-family="sans-serif" font-size="14" lengthAdjust="spacing" textLength="172" x="309" y="821.3535">:SubmitComplaintController</text><rect fill="#E3E3E3" height="31.6094" rx="2.5" ry="2.5" style="stroke:#181818;stroke-width:0.5;" width="93" x="589.5" y="22.6094"/><text fill="#000000" font-family="sans-serif" font-size="14" lengthAdjust="spacing" textLength="79" x="596.5" y="44.1426">Repositories</text><rect fill="#E3E3E3" height="31.6094" rx="2.5" ry="2.5" style="stroke:#181818;stroke-width:0.5;" width="93" x="589.5" y="799.8203"/><text fill="#000000" font-family="sans-serif" font-size="14" lengthAdjust="spacing" textLength="79" x="596.5" y="821.3535">Repositories</text><rect fill="#E3E3E3" height="49.2188" rx="2.5" ry="2.5" style="stroke:#181818;stroke-width:0.5;" width="97" x="692.5" y="5"/><text fill="#000000" font-family="sans-serif" font-size="14" lengthAdjust="spacing" textLength="74" x="704" y="26.5332">repositories</text><text fill="#000000" font-family="sans-serif" font-size="14" lengthAdjust="spacing" textLength="83" x="699.5" y="44.1426">:Repositories</text><rect fill="#E3E3E3" height="49.2188" rx="2.5" ry="2.5" style="stroke:#181818;stroke-width:0.5;" width="97" x="692.5" y="799.8203"/><text fill="#000000" font-family="sans-serif" font-size="14" lengthAdjust="spacing" textLength="74" x="704" y="821.3535">repositories</text><text fill="#000000" font-family="sans-serif" font-size="14" lengthAdjust="spacing" textLength="83" x="699.5" y="838.9629">:Repositories</text><rect fill="#E3E3E3" height="49.2188" rx="2.5" ry="2.5" style="stroke:#181818;stroke-width:0.5;" width="188" x="799.5" y="5"/><text fill="#000000" font-family="sans-serif" font-size="14" lengthAdjust="spacing" textLength="174" x="806.5" y="26.5332">politicalMandateRepository:</text><text fill="#000000" font-family="sans-serif" font-size="14" lengthAdjust="spacing" textLength="171" x="808" y="44.1426">PoliticalMandateRepository</text><rect fill="#E3E3E3" height="49.2188" rx="2.5" ry="2.5" style="stroke:#181818;stroke-width:0.5;" width="188" x="799.5" y="799.8203"/><text fill="#000000" font-family="sans-serif" font-size="14" lengthAdjust="spacing" textLength="174" x="806.5" y="821.3535">politicalMandateRepository:</text><text fill="#000000" font-family="sans-serif" font-size="14" lengthAdjust="spacing" textLength="171" x="808" y="838.9629">PoliticalMandateRepository</text><rect fill="#E3E3E3" height="49.2188" rx="2.5" ry="2.5" style="stroke:#181818;stroke-width:0.5;" width="146" x="997.5" y="5"/><text fill="#000000" font-family="sans-serif" font-size="14" lengthAdjust="spacing" textLength="132" x="1004.5" y="26.5332">complaintRepository:</text><text fill="#000000" font-family="sans-serif" font-size="14" lengthAdjust="spacing" textLength="131" x="1005" y="44.1426">ComplaintRepository</text><rect fill="#E3E3E3" height="49.2188" rx="2.5" ry="2.5" style="stroke:#181818;stroke-width:0.5;" width="146" x="997.5" y="799.8203"/><text fill="#000000" font-family="sans-serif" font-size="14" lengthAdjust="spacing" textLength="132" x="1004.5" y="821.3535">complaintRepository:</text><text fill="#000000" font-family="sans-serif" font-size="14" lengthAdjust="spacing" textLength="131" x="1005" y="838.9629">ComplaintRepository</text><rect fill="#E3E3E3" height="49.2188" rx="2.5" ry="2.5" style="stroke:#181818;stroke-width:0.5;" width="60" x="1153.5" y="5"/><text fill="#000000" font-family="sans-serif" font-size="14" lengthAdjust="spacing" textLength="39" x="1164" y="26.5332">citizen</text><text fill="#000000" font-family="sans-serif" font-size="14" lengthAdjust="spacing" textLength="46" x="1160.5" y="44.1426">:Citizen</text><rect fill="#E3E3E3" height="49.2188" rx="2.5" ry="2.5" style="stroke:#181818;stroke-width:0.5;" width="60" x="1153.5" y="799.8203"/><text fill="#000000" font-family="sans-serif" font-size="14" lengthAdjust="spacing" textLength="39" x="1164" y="821.3535">citizen</text><text fill="#000000" font-family="sans-serif" font-size="14" lengthAdjust="spacing" textLength="46" x="1160.5" y="838.9629">:Citizen</text><rect fill="#E3E3E3" height="49.2188" rx="2.5" ry="2.5" style="stroke:#181818;stroke-width:0.5;" width="81" x="1560.5" y="799.8203"/><text fill="#000000" font-family="sans-serif" font-size="14" lengthAdjust="spacing" textLength="60" x="1571" y="821.3535">complaint</text><text fill="#000000" font-family="sans-serif" font-size="14" lengthAdjust="spacing" textLength="67" x="1567.5" y="838.9629">:Complaint</text><rect fill="#FFFFFF" height="695.25" style="stroke:#181818;stroke-width:1.0;" width="10" x="390" y="87.5703"/><rect fill="#FFFFFF" height="41.3516" style="stroke:#181818;stroke-width:1.0;" width="10" x="395" y="151.2734"/><rect fill="#FFFFFF" height="30.3516" style="stroke:#181818;stroke-width:1.0;" width="10" x="631" y="229.9766"/><rect fill="#FFFFFF" height="30.3516" style="stroke:#181818;stroke-width:1.0;" width="10" x="631" y="412.0859"/><rect fill="#FFFFFF" height="30.3516" style="stroke:#181818;stroke-width:1.0;" width="10" x="736" y="290.6797"/><rect fill="#FFFFFF" height="30.3516" style="stroke:#181818;stroke-width:1.0;" width="10" x="736" y="472.7891"/><rect fill="#FFFFFF" height="30.3516" style="stroke:#181818;stroke-width:1.0;" width="10" x="888.5" y="351.3828"/><rect fill="#FFFFFF" height="30.3516" style="stroke:#181818;stroke-width:1.0;" width="10" x="1065.5" y="533.4922"/><rect fill="#FFFFFF" height="30.3516" style="stroke:#181818;stroke-width:1.0;" width="10" x="1065.5" y="715.1172"/><rect fill="#FFFFFF" height="90.5703" style="stroke:#181818;stroke-width:1.0;" width="10" x="1178.5" y="594.1953"/><polygon fill="#181818" points="378,83.5703,388,87.5703,378,91.5703,382,87.5703" style="stroke:#181818;stroke-width:1.0;"/><line style="stroke:#181818;stroke-width:1.0;" x1="0" x2="384" y1="87.5703" y2="87.5703"/><text fill="#000000" font-family="sans-serif" font-size="13" font-weight="bold" lengthAdjust="spacing" textLength="7" x="7" y="82.7139">8</text><text fill="#000000" font-family="sans-serif" font-size="13" lengthAdjust="spacing" textLength="360" x="18" y="82.7139">createComplaint(politicalAgent, role, incidentDate, description)</text><path d="M292,102.5703 L512,102.5703 L512,110.9219 L502,120.9219 L292,120.9219 L292,102.5703 " fill="#EEEEEE" style="stroke:#000000;stroke-width:1.5;"/><rect fill="none" height="650.8984" style="stroke:#000000;stroke-width:1.5;" width="1359.5" x="292" y="102.5703"/><text fill="#000000" font-family="sans-serif" font-size="13" font-weight="bold" lengthAdjust="spacing" textLength="175" x="307" y="117.0654">Create and Save Complaint</text><line style="stroke:#181818;stroke-width:1.0;" x1="400" x2="447" y1="138.2734" y2="138.2734"/><line style="stroke:#181818;stroke-width:1.0;" x1="447" x2="447" y1="138.2734" y2="151.2734"/><line style="stroke:#181818;stroke-width:1.0;" x1="406" x2="447" y1="151.2734" y2="151.2734"/><polygon fill="#181818" points="416,147.2734,406,151.2734,416,155.2734,412,151.2734" style="stroke:#181818;stroke-width:1.0;"/><text fill="#000000" font-family="sans-serif" font-size="13" font-weight="bold" lengthAdjust="spacing" textLength="18" x="412" y="133.417">8.1</text><text fill="#000000" font-family="sans-serif" font-size="13" lengthAdjust="spacing" textLength="195" x="434" y="133.417">validateIncidentDate(incidentDate)</text><line style="stroke:#181818;stroke-width:1.0;stroke-dasharray:2.0,2.0;" x1="405" x2="447" y1="191.625" y2="191.625"/><line style="stroke:#181818;stroke-width:1.0;stroke-dasharray:2.0,2.0;" x1="447" x2="447" y1="191.625" y2="204.625"/><line style="stroke:#181818;stroke-width:1.0;stroke-dasharray:2.0,2.0;" x1="400" x2="447" y1="204.625" y2="204.625"/><polygon fill="#181818" points="410,200.625,400,204.625,410,208.625,406,204.625" style="stroke:#181818;stroke-width:1.0;"/><text fill="#000000" font-family="sans-serif" font-size="13" font-weight="bold" lengthAdjust="spacing" textLength="18" x="412" y="186.7686">8.2</text><text fill="#000000" font-family="sans-serif" font-size="13" lengthAdjust="spacing" textLength="25" x="434" y="186.7686">valid</text><polygon fill="#181818" points="619,225.9766,629,229.9766,619,233.9766,623,229.9766" style="stroke:#181818;stroke-width:1.0;"/><line style="stroke:#181818;stroke-width:1.0;" x1="400" x2="625" y1="229.9766" y2="229.9766"/><text fill="#000000" font-family="sans-serif" font-size="13" font-weight="bold" lengthAdjust="spacing" textLength="18" x="407" y="225.1201">8.3</text><text fill="#000000" font-family="sans-serif" font-size="13" lengthAdjust="spacing" textLength="75" x="429" y="225.1201">getInstance()</text><polygon fill="#181818" points="411,256.3281,401,260.3281,411,264.3281,407,260.3281" style="stroke:#181818;stroke-width:1.0;"/><line style="stroke:#181818;stroke-width:1.0;stroke-dasharray:2.0,2.0;" x1="405" x2="635" y1="260.3281" y2="260.3281"/><text fill="#000000" font-family="sans-serif" font-size="13" font-weight="bold" lengthAdjust="spacing" textLength="18" x="417" y="255.4717">8.4</text><text fill="#000000" font-family="sans-serif" font-size="13" lengthAdjust="spacing" textLength="67" x="439" y="255.4717">repositories</text><polygon fill="#181818" points="724,286.6797,734,290.6797,724,294.6797,728,290.6797" style="stroke:#181818;stroke-width:1.0;"/><line style="stroke:#181818;stroke-width:1.0;" x1="400" x2="730" y1="290.6797" y2="290.6797"/><text fill="#000000" font-family="sans-serif" font-size="13" font-weight="bold" lengthAdjust="spacing" textLength="18" x="407" y="285.8232">8.5</text><text fill="#000000" font-family="sans-serif" font-size="13" lengthAdjust="spacing" textLength="184" x="429" y="285.8232">getPoliticalMandateRepository()</text><polygon fill="#181818" points="411,317.0313,401,321.0313,411,325.0313,407,321.0313" style="stroke:#181818;stroke-width:1.0;"/><line style="stroke:#181818;stroke-width:1.0;stroke-dasharray:2.0,2.0;" x1="405" x2="740" y1="321.0313" y2="321.0313"/><text fill="#000000" font-family="sans-serif" font-size="13" font-weight="bold" lengthAdjust="spacing" textLength="18" x="417" y="316.1748">8.6</text><text fill="#000000" font-family="sans-serif" font-size="13" lengthAdjust="spacing" textLength="156" x="439" y="316.1748">politicalMandateRepository</text><polygon fill="#181818" points="876.5,347.3828,886.5,351.3828,876.5,355.3828,880.5,351.3828" style="stroke:#181818;stroke-width:1.0;"/><line style="stroke:#181818;stroke-width:1.0;" x1="400" x2="882.5" y1="351.3828" y2="351.3828"/><text fill="#000000" font-family="sans-serif" font-size="13" font-weight="bold" lengthAdjust="spacing" textLength="18" x="407" y="346.5264">8.7</text><text fill="#000000" font-family="sans-serif" font-size="13" lengthAdjust="spacing" textLength="389" x="429" y="346.5264">getMandateByAgentRoleAndDate(politicalAgent, role, incidentDate)</text><polygon fill="#181818" points="411,377.7344,401,381.7344,411,385.7344,407,381.7344" style="stroke:#181818;stroke-width:1.0;"/><line style="stroke:#181818;stroke-width:1.0;stroke-dasharray:2.0,2.0;" x1="405" x2="892.5" y1="381.7344" y2="381.7344"/><text fill="#000000" font-family="sans-serif" font-size="13" font-weight="bold" lengthAdjust="spacing" textLength="18" x="417" y="376.8779">8.8</text><text fill="#000000" font-family="sans-serif" font-size="13" lengthAdjust="spacing" textLength="50" x="439" y="376.8779">mandate</text><polygon fill="#181818" points="619,408.0859,629,412.0859,619,416.0859,623,412.0859" style="stroke:#181818;stroke-width:1.0;"/><line style="stroke:#181818;stroke-width:1.0;" x1="400" x2="625" y1="412.0859" y2="412.0859"/><text fill="#000000" font-family="sans-serif" font-size="13" font-weight="bold" lengthAdjust="spacing" textLength="18" x="407" y="407.2295">8.9</text><text fill="#000000" font-family="sans-serif" font-size="13" lengthAdjust="spacing" textLength="75" x="429" y="407.2295">getInstance()</text><polygon fill="#181818" points="411,438.4375,401,442.4375,411,446.4375,407,442.4375" style="stroke:#181818;stroke-width:1.0;"/><line style="stroke:#181818;stroke-width:1.0;stroke-dasharray:2.0,2.0;" x1="405" x2="635" y1="442.4375" y2="442.4375"/><text fill="#000000" font-family="sans-serif" font-size="13" font-weight="bold" lengthAdjust="spacing" textLength="25" x="417" y="437.5811">8.10</text><text fill="#000000" font-family="sans-serif" font-size="13" lengthAdjust="spacing" textLength="67" x="446" y="437.5811">repositories</text><polygon fill="#181818" points="724,468.7891,734,472.7891,724,476.7891,728,472.7891" style="stroke:#181818;stroke-width:1.0;"/><line style="stroke:#181818;stroke-width:1.0;" x1="400" x2="730" y1="472.7891" y2="472.7891"/><text fill="#000000" font-family="sans-serif" font-size="13" font-weight="bold" lengthAdjust="spacing" textLength="25" x="407" y="467.9326">8.11</text><text fill="#000000" font-family="sans-serif" font-size="13" lengthAdjust="spacing" textLength="146" x="436" y="467.9326">getComplaintRepository()</text><polygon fill="#181818" points="411,499.1406,401,503.1406,411,507.1406,407,503.1406" style="stroke:#181818;stroke-width:1.0;"/><line style="stroke:#181818;stroke-width:1.0;stroke-dasharray:2.0,2.0;" x1="405" x2="740" y1="503.1406" y2="503.1406"/><text fill="#000000" font-family="sans-serif" font-size="13" font-weight="bold" lengthAdjust="spacing" textLength="25" x="417" y="498.2842">8.12</text><text fill="#000000" font-family="sans-serif" font-size="13" lengthAdjust="spacing" textLength="118" x="446" y="498.2842">complaintRepository</text><polygon fill="#181818" points="1053.5,529.4922,1063.5,533.4922,1053.5,537.4922,1057.5,533.4922" style="stroke:#181818;stroke-width:1.0;"/><line style="stroke:#181818;stroke-width:1.0;" x1="400" x2="1059.5" y1="533.4922" y2="533.4922"/><text fill="#000000" font-family="sans-serif" font-size="13" font-weight="bold" lengthAdjust="spacing" textLength="25" x="407" y="528.6357">8.13</text><text fill="#000000" font-family="sans-serif" font-size="13" lengthAdjust="spacing" textLength="75" x="436" y="528.6357">nextIdentity()</text><polygon fill="#181818" points="411,559.8438,401,563.8438,411,567.8438,407,563.8438" style="stroke:#181818;stroke-width:1.0;"/><line style="stroke:#181818;stroke-width:1.0;stroke-dasharray:2.0,2.0;" x1="405" x2="1069.5" y1="563.8438" y2="563.8438"/><text fill="#000000" font-family="sans-serif" font-size="13" font-weight="bold" lengthAdjust="spacing" textLength="25" x="417" y="558.9873">8.14</text><text fill="#000000" font-family="sans-serif" font-size="13" lengthAdjust="spacing" textLength="66" x="446" y="558.9873">complaintId</text><polygon fill="#181818" points="1166.5,590.1953,1176.5,594.1953,1166.5,598.1953,1170.5,594.1953" style="stroke:#181818;stroke-width:1.0;"/><line style="stroke:#181818;stroke-width:1.0;" x1="400" x2="1172.5" y1="594.1953" y2="594.1953"/><text fill="#000000" font-family="sans-serif" font-size="13" font-weight="bold" lengthAdjust="spacing" textLength="25" x="407" y="589.3389">8.15</text><text fill="#000000" font-family="sans-serif" font-size="13" lengthAdjust="spacing" textLength="380" x="436" y="589.3389">submitComplaint(mandate, incidentDate, description, complaintId)</text><polygon fill="#181818" points="1548.5,620.5469,1558.5,624.5469,1548.5,628.5469,1552.5,624.5469" style="stroke:#181818;stroke-width:1.0;"/><line style="stroke:#181818;stroke-width:1.0;stroke-dasharray:2.0,2.0;" x1="1188.5" x2="1554.5" y1="624.5469" y2="624.5469"/><text fill="#000000" font-family="sans-serif" font-size="13" font-weight="bold" lengthAdjust="spacing" textLength="25" x="1195.5" y="619.6904">8.16</text><text fill="#000000" font-family="sans-serif" font-size="13" lengthAdjust="spacing" textLength="319" x="1224.5" y="619.6904">create(complaintId, incidentDate, description, mandate)</text><rect fill="#E3E3E3" height="49.2188" rx="2.5" ry="2.5" style="stroke:#181818;stroke-width:0.5;" width="81" x="1560.5" y="602.1953"/><text fill="#000000" font-family="sans-serif" font-size="14" lengthAdjust="spacing" textLength="60" x="1571" y="623.7285">complaint</text><text fill="#000000" font-family="sans-serif" font-size="14" lengthAdjust="spacing" textLength="67" x="1567.5" y="641.3379">:Complaint</text><polygon fill="#181818" points="411,680.7656,401,684.7656,411,688.7656,407,684.7656" style="stroke:#181818;stroke-width:1.0;"/><line style="stroke:#181818;stroke-width:1.0;stroke-dasharray:2.0,2.0;" x1="405" x2="1182.5" y1="684.7656" y2="684.7656"/><text fill="#000000" font-family="sans-serif" font-size="13" font-weight="bold" lengthAdjust="spacing" textLength="25" x="417" y="679.9092">8.17</text><text fill="#000000" font-family="sans-serif" font-size="13" lengthAdjust="spacing" textLength="56" x="446" y="679.9092">complaint</text><polygon fill="#181818" points="1053.5,711.1172,1063.5,715.1172,1053.5,719.1172,1057.5,715.1172" style="stroke:#181818;stroke-width:1.0;"/><line style="stroke:#181818;stroke-width:1.0;" x1="400" x2="1059.5" y1="715.1172" y2="715.1172"/><text fill="#000000" font-family="sans-serif" font-size="13" font-weight="bold" lengthAdjust="spacing" textLength="25" x="407" y="710.2607">8.18</text><text fill="#000000" font-family="sans-serif" font-size="13" lengthAdjust="spacing" textLength="90" x="436" y="710.2607">save(complaint)</text><polygon fill="#181818" points="411,741.4688,401,745.4688,411,749.4688,407,745.4688" style="stroke:#181818;stroke-width:1.0;"/><line style="stroke:#181818;stroke-width:1.0;stroke-dasharray:2.0,2.0;" x1="405" x2="1069.5" y1="745.4688" y2="745.4688"/><text fill="#000000" font-family="sans-serif" font-size="13" font-weight="bold" lengthAdjust="spacing" textLength="25" x="417" y="740.6123">8.19</text><text fill="#000000" font-family="sans-serif" font-size="13" lengthAdjust="spacing" textLength="49" x="446" y="740.6123">success</text><polygon fill="#181818" points="11,778.8203,1,782.8203,11,786.8203,7,782.8203" style="stroke:#181818;stroke-width:1.0;"/><line style="stroke:#181818;stroke-width:1.0;stroke-dasharray:2.0,2.0;" x1="5" x2="394" y1="782.8203" y2="782.8203"/><text fill="#000000" font-family="sans-serif" font-size="13" font-weight="bold" lengthAdjust="spacing" textLength="7" x="17" y="777.9639">9</text><text fill="#000000" font-family="sans-serif" font-size="13" lengthAdjust="spacing" textLength="147" x="28" y="777.9639">complaintId, SUBMITTED</text><!--SRC=[rLN1Zfim4Btp5TQUabLIgRSsgYgnILGX9IGAzB9QQUKrKzPQi95jqgPVNuC9iOFPhQgzb1FOC- -zyJmFyeMo2WjSef8pJfu5Bm4fKKCW-vqAanUSGw9E1I01H66M5tQ0VCOP_qbPZdxWGa8Gw6L52QqmK-XcaTHF9LLBNbO5fao_C2LuKO2uGLYYPNhOk0a7gBYaYWiAiWqvhFUxn8qHLim3M_XJ7fCe_hPPfxlOJQvuGVKNBhQOPLX1dtrQFB3zw6OBl0tZLPYk7ni25vMS2tJWbiDLK_Pkkz-4KPpwaBI0ty1qNKlpPZAYDBfVnoEaJV3vtIK80bmhpkho2GJw5Co_jaUE5eW8qFNrMPF-MC8Sc9eXtIIO8Se8pVJtIiVEK0QI25efojdKmVtmCS14qQEECYr5-ia5hokqR7cGFawKuAFUFZEsCStJ2he8E-A2DaSVMTGJMyUqpnnokfXNe7r41cxcG4fh89sMWugOr9OdCF7G6clQl2RH8hQjwkCt47u15mSRAUFc71LdNOA1J0lU4Zn-FKRbMoI3GkmROwheSEzEhT4EscOXozeclsr1JvdEbRHhT9Yj0al3xwl6mVfFJE4PCU_e1izO-oSRk0DF0pFufQAchLHvzLvDIETkkrW-jP7_hhkOGv5cnceWwVwq9frdNfc7CvlSLqytlvr2EhwvVK2tj_rmdbYGhr9tygRZw5VdupsTJk7RlPDwZb-qlLVpP4q8IFaNZMjsWPaMMt-Xp-t2b_dSOuSPIhxVRQCqNQ-2w-d_1m00]--></g></svg>