<?plantuml 1.2026.2?><svg xmlns="http://www.w3.org/2000/svg" xmlns:xlink="http://www.w3.org/1999/xlink" contentStyleType="text/css" data-diagram-type="CLASS" height="618px" preserveAspectRatio="none" style="width:1017px;height:618px;background:#FFFFFF;" version="1.1" viewBox="0 0 1017 618" width="1017px" zoomAndPan="magnify"><defs/><g><!--class DeclarationType--><g class="entity" data-qualified-name="DeclarationType" data-source-line="13" id="ent0002"><rect fill="#FFFFFF" height="108.4453" rx="2.5" ry="2.5" style="stroke:#181818;stroke-width:0.5;" width="110.0273" x="7" y="314.5"/><text fill="#000000" font-family="sans-serif" font-size="12" font-style="italic" lengthAdjust="spacing" textLength="44.6953" x="39.666" y="332.4492">&#171;Enum&#187;</text><text fill="#000000" font-family="sans-serif" font-size="14" lengthAdjust="spacing" textLength="101.9375" x="11.0449" y="350.5684">DeclarationType</text><line style="stroke:#181818;stroke-width:0.5;" x1="8" x2="116.0273" y1="359.082" y2="359.082"/><text fill="#000000" font-family="sans-serif" font-size="14" lengthAdjust="spacing" textLength="47.4551" x="13" y="378.1895">INITIAL</text><text fill="#000000" font-family="sans-serif" font-size="14" lengthAdjust="spacing" textLength="67.6826" x="13" y="396.8105">REGULAR</text><text fill="#000000" font-family="sans-serif" font-size="14" lengthAdjust="spacing" textLength="98.0273" x="13" y="415.4316">EXCEPTIONAL</text></g><!--class DeclarationStatus--><g class="entity" data-qualified-name="DeclarationStatus" data-source-line="19" id="ent0003"><rect fill="#FFFFFF" height="108.4453" rx="2.5" ry="2.5" style="stroke:#181818;stroke-width:0.5;" width="116.5029" x="152.5" y="314.5"/><text fill="#000000" font-family="sans-serif" font-size="12" font-style="italic" lengthAdjust="spacing" textLength="44.6953" x="188.4038" y="332.4492">&#171;Enum&#187;</text><text fill="#000000" font-family="sans-serif" font-size="14" lengthAdjust="spacing" textLength="110.5029" x="155.5" y="350.5684">DeclarationStatus</text><line style="stroke:#181818;stroke-width:0.5;" x1="153.5" x2="268.0029" y1="359.082" y2="359.082"/><text fill="#000000" font-family="sans-serif" font-size="14" lengthAdjust="spacing" textLength="80.8896" x="158.5" y="378.1895">SUBMITTED</text><text fill="#000000" font-family="sans-serif" font-size="14" lengthAdjust="spacing" textLength="77.7998" x="158.5" y="396.8105">VALIDATED</text><text fill="#000000" font-family="sans-serif" font-size="14" lengthAdjust="spacing" textLength="73.8965" x="158.5" y="415.4316">REJECTED</text></g><!--class PositionType--><g class="entity" data-qualified-name="PositionType" data-source-line="25" id="ent0004"><rect fill="#FFFFFF" height="108.4453" rx="2.5" ry="2.5" style="stroke:#181818;stroke-width:0.5;" width="86.9307" x="274.5" y="503"/><text fill="#000000" font-family="sans-serif" font-size="12" font-style="italic" lengthAdjust="spacing" textLength="44.6953" x="295.6177" y="520.9492">&#171;Enum&#187;</text><text fill="#000000" font-family="sans-serif" font-size="14" lengthAdjust="spacing" textLength="80.9307" x="277.5" y="539.0684">PositionType</text><line style="stroke:#181818;stroke-width:0.5;" x1="275.5" x2="360.4307" y1="547.582" y2="547.582"/><text fill="#000000" font-family="sans-serif" font-size="14" lengthAdjust="spacing" textLength="50.5723" x="280.5" y="566.6895">PUBLIC</text><text fill="#000000" font-family="sans-serif" font-size="14" lengthAdjust="spacing" textLength="59.9033" x="280.5" y="585.3105">PRIVATE</text><text fill="#000000" font-family="sans-serif" font-size="14" lengthAdjust="spacing" textLength="51.3516" x="280.5" y="603.9316">SOCIAL</text></g><!--class PropertyType--><g class="entity" data-qualified-name="PropertyType" data-source-line="31" id="ent0005"><rect fill="#FFFFFF" height="89.8242" rx="2.5" ry="2.5" style="stroke:#181818;stroke-width:0.5;" width="90.0342" x="826" y="512"/><text fill="#000000" font-family="sans-serif" font-size="12" font-style="italic" lengthAdjust="spacing" textLength="44.6953" x="848.6694" y="529.9492">&#171;Enum&#187;</text><text fill="#000000" font-family="sans-serif" font-size="14" lengthAdjust="spacing" textLength="84.0342" x="829" y="548.0684">PropertyType</text><line style="stroke:#181818;stroke-width:0.5;" x1="827" x2="915.0342" y1="556.582" y2="556.582"/><text fill="#000000" font-family="sans-serif" font-size="14" lengthAdjust="spacing" textLength="49.0068" x="832" y="575.6895">URBAN</text><text fill="#000000" font-family="sans-serif" font-size="14" lengthAdjust="spacing" textLength="47.4551" x="832" y="594.3105">RURAL</text></g><!--class HouseholdRelationship--><g class="entity" data-qualified-name="HouseholdRelationship" data-source-line="36" id="ent0006"><rect fill="#FFFFFF" height="108.4453" rx="2.5" ry="2.5" style="stroke:#181818;stroke-width:0.5;" width="149.9854" x="89" y="503"/><text fill="#000000" font-family="sans-serif" font-size="12" font-style="italic" lengthAdjust="spacing" textLength="44.6953" x="141.645" y="520.9492">&#171;Enum&#187;</text><text fill="#000000" font-family="sans-serif" font-size="14" lengthAdjust="spacing" textLength="143.9854" x="92" y="539.0684">HouseholdRelationship</text><line style="stroke:#181818;stroke-width:0.5;" x1="90" x2="237.9854" y1="547.582" y2="547.582"/><text fill="#000000" font-family="sans-serif" font-size="14" lengthAdjust="spacing" textLength="66.8965" x="95" y="566.6895">PARTNER</text><text fill="#000000" font-family="sans-serif" font-size="14" lengthAdjust="spacing" textLength="96.4551" x="95" y="585.3105">DESCENDANT</text><text fill="#000000" font-family="sans-serif" font-size="14" lengthAdjust="spacing" textLength="49" x="95" y="603.9316">OTHER</text></g><!--class PoliticalAgent--><g class="entity" data-qualified-name="PoliticalAgent" data-source-line="42" id="ent0007"><rect fill="#F1F1F1" height="73.8633" rx="2.5" ry="2.5" style="stroke:#181818;stroke-width:0.5;" width="90.8271" x="465.5" y="7"/><text fill="#000000" font-family="sans-serif" font-size="14" lengthAdjust="spacing" textLength="84.8271" x="468.5" y="27.1074">PoliticalAgent</text><line style="stroke:#181818;stroke-width:0.5;" x1="466.5" x2="555.3271" y1="35.6211" y2="35.6211"/><text fill="#000000" font-family="sans-serif" font-size="14" lengthAdjust="spacing" textLength="35.0205" x="471.5" y="54.7285">name</text><text fill="#000000" font-family="sans-serif" font-size="14" lengthAdjust="spacing" textLength="33.4551" x="471.5" y="73.3496">email</text></g><!--class Declaration--><g class="entity" data-qualified-name="Declaration" data-source-line="47" id="ent0008"><rect fill="#F1F1F1" height="73.8633" rx="2.5" ry="2.5" style="stroke:#181818;stroke-width:0.5;" width="134.1855" x="444" y="160"/><text fill="#000000" font-family="sans-serif" font-size="14" lengthAdjust="spacing" textLength="70.8135" x="475.686" y="180.1074">Declaration</text><line style="stroke:#181818;stroke-width:0.5;" x1="445" x2="577.1855" y1="188.6211" y2="188.6211"/><text fill="#000000" font-family="sans-serif" font-size="14" lengthAdjust="spacing" textLength="99.5996" x="450" y="207.7285">submissionDate</text><text fill="#000000" font-family="sans-serif" font-size="14" lengthAdjust="spacing" textLength="122.1855" x="450" y="226.3496">amendmentReason</text></g><!--class HouseholdMember--><g class="entity" data-qualified-name="HouseholdMember" data-source-line="52" id="ent0009"><rect fill="#F1F1F1" height="92.4844" rx="2.5" ry="2.5" style="stroke:#181818;stroke-width:0.5;" width="124.2822" x="305" y="322.5"/><text fill="#000000" font-family="sans-serif" font-size="14" lengthAdjust="spacing" textLength="118.2822" x="308" y="342.6074">HouseholdMember</text><line style="stroke:#181818;stroke-width:0.5;" x1="306" x2="428.2822" y1="351.1211" y2="351.1211"/><text fill="#000000" font-family="sans-serif" font-size="14" lengthAdjust="spacing" textLength="35.0205" x="311" y="370.2285">name</text><text fill="#000000" font-family="sans-serif" font-size="14" lengthAdjust="spacing" textLength="30.3516" x="311" y="388.8496">taxId</text><text fill="#000000" font-family="sans-serif" font-size="14" lengthAdjust="spacing" textLength="56.8066" x="311" y="407.4707">birthDate</text></g><!--class Position--><g class="entity" data-qualified-name="Position" data-source-line="58" id="ent0010"><rect fill="#F1F1F1" height="92.4844" rx="2.5" ry="2.5" style="stroke:#181818;stroke-width:0.5;" width="94.4893" x="464" y="322.5"/><text fill="#000000" font-family="sans-serif" font-size="14" lengthAdjust="spacing" textLength="49.8066" x="486.3413" y="342.6074">Position</text><line style="stroke:#181818;stroke-width:0.5;" x1="465" x2="557.4893" y1="351.1211" y2="351.1211"/><text fill="#000000" font-family="sans-serif" font-size="14" lengthAdjust="spacing" textLength="56.7998" x="470" y="370.2285">startDate</text><text fill="#000000" font-family="sans-serif" font-size="14" lengthAdjust="spacing" textLength="52.9307" x="470" y="388.8496">endDate</text><text fill="#000000" font-family="sans-serif" font-size="14" lengthAdjust="spacing" textLength="82.4893" x="470" y="407.4707">remuneration</text></g><!--class Subsidy--><g class="entity" data-qualified-name="Subsidy" data-source-line="64" id="ent0011"><rect fill="#F1F1F1" height="73.8633" rx="2.5" ry="2.5" style="stroke:#181818;stroke-width:0.5;" width="58.6963" x="593.5" y="331.5"/><text fill="#000000" font-family="sans-serif" font-size="14" lengthAdjust="spacing" textLength="49.8066" x="597.9448" y="351.6074">Subsidy</text><line style="stroke:#181818;stroke-width:0.5;" x1="594.5" x2="651.1963" y1="360.1211" y2="360.1211"/><text fill="#000000" font-family="sans-serif" font-size="14" lengthAdjust="spacing" textLength="46.6963" x="599.5" y="379.2285">amount</text><text fill="#000000" font-family="sans-serif" font-size="14" lengthAdjust="spacing" textLength="39.6963" x="599.5" y="397.8496">nature</text></g><!--class Asset--><g class="entity" data-qualified-name="Asset" data-source-line="69" id="ent0012"><rect fill="#F1F1F1" height="73.8633" rx="2.5" ry="2.5" style="stroke:#181818;stroke-width:0.5;" width="113.958" x="827" y="331.5"/><text fill="#000000" font-family="sans-serif" font-size="14" lengthAdjust="spacing" textLength="35.0137" x="866.4722" y="351.6074">Asset</text><line style="stroke:#181818;stroke-width:0.5;" x1="828" x2="939.958" y1="360.1211" y2="360.1211"/><text fill="#000000" font-family="sans-serif" font-size="14" lengthAdjust="spacing" textLength="101.958" x="833" y="379.2285">acquisitionValue</text><text fill="#000000" font-family="sans-serif" font-size="14" lengthAdjust="spacing" textLength="78.5928" x="833" y="397.8496">marketValue</text></g><!--class SecurityHolding--><g class="entity" data-qualified-name="SecurityHolding" data-source-line="74" id="ent0013"><rect fill="#F1F1F1" height="111.1055" rx="2.5" ry="2.5" style="stroke:#181818;stroke-width:0.5;" width="104.0479" x="688" y="313"/><text fill="#000000" font-family="sans-serif" font-size="14" lengthAdjust="spacing" textLength="98.0479" x="691" y="333.1074">SecurityHolding</text><line style="stroke:#181818;stroke-width:0.5;" x1="689" x2="791.0479" y1="341.6211" y2="341.6211"/><text fill="#000000" font-family="sans-serif" font-size="14" lengthAdjust="spacing" textLength="21.7861" x="694" y="360.7285">title</text><text fill="#000000" font-family="sans-serif" font-size="14" lengthAdjust="spacing" textLength="78.5928" x="694" y="379.3496">marketValue</text><text fill="#000000" font-family="sans-serif" font-size="14" lengthAdjust="spacing" textLength="33.4619" x="694" y="397.9707">stake</text><text fill="#000000" font-family="sans-serif" font-size="14" lengthAdjust="spacing" textLength="70.0547" x="694" y="416.5918">percentage</text></g><!--class Institution--><g class="entity" data-qualified-name="Institution" data-source-line="81" id="ent0014"><rect fill="#F1F1F1" height="73.8633" rx="2.5" ry="2.5" style="stroke:#181818;stroke-width:0.5;" width="65.9238" x="603" y="520"/><text fill="#000000" font-family="sans-serif" font-size="14" lengthAdjust="spacing" textLength="59.9238" x="606" y="540.1074">Institution</text><line style="stroke:#181818;stroke-width:0.5;" x1="604" x2="667.9238" y1="548.6211" y2="548.6211"/><text fill="#000000" font-family="sans-serif" font-size="14" lengthAdjust="spacing" textLength="35.0205" x="609" y="567.7285">name</text><text fill="#000000" font-family="sans-serif" font-size="14" lengthAdjust="spacing" textLength="30.3516" x="609" y="586.3496">taxId</text></g><!--class Function--><g class="entity" data-qualified-name="Function" data-source-line="86" id="ent0015"><rect fill="#F1F1F1" height="55.2422" rx="2.5" ry="2.5" style="stroke:#181818;stroke-width:0.5;" width="83.6133" x="397" y="529.5"/><text fill="#000000" font-family="sans-serif" font-size="14" lengthAdjust="spacing" textLength="53.6963" x="411.9585" y="549.6074">Function</text><line style="stroke:#181818;stroke-width:0.5;" x1="398" x2="479.6133" y1="558.1211" y2="558.1211"/><text fill="#000000" font-family="sans-serif" font-size="14" lengthAdjust="spacing" textLength="71.6133" x="403" y="577.2285">designation</text></g><!--class Location--><g class="entity" data-qualified-name="Location" data-source-line="90" id="ent0016"><rect fill="#F1F1F1" height="92.4844" rx="2.5" ry="2.5" style="stroke:#181818;stroke-width:0.5;" width="58.9307" x="951.5" y="511"/><text fill="#000000" font-family="sans-serif" font-size="14" lengthAdjust="spacing" textLength="52.9307" x="954.5" y="531.1074">Location</text><line style="stroke:#181818;stroke-width:0.5;" x1="952.5" x2="1009.4307" y1="539.6211" y2="539.6211"/><text fill="#000000" font-family="sans-serif" font-size="14" lengthAdjust="spacing" textLength="38.1309" x="957.5" y="558.7285">parish</text><text fill="#000000" font-family="sans-serif" font-size="14" lengthAdjust="spacing" textLength="41.248" x="957.5" y="577.3496">county</text><text fill="#000000" font-family="sans-serif" font-size="14" lengthAdjust="spacing" textLength="40.4482" x="957.5" y="595.9707">district</text></g><!--link PoliticalAgent to Declaration--><g class="link" data-entity-1="ent0007" data-entity-2="ent0008" data-link-type="association" data-source-line="96" id="lnk17"><path codeLine="96" d="M511,81.17 C511,104.99 511,136.05 511,159.87" fill="none" id="PoliticalAgent-Declaration" style="stroke:#181818;stroke-width:1;"/><polygon fill="#000000" points="516,125.6455,518.9389,116.6004,513.0611,116.6004,516,125.6455" style="stroke:#000000;stroke-width:1;"/><text fill="#000000" font-family="sans-serif" font-size="13" lengthAdjust="spacing" textLength="44.7891" x="525" y="126.0283">submits</text><text fill="#000000" font-family="sans-serif" font-size="13" lengthAdjust="spacing" textLength="7.23" x="503.4537" y="102.7978">1</text><text fill="#000000" font-family="sans-serif" font-size="13" lengthAdjust="spacing" textLength="19.5127" x="490.3369" y="148.8086">0..*</text></g><!--link Declaration to DeclarationType--><g class="link" data-entity-1="ent0008" data-entity-2="ent0002" data-link-type="dependency" data-source-line="97" id="lnk18"><path codeLine="97" d="M443.83,211.2 C366.48,228.03 236.99,261.31 135,313 C129.07,316 128.1805,316.2507 122.3805,319.9707" fill="none" id="Declaration-to-DeclarationType" style="stroke:#181818;stroke-width:1;"/><polygon fill="#181818" points="117.33,323.21,127.0652,321.7181,121.5387,320.5106,122.7462,314.9841,117.33,323.21" style="stroke:#181818;stroke-width:1;"/><text fill="#000000" font-family="sans-serif" font-size="13" lengthAdjust="spacing" textLength="7.23" x="124.8806" y="313.3366">1</text></g><!--link Declaration to DeclarationStatus--><g class="link" data-entity-1="ent0008" data-entity-2="ent0003" data-link-type="dependency" data-source-line="98" id="lnk19"><path codeLine="98" d="M443.93,229.21 C398.67,251.05 338.11,281.79 287,313 C281.32,316.47 280.4943,316.8898 274.7343,320.7498" fill="none" id="Declaration-to-DeclarationStatus" style="stroke:#181818;stroke-width:1;"/><polygon fill="#181818" points="269.75,324.09,279.4532,322.4026,273.9036,321.3065,274.9997,315.7569,269.75,324.09" style="stroke:#181818;stroke-width:1;"/><text fill="#000000" font-family="sans-serif" font-size="13" lengthAdjust="spacing" textLength="7.23" x="276.9897" y="314.9917">1</text></g><!--reverse link Declaration to HouseholdMember--><g class="link" data-entity-1="ent0008" data-entity-2="ent0009" data-link-type="composition" data-source-line="99" id="lnk20"><path codeLine="99" d="M459.5524,242.3603 C449.5024,251.6603 447.93,253.79 439,264 C423.23,282.05 407.77,303.59 395.25,322.34" fill="none" id="Declaration-backto-HouseholdMember" style="stroke:#181818;stroke-width:1;"/><polygon fill="#181818" points="468.36,234.21,461.2395,235.3493,459.5524,242.3603,466.673,241.221,468.36,234.21" style="stroke:#181818;stroke-width:1;"/><polygon fill="#000000" points="440.8671,277.5423,448.8251,272.3345,444.2441,268.6515,440.8671,277.5423" style="stroke:#000000;stroke-width:1;"/><text fill="#000000" font-family="sans-serif" font-size="13" lengthAdjust="spacing" textLength="49.1372" x="453" y="279.0283">declares</text><text fill="#000000" font-family="sans-serif" font-size="13" lengthAdjust="spacing" textLength="7.23" x="453.7217" y="255.8445">1</text><text fill="#000000" font-family="sans-serif" font-size="13" lengthAdjust="spacing" textLength="19.5127" x="379.0208" y="311.3259">1..*</text></g><!--reverse link Declaration to Position--><g class="link" data-entity-1="ent0008" data-entity-2="ent0010" data-link-type="composition" data-source-line="100" id="lnk21"><path codeLine="100" d="M511,246.36 C511,272.14 511,294.9 511,322.44" fill="none" id="Declaration-backto-Position" style="stroke:#181818;stroke-width:1;"/><polygon fill="#181818" points="511,234.36,507,240.36,511,246.36,515,240.36,511,234.36" style="stroke:#181818;stroke-width:1;"/><polygon fill="#000000" points="516,278.6455,518.9389,269.6004,513.0611,269.6004,516,278.6455" style="stroke:#000000;stroke-width:1;"/><text fill="#000000" font-family="sans-serif" font-size="13" lengthAdjust="spacing" textLength="48.4199" x="525" y="279.0283">contains</text><text fill="#000000" font-family="sans-serif" font-size="13" lengthAdjust="spacing" textLength="7.23" x="503.424" y="256.0193">1</text><text fill="#000000" font-family="sans-serif" font-size="13" lengthAdjust="spacing" textLength="19.5127" x="490.5471" y="311.099">0..*</text></g><!--reverse link Declaration to Subsidy--><g class="link" data-entity-1="ent0008" data-entity-2="ent0011" data-link-type="composition" data-source-line="101" id="lnk22"><path codeLine="101" d="M561.8883,242.4622 C571.0983,251.6222 571.74,253.42 579,264 C593.14,284.61 604.14,310.49 611.6,331.21" fill="none" id="Declaration-backto-Subsidy" style="stroke:#181818;stroke-width:1;"/><polygon fill="#181818" points="553.38,234,554.8135,241.0672,561.8883,242.4622,560.4549,235.395,553.38,234" style="stroke:#181818;stroke-width:1;"/><polygon fill="#000000" points="598.4435,278.0078,596.5872,268.6801,591.4591,271.5526,598.4435,278.0078" style="stroke:#000000;stroke-width:1;"/><text fill="#000000" font-family="sans-serif" font-size="13" lengthAdjust="spacing" textLength="48.4199" x="605" y="279.0283">contains</text><text fill="#000000" font-family="sans-serif" font-size="13" lengthAdjust="spacing" textLength="7.23" x="553.0663" y="255.8854">1</text><text fill="#000000" font-family="sans-serif" font-size="13" lengthAdjust="spacing" textLength="19.5127" x="588.9499" y="320.1201">0..*</text></g><!--reverse link Declaration to Asset--><g class="link" data-entity-1="ent0008" data-entity-2="ent0012" data-link-type="composition" data-source-line="102" id="lnk23"><path codeLine="102" d="M589.792,211.258 C639.652,221.118 696.58,236.12 752,264 C786.86,281.54 821.39,309.07 846.39,331.34" fill="none" id="Declaration-backto-Asset" style="stroke:#181818;stroke-width:1;"/><polygon fill="#181818" points="578.02,208.93,583.13,214.018,589.792,211.258,584.682,206.17,578.02,208.93" style="stroke:#181818;stroke-width:1;"/><polygon fill="#000000" points="793.5286,275.7648,786.5819,269.2691,784.0906,274.5928,793.5286,275.7648" style="stroke:#000000;stroke-width:1;"/><text fill="#000000" font-family="sans-serif" font-size="13" lengthAdjust="spacing" textLength="48.4199" x="798" y="279.0283">contains</text><text fill="#000000" font-family="sans-serif" font-size="13" lengthAdjust="spacing" textLength="7.23" x="586.1764" y="225.3453">1</text><text fill="#000000" font-family="sans-serif" font-size="13" lengthAdjust="spacing" textLength="19.5127" x="819.0479" y="320.2732">0..*</text></g><!--reverse link Declaration to SecurityHolding--><g class="link" data-entity-1="ent0008" data-entity-2="ent0013" data-link-type="composition" data-source-line="103" id="lnk24"><path codeLine="103" d="M589.4182,223.1929 C617.1482,233.8729 637.3,244.49 662,264 C679.13,277.53 694.47,295.66 706.93,312.97" fill="none" id="Declaration-backto-SecurityHolding" style="stroke:#181818;stroke-width:1;"/><polygon fill="#181818" points="578.22,218.88,582.3815,224.7692,589.4182,223.1929,585.2567,217.3037,578.22,218.88" style="stroke:#181818;stroke-width:1;"/><polygon fill="#000000" points="689.9732,276.6809,684.5698,268.8544,681.0014,273.5252,689.9732,276.6809" style="stroke:#000000;stroke-width:1;"/><text fill="#000000" font-family="sans-serif" font-size="13" lengthAdjust="spacing" textLength="48.4199" x="695" y="279.0283">contains</text><text fill="#000000" font-family="sans-serif" font-size="13" lengthAdjust="spacing" textLength="7.23" x="586.3996" y="236.4457">1</text><text fill="#000000" font-family="sans-serif" font-size="13" lengthAdjust="spacing" textLength="19.5127" x="682.5055" y="301.8064">0..*</text></g><!--link Declaration to Declaration--><g class="link" data-entity-1="ent0008" data-entity-2="ent0008" data-link-type="association" data-source-line="104" id="lnk25"><path codeLine="104" d="M578.2,182.79 C597.81,183.28 613,188.02 613,197 C613,205.98 597.81,210.72 578.2,211.21" fill="none" id="Declaration-Declaration" style="stroke:#181818;stroke-width:1;"/><polygon fill="#000000" points="618.1249,202.1439,620.837,193.0283,614.9609,193.1751,618.1249,202.1439" style="stroke:#000000;stroke-width:1;"/><text fill="#000000" font-family="sans-serif" font-size="13" lengthAdjust="spacing" textLength="46.249" x="632" y="202.5283">amends</text><text fill="#000000" font-family="sans-serif" font-size="13" lengthAdjust="spacing" textLength="19.5127" x="586.1266" y="177.4984">0..*</text><text fill="#000000" font-family="sans-serif" font-size="13" lengthAdjust="spacing" textLength="21.6836" x="586.2385" y="208.8492">0..1</text></g><!--link HouseholdMember to HouseholdRelationship--><g class="link" data-entity-1="ent0009" data-entity-2="ent0006" data-link-type="dependency" data-source-line="106" id="lnk26"><path codeLine="106" d="M317.86,414.65 C288.88,441.27 256.4686,471.0509 226.1086,498.9409" fill="none" id="HouseholdMember-to-HouseholdRelationship" style="stroke:#181818;stroke-width:1;"/><polygon fill="#181818" points="221.69,503,231.0239,499.8571,225.3721,499.6174,225.6118,493.9656,221.69,503" style="stroke:#181818;stroke-width:1;"/><text fill="#000000" font-family="sans-serif" font-size="13" lengthAdjust="spacing" textLength="7.23" x="221.9882" y="491.6195">1</text></g><!--link Position to PositionType--><g class="link" data-entity-1="ent0010" data-entity-2="ent0004" data-link-type="dependency" data-source-line="108" id="lnk27"><path codeLine="108" d="M463.89,410.75 C458,415.39 451.95,419.91 446,424 C423.38,439.56 412.55,435.79 392,454 C376.2,468 365.2361,481.0213 353.4161,497.9413" fill="none" id="Position-to-PositionType" style="stroke:#181818;stroke-width:1;"/><polygon fill="#181818" points="349.98,502.86,358.4132,497.7727,352.8434,498.7611,351.855,493.1913,349.98,502.86" style="stroke:#181818;stroke-width:1;"/><text fill="#000000" font-family="sans-serif" font-size="13" lengthAdjust="spacing" textLength="7.23" x="346.6482" y="491.8527">1</text></g><!--link Position to Institution--><g class="link" data-entity-1="ent0010" data-entity-2="ent0014" data-link-type="association" data-source-line="109" id="lnk28"><path codeLine="109" d="M533.54,414.63 C543.39,433.17 555.53,454.57 568,473 C578.86,489.05 592.12,505.75 604.03,519.93" fill="none" id="Position-Institution" style="stroke:#181818;stroke-width:1;"/><polygon fill="#000000" points="575.7814,467.8005,573.192,458.6492,568.3076,461.9189,575.7814,467.8005" style="stroke:#000000;stroke-width:1;"/><text fill="#000000" font-family="sans-serif" font-size="13" lengthAdjust="spacing" textLength="39.0317" x="582" y="469.0283">held at</text><text fill="#000000" font-family="sans-serif" font-size="13" lengthAdjust="spacing" textLength="19.5127" x="516.5385" y="437.0087">0..*</text><text fill="#000000" font-family="sans-serif" font-size="13" lengthAdjust="spacing" textLength="7.23" x="590.5184" y="508.5958">1</text></g><!--link Position to Function--><g class="link" data-entity-1="ent0010" data-entity-2="ent0015" data-link-type="association" data-source-line="110" id="lnk29"><path codeLine="110" d="M463.78,409.82 C457.85,414.66 451.82,419.49 446,424 C427.86,438.05 414.5,433.6 404,454 C391.49,478.3 404.64,508.06 418.24,529.15" fill="none" id="Position-Function" style="stroke:#181818;stroke-width:1;"/><polygon fill="#000000" points="407.2173,468.3169,413.188,460.9141,407.6965,458.8184,407.2173,468.3169" style="stroke:#000000;stroke-width:1;"/><text fill="#000000" font-family="sans-serif" font-size="13" lengthAdjust="spacing" textLength="80.9517" x="418" y="469.0283">designated as</text><text fill="#000000" font-family="sans-serif" font-size="13" lengthAdjust="spacing" textLength="19.5127" x="436.451" y="411.6546">0..*</text><text fill="#000000" font-family="sans-serif" font-size="13" lengthAdjust="spacing" textLength="7.23" x="406.0006" y="518.2321">1</text></g><!--link Subsidy to Institution--><g class="link" data-entity-1="ent0011" data-entity-2="ent0014" data-link-type="association" data-source-line="112" id="lnk30"><path codeLine="112" d="M625.54,405.9 C627.83,438.76 631.18,486.86 633.47,519.69" fill="none" id="Subsidy-Institution" style="stroke:#181818;stroke-width:1;"/><polygon fill="#000000" points="635.3476,468.6334,637.6506,459.4059,631.787,459.8145,635.3476,468.6334" style="stroke:#000000;stroke-width:1;"/><text fill="#000000" font-family="sans-serif" font-size="13" lengthAdjust="spacing" textLength="78.749" x="644" y="469.0283">received from</text><text fill="#000000" font-family="sans-serif" font-size="13" lengthAdjust="spacing" textLength="19.5127" x="605.4958" y="427.2777">0..*</text><text fill="#000000" font-family="sans-serif" font-size="13" lengthAdjust="spacing" textLength="7.23" x="625.4232" y="508.5965">1</text></g><!--link Asset to PropertyType--><g class="link" data-entity-1="ent0012" data-entity-2="ent0005" data-link-type="dependency" data-source-line="114" id="lnk31"><path codeLine="114" d="M881.46,405.9 C879.35,436.22 876.7469,473.5145 874.4969,505.8145" fill="none" id="Asset-to-PropertyType" style="stroke:#181818;stroke-width:1;"/><polygon fill="#181818" points="874.08,511.8,878.6957,503.0997,874.4275,506.8121,870.7151,502.5438,874.08,511.8" style="stroke:#181818;stroke-width:1;"/><text fill="#000000" font-family="sans-serif" font-size="13" lengthAdjust="spacing" textLength="7.23" x="867.0307" y="500.6412">1</text></g><!--link Asset to Location--><g class="link" data-entity-1="ent0012" data-entity-2="ent0016" data-link-type="association" data-source-line="115" id="lnk32"><path codeLine="115" d="M902.93,405.9 C918.54,435.9 940.74,478.59 957.48,510.78" fill="none" id="Asset-Location" style="stroke:#181818;stroke-width:1;"/><polygon fill="#000000" points="943.3072,468.0814,941.7408,458.7007,936.5261,461.4129,943.3072,468.0814" style="stroke:#000000;stroke-width:1;"/><text fill="#000000" font-family="sans-serif" font-size="13" lengthAdjust="spacing" textLength="55.6499" x="950" y="469.0283">located in</text><text fill="#000000" font-family="sans-serif" font-size="13" lengthAdjust="spacing" textLength="7.23" x="898.4108" y="427.2777">1</text><text fill="#000000" font-family="sans-serif" font-size="13" lengthAdjust="spacing" textLength="7.23" x="946.5334" y="499.7571">1</text></g><!--link SecurityHolding to Institution--><g class="link" data-entity-1="ent0013" data-entity-2="ent0014" data-link-type="association" data-source-line="117" id="lnk33"><path codeLine="117" d="M742.26,424.03 C741,440.49 737.59,458.13 730,473 C716.44,499.57 690.47,521.47 669.26,536.09" fill="none" id="SecurityHolding-Institution" style="stroke:#181818;stroke-width:1;"/><polygon fill="#000000" points="740.2708,467.835,747.6705,461.8603,742.7454,458.652,740.2708,467.835" style="stroke:#000000;stroke-width:1;"/><text fill="#000000" font-family="sans-serif" font-size="13" lengthAdjust="spacing" textLength="38.3081" x="752" y="469.0283">held in</text><text fill="#000000" font-family="sans-serif" font-size="13" lengthAdjust="spacing" textLength="19.5127" x="722.3622" y="446.2741">0..*</text><text fill="#000000" font-family="sans-serif" font-size="13" lengthAdjust="spacing" textLength="7.23" x="676.8733" y="527.0966">1</text></g><?plantuml-src bLNVRzem47xFNs7nM8cgVKK8AK2sPg8KXT3krJXNOf7OpBviOzF-zvrZ4aBQgYqIoZcvxxllVYMe3mmrssf4NR9C6X0ejGhiNge3DxnafLPQv4QNmD1Kq7bou6BFTx36Om7C0RdQ5Lq7c_DC_v9gnvvvORjFHC6j3H6Dt5O8iT1gBVy0kmbocG4JqWWYgkqICDUP3VfWzZTWz9kIXftHbSfckj1cF8vKLKucx2cN2C6_800wipaGnd2NMNey01kFcVDZvEXeucMSnk62h2Jwkbc42LdHzrcqIkE79Tr_XMQD72lR9rflflTncaPpiX_3HJmFlPr4twAPCnkcbRRoBJMhpNGHpvoHn8z4u7WVPd57nyhe0nWyleRU9DDmwK9kaWxYJbSMSbra2HIrVflBmul0OP8k8vVyF5hFekKyNAPqU4Zlw2On-RglT47I1I_27IYiWOgNG1SekIpEZfrgrLwssfRIMZhEEJf_GgcC_fW0jpHpBR9LUm_b5amt1lBVSKRNhJIOrpmTORwcFXXoWwSu5ELa6IWh1LxJ6RYkjbPcnnh7IvebhEDXPJhieRNWi-NYHoLzg4TUL8wtv6OFw4zdMX2LaNYyeqJS3ZWiIYpwW5hitbsfgOBAGJjrPecL9L3L9dPHXzRhIwL4wvA1bJlLItAXnRaLj4VIvcG8b-tHOQIbPHJe0BqE3su7R4Xxh8PiS7DzVJMuwEp8znKjcmJT-yFXf4RsLkyz7xzN5rxEuweHS5iBw0_8Y79s0EYhkC1wyUsOZ2XxAhPK7m0r8_8PZ9-OJqNfJSpRMEy_zCZRVaVgnNAOe5-efkAllWzSvq-rQVowxwdpqoPyqvF1nPIEM0v5nZYIW1SGxzwEwwWTLY14BRafzNj1w8C3yYV1dkdRv82-tgtopZlozAWUP4_LRiE85Sua6gdgwBqMV2ZL6leV?></g></svg>