<svg xmlns="http://www.w3.org/2000/svg" xmlns:xlink="http://www.w3.org/1999/xlink" contentStyleType="text/css" data-diagram-type="SEQUENCE" height="457px" preserveAspectRatio="none" style="width:376px;height:457px;background:#FFFFFF;" version="1.1" viewBox="0 0 376 457" width="376px" zoomAndPan="magnify"><defs/><g><g><title>Ethics Committee</title><rect fill="#FFFFFF" height="231.4102" style="stroke:#181818;stroke-width:1;" width="10" x="57.8481" y="109.3027"/></g><g><title>.System</title><rect fill="#FFFFFF" height="29.9263" style="stroke:#181818;stroke-width:1;" width="10" x="332.9287" y="131.229"/></g><g><title>.System</title><rect fill="#FFFFFF" height="29.9263" style="stroke:#181818;stroke-width:1;" width="10" x="332.9287" y="191.0815"/></g><g><title>.System</title><rect fill="#FFFFFF" height="29.9263" style="stroke:#181818;stroke-width:1;" width="10" x="332.9287" y="250.9341"/></g><g><title>.System</title><rect fill="#FFFFFF" height="29.9263" style="stroke:#181818;stroke-width:1;" width="10" x="332.9287" y="310.7866"/></g><g><title>Ethics Committee</title><rect fill="#000000" fill-opacity="0.00000" height="259.4102" width="8" x="58.8481" y="99.3027"/><line style="stroke:#181818;stroke-width:0.5;stroke-dasharray:5,5;" x1="62" x2="62" y1="99.3027" y2="358.7129"/></g><g><title>.System</title><rect fill="#000000" fill-opacity="0.00000" height="259.4102" width="8" x="333.9287" y="99.3027"/><line style="stroke:#181818;stroke-width:0.5;stroke-dasharray:5,5;" x1="337.646" x2="337.646" y1="99.3027" y2="358.7129"/></g><g class="participant participant-head" data-participant="Member"><text fill="#000000" font-family="sans-serif" font-size="14" lengthAdjust="spacing" textLength="109.6963" x="5" y="79.0752">Ethics Committee</text><text fill="#000000" font-family="sans-serif" font-size="14" lengthAdjust="spacing" textLength="51.3447" x="34.1758" y="96.2266">Member</text><ellipse cx="62.8481" cy="13.5" fill="#E3E3E3" rx="8" ry="8" style="stroke:#181818;stroke-width:0.5;"/><path d="M62.8481,21.5 L62.8481,48.5 M49.8481,29.5 L75.8481,29.5 M62.8481,48.5 L49.8481,63.5 M62.8481,48.5 L75.8481,63.5" fill="none" style="stroke:#181818;stroke-width:0.5;"/></g><g class="participant participant-tail" data-participant="Member"><text fill="#000000" font-family="sans-serif" font-size="14" lengthAdjust="spacing" textLength="109.6963" x="5" y="371.7881">Ethics Committee</text><text fill="#000000" font-family="sans-serif" font-size="14" lengthAdjust="spacing" textLength="51.3447" x="34.1758" y="388.9395">Member</text><ellipse cx="62.8481" cy="400.5156" fill="#E3E3E3" rx="8" ry="8" style="stroke:#181818;stroke-width:0.5;"/><path d="M62.8481,408.5156 L62.8481,435.5156 M49.8481,416.5156 L75.8481,416.5156 M62.8481,435.5156 L49.8481,450.5156 M62.8481,435.5156 L75.8481,450.5156" fill="none" style="stroke:#181818;stroke-width:0.5;"/></g><g class="participant participant-head" data-participant="System"><rect fill="#E3E3E3" height="31.1514" rx="2.5" ry="2.5" style="stroke:#181818;stroke-width:0.5;" width="64.5654" x="305.646" y="67.1514"/><text fill="#000000" font-family="sans-serif" font-size="14" lengthAdjust="spacing" textLength="50.5654" x="312.646" y="88.2266">:System</text></g><g class="participant participant-tail" data-participant="System"><rect fill="#E3E3E3" height="31.1514" rx="2.5" ry="2.5" style="stroke:#181818;stroke-width:0.5;" width="64.5654" x="305.646" y="357.7129"/><text fill="#000000" font-family="sans-serif" font-size="14" lengthAdjust="spacing" textLength="50.5654" x="312.646" y="378.7881">:System</text></g><g><title>Ethics Committee</title><rect fill="#FFFFFF" height="231.4102" style="stroke:#181818;stroke-width:1;" width="10" x="57.8481" y="109.3027"/></g><g><title>.System</title><rect fill="#FFFFFF" height="29.9263" style="stroke:#181818;stroke-width:1;" width="10" x="332.9287" y="131.229"/></g><g><title>.System</title><rect fill="#FFFFFF" height="29.9263" style="stroke:#181818;stroke-width:1;" width="10" x="332.9287" y="191.0815"/></g><g><title>.System</title><rect fill="#FFFFFF" height="29.9263" style="stroke:#181818;stroke-width:1;" width="10" x="332.9287" y="250.9341"/></g><g><title>.System</title><rect fill="#FFFFFF" height="29.9263" style="stroke:#181818;stroke-width:1;" width="10" x="332.9287" y="310.7866"/></g><g class="message" data-participant-1="Member" data-participant-2="System"><polygon fill="#181818" points="320.9287,127.229,330.9287,131.229,320.9287,135.229,324.9287,131.229" style="stroke:#181818;stroke-width:1;"/><line style="stroke:#181818;stroke-width:1;" x1="67.8481" x2="326.9287" y1="131.229" y2="131.229"/><text fill="#000000" font-family="sans-serif" font-size="13" font-weight="bold" lengthAdjust="spacing" textLength="7.23" x="74.8481" y="126.3726">1</text><text fill="#000000" font-family="sans-serif" font-size="13" lengthAdjust="spacing" textLength="234.8506" x="86.0781" y="126.3726">asks to validate a declaration of interests</text></g><g class="message" data-participant-1="System" data-participant-2="Member"><polygon fill="#181818" points="78.8481,157.1553,68.8481,161.1553,78.8481,165.1553,74.8481,161.1553" style="stroke:#181818;stroke-width:1;"/><line style="stroke:#181818;stroke-width:1;stroke-dasharray:2,2;" x1="72.8481" x2="336.9287" y1="161.1553" y2="161.1553"/><text fill="#000000" font-family="sans-serif" font-size="13" font-weight="bold" lengthAdjust="spacing" textLength="7.23" x="84.8481" y="156.2988">2</text><text fill="#000000" font-family="sans-serif" font-size="13" lengthAdjust="spacing" textLength="164.0298" x="96.0781" y="156.2988">shows submitted declaration</text></g><g class="message" data-participant-1="Member" data-participant-2="System"><polygon fill="#181818" points="320.9287,187.0815,330.9287,191.0815,320.9287,195.0815,324.9287,191.0815" style="stroke:#181818;stroke-width:1;"/><line style="stroke:#181818;stroke-width:1;" x1="67.8481" x2="326.9287" y1="191.0815" y2="191.0815"/><text fill="#000000" font-family="sans-serif" font-size="13" font-weight="bold" lengthAdjust="spacing" textLength="7.23" x="74.8481" y="186.2251">3</text><text fill="#000000" font-family="sans-serif" font-size="13" lengthAdjust="spacing" textLength="118.5171" x="86.0781" y="186.2251">analyzes declaration</text></g><g class="message" data-participant-1="System" data-participant-2="Member"><polygon fill="#181818" points="78.8481,217.0078,68.8481,221.0078,78.8481,225.0078,74.8481,221.0078" style="stroke:#181818;stroke-width:1;"/><line style="stroke:#181818;stroke-width:1;stroke-dasharray:2,2;" x1="72.8481" x2="336.9287" y1="221.0078" y2="221.0078"/><text fill="#000000" font-family="sans-serif" font-size="13" font-weight="bold" lengthAdjust="spacing" textLength="7.23" x="84.8481" y="216.1514">4</text><text fill="#000000" font-family="sans-serif" font-size="13" lengthAdjust="spacing" textLength="159.707" x="96.0781" y="216.1514">requests validation decision</text></g><g class="message" data-participant-1="Member" data-participant-2="System"><polygon fill="#181818" points="320.9287,246.9341,330.9287,250.9341,320.9287,254.9341,324.9287,250.9341" style="stroke:#181818;stroke-width:1;"/><line style="stroke:#181818;stroke-width:1;" x1="67.8481" x2="326.9287" y1="250.9341" y2="250.9341"/><text fill="#000000" font-family="sans-serif" font-size="13" font-weight="bold" lengthAdjust="spacing" textLength="7.23" x="74.8481" y="246.0776">5</text><text fill="#000000" font-family="sans-serif" font-size="13" lengthAdjust="spacing" textLength="118.5171" x="86.0781" y="246.0776">validates declaration</text></g><g class="message" data-participant-1="System" data-participant-2="Member"><polygon fill="#181818" points="78.8481,276.8604,68.8481,280.8604,78.8481,284.8604,74.8481,280.8604" style="stroke:#181818;stroke-width:1;"/><line style="stroke:#181818;stroke-width:1;stroke-dasharray:2,2;" x1="72.8481" x2="336.9287" y1="280.8604" y2="280.8604"/><text fill="#000000" font-family="sans-serif" font-size="13" font-weight="bold" lengthAdjust="spacing" textLength="7.23" x="84.8481" y="276.0039">6</text><text fill="#000000" font-family="sans-serif" font-size="13" lengthAdjust="spacing" textLength="156.0762" x="96.0781" y="276.0039">displays validation success</text></g><g class="message" data-participant-1="Member" data-participant-2="System"><polygon fill="#181818" points="320.9287,306.7866,330.9287,310.7866,320.9287,314.7866,324.9287,310.7866" style="stroke:#181818;stroke-width:1;"/><line style="stroke:#181818;stroke-width:1;" x1="67.8481" x2="326.9287" y1="310.7866" y2="310.7866"/><text fill="#000000" font-family="sans-serif" font-size="13" font-weight="bold" lengthAdjust="spacing" textLength="7.23" x="74.8481" y="305.9302">7</text><text fill="#000000" font-family="sans-serif" font-size="13" lengthAdjust="spacing" textLength="151.728" x="86.0781" y="305.9302">comments inconsistencies</text></g><g class="message" data-participant-1="System" data-participant-2="Member"><polygon fill="#181818" points="73.8481,336.7129,63.8481,340.7129,73.8481,344.7129,69.8481,340.7129" style="stroke:#181818;stroke-width:1;"/><line style="stroke:#181818;stroke-width:1;stroke-dasharray:2,2;" x1="67.8481" x2="336.9287" y1="340.7129" y2="340.7129"/><text fill="#000000" font-family="sans-serif" font-size="13" font-weight="bold" lengthAdjust="spacing" textLength="7.23" x="79.8481" y="335.8564">8</text><text fill="#000000" font-family="sans-serif" font-size="13" lengthAdjust="spacing" textLength="155.3589" x="91.0781" y="335.8564">displays operation success</text></g><!--SRC=[fP8zRiCm34PtduB8dWjaw59qx9Ir2oCpDX69T4KwWNFwodz1YcPe44s4H3wzJv2TM3hCc22fQ6Yp9WBFFLLsE-amdB2XlG-H85Dmb2RUDrYBjLvO6ZXYDAegx5sbJmVAfGwk6JOVtd8mUDUKs9teIpvfRDW06inbLMZEWJiKXyrkFvXJcixdScBn6PtMWGhAcclOlYrji2iZ9mDNE6FaUkn7g2d48kki0de45gTCvZOXRjpr8bZMGjmM-7BDhgJLYu7rXob8VK-UvcfwY7kaAHY7AzaVn5C-cRxxCScQTanOW6pF2wtlzQ9HpTP577uPMHy2cJqf5Cft8IdPM8AASTcMm6GlE6b7-LzATrlBT_i1]--></g></svg>