<svg xmlns="http://www.w3.org/2000/svg" xmlns:xlink="http://www.w3.org/1999/xlink" contentStyleType="text/css" data-diagram-type="SEQUENCE" height="504px" preserveAspectRatio="none" style="width:562px;height:504px;background:#FFFFFF;" version="1.1" viewBox="0 0 562 504" width="562px" zoomAndPan="magnify"><defs/><g><g><title>Ethics Committee</title><rect fill="#FFFFFF" height="286.8125" style="stroke:#181818;stroke-width:1;" width="10" x="72.8481" y="109.3027"/></g><g><title>.System</title><rect fill="#FFFFFF" height="29.9263" style="stroke:#181818;stroke-width:1;" width="10" x="508.2813" y="131.229"/></g><g><title>.System</title><rect fill="#FFFFFF" height="29.9263" style="stroke:#181818;stroke-width:1;" width="10" x="508.2813" y="191.0815"/></g><g><title>.System</title><rect fill="#FFFFFF" height="29.9263" style="stroke:#181818;stroke-width:1;" width="10" x="508.2813" y="275.8604"/></g><g><title>.System</title><rect fill="#FFFFFF" height="29.9263" style="stroke:#181818;stroke-width:1;" width="10" x="508.2813" y="351.189"/></g><rect fill="none" height="153.1074" style="stroke:#000000;stroke-width:1.5;" width="545.564" x="10" y="236.0078"/><g><title>Ethics Committee</title><rect fill="#000000" fill-opacity="0.00000" height="306.8125" width="8" x="73.8481" y="99.3027"/><line style="stroke:#181818;stroke-width:0.5;stroke-dasharray:5,5;" x1="77" x2="77" y1="99.3027" y2="406.1152"/></g><g><title>.System</title><rect fill="#000000" fill-opacity="0.00000" height="306.8125" width="8" x="509.2813" y="99.3027"/><line style="stroke:#181818;stroke-width:0.5;stroke-dasharray:5,5;" x1="512.9985" x2="512.9985" y1="99.3027" y2="406.1152"/></g><g class="participant participant-head" data-participant="Member"><text fill="#000000" font-family="sans-serif" font-size="14" lengthAdjust="spacing" textLength="109.6963" x="20" y="79.0752">Ethics Committee</text><text fill="#000000" font-family="sans-serif" font-size="14" lengthAdjust="spacing" textLength="51.3447" x="49.1758" y="96.2266">Member</text><ellipse cx="77.8481" cy="13.5" fill="#E3E3E3" rx="8" ry="8" style="stroke:#181818;stroke-width:0.5;"/><path d="M77.8481,21.5 L77.8481,48.5 M64.8481,29.5 L90.8481,29.5 M77.8481,48.5 L64.8481,63.5 M77.8481,48.5 L90.8481,63.5" fill="none" style="stroke:#181818;stroke-width:0.5;"/></g><g class="participant participant-tail" data-participant="Member"><text fill="#000000" font-family="sans-serif" font-size="14" lengthAdjust="spacing" textLength="109.6963" x="20" y="419.1904">Ethics Committee</text><text fill="#000000" font-family="sans-serif" font-size="14" lengthAdjust="spacing" textLength="51.3447" x="49.1758" y="436.3418">Member</text><ellipse cx="77.8481" cy="447.918" fill="#E3E3E3" rx="8" ry="8" style="stroke:#181818;stroke-width:0.5;"/><path d="M77.8481,455.918 L77.8481,482.918 M64.8481,463.918 L90.8481,463.918 M77.8481,482.918 L64.8481,497.918 M77.8481,482.918 L90.8481,497.918" fill="none" style="stroke:#181818;stroke-width:0.5;"/></g><g class="participant participant-head" data-participant="System"><rect fill="#E3E3E3" height="31.1514" rx="2.5" ry="2.5" style="stroke:#181818;stroke-width:0.5;" width="64.5654" x="480.9985" y="67.1514"/><text fill="#000000" font-family="sans-serif" font-size="14" lengthAdjust="spacing" textLength="50.5654" x="487.9985" y="88.2266">:System</text></g><g class="participant participant-tail" data-participant="System"><rect fill="#E3E3E3" height="31.1514" rx="2.5" ry="2.5" style="stroke:#181818;stroke-width:0.5;" width="64.5654" x="480.9985" y="405.1152"/><text fill="#000000" font-family="sans-serif" font-size="14" lengthAdjust="spacing" textLength="50.5654" x="487.9985" y="426.1904">:System</text></g><g><title>Ethics Committee</title><rect fill="#FFFFFF" height="286.8125" style="stroke:#181818;stroke-width:1;" width="10" x="72.8481" y="109.3027"/></g><g><title>.System</title><rect fill="#FFFFFF" height="29.9263" style="stroke:#181818;stroke-width:1;" width="10" x="508.2813" y="131.229"/></g><g><title>.System</title><rect fill="#FFFFFF" height="29.9263" style="stroke:#181818;stroke-width:1;" width="10" x="508.2813" y="191.0815"/></g><g><title>.System</title><rect fill="#FFFFFF" height="29.9263" style="stroke:#181818;stroke-width:1;" width="10" x="508.2813" y="275.8604"/></g><g><title>.System</title><rect fill="#FFFFFF" height="29.9263" style="stroke:#181818;stroke-width:1;" width="10" x="508.2813" y="351.189"/></g><g class="message" data-participant-1="Member" data-participant-2="System"><polygon fill="#181818" points="496.2813,127.229,506.2813,131.229,496.2813,135.229,500.2813,131.229" style="stroke:#181818;stroke-width:1;"/><line style="stroke:#181818;stroke-width:1;" x1="82.8481" x2="502.2813" y1="131.229" y2="131.229"/><text fill="#000000" font-family="sans-serif" font-size="13" font-weight="bold" lengthAdjust="spacing" textLength="7.23" x="89.8481" y="126.3726">1</text><text fill="#000000" font-family="sans-serif" font-size="13" lengthAdjust="spacing" textLength="234.8506" x="101.0781" y="126.3726">asks to validate a declaration of interests</text></g><g class="message" data-participant-1="System" data-participant-2="Member"><polygon fill="#181818" points="93.8481,157.1553,83.8481,161.1553,93.8481,165.1553,89.8481,161.1553" style="stroke:#181818;stroke-width:1;"/><line style="stroke:#181818;stroke-width:1;stroke-dasharray:2,2;" x1="87.8481" x2="512.2813" y1="161.1553" y2="161.1553"/><text fill="#000000" font-family="sans-serif" font-size="13" font-weight="bold" lengthAdjust="spacing" textLength="7.23" x="99.8481" y="156.2988">2</text><text fill="#000000" font-family="sans-serif" font-size="13" lengthAdjust="spacing" textLength="217.4961" x="111.0781" y="156.2988">presents list of submitted declarations</text></g><g class="message" data-participant-1="Member" data-participant-2="System"><polygon fill="#181818" points="496.2813,187.0815,506.2813,191.0815,496.2813,195.0815,500.2813,191.0815" style="stroke:#181818;stroke-width:1;"/><line style="stroke:#181818;stroke-width:1;" x1="82.8481" x2="502.2813" y1="191.0815" y2="191.0815"/><text fill="#000000" font-family="sans-serif" font-size="13" font-weight="bold" lengthAdjust="spacing" textLength="7.23" x="89.8481" y="186.2251">3</text><text fill="#000000" font-family="sans-serif" font-size="13" lengthAdjust="spacing" textLength="185.707" x="101.0781" y="186.2251">selects a declaration of interests</text></g><g class="message" data-participant-1="System" data-participant-2="Member"><polygon fill="#181818" points="93.8481,217.0078,83.8481,221.0078,93.8481,225.0078,89.8481,221.0078" style="stroke:#181818;stroke-width:1;"/><line style="stroke:#181818;stroke-width:1;stroke-dasharray:2,2;" x1="87.8481" x2="512.2813" y1="221.0078" y2="221.0078"/><text fill="#000000" font-family="sans-serif" font-size="13" font-weight="bold" lengthAdjust="spacing" textLength="7.23" x="99.8481" y="216.1514">4</text><text fill="#000000" font-family="sans-serif" font-size="13" lengthAdjust="spacing" textLength="145.2471" x="111.0781" y="216.1514">shows declaration details</text></g><path d="M10,236.0078 L70.1709,236.0078 L70.1709,243.9341 L60.1709,253.9341 L10,253.9341 L10,236.0078" fill="#EEEEEE" style="stroke:#000000;stroke-width:1.5;"/><rect fill="none" height="153.1074" style="stroke:#000000;stroke-width:1.5;" width="545.564" x="10" y="236.0078"/><text fill="#000000" font-family="sans-serif" font-size="13" font-weight="bold" lengthAdjust="spacing" textLength="15.1709" x="25" y="250.0776">alt</text><text fill="#000000" font-family="sans-serif" font-size="11" font-weight="bold" lengthAdjust="spacing" textLength="118.5938" x="85.1709" y="249.0669">[declaration is correct]</text><g class="message" data-participant-1="Member" data-participant-2="System"><polygon fill="#181818" points="496.2813,271.8604,506.2813,275.8604,496.2813,279.8604,500.2813,275.8604" style="stroke:#181818;stroke-width:1;"/><line style="stroke:#181818;stroke-width:1;" x1="82.8481" x2="502.2813" y1="275.8604" y2="275.8604"/><text fill="#000000" font-family="sans-serif" font-size="13" font-weight="bold" lengthAdjust="spacing" textLength="7.23" x="89.8481" y="271.0039">5</text><text fill="#000000" font-family="sans-serif" font-size="13" lengthAdjust="spacing" textLength="142.3716" x="101.0781" y="271.0039">approves the declaration</text></g><g class="message" data-participant-1="System" data-participant-2="Member"><polygon fill="#181818" points="93.8481,301.7866,83.8481,305.7866,93.8481,309.7866,89.8481,305.7866" style="stroke:#181818;stroke-width:1;"/><line style="stroke:#181818;stroke-width:1;stroke-dasharray:2,2;" x1="87.8481" x2="512.2813" y1="305.7866" y2="305.7866"/><text fill="#000000" font-family="sans-serif" font-size="13" font-weight="bold" lengthAdjust="spacing" textLength="7.23" x="99.8481" y="300.9302">6</text><text fill="#000000" font-family="sans-serif" font-size="13" lengthAdjust="spacing" textLength="312.876" x="111.0781" y="300.9302">informs that the declaration was successfully validated</text></g><line style="stroke:#000000;stroke-width:1;stroke-dasharray:2,2;" x1="10" x2="555.564" y1="314.7866" y2="314.7866"/><text fill="#000000" font-family="sans-serif" font-size="11" font-weight="bold" lengthAdjust="spacing" textLength="173.6099" x="15" y="325.8457">[declaration has inconsistencies]</text><g class="message" data-participant-1="Member" data-participant-2="System"><polygon fill="#181818" points="496.2813,347.189,506.2813,351.189,496.2813,355.189,500.2813,351.189" style="stroke:#181818;stroke-width:1;"/><line style="stroke:#181818;stroke-width:1;" x1="82.8481" x2="502.2813" y1="351.189" y2="351.189"/><text fill="#000000" font-family="sans-serif" font-size="13" font-weight="bold" lengthAdjust="spacing" textLength="7.23" x="89.8481" y="346.3325">7</text><text fill="#000000" font-family="sans-serif" font-size="13" lengthAdjust="spacing" textLength="359.1187" x="101.0781" y="346.3325">rejects the declaration with comments on inconsistent sections</text></g><g class="message" data-participant-1="System" data-participant-2="Member"><polygon fill="#181818" points="93.8481,377.1152,83.8481,381.1152,93.8481,385.1152,89.8481,381.1152" style="stroke:#181818;stroke-width:1;"/><line style="stroke:#181818;stroke-width:1;stroke-dasharray:2,2;" x1="87.8481" x2="512.2813" y1="381.1152" y2="381.1152"/><text fill="#000000" font-family="sans-serif" font-size="13" font-weight="bold" lengthAdjust="spacing" textLength="7.23" x="99.8481" y="376.2588">8</text><text fill="#000000" font-family="sans-serif" font-size="13" lengthAdjust="spacing" textLength="390.2031" x="111.0781" y="376.2588">informs that the declaration was rejected and returned for correction</text></g><!--SRC=[jPAxSi9034LxVuM6dX-WI9D9cOesZTYLiS8-F2iPXh-F_C0O25J9Lh9NEhghApbmQh5WX9XJTat9aK1BHvNCDosw0-vfg-T0KCWffdrO9aY3FfyuxQ7685HLs6bENTnHiTXfBh3wq8QTm7kEaLM9lj8dzGahG84nh8ocxBZ5fB3QRC-Y58VxCHnOV4IbIq45TiOOrczJ6coiv22W6OuOsFVv29vSCB7AEK6kWPDI8L4P43DtQWJJcO1hOqzTDj1Q6IKL22pQewJR3K_oonuZrzCz-PbYeM23bRyKAaq-oGtEaoA7bz8mw4q92xXSUjFdNh_DksrBFfBDlA5b-LppJFSpxPpgN6BFGxs7miasGZhdIAJkGZZFDlkP-_Yw_Y_PSjwG6YDnScQNUKd9CSchPnRw7anw4CJQs9XY7FQYdzgLgMQjksx4lmnZr6KBYCdRXtObsOSLNRnRMl5aDCbNrU9gRFu3]--></g></svg>