<?xml version="1.0" encoding="us-ascii" standalone="no"?><svg xmlns="http://www.w3.org/2000/svg" xmlns:xlink="http://www.w3.org/1999/xlink" contentStyleType="text/css" height="1432px" preserveAspectRatio="none" style="width:2298px;height:1432px;background:#FFFFFF;" version="1.1" viewBox="0 0 2298 1432" width="2298px" zoomAndPan="magnify"><defs/><g><rect fill="#FFFFFF" height="1239.9688" style="stroke:#181818;stroke-width:1.0;" width="10" x="56" y="92.6094"/><rect fill="#FFFFFF" height="315.7734" style="stroke:#181818;stroke-width:1.0;" width="10" x="411" y="114.9609"/><rect fill="#FFFFFF" height="871.4922" style="stroke:#181818;stroke-width:1.0;" width="10" x="411" y="461.0859"/><rect fill="#FFFFFF" height="212.4609" style="stroke:#181818;stroke-width:1.0;" width="10" x="715" y="187.9219"/><rect fill="#FFFFFF" height="810.7891" style="stroke:#181818;stroke-width:1.0;" width="10" x="715" y="491.4375"/><rect fill="#FFFFFF" height="405.5703" style="stroke:#181818;stroke-width:1.0;" width="10" x="720" y="529.7891"/><rect fill="#FFFFFF" height="41.3516" style="stroke:#181818;stroke-width:1.0;" width="10" x="720" y="1162.8203"/><rect fill="#FFFFFF" height="30.3516" style="stroke:#181818;stroke-width:1.0;" width="10" x="1018" y="218.2734"/><rect fill="#FFFFFF" height="30.3516" style="stroke:#181818;stroke-width:1.0;" width="10" x="1018" y="747.25"/><rect fill="#FFFFFF" height="30.3516" style="stroke:#181818;stroke-width:1.0;" width="10" x="1018" y="972.7109"/><rect fill="#FFFFFF" height="30.3516" style="stroke:#181818;stroke-width:1.0;" width="10" x="1123" y="278.9766"/><rect fill="#FFFFFF" height="30.3516" style="stroke:#181818;stroke-width:1.0;" width="10" x="1123" y="807.9531"/><rect fill="#FFFFFF" height="30.3516" style="stroke:#181818;stroke-width:1.0;" width="10" x="1123" y="1033.4141"/><rect fill="#FFFFFF" height="30.3516" style="stroke:#181818;stroke-width:1.0;" width="10" x="1267" y="339.6797"/><rect fill="#FFFFFF" height="30.3516" style="stroke:#181818;stroke-width:1.0;" width="10" x="1429" y="565.1406"/><rect fill="#FFFFFF" height="30.3516" style="stroke:#181818;stroke-width:1.0;" width="10" x="1574" y="625.8438"/><rect fill="#FFFFFF" height="30.3516" style="stroke:#181818;stroke-width:1.0;" width="10" x="1707" y="686.5469"/><rect fill="#FFFFFF" height="30.3516" style="stroke:#181818;stroke-width:1.0;" width="10" x="1829" y="868.6563"/><rect fill="#FFFFFF" height="30.3516" style="stroke:#181818;stroke-width:1.0;" width="10" x="2048.5" y="1094.1172"/><rect fill="#FFFFFF" height="30.3516" style="stroke:#181818;stroke-width:1.0;" width="10" x="2212.5" y="1241.5234"/><line style="stroke:#181818;stroke-width:0.5;stroke-dasharray:5.0,5.0;" x1="61" x2="61" y1="82.6094" y2="1350.5781"/><line style="stroke:#181818;stroke-width:0.5;stroke-dasharray:5.0,5.0;" x1="416" x2="416" y1="82.6094" y2="1350.5781"/><line style="stroke:#181818;stroke-width:0.5;stroke-dasharray:5.0,5.0;" x1="720" x2="720" y1="154.2656" y2="1350.5781"/><line style="stroke:#181818;stroke-width:0.5;stroke-dasharray:5.0,5.0;" x1="1022.5" x2="1022.5" y1="82.6094" y2="1350.5781"/><line style="stroke:#181818;stroke-width:0.5;stroke-dasharray:5.0,5.0;" x1="1127.5" x2="1127.5" y1="82.6094" y2="1350.5781"/><line style="stroke:#181818;stroke-width:0.5;stroke-dasharray:5.0,5.0;" x1="1271.5" x2="1271.5" y1="82.6094" y2="1350.5781"/><line style="stroke:#181818;stroke-width:0.5;stroke-dasharray:5.0,5.0;" x1="1433.5" x2="1433.5" y1="82.6094" y2="1350.5781"/><line style="stroke:#181818;stroke-width:0.5;stroke-dasharray:5.0,5.0;" x1="1578.5" x2="1578.5" y1="82.6094" y2="1350.5781"/><line style="stroke:#181818;stroke-width:0.5;stroke-dasharray:5.0,5.0;" x1="1711.5" x2="1711.5" y1="82.6094" y2="1350.5781"/><line style="stroke:#181818;stroke-width:0.5;stroke-dasharray:5.0,5.0;" x1="1833.5" x2="1833.5" y1="82.6094" y2="1350.5781"/><line style="stroke:#181818;stroke-width:0.5;stroke-dasharray:5.0,5.0;" x1="1932.5" x2="1932.5" y1="82.6094" y2="1350.5781"/><line style="stroke:#181818;stroke-width:0.5;stroke-dasharray:5.0,5.0;" x1="2053.5" x2="2053.5" y1="82.6094" y2="1350.5781"/><line style="stroke:#181818;stroke-width:0.5;stroke-dasharray:5.0,5.0;" x1="2217.5" x2="2217.5" y1="82.6094" y2="1350.5781"/><text fill="#000000" font-family="sans-serif" font-size="14" lengthAdjust="spacing" textLength="106" x="5" y="79.5332">Citizen/Journalist</text><ellipse cx="61" cy="13.5" fill="#E2E2F0" rx="8" ry="8" style="stroke:#181818;stroke-width:0.5;"/><path d="M61,21.5 L61,48.5 M48,29.5 L74,29.5 M61,48.5 L48,63.5 M61,48.5 L74,63.5 " fill="none" style="stroke:#181818;stroke-width:0.5;"/><text fill="#000000" font-family="sans-serif" font-size="14" lengthAdjust="spacing" textLength="106" x="5" y="1364.1113">Citizen/Journalist</text><ellipse cx="61" cy="1375.6875" fill="#E2E2F0" rx="8" ry="8" style="stroke:#181818;stroke-width:0.5;"/><path d="M61,1383.6875 L61,1410.6875 M48,1391.6875 L74,1391.6875 M61,1410.6875 L48,1425.6875 M61,1410.6875 L74,1425.6875 " fill="none" style="stroke:#181818;stroke-width:0.5;"/><rect fill="#E2E2F0" height="31.6094" rx="2.5" ry="2.5" style="stroke:#181818;stroke-width:0.5;" width="120" x="356" y="50"/><text fill="#000000" font-family="sans-serif" font-size="14" lengthAdjust="spacing" textLength="106" x="363" y="71.5332">:ConsultAssetsUI</text><rect fill="#E2E2F0" height="31.6094" rx="2.5" ry="2.5" style="stroke:#181818;stroke-width:0.5;" width="120" x="356" y="1349.5781"/><text fill="#000000" font-family="sans-serif" font-size="14" lengthAdjust="spacing" textLength="106" x="363" y="1371.1113">:ConsultAssetsUI</text><rect fill="#E2E2F0" height="31.6094" rx="2.5" ry="2.5" style="stroke:#181818;stroke-width:0.5;" width="170" x="635" y="1349.5781"/><text fill="#000000" font-family="sans-serif" font-size="14" lengthAdjust="spacing" textLength="156" x="642" y="1371.1113">:ConsultAssetsController</text><rect fill="#E2E2F0" height="31.6094" rx="2.5" ry="2.5" style="stroke:#181818;stroke-width:0.5;" width="93" x="976.5" y="50"/><text fill="#000000" font-family="sans-serif" font-size="14" lengthAdjust="spacing" textLength="79" x="983.5" y="71.5332">Repositories</text><rect fill="#E2E2F0" height="31.6094" rx="2.5" ry="2.5" style="stroke:#181818;stroke-width:0.5;" width="93" x="976.5" y="1349.5781"/><text fill="#000000" font-family="sans-serif" font-size="14" lengthAdjust="spacing" textLength="79" x="983.5" y="1371.1113">Repositories</text><rect fill="#E2E2F0" height="49.2188" rx="2.5" ry="2.5" style="stroke:#181818;stroke-width:0.5;" width="97" x="1079.5" y="32.3906"/><text fill="#000000" font-family="sans-serif" font-size="14" lengthAdjust="spacing" textLength="74" x="1091" y="53.9238">repositories</text><text fill="#000000" font-family="sans-serif" font-size="14" lengthAdjust="spacing" textLength="83" x="1086.5" y="71.5332">:Repositories</text><rect fill="#E2E2F0" height="49.2188" rx="2.5" ry="2.5" style="stroke:#181818;stroke-width:0.5;" width="97" x="1079.5" y="1349.5781"/><text fill="#000000" font-family="sans-serif" font-size="14" lengthAdjust="spacing" textLength="74" x="1091" y="1371.1113">repositories</text><text fill="#000000" font-family="sans-serif" font-size="14" lengthAdjust="spacing" textLength="83" x="1086.5" y="1388.7207">:Repositories</text><rect fill="#E2E2F0" height="49.2188" rx="2.5" ry="2.5" style="stroke:#181818;stroke-width:0.5;" width="171" x="1186.5" y="32.3906"/><text fill="#000000" font-family="sans-serif" font-size="14" lengthAdjust="spacing" textLength="152" x="1196" y="53.9238">politicalAgentRepository</text><text fill="#000000" font-family="sans-serif" font-size="14" lengthAdjust="spacing" textLength="157" x="1193.5" y="71.5332">:PoliticalAgentRepository</text><rect fill="#E2E2F0" height="49.2188" rx="2.5" ry="2.5" style="stroke:#181818;stroke-width:0.5;" width="171" x="1186.5" y="1349.5781"/><text fill="#000000" font-family="sans-serif" font-size="14" lengthAdjust="spacing" textLength="152" x="1196" y="1371.1113">politicalAgentRepository</text><text fill="#000000" font-family="sans-serif" font-size="14" lengthAdjust="spacing" textLength="157" x="1193.5" y="1388.7207">:PoliticalAgentRepository</text><rect fill="#E2E2F0" height="31.6094" rx="2.5" ry="2.5" style="stroke:#181818;stroke-width:0.5;" width="133" x="1367.5" y="50"/><text fill="#000000" font-family="sans-serif" font-size="14" lengthAdjust="spacing" textLength="119" x="1374.5" y="71.5332">ApplicationSession</text><rect fill="#E2E2F0" height="31.6094" rx="2.5" ry="2.5" style="stroke:#181818;stroke-width:0.5;" width="133" x="1367.5" y="1349.5781"/><text fill="#000000" font-family="sans-serif" font-size="14" lengthAdjust="spacing" textLength="119" x="1374.5" y="1371.1113">ApplicationSession</text><rect fill="#E2E2F0" height="49.2188" rx="2.5" ry="2.5" style="stroke:#181818;stroke-width:0.5;" width="137" x="1510.5" y="32.3906"/><text fill="#000000" font-family="sans-serif" font-size="14" lengthAdjust="spacing" textLength="74" x="1542" y="53.9238">appSession</text><text fill="#000000" font-family="sans-serif" font-size="14" lengthAdjust="spacing" textLength="123" x="1517.5" y="71.5332">:ApplicationSession</text><rect fill="#E2E2F0" height="49.2188" rx="2.5" ry="2.5" style="stroke:#181818;stroke-width:0.5;" width="137" x="1510.5" y="1349.5781"/><text fill="#000000" font-family="sans-serif" font-size="14" lengthAdjust="spacing" textLength="74" x="1542" y="1371.1113">appSession</text><text fill="#000000" font-family="sans-serif" font-size="14" lengthAdjust="spacing" textLength="123" x="1517.5" y="1388.7207">:ApplicationSession</text><rect fill="#E2E2F0" height="49.2188" rx="2.5" ry="2.5" style="stroke:#181818;stroke-width:0.5;" width="109" x="1657.5" y="32.3906"/><text fill="#000000" font-family="sans-serif" font-size="14" lengthAdjust="spacing" textLength="95" x="1664.5" y="53.9238">currentSession</text><text fill="#000000" font-family="sans-serif" font-size="14" lengthAdjust="spacing" textLength="83" x="1670.5" y="71.5332">:UserSession</text><rect fill="#E2E2F0" height="49.2188" rx="2.5" ry="2.5" style="stroke:#181818;stroke-width:0.5;" width="109" x="1657.5" y="1349.5781"/><text fill="#000000" font-family="sans-serif" font-size="14" lengthAdjust="spacing" textLength="95" x="1664.5" y="1371.1113">currentSession</text><text fill="#000000" font-family="sans-serif" font-size="14" lengthAdjust="spacing" textLength="83" x="1670.5" y="1388.7207">:UserSession</text><rect fill="#E2E2F0" height="49.2188" rx="2.5" ry="2.5" style="stroke:#181818;stroke-width:0.5;" width="115" x="1776.5" y="32.3906"/><text fill="#000000" font-family="sans-serif" font-size="14" lengthAdjust="spacing" textLength="96" x="1786" y="53.9238">userRepository</text><text fill="#000000" font-family="sans-serif" font-size="14" lengthAdjust="spacing" textLength="101" x="1783.5" y="71.5332">:UserRepository</text><rect fill="#E2E2F0" height="49.2188" rx="2.5" ry="2.5" style="stroke:#181818;stroke-width:0.5;" width="115" x="1776.5" y="1349.5781"/><text fill="#000000" font-family="sans-serif" font-size="14" lengthAdjust="spacing" textLength="96" x="1786" y="1371.1113">userRepository</text><text fill="#000000" font-family="sans-serif" font-size="14" lengthAdjust="spacing" textLength="101" x="1783.5" y="1388.7207">:UserRepository</text><rect fill="#E2E2F0" height="49.2188" rx="2.5" ry="2.5" style="stroke:#181818;stroke-width:0.5;" width="63" x="1901.5" y="32.3906"/><text fill="#000000" font-family="sans-serif" font-size="14" lengthAdjust="spacing" textLength="28" x="1919" y="53.9238">user</text><text fill="#000000" font-family="sans-serif" font-size="14" lengthAdjust="spacing" textLength="49" x="1908.5" y="71.5332">:Person</text><rect fill="#E2E2F0" height="49.2188" rx="2.5" ry="2.5" style="stroke:#181818;stroke-width:0.5;" width="63" x="1901.5" y="1349.5781"/><text fill="#000000" font-family="sans-serif" font-size="14" lengthAdjust="spacing" textLength="28" x="1919" y="1371.1113">user</text><text fill="#000000" font-family="sans-serif" font-size="14" lengthAdjust="spacing" textLength="49" x="1908.5" y="1388.7207">:Person</text><rect fill="#E2E2F0" height="49.2188" rx="2.5" ry="2.5" style="stroke:#181818;stroke-width:0.5;" width="158" x="1974.5" y="32.3906"/><text fill="#000000" font-family="sans-serif" font-size="14" lengthAdjust="spacing" textLength="138" x="1984.5" y="53.9238">declarationRepository</text><text fill="#000000" font-family="sans-serif" font-size="14" lengthAdjust="spacing" textLength="144" x="1981.5" y="71.5332">:DeclarationRepository</text><rect fill="#E2E2F0" height="49.2188" rx="2.5" ry="2.5" style="stroke:#181818;stroke-width:0.5;" width="158" x="1974.5" y="1349.5781"/><text fill="#000000" font-family="sans-serif" font-size="14" lengthAdjust="spacing" textLength="138" x="1984.5" y="1371.1113">declarationRepository</text><text fill="#000000" font-family="sans-serif" font-size="14" lengthAdjust="spacing" textLength="144" x="1981.5" y="1388.7207">:DeclarationRepository</text><rect fill="#E2E2F0" height="49.2188" rx="2.5" ry="2.5" style="stroke:#181818;stroke-width:0.5;" width="150" x="2142.5" y="32.3906"/><text fill="#000000" font-family="sans-serif" font-size="14" lengthAdjust="spacing" textLength="131" x="2152" y="53.9238">assetVisibilityService</text><text fill="#000000" font-family="sans-serif" font-size="14" lengthAdjust="spacing" textLength="136" x="2149.5" y="71.5332">:AssetVisibilityService</text><rect fill="#E2E2F0" height="49.2188" rx="2.5" ry="2.5" style="stroke:#181818;stroke-width:0.5;" width="150" x="2142.5" y="1349.5781"/><text fill="#000000" font-family="sans-serif" font-size="14" lengthAdjust="spacing" textLength="131" x="2152" y="1371.1113">assetVisibilityService</text><text fill="#000000" font-family="sans-serif" font-size="14" lengthAdjust="spacing" textLength="136" x="2149.5" y="1388.7207">:AssetVisibilityService</text><rect fill="#FFFFFF" height="1239.9688" style="stroke:#181818;stroke-width:1.0;" width="10" x="56" y="92.6094"/><rect fill="#FFFFFF" height="315.7734" style="stroke:#181818;stroke-width:1.0;" width="10" x="411" y="114.9609"/><rect fill="#FFFFFF" height="871.4922" style="stroke:#181818;stroke-width:1.0;" width="10" x="411" y="461.0859"/><rect fill="#FFFFFF" height="212.4609" style="stroke:#181818;stroke-width:1.0;" width="10" x="715" y="187.9219"/><rect fill="#FFFFFF" height="810.7891" style="stroke:#181818;stroke-width:1.0;" width="10" x="715" y="491.4375"/><rect fill="#FFFFFF" height="405.5703" style="stroke:#181818;stroke-width:1.0;" width="10" x="720" y="529.7891"/><rect fill="#FFFFFF" height="41.3516" style="stroke:#181818;stroke-width:1.0;" width="10" x="720" y="1162.8203"/><rect fill="#FFFFFF" height="30.3516" style="stroke:#181818;stroke-width:1.0;" width="10" x="1018" y="218.2734"/><rect fill="#FFFFFF" height="30.3516" style="stroke:#181818;stroke-width:1.0;" width="10" x="1018" y="747.25"/><rect fill="#FFFFFF" height="30.3516" style="stroke:#181818;stroke-width:1.0;" width="10" x="1018" y="972.7109"/><rect fill="#FFFFFF" height="30.3516" style="stroke:#181818;stroke-width:1.0;" width="10" x="1123" y="278.9766"/><rect fill="#FFFFFF" height="30.3516" style="stroke:#181818;stroke-width:1.0;" width="10" x="1123" y="807.9531"/><rect fill="#FFFFFF" height="30.3516" style="stroke:#181818;stroke-width:1.0;" width="10" x="1123" y="1033.4141"/><rect fill="#FFFFFF" height="30.3516" style="stroke:#181818;stroke-width:1.0;" width="10" x="1267" y="339.6797"/><rect fill="#FFFFFF" height="30.3516" style="stroke:#181818;stroke-width:1.0;" width="10" x="1429" y="565.1406"/><rect fill="#FFFFFF" height="30.3516" style="stroke:#181818;stroke-width:1.0;" width="10" x="1574" y="625.8438"/><rect fill="#FFFFFF" height="30.3516" style="stroke:#181818;stroke-width:1.0;" width="10" x="1707" y="686.5469"/><rect fill="#FFFFFF" height="30.3516" style="stroke:#181818;stroke-width:1.0;" width="10" x="1829" y="868.6563"/><rect fill="#FFFFFF" height="30.3516" style="stroke:#181818;stroke-width:1.0;" width="10" x="2048.5" y="1094.1172"/><rect fill="#FFFFFF" height="30.3516" style="stroke:#181818;stroke-width:1.0;" width="10" x="2212.5" y="1241.5234"/><polygon fill="#181818" points="399,110.9609,409,114.9609,399,118.9609,403,114.9609" style="stroke:#181818;stroke-width:1.0;"/><line style="stroke:#181818;stroke-width:1.0;" x1="66" x2="405" y1="114.9609" y2="114.9609"/><text fill="#000000" font-family="sans-serif" font-size="13" font-weight="bold" lengthAdjust="spacing" textLength="7" x="73" y="110.1045">1</text><text fill="#000000" font-family="sans-serif" font-size="13" lengthAdjust="spacing" textLength="230" x="84" y="110.1045">asks to consult assets of political agent</text><polygon fill="#181818" points="623,141.3125,633,145.3125,623,149.3125,627,145.3125" style="stroke:#181818;stroke-width:1.0;"/><line style="stroke:#181818;stroke-width:1.0;stroke-dasharray:2.0,2.0;" x1="421" x2="629" y1="145.3125" y2="145.3125"/><text fill="#000000" font-family="sans-serif" font-size="13" font-weight="bold" lengthAdjust="spacing" textLength="7" x="428" y="140.4561">2</text><text fill="#000000" font-family="sans-serif" font-size="13" lengthAdjust="spacing" textLength="44" x="439" y="140.4561">create()</text><rect fill="#E2E2F0" height="31.6094" rx="2.5" ry="2.5" style="stroke:#181818;stroke-width:0.5;" width="170" x="635" y="122.9609"/><text fill="#000000" font-family="sans-serif" font-size="14" lengthAdjust="spacing" textLength="156" x="642" y="144.4941">:ConsultAssetsController</text><polygon fill="#181818" points="703,183.9219,713,187.9219,703,191.9219,707,187.9219" style="stroke:#181818;stroke-width:1.0;"/><line style="stroke:#181818;stroke-width:1.0;" x1="421" x2="709" y1="187.9219" y2="187.9219"/><text fill="#000000" font-family="sans-serif" font-size="13" font-weight="bold" lengthAdjust="spacing" textLength="7" x="428" y="183.0654">3</text><text fill="#000000" font-family="sans-serif" font-size="13" lengthAdjust="spacing" textLength="113" x="439" y="183.0654">getPoliticalAgents()</text><polygon fill="#181818" points="1006,214.2734,1016,218.2734,1006,222.2734,1010,218.2734" style="stroke:#181818;stroke-width:1.0;"/><line style="stroke:#181818;stroke-width:1.0;" x1="725" x2="1012" y1="218.2734" y2="218.2734"/><text fill="#000000" font-family="sans-serif" font-size="13" font-weight="bold" lengthAdjust="spacing" textLength="7" x="732" y="213.417">4</text><text fill="#000000" font-family="sans-serif" font-size="13" lengthAdjust="spacing" textLength="75" x="743" y="213.417">getInstance()</text><polygon fill="#181818" points="736,244.625,726,248.625,736,252.625,732,248.625" style="stroke:#181818;stroke-width:1.0;"/><line style="stroke:#181818;stroke-width:1.0;stroke-dasharray:2.0,2.0;" x1="730" x2="1022" y1="248.625" y2="248.625"/><text fill="#000000" font-family="sans-serif" font-size="13" font-weight="bold" lengthAdjust="spacing" textLength="7" x="742" y="243.7686">5</text><text fill="#000000" font-family="sans-serif" font-size="13" lengthAdjust="spacing" textLength="67" x="753" y="243.7686">repositories</text><polygon fill="#181818" points="1111,274.9766,1121,278.9766,1111,282.9766,1115,278.9766" style="stroke:#181818;stroke-width:1.0;"/><line style="stroke:#181818;stroke-width:1.0;" x1="725" x2="1117" y1="278.9766" y2="278.9766"/><text fill="#000000" font-family="sans-serif" font-size="13" font-weight="bold" lengthAdjust="spacing" textLength="7" x="732" y="274.1201">6</text><text fill="#000000" font-family="sans-serif" font-size="13" lengthAdjust="spacing" textLength="168" x="743" y="274.1201">getPoliticalAgentRepository()</text><polygon fill="#181818" points="736,305.3281,726,309.3281,736,313.3281,732,309.3281" style="stroke:#181818;stroke-width:1.0;"/><line style="stroke:#181818;stroke-width:1.0;stroke-dasharray:2.0,2.0;" x1="730" x2="1127" y1="309.3281" y2="309.3281"/><text fill="#000000" font-family="sans-serif" font-size="13" font-weight="bold" lengthAdjust="spacing" textLength="7" x="742" y="304.4717">7</text><text fill="#000000" font-family="sans-serif" font-size="13" lengthAdjust="spacing" textLength="140" x="753" y="304.4717">politicalAgentRepository</text><polygon fill="#181818" points="1255,335.6797,1265,339.6797,1255,343.6797,1259,339.6797" style="stroke:#181818;stroke-width:1.0;"/><line style="stroke:#181818;stroke-width:1.0;" x1="725" x2="1261" y1="339.6797" y2="339.6797"/><text fill="#000000" font-family="sans-serif" font-size="13" font-weight="bold" lengthAdjust="spacing" textLength="7" x="732" y="334.8232">8</text><text fill="#000000" font-family="sans-serif" font-size="13" lengthAdjust="spacing" textLength="113" x="743" y="334.8232">getPoliticalAgents()</text><polygon fill="#181818" points="736,366.0313,726,370.0313,736,374.0313,732,370.0313" style="stroke:#181818;stroke-width:1.0;"/><line style="stroke:#181818;stroke-width:1.0;stroke-dasharray:2.0,2.0;" x1="730" x2="1271" y1="370.0313" y2="370.0313"/><text fill="#000000" font-family="sans-serif" font-size="13" font-weight="bold" lengthAdjust="spacing" textLength="7" x="742" y="365.1748">9</text><text fill="#000000" font-family="sans-serif" font-size="13" lengthAdjust="spacing" textLength="99" x="753" y="365.1748">politicalAgentList</text><polygon fill="#181818" points="432,396.3828,422,400.3828,432,404.3828,428,400.3828" style="stroke:#181818;stroke-width:1.0;"/><line style="stroke:#181818;stroke-width:1.0;stroke-dasharray:2.0,2.0;" x1="426" x2="719" y1="400.3828" y2="400.3828"/><text fill="#000000" font-family="sans-serif" font-size="13" font-weight="bold" lengthAdjust="spacing" textLength="14" x="438" y="395.5264">10</text><text fill="#000000" font-family="sans-serif" font-size="13" lengthAdjust="spacing" textLength="99" x="456" y="395.5264">politicalAgentList</text><polygon fill="#181818" points="77,426.7344,67,430.7344,77,434.7344,73,430.7344" style="stroke:#181818;stroke-width:1.0;"/><line style="stroke:#181818;stroke-width:1.0;stroke-dasharray:2.0,2.0;" x1="71" x2="415" y1="430.7344" y2="430.7344"/><text fill="#000000" font-family="sans-serif" font-size="13" font-weight="bold" lengthAdjust="spacing" textLength="14" x="83" y="425.8779">11</text><text fill="#000000" font-family="sans-serif" font-size="13" lengthAdjust="spacing" textLength="303" x="101" y="425.8779">shows political agent list and asks for reference date</text><polygon fill="#181818" points="399,457.0859,409,461.0859,399,465.0859,403,461.0859" style="stroke:#181818;stroke-width:1.0;"/><line style="stroke:#181818;stroke-width:1.0;" x1="66" x2="405" y1="461.0859" y2="461.0859"/><text fill="#000000" font-family="sans-serif" font-size="13" font-weight="bold" lengthAdjust="spacing" textLength="14" x="73" y="456.2295">12</text><text fill="#000000" font-family="sans-serif" font-size="13" lengthAdjust="spacing" textLength="277" x="91" y="456.2295">selects political agent and enters reference date</text><polygon fill="#181818" points="703,487.4375,713,491.4375,703,495.4375,707,491.4375" style="stroke:#181818;stroke-width:1.0;"/><line style="stroke:#181818;stroke-width:1.0;" x1="421" x2="709" y1="491.4375" y2="491.4375"/><text fill="#000000" font-family="sans-serif" font-size="13" font-weight="bold" lengthAdjust="spacing" textLength="14" x="428" y="486.5811">13</text><text fill="#000000" font-family="sans-serif" font-size="13" lengthAdjust="spacing" textLength="257" x="446" y="486.5811">consultAssets(politicalAgent, referenceDate)</text><line style="stroke:#181818;stroke-width:1.0;" x1="725" x2="772" y1="516.7891" y2="516.7891"/><line style="stroke:#181818;stroke-width:1.0;" x1="772" x2="772" y1="516.7891" y2="529.7891"/><line style="stroke:#181818;stroke-width:1.0;" x1="731" x2="772" y1="529.7891" y2="529.7891"/><polygon fill="#181818" points="741,525.7891,731,529.7891,741,533.7891,737,529.7891" style="stroke:#181818;stroke-width:1.0;"/><text fill="#000000" font-family="sans-serif" font-size="13" font-weight="bold" lengthAdjust="spacing" textLength="14" x="737" y="511.9326">14</text><text fill="#000000" font-family="sans-serif" font-size="13" lengthAdjust="spacing" textLength="210" x="755" y="511.9326">getAuthenticatedUserFromSession()</text><polygon fill="#181818" points="1417,561.1406,1427,565.1406,1417,569.1406,1421,565.1406" style="stroke:#181818;stroke-width:1.0;"/><line style="stroke:#181818;stroke-width:1.0;" x1="730" x2="1423" y1="565.1406" y2="565.1406"/><text fill="#000000" font-family="sans-serif" font-size="13" font-weight="bold" lengthAdjust="spacing" textLength="14" x="737" y="560.2842">15</text><text fill="#000000" font-family="sans-serif" font-size="13" lengthAdjust="spacing" textLength="75" x="755" y="560.2842">getInstance()</text><polygon fill="#181818" points="741,591.4922,731,595.4922,741,599.4922,737,595.4922" style="stroke:#181818;stroke-width:1.0;"/><line style="stroke:#181818;stroke-width:1.0;stroke-dasharray:2.0,2.0;" x1="735" x2="1433" y1="595.4922" y2="595.4922"/><text fill="#000000" font-family="sans-serif" font-size="13" font-weight="bold" lengthAdjust="spacing" textLength="14" x="747" y="590.6357">16</text><text fill="#000000" font-family="sans-serif" font-size="13" lengthAdjust="spacing" textLength="68" x="765" y="590.6357">appSession</text><polygon fill="#181818" points="1562,621.8438,1572,625.8438,1562,629.8438,1566,625.8438" style="stroke:#181818;stroke-width:1.0;"/><line style="stroke:#181818;stroke-width:1.0;" x1="730" x2="1568" y1="625.8438" y2="625.8438"/><text fill="#000000" font-family="sans-serif" font-size="13" font-weight="bold" lengthAdjust="spacing" textLength="14" x="737" y="620.9873">17</text><text fill="#000000" font-family="sans-serif" font-size="13" lengthAdjust="spacing" textLength="115" x="755" y="620.9873">getCurrentSession()</text><polygon fill="#181818" points="741,652.1953,731,656.1953,741,660.1953,737,656.1953" style="stroke:#181818;stroke-width:1.0;"/><line style="stroke:#181818;stroke-width:1.0;stroke-dasharray:2.0,2.0;" x1="735" x2="1578" y1="656.1953" y2="656.1953"/><text fill="#000000" font-family="sans-serif" font-size="13" font-weight="bold" lengthAdjust="spacing" textLength="14" x="747" y="651.3389">18</text><text fill="#000000" font-family="sans-serif" font-size="13" lengthAdjust="spacing" textLength="87" x="765" y="651.3389">currentSession</text><polygon fill="#181818" points="1695,682.5469,1705,686.5469,1695,690.5469,1699,686.5469" style="stroke:#181818;stroke-width:1.0;"/><line style="stroke:#181818;stroke-width:1.0;" x1="730" x2="1701" y1="686.5469" y2="686.5469"/><text fill="#000000" font-family="sans-serif" font-size="13" font-weight="bold" lengthAdjust="spacing" textLength="14" x="737" y="681.6904">19</text><text fill="#000000" font-family="sans-serif" font-size="13" lengthAdjust="spacing" textLength="86" x="755" y="681.6904">getUserEmail()</text><polygon fill="#181818" points="741,712.8984,731,716.8984,741,720.8984,737,716.8984" style="stroke:#181818;stroke-width:1.0;"/><line style="stroke:#181818;stroke-width:1.0;stroke-dasharray:2.0,2.0;" x1="735" x2="1711" y1="716.8984" y2="716.8984"/><text fill="#000000" font-family="sans-serif" font-size="13" font-weight="bold" lengthAdjust="spacing" textLength="14" x="747" y="712.042">20</text><text fill="#000000" font-family="sans-serif" font-size="13" lengthAdjust="spacing" textLength="31" x="765" y="712.042">email</text><polygon fill="#181818" points="1006,743.25,1016,747.25,1006,751.25,1010,747.25" style="stroke:#181818;stroke-width:1.0;"/><line style="stroke:#181818;stroke-width:1.0;" x1="730" x2="1012" y1="747.25" y2="747.25"/><text fill="#000000" font-family="sans-serif" font-size="13" font-weight="bold" lengthAdjust="spacing" textLength="14" x="737" y="742.3936">21</text><text fill="#000000" font-family="sans-serif" font-size="13" lengthAdjust="spacing" textLength="75" x="755" y="742.3936">getInstance()</text><polygon fill="#181818" points="741,773.6016,731,777.6016,741,781.6016,737,777.6016" style="stroke:#181818;stroke-width:1.0;"/><line style="stroke:#181818;stroke-width:1.0;stroke-dasharray:2.0,2.0;" x1="735" x2="1022" y1="777.6016" y2="777.6016"/><text fill="#000000" font-family="sans-serif" font-size="13" font-weight="bold" lengthAdjust="spacing" textLength="14" x="747" y="772.7451">22</text><text fill="#000000" font-family="sans-serif" font-size="13" lengthAdjust="spacing" textLength="67" x="765" y="772.7451">repositories</text><polygon fill="#181818" points="1111,803.9531,1121,807.9531,1111,811.9531,1115,807.9531" style="stroke:#181818;stroke-width:1.0;"/><line style="stroke:#181818;stroke-width:1.0;" x1="730" x2="1117" y1="807.9531" y2="807.9531"/><text fill="#000000" font-family="sans-serif" font-size="13" font-weight="bold" lengthAdjust="spacing" textLength="14" x="737" y="803.0967">23</text><text fill="#000000" font-family="sans-serif" font-size="13" lengthAdjust="spacing" textLength="115" x="755" y="803.0967">getUserRepository()</text><polygon fill="#181818" points="741,834.3047,731,838.3047,741,842.3047,737,838.3047" style="stroke:#181818;stroke-width:1.0;"/><line style="stroke:#181818;stroke-width:1.0;stroke-dasharray:2.0,2.0;" x1="735" x2="1127" y1="838.3047" y2="838.3047"/><text fill="#000000" font-family="sans-serif" font-size="13" font-weight="bold" lengthAdjust="spacing" textLength="14" x="747" y="833.4482">24</text><text fill="#000000" font-family="sans-serif" font-size="13" lengthAdjust="spacing" textLength="87" x="765" y="833.4482">userRepository</text><polygon fill="#181818" points="1817,864.6563,1827,868.6563,1817,872.6563,1821,868.6563" style="stroke:#181818;stroke-width:1.0;"/><line style="stroke:#181818;stroke-width:1.0;" x1="730" x2="1823" y1="868.6563" y2="868.6563"/><text fill="#000000" font-family="sans-serif" font-size="13" font-weight="bold" lengthAdjust="spacing" textLength="14" x="737" y="863.7998">25</text><text fill="#000000" font-family="sans-serif" font-size="13" lengthAdjust="spacing" textLength="133" x="755" y="863.7998">getUserByEmail(email)</text><polygon fill="#181818" points="741,895.0078,731,899.0078,741,903.0078,737,899.0078" style="stroke:#181818;stroke-width:1.0;"/><line style="stroke:#181818;stroke-width:1.0;stroke-dasharray:2.0,2.0;" x1="735" x2="1833" y1="899.0078" y2="899.0078"/><text fill="#000000" font-family="sans-serif" font-size="13" font-weight="bold" lengthAdjust="spacing" textLength="14" x="747" y="894.1514">26</text><text fill="#000000" font-family="sans-serif" font-size="13" lengthAdjust="spacing" textLength="25" x="765" y="894.1514">user</text><line style="stroke:#181818;stroke-width:1.0;stroke-dasharray:2.0,2.0;" x1="730" x2="772" y1="934.3594" y2="934.3594"/><line style="stroke:#181818;stroke-width:1.0;stroke-dasharray:2.0,2.0;" x1="772" x2="772" y1="934.3594" y2="947.3594"/><line style="stroke:#181818;stroke-width:1.0;stroke-dasharray:2.0,2.0;" x1="725" x2="772" y1="947.3594" y2="947.3594"/><polygon fill="#181818" points="735,943.3594,725,947.3594,735,951.3594,731,947.3594" style="stroke:#181818;stroke-width:1.0;"/><text fill="#000000" font-family="sans-serif" font-size="13" font-weight="bold" lengthAdjust="spacing" textLength="14" x="737" y="929.5029">27</text><text fill="#000000" font-family="sans-serif" font-size="13" lengthAdjust="spacing" textLength="25" x="755" y="929.5029">user</text><polygon fill="#181818" points="1006,968.7109,1016,972.7109,1006,976.7109,1010,972.7109" style="stroke:#181818;stroke-width:1.0;"/><line style="stroke:#181818;stroke-width:1.0;" x1="725" x2="1012" y1="972.7109" y2="972.7109"/><text fill="#000000" font-family="sans-serif" font-size="13" font-weight="bold" lengthAdjust="spacing" textLength="14" x="732" y="967.8545">28</text><text fill="#000000" font-family="sans-serif" font-size="13" lengthAdjust="spacing" textLength="75" x="750" y="967.8545">getInstance()</text><polygon fill="#181818" points="736,999.0625,726,1003.0625,736,1007.0625,732,1003.0625" style="stroke:#181818;stroke-width:1.0;"/><line style="stroke:#181818;stroke-width:1.0;stroke-dasharray:2.0,2.0;" x1="730" x2="1022" y1="1003.0625" y2="1003.0625"/><text fill="#000000" font-family="sans-serif" font-size="13" font-weight="bold" lengthAdjust="spacing" textLength="14" x="742" y="998.2061">29</text><text fill="#000000" font-family="sans-serif" font-size="13" lengthAdjust="spacing" textLength="67" x="760" y="998.2061">repositories</text><polygon fill="#181818" points="1111,1029.4141,1121,1033.4141,1111,1037.4141,1115,1033.4141" style="stroke:#181818;stroke-width:1.0;"/><line style="stroke:#181818;stroke-width:1.0;" x1="725" x2="1117" y1="1033.4141" y2="1033.4141"/><text fill="#000000" font-family="sans-serif" font-size="13" font-weight="bold" lengthAdjust="spacing" textLength="14" x="732" y="1028.5576">30</text><text fill="#000000" font-family="sans-serif" font-size="13" lengthAdjust="spacing" textLength="153" x="750" y="1028.5576">getDeclarationRepository()</text><polygon fill="#181818" points="736,1059.7656,726,1063.7656,736,1067.7656,732,1063.7656" style="stroke:#181818;stroke-width:1.0;"/><line style="stroke:#181818;stroke-width:1.0;stroke-dasharray:2.0,2.0;" x1="730" x2="1127" y1="1063.7656" y2="1063.7656"/><text fill="#000000" font-family="sans-serif" font-size="13" font-weight="bold" lengthAdjust="spacing" textLength="14" x="742" y="1058.9092">31</text><text fill="#000000" font-family="sans-serif" font-size="13" lengthAdjust="spacing" textLength="125" x="760" y="1058.9092">declarationRepository</text><polygon fill="#181818" points="2036.5,1090.1172,2046.5,1094.1172,2036.5,1098.1172,2040.5,1094.1172" style="stroke:#181818;stroke-width:1.0;"/><line style="stroke:#181818;stroke-width:1.0;" x1="725" x2="2042.5" y1="1094.1172" y2="1094.1172"/><text fill="#000000" font-family="sans-serif" font-size="13" font-weight="bold" lengthAdjust="spacing" textLength="14" x="732" y="1089.2607">32</text><text fill="#000000" font-family="sans-serif" font-size="13" lengthAdjust="spacing" textLength="413" x="750" y="1089.2607">getDeclarationsByPoliticalAgentUntilDate(politicalAgent, referenceDate)</text><polygon fill="#181818" points="736,1120.4688,726,1124.4688,736,1128.4688,732,1124.4688" style="stroke:#181818;stroke-width:1.0;"/><line style="stroke:#181818;stroke-width:1.0;stroke-dasharray:2.0,2.0;" x1="730" x2="2052.5" y1="1124.4688" y2="1124.4688"/><text fill="#000000" font-family="sans-serif" font-size="13" font-weight="bold" lengthAdjust="spacing" textLength="14" x="742" y="1119.6123">33</text><text fill="#000000" font-family="sans-serif" font-size="13" lengthAdjust="spacing" textLength="70" x="760" y="1119.6123">declarations</text><line style="stroke:#181818;stroke-width:1.0;" x1="725" x2="772" y1="1149.8203" y2="1149.8203"/><line style="stroke:#181818;stroke-width:1.0;" x1="772" x2="772" y1="1149.8203" y2="1162.8203"/><line style="stroke:#181818;stroke-width:1.0;" x1="731" x2="772" y1="1162.8203" y2="1162.8203"/><polygon fill="#181818" points="741,1158.8203,731,1162.8203,741,1166.8203,737,1162.8203" style="stroke:#181818;stroke-width:1.0;"/><text fill="#000000" font-family="sans-serif" font-size="13" font-weight="bold" lengthAdjust="spacing" textLength="14" x="737" y="1144.9639">34</text><text fill="#000000" font-family="sans-serif" font-size="13" lengthAdjust="spacing" textLength="261" x="755" y="1144.9639">extractAssetsFromDeclarations(declarations)</text><line style="stroke:#181818;stroke-width:1.0;stroke-dasharray:2.0,2.0;" x1="730" x2="772" y1="1203.1719" y2="1203.1719"/><line style="stroke:#181818;stroke-width:1.0;stroke-dasharray:2.0,2.0;" x1="772" x2="772" y1="1203.1719" y2="1216.1719"/><line style="stroke:#181818;stroke-width:1.0;stroke-dasharray:2.0,2.0;" x1="725" x2="772" y1="1216.1719" y2="1216.1719"/><polygon fill="#181818" points="735,1212.1719,725,1216.1719,735,1220.1719,731,1216.1719" style="stroke:#181818;stroke-width:1.0;"/><text fill="#000000" font-family="sans-serif" font-size="13" font-weight="bold" lengthAdjust="spacing" textLength="14" x="737" y="1198.3154">35</text><text fill="#000000" font-family="sans-serif" font-size="13" lengthAdjust="spacing" textLength="67" x="755" y="1198.3154">assetViews</text><polygon fill="#181818" points="2200.5,1237.5234,2210.5,1241.5234,2200.5,1245.5234,2204.5,1241.5234" style="stroke:#181818;stroke-width:1.0;"/><line style="stroke:#181818;stroke-width:1.0;" x1="725" x2="2206.5" y1="1241.5234" y2="1241.5234"/><text fill="#000000" font-family="sans-serif" font-size="13" font-weight="bold" lengthAdjust="spacing" textLength="14" x="732" y="1236.667">36</text><text fill="#000000" font-family="sans-serif" font-size="13" lengthAdjust="spacing" textLength="214" x="750" y="1236.667">applyRoleMasking(user, assetViews)</text><polygon fill="#181818" points="736,1267.875,726,1271.875,736,1275.875,732,1271.875" style="stroke:#181818;stroke-width:1.0;"/><line style="stroke:#181818;stroke-width:1.0;stroke-dasharray:2.0,2.0;" x1="730" x2="2216.5" y1="1271.875" y2="1271.875"/><text fill="#000000" font-family="sans-serif" font-size="13" font-weight="bold" lengthAdjust="spacing" textLength="14" x="742" y="1267.0186">37</text><text fill="#000000" font-family="sans-serif" font-size="13" lengthAdjust="spacing" textLength="79" x="760" y="1267.0186">filteredAssets</text><polygon fill="#181818" points="432,1298.2266,422,1302.2266,432,1306.2266,428,1302.2266" style="stroke:#181818;stroke-width:1.0;"/><line style="stroke:#181818;stroke-width:1.0;stroke-dasharray:2.0,2.0;" x1="426" x2="719" y1="1302.2266" y2="1302.2266"/><text fill="#000000" font-family="sans-serif" font-size="13" font-weight="bold" lengthAdjust="spacing" textLength="14" x="438" y="1297.3701">38</text><text fill="#000000" font-family="sans-serif" font-size="13" lengthAdjust="spacing" textLength="79" x="456" y="1297.3701">filteredAssets</text><polygon fill="#181818" points="72,1328.5781,62,1332.5781,72,1336.5781,68,1332.5781" style="stroke:#181818;stroke-width:1.0;"/><line style="stroke:#181818;stroke-width:1.0;stroke-dasharray:2.0,2.0;" x1="66" x2="415" y1="1332.5781" y2="1332.5781"/><text fill="#000000" font-family="sans-serif" font-size="13" font-weight="bold" lengthAdjust="spacing" textLength="14" x="78" y="1327.7217">39</text><text fill="#000000" font-family="sans-serif" font-size="13" lengthAdjust="spacing" textLength="222" x="96" y="1327.7217">shows filtered assets for selected date</text><!--SRC=[rLTTRzem57tdLrXzOjMglVCmYQQioiHQb42bIPEG6oxKgaaYsxHZltxNIS4Vs0dTj8Vb1P9S7zyJd-jpBPzPMLD1jwIcnJFTGAxs78Y0Gj5oms4WZm7oYQwgLrPko9fo2OC1tQcgt6qVGU3_GbM2N2HCiLzGVlfQxKH9EPFgWb195laaMuwJ-Nqs622OOWMhQQd8nIYfIhdZQYmbABb8s-YqAmXlbAWu1z449_DiwePdK5UIOJeCP1EIJMRtkHiZh9WVvIWyP9cdTxVJoVp-pXrSLnnf5fIFDr2guzWz0iqYhnhGyUtaRhxKq2xUkAuvZb6iAdEG4d_QyDbicK_oFFNdftNz5eSpzW-EqIXsGc2I1ceXGTWOoIBBTCR197OOx51VE0_Cif_orKFrjm8XtsRIWMxC2WgEgjEqd5bkGiyRZ9j9CWrCHhLe7fXaZmoNPf-3U645w0yNVD50FQHvUfrEq_btv9uzfCca4JXxeGeSBHEyp3sv-epQ9IE4U9P4LQHeTKkQ72IfrkGe7KArG1e0WvmszmreIguGJOlxyX8H2m4OCVmmS2BQ07oz0UKgJsBe8VA8tvGAiQvcDA8qQczXqb9YuHTWZNSmsbeYtjK2N9c4xFfoebVWGSKJCheDCJIhtvcg9VvWqjOaLlgn2k-aOaqL96NAls_571hMhk4pi12ZoKzn3uwbRK47CZwekGFFmch4vUlNgeqH-aVrAlqA8DeZ22rNRT6iqKG4h04tfWB82e47tZnO9B6oay3HjawdqEZuYzjD23jMViVlMTZkCtI_naU3U8COiQ8Bwi7KxdYddX1CR-Emqlle5r5jttRYc2nEYjcHcjdzEylQ5PhbDoHmsQ2Mt8mRdOoofMQ1dvEsN_o9OrPdqkWeVezGU1jm7V9CUh5jm5bwrrbRYdhX9rlAU1SxtvD3l7nqYn5e_2uYFdwKGhzddE4Rx_EEVl_ezH2tIUbDk4T07GxYjaUzDCuHpR6RCbIkzwrWccNj86CQiH0D0-mHw4hRG4OIxe2AsiR_rvG4-z5_q944- -6_QaUE_V894NczTtkJ1NeJr_vshlivh4rZxlCrAOIPHbV9G7OvA_nK0eUqngqjrUOujETvlyTQ_jUU8-1Llb_ZfmUDrb3vFgiuVAFwyBqPwlhvQCqJoJPmQl5p3yndCLapZaqIhDeF5cCJEXp5cyS8vXyqZWUamsbAjufjnuVFOfsYls6rvxRV]--></g></svg>