<?xml version="1.0" encoding="us-ascii" standalone="no"?><svg xmlns="http://www.w3.org/2000/svg" xmlns:xlink="http://www.w3.org/1999/xlink" contentStyleType="text/css" height="696px" preserveAspectRatio="none" style="width:951px;height:696px;background:#FFFFFF;" version="1.1" viewBox="0 0 951 696" width="951px" zoomAndPan="magnify"><defs/><g><rect fill="#FFFFFF" height="503.4609" style="stroke:#181818;stroke-width:1.0;" width="10" x="56" y="92.6094"/><rect fill="#FFFFFF" height="180.1094" style="stroke:#181818;stroke-width:1.0;" width="10" x="404" y="114.9609"/><rect fill="#FFFFFF" height="270.6484" style="stroke:#181818;stroke-width:1.0;" width="10" x="404" y="325.4219"/><rect fill="#FFFFFF" height="76.7969" style="stroke:#181818;stroke-width:1.0;" width="10" x="701" y="187.9219"/><rect fill="#FFFFFF" height="209.9453" style="stroke:#181818;stroke-width:1.0;" width="10" x="701" y="355.7734"/><rect fill="#FFFFFF" height="87.7969" style="stroke:#181818;stroke-width:1.0;" width="10" x="706" y="394.125"/><line style="stroke:#181818;stroke-width:0.5;stroke-dasharray:5.0,5.0;" x1="61" x2="61" y1="82.6094" y2="614.0703"/><line style="stroke:#181818;stroke-width:0.5;stroke-dasharray:5.0,5.0;" x1="409" x2="409" y1="82.6094" y2="614.0703"/><line style="stroke:#181818;stroke-width:0.5;stroke-dasharray:5.0,5.0;" x1="706" x2="706" y1="154.2656" y2="614.0703"/><text fill="#000000" font-family="sans-serif" font-size="14" lengthAdjust="spacing" textLength="106" x="5" y="79.5332">Citizen/Journalist</text><ellipse cx="61" cy="13.5" fill="#E3E3E3" rx="8" ry="8" style="stroke:#181818;stroke-width:0.5;"/><path d="M61,21.5 L61,48.5 M48,29.5 L74,29.5 M61,48.5 L48,63.5 M61,48.5 L74,63.5 " fill="none" style="stroke:#181818;stroke-width:0.5;"/><text fill="#000000" font-family="sans-serif" font-size="14" lengthAdjust="spacing" textLength="106" x="5" y="627.6035">Citizen/Journalist</text><ellipse cx="61" cy="639.1797" fill="#E3E3E3" rx="8" ry="8" style="stroke:#181818;stroke-width:0.5;"/><path d="M61,647.1797 L61,674.1797 M48,655.1797 L74,655.1797 M61,674.1797 L48,689.1797 M61,674.1797 L74,689.1797 " fill="none" style="stroke:#181818;stroke-width:0.5;"/><rect fill="#E3E3E3" height="31.6094" rx="2.5" ry="2.5" style="stroke:#181818;stroke-width:0.5;" width="120" x="349" y="50"/><text fill="#000000" font-family="sans-serif" font-size="14" lengthAdjust="spacing" textLength="106" x="356" y="71.5332">:ConsultAssetsUI</text><rect fill="#E3E3E3" height="31.6094" rx="2.5" ry="2.5" style="stroke:#181818;stroke-width:0.5;" width="120" x="349" y="613.0703"/><text fill="#000000" font-family="sans-serif" font-size="14" lengthAdjust="spacing" textLength="106" x="356" y="634.6035">:ConsultAssetsUI</text><rect fill="#E3E3E3" height="31.6094" rx="2.5" ry="2.5" style="stroke:#181818;stroke-width:0.5;" width="170" x="621" y="613.0703"/><text fill="#000000" font-family="sans-serif" font-size="14" lengthAdjust="spacing" textLength="156" x="628" y="634.6035">:ConsultAssetsController</text><rect fill="#FFFFFF" height="503.4609" style="stroke:#181818;stroke-width:1.0;" width="10" x="56" y="92.6094"/><rect fill="#FFFFFF" height="180.1094" style="stroke:#181818;stroke-width:1.0;" width="10" x="404" y="114.9609"/><rect fill="#FFFFFF" height="270.6484" style="stroke:#181818;stroke-width:1.0;" width="10" x="404" y="325.4219"/><rect fill="#FFFFFF" height="76.7969" style="stroke:#181818;stroke-width:1.0;" width="10" x="701" y="187.9219"/><rect fill="#FFFFFF" height="209.9453" style="stroke:#181818;stroke-width:1.0;" width="10" x="701" y="355.7734"/><rect fill="#FFFFFF" height="87.7969" style="stroke:#181818;stroke-width:1.0;" width="10" x="706" y="394.125"/><polygon fill="#181818" points="392,110.9609,402,114.9609,392,118.9609,396,114.9609" style="stroke:#181818;stroke-width:1.0;"/><line style="stroke:#181818;stroke-width:1.0;" x1="66" x2="398" y1="114.9609" y2="114.9609"/><text fill="#000000" font-family="sans-serif" font-size="13" font-weight="bold" lengthAdjust="spacing" textLength="7" x="73" y="110.1045">1</text><text fill="#000000" font-family="sans-serif" font-size="13" lengthAdjust="spacing" textLength="230" x="84" y="110.1045">asks to consult assets of political agent</text><polygon fill="#181818" points="609,141.3125,619,145.3125,609,149.3125,613,145.3125" style="stroke:#181818;stroke-width:1.0;"/><line style="stroke:#181818;stroke-width:1.0;stroke-dasharray:2.0,2.0;" x1="414" x2="615" y1="145.3125" y2="145.3125"/><text fill="#000000" font-family="sans-serif" font-size="13" font-weight="bold" lengthAdjust="spacing" textLength="7" x="421" y="140.4561">2</text><text fill="#000000" font-family="sans-serif" font-size="13" lengthAdjust="spacing" textLength="44" x="432" y="140.4561">create()</text><rect fill="#E3E3E3" height="31.6094" rx="2.5" ry="2.5" style="stroke:#181818;stroke-width:0.5;" width="170" x="621" y="122.9609"/><text fill="#000000" font-family="sans-serif" font-size="14" lengthAdjust="spacing" textLength="156" x="628" y="144.4941">:ConsultAssetsController</text><polygon fill="#181818" points="689,183.9219,699,187.9219,689,191.9219,693,187.9219" style="stroke:#181818;stroke-width:1.0;"/><line style="stroke:#181818;stroke-width:1.0;" x1="414" x2="695" y1="187.9219" y2="187.9219"/><text fill="#000000" font-family="sans-serif" font-size="13" font-weight="bold" lengthAdjust="spacing" textLength="7" x="421" y="183.0654">3</text><text fill="#000000" font-family="sans-serif" font-size="13" lengthAdjust="spacing" textLength="113" x="432" y="183.0654">getPoliticalAgents()</text><rect fill="none" height="41.4453" style="stroke:#000000;stroke-width:1.5;" width="176" x="618" y="195.9219"/><path d="M618,195.9219 L680,195.9219 L680,203.9219 L670,213.9219 L618,213.9219 L618,195.9219 " fill="#EEEEEE" style="stroke:#000000;stroke-width:2.0;"/><text fill="#000000" font-family="sans-serif" font-size="13" font-weight="bold" lengthAdjust="spacing" textLength="17" x="631" y="211.417">ref</text><text fill="#000000" font-family="sans-serif" font-size="12" lengthAdjust="spacing" textLength="122" x="645" y="230.3789">Get Political Agent List</text><polygon fill="#181818" points="425,260.7188,415,264.7188,425,268.7188,421,264.7188" style="stroke:#181818;stroke-width:1.0;"/><line style="stroke:#181818;stroke-width:1.0;stroke-dasharray:2.0,2.0;" x1="419" x2="705" y1="264.7188" y2="264.7188"/><text fill="#000000" font-family="sans-serif" font-size="13" font-weight="bold" lengthAdjust="spacing" textLength="7" x="431" y="259.8623">4</text><text fill="#000000" font-family="sans-serif" font-size="13" lengthAdjust="spacing" textLength="99" x="442" y="259.8623">politicalAgentList</text><polygon fill="#181818" points="77,291.0703,67,295.0703,77,299.0703,73,295.0703" style="stroke:#181818;stroke-width:1.0;"/><line style="stroke:#181818;stroke-width:1.0;stroke-dasharray:2.0,2.0;" x1="71" x2="408" y1="295.0703" y2="295.0703"/><text fill="#000000" font-family="sans-serif" font-size="13" font-weight="bold" lengthAdjust="spacing" textLength="7" x="83" y="290.2139">5</text><text fill="#000000" font-family="sans-serif" font-size="13" lengthAdjust="spacing" textLength="303" x="94" y="290.2139">shows political agent list and asks for reference date</text><polygon fill="#181818" points="392,321.4219,402,325.4219,392,329.4219,396,325.4219" style="stroke:#181818;stroke-width:1.0;"/><line style="stroke:#181818;stroke-width:1.0;" x1="66" x2="398" y1="325.4219" y2="325.4219"/><text fill="#000000" font-family="sans-serif" font-size="13" font-weight="bold" lengthAdjust="spacing" textLength="7" x="73" y="320.5654">6</text><text fill="#000000" font-family="sans-serif" font-size="13" lengthAdjust="spacing" textLength="277" x="84" y="320.5654">selects political agent and enters reference date</text><polygon fill="#181818" points="689,351.7734,699,355.7734,689,359.7734,693,355.7734" style="stroke:#181818;stroke-width:1.0;"/><line style="stroke:#181818;stroke-width:1.0;" x1="414" x2="695" y1="355.7734" y2="355.7734"/><text fill="#000000" font-family="sans-serif" font-size="13" font-weight="bold" lengthAdjust="spacing" textLength="7" x="421" y="350.917">7</text><text fill="#000000" font-family="sans-serif" font-size="13" lengthAdjust="spacing" textLength="257" x="432" y="350.917">consultAssets(politicalAgent, referenceDate)</text><line style="stroke:#181818;stroke-width:1.0;" x1="711" x2="758" y1="381.125" y2="381.125"/><line style="stroke:#181818;stroke-width:1.0;" x1="758" x2="758" y1="381.125" y2="394.125"/><line style="stroke:#181818;stroke-width:1.0;" x1="717" x2="758" y1="394.125" y2="394.125"/><polygon fill="#181818" points="727,390.125,717,394.125,727,398.125,723,394.125" style="stroke:#181818;stroke-width:1.0;"/><text fill="#000000" font-family="sans-serif" font-size="13" font-weight="bold" lengthAdjust="spacing" textLength="7" x="723" y="376.2686">8</text><text fill="#000000" font-family="sans-serif" font-size="13" lengthAdjust="spacing" textLength="210" x="734" y="376.2686">getAuthenticatedUserFromSession()</text><rect fill="none" height="41.4453" style="stroke:#000000;stroke-width:1.5;" width="176" x="618" y="407.125"/><path d="M618,407.125 L680,407.125 L680,415.125 L670,425.125 L618,425.125 L618,407.125 " fill="#EEEEEE" style="stroke:#000000;stroke-width:2.0;"/><text fill="#000000" font-family="sans-serif" font-size="13" font-weight="bold" lengthAdjust="spacing" textLength="17" x="631" y="422.6201">ref</text><text fill="#000000" font-family="sans-serif" font-size="12" lengthAdjust="spacing" textLength="126" x="643" y="441.582">Get Authenticated User</text><line style="stroke:#181818;stroke-width:1.0;stroke-dasharray:2.0,2.0;" x1="716" x2="758" y1="480.9219" y2="480.9219"/><line style="stroke:#181818;stroke-width:1.0;stroke-dasharray:2.0,2.0;" x1="758" x2="758" y1="480.9219" y2="493.9219"/><line style="stroke:#181818;stroke-width:1.0;stroke-dasharray:2.0,2.0;" x1="711" x2="758" y1="493.9219" y2="493.9219"/><polygon fill="#181818" points="721,489.9219,711,493.9219,721,497.9219,717,493.9219" style="stroke:#181818;stroke-width:1.0;"/><text fill="#000000" font-family="sans-serif" font-size="13" font-weight="bold" lengthAdjust="spacing" textLength="7" x="723" y="476.0654">9</text><text fill="#000000" font-family="sans-serif" font-size="13" lengthAdjust="spacing" textLength="25" x="734" y="476.0654">user</text><rect fill="none" height="41.4453" style="stroke:#000000;stroke-width:1.5;" width="176" x="618" y="496.9219"/><path d="M618,496.9219 L680,496.9219 L680,504.9219 L670,514.9219 L618,514.9219 L618,496.9219 " fill="#EEEEEE" style="stroke:#000000;stroke-width:2.0;"/><text fill="#000000" font-family="sans-serif" font-size="13" font-weight="bold" lengthAdjust="spacing" textLength="17" x="631" y="512.417">ref</text><text fill="#000000" font-family="sans-serif" font-size="12" lengthAdjust="spacing" textLength="168" x="622" y="531.3789">Consult Assets with Role Filter</text><polygon fill="#181818" points="425,561.7188,415,565.7188,425,569.7188,421,565.7188" style="stroke:#181818;stroke-width:1.0;"/><line style="stroke:#181818;stroke-width:1.0;stroke-dasharray:2.0,2.0;" x1="419" x2="705" y1="565.7188" y2="565.7188"/><text fill="#000000" font-family="sans-serif" font-size="13" font-weight="bold" lengthAdjust="spacing" textLength="14" x="431" y="560.8623">10</text><text fill="#000000" font-family="sans-serif" font-size="13" lengthAdjust="spacing" textLength="79" x="449" y="560.8623">filteredAssets</text><polygon fill="#181818" points="72,592.0703,62,596.0703,72,600.0703,68,596.0703" style="stroke:#181818;stroke-width:1.0;"/><line style="stroke:#181818;stroke-width:1.0;stroke-dasharray:2.0,2.0;" x1="66" x2="408" y1="596.0703" y2="596.0703"/><text fill="#000000" font-family="sans-serif" font-size="13" font-weight="bold" lengthAdjust="spacing" textLength="14" x="78" y="591.2139">11</text><text fill="#000000" font-family="sans-serif" font-size="13" lengthAdjust="spacing" textLength="222" x="96" y="591.2139">shows filtered assets for selected date</text><!--SRC=[fPHDRzim38Rl_XL4JctHeFSS1WHPEsGeq25fpeKcquaGHJ94ki7swqlBzNUS7kgBBOjyIBzyPJeQbwkWJd3opkj3y2S43WKcrEpaIX_L7hVypo84rApStdO3wA1IVpPk3vcoX4cY2lQkEFt58C-QVO3Poh3vZ-xXjo-2KzOGpq0HxBQFcxVbwlLbaoG2OwDDhXp3RB7oZWhBIo9asgshwFMr85bmyDPYYC6hryrpB6_U5MEl4iZLhc7-GyYmaAGZ0NlG5LNM9HPy1hctqhzM5aG8nn7GajTn7Q5hc0kjB7rt9qGTK29kRdi1rRxixf7_rE1boIM9R483Pk3VCLGV0fth5p8qYH0puLaKROBGfMLwosfw7R5YA_DQWRpNJe-POXyo_EQEdWjnX3_JK3KefmvAUej2Ps8BQH83EesG2ZWPr15XfqP5QCM8un8bNUuOw19xQcJDH7JNJpTzDUvRuazXt4w8Uq7Txi2N1Hy49bJ6T4SOdkJ8RP78UDVnoVMXNRT7roQzSb3M6uNMPXc-RvpnsNmnJ9vqnDVjVPvRg8I6i-43RBpyNfwCvK6PaPd7jirY5gOLxZkMhKdrsIzDMdbDtarvjBji_p8V]--></g></svg>