<?xml version="1.0" encoding="us-ascii" standalone="no"?><svg xmlns="http://www.w3.org/2000/svg" xmlns:xlink="http://www.w3.org/1999/xlink" contentStyleType="text/css" height="552px" preserveAspectRatio="none" style="width:1094px;height:552px;background:#FFFFFF;" version="1.1" viewBox="0 0 1094 552" width="1094px" zoomAndPan="magnify"><defs/><g><rect fill="#FFFFFF" height="392.2188" style="stroke:#181818;stroke-width:1.0;" width="10" x="287" y="87.5703"/><rect fill="#FFFFFF" height="41.3516" style="stroke:#181818;stroke-width:1.0;" width="10" x="292" y="333.3828"/><rect fill="#FFFFFF" height="30.3516" style="stroke:#181818;stroke-width:1.0;" width="10" x="594" y="143.2734"/><rect fill="#FFFFFF" height="30.3516" style="stroke:#181818;stroke-width:1.0;" width="10" x="699" y="203.9766"/><rect fill="#FFFFFF" height="30.3516" style="stroke:#181818;stroke-width:1.0;" width="10" x="835.5" y="264.6797"/><rect fill="#FFFFFF" height="30.3516" style="stroke:#181818;stroke-width:1.0;" width="10" x="998.5" y="412.0859"/><rect fill="none" height="347.8672" style="stroke:#000000;stroke-width:1.5;" width="891.5" x="197" y="102.5703"/><line style="stroke:#181818;stroke-width:0.5;stroke-dasharray:5.0,5.0;" x1="292" x2="292" y1="55.2188" y2="497.7891"/><line style="stroke:#181818;stroke-width:0.5;stroke-dasharray:5.0,5.0;" x1="598.5" x2="598.5" y1="55.2188" y2="497.7891"/><line style="stroke:#181818;stroke-width:0.5;stroke-dasharray:5.0,5.0;" x1="703.5" x2="703.5" y1="55.2188" y2="497.7891"/><line style="stroke:#181818;stroke-width:0.5;stroke-dasharray:5.0,5.0;" x1="840.5" x2="840.5" y1="55.2188" y2="497.7891"/><line style="stroke:#181818;stroke-width:0.5;stroke-dasharray:5.0,5.0;" x1="1003.5" x2="1003.5" y1="55.2188" y2="497.7891"/><rect fill="#E3E3E3" height="31.6094" rx="2.5" ry="2.5" style="stroke:#181818;stroke-width:0.5;" width="170" x="207" y="22.6094"/><text fill="#000000" font-family="sans-serif" font-size="14" lengthAdjust="spacing" textLength="156" x="214" y="44.1426">:ConsultAssetsController</text><rect fill="#E3E3E3" height="31.6094" rx="2.5" ry="2.5" style="stroke:#181818;stroke-width:0.5;" width="170" x="207" y="496.7891"/><text fill="#000000" font-family="sans-serif" font-size="14" lengthAdjust="spacing" textLength="156" x="214" y="518.3223">:ConsultAssetsController</text><rect fill="#E3E3E3" height="31.6094" rx="2.5" ry="2.5" style="stroke:#181818;stroke-width:0.5;" width="93" x="552.5" y="22.6094"/><text fill="#000000" font-family="sans-serif" font-size="14" lengthAdjust="spacing" textLength="79" x="559.5" y="44.1426">Repositories</text><rect fill="#E3E3E3" height="31.6094" rx="2.5" ry="2.5" style="stroke:#181818;stroke-width:0.5;" width="93" x="552.5" y="496.7891"/><text fill="#000000" font-family="sans-serif" font-size="14" lengthAdjust="spacing" textLength="79" x="559.5" y="518.3223">Repositories</text><rect fill="#E3E3E3" height="49.2188" rx="2.5" ry="2.5" style="stroke:#181818;stroke-width:0.5;" width="97" x="655.5" y="5"/><text fill="#000000" font-family="sans-serif" font-size="14" lengthAdjust="spacing" textLength="74" x="667" y="26.5332">repositories</text><text fill="#000000" font-family="sans-serif" font-size="14" lengthAdjust="spacing" textLength="83" x="662.5" y="44.1426">:Repositories</text><rect fill="#E3E3E3" height="49.2188" rx="2.5" ry="2.5" style="stroke:#181818;stroke-width:0.5;" width="97" x="655.5" y="496.7891"/><text fill="#000000" font-family="sans-serif" font-size="14" lengthAdjust="spacing" textLength="74" x="667" y="518.3223">repositories</text><text fill="#000000" font-family="sans-serif" font-size="14" lengthAdjust="spacing" textLength="83" x="662.5" y="535.9316">:Repositories</text><rect fill="#E3E3E3" height="49.2188" rx="2.5" ry="2.5" style="stroke:#181818;stroke-width:0.5;" width="156" x="762.5" y="5"/><text fill="#000000" font-family="sans-serif" font-size="14" lengthAdjust="spacing" textLength="142" x="769.5" y="26.5332">declarationRepository:</text><text fill="#000000" font-family="sans-serif" font-size="14" lengthAdjust="spacing" textLength="140" x="770.5" y="44.1426">DeclarationRepository</text><rect fill="#E3E3E3" height="49.2188" rx="2.5" ry="2.5" style="stroke:#181818;stroke-width:0.5;" width="156" x="762.5" y="496.7891"/><text fill="#000000" font-family="sans-serif" font-size="14" lengthAdjust="spacing" textLength="142" x="769.5" y="518.3223">declarationRepository:</text><text fill="#000000" font-family="sans-serif" font-size="14" lengthAdjust="spacing" textLength="140" x="770.5" y="535.9316">DeclarationRepository</text><rect fill="#E3E3E3" height="49.2188" rx="2.5" ry="2.5" style="stroke:#181818;stroke-width:0.5;" width="150" x="928.5" y="5"/><text fill="#000000" font-family="sans-serif" font-size="14" lengthAdjust="spacing" textLength="131" x="938" y="26.5332">assetVisibilityService</text><text fill="#000000" font-family="sans-serif" font-size="14" lengthAdjust="spacing" textLength="136" x="935.5" y="44.1426">:AssetVisibilityService</text><rect fill="#E3E3E3" height="49.2188" rx="2.5" ry="2.5" style="stroke:#181818;stroke-width:0.5;" width="150" x="928.5" y="496.7891"/><text fill="#000000" font-family="sans-serif" font-size="14" lengthAdjust="spacing" textLength="131" x="938" y="518.3223">assetVisibilityService</text><text fill="#000000" font-family="sans-serif" font-size="14" lengthAdjust="spacing" textLength="136" x="935.5" y="535.9316">:AssetVisibilityService</text><rect fill="#FFFFFF" height="392.2188" style="stroke:#181818;stroke-width:1.0;" width="10" x="287" y="87.5703"/><rect fill="#FFFFFF" height="41.3516" style="stroke:#181818;stroke-width:1.0;" width="10" x="292" y="333.3828"/><rect fill="#FFFFFF" height="30.3516" style="stroke:#181818;stroke-width:1.0;" width="10" x="594" y="143.2734"/><rect fill="#FFFFFF" height="30.3516" style="stroke:#181818;stroke-width:1.0;" width="10" x="699" y="203.9766"/><rect fill="#FFFFFF" height="30.3516" style="stroke:#181818;stroke-width:1.0;" width="10" x="835.5" y="264.6797"/><rect fill="#FFFFFF" height="30.3516" style="stroke:#181818;stroke-width:1.0;" width="10" x="998.5" y="412.0859"/><polygon fill="#181818" points="275,83.5703,285,87.5703,275,91.5703,279,87.5703" style="stroke:#181818;stroke-width:1.0;"/><line style="stroke:#181818;stroke-width:1.0;" x1="0" x2="281" y1="87.5703" y2="87.5703"/><text fill="#000000" font-family="sans-serif" font-size="13" font-weight="bold" lengthAdjust="spacing" textLength="7" x="7" y="82.7139">8</text><text fill="#000000" font-family="sans-serif" font-size="13" lengthAdjust="spacing" textLength="257" x="18" y="82.7139">consultAssets(politicalAgent, referenceDate)</text><path d="M197,102.5703 L433,102.5703 L433,110.9219 L423,120.9219 L197,120.9219 L197,102.5703 " fill="#EEEEEE" style="stroke:#000000;stroke-width:1.5;"/><rect fill="none" height="347.8672" style="stroke:#000000;stroke-width:1.5;" width="891.5" x="197" y="102.5703"/><text fill="#000000" font-family="sans-serif" font-size="13" font-weight="bold" lengthAdjust="spacing" textLength="191" x="212" y="117.0654">Consult Assets with Role Filter</text><polygon fill="#181818" points="582,139.2734,592,143.2734,582,147.2734,586,143.2734" style="stroke:#181818;stroke-width:1.0;"/><line style="stroke:#181818;stroke-width:1.0;" x1="297" x2="588" y1="143.2734" y2="143.2734"/><text fill="#000000" font-family="sans-serif" font-size="13" font-weight="bold" lengthAdjust="spacing" textLength="18" x="304" y="138.417">8.1</text><text fill="#000000" font-family="sans-serif" font-size="13" lengthAdjust="spacing" textLength="75" x="326" y="138.417">getInstance()</text><polygon fill="#181818" points="308,169.625,298,173.625,308,177.625,304,173.625" style="stroke:#181818;stroke-width:1.0;"/><line style="stroke:#181818;stroke-width:1.0;stroke-dasharray:2.0,2.0;" x1="302" x2="598" y1="173.625" y2="173.625"/><text fill="#000000" font-family="sans-serif" font-size="13" font-weight="bold" lengthAdjust="spacing" textLength="18" x="314" y="168.7686">8.2</text><text fill="#000000" font-family="sans-serif" font-size="13" lengthAdjust="spacing" textLength="67" x="336" y="168.7686">repositories</text><polygon fill="#181818" points="687,199.9766,697,203.9766,687,207.9766,691,203.9766" style="stroke:#181818;stroke-width:1.0;"/><line style="stroke:#181818;stroke-width:1.0;" x1="297" x2="693" y1="203.9766" y2="203.9766"/><text fill="#000000" font-family="sans-serif" font-size="13" font-weight="bold" lengthAdjust="spacing" textLength="18" x="304" y="199.1201">8.3</text><text fill="#000000" font-family="sans-serif" font-size="13" lengthAdjust="spacing" textLength="153" x="326" y="199.1201">getDeclarationRepository()</text><polygon fill="#181818" points="308,230.3281,298,234.3281,308,238.3281,304,234.3281" style="stroke:#181818;stroke-width:1.0;"/><line style="stroke:#181818;stroke-width:1.0;stroke-dasharray:2.0,2.0;" x1="302" x2="703" y1="234.3281" y2="234.3281"/><text fill="#000000" font-family="sans-serif" font-size="13" font-weight="bold" lengthAdjust="spacing" textLength="18" x="314" y="229.4717">8.4</text><text fill="#000000" font-family="sans-serif" font-size="13" lengthAdjust="spacing" textLength="125" x="336" y="229.4717">declarationRepository</text><polygon fill="#181818" points="823.5,260.6797,833.5,264.6797,823.5,268.6797,827.5,264.6797" style="stroke:#181818;stroke-width:1.0;"/><line style="stroke:#181818;stroke-width:1.0;" x1="297" x2="829.5" y1="264.6797" y2="264.6797"/><text fill="#000000" font-family="sans-serif" font-size="13" font-weight="bold" lengthAdjust="spacing" textLength="18" x="304" y="259.8232">8.5</text><text fill="#000000" font-family="sans-serif" font-size="13" lengthAdjust="spacing" textLength="413" x="326" y="259.8232">getDeclarationsByPoliticalAgentUntilDate(politicalAgent, referenceDate)</text><polygon fill="#181818" points="308,291.0313,298,295.0313,308,299.0313,304,295.0313" style="stroke:#181818;stroke-width:1.0;"/><line style="stroke:#181818;stroke-width:1.0;stroke-dasharray:2.0,2.0;" x1="302" x2="839.5" y1="295.0313" y2="295.0313"/><text fill="#000000" font-family="sans-serif" font-size="13" font-weight="bold" lengthAdjust="spacing" textLength="18" x="314" y="290.1748">8.6</text><text fill="#000000" font-family="sans-serif" font-size="13" lengthAdjust="spacing" textLength="70" x="336" y="290.1748">declarations</text><line style="stroke:#181818;stroke-width:1.0;" x1="297" x2="344" y1="320.3828" y2="320.3828"/><line style="stroke:#181818;stroke-width:1.0;" x1="344" x2="344" y1="320.3828" y2="333.3828"/><line style="stroke:#181818;stroke-width:1.0;" x1="303" x2="344" y1="333.3828" y2="333.3828"/><polygon fill="#181818" points="313,329.3828,303,333.3828,313,337.3828,309,333.3828" style="stroke:#181818;stroke-width:1.0;"/><text fill="#000000" font-family="sans-serif" font-size="13" font-weight="bold" lengthAdjust="spacing" textLength="18" x="309" y="315.5264">8.7</text><text fill="#000000" font-family="sans-serif" font-size="13" lengthAdjust="spacing" textLength="261" x="331" y="315.5264">extractAssetsFromDeclarations(declarations)</text><line style="stroke:#181818;stroke-width:1.0;stroke-dasharray:2.0,2.0;" x1="302" x2="344" y1="373.7344" y2="373.7344"/><line style="stroke:#181818;stroke-width:1.0;stroke-dasharray:2.0,2.0;" x1="344" x2="344" y1="373.7344" y2="386.7344"/><line style="stroke:#181818;stroke-width:1.0;stroke-dasharray:2.0,2.0;" x1="297" x2="344" y1="386.7344" y2="386.7344"/><polygon fill="#181818" points="307,382.7344,297,386.7344,307,390.7344,303,386.7344" style="stroke:#181818;stroke-width:1.0;"/><text fill="#000000" font-family="sans-serif" font-size="13" font-weight="bold" lengthAdjust="spacing" textLength="18" x="309" y="368.8779">8.8</text><text fill="#000000" font-family="sans-serif" font-size="13" lengthAdjust="spacing" textLength="67" x="331" y="368.8779">assetViews</text><polygon fill="#181818" points="986.5,408.0859,996.5,412.0859,986.5,416.0859,990.5,412.0859" style="stroke:#181818;stroke-width:1.0;"/><line style="stroke:#181818;stroke-width:1.0;" x1="297" x2="992.5" y1="412.0859" y2="412.0859"/><text fill="#000000" font-family="sans-serif" font-size="13" font-weight="bold" lengthAdjust="spacing" textLength="18" x="304" y="407.2295">8.9</text><text fill="#000000" font-family="sans-serif" font-size="13" lengthAdjust="spacing" textLength="214" x="326" y="407.2295">applyRoleMasking(user, assetViews)</text><polygon fill="#181818" points="308,438.4375,298,442.4375,308,446.4375,304,442.4375" style="stroke:#181818;stroke-width:1.0;"/><line style="stroke:#181818;stroke-width:1.0;stroke-dasharray:2.0,2.0;" x1="302" x2="1002.5" y1="442.4375" y2="442.4375"/><text fill="#000000" font-family="sans-serif" font-size="13" font-weight="bold" lengthAdjust="spacing" textLength="25" x="314" y="437.5811">8.10</text><text fill="#000000" font-family="sans-serif" font-size="13" lengthAdjust="spacing" textLength="79" x="343" y="437.5811">filteredAssets</text><polygon fill="#181818" points="11,475.7891,1,479.7891,11,483.7891,7,479.7891" style="stroke:#181818;stroke-width:1.0;"/><line style="stroke:#181818;stroke-width:1.0;stroke-dasharray:2.0,2.0;" x1="5" x2="291" y1="479.7891" y2="479.7891"/><text fill="#000000" font-family="sans-serif" font-size="13" font-weight="bold" lengthAdjust="spacing" textLength="7" x="17" y="474.9326">9</text><text fill="#000000" font-family="sans-serif" font-size="13" lengthAdjust="spacing" textLength="79" x="28" y="474.9326">filteredAssets</text><!--SRC=[XPJ1QkCm48RlVWhHKmhDGczjM1RIn2c6R5liRA1G2AeySKGKoKZZPltsAyl1bck5rIL46ltwPluPcoEN9TNqH4vAAdRGwWG4TGMHwKvAoewqW0nh0KG3GoeBuGUO0ytLcSk2xAam44Ls6pdZ9PL8RcOB9KqbS6uCeB5_K2iXGDyGQiXYaww7uIcKod1KceDn8MdyzfeDOxGNyo5duIkxB7bvNiURrvVXvHoOiDZ8bUmkrhCFkGpjExbbl5Zl6isX46qIsdB3FxdWM6UWlpW3opCF7ZYfRP8bJyawsRpliZZT9eiuYcY5IbQdJz3a8Ph-SZKXCyByiarAPQKues9UWCGxwyCUD4W6IufmEz3uSHzHXlpB7hJr9NOLMbKbkLX1Mb5ovdWWgRAshhX0q2woMGx1ehX2MfO2C9766izWSjj5TQ-q5X5ljHUdVJQ-PLra3jyamW2zaorAqAchN5uVZ0WzPOyrs25NeJtz4NxNEIDmyrI_3Ipz8v6Bnip_MJtAiczFFx_-wN1cGHTwgL4g5mNuYzg6jmsqifyBFwU9hnyWxRfnADwhNqOApa4wTtq4DXwfHgWiHTrqzc_QVAUAIML0ttdw0Rh0RFgiWNSyyhqR8CZRmeJehyY3pDslDy6FRkFdT7f5_7j9_W40]--></g></svg>