<?xml version="1.0" encoding="us-ascii" standalone="no"?><svg xmlns="http://www.w3.org/2000/svg" xmlns:xlink="http://www.w3.org/1999/xlink" contentStyleType="text/css" height="1561px" preserveAspectRatio="none" style="width:1768px;height:1561px;background:#FFFFFF;" version="1.1" viewBox="0 0 1768 1561" width="1768px" zoomAndPan="magnify"><defs/><g><!--class PropertyType--><g id="elem_PropertyType"><rect codeLine="6" fill="#F1F1F1" height="83.2188" id="PropertyType" rx="2.5" ry="2.5" style="stroke:#181818;stroke-width:0.5;" width="118" x="1265.5" y="1463"/><ellipse cx="1280.5" cy="1479" fill="#EB937F" rx="11" ry="11" style="stroke:#181818;stroke-width:1.0;"/><path d="M1279.3594,1479.7969 L1279.3594,1482.2969 L1283.6875,1482.2969 L1283.6875,1481.375 Q1283.6875,1480.7656 1283.9297,1480.5 Q1284.1719,1480.2344 1284.5469,1480.2344 Q1284.9219,1480.2344 1285.1563,1480.5 Q1285.3906,1480.7656 1285.3906,1481.375 L1285.3906,1484 L1277.3906,1484 Q1276.7656,1484 1276.5078,1483.7656 Q1276.25,1483.5313 1276.25,1483.1406 Q1276.25,1482.7656 1276.5156,1482.5313 Q1276.7813,1482.2969 1277.3906,1482.2969 L1277.6563,1482.2969 L1277.6563,1475.6406 L1277.3906,1475.6406 Q1276.7656,1475.6406 1276.5078,1475.4063 Q1276.25,1475.1719 1276.25,1474.7813 Q1276.25,1474.4063 1276.5078,1474.1719 Q1276.7656,1473.9375 1277.3906,1473.9375 L1285.0156,1473.9375 L1285.0156,1476.5313 Q1285.0156,1477.1406 1284.7891,1477.3984 Q1284.5625,1477.6563 1284.1719,1477.6563 Q1283.7969,1477.6563 1283.5625,1477.3984 Q1283.3281,1477.1406 1283.3281,1476.5313 L1283.3281,1475.6406 L1279.3594,1475.6406 L1279.3594,1478.0938 L1280.8438,1478.0938 Q1280.8438,1477.4375 1280.9688,1477.25 Q1281.2344,1476.8438 1281.7031,1476.8438 Q1282.0781,1476.8438 1282.3125,1477.1016 Q1282.5469,1477.3594 1282.5469,1477.9688 L1282.5469,1479.9375 Q1282.5469,1480.4844 1282.4219,1480.6719 Q1282.1563,1481.0625 1281.7031,1481.0625 Q1281.2344,1481.0625 1280.9688,1480.6563 Q1280.8438,1480.4688 1280.8438,1479.7969 L1279.3594,1479.7969 Z " fill="#000000"/><text fill="#000000" font-family="sans-serif" font-size="14" lengthAdjust="spacing" textLength="86" x="1294.5" y="1484.7285">PropertyType</text><line style="stroke:#181818;stroke-width:0.5;" x1="1266.5" x2="1382.5" y1="1495" y2="1495"/><text fill="#000000" font-family="sans-serif" font-size="14" lengthAdjust="spacing" textLength="46" x="1271.5" y="1513.5332">URBAN</text><text fill="#000000" font-family="sans-serif" font-size="14" lengthAdjust="spacing" textLength="46" x="1271.5" y="1531.1426">RURAL</text><line style="stroke:#181818;stroke-width:0.5;" x1="1266.5" x2="1382.5" y1="1538.2188" y2="1538.2188"/></g><!--class ApplicationSession--><g id="elem_ApplicationSession"><rect codeLine="11" fill="#F1F1F1" height="100.8281" id="ApplicationSession" rx="2.5" ry="2.5" style="stroke:#181818;stroke-width:0.5;" width="151" x="537" y="235"/><ellipse cx="552" cy="251" fill="#ADD1B2" rx="11" ry="11" style="stroke:#181818;stroke-width:1.0;"/><path d="M554.7656,246.875 Q554.9219,246.6563 555.1094,246.5469 Q555.2969,246.4375 555.5156,246.4375 Q555.8906,246.4375 556.125,246.6953 Q556.3594,246.9531 556.3594,247.5625 L556.3594,249.0156 Q556.3594,249.625 556.125,249.8906 Q555.8906,250.1563 555.5156,250.1563 Q555.1719,250.1563 554.9688,249.9531 Q554.7656,249.7656 554.6563,249.25 Q554.6094,248.8906 554.4219,248.7031 Q554.0938,248.3281 553.4844,248.1094 Q552.875,247.8906 552.25,247.8906 Q551.4844,247.8906 550.8516,248.2188 Q550.2188,248.5469 549.7266,249.2969 Q549.2344,250.0469 549.2344,251.0781 L549.2344,252.1719 Q549.2344,253.4063 550.125,254.2266 Q551.0156,255.0469 552.6094,255.0469 Q553.5469,255.0469 554.2031,254.7969 Q554.5938,254.6406 555.0156,254.2031 Q555.2813,253.9375 555.4297,253.8594 Q555.5781,253.7813 555.7813,253.7813 Q556.1094,253.7813 556.3672,254.0391 Q556.625,254.2969 556.625,254.6406 Q556.625,254.9844 556.2813,255.3906 Q555.7813,255.9688 554.9844,256.2969 Q553.9063,256.75 552.6094,256.75 Q551.0938,256.75 549.8906,256.125 Q548.9063,255.625 548.2188,254.5547 Q547.5313,253.4844 547.5313,252.2031 L547.5313,251.0469 Q547.5313,249.7188 548.1484,248.5703 Q548.7656,247.4219 549.8594,246.8047 Q550.9531,246.1875 552.1875,246.1875 Q552.9219,246.1875 553.5703,246.3516 Q554.2188,246.5156 554.7656,246.875 Z " fill="#000000"/><text fill="#000000" font-family="sans-serif" font-size="14" lengthAdjust="spacing" textLength="119" x="566" y="256.7285">ApplicationSession</text><line style="stroke:#181818;stroke-width:0.5;" x1="538" x2="687" y1="267" y2="267"/><line style="stroke:#181818;stroke-width:0.5;" x1="538" x2="687" y1="275" y2="275"/><text fill="#000000" font-family="sans-serif" font-size="14" lengthAdjust="spacing" textLength="134" x="543" y="293.5332">-ApplicationSession()</text><text fill="#000000" font-family="sans-serif" font-size="14" lengthAdjust="spacing" text-decoration="underline" textLength="91" x="543" y="311.1426">+getInstance()</text><text fill="#000000" font-family="sans-serif" font-size="14" lengthAdjust="spacing" textLength="136" x="543" y="328.752">+getCurrentSession()</text></g><!--class UserSession--><g id="elem_UserSession"><rect codeLine="17" fill="#F1F1F1" height="65.6094" id="UserSession" rx="2.5" ry="2.5" style="stroke:#181818;stroke-width:0.5;" width="113" x="701" y="440"/><ellipse cx="716.9" cy="456" fill="#ADD1B2" rx="11" ry="11" style="stroke:#181818;stroke-width:1.0;"/><path d="M719.6656,451.875 Q719.8219,451.6563 720.0094,451.5469 Q720.1969,451.4375 720.4156,451.4375 Q720.7906,451.4375 721.025,451.6953 Q721.2594,451.9531 721.2594,452.5625 L721.2594,454.0156 Q721.2594,454.625 721.025,454.8906 Q720.7906,455.1563 720.4156,455.1563 Q720.0719,455.1563 719.8688,454.9531 Q719.6656,454.7656 719.5563,454.25 Q719.5094,453.8906 719.3219,453.7031 Q718.9938,453.3281 718.3844,453.1094 Q717.775,452.8906 717.15,452.8906 Q716.3844,452.8906 715.7516,453.2188 Q715.1188,453.5469 714.6266,454.2969 Q714.1344,455.0469 714.1344,456.0781 L714.1344,457.1719 Q714.1344,458.4063 715.025,459.2266 Q715.9156,460.0469 717.5094,460.0469 Q718.4469,460.0469 719.1031,459.7969 Q719.4938,459.6406 719.9156,459.2031 Q720.1813,458.9375 720.3297,458.8594 Q720.4781,458.7813 720.6813,458.7813 Q721.0094,458.7813 721.2672,459.0391 Q721.525,459.2969 721.525,459.6406 Q721.525,459.9844 721.1813,460.3906 Q720.6813,460.9688 719.8844,461.2969 Q718.8063,461.75 717.5094,461.75 Q715.9938,461.75 714.7906,461.125 Q713.8063,460.625 713.1188,459.5547 Q712.4313,458.4844 712.4313,457.2031 L712.4313,456.0469 Q712.4313,454.7188 713.0484,453.5703 Q713.6656,452.4219 714.7594,451.8047 Q715.8531,451.1875 717.0875,451.1875 Q717.8219,451.1875 718.4703,451.3516 Q719.1188,451.5156 719.6656,451.875 Z " fill="#000000"/><text fill="#000000" font-family="sans-serif" font-size="14" lengthAdjust="spacing" textLength="79" x="731.1" y="461.7285">UserSession</text><line style="stroke:#181818;stroke-width:0.5;" x1="702" x2="813" y1="472" y2="472"/><line style="stroke:#181818;stroke-width:0.5;" x1="702" x2="813" y1="480" y2="480"/><text fill="#000000" font-family="sans-serif" font-size="14" lengthAdjust="spacing" textLength="101" x="707" y="498.5332">+getUserEmail()</text></g><!--class Person--><g id="elem_Person"><rect codeLine="21" fill="#F1F1F1" height="100.8281" id="Person" rx="2.5" ry="2.5" style="stroke:#181818;stroke-width:0.5;" width="101" x="922" y="422.5"/><ellipse cx="947.8" cy="438.5" fill="#A9DCDF" rx="11" ry="11" style="stroke:#181818;stroke-width:1.0;"/><path d="M949.9875,440.2656 L945.8469,440.2656 L945.425,441.2969 L945.8469,441.2969 Q946.4563,441.2969 946.7219,441.5313 Q946.9875,441.7656 946.9875,442.1563 Q946.9875,442.5313 946.7219,442.7656 Q946.4563,443 945.8469,443 L943.55,443 Q942.9406,443 942.6828,442.7656 Q942.425,442.5313 942.425,442.1406 Q942.425,441.7656 942.6984,441.5234 Q942.9719,441.2813 943.5969,441.2969 L946.2688,434.6406 L945.1594,434.6406 Q944.55,434.6406 944.2844,434.4063 Q944.0188,434.1719 944.0188,433.7813 Q944.0188,433.4063 944.2844,433.1719 Q944.55,432.9375 945.1594,432.9375 L948.8313,432.9375 L952.2219,441.2969 Q952.8156,441.2969 953.0031,441.4375 Q953.3938,441.7031 953.3938,442.1563 Q953.3938,442.5313 953.1359,442.7656 Q952.8781,443 952.2688,443 L949.9719,443 Q949.3625,443 949.0969,442.7656 Q948.8313,442.5313 948.8313,442.1406 Q948.8313,441.7656 949.0969,441.5313 Q949.3625,441.2969 949.9719,441.2969 L950.3938,441.2969 L949.9875,440.2656 Z M949.2688,438.5625 L947.9094,435.1875 L946.5344,438.5625 L949.2688,438.5625 Z " fill="#000000"/><text fill="#000000" font-family="sans-serif" font-size="14" font-style="italic" lengthAdjust="spacing" textLength="45" x="964.2" y="444.2285">Person</text><line style="stroke:#181818;stroke-width:0.5;" x1="923" x2="1022" y1="454.5" y2="454.5"/><text fill="#000000" font-family="sans-serif" font-size="14" lengthAdjust="spacing" textLength="89" x="928" y="473.0332">-name : String</text><text fill="#000000" font-family="sans-serif" font-size="14" lengthAdjust="spacing" textLength="83" x="928" y="490.6426">-taxId : String</text><text fill="#000000" font-family="sans-serif" font-size="14" lengthAdjust="spacing" textLength="87" x="928" y="508.252">-email : String</text><line style="stroke:#181818;stroke-width:0.5;" x1="923" x2="1022" y1="515.3281" y2="515.3281"/></g><!--class Citizen--><g id="elem_Citizen"><rect codeLine="27" fill="#F1F1F1" height="48" id="Citizen" rx="2.5" ry="2.5" style="stroke:#181818;stroke-width:0.5;" width="74" x="775.5" y="627.5"/><ellipse cx="790.5" cy="643.5" fill="#ADD1B2" rx="11" ry="11" style="stroke:#181818;stroke-width:1.0;"/><path d="M793.2656,639.375 Q793.4219,639.1563 793.6094,639.0469 Q793.7969,638.9375 794.0156,638.9375 Q794.3906,638.9375 794.625,639.1953 Q794.8594,639.4531 794.8594,640.0625 L794.8594,641.5156 Q794.8594,642.125 794.625,642.3906 Q794.3906,642.6563 794.0156,642.6563 Q793.6719,642.6563 793.4688,642.4531 Q793.2656,642.2656 793.1563,641.75 Q793.1094,641.3906 792.9219,641.2031 Q792.5938,640.8281 791.9844,640.6094 Q791.375,640.3906 790.75,640.3906 Q789.9844,640.3906 789.3516,640.7188 Q788.7188,641.0469 788.2266,641.7969 Q787.7344,642.5469 787.7344,643.5781 L787.7344,644.6719 Q787.7344,645.9063 788.625,646.7266 Q789.5156,647.5469 791.1094,647.5469 Q792.0469,647.5469 792.7031,647.2969 Q793.0938,647.1406 793.5156,646.7031 Q793.7813,646.4375 793.9297,646.3594 Q794.0781,646.2813 794.2813,646.2813 Q794.6094,646.2813 794.8672,646.5391 Q795.125,646.7969 795.125,647.1406 Q795.125,647.4844 794.7813,647.8906 Q794.2813,648.4688 793.4844,648.7969 Q792.4063,649.25 791.1094,649.25 Q789.5938,649.25 788.3906,648.625 Q787.4063,648.125 786.7188,647.0547 Q786.0313,645.9844 786.0313,644.7031 L786.0313,643.5469 Q786.0313,642.2188 786.6484,641.0703 Q787.2656,639.9219 788.3594,639.3047 Q789.4531,638.6875 790.6875,638.6875 Q791.4219,638.6875 792.0703,638.8516 Q792.7188,639.0156 793.2656,639.375 Z " fill="#000000"/><text fill="#000000" font-family="sans-serif" font-size="14" lengthAdjust="spacing" textLength="42" x="804.5" y="649.2285">Citizen</text><line style="stroke:#181818;stroke-width:0.5;" x1="776.5" x2="848.5" y1="659.5" y2="659.5"/><line style="stroke:#181818;stroke-width:0.5;" x1="776.5" x2="848.5" y1="667.5" y2="667.5"/></g><!--class Journalist--><g id="elem_Journalist"><rect codeLine="30" fill="#F1F1F1" height="65.6094" id="Journalist" rx="2.5" ry="2.5" style="stroke:#181818;stroke-width:0.5;" width="181" x="885" y="618.5"/><ellipse cx="941.25" cy="634.5" fill="#ADD1B2" rx="11" ry="11" style="stroke:#181818;stroke-width:1.0;"/><path d="M944.0156,630.375 Q944.1719,630.1563 944.3594,630.0469 Q944.5469,629.9375 944.7656,629.9375 Q945.1406,629.9375 945.375,630.1953 Q945.6094,630.4531 945.6094,631.0625 L945.6094,632.5156 Q945.6094,633.125 945.375,633.3906 Q945.1406,633.6563 944.7656,633.6563 Q944.4219,633.6563 944.2188,633.4531 Q944.0156,633.2656 943.9063,632.75 Q943.8594,632.3906 943.6719,632.2031 Q943.3438,631.8281 942.7344,631.6094 Q942.125,631.3906 941.5,631.3906 Q940.7344,631.3906 940.1016,631.7188 Q939.4688,632.0469 938.9766,632.7969 Q938.4844,633.5469 938.4844,634.5781 L938.4844,635.6719 Q938.4844,636.9063 939.375,637.7266 Q940.2656,638.5469 941.8594,638.5469 Q942.7969,638.5469 943.4531,638.2969 Q943.8438,638.1406 944.2656,637.7031 Q944.5313,637.4375 944.6797,637.3594 Q944.8281,637.2813 945.0313,637.2813 Q945.3594,637.2813 945.6172,637.5391 Q945.875,637.7969 945.875,638.1406 Q945.875,638.4844 945.5313,638.8906 Q945.0313,639.4688 944.2344,639.7969 Q943.1563,640.25 941.8594,640.25 Q940.3438,640.25 939.1406,639.625 Q938.1563,639.125 937.4688,638.0547 Q936.7813,636.9844 936.7813,635.7031 L936.7813,634.5469 Q936.7813,633.2188 937.3984,632.0703 Q938.0156,630.9219 939.1094,630.3047 Q940.2031,629.6875 941.4375,629.6875 Q942.1719,629.6875 942.8203,629.8516 Q943.4688,630.0156 944.0156,630.375 Z " fill="#000000"/><text fill="#000000" font-family="sans-serif" font-size="14" lengthAdjust="spacing" textLength="60" x="961.75" y="640.2285">Journalist</text><line style="stroke:#181818;stroke-width:0.5;" x1="886" x2="1065" y1="650.5" y2="650.5"/><text fill="#000000" font-family="sans-serif" font-size="14" lengthAdjust="spacing" textLength="169" x="891" y="669.0332">-pressCardNumber : String</text><line style="stroke:#181818;stroke-width:0.5;" x1="886" x2="1065" y1="676.1094" y2="676.1094"/></g><!--class PoliticalAgent--><g id="elem_PoliticalAgent"><rect codeLine="34" fill="#F1F1F1" height="83.2188" id="PoliticalAgent" rx="2.5" ry="2.5" style="stroke:#181818;stroke-width:0.5;" width="117" x="1105" y="610"/><ellipse cx="1120" cy="626" fill="#ADD1B2" rx="11" ry="11" style="stroke:#181818;stroke-width:1.0;"/><path d="M1122.7656,621.875 Q1122.9219,621.6563 1123.1094,621.5469 Q1123.2969,621.4375 1123.5156,621.4375 Q1123.8906,621.4375 1124.125,621.6953 Q1124.3594,621.9531 1124.3594,622.5625 L1124.3594,624.0156 Q1124.3594,624.625 1124.125,624.8906 Q1123.8906,625.1563 1123.5156,625.1563 Q1123.1719,625.1563 1122.9688,624.9531 Q1122.7656,624.7656 1122.6563,624.25 Q1122.6094,623.8906 1122.4219,623.7031 Q1122.0938,623.3281 1121.4844,623.1094 Q1120.875,622.8906 1120.25,622.8906 Q1119.4844,622.8906 1118.8516,623.2188 Q1118.2188,623.5469 1117.7266,624.2969 Q1117.2344,625.0469 1117.2344,626.0781 L1117.2344,627.1719 Q1117.2344,628.4063 1118.125,629.2266 Q1119.0156,630.0469 1120.6094,630.0469 Q1121.5469,630.0469 1122.2031,629.7969 Q1122.5938,629.6406 1123.0156,629.2031 Q1123.2813,628.9375 1123.4297,628.8594 Q1123.5781,628.7813 1123.7813,628.7813 Q1124.1094,628.7813 1124.3672,629.0391 Q1124.625,629.2969 1124.625,629.6406 Q1124.625,629.9844 1124.2813,630.3906 Q1123.7813,630.9688 1122.9844,631.2969 Q1121.9063,631.75 1120.6094,631.75 Q1119.0938,631.75 1117.8906,631.125 Q1116.9063,630.625 1116.2188,629.5547 Q1115.5313,628.4844 1115.5313,627.2031 L1115.5313,626.0469 Q1115.5313,624.7188 1116.1484,623.5703 Q1116.7656,622.4219 1117.8594,621.8047 Q1118.9531,621.1875 1120.1875,621.1875 Q1120.9219,621.1875 1121.5703,621.3516 Q1122.2188,621.5156 1122.7656,621.875 Z " fill="#000000"/><text fill="#000000" font-family="sans-serif" font-size="14" lengthAdjust="spacing" textLength="85" x="1134" y="631.7285">PoliticalAgent</text><line style="stroke:#181818;stroke-width:0.5;" x1="1106" x2="1221" y1="642" y2="642"/><text fill="#000000" font-family="sans-serif" font-size="14" lengthAdjust="spacing" textLength="89" x="1111" y="660.5332">-name : String</text><text fill="#000000" font-family="sans-serif" font-size="14" lengthAdjust="spacing" textLength="83" x="1111" y="678.1426">-taxId : String</text><line style="stroke:#181818;stroke-width:0.5;" x1="1106" x2="1221" y1="685.2188" y2="685.2188"/></g><!--class Section--><g id="elem_Section"><rect codeLine="39" fill="#F1F1F1" height="48" id="Section" rx="2.5" ry="2.5" style="stroke:#181818;stroke-width:0.5;" width="79" x="1305" y="932"/><ellipse cx="1320" cy="948" fill="#A9DCDF" rx="11" ry="11" style="stroke:#181818;stroke-width:1.0;"/><path d="M1322.1875,949.7656 L1318.0469,949.7656 L1317.625,950.7969 L1318.0469,950.7969 Q1318.6563,950.7969 1318.9219,951.0313 Q1319.1875,951.2656 1319.1875,951.6563 Q1319.1875,952.0313 1318.9219,952.2656 Q1318.6563,952.5 1318.0469,952.5 L1315.75,952.5 Q1315.1406,952.5 1314.8828,952.2656 Q1314.625,952.0313 1314.625,951.6406 Q1314.625,951.2656 1314.8984,951.0234 Q1315.1719,950.7813 1315.7969,950.7969 L1318.4688,944.1406 L1317.3594,944.1406 Q1316.75,944.1406 1316.4844,943.9063 Q1316.2188,943.6719 1316.2188,943.2813 Q1316.2188,942.9063 1316.4844,942.6719 Q1316.75,942.4375 1317.3594,942.4375 L1321.0313,942.4375 L1324.4219,950.7969 Q1325.0156,950.7969 1325.2031,950.9375 Q1325.5938,951.2031 1325.5938,951.6563 Q1325.5938,952.0313 1325.3359,952.2656 Q1325.0781,952.5 1324.4688,952.5 L1322.1719,952.5 Q1321.5625,952.5 1321.2969,952.2656 Q1321.0313,952.0313 1321.0313,951.6406 Q1321.0313,951.2656 1321.2969,951.0313 Q1321.5625,950.7969 1322.1719,950.7969 L1322.5938,950.7969 L1322.1875,949.7656 Z M1321.4688,948.0625 L1320.1094,944.6875 L1318.7344,948.0625 L1321.4688,948.0625 Z " fill="#000000"/><text fill="#000000" font-family="sans-serif" font-size="14" font-style="italic" lengthAdjust="spacing" textLength="47" x="1334" y="953.7285">Section</text><line style="stroke:#181818;stroke-width:0.5;" x1="1306" x2="1383" y1="964" y2="964"/><line style="stroke:#181818;stroke-width:0.5;" x1="1306" x2="1383" y1="972" y2="972"/></g><!--class AssetSection--><g id="elem_AssetSection"><rect codeLine="42" fill="#F1F1F1" height="48" id="AssetSection" rx="2.5" ry="2.5" style="stroke:#181818;stroke-width:0.5;" width="114" x="1287.5" y="1041"/><ellipse cx="1302.5" cy="1057" fill="#ADD1B2" rx="11" ry="11" style="stroke:#181818;stroke-width:1.0;"/><path d="M1305.2656,1052.875 Q1305.4219,1052.6563 1305.6094,1052.5469 Q1305.7969,1052.4375 1306.0156,1052.4375 Q1306.3906,1052.4375 1306.625,1052.6953 Q1306.8594,1052.9531 1306.8594,1053.5625 L1306.8594,1055.0156 Q1306.8594,1055.625 1306.625,1055.8906 Q1306.3906,1056.1563 1306.0156,1056.1563 Q1305.6719,1056.1563 1305.4688,1055.9531 Q1305.2656,1055.7656 1305.1563,1055.25 Q1305.1094,1054.8906 1304.9219,1054.7031 Q1304.5938,1054.3281 1303.9844,1054.1094 Q1303.375,1053.8906 1302.75,1053.8906 Q1301.9844,1053.8906 1301.3516,1054.2188 Q1300.7188,1054.5469 1300.2266,1055.2969 Q1299.7344,1056.0469 1299.7344,1057.0781 L1299.7344,1058.1719 Q1299.7344,1059.4063 1300.625,1060.2266 Q1301.5156,1061.0469 1303.1094,1061.0469 Q1304.0469,1061.0469 1304.7031,1060.7969 Q1305.0938,1060.6406 1305.5156,1060.2031 Q1305.7813,1059.9375 1305.9297,1059.8594 Q1306.0781,1059.7813 1306.2813,1059.7813 Q1306.6094,1059.7813 1306.8672,1060.0391 Q1307.125,1060.2969 1307.125,1060.6406 Q1307.125,1060.9844 1306.7813,1061.3906 Q1306.2813,1061.9688 1305.4844,1062.2969 Q1304.4063,1062.75 1303.1094,1062.75 Q1301.5938,1062.75 1300.3906,1062.125 Q1299.4063,1061.625 1298.7188,1060.5547 Q1298.0313,1059.4844 1298.0313,1058.2031 L1298.0313,1057.0469 Q1298.0313,1055.7188 1298.6484,1054.5703 Q1299.2656,1053.4219 1300.3594,1052.8047 Q1301.4531,1052.1875 1302.6875,1052.1875 Q1303.4219,1052.1875 1304.0703,1052.3516 Q1304.7188,1052.5156 1305.2656,1052.875 Z " fill="#000000"/><text fill="#000000" font-family="sans-serif" font-size="14" lengthAdjust="spacing" textLength="82" x="1316.5" y="1062.7285">AssetSection</text><line style="stroke:#181818;stroke-width:0.5;" x1="1288.5" x2="1400.5" y1="1073" y2="1073"/><line style="stroke:#181818;stroke-width:0.5;" x1="1288.5" x2="1400.5" y1="1081" y2="1081"/></g><!--class Field--><g id="elem_Field"><rect codeLine="45" fill="#F1F1F1" height="48" id="Field" rx="2.5" ry="2.5" style="stroke:#181818;stroke-width:0.5;" width="63" x="1437" y="1041"/><ellipse cx="1452" cy="1057" fill="#A9DCDF" rx="11" ry="11" style="stroke:#181818;stroke-width:1.0;"/><path d="M1454.1875,1058.7656 L1450.0469,1058.7656 L1449.625,1059.7969 L1450.0469,1059.7969 Q1450.6563,1059.7969 1450.9219,1060.0313 Q1451.1875,1060.2656 1451.1875,1060.6563 Q1451.1875,1061.0313 1450.9219,1061.2656 Q1450.6563,1061.5 1450.0469,1061.5 L1447.75,1061.5 Q1447.1406,1061.5 1446.8828,1061.2656 Q1446.625,1061.0313 1446.625,1060.6406 Q1446.625,1060.2656 1446.8984,1060.0234 Q1447.1719,1059.7813 1447.7969,1059.7969 L1450.4688,1053.1406 L1449.3594,1053.1406 Q1448.75,1053.1406 1448.4844,1052.9063 Q1448.2188,1052.6719 1448.2188,1052.2813 Q1448.2188,1051.9063 1448.4844,1051.6719 Q1448.75,1051.4375 1449.3594,1051.4375 L1453.0313,1051.4375 L1456.4219,1059.7969 Q1457.0156,1059.7969 1457.2031,1059.9375 Q1457.5938,1060.2031 1457.5938,1060.6563 Q1457.5938,1061.0313 1457.3359,1061.2656 Q1457.0781,1061.5 1456.4688,1061.5 L1454.1719,1061.5 Q1453.5625,1061.5 1453.2969,1061.2656 Q1453.0313,1061.0313 1453.0313,1060.6406 Q1453.0313,1060.2656 1453.2969,1060.0313 Q1453.5625,1059.7969 1454.1719,1059.7969 L1454.5938,1059.7969 L1454.1875,1058.7656 Z M1453.4688,1057.0625 L1452.1094,1053.6875 L1450.7344,1057.0625 L1453.4688,1057.0625 Z " fill="#000000"/><text fill="#000000" font-family="sans-serif" font-size="14" font-style="italic" lengthAdjust="spacing" textLength="31" x="1466" y="1062.7285">Field</text><line style="stroke:#181818;stroke-width:0.5;" x1="1438" x2="1499" y1="1073" y2="1073"/><line style="stroke:#181818;stroke-width:0.5;" x1="1438" x2="1499" y1="1081" y2="1081"/></g><!--class AssetField--><g id="elem_AssetField"><rect codeLine="48" fill="#F1F1F1" height="48" id="AssetField" rx="2.5" ry="2.5" style="stroke:#181818;stroke-width:0.5;" width="98" x="1357.5" y="1167"/><ellipse cx="1372.5" cy="1183" fill="#ADD1B2" rx="11" ry="11" style="stroke:#181818;stroke-width:1.0;"/><path d="M1375.2656,1178.875 Q1375.4219,1178.6563 1375.6094,1178.5469 Q1375.7969,1178.4375 1376.0156,1178.4375 Q1376.3906,1178.4375 1376.625,1178.6953 Q1376.8594,1178.9531 1376.8594,1179.5625 L1376.8594,1181.0156 Q1376.8594,1181.625 1376.625,1181.8906 Q1376.3906,1182.1563 1376.0156,1182.1563 Q1375.6719,1182.1563 1375.4688,1181.9531 Q1375.2656,1181.7656 1375.1563,1181.25 Q1375.1094,1180.8906 1374.9219,1180.7031 Q1374.5938,1180.3281 1373.9844,1180.1094 Q1373.375,1179.8906 1372.75,1179.8906 Q1371.9844,1179.8906 1371.3516,1180.2188 Q1370.7188,1180.5469 1370.2266,1181.2969 Q1369.7344,1182.0469 1369.7344,1183.0781 L1369.7344,1184.1719 Q1369.7344,1185.4063 1370.625,1186.2266 Q1371.5156,1187.0469 1373.1094,1187.0469 Q1374.0469,1187.0469 1374.7031,1186.7969 Q1375.0938,1186.6406 1375.5156,1186.2031 Q1375.7813,1185.9375 1375.9297,1185.8594 Q1376.0781,1185.7813 1376.2813,1185.7813 Q1376.6094,1185.7813 1376.8672,1186.0391 Q1377.125,1186.2969 1377.125,1186.6406 Q1377.125,1186.9844 1376.7813,1187.3906 Q1376.2813,1187.9688 1375.4844,1188.2969 Q1374.4063,1188.75 1373.1094,1188.75 Q1371.5938,1188.75 1370.3906,1188.125 Q1369.4063,1187.625 1368.7188,1186.5547 Q1368.0313,1185.4844 1368.0313,1184.2031 L1368.0313,1183.0469 Q1368.0313,1181.7188 1368.6484,1180.5703 Q1369.2656,1179.4219 1370.3594,1178.8047 Q1371.4531,1178.1875 1372.6875,1178.1875 Q1373.4219,1178.1875 1374.0703,1178.3516 Q1374.7188,1178.5156 1375.2656,1178.875 Z " fill="#000000"/><text fill="#000000" font-family="sans-serif" font-size="14" lengthAdjust="spacing" textLength="66" x="1386.5" y="1188.7285">AssetField</text><line style="stroke:#181818;stroke-width:0.5;" x1="1358.5" x2="1454.5" y1="1199" y2="1199"/><line style="stroke:#181818;stroke-width:0.5;" x1="1358.5" x2="1454.5" y1="1207" y2="1207"/></g><!--class Property--><g id="elem_Property"><rect codeLine="51" fill="#F1F1F1" height="83.2188" id="Property" rx="2.5" ry="2.5" style="stroke:#181818;stroke-width:0.5;" width="175" x="1319" y="1293"/><ellipse cx="1375.25" cy="1309" fill="#ADD1B2" rx="11" ry="11" style="stroke:#181818;stroke-width:1.0;"/><path d="M1378.0156,1304.875 Q1378.1719,1304.6563 1378.3594,1304.5469 Q1378.5469,1304.4375 1378.7656,1304.4375 Q1379.1406,1304.4375 1379.375,1304.6953 Q1379.6094,1304.9531 1379.6094,1305.5625 L1379.6094,1307.0156 Q1379.6094,1307.625 1379.375,1307.8906 Q1379.1406,1308.1563 1378.7656,1308.1563 Q1378.4219,1308.1563 1378.2188,1307.9531 Q1378.0156,1307.7656 1377.9063,1307.25 Q1377.8594,1306.8906 1377.6719,1306.7031 Q1377.3438,1306.3281 1376.7344,1306.1094 Q1376.125,1305.8906 1375.5,1305.8906 Q1374.7344,1305.8906 1374.1016,1306.2188 Q1373.4688,1306.5469 1372.9766,1307.2969 Q1372.4844,1308.0469 1372.4844,1309.0781 L1372.4844,1310.1719 Q1372.4844,1311.4063 1373.375,1312.2266 Q1374.2656,1313.0469 1375.8594,1313.0469 Q1376.7969,1313.0469 1377.4531,1312.7969 Q1377.8438,1312.6406 1378.2656,1312.2031 Q1378.5313,1311.9375 1378.6797,1311.8594 Q1378.8281,1311.7813 1379.0313,1311.7813 Q1379.3594,1311.7813 1379.6172,1312.0391 Q1379.875,1312.2969 1379.875,1312.6406 Q1379.875,1312.9844 1379.5313,1313.3906 Q1379.0313,1313.9688 1378.2344,1314.2969 Q1377.1563,1314.75 1375.8594,1314.75 Q1374.3438,1314.75 1373.1406,1314.125 Q1372.1563,1313.625 1371.4688,1312.5547 Q1370.7813,1311.4844 1370.7813,1310.2031 L1370.7813,1309.0469 Q1370.7813,1307.7188 1371.3984,1306.5703 Q1372.0156,1305.4219 1373.1094,1304.8047 Q1374.2031,1304.1875 1375.4375,1304.1875 Q1376.1719,1304.1875 1376.8203,1304.3516 Q1377.4688,1304.5156 1378.0156,1304.875 Z " fill="#000000"/><text fill="#000000" font-family="sans-serif" font-size="14" lengthAdjust="spacing" textLength="54" x="1395.75" y="1314.7285">Property</text><line style="stroke:#181818;stroke-width:0.5;" x1="1320" x2="1493" y1="1325" y2="1325"/><text fill="#000000" font-family="sans-serif" font-size="14" lengthAdjust="spacing" textLength="163" x="1325" y="1343.5332">-acquisitionValue : double</text><text fill="#000000" font-family="sans-serif" font-size="14" lengthAdjust="spacing" textLength="139" x="1325" y="1361.1426">-marketValue : double</text><line style="stroke:#181818;stroke-width:0.5;" x1="1320" x2="1493" y1="1368.2188" y2="1368.2188"/></g><!--class Location--><g id="elem_Location"><rect codeLine="56" fill="#F1F1F1" height="100.8281" id="Location" rx="2.5" ry="2.5" style="stroke:#181818;stroke-width:0.5;" width="139" x="1419" y="1454"/><ellipse cx="1457.85" cy="1470" fill="#ADD1B2" rx="11" ry="11" style="stroke:#181818;stroke-width:1.0;"/><path d="M1460.6156,1465.875 Q1460.7719,1465.6563 1460.9594,1465.5469 Q1461.1469,1465.4375 1461.3656,1465.4375 Q1461.7406,1465.4375 1461.975,1465.6953 Q1462.2094,1465.9531 1462.2094,1466.5625 L1462.2094,1468.0156 Q1462.2094,1468.625 1461.975,1468.8906 Q1461.7406,1469.1563 1461.3656,1469.1563 Q1461.0219,1469.1563 1460.8188,1468.9531 Q1460.6156,1468.7656 1460.5063,1468.25 Q1460.4594,1467.8906 1460.2719,1467.7031 Q1459.9438,1467.3281 1459.3344,1467.1094 Q1458.725,1466.8906 1458.1,1466.8906 Q1457.3344,1466.8906 1456.7016,1467.2188 Q1456.0688,1467.5469 1455.5766,1468.2969 Q1455.0844,1469.0469 1455.0844,1470.0781 L1455.0844,1471.1719 Q1455.0844,1472.4063 1455.975,1473.2266 Q1456.8656,1474.0469 1458.4594,1474.0469 Q1459.3969,1474.0469 1460.0531,1473.7969 Q1460.4438,1473.6406 1460.8656,1473.2031 Q1461.1313,1472.9375 1461.2797,1472.8594 Q1461.4281,1472.7813 1461.6313,1472.7813 Q1461.9594,1472.7813 1462.2172,1473.0391 Q1462.475,1473.2969 1462.475,1473.6406 Q1462.475,1473.9844 1462.1313,1474.3906 Q1461.6313,1474.9688 1460.8344,1475.2969 Q1459.7563,1475.75 1458.4594,1475.75 Q1456.9438,1475.75 1455.7406,1475.125 Q1454.7563,1474.625 1454.0688,1473.5547 Q1453.3813,1472.4844 1453.3813,1471.2031 L1453.3813,1470.0469 Q1453.3813,1468.7188 1453.9984,1467.5703 Q1454.6156,1466.4219 1455.7094,1465.8047 Q1456.8031,1465.1875 1458.0375,1465.1875 Q1458.7719,1465.1875 1459.4203,1465.3516 Q1460.0688,1465.5156 1460.6156,1465.875 Z " fill="#000000"/><text fill="#000000" font-family="sans-serif" font-size="14" lengthAdjust="spacing" textLength="54" x="1477.15" y="1475.7285">Location</text><line style="stroke:#181818;stroke-width:0.5;" x1="1420" x2="1557" y1="1486" y2="1486"/><text fill="#000000" font-family="sans-serif" font-size="14" lengthAdjust="spacing" textLength="93" x="1425" y="1504.5332">-parish : String</text><text fill="#000000" font-family="sans-serif" font-size="14" lengthAdjust="spacing" textLength="127" x="1425" y="1522.1426">-municipality : String</text><text fill="#000000" font-family="sans-serif" font-size="14" lengthAdjust="spacing" textLength="95" x="1425" y="1539.752">-district : String</text><line style="stroke:#181818;stroke-width:0.5;" x1="1420" x2="1557" y1="1546.8281" y2="1546.8281"/></g><!--class Declaration--><g id="elem_Declaration"><rect codeLine="62" fill="#F1F1F1" height="83.2188" id="Declaration" rx="2.5" ry="2.5" style="stroke:#181818;stroke-width:0.5;" width="193" x="1248" y="771"/><ellipse cx="1304.25" cy="787" fill="#ADD1B2" rx="11" ry="11" style="stroke:#181818;stroke-width:1.0;"/><path d="M1307.0156,782.875 Q1307.1719,782.6563 1307.3594,782.5469 Q1307.5469,782.4375 1307.7656,782.4375 Q1308.1406,782.4375 1308.375,782.6953 Q1308.6094,782.9531 1308.6094,783.5625 L1308.6094,785.0156 Q1308.6094,785.625 1308.375,785.8906 Q1308.1406,786.1563 1307.7656,786.1563 Q1307.4219,786.1563 1307.2188,785.9531 Q1307.0156,785.7656 1306.9063,785.25 Q1306.8594,784.8906 1306.6719,784.7031 Q1306.3438,784.3281 1305.7344,784.1094 Q1305.125,783.8906 1304.5,783.8906 Q1303.7344,783.8906 1303.1016,784.2188 Q1302.4688,784.5469 1301.9766,785.2969 Q1301.4844,786.0469 1301.4844,787.0781 L1301.4844,788.1719 Q1301.4844,789.4063 1302.375,790.2266 Q1303.2656,791.0469 1304.8594,791.0469 Q1305.7969,791.0469 1306.4531,790.7969 Q1306.8438,790.6406 1307.2656,790.2031 Q1307.5313,789.9375 1307.6797,789.8594 Q1307.8281,789.7813 1308.0313,789.7813 Q1308.3594,789.7813 1308.6172,790.0391 Q1308.875,790.2969 1308.875,790.6406 Q1308.875,790.9844 1308.5313,791.3906 Q1308.0313,791.9688 1307.2344,792.2969 Q1306.1563,792.75 1304.8594,792.75 Q1303.3438,792.75 1302.1406,792.125 Q1301.1563,791.625 1300.4688,790.5547 Q1299.7813,789.4844 1299.7813,788.2031 L1299.7813,787.0469 Q1299.7813,785.7188 1300.3984,784.5703 Q1301.0156,783.4219 1302.1094,782.8047 Q1303.2031,782.1875 1304.4375,782.1875 Q1305.1719,782.1875 1305.8203,782.3516 Q1306.4688,782.5156 1307.0156,782.875 Z " fill="#000000"/><text fill="#000000" font-family="sans-serif" font-size="14" lengthAdjust="spacing" textLength="72" x="1324.75" y="792.7285">Declaration</text><line style="stroke:#181818;stroke-width:0.5;" x1="1249" x2="1440" y1="803" y2="803"/><text fill="#000000" font-family="sans-serif" font-size="14" lengthAdjust="spacing" textLength="181" x="1254" y="821.5332">-submissionDate : LocalDate</text><text fill="#000000" font-family="sans-serif" font-size="14" lengthAdjust="spacing" textLength="149" x="1254" y="839.1426">-declarantName : String</text><line style="stroke:#181818;stroke-width:0.5;" x1="1249" x2="1440" y1="846.2188" y2="846.2188"/></g><!--class AssetView--><g id="elem_AssetView"><rect codeLine="67" fill="#F1F1F1" height="118.4375" id="AssetView" rx="2.5" ry="2.5" style="stroke:#181818;stroke-width:0.5;" width="169" x="48" y="414"/><ellipse cx="96.25" cy="430" fill="#ADD1B2" rx="11" ry="11" style="stroke:#181818;stroke-width:1.0;"/><path d="M99.0156,425.875 Q99.1719,425.6563 99.3594,425.5469 Q99.5469,425.4375 99.7656,425.4375 Q100.1406,425.4375 100.375,425.6953 Q100.6094,425.9531 100.6094,426.5625 L100.6094,428.0156 Q100.6094,428.625 100.375,428.8906 Q100.1406,429.1563 99.7656,429.1563 Q99.4219,429.1563 99.2188,428.9531 Q99.0156,428.7656 98.9063,428.25 Q98.8594,427.8906 98.6719,427.7031 Q98.3438,427.3281 97.7344,427.1094 Q97.125,426.8906 96.5,426.8906 Q95.7344,426.8906 95.1016,427.2188 Q94.4688,427.5469 93.9766,428.2969 Q93.4844,429.0469 93.4844,430.0781 L93.4844,431.1719 Q93.4844,432.4063 94.375,433.2266 Q95.2656,434.0469 96.8594,434.0469 Q97.7969,434.0469 98.4531,433.7969 Q98.8438,433.6406 99.2656,433.2031 Q99.5313,432.9375 99.6797,432.8594 Q99.8281,432.7813 100.0313,432.7813 Q100.3594,432.7813 100.6172,433.0391 Q100.875,433.2969 100.875,433.6406 Q100.875,433.9844 100.5313,434.3906 Q100.0313,434.9688 99.2344,435.2969 Q98.1563,435.75 96.8594,435.75 Q95.3438,435.75 94.1406,435.125 Q93.1563,434.625 92.4688,433.5547 Q91.7813,432.4844 91.7813,431.2031 L91.7813,430.0469 Q91.7813,428.7188 92.3984,427.5703 Q93.0156,426.4219 94.1094,425.8047 Q95.2031,425.1875 96.4375,425.1875 Q97.1719,425.1875 97.8203,425.3516 Q98.4688,425.5156 99.0156,425.875 Z " fill="#000000"/><text fill="#000000" font-family="sans-serif" font-size="14" lengthAdjust="spacing" textLength="64" x="116.75" y="435.7285">AssetView</text><line style="stroke:#181818;stroke-width:0.5;" x1="49" x2="216" y1="446" y2="446"/><text fill="#000000" font-family="sans-serif" font-size="14" lengthAdjust="spacing" textLength="139" x="54" y="464.5332">-propertyType : String</text><text fill="#000000" font-family="sans-serif" font-size="14" lengthAdjust="spacing" textLength="138" x="54" y="482.1426">-locationLabel : String</text><text fill="#000000" font-family="sans-serif" font-size="14" lengthAdjust="spacing" textLength="157" x="54" y="499.752">-acquisitionValue : String</text><text fill="#000000" font-family="sans-serif" font-size="14" lengthAdjust="spacing" textLength="133" x="54" y="517.3613">-marketValue : String</text><line style="stroke:#181818;stroke-width:0.5;" x1="49" x2="216" y1="524.4375" y2="524.4375"/></g><!--class AssetVisibilityService--><g id="elem_AssetVisibilityService"><rect codeLine="74" fill="#F1F1F1" height="65.6094" id="AssetVisibilityService" rx="2.5" ry="2.5" style="stroke:#181818;stroke-width:0.5;" width="251" x="7" y="252.5"/><ellipse cx="62.25" cy="268.5" fill="#ADD1B2" rx="11" ry="11" style="stroke:#181818;stroke-width:1.0;"/><path d="M65.0156,264.375 Q65.1719,264.1563 65.3594,264.0469 Q65.5469,263.9375 65.7656,263.9375 Q66.1406,263.9375 66.375,264.1953 Q66.6094,264.4531 66.6094,265.0625 L66.6094,266.5156 Q66.6094,267.125 66.375,267.3906 Q66.1406,267.6563 65.7656,267.6563 Q65.4219,267.6563 65.2188,267.4531 Q65.0156,267.2656 64.9063,266.75 Q64.8594,266.3906 64.6719,266.2031 Q64.3438,265.8281 63.7344,265.6094 Q63.125,265.3906 62.5,265.3906 Q61.7344,265.3906 61.1016,265.7188 Q60.4688,266.0469 59.9766,266.7969 Q59.4844,267.5469 59.4844,268.5781 L59.4844,269.6719 Q59.4844,270.9063 60.375,271.7266 Q61.2656,272.5469 62.8594,272.5469 Q63.7969,272.5469 64.4531,272.2969 Q64.8438,272.1406 65.2656,271.7031 Q65.5313,271.4375 65.6797,271.3594 Q65.8281,271.2813 66.0313,271.2813 Q66.3594,271.2813 66.6172,271.5391 Q66.875,271.7969 66.875,272.1406 Q66.875,272.4844 66.5313,272.8906 Q66.0313,273.4688 65.2344,273.7969 Q64.1563,274.25 62.8594,274.25 Q61.3438,274.25 60.1406,273.625 Q59.1563,273.125 58.4688,272.0547 Q57.7813,270.9844 57.7813,269.7031 L57.7813,268.5469 Q57.7813,267.2188 58.3984,266.0703 Q59.0156,264.9219 60.1094,264.3047 Q61.2031,263.6875 62.4375,263.6875 Q63.1719,263.6875 63.8203,263.8516 Q64.4688,264.0156 65.0156,264.375 Z " fill="#000000"/><text fill="#000000" font-family="sans-serif" font-size="14" lengthAdjust="spacing" textLength="132" x="82.75" y="274.2285">AssetVisibilityService</text><line style="stroke:#181818;stroke-width:0.5;" x1="8" x2="257" y1="284.5" y2="284.5"/><line style="stroke:#181818;stroke-width:0.5;" x1="8" x2="257" y1="292.5" y2="292.5"/><text fill="#000000" font-family="sans-serif" font-size="14" lengthAdjust="spacing" textLength="239" x="13" y="311.0332">+applyRoleMasking(user, assetViews)</text></g><!--class PoliticalAgentRepository--><g id="elem_PoliticalAgentRepository"><rect codeLine="78" fill="#F1F1F1" height="65.6094" id="PoliticalAgentRepository" rx="2.5" ry="2.5" style="stroke:#181818;stroke-width:0.5;" width="185" x="1071" y="252.5"/><ellipse cx="1086" cy="268.5" fill="#ADD1B2" rx="11" ry="11" style="stroke:#181818;stroke-width:1.0;"/><path d="M1088.7656,264.375 Q1088.9219,264.1563 1089.1094,264.0469 Q1089.2969,263.9375 1089.5156,263.9375 Q1089.8906,263.9375 1090.125,264.1953 Q1090.3594,264.4531 1090.3594,265.0625 L1090.3594,266.5156 Q1090.3594,267.125 1090.125,267.3906 Q1089.8906,267.6563 1089.5156,267.6563 Q1089.1719,267.6563 1088.9688,267.4531 Q1088.7656,267.2656 1088.6563,266.75 Q1088.6094,266.3906 1088.4219,266.2031 Q1088.0938,265.8281 1087.4844,265.6094 Q1086.875,265.3906 1086.25,265.3906 Q1085.4844,265.3906 1084.8516,265.7188 Q1084.2188,266.0469 1083.7266,266.7969 Q1083.2344,267.5469 1083.2344,268.5781 L1083.2344,269.6719 Q1083.2344,270.9063 1084.125,271.7266 Q1085.0156,272.5469 1086.6094,272.5469 Q1087.5469,272.5469 1088.2031,272.2969 Q1088.5938,272.1406 1089.0156,271.7031 Q1089.2813,271.4375 1089.4297,271.3594 Q1089.5781,271.2813 1089.7813,271.2813 Q1090.1094,271.2813 1090.3672,271.5391 Q1090.625,271.7969 1090.625,272.1406 Q1090.625,272.4844 1090.2813,272.8906 Q1089.7813,273.4688 1088.9844,273.7969 Q1087.9063,274.25 1086.6094,274.25 Q1085.0938,274.25 1083.8906,273.625 Q1082.9063,273.125 1082.2188,272.0547 Q1081.5313,270.9844 1081.5313,269.7031 L1081.5313,268.5469 Q1081.5313,267.2188 1082.1484,266.0703 Q1082.7656,264.9219 1083.8594,264.3047 Q1084.9531,263.6875 1086.1875,263.6875 Q1086.9219,263.6875 1087.5703,263.8516 Q1088.2188,264.0156 1088.7656,264.375 Z " fill="#000000"/><text fill="#000000" font-family="sans-serif" font-size="14" lengthAdjust="spacing" textLength="153" x="1100" y="274.2285">PoliticalAgentRepository</text><line style="stroke:#181818;stroke-width:0.5;" x1="1072" x2="1255" y1="284.5" y2="284.5"/><line style="stroke:#181818;stroke-width:0.5;" x1="1072" x2="1255" y1="292.5" y2="292.5"/><text fill="#000000" font-family="sans-serif" font-size="14" lengthAdjust="spacing" textLength="130" x="1077" y="311.0332">+getPoliticalAgents()</text></g><!--class DeclarationRepository--><g id="elem_DeclarationRepository"><rect codeLine="82" fill="#F1F1F1" height="65.6094" id="DeclarationRepository" rx="2.5" ry="2.5" style="stroke:#181818;stroke-width:0.5;" width="470" x="1291.5" y="252.5"/><ellipse cx="1452.25" cy="268.5" fill="#ADD1B2" rx="11" ry="11" style="stroke:#181818;stroke-width:1.0;"/><path d="M1455.0156,264.375 Q1455.1719,264.1563 1455.3594,264.0469 Q1455.5469,263.9375 1455.7656,263.9375 Q1456.1406,263.9375 1456.375,264.1953 Q1456.6094,264.4531 1456.6094,265.0625 L1456.6094,266.5156 Q1456.6094,267.125 1456.375,267.3906 Q1456.1406,267.6563 1455.7656,267.6563 Q1455.4219,267.6563 1455.2188,267.4531 Q1455.0156,267.2656 1454.9063,266.75 Q1454.8594,266.3906 1454.6719,266.2031 Q1454.3438,265.8281 1453.7344,265.6094 Q1453.125,265.3906 1452.5,265.3906 Q1451.7344,265.3906 1451.1016,265.7188 Q1450.4688,266.0469 1449.9766,266.7969 Q1449.4844,267.5469 1449.4844,268.5781 L1449.4844,269.6719 Q1449.4844,270.9063 1450.375,271.7266 Q1451.2656,272.5469 1452.8594,272.5469 Q1453.7969,272.5469 1454.4531,272.2969 Q1454.8438,272.1406 1455.2656,271.7031 Q1455.5313,271.4375 1455.6797,271.3594 Q1455.8281,271.2813 1456.0313,271.2813 Q1456.3594,271.2813 1456.6172,271.5391 Q1456.875,271.7969 1456.875,272.1406 Q1456.875,272.4844 1456.5313,272.8906 Q1456.0313,273.4688 1455.2344,273.7969 Q1454.1563,274.25 1452.8594,274.25 Q1451.3438,274.25 1450.1406,273.625 Q1449.1563,273.125 1448.4688,272.0547 Q1447.7813,270.9844 1447.7813,269.7031 L1447.7813,268.5469 Q1447.7813,267.2188 1448.3984,266.0703 Q1449.0156,264.9219 1450.1094,264.3047 Q1451.2031,263.6875 1452.4375,263.6875 Q1453.1719,263.6875 1453.8203,263.8516 Q1454.4688,264.0156 1455.0156,264.375 Z " fill="#000000"/><text fill="#000000" font-family="sans-serif" font-size="14" lengthAdjust="spacing" textLength="140" x="1472.75" y="274.2285">DeclarationRepository</text><line style="stroke:#181818;stroke-width:0.5;" x1="1292.5" x2="1760.5" y1="284.5" y2="284.5"/><line style="stroke:#181818;stroke-width:0.5;" x1="1292.5" x2="1760.5" y1="292.5" y2="292.5"/><text fill="#000000" font-family="sans-serif" font-size="14" lengthAdjust="spacing" textLength="458" x="1297.5" y="311.0332">+getDeclarationsByPoliticalAgentUntilDate(politicalAgent, referenceDate)</text></g><!--class UserRepository--><g id="elem_UserRepository"><rect codeLine="86" fill="#F1F1F1" height="65.6094" id="UserRepository" rx="2.5" ry="2.5" style="stroke:#181818;stroke-width:0.5;" width="162" x="873.5" y="252.5"/><ellipse cx="903.35" cy="268.5" fill="#ADD1B2" rx="11" ry="11" style="stroke:#181818;stroke-width:1.0;"/><path d="M906.1156,264.375 Q906.2719,264.1563 906.4594,264.0469 Q906.6469,263.9375 906.8656,263.9375 Q907.2406,263.9375 907.475,264.1953 Q907.7094,264.4531 907.7094,265.0625 L907.7094,266.5156 Q907.7094,267.125 907.475,267.3906 Q907.2406,267.6563 906.8656,267.6563 Q906.5219,267.6563 906.3188,267.4531 Q906.1156,267.2656 906.0063,266.75 Q905.9594,266.3906 905.7719,266.2031 Q905.4438,265.8281 904.8344,265.6094 Q904.225,265.3906 903.6,265.3906 Q902.8344,265.3906 902.2016,265.7188 Q901.5688,266.0469 901.0766,266.7969 Q900.5844,267.5469 900.5844,268.5781 L900.5844,269.6719 Q900.5844,270.9063 901.475,271.7266 Q902.3656,272.5469 903.9594,272.5469 Q904.8969,272.5469 905.5531,272.2969 Q905.9438,272.1406 906.3656,271.7031 Q906.6313,271.4375 906.7797,271.3594 Q906.9281,271.2813 907.1313,271.2813 Q907.4594,271.2813 907.7172,271.5391 Q907.975,271.7969 907.975,272.1406 Q907.975,272.4844 907.6313,272.8906 Q907.1313,273.4688 906.3344,273.7969 Q905.2563,274.25 903.9594,274.25 Q902.4438,274.25 901.2406,273.625 Q900.2563,273.125 899.5688,272.0547 Q898.8813,270.9844 898.8813,269.7031 L898.8813,268.5469 Q898.8813,267.2188 899.4984,266.0703 Q900.1156,264.9219 901.2094,264.3047 Q902.3031,263.6875 903.5375,263.6875 Q904.2719,263.6875 904.9203,263.8516 Q905.5688,264.0156 906.1156,264.375 Z " fill="#000000"/><text fill="#000000" font-family="sans-serif" font-size="14" lengthAdjust="spacing" textLength="97" x="920.65" y="274.2285">UserRepository</text><line style="stroke:#181818;stroke-width:0.5;" x1="874.5" x2="1034.5" y1="284.5" y2="284.5"/><line style="stroke:#181818;stroke-width:0.5;" x1="874.5" x2="1034.5" y1="292.5" y2="292.5"/><text fill="#000000" font-family="sans-serif" font-size="14" lengthAdjust="spacing" textLength="150" x="879.5" y="311.0332">+getUserByEmail(email)</text></g><!--class Repositories--><g id="elem_Repositories"><rect codeLine="90" fill="#F1F1F1" height="136.0469" id="Repositories" rx="2.5" ry="2.5" style="stroke:#181818;stroke-width:0.5;" width="203" x="1242" y="21"/><ellipse cx="1299.75" cy="37" fill="#ADD1B2" rx="11" ry="11" style="stroke:#181818;stroke-width:1.0;"/><path d="M1302.5156,32.875 Q1302.6719,32.6563 1302.8594,32.5469 Q1303.0469,32.4375 1303.2656,32.4375 Q1303.6406,32.4375 1303.875,32.6953 Q1304.1094,32.9531 1304.1094,33.5625 L1304.1094,35.0156 Q1304.1094,35.625 1303.875,35.8906 Q1303.6406,36.1563 1303.2656,36.1563 Q1302.9219,36.1563 1302.7188,35.9531 Q1302.5156,35.7656 1302.4063,35.25 Q1302.3594,34.8906 1302.1719,34.7031 Q1301.8438,34.3281 1301.2344,34.1094 Q1300.625,33.8906 1300,33.8906 Q1299.2344,33.8906 1298.6016,34.2188 Q1297.9688,34.5469 1297.4766,35.2969 Q1296.9844,36.0469 1296.9844,37.0781 L1296.9844,38.1719 Q1296.9844,39.4063 1297.875,40.2266 Q1298.7656,41.0469 1300.3594,41.0469 Q1301.2969,41.0469 1301.9531,40.7969 Q1302.3438,40.6406 1302.7656,40.2031 Q1303.0313,39.9375 1303.1797,39.8594 Q1303.3281,39.7813 1303.5313,39.7813 Q1303.8594,39.7813 1304.1172,40.0391 Q1304.375,40.2969 1304.375,40.6406 Q1304.375,40.9844 1304.0313,41.3906 Q1303.5313,41.9688 1302.7344,42.2969 Q1301.6563,42.75 1300.3594,42.75 Q1298.8438,42.75 1297.6406,42.125 Q1296.6563,41.625 1295.9688,40.5547 Q1295.2813,39.4844 1295.2813,38.2031 L1295.2813,37.0469 Q1295.2813,35.7188 1295.8984,34.5703 Q1296.5156,33.4219 1297.6094,32.8047 Q1298.7031,32.1875 1299.9375,32.1875 Q1300.6719,32.1875 1301.3203,32.3516 Q1301.9688,32.5156 1302.5156,32.875 Z " fill="#000000"/><text fill="#000000" font-family="sans-serif" font-size="14" lengthAdjust="spacing" textLength="79" x="1320.25" y="42.7285">Repositories</text><line style="stroke:#181818;stroke-width:0.5;" x1="1243" x2="1444" y1="53" y2="53"/><line style="stroke:#181818;stroke-width:0.5;" x1="1243" x2="1444" y1="61" y2="61"/><text fill="#000000" font-family="sans-serif" font-size="14" lengthAdjust="spacing" textLength="94" x="1248" y="79.5332">-Repositories()</text><text fill="#000000" font-family="sans-serif" font-size="14" lengthAdjust="spacing" text-decoration="underline" textLength="91" x="1248" y="97.1426">+getInstance()</text><text fill="#000000" font-family="sans-serif" font-size="14" lengthAdjust="spacing" textLength="191" x="1248" y="114.752">+getPoliticalAgentRepository()</text><text fill="#000000" font-family="sans-serif" font-size="14" lengthAdjust="spacing" textLength="178" x="1248" y="132.3613">+getDeclarationRepository()</text><text fill="#000000" font-family="sans-serif" font-size="14" lengthAdjust="spacing" textLength="135" x="1248" y="149.9707">+getUserRepository()</text></g><!--class ConsultAssetsController--><g id="elem_ConsultAssetsController"><rect codeLine="98" fill="#F1F1F1" height="118.4375" id="ConsultAssetsController" rx="2.5" ry="2.5" style="stroke:#181818;stroke-width:0.5;" width="300" x="670.5" y="30"/><ellipse cx="740.25" cy="46" fill="#ADD1B2" rx="11" ry="11" style="stroke:#181818;stroke-width:1.0;"/><path d="M743.0156,41.875 Q743.1719,41.6563 743.3594,41.5469 Q743.5469,41.4375 743.7656,41.4375 Q744.1406,41.4375 744.375,41.6953 Q744.6094,41.9531 744.6094,42.5625 L744.6094,44.0156 Q744.6094,44.625 744.375,44.8906 Q744.1406,45.1563 743.7656,45.1563 Q743.4219,45.1563 743.2188,44.9531 Q743.0156,44.7656 742.9063,44.25 Q742.8594,43.8906 742.6719,43.7031 Q742.3438,43.3281 741.7344,43.1094 Q741.125,42.8906 740.5,42.8906 Q739.7344,42.8906 739.1016,43.2188 Q738.4688,43.5469 737.9766,44.2969 Q737.4844,45.0469 737.4844,46.0781 L737.4844,47.1719 Q737.4844,48.4063 738.375,49.2266 Q739.2656,50.0469 740.8594,50.0469 Q741.7969,50.0469 742.4531,49.7969 Q742.8438,49.6406 743.2656,49.2031 Q743.5313,48.9375 743.6797,48.8594 Q743.8281,48.7813 744.0313,48.7813 Q744.3594,48.7813 744.6172,49.0391 Q744.875,49.2969 744.875,49.6406 Q744.875,49.9844 744.5313,50.3906 Q744.0313,50.9688 743.2344,51.2969 Q742.1563,51.75 740.8594,51.75 Q739.3438,51.75 738.1406,51.125 Q737.1563,50.625 736.4688,49.5547 Q735.7813,48.4844 735.7813,47.2031 L735.7813,46.0469 Q735.7813,44.7188 736.3984,43.5703 Q737.0156,42.4219 738.1094,41.8047 Q739.2031,41.1875 740.4375,41.1875 Q741.1719,41.1875 741.8203,41.3516 Q742.4688,41.5156 743.0156,41.875 Z " fill="#000000"/><text fill="#000000" font-family="sans-serif" font-size="14" lengthAdjust="spacing" textLength="152" x="760.75" y="51.7285">ConsultAssetsController</text><line style="stroke:#181818;stroke-width:0.5;" x1="671.5" x2="969.5" y1="62" y2="62"/><line style="stroke:#181818;stroke-width:0.5;" x1="671.5" x2="969.5" y1="70" y2="70"/><text fill="#000000" font-family="sans-serif" font-size="14" lengthAdjust="spacing" textLength="170" x="676.5" y="88.5332">+ConsultAssetsController()</text><text fill="#000000" font-family="sans-serif" font-size="14" lengthAdjust="spacing" textLength="130" x="676.5" y="106.1426">+getPoliticalAgents()</text><text fill="#000000" font-family="sans-serif" font-size="14" lengthAdjust="spacing" textLength="288" x="676.5" y="123.752">+consultAssets(politicalAgent, referenceDate)</text><text fill="#000000" font-family="sans-serif" font-size="14" lengthAdjust="spacing" textLength="234" x="676.5" y="141.3613">-getAuthenticatedUserFromSession()</text></g><!--class ConsultAssetsUI--><g id="elem_ConsultAssetsUI"><rect codeLine="105" fill="#F1F1F1" height="48" id="ConsultAssetsUI" rx="2.5" ry="2.5" style="stroke:#181818;stroke-width:0.5;" width="134" x="501.5" y="65"/><ellipse cx="516.5" cy="81" fill="#ADD1B2" rx="11" ry="11" style="stroke:#181818;stroke-width:1.0;"/><path d="M519.2656,76.875 Q519.4219,76.6563 519.6094,76.5469 Q519.7969,76.4375 520.0156,76.4375 Q520.3906,76.4375 520.625,76.6953 Q520.8594,76.9531 520.8594,77.5625 L520.8594,79.0156 Q520.8594,79.625 520.625,79.8906 Q520.3906,80.1563 520.0156,80.1563 Q519.6719,80.1563 519.4688,79.9531 Q519.2656,79.7656 519.1563,79.25 Q519.1094,78.8906 518.9219,78.7031 Q518.5938,78.3281 517.9844,78.1094 Q517.375,77.8906 516.75,77.8906 Q515.9844,77.8906 515.3516,78.2188 Q514.7188,78.5469 514.2266,79.2969 Q513.7344,80.0469 513.7344,81.0781 L513.7344,82.1719 Q513.7344,83.4063 514.625,84.2266 Q515.5156,85.0469 517.1094,85.0469 Q518.0469,85.0469 518.7031,84.7969 Q519.0938,84.6406 519.5156,84.2031 Q519.7813,83.9375 519.9297,83.8594 Q520.0781,83.7813 520.2813,83.7813 Q520.6094,83.7813 520.8672,84.0391 Q521.125,84.2969 521.125,84.6406 Q521.125,84.9844 520.7813,85.3906 Q520.2813,85.9688 519.4844,86.2969 Q518.4063,86.75 517.1094,86.75 Q515.5938,86.75 514.3906,86.125 Q513.4063,85.625 512.7188,84.5547 Q512.0313,83.4844 512.0313,82.2031 L512.0313,81.0469 Q512.0313,79.7188 512.6484,78.5703 Q513.2656,77.4219 514.3594,76.8047 Q515.4531,76.1875 516.6875,76.1875 Q517.4219,76.1875 518.0703,76.3516 Q518.7188,76.5156 519.2656,76.875 Z " fill="#000000"/><text fill="#000000" font-family="sans-serif" font-size="14" lengthAdjust="spacing" textLength="102" x="530.5" y="86.7285">ConsultAssetsUI</text><line style="stroke:#181818;stroke-width:0.5;" x1="502.5" x2="634.5" y1="97" y2="97"/><line style="stroke:#181818;stroke-width:0.5;" x1="502.5" x2="634.5" y1="105" y2="105"/></g><g id="elem_GMN24"><path d="M293,264 L293,281.5 L258.04,285.5 L293,289.5 L293,306.7031 A0,0 0 0 0 293,306.7031 L502,306.7031 A0,0 0 0 0 502,306.7031 L502,274 L492,264 L293,264 A0,0 0 0 0 293,264 " fill="#FEFFDD" style="stroke:#181818;stroke-width:0.5;"/><path d="M492,264 L492,274 L502,274 L492,264 " fill="#FEFFDD" style="stroke:#181818;stroke-width:0.5;"/><text fill="#000000" font-family="sans-serif" font-size="13" lengthAdjust="spacing" textLength="188" x="299" y="282.4951">Applies role-dependent omission</text><text fill="#000000" font-family="sans-serif" font-size="13" lengthAdjust="spacing" textLength="175" x="299" y="298.8467">rules before data presentation.</text></g><g id="elem_GMN27"><path d="M1006,67.5 L1006,85 L970.74,89 L1006,93 L1006,110.2031 A0,0 0 0 0 1006,110.2031 L1207,110.2031 A0,0 0 0 0 1207,110.2031 L1207,77.5 L1197,67.5 L1006,67.5 A0,0 0 0 0 1006,67.5 " fill="#FEFFDD" style="stroke:#181818;stroke-width:0.5;"/><path d="M1197,67.5 L1197,77.5 L1207,77.5 L1197,67.5 " fill="#FEFFDD" style="stroke:#181818;stroke-width:0.5;"/><text fill="#000000" font-family="sans-serif" font-size="13" lengthAdjust="spacing" textLength="173" x="1012" y="85.9951">Consultation flow is read-only:</text><text fill="#000000" font-family="sans-serif" font-size="13" lengthAdjust="spacing" textLength="180" x="1012" y="102.3467">no declaration data is modified.</text></g><!--reverse link Person to Citizen--><g id="link_Person_Citizen"><path codeLine="118" d="M915.4217,536.9669 C884.7317,570.8269 857.57,600.78 833.77,627.04 " fill="none" id="Person-backto-Citizen" style="stroke:#181818;stroke-width:1.0;"/><polygon fill="none" points="927.51,523.63,910.9761,532.9375,919.8673,540.9963,927.51,523.63" style="stroke:#181818;stroke-width:1.0;"/></g><!--reverse link Person to Journalist--><g id="link_Person_Journalist"><path codeLine="119" d="M973.648,541.6274 C974.168,572.0174 974.51,592.01 974.96,618.46 " fill="none" id="Person-backto-Journalist" style="stroke:#181818;stroke-width:1.0;"/><polygon fill="none" points="973.34,523.63,967.6488,541.73,979.6471,541.5247,973.34,523.63" style="stroke:#181818;stroke-width:1.0;"/></g><!--reverse link Person to PoliticalAgent--><g id="link_Person_PoliticalAgent"><path codeLine="120" d="M1036.4012,533.0547 C1066.3512,560.7247 1090.69,583.22 1119.41,609.76 " fill="none" id="Person-backto-PoliticalAgent" style="stroke:#181818;stroke-width:1.0;"/><polygon fill="none" points="1023.18,520.84,1032.3296,537.4618,1040.4728,528.6477,1023.18,520.84" style="stroke:#181818;stroke-width:1.0;"/></g><!--reverse link Section to AssetSection--><g id="link_Section_AssetSection"><path codeLine="122" d="M1344.5,998.22 C1344.5,1016.16 1344.5,1022.89 1344.5,1040.83 " fill="none" id="Section-backto-AssetSection" style="stroke:#181818;stroke-width:1.0;"/><polygon fill="none" points="1344.5,980.22,1338.5,998.22,1350.5,998.22,1344.5,980.22" style="stroke:#181818;stroke-width:1.0;"/></g><!--reverse link Field to AssetField--><g id="link_Field_AssetField"><path codeLine="123" d="M1448.936,1105.1326 C1437.876,1127.2726 1429.28,1144.44 1418.17,1166.67 " fill="none" id="Field-backto-AssetField" style="stroke:#181818;stroke-width:1.0;"/><polygon fill="none" points="1456.98,1089.03,1443.5684,1102.4513,1454.3035,1107.8139,1456.98,1089.03" style="stroke:#181818;stroke-width:1.0;"/></g><!--link ConsultAssetsUI to ConsultAssetsController--><g id="link_ConsultAssetsUI_ConsultAssetsController"><path codeLine="125" d="M635.5,89 C645.48,89 652.5,89 652.5,89 C652.5,89 653.9,89 664.31,89 " fill="none" id="ConsultAssetsUI-to-ConsultAssetsController" style="stroke:#181818;stroke-width:1.0;stroke-dasharray:7.0,7.0;"/><polygon fill="#181818" points="670.31,89,661.31,85,665.31,89,661.31,93,670.31,89" style="stroke:#181818;stroke-width:1.0;"/></g><!--link ConsultAssetsController to Repositories--><g id="link_ConsultAssetsController_Repositories"><path codeLine="126" d="M952.84,29.78 C982.82,16.37 1006,6 1006,6 C1006,6 1207,6 1207,6 C1207,6 1216.7435,11.9224 1236.6735,24.0424 " fill="none" id="ConsultAssetsController-to-Repositories" style="stroke:#181818;stroke-width:1.0;stroke-dasharray:7.0,7.0;"/><polygon fill="#181818" points="1241.8,27.16,1236.1886,19.066,1237.5279,24.562,1232.0319,25.9013,1241.8,27.16" style="stroke:#181818;stroke-width:1.0;"/></g><!--link ConsultAssetsController to PoliticalAgentRepository--><g id="link_ConsultAssetsController_PoliticalAgentRepository"><path codeLine="127" d="M905.99,148.17 C947.91,176.7 989.5,205 989.5,205 C989.5,205 1039.4825,227.8369 1087.7725,249.8969 " fill="none" id="ConsultAssetsController-to-PoliticalAgentRepository" style="stroke:#181818;stroke-width:1.0;stroke-dasharray:7.0,7.0;"/><polygon fill="#181818" points="1093.23,252.39,1086.7058,245.012,1088.6821,250.3124,1083.3817,252.2887,1093.23,252.39" style="stroke:#181818;stroke-width:1.0;"/></g><!--link ConsultAssetsController to DeclarationRepository--><g id="link_ConsultAssetsController_DeclarationRepository"><path codeLine="128" d="M966.19,148.1 C979.73,153.5 988.5,157 988.5,157 C988.5,157 1126.5,187 1126.5,187 C1126.5,187 1272.5607,222.5989 1389.1407,251.0189 " fill="none" id="ConsultAssetsController-to-DeclarationRepository" style="stroke:#181818;stroke-width:1.0;stroke-dasharray:7.0,7.0;"/><polygon fill="#181818" points="1394.97,252.44,1387.1735,246.4222,1390.1123,251.2558,1385.2787,254.1946,1394.97,252.44" style="stroke:#181818;stroke-width:1.0;"/></g><!--link ConsultAssetsController to UserRepository--><g id="link_ConsultAssetsController_UserRepository"><path codeLine="129" d="M860.52,148.09 C884.04,182.23 909.4856,219.1694 928.9656,247.4394 " fill="none" id="ConsultAssetsController-to-UserRepository" style="stroke:#181818;stroke-width:1.0;stroke-dasharray:7.0,7.0;"/><polygon fill="#181818" points="932.37,252.38,930.5571,242.6994,929.533,248.2628,923.9696,247.2387,932.37,252.38" style="stroke:#181818;stroke-width:1.0;"/></g><!--link ConsultAssetsController to ApplicationSession--><g id="link_ConsultAssetsController_ApplicationSession"><path codeLine="130" d="M758.37,148.09 C728.81,175.74 698.2027,204.3622 669.9027,230.8222 " fill="none" id="ConsultAssetsController-to-ApplicationSession" style="stroke:#181818;stroke-width:1.0;stroke-dasharray:7.0,7.0;"/><polygon fill="#181818" points="665.52,234.92,674.8259,231.6952,669.1723,231.5052,669.3622,225.8515,665.52,234.92" style="stroke:#181818;stroke-width:1.0;"/></g><!--link ConsultAssetsController to UserSession--><g id="link_ConsultAssetsController_UserSession"><path codeLine="131" d="M811.97,148.3 C801.32,221.04 784.5,336 784.5,336 C784.5,336 773.0477,393.6647 765.0677,433.8847 " fill="none" id="ConsultAssetsController-to-UserSession" style="stroke:#181818;stroke-width:1.0;stroke-dasharray:7.0,7.0;"/><polygon fill="#181818" points="763.9,439.77,769.5751,431.7205,764.8731,434.8656,761.728,430.1636,763.9,439.77" style="stroke:#181818;stroke-width:1.0;"/></g><!--link ConsultAssetsController to AssetVisibilityService--><g id="link_ConsultAssetsController_AssetVisibilityService"><path codeLine="132" d="M674.81,148.1 C661.27,153.5 652.5,157 652.5,157 C652.5,157 275.5,235 275.5,235 C275.5,235 258.2505,240.979 230.7505,250.489 " fill="none" id="ConsultAssetsController-to-AssetVisibilityService" style="stroke:#181818;stroke-width:1.0;stroke-dasharray:7.0,7.0;"/><polygon fill="#181818" points="225.08,252.45,234.8931,253.2889,229.8054,250.8159,232.2784,245.7282,225.08,252.45" style="stroke:#181818;stroke-width:1.0;"/></g><!--link Repositories to Repositories--><g id="link_Repositories_Repositories"><path codeLine="134" d="M1445.29,69.95 C1465.55,72.09 1480,78.44 1480,89 C1480,99.56 1471.5168,105.2797 1451.2568,107.4197 " fill="none" id="Repositories-to-Repositories" style="stroke:#181818;stroke-width:1.0;"/><polygon fill="#181818" points="1445.29,108.05,1454.6604,111.0825,1450.2623,107.5248,1453.82,103.1267,1445.29,108.05" style="stroke:#181818;stroke-width:1.0;"/><text fill="#000000" font-family="sans-serif" font-size="13" lengthAdjust="spacing" textLength="49" x="1486" y="94.4951">instance</text><text fill="#000000" font-family="sans-serif" font-size="13" lengthAdjust="spacing" textLength="7" x="1453.0222" y="106.3678">1</text></g><!--link Repositories to PoliticalAgentRepository--><g id="link_Repositories_PoliticalAgentRepository"><path codeLine="135" d="M1281.3,157.21 C1251.43,189.49 1221.0957,222.2667 1197.2057,248.0767 " fill="none" id="Repositories-to-PoliticalAgentRepository" style="stroke:#181818;stroke-width:1.0;"/><polygon fill="#181818" points="1193.13,252.48,1202.1791,248.5922,1196.5264,248.8106,1196.308,243.158,1193.13,252.48" style="stroke:#181818;stroke-width:1.0;"/><text fill="#000000" font-family="sans-serif" font-size="13" lengthAdjust="spacing" textLength="140" x="1254.5" y="201.4951">politicalAgentRepository</text><text fill="#000000" font-family="sans-serif" font-size="13" lengthAdjust="spacing" textLength="7" x="1191.5193" y="241.5913">1</text></g><!--link Repositories to DeclarationRepository--><g id="link_Repositories_DeclarationRepository"><path codeLine="136" d="M1406.73,157.21 C1437.11,189.49 1467.9789,222.2998 1492.2589,248.1098 " fill="none" id="Repositories-to-DeclarationRepository" style="stroke:#181818;stroke-width:1.0;"/><polygon fill="#181818" points="1496.37,252.48,1493.1168,243.184,1492.9441,248.8382,1487.2898,248.6655,1496.37,252.48" style="stroke:#181818;stroke-width:1.0;"/><text fill="#000000" font-family="sans-serif" font-size="13" lengthAdjust="spacing" textLength="125" x="1451.5" y="201.4951">declarationRepository</text><text fill="#000000" font-family="sans-serif" font-size="13" lengthAdjust="spacing" textLength="7" x="1482.4338" y="241.5913">1</text></g><!--link Repositories to UserRepository--><g id="link_Repositories_UserRepository"><path codeLine="137" d="M1241.8,147.26 C1231.37,153.13 1224.5,157 1224.5,157 C1224.5,157 1139.5,187 1139.5,187 C1139.5,187 1074.5578,221.2224 1020.6378,249.6424 " fill="none" id="Repositories-to-UserRepository" style="stroke:#181818;stroke-width:1.0;"/><polygon fill="#181818" points="1015.33,252.44,1025.1569,251.7821,1019.7532,250.1086,1021.4267,244.705,1015.33,252.44" style="stroke:#181818;stroke-width:1.0;"/><text fill="#000000" font-family="sans-serif" font-size="13" lengthAdjust="spacing" textLength="87" x="1140.5" y="201.4951">userRepository</text><text fill="#000000" font-family="sans-serif" font-size="13" lengthAdjust="spacing" textLength="7" x="1020.1543" y="241.543">1</text></g><!--link ApplicationSession to ApplicationSession--><g id="link_ApplicationSession_ApplicationSession"><path codeLine="139" d="M688.16,269.16 C708,270.13 723,275.57 723,285.5 C723,295.43 713.9928,300.577 694.1528,301.547 " fill="none" id="ApplicationSession-to-ApplicationSession" style="stroke:#181818;stroke-width:1.0;"/><polygon fill="#181818" points="688.16,301.84,697.3446,305.3957,693.154,301.5958,696.9539,297.4053,688.16,301.84" style="stroke:#181818;stroke-width:1.0;"/><text fill="#000000" font-family="sans-serif" font-size="13" lengthAdjust="spacing" textLength="49" x="729" y="290.9951">instance</text><text fill="#000000" font-family="sans-serif" font-size="13" lengthAdjust="spacing" textLength="7" x="695.9523" y="300.1818">1</text></g><!--link ApplicationSession to UserSession--><g id="link_ApplicationSession_UserSession"><path codeLine="140" d="M651.36,336.21 C677.11,369.16 706.4454,406.6825 728.7654,435.2425 " fill="none" id="ApplicationSession-to-UserSession" style="stroke:#181818;stroke-width:1.0;stroke-dasharray:7.0,7.0;"/><polygon fill="#181818" points="732.46,439.97,730.0697,430.4156,729.3811,436.0304,723.7664,435.3418,732.46,439.97" style="stroke:#181818;stroke-width:1.0;"/></g><!--link PoliticalAgentRepository to PoliticalAgent--><g id="link_PoliticalAgentRepository_PoliticalAgent"><path codeLine="142" d="M1163.5,318.8 C1163.5,385.18 1163.5,530.8 1163.5,603.78 " fill="none" id="PoliticalAgentRepository-to-PoliticalAgent" style="stroke:#181818;stroke-width:1.0;"/><polygon fill="#181818" points="1163.5,609.78,1167.5,600.78,1163.5,604.78,1159.5,600.78,1163.5,609.78" style="stroke:#181818;stroke-width:1.0;"/><text fill="#000000" font-family="sans-serif" font-size="13" lengthAdjust="spacing" textLength="85" x="1164.5" y="478.4951">politicalAgents</text><text fill="#000000" font-family="sans-serif" font-size="13" lengthAdjust="spacing" textLength="5" x="1158.0859" y="599.0512">*</text></g><!--link UserRepository to Person--><g id="link_UserRepository_Person"><path codeLine="143" d="M957.64,318.81 C960.41,347.36 963.9117,383.4579 967.0917,416.2979 " fill="none" id="UserRepository-to-Person" style="stroke:#181818;stroke-width:1.0;"/><polygon fill="#181818" points="967.67,422.27,970.7839,412.9264,967.1881,417.2933,962.8212,413.6974,967.67,422.27" style="stroke:#181818;stroke-width:1.0;"/><text fill="#000000" font-family="sans-serif" font-size="13" lengthAdjust="spacing" textLength="32" x="964.5" y="380.4951">users</text><text fill="#000000" font-family="sans-serif" font-size="13" lengthAdjust="spacing" textLength="5" x="961.6392" y="411.543">*</text></g><!--link DeclarationRepository to Declaration--><g id="link_DeclarationRepository_Declaration"><path codeLine="144" d="M1515.39,318.55 C1483.82,409.61 1395.6054,664.081 1360.5954,765.061 " fill="none" id="DeclarationRepository-to-Declaration" style="stroke:#181818;stroke-width:1.0;"/><polygon fill="#181818" points="1358.63,770.73,1365.3575,763.5369,1360.2679,766.0059,1357.7989,760.9163,1358.63,770.73" style="stroke:#181818;stroke-width:1.0;"/><text fill="#000000" font-family="sans-serif" font-size="13" lengthAdjust="spacing" textLength="70" x="1429.5" y="576.4951">declarations</text><text fill="#000000" font-family="sans-serif" font-size="13" lengthAdjust="spacing" textLength="5" x="1355.5562" y="759.993">*</text></g><!--link PoliticalAgent to Declaration--><g id="link_PoliticalAgent_Declaration"><path codeLine="146" d="M1209.64,693.03 C1236.77,716.86 1266.4516,742.9409 1293.6216,766.8009 " fill="none" id="PoliticalAgent-to-Declaration" style="stroke:#181818;stroke-width:1.0;"/><polygon fill="#181818" points="1298.13,770.76,1294.0069,761.8157,1294.373,767.4607,1288.728,767.8269,1298.13,770.76" style="stroke:#181818;stroke-width:1.0;"/><text fill="#000000" font-family="sans-serif" font-size="13" lengthAdjust="spacing" textLength="70" x="1259.5" y="737.4951">declarations</text><text fill="#000000" font-family="sans-serif" font-size="13" lengthAdjust="spacing" textLength="7" x="1209.7023" y="714.7395">1</text><text fill="#000000" font-family="sans-serif" font-size="13" lengthAdjust="spacing" textLength="20" x="1268.7937" y="760.0279">0..*</text></g><!--reverse link Declaration to Section--><g id="link_Declaration_Section"><path codeLine="147" d="M1344.5,866.05 C1344.5,891.2 1344.5,910.62 1344.5,931.67 " fill="none" id="Declaration-backto-Section" style="stroke:#181818;stroke-width:1.0;"/><polygon fill="#181818" points="1344.5,854.05,1340.5,860.05,1344.5,866.05,1348.5,860.05,1344.5,854.05" style="stroke:#181818;stroke-width:1.0;"/><text fill="#000000" font-family="sans-serif" font-size="13" lengthAdjust="spacing" textLength="49" x="1345.5" y="898.4951">sections</text><text fill="#000000" font-family="sans-serif" font-size="13" lengthAdjust="spacing" textLength="7" x="1336.6469" y="921.3275">4</text></g><!--reverse link AssetSection to AssetField--><g id="link_AssetSection_AssetField"><path codeLine="148" d="M1361.3827,1099.7651 C1372.4427,1121.9051 1383.72,1144.44 1394.83,1166.67 " fill="none" id="AssetSection-backto-AssetField" style="stroke:#181818;stroke-width:1.0;"/><polygon fill="#181818" points="1356.02,1089.03,1355.123,1096.1851,1361.3827,1099.7651,1362.2797,1092.61,1356.02,1089.03" style="stroke:#181818;stroke-width:1.0;"/><text fill="#000000" font-family="sans-serif" font-size="13" lengthAdjust="spacing" textLength="30" x="1379.5" y="1133.4951">fields</text><text fill="#000000" font-family="sans-serif" font-size="13" lengthAdjust="spacing" textLength="5" x="1386.3761" y="1156.3275">*</text></g><!--reverse link AssetField to Property--><g id="link_AssetField_Property"><path codeLine="149" d="M1406.5,1227.05 C1406.5,1248.04 1406.5,1267.51 1406.5,1292.74 " fill="none" id="AssetField-backto-Property" style="stroke:#181818;stroke-width:1.0;"/><polygon fill="#181818" points="1406.5,1215.05,1402.5,1221.05,1406.5,1227.05,1410.5,1221.05,1406.5,1215.05" style="stroke:#181818;stroke-width:1.0;"/><text fill="#000000" font-family="sans-serif" font-size="13" lengthAdjust="spacing" textLength="47" x="1407.5" y="1259.4951">property</text><text fill="#000000" font-family="sans-serif" font-size="13" lengthAdjust="spacing" textLength="7" x="1398.9203" y="1282.0046">1</text></g><!--link Property to PropertyType--><g id="link_Property_PropertyType"><path codeLine="150" d="M1386.65,1376.17 C1373.81,1402.48 1359.7823,1431.2283 1346.9423,1457.5283 " fill="none" id="Property-to-PropertyType" style="stroke:#181818;stroke-width:1.0;"/><polygon fill="#181818" points="1344.31,1462.92,1351.853,1456.5873,1346.5036,1458.4269,1344.664,1453.0775,1344.31,1462.92" style="stroke:#181818;stroke-width:1.0;"/><text fill="#000000" font-family="sans-serif" font-size="13" lengthAdjust="spacing" textLength="25" x="1370.5" y="1420.4951">type</text><text fill="#000000" font-family="sans-serif" font-size="13" lengthAdjust="spacing" textLength="7" x="1340.0113" y="1452.2144">1</text></g><!--link Property to Location--><g id="link_Property_Location"><path codeLine="151" d="M1426.35,1376.17 C1437.77,1399.57 1449.5774,1423.7584 1461.6674,1448.5184 " fill="none" id="Property-to-Location" style="stroke:#181818;stroke-width:1.0;"/><polygon fill="#181818" points="1464.3,1453.91,1463.9454,1444.0675,1462.1061,1449.417,1456.7566,1447.5777,1464.3,1453.91" style="stroke:#181818;stroke-width:1.0;"/><text fill="#000000" font-family="sans-serif" font-size="13" lengthAdjust="spacing" textLength="45" x="1448.5" y="1420.4951">location</text><text fill="#000000" font-family="sans-serif" font-size="13" lengthAdjust="spacing" textLength="7" x="1453.4047" y="1443.2027">1</text></g><!--link AssetVisibilityService to AssetView--><g id="link_AssetVisibilityService_AssetView"><path codeLine="153" d="M132.5,318.81 C132.5,344.97 132.5,376.49 132.5,407.85 " fill="none" id="AssetVisibilityService-to-AssetView" style="stroke:#181818;stroke-width:1.0;"/><polygon fill="#181818" points="132.5,413.85,136.5,404.85,132.5,408.85,128.5,404.85,132.5,413.85" style="stroke:#181818;stroke-width:1.0;"/><text fill="#000000" font-family="sans-serif" font-size="13" lengthAdjust="spacing" textLength="79" x="133.5" y="380.4951">filteredAssets</text><text fill="#000000" font-family="sans-serif" font-size="13" lengthAdjust="spacing" textLength="5" x="127.1953" y="403.156">*</text></g><!--SRC=[bLTHJzmm37xFhuXu0iOX9ksfcf0E618JG-XkntkkzHqHQT8bwLZ7zj_df6qkwRN0UEdL_kpONst7c2SkAwPPIIkMFx4jB6qZW6h8BPDR0SG4W7baXNhcSaitJ9XO8xW4srH0AoKQznBfSi6CcLkh-RgsS9ChkUI_WPuH0h8kwRrM5MZRV7VcBuJYtsfnCR_plnQhnVoM_2N4Ew7pgX8yPvQZ3p067vt5R4HrUEHL7-YBiIZF_z8js1k9BpA7e4JPPQqrIBip2-Uj3EZq86_Wn5zAnaMBPMjZDSjjcocz1ssYm2GhWMPqYVdBRIUpxDTDCHI2yxWJXY0kkKM-dCCW-gfgBPdWnePZAernNZ9TtDNb6lI8dtibq5FEn7oBsVvFVFivBh4wMb9styOOi8byO7FDGHHx5dlIlXv2W2p_KNF3dTy79ceNRA7gDLPcgo-PVW8xK0LtjwejYXrHJ7FpECouh2NFUOMSuia3NO4yQuvvx7Dw1VZKwG6cNfVSrymLioua5u9mltj_hP6qTmdrAIyF79wZZnlro20wqILuozOWXieHxjAq4-uc0Z5ypHqlIz0_UGwX4nYsNBDG0hunr-tRmnhxueIoFdnpD5Ly2wWKHgLq4xTLYZ5n8qOyZzj607FHf9vMqdBF_s6Lo4zmo6q0Mpy7fntq_VWvJdFHjCtl6pQo2XOSJFXqiV3T4scAhHWpIaaCI9E8sRn4acfX_USr-6Ar4W9dHf_dX7uwmbrcUMpw5jyjG-XjNjj71BZv3OMB-rghScGU9u6jRjgn8HLscURRHqlLPg9c_L7-Yi1FWzd0h80APE46eUgwrMDqBH2nXetIG0jccH-i2FD4d-ALLL1tuF3O2SgypqxNJecDKC-KOn30YfcIeiayHgf-B7YKFnbHfIhuXaCH7zpTBv__p6RztP38TfT38aw_627zgFRAU7YJTYJlvFwTa27vf-UJMKyL69h4_J2DG-1K3xngDDeKhrgaNV8gT7_5UDFpUt0J5KkISJ8xfmSV3z8Har7UpOu1jWDFpjoCLbFaZZeQdxvPNB5lkHXCr8pMAUzaPBNhJ4SqKUOZsY7vP9887ztnaAazVWmPX1_islvgip5adASU7EyA2NTc6A5FsvkTdPw-RXchZh5X3puTXEKiewRzPKYod7aSketshunktBC3jZ8FSsNKBsHPs4D8a8LQIpSKzx_0FYZiObdOMWYPM39wrdRBa8jHMBm_YhQDo3y0]--></g></svg>