<?xml version="1.0" encoding="us-ascii" standalone="no"?><svg xmlns="http://www.w3.org/2000/svg" xmlns:xlink="http://www.w3.org/1999/xlink" contentStyleType="text/css" height="1005px" preserveAspectRatio="none" style="width:1237px;height:1005px;background:#FFFFFF;" version="1.1" viewBox="0 0 1237 1005" width="1237px" zoomAndPan="magnify"><defs/><g><text fill="#000000" font-family="sans-serif" font-size="14" font-weight="bold" lengthAdjust="spacing" textLength="200" x="511.5" y="24.5332">Design Class Diagram - US03</text><!--class ApplicationSession--><g id="elem_ApplicationSession"><rect codeLine="17" fill="#F1F1F1" height="96.4375" id="ApplicationSession" rx="2.5" ry="2.5" style="stroke:#181818;stroke-width:0.5;" width="239" x="7" y="334.6094"/><text fill="#000000" font-family="sans-serif" font-size="14" lengthAdjust="spacing" textLength="119" x="67" y="354.1426">ApplicationSession</text><line style="stroke:#181818;stroke-width:0.5;" x1="8" x2="245" y1="362.2188" y2="362.2188"/><line style="stroke:#181818;stroke-width:0.5;" x1="8" x2="245" y1="370.2188" y2="370.2188"/><text fill="#000000" font-family="sans-serif" font-size="14" lengthAdjust="spacing" textLength="134" x="13" y="388.752">-ApplicationSession()</text><text fill="#000000" font-family="sans-serif" font-size="14" lengthAdjust="spacing" text-decoration="underline" textLength="222" x="13" y="406.3613">+getInstance() : ApplicationSession</text><text fill="#000000" font-family="sans-serif" font-size="14" lengthAdjust="spacing" textLength="227" x="13" y="423.9707">+getCurrentSession() : UserSession</text></g><!--class UserSession--><g id="elem_UserSession"><rect codeLine="23" fill="#F1F1F1" height="61.2188" id="UserSession" rx="2.5" ry="2.5" style="stroke:#181818;stroke-width:0.5;" width="162" x="224.5" y="526.6094"/><text fill="#000000" font-family="sans-serif" font-size="14" lengthAdjust="spacing" textLength="79" x="266" y="546.1426">UserSession</text><line style="stroke:#181818;stroke-width:0.5;" x1="225.5" x2="385.5" y1="554.2188" y2="554.2188"/><line style="stroke:#181818;stroke-width:0.5;" x1="225.5" x2="385.5" y1="562.2188" y2="562.2188"/><text fill="#000000" font-family="sans-serif" font-size="14" lengthAdjust="spacing" textLength="150" x="230.5" y="580.752">+getUserEmail() : String</text></g><!--class InstitutionType--><g id="elem_InstitutionType"><rect codeLine="34" fill="#F1F1F1" height="131.6563" id="InstitutionType" rx="2.5" ry="2.5" style="stroke:#181818;stroke-width:0.5;" width="136" x="889.5" y="866.6094"/><text fill="#000000" font-family="sans-serif" font-size="14" lengthAdjust="spacing" textLength="92" x="911.5" y="886.1426">InstitutionType</text><line style="stroke:#181818;stroke-width:0.5;" x1="890.5" x2="1024.5" y1="894.2188" y2="894.2188"/><text fill="#000000" font-family="sans-serif" font-size="14" lengthAdjust="spacing" textLength="68" x="895.5" y="912.752">COMPANY</text><text fill="#000000" font-family="sans-serif" font-size="14" lengthAdjust="spacing" textLength="124" x="895.5" y="930.3613">POLITICAL_PARTY</text><text fill="#000000" font-family="sans-serif" font-size="14" lengthAdjust="spacing" textLength="89" x="895.5" y="947.9707">FOUNDATION</text><text fill="#000000" font-family="sans-serif" font-size="14" lengthAdjust="spacing" textLength="69" x="895.5" y="965.5801">INSTITUTE</text><text fill="#000000" font-family="sans-serif" font-size="14" lengthAdjust="spacing" textLength="92" x="895.5" y="983.1895">ASSOCIATION</text><line style="stroke:#181818;stroke-width:0.5;" x1="890.5" x2="1024.5" y1="990.2656" y2="990.2656"/></g><!--class Institution--><g id="elem_Institution"><rect codeLine="42" fill="#F1F1F1" height="114.0469" id="Institution" rx="2.5" ry="2.5" style="stroke:#181818;stroke-width:0.5;" width="212" x="750.5" y="674.6094"/><text fill="#000000" font-family="sans-serif" font-size="14" lengthAdjust="spacing" textLength="60" x="826.5" y="694.1426">Institution</text><line style="stroke:#181818;stroke-width:0.5;" x1="751.5" x2="961.5" y1="702.2188" y2="702.2188"/><text fill="#000000" font-family="sans-serif" font-size="14" lengthAdjust="spacing" textLength="89" x="756.5" y="720.752">-name : String</text><text fill="#000000" font-family="sans-serif" font-size="14" lengthAdjust="spacing" textLength="200" x="756.5" y="738.3613">-taxIdentificationNumber : String</text><line style="stroke:#181818;stroke-width:0.5;" x1="751.5" x2="961.5" y1="745.4375" y2="745.4375"/><text fill="#000000" font-family="sans-serif" font-size="14" lengthAdjust="spacing" textLength="123" x="756.5" y="763.9707">+getName() : String</text><text fill="#000000" font-family="sans-serif" font-size="14" lengthAdjust="spacing" textLength="174" x="756.5" y="781.5801">+getType() : InstitutionType</text></g><!--class PoliticalAgent--><g id="elem_PoliticalAgent"><rect codeLine="49" fill="#F1F1F1" height="78.8281" id="PoliticalAgent" rx="2.5" ry="2.5" style="stroke:#181818;stroke-width:0.5;" width="101" x="503" y="343.1094"/><text fill="#000000" font-family="sans-serif" font-size="14" lengthAdjust="spacing" textLength="85" x="511" y="362.6426">PoliticalAgent</text><line style="stroke:#181818;stroke-width:0.5;" x1="504" x2="603" y1="370.7188" y2="370.7188"/><text fill="#000000" font-family="sans-serif" font-size="14" lengthAdjust="spacing" textLength="89" x="509" y="389.252">-name : String</text><text fill="#000000" font-family="sans-serif" font-size="14" lengthAdjust="spacing" textLength="87" x="509" y="406.8613">-email : String</text><line style="stroke:#181818;stroke-width:0.5;" x1="504" x2="603" y1="413.9375" y2="413.9375"/></g><!--class InstitutionRepository--><g id="elem_InstitutionRepository"><rect codeLine="60" fill="#F1F1F1" height="78.8281" id="InstitutionRepository" rx="2.5" ry="2.5" style="stroke:#181818;stroke-width:0.5;" width="406" x="497.5" y="517.6094"/><text fill="#000000" font-family="sans-serif" font-size="14" lengthAdjust="spacing" textLength="128" x="636.5" y="537.1426">InstitutionRepository</text><line style="stroke:#181818;stroke-width:0.5;" x1="498.5" x2="902.5" y1="545.2188" y2="545.2188"/><line style="stroke:#181818;stroke-width:0.5;" x1="498.5" x2="902.5" y1="553.2188" y2="553.2188"/><text fill="#000000" font-family="sans-serif" font-size="14" lengthAdjust="spacing" textLength="394" x="503.5" y="571.752">+getInstitutionsByType(type : InstitutionType) : List&lt;Institution&gt;</text><text fill="#000000" font-family="sans-serif" font-size="14" lengthAdjust="spacing" textLength="230" x="503.5" y="589.3613">+getAllInstitutions() : List&lt;Institution&gt;</text></g><!--class InstitutionTypeRepository--><g id="elem_InstitutionTypeRepository"><rect codeLine="65" fill="#F1F1F1" height="61.2188" id="InstitutionTypeRepository" rx="2.5" ry="2.5" style="stroke:#181818;stroke-width:0.5;" width="291" x="939" y="526.6094"/><text fill="#000000" font-family="sans-serif" font-size="14" lengthAdjust="spacing" textLength="160" x="1004.5" y="546.1426">InstitutionTypeRepository</text><line style="stroke:#181818;stroke-width:0.5;" x1="940" x2="1229" y1="554.2188" y2="554.2188"/><line style="stroke:#181818;stroke-width:0.5;" x1="940" x2="1229" y1="562.2188" y2="562.2188"/><text fill="#000000" font-family="sans-serif" font-size="14" lengthAdjust="spacing" textLength="279" x="945" y="580.752">+getInstitutionTypes() : List&lt;InstitutionType&gt;</text></g><!--class Repositories--><g id="elem_Repositories"><rect codeLine="69" fill="#F1F1F1" height="114.0469" id="Repositories" rx="2.5" ry="2.5" style="stroke:#181818;stroke-width:0.5;" width="382" x="639.5" y="325.6094"/><text fill="#000000" font-family="sans-serif" font-size="14" lengthAdjust="spacing" textLength="79" x="791" y="345.1426">Repositories</text><line style="stroke:#181818;stroke-width:0.5;" x1="640.5" x2="1020.5" y1="353.2188" y2="353.2188"/><line style="stroke:#181818;stroke-width:0.5;" x1="640.5" x2="1020.5" y1="361.2188" y2="361.2188"/><text fill="#000000" font-family="sans-serif" font-size="14" lengthAdjust="spacing" textLength="94" x="645.5" y="379.752">-Repositories()</text><text fill="#000000" font-family="sans-serif" font-size="14" lengthAdjust="spacing" text-decoration="underline" textLength="182" x="645.5" y="397.3613">+getInstance() : Repositories</text><text fill="#000000" font-family="sans-serif" font-size="14" lengthAdjust="spacing" textLength="306" x="645.5" y="414.9707">+getInstitutionRepository() : InstitutionRepository</text><text fill="#000000" font-family="sans-serif" font-size="14" lengthAdjust="spacing" textLength="370" x="645.5" y="432.5801">+getInstitutionTypeRepository() : InstitutionTypeRepository</text></g><!--class ListInstitutionsController--><g id="elem_ListInstitutionsController"><rect codeLine="87" fill="#F1F1F1" height="114.0469" id="ListInstitutionsController" rx="2.5" ry="2.5" style="stroke:#181818;stroke-width:0.5;" width="406" x="298.5" y="150.6094"/><text fill="#000000" font-family="sans-serif" font-size="14" lengthAdjust="spacing" textLength="151" x="426" y="170.1426">ListInstitutionsController</text><line style="stroke:#181818;stroke-width:0.5;" x1="299.5" x2="703.5" y1="178.2188" y2="178.2188"/><line style="stroke:#181818;stroke-width:0.5;" x1="299.5" x2="703.5" y1="186.2188" y2="186.2188"/><text fill="#000000" font-family="sans-serif" font-size="14" lengthAdjust="spacing" textLength="169" x="304.5" y="204.752">+ListInstitutionsController()</text><text fill="#000000" font-family="sans-serif" font-size="14" lengthAdjust="spacing" textLength="279" x="304.5" y="222.3613">+getInstitutionTypes() : List&lt;InstitutionType&gt;</text><text fill="#000000" font-family="sans-serif" font-size="14" lengthAdjust="spacing" textLength="394" x="304.5" y="239.9707">+getInstitutionsByType(type : InstitutionType) : List&lt;Institution&gt;</text><text fill="#000000" font-family="sans-serif" font-size="14" lengthAdjust="spacing" textLength="300" x="304.5" y="257.5801">-getPoliticalAgentFromSession() : PoliticalAgent</text></g><g id="elem_GMN19"><path d="M740,178.1094 L740,203.6094 L704.86,207.6094 L740,211.6094 L740,237.1641 A0,0 0 0 0 740,237.1641 L1043,237.1641 A0,0 0 0 0 1043,237.1641 L1043,188.1094 L1033,178.1094 L740,178.1094 A0,0 0 0 0 740,178.1094 " fill="#FEFFDD" style="stroke:#181818;stroke-width:0.5;"/><path d="M1033,178.1094 L1033,188.1094 L1043,188.1094 L1033,178.1094 " fill="#FEFFDD" style="stroke:#181818;stroke-width:0.5;"/><text fill="#000000" font-family="sans-serif" font-size="13" lengthAdjust="spacing" textLength="252" x="746" y="196.6045">getInstitutionsByType() retrieves institutions</text><text fill="#000000" font-family="sans-serif" font-size="13" lengthAdjust="spacing" textLength="282" x="746" y="212.9561">from the repository and sorts them alphabetically</text><text fill="#000000" font-family="sans-serif" font-size="13" lengthAdjust="spacing" textLength="237" x="746" y="229.3076">by name before returning to the UI (AC1).</text></g><!--class ListInstitutionsUI--><g id="elem_ListInstitutionsUI"><rect codeLine="111" fill="#F1F1F1" height="43.6094" id="ListInstitutionsUI" rx="2.5" ry="2.5" style="stroke:#181818;stroke-width:0.5;" width="107" x="448" y="45.6094"/><text fill="#000000" font-family="sans-serif" font-size="14" lengthAdjust="spacing" textLength="101" x="451" y="65.1426">ListInstitutionsUI</text><line style="stroke:#181818;stroke-width:0.5;" x1="449" x2="554" y1="73.2188" y2="73.2188"/><line style="stroke:#181818;stroke-width:0.5;" x1="449" x2="554" y1="81.2188" y2="81.2188"/></g><!--link ApplicationSession to ApplicationSession--><g id="link_ApplicationSession_ApplicationSession"><path codeLine="27" d="M246.02,367.5194 C266.67,369.5594 281,374.5894 281,382.6094 C281,390.6294 272.6409,395.0695 251.9909,397.1095 " fill="none" id="ApplicationSession-to-ApplicationSession" style="stroke:#181818;stroke-width:1.0;"/><polygon fill="#181818" points="246.02,397.6994,255.3696,400.7952,250.9958,397.2078,254.5832,392.834,246.02,397.6994" style="stroke:#181818;stroke-width:1.0;"/><text fill="#000000" font-family="sans-serif" font-size="13" lengthAdjust="spacing" textLength="49" x="287" y="388.1045">instance</text><text fill="#000000" font-family="sans-serif" font-size="13" lengthAdjust="spacing" textLength="7" x="253.901" y="395.6459">1</text></g><!--link ApplicationSession to UserSession--><g id="link_ApplicationSession_UserSession"><path codeLine="28" d="M175.41,430.7494 C207.09,461.2694 243.0497,495.9259 270.3297,522.2159 " fill="none" id="ApplicationSession-to-UserSession" style="stroke:#181818;stroke-width:1.0;stroke-dasharray:7.0,7.0;"/><polygon fill="#181818" points="274.65,526.3794,270.9452,517.2539,271.0497,522.9098,265.3939,523.0143,274.65,526.3794" style="stroke:#181818;stroke-width:1.0;"/></g><!--link Institution to InstitutionType--><g id="link_Institution_InstitutionType"><path codeLine="54" d="M885.04,788.8394 C897.29,812.9694 908.9652,835.9787 921.6752,861.0287 " fill="none" id="Institution-to-InstitutionType" style="stroke:#181818;stroke-width:1.0;"/><polygon fill="#181818" points="924.39,866.3794,923.8848,856.5435,922.1276,861.9205,916.7506,860.1633,924.39,866.3794" style="stroke:#181818;stroke-width:1.0;"/><text fill="#000000" font-family="sans-serif" font-size="13" lengthAdjust="spacing" textLength="25" x="907.5" y="833.1045">type</text><text fill="#000000" font-family="sans-serif" font-size="13" lengthAdjust="spacing" textLength="5" x="883.2136" y="810.303">*</text><text fill="#000000" font-family="sans-serif" font-size="13" lengthAdjust="spacing" textLength="7" x="913.3858" y="855.7936">1</text></g><!--link Repositories to Repositories--><g id="link_Repositories_Repositories"><path codeLine="76" d="M1021.76,369.0394 C1042.87,371.6194 1056.5,376.1394 1056.5,382.6094 C1056.5,389.0794 1048.8257,392.8715 1027.7157,395.4515 " fill="none" id="Repositories-to-Repositories" style="stroke:#181818;stroke-width:1.0;"/><polygon fill="#181818" points="1021.76,396.1794,1031.1788,399.058,1026.7231,395.5728,1030.2083,391.1171,1021.76,396.1794" style="stroke:#181818;stroke-width:1.0;"/><text fill="#000000" font-family="sans-serif" font-size="13" lengthAdjust="spacing" textLength="49" x="1062.5" y="388.1045">instance</text><text fill="#000000" font-family="sans-serif" font-size="13" lengthAdjust="spacing" textLength="7" x="1029.3678" y="393.898">1</text></g><!--link Repositories to InstitutionRepository--><g id="link_Repositories_InstitutionRepository"><path codeLine="77" d="M769.11,439.7694 C751.28,456.0894 736.5,469.6094 736.5,469.6094 C736.5,469.6094 728.4965,488.8404 718.9065,511.8704 " fill="none" id="Repositories-to-InstitutionRepository" style="stroke:#181818;stroke-width:1.0;"/><polygon fill="#181818" points="716.6,517.4094,723.7524,510.6386,718.5221,512.7936,716.3671,507.5633,716.6,517.4094" style="stroke:#181818;stroke-width:1.0;"/><text fill="#000000" font-family="sans-serif" font-size="13" lengthAdjust="spacing" textLength="118" x="737.5" y="484.1045">institutionRepository</text><text fill="#000000" font-family="sans-serif" font-size="13" lengthAdjust="spacing" textLength="7" x="711.7656" y="506.751">1</text></g><!--link Repositories to InstitutionTypeRepository--><g id="link_Repositories_InstitutionTypeRepository"><path codeLine="78" d="M911.11,439.8694 C946.21,464.3794 979.5,487.6094 979.5,487.6094 C979.5,487.6094 1005.6544,504.6716 1034.0344,523.1816 " fill="none" id="Repositories-to-InstitutionTypeRepository" style="stroke:#181818;stroke-width:1.0;"/><polygon fill="#181818" points="1039.06,526.4594,1033.7068,518.1923,1034.872,523.7279,1029.3365,524.8931,1039.06,526.4594" style="stroke:#181818;stroke-width:1.0;"/><text fill="#000000" font-family="sans-serif" font-size="13" lengthAdjust="spacing" textLength="146" x="980.5" y="484.1045">institutionTypeRepository</text><text fill="#000000" font-family="sans-serif" font-size="13" lengthAdjust="spacing" textLength="7" x="1021.3544" y="515.5143">1</text></g><!--link InstitutionRepository to Institution--><g id="link_InstitutionRepository_Institution"><path codeLine="80" d="M735.51,596.8194 C756.17,619.6694 778.655,644.5397 801.595,669.8997 " fill="none" id="InstitutionRepository-to-Institution" style="stroke:#181818;stroke-width:1.0;"/><polygon fill="#181818" points="805.62,674.3494,802.5489,664.9916,802.2658,670.6413,796.616,670.3583,805.62,674.3494" style="stroke:#181818;stroke-width:1.0;"/><text fill="#000000" font-family="sans-serif" font-size="13" lengthAdjust="spacing" textLength="63" x="779.5" y="641.1045">institutions</text><text fill="#000000" font-family="sans-serif" font-size="13" lengthAdjust="spacing" textLength="5" x="794.1143" y="663.9095">*</text></g><!--link InstitutionTypeRepository to InstitutionType--><g id="link_InstitutionTypeRepository_InstitutionType"><path codeLine="81" d="M1074.43,587.7294 C1054.04,647.6894 1009.4021,778.989 981.5721,860.809 " fill="none" id="InstitutionTypeRepository-to-InstitutionType" style="stroke:#181818;stroke-width:1.0;"/><polygon fill="#181818" points="979.64,866.4894,986.3251,859.2569,981.2501,861.7557,978.7512,856.6807,979.64,866.4894" style="stroke:#181818;stroke-width:1.0;"/><text fill="#000000" font-family="sans-serif" font-size="13" lengthAdjust="spacing" textLength="91" x="1044.5" y="737.1045">institutionTypes</text><text fill="#000000" font-family="sans-serif" font-size="13" lengthAdjust="spacing" textLength="5" x="976.7881" y="855.9156">*</text></g><!--link ListInstitutionsController to Repositories--><g id="link_ListInstitutionsController_Repositories"><path codeLine="100" d="M608.32,264.7794 C645.37,284.2594 681.5896,303.3066 718.6296,322.7866 " fill="none" id="ListInstitutionsController-to-Repositories" style="stroke:#181818;stroke-width:1.0;stroke-dasharray:7.0,7.0;"/><polygon fill="#181818" points="723.94,325.5794,717.8363,317.8499,719.5147,323.252,714.1125,324.9304,723.94,325.5794" style="stroke:#181818;stroke-width:1.0;"/></g><!--link ListInstitutionsController to InstitutionRepository--><g id="link_ListInstitutionsController_InstitutionRepository"><path codeLine="101" d="M493.83,264.7094 C489.72,294.7394 485.5,325.6094 485.5,325.6094 C485.5,325.6094 485.5,439.6094 485.5,439.6094 C485.5,439.6094 561.3445,480.7112 623.9345,514.6212 " fill="none" id="ListInstitutionsController-to-InstitutionRepository" style="stroke:#181818;stroke-width:1.0;stroke-dasharray:7.0,7.0;"/><polygon fill="#181818" points="629.21,517.4794,623.2022,509.6751,624.8137,515.0976,619.3913,516.7091,629.21,517.4794" style="stroke:#181818;stroke-width:1.0;"/></g><!--link ListInstitutionsController to InstitutionTypeRepository--><g id="link_ListInstitutionsController_InstitutionTypeRepository"><path codeLine="102" d="M704.79,260.1194 C715.82,262.9194 722.5,264.6094 722.5,264.6094 C722.5,264.6094 1118.5,325.6094 1118.5,325.6094 C1118.5,325.6094 1131.5,469.6094 1131.5,469.6094 C1131.5,469.6094 1131.5,487.6094 1131.5,487.6094 C1131.5,487.6094 1121.0335,502.8512 1108.3735,521.3112 " fill="none" id="ListInstitutionsController-to-InstitutionTypeRepository" style="stroke:#181818;stroke-width:1.0;stroke-dasharray:7.0,7.0;"/><polygon fill="#181818" points="1104.98,526.2594,1113.369,521.0995,1107.8079,522.1359,1106.7715,516.5748,1104.98,526.2594" style="stroke:#181818;stroke-width:1.0;"/></g><!--link ListInstitutionsController to PoliticalAgent--><g id="link_ListInstitutionsController_PoliticalAgent"><path codeLine="103" d="M518.38,264.7794 C526.06,290.3294 533.232,314.1836 540.152,337.1936 " fill="none" id="ListInstitutionsController-to-PoliticalAgent" style="stroke:#181818;stroke-width:1.0;stroke-dasharray:7.0,7.0;"/><polygon fill="#181818" points="541.88,342.9394,543.1186,333.1687,540.44,338.1512,535.4575,335.4727,541.88,342.9394" style="stroke:#181818;stroke-width:1.0;"/></g><!--link ListInstitutionsController to ApplicationSession--><g id="link_ListInstitutionsController_ApplicationSession"><path codeLine="104" d="M380.01,264.6594 C331.13,287.2094 280.8283,310.4162 234.0883,331.9762 " fill="none" id="ListInstitutionsController-to-ApplicationSession" style="stroke:#181818;stroke-width:1.0;stroke-dasharray:7.0,7.0;"/><polygon fill="#181818" points="228.64,334.4894,238.4879,334.3518,233.1803,332.3951,235.137,327.0874,228.64,334.4894" style="stroke:#181818;stroke-width:1.0;"/></g><!--link ListInstitutionsController to UserSession--><g id="link_ListInstitutionsController_UserSession"><path codeLine="105" d="M450.34,265.0094 C435.64,281.2194 423.5,294.6094 423.5,294.6094 C423.5,294.6094 352.318,452.3604 321.388,520.9004 " fill="none" id="ListInstitutionsController-to-UserSession" style="stroke:#181818;stroke-width:1.0;stroke-dasharray:7.0,7.0;"/><polygon fill="#181818" points="318.92,526.3694,326.2679,519.8113,320.9766,521.8119,318.976,516.5207,318.92,526.3694" style="stroke:#181818;stroke-width:1.0;"/></g><!--link ListInstitutionsUI to ListInstitutionsController--><g id="link_ListInstitutionsUI_ListInstitutionsController"><path codeLine="114" d="M501.5,89.8694 C501.5,106.0494 501.5,123.0994 501.5,144.4494 " fill="none" id="ListInstitutionsUI-to-ListInstitutionsController" style="stroke:#181818;stroke-width:1.0;"/><polygon fill="#181818" points="501.5,150.4494,505.5,141.4494,501.5,145.4494,497.5,141.4494,501.5,150.4494" style="stroke:#181818;stroke-width:1.0;"/></g><!--SRC=[hLRFRzem5Bxxhx2u09seMkrMhPMoq4gH6A0c77QQJ331gcD7jhCjg_g_ptRIuAGcC6cSo7llU_xUB_kDvGjX1H8eXpbdF3q8dcEeH8d1KLEWz0LbE5OLnL3WL26MKTT07j2E_o8iWtj4fQkXX65L5HWMd5Rc0umzIYuK1mugfKZAG2b1jgN2KSfPJFvWU0E08afpc6D9CWP3OmRd16K6D8ER-EOp00Uomp0b8jKKmVZ-n0-COOob99p11Qgm6B04bWuCYeAI52aDUKU-0gX_CuzgChMgJ_1LAYrFts26LSJq1qlnP0hlF9W6eGt3KWZCLEjBcsya5kzsR- -K7673nSAD-357X5fahDF8CWFoH31xWAFRaI-sEqWQkZxSzVL3Xz9WekTSaxaWpvYLEJH98geqXoMcD-gumjMtTR3yRl-lLuieYS9WyMCTF2Urx6crMSw395ejxMUqZ9CesIIFzYk8urKOrTesTyuvRHqPqitVPgoMAVGxskbYa7sJWcMPRx7ecjcqBpNQpNYhC75OHI-s8varfqHt2Q91feyQv8DDOJjbTICPNOtWh2bgFvDtq0pRSAcUSS4bKLnKbuw5Sue3ThhHCP1VAviBLTFf4JGPMX2flZZoXwEVW5BNrSHlxgklSNwMcp7oEpKQnt7hYM3PLieLdfzzrzfBviYstpT7pSaeJeExMXDI9vYcRpeovnhesdviCYV5DUeZvNCkUfNgkEcH1_wJhTEhZjEk6mbEd-S1DvFJuo67foZaJ0bEwINpOxhDxUiZjctKqoPjg_rRB__FsPmPFztxwqal4UxRrTMQjcDSwKs2P0S5-NuWFdk2d-TKRoBw2iG_TITrociWUyq0geFPLjhY8hQ3KcyQqYXoY6XnG5jiUT5wcBPLVUDkyPuBWrMbO6QhKTmwsqHm4eItqslzKksWYG60WVAPDx8pwMTi_LD-EQWt86U0lQASiVPiAsSG5sy7EgiNFZNz4pNorNIJHsucUQ2j_W80]--></g></svg>