<?xml version="1.0" encoding="us-ascii" standalone="no"?><svg xmlns="http://www.w3.org/2000/svg" xmlns:xlink="http://www.w3.org/1999/xlink" contentStyleType="text/css" height="513px" preserveAspectRatio="none" style="width:627px;height:513px;background:#FFFFFF;" version="1.1" viewBox="0 0 627 513" width="627px" zoomAndPan="magnify"><defs/><g><!--class EthicsCommitteeMember--><g id="elem_EthicsCommitteeMember"><rect codeLine="8" fill="#F1F1F1" height="88.4375" id="EthicsCommitteeMember" rx="2.5" ry="2.5" style="stroke:#181818;stroke-width:0.5;" width="162" x="135" y="7"/><text fill="#000000" font-family="sans-serif" font-size="14" lengthAdjust="spacing" textLength="156" x="138" y="26.5332">EthicsCommitteeMember</text><line style="stroke:#181818;stroke-width:0.5;" x1="136" x2="296" y1="34.6094" y2="34.6094"/><text fill="#000000" font-family="sans-serif" font-size="14" lengthAdjust="spacing" textLength="35" x="141" y="53.1426">name</text><text fill="#000000" font-family="sans-serif" font-size="14" lengthAdjust="spacing" textLength="29" x="141" y="70.752">taxId</text><text fill="#000000" font-family="sans-serif" font-size="14" lengthAdjust="spacing" textLength="33" x="141" y="88.3613">email</text></g><!--class PoliticalAgent--><g id="elem_PoliticalAgent"><rect codeLine="14" fill="#F1F1F1" height="35.6094" id="PoliticalAgent" rx="2.5" ry="2.5" style="stroke:#181818;stroke-width:0.5;" width="91" x="363.5" y="33"/><text fill="#000000" font-family="sans-serif" font-size="14" lengthAdjust="spacing" textLength="85" x="366.5" y="52.5332">PoliticalAgent</text><line style="stroke:#181818;stroke-width:0.5;" x1="364.5" x2="453.5" y1="60.6094" y2="60.6094"/></g><!--class Role--><g id="elem_Role"><rect codeLine="17" fill="#F1F1F1" height="53.2188" id="Role" rx="2.5" ry="2.5" style="stroke:#181818;stroke-width:0.5;" width="85" x="393.5" y="339.5"/><text fill="#000000" font-family="sans-serif" font-size="14" lengthAdjust="spacing" textLength="29" x="421.5" y="359.0332">Role</text><line style="stroke:#181818;stroke-width:0.5;" x1="394.5" x2="477.5" y1="367.1094" y2="367.1094"/><text fill="#000000" font-family="sans-serif" font-size="14" lengthAdjust="spacing" textLength="73" x="399.5" y="385.6426">designation</text></g><!--class PoliticalMandate--><g id="elem_PoliticalMandate"><rect codeLine="21" fill="#F1F1F1" height="70.8281" id="PoliticalMandate" rx="2.5" ry="2.5" style="stroke:#181818;stroke-width:0.5;" width="109" x="379.5" y="173"/><text fill="#000000" font-family="sans-serif" font-size="14" lengthAdjust="spacing" textLength="103" x="382.5" y="192.5332">PoliticalMandate</text><line style="stroke:#181818;stroke-width:0.5;" x1="380.5" x2="487.5" y1="200.6094" y2="200.6094"/><text fill="#000000" font-family="sans-serif" font-size="14" lengthAdjust="spacing" textLength="58" x="385.5" y="219.1426">startDate</text><text fill="#000000" font-family="sans-serif" font-size="14" lengthAdjust="spacing" textLength="54" x="385.5" y="236.752">endDate</text></g><!--class Declaration--><g id="elem_Declaration"><rect codeLine="26" fill="#F1F1F1" height="70.8281" id="Declaration" rx="2.5" ry="2.5" style="stroke:#181818;stroke-width:0.5;" width="112" x="160" y="173"/><text fill="#000000" font-family="sans-serif" font-size="14" lengthAdjust="spacing" textLength="72" x="180" y="192.5332">Declaration</text><line style="stroke:#181818;stroke-width:0.5;" x1="161" x2="271" y1="200.6094" y2="200.6094"/><text fill="#000000" font-family="sans-serif" font-size="14" lengthAdjust="spacing" textLength="100" x="166" y="219.1426">submissionDate</text><text fill="#000000" font-family="sans-serif" font-size="14" lengthAdjust="spacing" textLength="95" x="166" y="236.752">declarantName</text></g><!--class DeclarationType--><g id="elem_DeclarationType"><rect codeLine="31" fill="#F1F1F1" height="88.4375" id="DeclarationType" rx="2.5" ry="2.5" style="stroke:#181818;stroke-width:0.5;" width="110" x="7" y="322"/><text fill="#000000" font-family="sans-serif" font-size="14" lengthAdjust="spacing" textLength="104" x="10" y="341.5332">DeclarationType</text><line style="stroke:#181818;stroke-width:0.5;" x1="8" x2="116" y1="349.6094" y2="349.6094"/><text fill="#000000" font-family="sans-serif" font-size="14" lengthAdjust="spacing" textLength="44" x="13" y="368.1426">INITIAL</text><text fill="#000000" font-family="sans-serif" font-size="14" lengthAdjust="spacing" textLength="66" x="13" y="385.752">REGULAR</text><text fill="#000000" font-family="sans-serif" font-size="14" lengthAdjust="spacing" textLength="94" x="13" y="403.3613">EXCEPTIONAL</text></g><!--class DeclarationStatus--><g id="elem_DeclarationStatus"><rect codeLine="37" fill="#F1F1F1" height="88.4375" id="DeclarationStatus" rx="2.5" ry="2.5" style="stroke:#181818;stroke-width:0.5;" width="118" x="152" y="322"/><text fill="#000000" font-family="sans-serif" font-size="14" lengthAdjust="spacing" textLength="112" x="155" y="341.5332">DeclarationStatus</text><line style="stroke:#181818;stroke-width:0.5;" x1="153" x2="269" y1="349.6094" y2="349.6094"/><text fill="#000000" font-family="sans-serif" font-size="14" lengthAdjust="spacing" textLength="78" x="158" y="368.1426">SUBMITTED</text><text fill="#000000" font-family="sans-serif" font-size="14" lengthAdjust="spacing" textLength="76" x="158" y="385.752">VALIDATED</text><text fill="#000000" font-family="sans-serif" font-size="14" lengthAdjust="spacing" textLength="72" x="158" y="403.3613">REJECTED</text></g><!--class Section--><g id="elem_Section"><rect codeLine="43" fill="#F1F1F1" height="35.6094" id="Section" rx="2.5" ry="2.5" style="stroke:#181818;stroke-width:0.5;" width="53" x="305.5" y="348"/><text fill="#000000" font-family="sans-serif" font-size="14" font-style="italic" lengthAdjust="spacing" textLength="47" x="308.5" y="367.5332">Section</text><line style="stroke:#181818;stroke-width:0.5;" x1="306.5" x2="357.5" y1="375.6094" y2="375.6094"/></g><!--class IncomeSection--><g id="elem_IncomeSection"><rect codeLine="46" fill="#F1F1F1" height="35.6094" id="IncomeSection" rx="2.5" ry="2.5" style="stroke:#181818;stroke-width:0.5;" width="98" x="89" y="471"/><text fill="#000000" font-family="sans-serif" font-size="14" lengthAdjust="spacing" textLength="92" x="92" y="490.5332">IncomeSection</text><line style="stroke:#181818;stroke-width:0.5;" x1="90" x2="186" y1="498.6094" y2="498.6094"/></g><!--class AssetSection--><g id="elem_AssetSection"><rect codeLine="49" fill="#F1F1F1" height="35.6094" id="AssetSection" rx="2.5" ry="2.5" style="stroke:#181818;stroke-width:0.5;" width="88" x="222" y="471"/><text fill="#000000" font-family="sans-serif" font-size="14" lengthAdjust="spacing" textLength="82" x="225" y="490.5332">AssetSection</text><line style="stroke:#181818;stroke-width:0.5;" x1="223" x2="309" y1="498.6094" y2="498.6094"/></g><!--class PositionSection--><g id="elem_PositionSection"><rect codeLine="52" fill="#F1F1F1" height="35.6094" id="PositionSection" rx="2.5" ry="2.5" style="stroke:#181818;stroke-width:0.5;" width="103" x="345.5" y="471"/><text fill="#000000" font-family="sans-serif" font-size="14" lengthAdjust="spacing" textLength="97" x="348.5" y="490.5332">PositionSection</text><line style="stroke:#181818;stroke-width:0.5;" x1="346.5" x2="447.5" y1="498.6094" y2="498.6094"/></g><!--class ShareholdingSection--><g id="elem_ShareholdingSection"><rect codeLine="55" fill="#F1F1F1" height="35.6094" id="ShareholdingSection" rx="2.5" ry="2.5" style="stroke:#181818;stroke-width:0.5;" width="137" x="483.5" y="471"/><text fill="#000000" font-family="sans-serif" font-size="14" lengthAdjust="spacing" textLength="131" x="486.5" y="490.5332">ShareholdingSection</text><line style="stroke:#181818;stroke-width:0.5;" x1="484.5" x2="619.5" y1="498.6094" y2="498.6094"/></g><!--reverse link Section to IncomeSection--><g id="link_Section_IncomeSection"><path codeLine="58" d="M303.7205,396.9749 C295.4905,405.3849 297.53,402.44 287,410 C252.37,434.85 208.77,456.73 177.71,470.94 " fill="none" id="Section-backto-IncomeSection" style="stroke:#181818;stroke-width:1.0;"/><polygon fill="none" points="316.31,384.11,299.4322,392.7784,308.0088,401.1714,316.31,384.11" style="stroke:#181818;stroke-width:1.0;"/></g><!--reverse link Section to AssetSection--><g id="link_Section_AssetSection"><path codeLine="59" d="M314.0645,399.8842 C301.5645,422.8142 288.07,447.53 275.48,470.62 " fill="none" id="Section-backto-AssetSection" style="stroke:#181818;stroke-width:1.0;"/><polygon fill="none" points="322.68,384.08,308.7964,397.0124,319.3326,402.7561,322.68,384.08" style="stroke:#181818;stroke-width:1.0;"/></g><!--reverse link Section to PositionSection--><g id="link_Section_PositionSection"><path codeLine="60" d="M349.694,399.9391 C362.004,422.8691 375.26,447.53 387.66,470.62 " fill="none" id="Section-backto-PositionSection" style="stroke:#181818;stroke-width:1.0;"/><polygon fill="none" points="341.18,384.08,344.4076,402.7771,354.9804,397.1011,341.18,384.08" style="stroke:#181818;stroke-width:1.0;"/></g><!--reverse link Section to ShareholdingSection--><g id="link_Section_ShareholdingSection"><path codeLine="61" d="M358.9797,397.1422 C367.0097,405.7222 365.21,402.69 376,410 C415.01,436.43 464.44,457.41 500.98,470.92 " fill="none" id="Section-backto-ShareholdingSection" style="stroke:#181818;stroke-width:1.0;"/><polygon fill="none" points="346.68,384,354.599,401.2421,363.3605,393.0423,346.68,384" style="stroke:#181818;stroke-width:1.0;"/></g><!--link PoliticalAgent to PoliticalMandate--><g id="link_PoliticalAgent_PoliticalMandate"><path codeLine="63" d="M411.77,69.24 C415.78,94.14 423.27,140.74 428.44,172.91 " fill="none" id="PoliticalAgent-PoliticalMandate" style="stroke:#181818;stroke-width:1.0;"/><polygon fill="#000000" points="428.7938,139.1124,430.2595,129.7154,424.4562,130.6486,428.7938,139.1124" style="stroke:#000000;stroke-width:1.0;"/><text fill="#000000" font-family="sans-serif" font-size="13" lengthAdjust="spacing" textLength="31" x="437" y="139.4951">holds</text><text fill="#000000" font-family="sans-serif" font-size="13" lengthAdjust="spacing" textLength="7" x="404.5647" y="90.2195">1</text><text fill="#000000" font-family="sans-serif" font-size="13" lengthAdjust="spacing" textLength="20" x="405.4739" y="162.1457">0..*</text></g><!--link PoliticalMandate to Role--><g id="link_PoliticalMandate_Role"><path codeLine="64" d="M434.44,244.01 C434.81,272.82 435.33,313.25 435.67,339.28 " fill="none" id="PoliticalMandate-Role" style="stroke:#181818;stroke-width:1.0;"/><polygon fill="#000000" points="440.0645,288.1754,442.8865,279.0931,437.0091,279.169,440.0645,288.1754" style="stroke:#000000;stroke-width:1.0;"/><text fill="#000000" font-family="sans-serif" font-size="13" lengthAdjust="spacing" textLength="90" x="449" y="288.4951">associated with</text><text fill="#000000" font-family="sans-serif" font-size="13" lengthAdjust="spacing" textLength="5" x="429.0731" y="265.302">*</text><text fill="#000000" font-family="sans-serif" font-size="13" lengthAdjust="spacing" textLength="7" x="427.7843" y="328.7615">1</text></g><!--link PoliticalAgent to Declaration--><g id="link_PoliticalAgent_Declaration"><path codeLine="66" d="M387.61,69.24 C356.69,94.14 298.86,140.74 258.94,172.91 " fill="none" id="PoliticalAgent-Declaration" style="stroke:#181818;stroke-width:1.0;"/><polygon fill="#000000" points="320.1065,137.3128,328.9938,133.9264,325.306,129.3494,320.1065,137.3128" style="stroke:#000000;stroke-width:1.0;"/><text fill="#000000" font-family="sans-serif" font-size="13" lengthAdjust="spacing" textLength="46" x="333" y="139.4951">submits</text><text fill="#000000" font-family="sans-serif" font-size="13" lengthAdjust="spacing" textLength="7" x="373.6097" y="90.2195">1</text><text fill="#000000" font-family="sans-serif" font-size="13" lengthAdjust="spacing" textLength="20" x="245.2192" y="162.1457">0..*</text></g><!--link Declaration to DeclarationType--><g id="link_Declaration_DeclarationType"><path codeLine="67" d="M181.82,244.01 C159.05,267.01 133.1726,293.1375 108.8326,317.7075 " fill="none" id="Declaration-to-DeclarationType" style="stroke:#181818;stroke-width:1.0;"/><polygon fill="#181818" points="104.61,321.97,113.7857,318.3913,108.1289,318.4179,108.1023,312.7611,104.61,321.97" style="stroke:#181818;stroke-width:1.0;"/><text fill="#000000" font-family="sans-serif" font-size="13" lengthAdjust="spacing" textLength="7" x="103.8432" y="311.166">1</text></g><!--link Declaration to DeclarationStatus--><g id="link_Declaration_DeclarationStatus"><path codeLine="68" d="M214.89,244.01 C214.15,267.01 213.3628,291.4031 212.5728,315.9731 " fill="none" id="Declaration-to-DeclarationStatus" style="stroke:#181818;stroke-width:1.0;"/><polygon fill="#181818" points="212.38,321.97,216.6672,313.1032,212.5407,316.9726,208.6713,312.8461,212.38,321.97" style="stroke:#181818;stroke-width:1.0;"/><text fill="#000000" font-family="sans-serif" font-size="13" lengthAdjust="spacing" textLength="7" x="205.0421" y="311.166">1</text></g><!--reverse link Declaration to Section--><g id="link_Declaration_Section"><path codeLine="69" d="M248.9156,253.6282 C272.9456,285.8382 300.63,322.95 319.21,347.86 " fill="none" id="Declaration-backto-Section" style="stroke:#181818;stroke-width:1.0;"/><polygon fill="#181818" points="241.74,244.01,242.1217,251.211,248.9156,253.6282,248.5339,246.4273,241.74,244.01" style="stroke:#181818;stroke-width:1.0;"/><text fill="#000000" font-family="sans-serif" font-size="13" lengthAdjust="spacing" textLength="7" x="307.0176" y="337.1413">4</text></g><!--link EthicsCommitteeMember to Declaration--><g id="link_EthicsCommitteeMember_Declaration"><path codeLine="71" d="M215.2,95.05 C215,110.21 214.88,127.36 215,143 C215.07,152.63 215.21,163.07 215.36,172.69 " fill="none" id="EthicsCommitteeMember-Declaration" style="stroke:#181818;stroke-width:1.0;"/><polygon fill="#000000" points="220.0103,139.1758,222.9306,130.1246,217.0527,130.1368,220.0103,139.1758" style="stroke:#000000;stroke-width:1.0;"/><text fill="#000000" font-family="sans-serif" font-size="13" lengthAdjust="spacing" textLength="49" x="229" y="139.4951">consults</text><text fill="#000000" font-family="sans-serif" font-size="13" lengthAdjust="spacing" textLength="7" x="207.5147" y="116.8337">1</text><text fill="#000000" font-family="sans-serif" font-size="13" lengthAdjust="spacing" textLength="20" x="193.3983" y="162.1559">0..*</text></g><!--SRC=[XLDHRvim47xdLrWyHahLINkAfaeiGHLJaaM1Jdkzs5UmYkt8FjHrRVzxZHa84jJnmfs_- -wxWy_kIUepM51C6MruPOr2HhR1o0t86VWJb9ZJIutC8YVGPJqkS1K8yonroHwXTcE4r-1SGcJbgI7CkD6v_8liDggaGCQbvRvHY1LIPOIBea1XALMIkxLHIX8Xxb2TqBBNYFb7Wy8G4Fp9H8XGWQoZzvvzCBKaoQ5EIjJaQGDoD7w7her09qiD98sUOUv02w2-rX5OslYyKzCYn0DhW_vjGwkUq9oKTCuV32pH5MdQj_DxBkf6ZQd5oxdNo_PPaINR41_J-uTjSWnn-dkT7ehivzvZCnro0chSlnxvm_TTLXJf9cI_acssIVhicFv8rstYcy39aGLEtSzYkV_1tHx3UfdctXOpGE8SqipvmJWPvhc6yWeiLgOMtYuJk4- -lIsNKyKfDDQS8XUgKt16DuekV19_YPalZMzlRXRnjHLMhEKxTXTTGV6YO_e6mM4hvdSrN7fCi6T9bITzhZQsqAgp3xLIu_FbyYwmBZpplvhE5PEgHIlyDMR3bvY_Rv-DwE-oQ-emumS0]--></g></svg>