<?xml version="1.0" encoding="us-ascii" standalone="no"?><svg xmlns="http://www.w3.org/2000/svg" xmlns:xlink="http://www.w3.org/1999/xlink" contentStyleType="text/css" height="662px" preserveAspectRatio="none" style="width:430px;height:662px;background:#FFFFFF;" version="1.1" viewBox="0 0 430 662" width="430px" zoomAndPan="magnify"><defs/><g><!--class EthicsCommitteeMember--><g id="elem_EthicsCommitteeMember"><rect codeLine="8" fill="#F1F1F1" height="70.8281" id="EthicsCommitteeMember" rx="2.5" ry="2.5" style="stroke:#181818;stroke-width:0.5;" width="162" x="112" y="7"/><text fill="#000000" font-family="sans-serif" font-size="14" lengthAdjust="spacing" textLength="156" x="115" y="26.5332">EthicsCommitteeMember</text><line style="stroke:#181818;stroke-width:0.5;" x1="113" x2="273" y1="34.6094" y2="34.6094"/><text fill="#000000" font-family="sans-serif" font-size="14" lengthAdjust="spacing" textLength="35" x="118" y="53.1426">name</text><text fill="#000000" font-family="sans-serif" font-size="14" lengthAdjust="spacing" textLength="33" x="118" y="70.752">email</text></g><!--class PoliticalAgent--><g id="elem_PoliticalAgent"><rect codeLine="13" fill="#F1F1F1" height="70.8281" id="PoliticalAgent" rx="2.5" ry="2.5" style="stroke:#181818;stroke-width:0.5;" width="91" x="89.5" y="287"/><text fill="#000000" font-family="sans-serif" font-size="14" lengthAdjust="spacing" textLength="85" x="92.5" y="306.5332">PoliticalAgent</text><line style="stroke:#181818;stroke-width:0.5;" x1="90.5" x2="179.5" y1="314.6094" y2="314.6094"/><text fill="#000000" font-family="sans-serif" font-size="14" lengthAdjust="spacing" textLength="35" x="95.5" y="333.1426">name</text><text fill="#000000" font-family="sans-serif" font-size="14" lengthAdjust="spacing" textLength="33" x="95.5" y="350.752">email</text></g><!--class IntegratedSituation--><g id="elem_IntegratedSituation"><rect codeLine="18" fill="#F1F1F1" height="53.2188" id="IntegratedSituation" rx="2.5" ry="2.5" style="stroke:#181818;stroke-width:0.5;" width="125" x="130.5" y="156"/><text fill="#000000" font-family="sans-serif" font-size="14" lengthAdjust="spacing" textLength="119" x="133.5" y="175.5332">IntegratedSituation</text><line style="stroke:#181818;stroke-width:0.5;" x1="131.5" x2="254.5" y1="183.6094" y2="183.6094"/><text fill="#000000" font-family="sans-serif" font-size="14" lengthAdjust="spacing" textLength="91" x="136.5" y="202.1426">referenceDate</text></g><!--class DeclarationOfInterests--><g id="elem_DeclarationOfInterests"><rect codeLine="22" fill="#F1F1F1" height="88.4375" id="DeclarationOfInterests" rx="2.5" ry="2.5" style="stroke:#181818;stroke-width:0.5;" width="147" x="119.5" y="436"/><text fill="#000000" font-family="sans-serif" font-size="14" lengthAdjust="spacing" textLength="141" x="122.5" y="455.5332">DeclarationOfInterests</text><line style="stroke:#181818;stroke-width:0.5;" x1="120.5" x2="265.5" y1="463.6094" y2="463.6094"/><text fill="#000000" font-family="sans-serif" font-size="14" lengthAdjust="spacing" textLength="100" x="125.5" y="482.1426">submissionDate</text><text fill="#000000" font-family="sans-serif" font-size="14" lengthAdjust="spacing" textLength="27" x="125.5" y="499.752">type</text><text fill="#000000" font-family="sans-serif" font-size="14" lengthAdjust="spacing" textLength="38" x="125.5" y="517.3613">status</text></g><!--class Position--><g id="elem_Position"><rect codeLine="28" fill="#F1F1F1" height="53.2188" id="Position" rx="2.5" ry="2.5" style="stroke:#181818;stroke-width:0.5;" width="96" x="7" y="602"/><text fill="#000000" font-family="sans-serif" font-size="14" lengthAdjust="spacing" textLength="50" x="30" y="621.5332">Position</text><line style="stroke:#181818;stroke-width:0.5;" x1="8" x2="102" y1="629.6094" y2="629.6094"/><text fill="#000000" font-family="sans-serif" font-size="14" lengthAdjust="spacing" textLength="84" x="13" y="648.1426">remuneration</text></g><!--class Asset--><g id="elem_Asset"><rect codeLine="32" fill="#F1F1F1" height="53.2188" id="Asset" rx="2.5" ry="2.5" style="stroke:#181818;stroke-width:0.5;" width="109" x="138.5" y="602"/><text fill="#000000" font-family="sans-serif" font-size="14" lengthAdjust="spacing" textLength="35" x="175.5" y="621.5332">Asset</text><line style="stroke:#181818;stroke-width:0.5;" x1="139.5" x2="246.5" y1="629.6094" y2="629.6094"/><text fill="#000000" font-family="sans-serif" font-size="14" lengthAdjust="spacing" textLength="97" x="144.5" y="648.1426">estimatedValue</text></g><!--class BusinessParticipation--><g id="elem_BusinessParticipation"><rect codeLine="36" fill="#F1F1F1" height="53.2188" id="BusinessParticipation" rx="2.5" ry="2.5" style="stroke:#181818;stroke-width:0.5;" width="141" x="282.5" y="602"/><text fill="#000000" font-family="sans-serif" font-size="14" lengthAdjust="spacing" textLength="135" x="285.5" y="621.5332">BusinessParticipation</text><line style="stroke:#181818;stroke-width:0.5;" x1="283.5" x2="422.5" y1="629.6094" y2="629.6094"/><text fill="#000000" font-family="sans-serif" font-size="14" lengthAdjust="spacing" textLength="79" x="288.5" y="648.1426">marketValue</text></g><!--link EthicsCommitteeMember to IntegratedSituation--><g id="link_EthicsCommitteeMember_IntegratedSituation"><path codeLine="40" d="M193,78.32 C193,102.44 193,134 193,155.84 " fill="none" id="EthicsCommitteeMember-IntegratedSituation" style="stroke:#181818;stroke-width:1.0;"/><polygon fill="#000000" points="198,122.1758,200.9389,113.1307,195.0611,113.1307,198,122.1758" style="stroke:#000000;stroke-width:1.0;"/><text fill="#000000" font-family="sans-serif" font-size="13" lengthAdjust="spacing" textLength="49" x="207" y="122.4951">consults</text><text fill="#000000" font-family="sans-serif" font-size="13" lengthAdjust="spacing" textLength="7" x="185.3984" y="99.3917">1</text><text fill="#000000" font-family="sans-serif" font-size="13" lengthAdjust="spacing" textLength="20" x="170.6875" y="145.3353">0..*</text></g><!--link IntegratedSituation to PoliticalAgent--><g id="link_IntegratedSituation_PoliticalAgent"><path codeLine="41" d="M178.04,209.03 C172.92,218.3 167.38,228.96 163,239 C156.29,254.39 150.13,271.94 145.31,286.89 " fill="none" id="IntegratedSituation-PoliticalAgent" style="stroke:#181818;stroke-width:1.0;"/><polygon fill="#000000" points="166.0624,252.7851,172.2768,245.5857,166.8583,243.3079,166.0624,252.7851" style="stroke:#000000;stroke-width:1.0;"/><text fill="#000000" font-family="sans-serif" font-size="13" lengthAdjust="spacing" textLength="47" x="177" y="253.4951">refers to</text><text fill="#000000" font-family="sans-serif" font-size="13" lengthAdjust="spacing" textLength="7" x="166.7711" y="230.5255">1</text><text fill="#000000" font-family="sans-serif" font-size="13" lengthAdjust="spacing" textLength="7" x="139.6082" y="276.1219">1</text></g><!--link IntegratedSituation to DeclarationOfInterests--><g id="link_IntegratedSituation_DeclarationOfInterests"><path codeLine="42" d="M213.94,209.05 C220.03,217.98 225.87,228.43 229,239 C250.06,310.17 245.85,333.72 229,406 C226.66,416.05 222.72,426.3 218.3,435.82 " fill="none" id="IntegratedSituation-DeclarationOfInterests" style="stroke:#181818;stroke-width:1.0;"/><polygon fill="#000000" points="249.0961,327.6749,251.8606,318.5749,245.9839,318.6879,249.0961,327.6749" style="stroke:#000000;stroke-width:1.0;"/><text fill="#000000" font-family="sans-serif" font-size="13" lengthAdjust="spacing" textLength="64" x="258" y="327.9951">aggregates</text><text fill="#000000" font-family="sans-serif" font-size="13" lengthAdjust="spacing" textLength="7" x="210.973" y="230.5502">1</text><text fill="#000000" font-family="sans-serif" font-size="13" lengthAdjust="spacing" textLength="20" x="200.7384" y="424.9921">0..*</text></g><!--link PoliticalAgent to DeclarationOfInterests--><g id="link_PoliticalAgent_DeclarationOfInterests"><path codeLine="44" d="M146.83,358.13 C151.97,372.93 158.15,390.36 164,406 C167.63,415.71 171.66,426.08 175.54,435.88 " fill="none" id="PoliticalAgent-DeclarationOfInterests" style="stroke:#181818;stroke-width:1.0;"/><polygon fill="#000000" points="170.732,401.8662,170.3558,392.3631,164.8418,394.3992,170.732,401.8662" style="stroke:#000000;stroke-width:1.0;"/><text fill="#000000" font-family="sans-serif" font-size="13" lengthAdjust="spacing" textLength="46" x="178" y="402.4951">submits</text><text fill="#000000" font-family="sans-serif" font-size="13" lengthAdjust="spacing" textLength="7" x="141.3138" y="379.4433">1</text><text fill="#000000" font-family="sans-serif" font-size="13" lengthAdjust="spacing" textLength="20" x="151.1636" y="425.0616">0..*</text></g><!--link DeclarationOfInterests to Position--><g id="link_DeclarationOfInterests_Position"><path codeLine="46" d="M150.72,524.01 C141.21,533.81 131.21,544.22 122,554 C107.2,569.71 90.88,587.61 78.05,601.8 " fill="none" id="DeclarationOfInterests-Position" style="stroke:#181818;stroke-width:1.0;"/><polygon fill="#000000" points="123.5868,566.8295,131.909,562.2261,127.6138,558.2136,123.5868,566.8295" style="stroke:#000000;stroke-width:1.0;"/><text fill="#000000" font-family="sans-serif" font-size="13" lengthAdjust="spacing" textLength="48" x="136" y="568.4951">includes</text><text fill="#000000" font-family="sans-serif" font-size="13" lengthAdjust="spacing" textLength="7" x="136.4238" y="545.7874">1</text><text fill="#000000" font-family="sans-serif" font-size="13" lengthAdjust="spacing" textLength="20" x="61.0678" y="591.2861">0..*</text></g><!--link DeclarationOfInterests to Asset--><g id="link_DeclarationOfInterests_Asset"><path codeLine="47" d="M193,524.16 C193,549.31 193,580.19 193,601.61 " fill="none" id="DeclarationOfInterests-Asset" style="stroke:#181818;stroke-width:1.0;"/><polygon fill="#000000" points="198,568.1758,200.9389,559.1307,195.0611,559.1307,198,568.1758" style="stroke:#000000;stroke-width:1.0;"/><text fill="#000000" font-family="sans-serif" font-size="13" lengthAdjust="spacing" textLength="48" x="207" y="568.4951">includes</text><text fill="#000000" font-family="sans-serif" font-size="13" lengthAdjust="spacing" textLength="7" x="185.4422" y="545.9613">1</text><text fill="#000000" font-family="sans-serif" font-size="13" lengthAdjust="spacing" textLength="20" x="170.6875" y="591.0522">0..*</text></g><!--link DeclarationOfInterests to BusinessParticipation--><g id="link_DeclarationOfInterests_BusinessParticipation"><path codeLine="48" d="M240.14,524.16 C267.61,549.31 301.34,580.19 324.73,601.61 " fill="none" id="DeclarationOfInterests-BusinessParticipation" style="stroke:#181818;stroke-width:1.0;"/><polygon fill="#000000" points="300.6877,566.5523,296.0012,558.2766,292.0319,562.6118,300.6877,566.5523" style="stroke:#000000;stroke-width:1.0;"/><text fill="#000000" font-family="sans-serif" font-size="13" lengthAdjust="spacing" textLength="48" x="306" y="568.4951">includes</text><text fill="#000000" font-family="sans-serif" font-size="13" lengthAdjust="spacing" textLength="7" x="240.0951" y="545.9613">1</text><text fill="#000000" font-family="sans-serif" font-size="13" lengthAdjust="spacing" textLength="20" x="295.8801" y="591.0522">0..*</text></g><!--SRC=[bP5DQy9048Rl-okM70jAU_LGiBK73wM2qFku6PF1_GWxinHR-j-xIVo8ecXpsI7pFkzyyOPy0n6STi47KyVWK4jCgFYGQS1ieCAbR2tgY4R0LtOeu1hAy4M-qckmFCmO2ynJaKYh93WtmI_f6_MZggb4RIYQRDJ53gKE9IlL8VfDQZBy6fmZ4SHtT2kC-aVf_7bms0NeWApwtJEBO4d8W9rMwEM6UEu5gmY2vP8aWL3mEoBY6YDwWxESFG8pp6_iX1_hbex8mZk6qyeHSyvrKFjBjaqVi80a7hR9T5BE9O-zyL4qPSRz2BaEkRRJJx1fqD5BOlB8l82OnwPcE8I3k44v09VNMJmLUZJInUDu_51StCX4vvDniddGPtL9iBV8pzdw9_qYMKkumVRbh-nteg6g8bOPRNjGPrNkzEZkqmsXhcXEZGutccZongQoAtuNsb_k_zpbQvxu_040]--></g></svg>