<svg xmlns="http://www.w3.org/2000/svg" xmlns:xlink="http://www.w3.org/1999/xlink" contentStyleType="text/css" data-diagram-type="SEQUENCE" height="311px" preserveAspectRatio="none" style="width:426px;height:311px;background:#FFFFFF;" version="1.1" viewBox="0 0 426 311" width="426px" zoomAndPan="magnify"><defs/><g><g><title>Journalist</title><rect fill="#FFFFFF" height="117.1641" style="stroke:#181818;stroke-width:1;" width="10" x="32.9585" y="93.6211"/></g><g><title>.System</title><rect fill="#FFFFFF" height="31.291" style="stroke:#181818;stroke-width:1;" width="10" x="383.1426" y="116.9121"/></g><g><title>.System</title><rect fill="#FFFFFF" height="31.291" style="stroke:#181818;stroke-width:1;" width="10" x="383.1426" y="179.4941"/></g><g><title>Journalist</title><rect fill="#000000" fill-opacity="0.00000" height="145.1641" width="8" x="33.9585" y="83.6211"/><line style="stroke:#181818;stroke-width:0.5;stroke-dasharray:5,5;" x1="37" x2="37" y1="83.6211" y2="228.7852"/></g><g><title>.System</title><rect fill="#000000" fill-opacity="0.00000" height="145.1641" width="8" x="384.1426" y="83.6211"/><line style="stroke:#181818;stroke-width:0.5;stroke-dasharray:5,5;" x1="387.8599" x2="387.8599" y1="83.6211" y2="228.7852"/></g><g class="participant participant-head" data-participant="Journalist"><text fill="#000000" font-family="sans-serif" font-size="14" lengthAdjust="spacing" textLength="59.917" x="5" y="80.1074">Journalist</text><ellipse cx="37.9585" cy="13.5" fill="#E3E3E3" rx="8" ry="8" style="stroke:#181818;stroke-width:0.5;"/><path d="M37.9585,21.5 L37.9585,48.5 M24.9585,29.5 L50.9585,29.5 M37.9585,48.5 L24.9585,63.5 M37.9585,48.5 L50.9585,63.5" fill="none" style="stroke:#181818;stroke-width:0.5;"/></g><g class="participant participant-tail" data-participant="Journalist"><text fill="#000000" font-family="sans-serif" font-size="14" lengthAdjust="spacing" textLength="59.917" x="5" y="242.8926">Journalist</text><ellipse cx="37.9585" cy="254.9063" fill="#E3E3E3" rx="8" ry="8" style="stroke:#181818;stroke-width:0.5;"/><path d="M37.9585,262.9063 L37.9585,289.9063 M24.9585,270.9063 L50.9585,270.9063 M37.9585,289.9063 L24.9585,304.9063 M37.9585,289.9063 L50.9585,304.9063" fill="none" style="stroke:#181818;stroke-width:0.5;"/></g><g class="participant participant-head" data-participant="System"><rect fill="#E3E3E3" height="32.6211" rx="2.5" ry="2.5" style="stroke:#181818;stroke-width:0.5;" width="64.5654" x="355.8599" y="50"/><text fill="#000000" font-family="sans-serif" font-size="14" lengthAdjust="spacing" textLength="50.5654" x="362.8599" y="72.1074">:System</text></g><g class="participant participant-tail" data-participant="System"><rect fill="#E3E3E3" height="32.6211" rx="2.5" ry="2.5" style="stroke:#181818;stroke-width:0.5;" width="64.5654" x="355.8599" y="227.7852"/><text fill="#000000" font-family="sans-serif" font-size="14" lengthAdjust="spacing" textLength="50.5654" x="362.8599" y="249.8926">:System</text></g><g><title>Journalist</title><rect fill="#FFFFFF" height="117.1641" style="stroke:#181818;stroke-width:1;" width="10" x="32.9585" y="93.6211"/></g><g><title>.System</title><rect fill="#FFFFFF" height="31.291" style="stroke:#181818;stroke-width:1;" width="10" x="383.1426" y="116.9121"/></g><g><title>.System</title><rect fill="#FFFFFF" height="31.291" style="stroke:#181818;stroke-width:1;" width="10" x="383.1426" y="179.4941"/></g><g class="message" data-participant-1="Journalist" data-participant-2="System"><polygon fill="#181818" points="371.1426,112.9121,381.1426,116.9121,371.1426,120.9121,375.1426,116.9121" style="stroke:#181818;stroke-width:1;"/><line style="stroke:#181818;stroke-width:1;" x1="42.9585" x2="377.1426" y1="116.9121" y2="116.9121"/><text fill="#000000" font-family="sans-serif" font-size="13" font-weight="bold" lengthAdjust="spacing" textLength="7.23" x="49.9585" y="111.6494">1</text><text fill="#000000" font-family="sans-serif" font-size="13" lengthAdjust="spacing" textLength="293.7061" x="61.1885" y="111.6494">asks to analyse a political agent's income evolution</text></g><g class="message" data-participant-1="System" data-participant-2="Journalist"><polygon fill="#181818" points="53.9585,144.2031,43.9585,148.2031,53.9585,152.2031,49.9585,148.2031" style="stroke:#181818;stroke-width:1;"/><line style="stroke:#181818;stroke-width:1;stroke-dasharray:2,2;" x1="47.9585" x2="387.1426" y1="148.2031" y2="148.2031"/><text fill="#000000" font-family="sans-serif" font-size="13" font-weight="bold" lengthAdjust="spacing" textLength="7.23" x="59.9585" y="142.9404">2</text><text fill="#000000" font-family="sans-serif" font-size="13" lengthAdjust="spacing" textLength="198.0215" x="71.1885" y="142.9404">requests political agent and period</text></g><g class="message" data-participant-1="Journalist" data-participant-2="System"><polygon fill="#181818" points="371.1426,175.4941,381.1426,179.4941,371.1426,183.4941,375.1426,179.4941" style="stroke:#181818;stroke-width:1;"/><line style="stroke:#181818;stroke-width:1;" x1="42.9585" x2="377.1426" y1="179.4941" y2="179.4941"/><text fill="#000000" font-family="sans-serif" font-size="13" font-weight="bold" lengthAdjust="spacing" textLength="7.23" x="49.9585" y="174.2314">3</text><text fill="#000000" font-family="sans-serif" font-size="13" lengthAdjust="spacing" textLength="303.5259" x="61.1885" y="174.2314">selects political agent and enters start and end dates</text></g><g class="message" data-participant-1="System" data-participant-2="Journalist"><polygon fill="#181818" points="48.9585,206.7852,38.9585,210.7852,48.9585,214.7852,44.9585,210.7852" style="stroke:#181818;stroke-width:1;"/><line style="stroke:#181818;stroke-width:1;stroke-dasharray:2,2;" x1="42.9585" x2="387.1426" y1="210.7852" y2="210.7852"/><text fill="#000000" font-family="sans-serif" font-size="13" font-weight="bold" lengthAdjust="spacing" textLength="7.23" x="54.9585" y="205.5225">4</text><text fill="#000000" font-family="sans-serif" font-size="13" lengthAdjust="spacing" textLength="304.9541" x="66.1885" y="205.5225">displays income evolution data in chronological order</text></g><!--SRC=[dP8xSiGW38PxdqApJQgzW8iS8EsUG075onXB18dD-FQH7S_QitaKeK7eyVr8e6FYWXKdc8GbNAjC15ORTNgF50mZ3dInEHDK2eOyv6E2NZ7AH-81tZ0hTHqs4sxJArMtWqc5qukqofYJsWbGOJzsph0KKa4sEFMNMOscDUVBN0dfXaR7eWvyxMSuFs_fq7lfg602wB5P2H2AvEGQcC7xO7jII1oMJkackLaINdbteKqPjhMHpovoaEnz5k-DrFIHxyeH2jKaSML4UYJ_TNsbx3F-6UexLGKrdzdcY10ThFzg82Oj6UVlurYOw5vOVWHBbc6zYDJeJ_fBImVNBl89]--></g></svg>