<?plantuml 1.2026.2?><svg xmlns="http://www.w3.org/2000/svg" xmlns:xlink="http://www.w3.org/1999/xlink" contentStyleType="text/css" data-diagram-type="CLASS" height="977px" preserveAspectRatio="none" style="width:1811px;height:977px;background:#FFFFFF;" version="1.1" viewBox="0 0 1811 977" width="1811px" zoomAndPan="magnify"><defs/><g><!--class RequestedRole--><g class="entity" data-qualified-name="RequestedRole" data-source-line="15" id="ent0002"><rect fill="#F1F1F1" height="111.7568" rx="2.5" ry="2.5" style="stroke:#181818;stroke-width:0.5;" width="224.3516" x="294.5" y="859"/><text fill="#000000" font-family="sans-serif" font-size="14" lengthAdjust="spacing" textLength="96.5098" x="358.4209" y="878.0752">RequestedRole</text><line style="stroke:#181818;stroke-width:0.5;" x1="295.5" x2="517.8516" y1="886.1514" y2="886.1514"/><text fill="#000000" font-family="sans-serif" font-size="14" lengthAdjust="spacing" textLength="127.5928" x="300.5" y="904.2266">POLITICAL_AGENT</text><text fill="#000000" font-family="sans-serif" font-size="14" lengthAdjust="spacing" textLength="54.4414" x="300.5" y="921.3779">CITIZEN</text><text fill="#000000" font-family="sans-serif" font-size="14" lengthAdjust="spacing" textLength="87.124" x="300.5" y="938.5293">JOURNALIST</text><text fill="#000000" font-family="sans-serif" font-size="14" lengthAdjust="spacing" textLength="212.3516" x="300.5" y="955.6807">ETHICS_COMMITTEE_MEMBER</text><line style="stroke:#181818;stroke-width:0.5;" x1="295.5" x2="517.8516" y1="962.7568" y2="962.7568"/></g><!--class RequestStatus--><g class="entity" data-qualified-name="RequestStatus" data-source-line="22" id="ent0003"><rect fill="#F1F1F1" height="94.6055" rx="2.5" ry="2.5" style="stroke:#181818;stroke-width:0.5;" width="97.834" x="590.5" y="867.5"/><text fill="#000000" font-family="sans-serif" font-size="14" lengthAdjust="spacing" textLength="91.834" x="593.5" y="886.5752">RequestStatus</text><line style="stroke:#181818;stroke-width:0.5;" x1="591.5" x2="687.334" y1="894.6514" y2="894.6514"/><text fill="#000000" font-family="sans-serif" font-size="14" lengthAdjust="spacing" textLength="63.7861" x="596.5" y="912.7266">PENDING</text><text fill="#000000" font-family="sans-serif" font-size="14" lengthAdjust="spacing" textLength="76.2344" x="596.5" y="929.8779">ACCEPTED</text><text fill="#000000" font-family="sans-serif" font-size="14" lengthAdjust="spacing" textLength="73.8965" x="596.5" y="947.0293">REJECTED</text><line style="stroke:#181818;stroke-width:0.5;" x1="591.5" x2="687.334" y1="954.1055" y2="954.1055"/></g><!--class RegistrationRequest--><g class="entity" data-qualified-name="RegistrationRequest" data-source-line="28" id="ent0004"><rect fill="#F1F1F1" height="283.2705" rx="2.5" ry="2.5" style="stroke:#181818;stroke-width:0.5;" width="436.498" x="421.5" y="499"/><text fill="#000000" font-family="sans-serif" font-size="14" lengthAdjust="spacing" textLength="126.8477" x="576.3252" y="518.0752">RegistrationRequest</text><line style="stroke:#181818;stroke-width:0.5;" x1="422.5" x2="856.998" y1="526.1514" y2="526.1514"/><text fill="#000000" font-family="sans-serif" font-size="14" lengthAdjust="spacing" textLength="155.6406" x="427.5" y="544.2266">-requestDate : LocalDate</text><text fill="#000000" font-family="sans-serif" font-size="14" lengthAdjust="spacing" textLength="87.9238" x="427.5" y="561.3779">-name : String</text><text fill="#000000" font-family="sans-serif" font-size="14" lengthAdjust="spacing" textLength="83.2549" x="427.5" y="578.5293">-taxId : String</text><text fill="#000000" font-family="sans-serif" font-size="14" lengthAdjust="spacing" textLength="86.3584" x="427.5" y="595.6807">-email : String</text><text fill="#000000" font-family="sans-serif" font-size="14" lengthAdjust="spacing" textLength="112.8203" x="427.5" y="612.832">-password : String</text><text fill="#000000" font-family="sans-serif" font-size="14" lengthAdjust="spacing" textLength="227.2197" x="427.5" y="629.9834">-nationalIdentityCardNumber : String</text><text fill="#000000" font-family="sans-serif" font-size="14" lengthAdjust="spacing" textLength="167.2754" x="427.5" y="647.1348">-pressCardNumber : String</text><text fill="#000000" font-family="sans-serif" font-size="14" lengthAdjust="spacing" textLength="164.9785" x="427.5" y="664.2861">-requestedPosition : String</text><text fill="#000000" font-family="sans-serif" font-size="14" lengthAdjust="spacing" textLength="175.0957" x="427.5" y="681.4375">-requestedInstitution : String</text><line style="stroke:#181818;stroke-width:0.5;" x1="422.5" x2="856.998" y1="688.5137" y2="688.5137"/><text fill="#000000" font-family="sans-serif" font-size="14" lengthAdjust="spacing" textLength="424.498" x="427.5" y="706.5889">+RegistrationRequest(name, taxId, email, password, requestedRole,</text><text fill="#000000" font-family="sans-serif" font-size="14" lengthAdjust="spacing" textLength="300.3574" x="435.2793" y="723.7402">nationalIdentityCardNumber, pressCardNumber,</text><text fill="#000000" font-family="sans-serif" font-size="14" lengthAdjust="spacing" textLength="246.709" x="435.2793" y="740.8916">requestedPosition, requestedInstitution)</text><text fill="#000000" font-family="sans-serif" font-size="14" lengthAdjust="spacing" textLength="91.8135" x="427.5" y="758.043">-validateData()</text><text fill="#000000" font-family="sans-serif" font-size="14" lengthAdjust="spacing" textLength="169.627" x="427.5" y="775.1943">-validateRoleSpecificData()</text></g><!--class Institution--><g class="entity" data-qualified-name="Institution" data-source-line="44" id="ent0005"><rect fill="#F1F1F1" height="77.4541" rx="2.5" ry="2.5" style="stroke:#181818;stroke-width:0.5;" width="99.9238" x="1481.5" y="602"/><text fill="#000000" font-family="sans-serif" font-size="14" lengthAdjust="spacing" textLength="59.9238" x="1501.5" y="621.0752">Institution</text><line style="stroke:#181818;stroke-width:0.5;" x1="1482.5" x2="1580.4238" y1="629.1514" y2="629.1514"/><text fill="#000000" font-family="sans-serif" font-size="14" lengthAdjust="spacing" textLength="87.9238" x="1487.5" y="647.2266">-name : String</text><text fill="#000000" font-family="sans-serif" font-size="14" lengthAdjust="spacing" textLength="83.2549" x="1487.5" y="664.3779">-taxId : String</text><line style="stroke:#181818;stroke-width:0.5;" x1="1482.5" x2="1580.4238" y1="671.4541" y2="671.4541"/></g><!--class RegistrationRequestDTO--><g class="entity" data-qualified-name="RegistrationRequestDTO" data-source-line="49" id="ent0006"><rect fill="#FFFFFF" height="212.2148" rx="2.5" ry="2.5" style="stroke:#181818;stroke-width:0.5;" width="242.7334" x="72" y="210"/><text fill="#000000" font-family="sans-serif" font-size="12" font-style="italic" lengthAdjust="spacing" textLength="38.6777" x="174.0278" y="227.0645">&#171;DTO&#187;</text><text fill="#000000" font-family="sans-serif" font-size="14" lengthAdjust="spacing" textLength="156.3994" x="115.167" y="243.7764">RegistrationRequestDTO</text><line style="stroke:#181818;stroke-width:0.5;" x1="73" x2="313.7334" y1="251.8525" y2="251.8525"/><text fill="#000000" font-family="sans-serif" font-size="14" lengthAdjust="spacing" textLength="91.4375" x="78" y="269.9277">+name : String</text><text fill="#000000" font-family="sans-serif" font-size="14" lengthAdjust="spacing" textLength="86.7686" x="78" y="287.0791">+taxId : String</text><text fill="#000000" font-family="sans-serif" font-size="14" lengthAdjust="spacing" textLength="89.8721" x="78" y="304.2305">+email : String</text><text fill="#000000" font-family="sans-serif" font-size="14" lengthAdjust="spacing" textLength="116.334" x="78" y="321.3818">+password : String</text><text fill="#000000" font-family="sans-serif" font-size="14" lengthAdjust="spacing" textLength="207.416" x="78" y="338.5332">+requestedRole : RequestedRole</text><text fill="#000000" font-family="sans-serif" font-size="14" lengthAdjust="spacing" textLength="230.7334" x="78" y="355.6846">+nationalIdentityCardNumber : String</text><text fill="#000000" font-family="sans-serif" font-size="14" lengthAdjust="spacing" textLength="170.7891" x="78" y="372.8359">+pressCardNumber : String</text><text fill="#000000" font-family="sans-serif" font-size="14" lengthAdjust="spacing" textLength="168.4922" x="78" y="389.9873">+requestedPosition : String</text><text fill="#000000" font-family="sans-serif" font-size="14" lengthAdjust="spacing" textLength="178.6094" x="78" y="407.1387">+requestedInstitution : String</text><line style="stroke:#181818;stroke-width:0.5;" x1="73" x2="313.7334" y1="414.2148" y2="414.2148"/></g><!--class InstitutionDTO--><g class="entity" data-qualified-name="InstitutionDTO" data-source-line="61" id="ent0007"><rect fill="#FFFFFF" height="92.1553" rx="2.5" ry="2.5" style="stroke:#181818;stroke-width:0.5;" width="103.4375" x="1106" y="594.5"/><text fill="#000000" font-family="sans-serif" font-size="12" font-style="italic" lengthAdjust="spacing" textLength="38.6777" x="1138.3799" y="611.5645">&#171;DTO&#187;</text><text fill="#000000" font-family="sans-serif" font-size="14" lengthAdjust="spacing" textLength="89.4756" x="1112.981" y="628.2764">InstitutionDTO</text><line style="stroke:#181818;stroke-width:0.5;" x1="1107" x2="1208.4375" y1="636.3525" y2="636.3525"/><text fill="#000000" font-family="sans-serif" font-size="14" lengthAdjust="spacing" textLength="91.4375" x="1112" y="654.4277">+name : String</text><text fill="#000000" font-family="sans-serif" font-size="14" lengthAdjust="spacing" textLength="86.7686" x="1112" y="671.5791">+taxId : String</text><line style="stroke:#181818;stroke-width:0.5;" x1="1107" x2="1208.4375" y1="678.6553" y2="678.6553"/></g><!--class RegistrationRequestResultDTO--><g class="entity" data-qualified-name="RegistrationRequestResultDTO" data-source-line="66" id="ent0008"><rect fill="#FFFFFF" height="126.458" rx="2.5" ry="2.5" style="stroke:#181818;stroke-width:0.5;" width="202.082" x="1244.5" y="577.5"/><text fill="#000000" font-family="sans-serif" font-size="12" font-style="italic" lengthAdjust="spacing" textLength="38.6777" x="1326.2021" y="594.5645">&#171;DTO&#187;</text><text fill="#000000" font-family="sans-serif" font-size="14" lengthAdjust="spacing" textLength="196.082" x="1247.5" y="611.2764">RegistrationRequestResultDTO</text><line style="stroke:#181818;stroke-width:0.5;" x1="1245.5" x2="1445.582" y1="619.3525" y2="619.3525"/><text fill="#000000" font-family="sans-serif" font-size="14" lengthAdjust="spacing" textLength="114.7891" x="1250.5" y="637.4277">+requestId : String</text><text fill="#000000" font-family="sans-serif" font-size="14" lengthAdjust="spacing" textLength="159.1543" x="1250.5" y="654.5791">+requestDate : LocalDate</text><text fill="#000000" font-family="sans-serif" font-size="14" lengthAdjust="spacing" textLength="149.0303" x="1250.5" y="671.7305">+status : RequestStatus</text><text fill="#000000" font-family="sans-serif" font-size="14" lengthAdjust="spacing" textLength="113.2236" x="1250.5" y="688.8818">+message : String</text><line style="stroke:#181818;stroke-width:0.5;" x1="1245.5" x2="1445.582" y1="695.958" y2="695.958"/></g><!--class RequestRegistrationMapper--><g class="entity" data-qualified-name="RequestRegistrationMapper" data-source-line="73" id="ent0009"><rect fill="#FFFFFF" height="92.1553" rx="2.5" ry="2.5" style="stroke:#181818;stroke-width:0.5;" width="439.5605" x="1003.5" y="270"/><text fill="#000000" font-family="sans-serif" font-size="12" font-style="italic" lengthAdjust="spacing" textLength="54.0352" x="1196.2627" y="287.0645">&#171;Mapper&#187;</text><text fill="#000000" font-family="sans-serif" font-size="14" lengthAdjust="spacing" textLength="174.3164" x="1136.1221" y="303.7764">RequestRegistrationMapper</text><line style="stroke:#181818;stroke-width:0.5;" x1="1004.5" x2="1442.0605" y1="311.8525" y2="311.8525"/><line style="stroke:#181818;stroke-width:0.5;" x1="1004.5" x2="1442.0605" y1="319.8525" y2="319.8525"/><text fill="#000000" font-family="sans-serif" font-size="14" lengthAdjust="spacing" textLength="345.8643" x="1009.5" y="337.9277">+toInstitutionDTOList(institutions) : List&lt;InstitutionDTO&gt;</text><text fill="#000000" font-family="sans-serif" font-size="14" lengthAdjust="spacing" textLength="427.5605" x="1009.5" y="355.0791">+toResultDTO(registrationRequest) : RegistrationRequestResultDTO</text></g><!--class RegistrationRequestRepository--><g class="entity" data-qualified-name="RegistrationRequestRepository" data-source-line="78" id="ent0010"><rect fill="#F1F1F1" height="128.9082" rx="2.5" ry="2.5" style="stroke:#181818;stroke-width:0.5;" width="475.4082" x="493" y="251.5"/><text fill="#000000" font-family="sans-serif" font-size="14" lengthAdjust="spacing" textLength="193.7646" x="633.8218" y="270.5752">RegistrationRequestRepository</text><line style="stroke:#181818;stroke-width:0.5;" x1="494" x2="967.4082" y1="278.6514" y2="278.6514"/><line style="stroke:#181818;stroke-width:0.5;" x1="494" x2="967.4082" y1="286.6514" y2="286.6514"/><text fill="#000000" font-family="sans-serif" font-size="14" lengthAdjust="spacing" textLength="463.4082" x="499" y="304.7266">+createRegistrationRequest(name, taxId, email, password, requestedRole,</text><text fill="#000000" font-family="sans-serif" font-size="14" lengthAdjust="spacing" textLength="300.3574" x="506.7793" y="321.8779">nationalIdentityCardNumber, pressCardNumber,</text><text fill="#000000" font-family="sans-serif" font-size="14" lengthAdjust="spacing" textLength="246.709" x="506.7793" y="339.0293">requestedPosition, requestedInstitution)</text><text fill="#000000" font-family="sans-serif" font-size="14" lengthAdjust="spacing" textLength="285.5918" x="499" y="356.1807">-addRegistrationRequest(registrationRequest)</text><text fill="#000000" font-family="sans-serif" font-size="14" lengthAdjust="spacing" textLength="310.4883" x="499" y="373.332">-validateRegistrationRequest(registrationRequest)</text></g><!--class InstitutionRepository--><g class="entity" data-qualified-name="InstitutionRepository" data-source-line="84" id="ent0011"><rect fill="#F1F1F1" height="60.3027" rx="2.5" ry="2.5" style="stroke:#181818;stroke-width:0.5;" width="132.8408" x="1479" y="286"/><text fill="#000000" font-family="sans-serif" font-size="14" lengthAdjust="spacing" textLength="126.8408" x="1482" y="305.0752">InstitutionRepository</text><line style="stroke:#181818;stroke-width:0.5;" x1="1480" x2="1610.8408" y1="313.1514" y2="313.1514"/><line style="stroke:#181818;stroke-width:0.5;" x1="1480" x2="1610.8408" y1="321.1514" y2="321.1514"/><text fill="#000000" font-family="sans-serif" font-size="14" lengthAdjust="spacing" textLength="103.8857" x="1485" y="339.2266">+getInstitutions()</text></g><!--class Repositories--><g class="entity" data-qualified-name="Repositories" data-source-line="88" id="ent0012"><rect fill="#F1F1F1" height="111.7568" rx="2.5" ry="2.5" style="stroke:#181818;stroke-width:0.5;" width="242.7266" x="987" y="21"/><text fill="#000000" font-family="sans-serif" font-size="14" lengthAdjust="spacing" textLength="77.8135" x="1069.4565" y="40.0752">Repositories</text><line style="stroke:#181818;stroke-width:0.5;" x1="988" x2="1228.7266" y1="48.1514" y2="48.1514"/><line style="stroke:#181818;stroke-width:0.5;" x1="988" x2="1228.7266" y1="56.1514" y2="56.1514"/><text fill="#000000" font-family="sans-serif" font-size="14" lengthAdjust="spacing" textLength="91.7998" x="993" y="74.2266">-Repositories()</text><text fill="#000000" font-family="sans-serif" font-size="14" lengthAdjust="spacing" text-decoration="underline" textLength="89.8857" x="993" y="91.3779">+getInstance()</text><text fill="#000000" font-family="sans-serif" font-size="14" lengthAdjust="spacing" textLength="230.7266" x="993" y="108.5293">+getRegistrationRequestRepository()</text><text fill="#000000" font-family="sans-serif" font-size="14" lengthAdjust="spacing" textLength="163.8027" x="993" y="125.6807">+getInstitutionRepository()</text></g><!--class RequestRegistrationController--><g class="entity" data-qualified-name="RequestRegistrationController" data-source-line="95" id="ent0013"><rect fill="#F1F1F1" height="111.7568" rx="2.5" ry="2.5" style="stroke:#181818;stroke-width:0.5;" width="553.96" x="189.5" y="21"/><text fill="#000000" font-family="sans-serif" font-size="14" lengthAdjust="spacing" textLength="187.5371" x="372.7114" y="40.0752">RequestRegistrationController</text><line style="stroke:#181818;stroke-width:0.5;" x1="190.5" x2="742.46" y1="48.1514" y2="48.1514"/><line style="stroke:#181818;stroke-width:0.5;" x1="190.5" x2="742.46" y1="56.1514" y2="56.1514"/><text fill="#000000" font-family="sans-serif" font-size="14" lengthAdjust="spacing" textLength="205.0371" x="195.5" y="74.2266">+RequestRegistrationController()</text><text fill="#000000" font-family="sans-serif" font-size="14" lengthAdjust="spacing" textLength="140.4717" x="195.5" y="91.3779">+getRequestedRoles()</text><text fill="#000000" font-family="sans-serif" font-size="14" lengthAdjust="spacing" textLength="243.168" x="195.5" y="108.5293">+getInstitutions() : List&lt;InstitutionDTO&gt;</text><text fill="#000000" font-family="sans-serif" font-size="14" lengthAdjust="spacing" textLength="541.96" x="195.5" y="125.6807">+createRegistrationRequest(registrationRequestDTO) : RegistrationRequestResultDTO</text></g><g class="entity" data-qualified-name="GMN14" data-source-line="103" id="ent0015"><path d="M779,56 L779,73 L743.84,77 L779,81 L779,97.8525 A0,0 0 0 0 779,97.8525 L951.7471,97.8525 A0,0 0 0 0 951.7471,97.8525 L951.7471,66 L941.7471,56 L779,56 A0,0 0 0 0 779,56" fill="#FEFFDD" style="stroke:#181818;stroke-width:0.5;"/><path d="M941.7471,56 L941.7471,66 L951.7471,66 L941.7471,56" fill="#FEFFDD" style="stroke:#181818;stroke-width:0.5;"/><text fill="#000000" font-family="sans-serif" font-size="13" lengthAdjust="spacing" textLength="151.7471" x="785" y="74.0698">requestedRole is retrieved</text><text fill="#000000" font-family="sans-serif" font-size="13" lengthAdjust="spacing" textLength="110.5571" x="785" y="89.9961">from selected data.</text></g><g class="entity" data-qualified-name="GMN17" data-source-line="108" id="ent0018"><path d="M1617,619.5 L1617,661.3525 A0,0 0 0 0 1617,661.3525 L1804.2134,661.3525 A0,0 0 0 0 1804.2134,661.3525 L1804.2134,629.5 L1794.2134,619.5 L1704.13,619.5 L1560.43,346.19 L1696.13,619.5 L1617,619.5 A0,0 0 0 0 1617,619.5" fill="#FEFFDD" style="stroke:#181818;stroke-width:0.5;"/><path d="M1794.2134,619.5 L1794.2134,629.5 L1804.2134,629.5 L1794.2134,619.5" fill="#FEFFDD" style="stroke:#181818;stroke-width:0.5;"/><text fill="#000000" font-family="sans-serif" font-size="13" lengthAdjust="spacing" textLength="166.2134" x="1623" y="637.5698">Used only when the selected</text><text fill="#000000" font-family="sans-serif" font-size="13" lengthAdjust="spacing" textLength="160.3799" x="1623" y="653.4961">role is POLITICAL_AGENT.</text></g><g class="entity" data-qualified-name="GMN20" data-source-line="113" id="ent0021"><path d="M892.5,603.5 L892.5,677.2051 L1070.2935,677.2051 L1070.2935,613.5 L1060.2935,603.5 L892.5,603.5" fill="#FEFFDD" style="stroke:#181818;stroke-width:0.5;"/><path d="M1060.2935,603.5 L1060.2935,613.5 L1070.2935,613.5 L1060.2935,603.5" fill="#FEFFDD" style="stroke:#181818;stroke-width:1;"/><text fill="#000000" font-family="sans-serif" font-size="13" lengthAdjust="spacing" textLength="156.0762" x="898.5" y="621.5698">The request is created with</text><text fill="#000000" font-family="sans-serif" font-size="13" lengthAdjust="spacing" textLength="101.1372" x="898.5" y="637.4961">PENDING status.</text><text fill="#000000" font-family="sans-serif" font-size="13" lengthAdjust="spacing" textLength="156.7935" x="898.5" y="653.4224">No User account is created</text><text fill="#000000" font-family="sans-serif" font-size="13" lengthAdjust="spacing" textLength="49.8608" x="898.5" y="669.3486">in US01.</text></g><!--class RequestRegistrationUI--><g class="entity" data-qualified-name="RequestRegistrationUI" data-source-line="119" id="ent0023"><rect fill="#F1F1F1" height="43.1514" rx="2.5" ry="2.5" style="stroke:#181818;stroke-width:0.5;" width="146.8477" x="7" y="55.5"/><text fill="#000000" font-family="sans-serif" font-size="14" lengthAdjust="spacing" textLength="140.8477" x="10" y="74.5752">RequestRegistrationUI</text><line style="stroke:#181818;stroke-width:0.5;" x1="8" x2="152.8477" y1="82.6514" y2="82.6514"/><line style="stroke:#181818;stroke-width:0.5;" x1="8" x2="152.8477" y1="90.6514" y2="90.6514"/></g><!--link RegistrationRequestRepository to GMN20--><g class="link" data-entity-1="ent0010" data-entity-2="ent0021" data-link-type="association" data-source-line="113" id="lnk22"><path d="M781.21,380.65 C823.03,433.14 875.5,499 875.5,499 C875.5,499 922.8,561.69 954.2,603.32" fill="none" id="RegistrationRequestRepository-GMN20" style="stroke:#181818;stroke-width:1;stroke-dasharray:7,7;"/></g><!--link RequestRegistrationUI to RequestRegistrationController--><g class="link" data-entity-1="ent0023" data-entity-2="ent0013" data-link-type="dependency" data-source-line="122" id="lnk24"><path codeLine="122" d="M154.23,77 C167.14,77 173.54,77 183.28,77" fill="none" id="RequestRegistrationUI-to-RequestRegistrationController" style="stroke:#181818;stroke-width:1;stroke-dasharray:7,7;"/><polygon fill="#181818" points="189.28,77,180.28,73,184.28,77,180.28,81,189.28,77" style="stroke:#181818;stroke-width:1;"/></g><!--link RequestRegistrationController to Repositories--><g class="link" data-entity-1="ent0013" data-entity-2="ent0012" data-link-type="dependency" data-source-line="124" id="lnk25"><path codeLine="124" d="M713.11,20.97 C751.64,12.22 779,6 779,6 C779,6 952,6 952,6 C952,6 961.0666,10.1098 981.2666,19.2798" fill="none" id="RequestRegistrationController-to-Repositories" style="stroke:#181818;stroke-width:1;stroke-dasharray:7,7;"/><polygon fill="#181818" points="986.73,21.76,980.1883,14.3975,982.1772,19.6932,976.8815,21.682,986.73,21.76" style="stroke:#181818;stroke-width:1;"/></g><!--link RequestRegistrationController to RegistrationRequestRepository--><g class="link" data-entity-1="ent0013" data-entity-2="ent0010" data-link-type="dependency" data-source-line="125" id="lnk26"><path codeLine="125" d="M528.06,133.27 C567.37,168.56 614.0049,210.4221 655.0249,247.2421" fill="none" id="RequestRegistrationController-to-RegistrationRequestRepository" style="stroke:#181818;stroke-width:1;stroke-dasharray:7,7;"/><polygon fill="#181818" points="659.49,251.25,655.4643,242.2615,655.7691,247.9101,650.1205,248.2149,659.49,251.25" style="stroke:#181818;stroke-width:1;"/></g><!--link RequestRegistrationController to InstitutionRepository--><g class="link" data-entity-1="ent0013" data-entity-2="ent0011" data-link-type="dependency" data-source-line="126" id="lnk27"><path codeLine="126" d="M724.39,133.03 C837.27,157.12 944.5,180 944.5,180 C944.5,180 1461.5,210 1461.5,210 C1461.5,210 1493.5024,249.9943 1518.3524,281.0643" fill="none" id="RequestRegistrationController-to-InstitutionRepository" style="stroke:#181818;stroke-width:1;stroke-dasharray:7,7;"/><polygon fill="#181818" points="1522.1,285.75,1519.6023,276.2231,1518.977,281.8453,1513.3548,281.2199,1522.1,285.75" style="stroke:#181818;stroke-width:1;"/></g><!--link RequestRegistrationController to RegistrationRequest--><g class="link" data-entity-1="ent0013" data-entity-2="ent0004" data-link-type="dependency" data-source-line="127" id="lnk28"><path codeLine="127" d="M467.95,133.27 C470.49,230.51 475.5,422 475.5,422 C475.5,422 498.3078,452.2492 529.9378,494.1992" fill="none" id="RequestRegistrationController-to-RegistrationRequest" style="stroke:#181818;stroke-width:1;stroke-dasharray:7,7;"/><polygon fill="#181818" points="533.55,498.99,531.3255,489.3956,530.5398,494.9977,524.9378,494.212,533.55,498.99" style="stroke:#181818;stroke-width:1;"/></g><!--link RequestRegistrationController to RequestedRole--><g class="link" data-entity-1="ent0013" data-entity-2="ent0002" data-link-type="dependency" data-source-line="128" id="lnk29"><path codeLine="128" d="M458.39,133.04 C441.59,247.16 404.5,499 404.5,499 C404.5,499 404.5,782 404.5,782 C404.5,782 405.0304,816.6107 405.5704,852.7807" fill="none" id="RequestRegistrationController-to-RequestedRole" style="stroke:#181818;stroke-width:1;stroke-dasharray:7,7;"/><polygon fill="#181818" points="405.66,858.78,409.5252,849.7213,405.5854,853.7806,401.5261,849.8407,405.66,858.78" style="stroke:#181818;stroke-width:1;"/></g><!--link RequestRegistrationController to RegistrationRequestDTO--><g class="link" data-entity-1="ent0013" data-entity-2="ent0006" data-link-type="dependency" data-source-line="129" id="lnk30"><path codeLine="129" d="M386.22,133.03 C362.38,149.37 342.5,163 342.5,163 C342.5,163 326.3998,179.425 300.7798,205.565" fill="none" id="RequestRegistrationController-to-RegistrationRequestDTO" style="stroke:#181818;stroke-width:1;stroke-dasharray:7,7;"/><polygon fill="#181818" points="296.58,209.85,305.7364,206.2223,300.0798,206.2791,300.023,200.6226,296.58,209.85" style="stroke:#181818;stroke-width:1;"/></g><!--link RequestRegistrationController to RequestRegistrationMapper--><g class="link" data-entity-1="ent0013" data-entity-2="ent0009" data-link-type="dependency" data-source-line="130" id="lnk31"><path codeLine="130" d="M619.72,133.03 C686.79,157.12 750.5,180 750.5,180 C750.5,180 985.5,210 985.5,210 C985.5,210 1051.1905,238.9782 1115.7005,267.4382" fill="none" id="RequestRegistrationController-to-RequestRegistrationMapper" style="stroke:#181818;stroke-width:1;stroke-dasharray:7,7;"/><polygon fill="#181818" points="1121.19,269.86,1114.5703,262.5676,1116.6154,267.8418,1111.3412,269.8869,1121.19,269.86" style="stroke:#181818;stroke-width:1;"/></g><!--link Repositories to Repositories--><g class="link" data-entity-1="ent0012" data-entity-2="ent0012" data-link-type="dependency" data-source-line="132" id="lnk32"><path codeLine="132" d="M1230.22,60.58 C1250.78,62.85 1265,68.33 1265,77 C1265,85.67 1256.7438,90.4915 1236.1838,92.7615" fill="none" id="Repositories-to-Repositories" style="stroke:#181818;stroke-width:1;"/><polygon fill="#181818" points="1230.22,93.42,1239.6046,96.4082,1235.1898,92.8713,1238.7267,88.4565,1230.22,93.42" style="stroke:#181818;stroke-width:1;"/><text fill="#000000" font-family="sans-serif" font-size="13" lengthAdjust="spacing" textLength="48.4199" x="1271" y="82.5698">instance</text><text fill="#000000" font-family="sans-serif" font-size="13" lengthAdjust="spacing" textLength="7.23" x="1237.8659" y="92.069">1</text></g><!--link Repositories to RegistrationRequestRepository--><g class="link" data-entity-1="ent0012" data-entity-2="ent0010" data-link-type="dependency" data-source-line="133" id="lnk33"><path codeLine="133" d="M1020.35,133.27 C963.96,168.62 895.7031,211.4122 836.9131,248.2822" fill="none" id="Repositories-to-RegistrationRequestRepository" style="stroke:#181818;stroke-width:1;"/><polygon fill="#181818" points="831.83,251.47,841.5798,250.077,836.0659,248.8135,837.3294,243.2995,831.83,251.47" style="stroke:#181818;stroke-width:1;"/><text fill="#000000" font-family="sans-serif" font-size="13" lengthAdjust="spacing" textLength="174.8652" x="964.5" y="177.0698">registrationRequestRepository</text><text fill="#000000" font-family="sans-serif" font-size="13" lengthAdjust="spacing" textLength="7.23" x="836.7422" y="240.8232">1</text></g><!--link Repositories to InstitutionRepository--><g class="link" data-entity-1="ent0012" data-entity-2="ent0011" data-link-type="dependency" data-source-line="134" id="lnk34"><path codeLine="134" d="M1230.48,123.61 C1332.51,161.77 1461.5,210 1461.5,210 C1461.5,210 1493.5024,249.9943 1518.3524,281.0643" fill="none" id="Repositories-to-InstitutionRepository" style="stroke:#181818;stroke-width:1;"/><polygon fill="#181818" points="1522.1,285.75,1519.6023,276.2231,1518.977,281.8453,1513.3548,281.2199,1522.1,285.75" style="stroke:#181818;stroke-width:1;"/><text fill="#000000" font-family="sans-serif" font-size="13" lengthAdjust="spacing" textLength="117.0571" x="1376.5" y="177.0698">institutionRepository</text><text fill="#000000" font-family="sans-serif" font-size="13" lengthAdjust="spacing" textLength="7.23" x="1508.9244" y="275.1622">1</text></g><!--link RegistrationRequestRepository to RegistrationRequest--><g class="link" data-entity-1="ent0010" data-entity-2="ent0004" data-link-type="dependency" data-source-line="136" id="lnk35"><path codeLine="136" d="M712.52,380.72 C702.96,414.58 692.4389,451.8753 680.8089,493.1053" fill="none" id="RegistrationRequestRepository-to-RegistrationRequest" style="stroke:#181818;stroke-width:1;"/><polygon fill="#181818" points="679.18,498.88,685.4731,491.3039,680.5374,494.0678,677.7736,489.1321,679.18,498.88" style="stroke:#181818;stroke-width:1;"/><text fill="#000000" font-family="sans-serif" font-size="13" lengthAdjust="spacing" textLength="119.228" x="690.5" y="466.0698">registrationRequests</text><text fill="#000000" font-family="sans-serif" font-size="13" lengthAdjust="spacing" textLength="5.0591" x="676.3168" y="488.3478">*</text></g><!--link InstitutionRepository to Institution--><g class="link" data-entity-1="ent0011" data-entity-2="ent0005" data-link-type="dependency" data-source-line="138" id="lnk36"><path codeLine="138" d="M1544.23,346.19 C1541.69,404.8 1536.2199,530.7456 1533.3999,595.7956" fill="none" id="InstitutionRepository-to-Institution" style="stroke:#181818;stroke-width:1;"/><polygon fill="#181818" points="1533.14,601.79,1537.526,592.9717,1533.3566,596.7947,1529.5335,592.6252,1533.14,601.79" style="stroke:#181818;stroke-width:1;"/><text fill="#000000" font-family="sans-serif" font-size="13" lengthAdjust="spacing" textLength="61.4199" x="1539.5" y="466.0698">institutions</text><text fill="#000000" font-family="sans-serif" font-size="13" lengthAdjust="spacing" textLength="5.0591" x="1527.989" y="591.096">*</text></g><!--link RequestRegistrationMapper to Institution--><g class="link" data-entity-1="ent0009" data-entity-2="ent0005" data-link-type="dependency" data-source-line="140" id="lnk37"><path codeLine="140" d="M1283.38,362.22 C1354.76,416.12 1464.5,499 1464.5,499 C1464.5,499 1491.1171,554.8144 1510.9671,596.4344" fill="none" id="RequestRegistrationMapper-to-Institution" style="stroke:#181818;stroke-width:1;stroke-dasharray:7,7;"/><polygon fill="#181818" points="1513.55,601.85,1513.2861,592.0047,1511.3976,597.337,1506.0653,595.4485,1513.55,601.85" style="stroke:#181818;stroke-width:1;"/></g><!--link RequestRegistrationMapper to InstitutionDTO--><g class="link" data-entity-1="ent0009" data-entity-2="ent0007" data-link-type="dependency" data-source-line="141" id="lnk38"><path codeLine="141" d="M1214.25,362.18 C1201.68,423.64 1180.5128,527.0518 1167.9428,588.4818" fill="none" id="RequestRegistrationMapper-to-InstitutionDTO" style="stroke:#181818;stroke-width:1;stroke-dasharray:7,7;"/><polygon fill="#181818" points="1166.74,594.36,1172.463,586.3446,1167.7423,589.4615,1164.6254,584.7408,1166.74,594.36" style="stroke:#181818;stroke-width:1;"/></g><!--link RequestRegistrationMapper to RegistrationRequest--><g class="link" data-entity-1="ent0009" data-entity-2="ent0004" data-link-type="dependency" data-source-line="142" id="lnk39"><path codeLine="142" d="M1137.03,362.22 C1033.97,416.12 875.5,499 875.5,499 C875.5,499 873.9948,499.8895 862.9148,506.4895" fill="none" id="RequestRegistrationMapper-to-RegistrationRequest" style="stroke:#181818;stroke-width:1;stroke-dasharray:7,7;"/><polygon fill="#181818" points="857.76,509.56,867.5392,508.3907,862.0557,507.0012,863.4451,501.5177,857.76,509.56" style="stroke:#181818;stroke-width:1;"/></g><!--link RequestRegistrationMapper to RegistrationRequestResultDTO--><g class="link" data-entity-1="ent0009" data-entity-2="ent0008" data-link-type="dependency" data-source-line="143" id="lnk40"><path codeLine="143" d="M1240.59,362.18 C1261.81,418.26 1295.9666,508.5683 1319.8166,571.5983" fill="none" id="RequestRegistrationMapper-to-RegistrationRequestResultDTO" style="stroke:#181818;stroke-width:1;stroke-dasharray:7,7;"/><polygon fill="#181818" points="1321.94,577.21,1322.496,567.3768,1320.1705,572.5336,1315.0137,570.2081,1321.94,577.21" style="stroke:#181818;stroke-width:1;"/></g><!--link RegistrationRequest to RequestedRole--><g class="link" data-entity-1="ent0004" data-entity-2="ent0002" data-link-type="dependency" data-source-line="145" id="lnk41"><path codeLine="145" d="M519.25,782.14 C495.99,809.34 476.8287,831.7393 457.6887,854.1293" fill="none" id="RegistrationRequest-to-RequestedRole" style="stroke:#181818;stroke-width:1;"/><polygon fill="#181818" points="453.79,858.69,462.6785,854.4481,457.0389,854.8894,456.5976,849.2498,453.79,858.69" style="stroke:#181818;stroke-width:1;"/><text fill="#000000" font-family="sans-serif" font-size="13" lengthAdjust="spacing" textLength="84.5571" x="489.5" y="826.0698">requestedRole</text><text fill="#000000" font-family="sans-serif" font-size="13" lengthAdjust="spacing" textLength="7.23" x="452.6661" y="848.2639">1</text></g><!--link RegistrationRequest to RequestStatus--><g class="link" data-entity-1="ent0004" data-entity-2="ent0003" data-link-type="dependency" data-source-line="146" id="lnk42"><path codeLine="146" d="M639.5,782.14 C639.5,812.98 639.5,837.53 639.5,861.44" fill="none" id="RegistrationRequest-to-RequestStatus" style="stroke:#181818;stroke-width:1;"/><polygon fill="#181818" points="639.5,867.44,643.5,858.44,639.5,862.44,635.5,858.44,639.5,867.44" style="stroke:#181818;stroke-width:1;"/><text fill="#000000" font-family="sans-serif" font-size="13" lengthAdjust="spacing" textLength="34.6836" x="640.5" y="826.0698">status</text><text fill="#000000" font-family="sans-serif" font-size="13" lengthAdjust="spacing" textLength="7.23" x="631.9531" y="856.4999">1</text></g><?plantuml-src pLPDRziu4BthLn2zD5cvGNiD0WEk8dHLs4vWELXWiK30I1EBg4ngIQfPhz7_lYDAbYcPaesSrYThFj_CF0xvKVrWlA2IRibMS95aKco1Q5c2TzGKDFb1Dn3hNGv4Gg8ft-IsWSfeAjuOtv1NcYjRapCEUbS0AKI-gpwyZmwba5fubbUIKwLcMalsKcg84i5ZzY-Gprx6KY09amccxzkJlKVmznN1RgGeUHg8NCYxk_lrmtHA_iYO1hV1WXO5oDRcb-S1BxTa1N-Ne3IaAu5bry4V7-RHEWfcy-VPjt2vDh809N-6I_F_-yFJQZcRHt6j2jU_Hq7y73mi5j5w7ORFYt3nDLprKyIQwlA0_p5StaVBR-R_B0Z2ntLuRpvMuVSmg3xGkovu1HkcjAIQ2Tw4Qe9ymZ6PxtkgWToIkKXeNlrlj9nkAt6C7UQRHgRfFr7Q5yAMihmlB33vcv0dnjmWeNcK0jTCxm8gqsMvVG5v4a62KiDgUMZzer2iYZbe4765cSgkZJ7oNUsvgWgVrALEwk8cRJcJOzXgv9E_E1afQT8lmjYV89yuiLutTVoaEKjnB3WQUjKNLY3Y0XBsofB6e1szNVV-yg6EKGVF2JcSbdtJmjEGleidleid_W1F_6wRKTavQMtcoxZaZtF9FySb_moNN1r_PwV6chy2LURE4JJmeg4kEa-uJrIzKswxEwPHRh5ZkD2Tq1euHuJrUYJMdZn0qwBRb3dwNB6ZI5rNm51urxMRjlvjsLVoj2VN1lrmgyuqjAZcBUIkXPj8g4xL_tyhq3HreNIrgByoBdLpqThHiWreoq3P6wYrPg3Q5MGBcttcatt5HPRyEaIZF85MYRBHwTc6JgnTJ2Vi3GJNKkGvCdZVtWiZLbrWrk3L01AKZxDyc7RIkOGleJqNUEWbssIQYDVnWWoAxiPb2WLuyE4df4RzYgy-eY37fnsa18b4R_21af8gJPFiHMYDHfZDEGKJvacXj-3vZhnbm8dEe0rQesYIzrvH8xb6gM5YhZCuL5U5hfkTaZUcC_ivrUp36oDRYWgg93H9y1be-naru-Gf_lp5XZL8hwS8QOK3SQjkfcTcuuqprlWVJzGvQsC-rh3p_kxXlYllHLxsnV-kBDM1k3ZHwRLMJS3QOv-cvCEN3ztTTajOixHwjgtnsELpI-IPaJX2kfTo3UHqEjuu0XFqDoTEDphbUMu0XqZTXv9zuJi9tJmWUlIwt79Wn9RnXUmRzpWkM5T3hN5t7w-on-6pdl7XPLQl9Ey_?></g></svg>