<?plantuml 1.2026.2?><svg xmlns="http://www.w3.org/2000/svg" xmlns:xlink="http://www.w3.org/1999/xlink" contentStyleType="text/css" data-diagram-type="CLASS" height="948px" preserveAspectRatio="none" style="width:1323px;height:948px;background:#FFFFFF;" version="1.1" viewBox="0 0 1323 948" width="1323px" zoomAndPan="magnify"><defs/><g><!--class RequestedRole--><g class="entity" data-qualified-name="RequestedRole" data-source-line="9" id="ent0002"><rect fill="#F1F1F1" height="116.6055" rx="2.5" ry="2.5" style="stroke:#181818;stroke-width:0.5;" width="224.3516" x="143.5" y="825"/><ellipse cx="203.1709" cy="841" fill="#EB937F" rx="11" ry="11" style="stroke:#181818;stroke-width:1;"/><path d="M202.0303,841.7969 L202.0303,844.2969 L206.3584,844.2969 L206.3584,843.375 Q206.3584,842.7656 206.5928,842.5 Q206.8428,842.2344 207.2178,842.2344 Q207.5928,842.2344 207.8271,842.5 Q208.0615,842.7656 208.0615,843.375 L208.0615,846 L200.0615,846 Q199.4365,846 199.1709,845.7656 Q198.9209,845.5313 198.9209,845.1406 Q198.9209,844.7656 199.1865,844.5313 Q199.4521,844.2969 200.0615,844.2969 L200.3271,844.2969 L200.3271,837.6406 L200.0615,837.6406 Q199.4365,837.6406 199.1709,837.4063 Q198.9209,837.1719 198.9209,836.7813 Q198.9209,836.4063 199.1709,836.1719 Q199.4365,835.9375 200.0615,835.9375 L207.6865,835.9375 L207.6865,838.5313 Q207.6865,839.1406 207.4521,839.4063 Q207.2334,839.6563 206.8428,839.6563 Q206.4678,839.6563 206.2334,839.4063 Q205.999,839.1406 205.999,838.5313 L205.999,837.6406 L202.0303,837.6406 L202.0303,840.0938 L203.5146,840.0938 Q203.5146,839.4375 203.6396,839.25 Q203.9053,838.8438 204.374,838.8438 Q204.749,838.8438 204.9834,839.1094 Q205.2178,839.3594 205.2178,839.9688 L205.2178,841.9375 Q205.2178,842.4844 205.0928,842.6719 Q204.8271,843.0625 204.374,843.0625 Q203.9053,843.0625 203.6396,842.6563 Q203.5146,842.4688 203.5146,841.7969 L202.0303,841.7969 Z " fill="#000000"/><text fill="#000000" font-family="sans-serif" font-size="14" lengthAdjust="spacing" textLength="96.5098" x="223.6709" y="846.4995">RequestedRole</text><line style="stroke:#181818;stroke-width:0.5;" x1="144.5" x2="366.8516" y1="857" y2="857"/><text fill="#000000" font-family="sans-serif" font-size="14" lengthAdjust="spacing" textLength="127.5928" x="149.5" y="875.0752">POLITICAL_AGENT</text><text fill="#000000" font-family="sans-serif" font-size="14" lengthAdjust="spacing" textLength="54.4414" x="149.5" y="892.2266">CITIZEN</text><text fill="#000000" font-family="sans-serif" font-size="14" lengthAdjust="spacing" textLength="87.124" x="149.5" y="909.3779">JOURNALIST</text><text fill="#000000" font-family="sans-serif" font-size="14" lengthAdjust="spacing" textLength="212.3516" x="149.5" y="926.5293">ETHICS_COMMITTEE_MEMBER</text><line style="stroke:#181818;stroke-width:0.5;" x1="144.5" x2="366.8516" y1="933.6055" y2="933.6055"/></g><!--class RequestStatus--><g class="entity" data-qualified-name="RequestStatus" data-source-line="16" id="ent0003"><rect fill="#F1F1F1" height="99.4541" rx="2.5" ry="2.5" style="stroke:#181818;stroke-width:0.5;" width="123.834" x="433.5" y="834"/><ellipse cx="448.5" cy="850" fill="#EB937F" rx="11" ry="11" style="stroke:#181818;stroke-width:1;"/><path d="M447.3594,850.7969 L447.3594,853.2969 L451.6875,853.2969 L451.6875,852.375 Q451.6875,851.7656 451.9219,851.5 Q452.1719,851.2344 452.5469,851.2344 Q452.9219,851.2344 453.1563,851.5 Q453.3906,851.7656 453.3906,852.375 L453.3906,855 L445.3906,855 Q444.7656,855 444.5,854.7656 Q444.25,854.5313 444.25,854.1406 Q444.25,853.7656 444.5156,853.5313 Q444.7813,853.2969 445.3906,853.2969 L445.6563,853.2969 L445.6563,846.6406 L445.3906,846.6406 Q444.7656,846.6406 444.5,846.4063 Q444.25,846.1719 444.25,845.7813 Q444.25,845.4063 444.5,845.1719 Q444.7656,844.9375 445.3906,844.9375 L453.0156,844.9375 L453.0156,847.5313 Q453.0156,848.1406 452.7813,848.4063 Q452.5625,848.6563 452.1719,848.6563 Q451.7969,848.6563 451.5625,848.4063 Q451.3281,848.1406 451.3281,847.5313 L451.3281,846.6406 L447.3594,846.6406 L447.3594,849.0938 L448.8438,849.0938 Q448.8438,848.4375 448.9688,848.25 Q449.2344,847.8438 449.7031,847.8438 Q450.0781,847.8438 450.3125,848.1094 Q450.5469,848.3594 450.5469,848.9688 L450.5469,850.9375 Q450.5469,851.4844 450.4219,851.6719 Q450.1563,852.0625 449.7031,852.0625 Q449.2344,852.0625 448.9688,851.6563 Q448.8438,851.4688 448.8438,850.7969 L447.3594,850.7969 Z " fill="#000000"/><text fill="#000000" font-family="sans-serif" font-size="14" lengthAdjust="spacing" textLength="91.834" x="462.5" y="855.4995">RequestStatus</text><line style="stroke:#181818;stroke-width:0.5;" x1="434.5" x2="556.334" y1="866" y2="866"/><text fill="#000000" font-family="sans-serif" font-size="14" lengthAdjust="spacing" textLength="63.7861" x="439.5" y="884.0752">PENDING</text><text fill="#000000" font-family="sans-serif" font-size="14" lengthAdjust="spacing" textLength="76.2344" x="439.5" y="901.2266">ACCEPTED</text><text fill="#000000" font-family="sans-serif" font-size="14" lengthAdjust="spacing" textLength="73.8965" x="439.5" y="918.3779">REJECTED</text><line style="stroke:#181818;stroke-width:0.5;" x1="434.5" x2="556.334" y1="925.4541" y2="925.4541"/></g><!--class RegistrationRequest--><g class="entity" data-qualified-name="RegistrationRequest" data-source-line="22" id="ent0004"><rect fill="#F1F1F1" height="288.1191" rx="2.5" ry="2.5" style="stroke:#181818;stroke-width:0.5;" width="436.498" x="277.5" y="460"/><ellipse cx="428.0752" cy="476" fill="#ADD1B2" rx="11" ry="11" style="stroke:#181818;stroke-width:1;"/><path d="M430.8408,471.875 Q430.9971,471.6563 431.1846,471.5469 Q431.3721,471.4375 431.5908,471.4375 Q431.9658,471.4375 432.2002,471.7031 Q432.4346,471.9531 432.4346,472.5625 L432.4346,474.0156 Q432.4346,474.625 432.2002,474.8906 Q431.9658,475.1563 431.5908,475.1563 Q431.2471,475.1563 431.0439,474.9531 Q430.8408,474.7656 430.7314,474.25 Q430.6846,473.8906 430.4971,473.7031 Q430.1689,473.3281 429.5596,473.1094 Q428.9502,472.8906 428.3252,472.8906 Q427.5596,472.8906 426.9189,473.2188 Q426.2939,473.5469 425.7939,474.2969 Q425.3096,475.0469 425.3096,476.0781 L425.3096,477.1719 Q425.3096,478.4063 426.2002,479.2344 Q427.0908,480.0469 428.6846,480.0469 Q429.6221,480.0469 430.2783,479.7969 Q430.6689,479.6406 431.0908,479.2031 Q431.3564,478.9375 431.4971,478.8594 Q431.6533,478.7813 431.8564,478.7813 Q432.1846,478.7813 432.4346,479.0469 Q432.7002,479.2969 432.7002,479.6406 Q432.7002,479.9844 432.3564,480.3906 Q431.8564,480.9688 431.0596,481.2969 Q429.9814,481.75 428.6846,481.75 Q427.1689,481.75 425.9658,481.125 Q424.9814,480.625 424.2939,479.5625 Q423.6064,478.4844 423.6064,477.2031 L423.6064,476.0469 Q423.6064,474.7188 424.2158,473.5781 Q424.8408,472.4219 425.9346,471.8125 Q427.0283,471.1875 428.2627,471.1875 Q428.9971,471.1875 429.6377,471.3594 Q430.2939,471.5156 430.8408,471.875 Z " fill="#000000"/><text fill="#000000" font-family="sans-serif" font-size="14" lengthAdjust="spacing" textLength="126.8477" x="448.5752" y="481.4995">RegistrationRequest</text><line style="stroke:#181818;stroke-width:0.5;" x1="278.5" x2="712.998" y1="492" y2="492"/><text fill="#000000" font-family="sans-serif" font-size="14" lengthAdjust="spacing" textLength="155.6406" x="283.5" y="510.0752">-requestDate : LocalDate</text><text fill="#000000" font-family="sans-serif" font-size="14" lengthAdjust="spacing" textLength="87.9238" x="283.5" y="527.2266">-name : String</text><text fill="#000000" font-family="sans-serif" font-size="14" lengthAdjust="spacing" textLength="83.2549" x="283.5" y="544.3779">-taxId : String</text><text fill="#000000" font-family="sans-serif" font-size="14" lengthAdjust="spacing" textLength="86.3584" x="283.5" y="561.5293">-email : String</text><text fill="#000000" font-family="sans-serif" font-size="14" lengthAdjust="spacing" textLength="112.8203" x="283.5" y="578.6807">-password : String</text><text fill="#000000" font-family="sans-serif" font-size="14" lengthAdjust="spacing" textLength="227.2197" x="283.5" y="595.832">-nationalIdentityCardNumber : String</text><text fill="#000000" font-family="sans-serif" font-size="14" lengthAdjust="spacing" textLength="167.2754" x="283.5" y="612.9834">-pressCardNumber : String</text><text fill="#000000" font-family="sans-serif" font-size="14" lengthAdjust="spacing" textLength="164.9785" x="283.5" y="630.1348">-requestedPosition : String</text><text fill="#000000" font-family="sans-serif" font-size="14" lengthAdjust="spacing" textLength="175.0957" x="283.5" y="647.2861">-requestedInstitution : String</text><line style="stroke:#181818;stroke-width:0.5;" x1="278.5" x2="712.998" y1="654.3623" y2="654.3623"/><text fill="#000000" font-family="sans-serif" font-size="14" lengthAdjust="spacing" textLength="424.498" x="283.5" y="672.4375">+RegistrationRequest(name, taxId, email, password, requestedRole,</text><text fill="#000000" font-family="sans-serif" font-size="14" lengthAdjust="spacing" textLength="300.3574" x="291.2793" y="689.5889">nationalIdentityCardNumber, pressCardNumber,</text><text fill="#000000" font-family="sans-serif" font-size="14" lengthAdjust="spacing" textLength="246.709" x="291.2793" y="706.7402">requestedPosition, requestedInstitution)</text><text fill="#000000" font-family="sans-serif" font-size="14" lengthAdjust="spacing" textLength="91.8135" x="283.5" y="723.8916">-validateData()</text><text fill="#000000" font-family="sans-serif" font-size="14" lengthAdjust="spacing" textLength="169.627" x="283.5" y="741.043">-validateRoleSpecificData()</text></g><!--class Institution--><g class="entity" data-qualified-name="Institution" data-source-line="38" id="ent0005"><rect fill="#F1F1F1" height="82.3027" rx="2.5" ry="2.5" style="stroke:#181818;stroke-width:0.5;" width="99.9238" x="993.5" y="563"/><ellipse cx="1012.1" cy="579" fill="#ADD1B2" rx="11" ry="11" style="stroke:#181818;stroke-width:1;"/><path d="M1014.8656,574.875 Q1015.0219,574.6563 1015.2094,574.5469 Q1015.3969,574.4375 1015.6156,574.4375 Q1015.9906,574.4375 1016.225,574.7031 Q1016.4594,574.9531 1016.4594,575.5625 L1016.4594,577.0156 Q1016.4594,577.625 1016.225,577.8906 Q1015.9906,578.1563 1015.6156,578.1563 Q1015.2719,578.1563 1015.0688,577.9531 Q1014.8656,577.7656 1014.7563,577.25 Q1014.7094,576.8906 1014.5219,576.7031 Q1014.1938,576.3281 1013.5844,576.1094 Q1012.975,575.8906 1012.35,575.8906 Q1011.5844,575.8906 1010.9438,576.2188 Q1010.3188,576.5469 1009.8188,577.2969 Q1009.3344,578.0469 1009.3344,579.0781 L1009.3344,580.1719 Q1009.3344,581.4063 1010.225,582.2344 Q1011.1156,583.0469 1012.7094,583.0469 Q1013.6469,583.0469 1014.3031,582.7969 Q1014.6938,582.6406 1015.1156,582.2031 Q1015.3813,581.9375 1015.5219,581.8594 Q1015.6781,581.7813 1015.8813,581.7813 Q1016.2094,581.7813 1016.4594,582.0469 Q1016.725,582.2969 1016.725,582.6406 Q1016.725,582.9844 1016.3813,583.3906 Q1015.8813,583.9688 1015.0844,584.2969 Q1014.0063,584.75 1012.7094,584.75 Q1011.1938,584.75 1009.9906,584.125 Q1009.0063,583.625 1008.3188,582.5625 Q1007.6313,581.4844 1007.6313,580.2031 L1007.6313,579.0469 Q1007.6313,577.7188 1008.2406,576.5781 Q1008.8656,575.4219 1009.9594,574.8125 Q1011.0531,574.1875 1012.2875,574.1875 Q1013.0219,574.1875 1013.6625,574.3594 Q1014.3188,574.5156 1014.8656,574.875 Z " fill="#000000"/><text fill="#000000" font-family="sans-serif" font-size="14" lengthAdjust="spacing" textLength="59.9238" x="1026.9" y="584.4995">Institution</text><line style="stroke:#181818;stroke-width:0.5;" x1="994.5" x2="1092.4238" y1="595" y2="595"/><text fill="#000000" font-family="sans-serif" font-size="14" lengthAdjust="spacing" textLength="87.9238" x="999.5" y="613.0752">-name : String</text><text fill="#000000" font-family="sans-serif" font-size="14" lengthAdjust="spacing" textLength="83.2549" x="999.5" y="630.2266">-taxId : String</text><line style="stroke:#181818;stroke-width:0.5;" x1="994.5" x2="1092.4238" y1="637.3027" y2="637.3027"/></g><!--class RegistrationRequestRepository--><g class="entity" data-qualified-name="RegistrationRequestRepository" data-source-line="43" id="ent0006"><rect fill="#F1F1F1" height="133.7568" rx="2.5" ry="2.5" style="stroke:#181818;stroke-width:0.5;" width="475.4082" x="486" y="249"/><ellipse cx="622.5718" cy="265" fill="#ADD1B2" rx="11" ry="11" style="stroke:#181818;stroke-width:1;"/><path d="M625.3374,260.875 Q625.4937,260.6563 625.6812,260.5469 Q625.8687,260.4375 626.0874,260.4375 Q626.4624,260.4375 626.6968,260.7031 Q626.9312,260.9531 626.9312,261.5625 L626.9312,263.0156 Q626.9312,263.625 626.6968,263.8906 Q626.4624,264.1563 626.0874,264.1563 Q625.7437,264.1563 625.5405,263.9531 Q625.3374,263.7656 625.228,263.25 Q625.1812,262.8906 624.9937,262.7031 Q624.6655,262.3281 624.0562,262.1094 Q623.4468,261.8906 622.8218,261.8906 Q622.0562,261.8906 621.4155,262.2188 Q620.7905,262.5469 620.2905,263.2969 Q619.8062,264.0469 619.8062,265.0781 L619.8062,266.1719 Q619.8062,267.4063 620.6968,268.2344 Q621.5874,269.0469 623.1812,269.0469 Q624.1187,269.0469 624.7749,268.7969 Q625.1655,268.6406 625.5874,268.2031 Q625.853,267.9375 625.9937,267.8594 Q626.1499,267.7813 626.353,267.7813 Q626.6812,267.7813 626.9312,268.0469 Q627.1968,268.2969 627.1968,268.6406 Q627.1968,268.9844 626.853,269.3906 Q626.353,269.9688 625.5562,270.2969 Q624.478,270.75 623.1812,270.75 Q621.6655,270.75 620.4624,270.125 Q619.478,269.625 618.7905,268.5625 Q618.103,267.4844 618.103,266.2031 L618.103,265.0469 Q618.103,263.7188 618.7124,262.5781 Q619.3374,261.4219 620.4312,260.8125 Q621.5249,260.1875 622.7593,260.1875 Q623.4937,260.1875 624.1343,260.3594 Q624.7905,260.5156 625.3374,260.875 Z " fill="#000000"/><text fill="#000000" font-family="sans-serif" font-size="14" lengthAdjust="spacing" textLength="193.7646" x="643.0718" y="270.4995">RegistrationRequestRepository</text><line style="stroke:#181818;stroke-width:0.5;" x1="487" x2="960.4082" y1="281" y2="281"/><line style="stroke:#181818;stroke-width:0.5;" x1="487" x2="960.4082" y1="289" y2="289"/><text fill="#000000" font-family="sans-serif" font-size="14" lengthAdjust="spacing" textLength="463.4082" x="492" y="307.0752">+createRegistrationRequest(name, taxId, email, password, requestedRole,</text><text fill="#000000" font-family="sans-serif" font-size="14" lengthAdjust="spacing" textLength="300.3574" x="499.7793" y="324.2266">nationalIdentityCardNumber, pressCardNumber,</text><text fill="#000000" font-family="sans-serif" font-size="14" lengthAdjust="spacing" textLength="246.709" x="499.7793" y="341.3779">requestedPosition, requestedInstitution)</text><text fill="#000000" font-family="sans-serif" font-size="14" lengthAdjust="spacing" textLength="285.5918" x="492" y="358.5293">-addRegistrationRequest(registrationRequest)</text><text fill="#000000" font-family="sans-serif" font-size="14" lengthAdjust="spacing" textLength="310.4883" x="492" y="375.6807">-validateRegistrationRequest(registrationRequest)</text></g><!--class InstitutionRepository--><g class="entity" data-qualified-name="InstitutionRepository" data-source-line="49" id="ent0007"><rect fill="#F1F1F1" height="65.1514" rx="2.5" ry="2.5" style="stroke:#181818;stroke-width:0.5;" width="158.8408" x="996" y="283.5"/><ellipse cx="1011" cy="299.5" fill="#ADD1B2" rx="11" ry="11" style="stroke:#181818;stroke-width:1;"/><path d="M1013.7656,295.375 Q1013.9219,295.1563 1014.1094,295.0469 Q1014.2969,294.9375 1014.5156,294.9375 Q1014.8906,294.9375 1015.125,295.2031 Q1015.3594,295.4531 1015.3594,296.0625 L1015.3594,297.5156 Q1015.3594,298.125 1015.125,298.3906 Q1014.8906,298.6563 1014.5156,298.6563 Q1014.1719,298.6563 1013.9688,298.4531 Q1013.7656,298.2656 1013.6563,297.75 Q1013.6094,297.3906 1013.4219,297.2031 Q1013.0938,296.8281 1012.4844,296.6094 Q1011.875,296.3906 1011.25,296.3906 Q1010.4844,296.3906 1009.8438,296.7188 Q1009.2188,297.0469 1008.7188,297.7969 Q1008.2344,298.5469 1008.2344,299.5781 L1008.2344,300.6719 Q1008.2344,301.9063 1009.125,302.7344 Q1010.0156,303.5469 1011.6094,303.5469 Q1012.5469,303.5469 1013.2031,303.2969 Q1013.5938,303.1406 1014.0156,302.7031 Q1014.2813,302.4375 1014.4219,302.3594 Q1014.5781,302.2813 1014.7813,302.2813 Q1015.1094,302.2813 1015.3594,302.5469 Q1015.625,302.7969 1015.625,303.1406 Q1015.625,303.4844 1015.2813,303.8906 Q1014.7813,304.4688 1013.9844,304.7969 Q1012.9063,305.25 1011.6094,305.25 Q1010.0938,305.25 1008.8906,304.625 Q1007.9063,304.125 1007.2188,303.0625 Q1006.5313,301.9844 1006.5313,300.7031 L1006.5313,299.5469 Q1006.5313,298.2188 1007.1406,297.0781 Q1007.7656,295.9219 1008.8594,295.3125 Q1009.9531,294.6875 1011.1875,294.6875 Q1011.9219,294.6875 1012.5625,294.8594 Q1013.2188,295.0156 1013.7656,295.375 Z " fill="#000000"/><text fill="#000000" font-family="sans-serif" font-size="14" lengthAdjust="spacing" textLength="126.8408" x="1025" y="304.9995">InstitutionRepository</text><line style="stroke:#181818;stroke-width:0.5;" x1="997" x2="1153.8408" y1="315.5" y2="315.5"/><line style="stroke:#181818;stroke-width:0.5;" x1="997" x2="1153.8408" y1="323.5" y2="323.5"/><text fill="#000000" font-family="sans-serif" font-size="14" lengthAdjust="spacing" textLength="103.8857" x="1002" y="341.5752">+getInstitutions()</text></g><!--class Repositories--><g class="entity" data-qualified-name="Repositories" data-source-line="53" id="ent0008"><rect fill="#F1F1F1" height="116.6055" rx="2.5" ry="2.5" style="stroke:#181818;stroke-width:0.5;" width="242.7266" x="933" y="38"/><ellipse cx="1011.2065" cy="54" fill="#ADD1B2" rx="11" ry="11" style="stroke:#181818;stroke-width:1;"/><path d="M1013.9722,49.875 Q1014.1284,49.6563 1014.3159,49.5469 Q1014.5034,49.4375 1014.7222,49.4375 Q1015.0972,49.4375 1015.3315,49.7031 Q1015.5659,49.9531 1015.5659,50.5625 L1015.5659,52.0156 Q1015.5659,52.625 1015.3315,52.8906 Q1015.0972,53.1563 1014.7222,53.1563 Q1014.3784,53.1563 1014.1753,52.9531 Q1013.9722,52.7656 1013.8628,52.25 Q1013.8159,51.8906 1013.6284,51.7031 Q1013.3003,51.3281 1012.6909,51.1094 Q1012.0815,50.8906 1011.4565,50.8906 Q1010.6909,50.8906 1010.0503,51.2188 Q1009.4253,51.5469 1008.9253,52.2969 Q1008.4409,53.0469 1008.4409,54.0781 L1008.4409,55.1719 Q1008.4409,56.4063 1009.3315,57.2344 Q1010.2222,58.0469 1011.8159,58.0469 Q1012.7534,58.0469 1013.4097,57.7969 Q1013.8003,57.6406 1014.2222,57.2031 Q1014.4878,56.9375 1014.6284,56.8594 Q1014.7847,56.7813 1014.9878,56.7813 Q1015.3159,56.7813 1015.5659,57.0469 Q1015.8315,57.2969 1015.8315,57.6406 Q1015.8315,57.9844 1015.4878,58.3906 Q1014.9878,58.9688 1014.1909,59.2969 Q1013.1128,59.75 1011.8159,59.75 Q1010.3003,59.75 1009.0972,59.125 Q1008.1128,58.625 1007.4253,57.5625 Q1006.7378,56.4844 1006.7378,55.2031 L1006.7378,54.0469 Q1006.7378,52.7188 1007.3472,51.5781 Q1007.9722,50.4219 1009.0659,49.8125 Q1010.1597,49.1875 1011.394,49.1875 Q1012.1284,49.1875 1012.769,49.3594 Q1013.4253,49.5156 1013.9722,49.875 Z " fill="#000000"/><text fill="#000000" font-family="sans-serif" font-size="14" lengthAdjust="spacing" textLength="77.8135" x="1031.7065" y="59.4995">Repositories</text><line style="stroke:#181818;stroke-width:0.5;" x1="934" x2="1174.7266" y1="70" y2="70"/><line style="stroke:#181818;stroke-width:0.5;" x1="934" x2="1174.7266" y1="78" y2="78"/><text fill="#000000" font-family="sans-serif" font-size="14" lengthAdjust="spacing" textLength="91.7998" x="939" y="96.0752">-Repositories()</text><text fill="#000000" font-family="sans-serif" font-size="14" lengthAdjust="spacing" text-decoration="underline" textLength="89.8857" x="939" y="113.2266">+getInstance()</text><text fill="#000000" font-family="sans-serif" font-size="14" lengthAdjust="spacing" textLength="230.7266" x="939" y="130.3779">+getRegistrationRequestRepository()</text><text fill="#000000" font-family="sans-serif" font-size="14" lengthAdjust="spacing" textLength="163.8027" x="939" y="147.5293">+getInstitutionRepository()</text></g><!--class RequestRegistrationController--><g class="entity" data-qualified-name="RequestRegistrationController" data-source-line="60" id="ent0009"><rect fill="#F1F1F1" height="150.9082" rx="2.5" ry="2.5" style="stroke:#181818;stroke-width:0.5;" width="475.4082" x="215" y="21"/><ellipse cx="354.6855" cy="37" fill="#ADD1B2" rx="11" ry="11" style="stroke:#181818;stroke-width:1;"/><path d="M357.4512,32.875 Q357.6074,32.6563 357.7949,32.5469 Q357.9824,32.4375 358.2012,32.4375 Q358.5762,32.4375 358.8105,32.7031 Q359.0449,32.9531 359.0449,33.5625 L359.0449,35.0156 Q359.0449,35.625 358.8105,35.8906 Q358.5762,36.1563 358.2012,36.1563 Q357.8574,36.1563 357.6543,35.9531 Q357.4512,35.7656 357.3418,35.25 Q357.2949,34.8906 357.1074,34.7031 Q356.7793,34.3281 356.1699,34.1094 Q355.5605,33.8906 354.9355,33.8906 Q354.1699,33.8906 353.5293,34.2188 Q352.9043,34.5469 352.4043,35.2969 Q351.9199,36.0469 351.9199,37.0781 L351.9199,38.1719 Q351.9199,39.4063 352.8105,40.2344 Q353.7012,41.0469 355.2949,41.0469 Q356.2324,41.0469 356.8887,40.7969 Q357.2793,40.6406 357.7012,40.2031 Q357.9668,39.9375 358.1074,39.8594 Q358.2637,39.7813 358.4668,39.7813 Q358.7949,39.7813 359.0449,40.0469 Q359.3105,40.2969 359.3105,40.6406 Q359.3105,40.9844 358.9668,41.3906 Q358.4668,41.9688 357.6699,42.2969 Q356.5918,42.75 355.2949,42.75 Q353.7793,42.75 352.5762,42.125 Q351.5918,41.625 350.9043,40.5625 Q350.2168,39.4844 350.2168,38.2031 L350.2168,37.0469 Q350.2168,35.7188 350.8262,34.5781 Q351.4512,33.4219 352.5449,32.8125 Q353.6387,32.1875 354.873,32.1875 Q355.6074,32.1875 356.248,32.3594 Q356.9043,32.5156 357.4512,32.875 Z " fill="#000000"/><text fill="#000000" font-family="sans-serif" font-size="14" lengthAdjust="spacing" textLength="187.5371" x="375.1855" y="42.4995">RequestRegistrationController</text><line style="stroke:#181818;stroke-width:0.5;" x1="216" x2="689.4082" y1="53" y2="53"/><line style="stroke:#181818;stroke-width:0.5;" x1="216" x2="689.4082" y1="61" y2="61"/><text fill="#000000" font-family="sans-serif" font-size="14" lengthAdjust="spacing" textLength="205.0371" x="221" y="79.0752">+RequestRegistrationController()</text><text fill="#000000" font-family="sans-serif" font-size="14" lengthAdjust="spacing" textLength="140.4717" x="221" y="96.2266">+getRequestedRoles()</text><text fill="#000000" font-family="sans-serif" font-size="14" lengthAdjust="spacing" textLength="103.8857" x="221" y="113.3779">+getInstitutions()</text><text fill="#000000" font-family="sans-serif" font-size="14" lengthAdjust="spacing" textLength="463.4082" x="221" y="130.5293">+createRegistrationRequest(name, taxId, email, password, requestedRole,</text><text fill="#000000" font-family="sans-serif" font-size="14" lengthAdjust="spacing" textLength="300.3574" x="228.7793" y="147.6807">nationalIdentityCardNumber, pressCardNumber,</text><text fill="#000000" font-family="sans-serif" font-size="14" lengthAdjust="spacing" textLength="246.709" x="228.7793" y="164.832">requestedPosition, requestedInstitution)</text></g><g class="entity" data-qualified-name="GMN10" data-source-line="68" id="ent0011"><path d="M725,75.5 L725,117.3525 L897.7471,117.3525 L897.7471,85.5 L887.7471,75.5 L725,75.5" fill="#FEFFDD" style="stroke:#181818;stroke-width:0.5;"/><path d="M887.7471,75.5 L887.7471,85.5 L897.7471,85.5 L887.7471,75.5" fill="#FEFFDD" style="stroke:#181818;stroke-width:1;"/><text fill="#000000" font-family="sans-serif" font-size="13" lengthAdjust="spacing" textLength="151.7471" x="731" y="93.5698">requestedRole is retrieved</text><text fill="#000000" font-family="sans-serif" font-size="13" lengthAdjust="spacing" textLength="110.5571" x="731" y="109.4961">from selected data.</text></g><g class="entity" data-qualified-name="GMN13" data-source-line="73" id="ent0014"><path d="M1129,583 L1129,624.8525 L1316.2134,624.8525 L1316.2134,593 L1306.2134,583 L1129,583" fill="#FEFFDD" style="stroke:#181818;stroke-width:0.5;"/><path d="M1306.2134,583 L1306.2134,593 L1316.2134,593 L1306.2134,583" fill="#FEFFDD" style="stroke:#181818;stroke-width:1;"/><text fill="#000000" font-family="sans-serif" font-size="13" lengthAdjust="spacing" textLength="166.2134" x="1135" y="601.0698">Used only when the selected</text><text fill="#000000" font-family="sans-serif" font-size="13" lengthAdjust="spacing" textLength="160.3799" x="1135" y="616.9961">role is POLITICAL_AGENT.</text></g><g class="entity" data-qualified-name="GMN16" data-source-line="78" id="ent0017"><path d="M748.5,567 L748.5,640.7051 A0,0 0 0 0 748.5,640.7051 L926.2935,640.7051 A0,0 0 0 0 926.2935,640.7051 L926.2935,577 L916.2935,567 L827.03,567 L749.94,383.33 L819.03,567 L748.5,567 A0,0 0 0 0 748.5,567" fill="#FEFFDD" style="stroke:#181818;stroke-width:0.5;"/><path d="M916.2935,567 L916.2935,577 L926.2935,577 L916.2935,567" fill="#FEFFDD" style="stroke:#181818;stroke-width:0.5;"/><text fill="#000000" font-family="sans-serif" font-size="13" lengthAdjust="spacing" textLength="156.0762" x="754.5" y="585.0698">The request is created with</text><text fill="#000000" font-family="sans-serif" font-size="13" lengthAdjust="spacing" textLength="101.1372" x="754.5" y="600.9961">PENDING status.</text><text fill="#000000" font-family="sans-serif" font-size="13" lengthAdjust="spacing" textLength="156.7935" x="754.5" y="616.9224">No User account is created</text><text fill="#000000" font-family="sans-serif" font-size="13" lengthAdjust="spacing" textLength="49.8608" x="754.5" y="632.8486">in US01.</text></g><!--class RequestRegistrationUI--><g class="entity" data-qualified-name="RequestRegistrationUI" data-source-line="84" id="ent0019"><rect fill="#F1F1F1" height="48" rx="2.5" ry="2.5" style="stroke:#181818;stroke-width:0.5;" width="172.8477" x="7" y="72.5"/><ellipse cx="22" cy="88.5" fill="#ADD1B2" rx="11" ry="11" style="stroke:#181818;stroke-width:1;"/><path d="M24.7656,84.375 Q24.9219,84.1563 25.1094,84.0469 Q25.2969,83.9375 25.5156,83.9375 Q25.8906,83.9375 26.125,84.2031 Q26.3594,84.4531 26.3594,85.0625 L26.3594,86.5156 Q26.3594,87.125 26.125,87.3906 Q25.8906,87.6563 25.5156,87.6563 Q25.1719,87.6563 24.9688,87.4531 Q24.7656,87.2656 24.6563,86.75 Q24.6094,86.3906 24.4219,86.2031 Q24.0938,85.8281 23.4844,85.6094 Q22.875,85.3906 22.25,85.3906 Q21.4844,85.3906 20.8438,85.7188 Q20.2188,86.0469 19.7188,86.7969 Q19.2344,87.5469 19.2344,88.5781 L19.2344,89.6719 Q19.2344,90.9063 20.125,91.7344 Q21.0156,92.5469 22.6094,92.5469 Q23.5469,92.5469 24.2031,92.2969 Q24.5938,92.1406 25.0156,91.7031 Q25.2813,91.4375 25.4219,91.3594 Q25.5781,91.2813 25.7813,91.2813 Q26.1094,91.2813 26.3594,91.5469 Q26.625,91.7969 26.625,92.1406 Q26.625,92.4844 26.2813,92.8906 Q25.7813,93.4688 24.9844,93.7969 Q23.9063,94.25 22.6094,94.25 Q21.0938,94.25 19.8906,93.625 Q18.9063,93.125 18.2188,92.0625 Q17.5313,90.9844 17.5313,89.7031 L17.5313,88.5469 Q17.5313,87.2188 18.1406,86.0781 Q18.7656,84.9219 19.8594,84.3125 Q20.9531,83.6875 22.1875,83.6875 Q22.9219,83.6875 23.5625,83.8594 Q24.2188,84.0156 24.7656,84.375 Z " fill="#000000"/><text fill="#000000" font-family="sans-serif" font-size="14" lengthAdjust="spacing" textLength="140.8477" x="36" y="93.9995">RequestRegistrationUI</text><line style="stroke:#181818;stroke-width:0.5;" x1="8" x2="178.8477" y1="104.5" y2="104.5"/><line style="stroke:#181818;stroke-width:0.5;" x1="8" x2="178.8477" y1="112.5" y2="112.5"/></g><!--link RequestRegistrationController to GMN10--><g class="link" data-entity-1="ent0009" data-entity-2="ent0011" data-link-type="association" data-source-line="68" id="lnk12"><path d="M690.14,96.5 C691.24,96.5 691.83,96.5 691.83,96.5 C691.83,96.5 706.13,96.5 724.85,96.5" fill="none" id="RequestRegistrationController-GMN10" style="stroke:#181818;stroke-width:1;stroke-dasharray:7,7;"/></g><!--link InstitutionRepository to GMN13--><g class="link" data-entity-1="ent0007" data-entity-2="ent0014" data-link-type="association" data-source-line="73" id="lnk15"><path d="M1094.98,348.7 C1112.17,376.66 1134.5,413 1134.5,413 C1134.5,413 1190.38,533.65 1213.08,582.67" fill="none" id="InstitutionRepository-GMN13" style="stroke:#181818;stroke-width:1;stroke-dasharray:7,7;"/></g><!--link RequestRegistrationUI to RequestRegistrationController--><g class="link" data-entity-1="ent0019" data-entity-2="ent0009" data-link-type="dependency" data-source-line="87" id="lnk20"><path codeLine="87" d="M180.15,96.5 C198.87,96.5 213.17,96.5 213.17,96.5 C213.17,96.5 207.76,96.5 208.86,96.5" fill="none" id="RequestRegistrationUI-to-RequestRegistrationController" style="stroke:#181818;stroke-width:1;stroke-dasharray:7,7;"/><polygon fill="#181818" points="214.86,96.5,205.86,92.5,209.86,96.5,205.86,100.5,214.86,96.5" style="stroke:#181818;stroke-width:1;"/></g><!--link RequestRegistrationController to Repositories--><g class="link" data-entity-1="ent0009" data-entity-2="ent0008" data-link-type="dependency" data-source-line="89" id="lnk21"><path codeLine="89" d="M680,20.94 C706.89,12.02 725,6 725,6 C725,6 898,6 898,6 C898,6 917.8959,17.5064 947.9859,34.9064" fill="none" id="RequestRegistrationController-to-Repositories" style="stroke:#181818;stroke-width:1;stroke-dasharray:7,7;"/><polygon fill="#181818" points="953.18,37.91,947.3912,29.9419,948.8516,35.407,943.3865,36.8674,953.18,37.91" style="stroke:#181818;stroke-width:1;"/></g><!--link RequestRegistrationController to RegistrationRequestRepository--><g class="link" data-entity-1="ent0009" data-entity-2="ent0006" data-link-type="dependency" data-source-line="90" id="lnk22"><path codeLine="90" d="M545.38,172.05 C576.49,197.01 606.2507,220.8945 636.4907,245.1645" fill="none" id="RequestRegistrationController-to-RegistrationRequestRepository" style="stroke:#181818;stroke-width:1;stroke-dasharray:7,7;"/><polygon fill="#181818" points="641.17,248.92,636.6547,240.1672,637.2706,245.7904,631.6473,246.4063,641.17,248.92" style="stroke:#181818;stroke-width:1;"/></g><!--link RequestRegistrationController to InstitutionRepository--><g class="link" data-entity-1="ent0009" data-entity-2="ent0007" data-link-type="dependency" data-source-line="91" id="lnk23"><path codeLine="91" d="M690.05,170.02 C775.17,196 850.5,219 850.5,219 C850.5,219 978.5,249 978.5,249 C978.5,249 999.1292,263.0351 1024.0292,279.9751" fill="none" id="RequestRegistrationController-to-InstitutionRepository" style="stroke:#181818;stroke-width:1;stroke-dasharray:7,7;"/><polygon fill="#181818" points="1028.99,283.35,1023.7987,274.9804,1024.856,280.5375,1019.2988,281.5948,1028.99,283.35" style="stroke:#181818;stroke-width:1;"/></g><!--link RequestRegistrationController to RegistrationRequest--><g class="link" data-entity-1="ent0009" data-entity-2="ent0004" data-link-type="dependency" data-source-line="92" id="lnk24"><path codeLine="92" d="M456.68,172.14 C461.42,256.73 468.5,383 468.5,383 C468.5,383 472.0601,411.9746 477.2101,453.9946" fill="none" id="RequestRegistrationController-to-RegistrationRequest" style="stroke:#181818;stroke-width:1;stroke-dasharray:7,7;"/><polygon fill="#181818" points="477.94,459.95,480.8154,450.5302,477.3317,454.9871,472.8749,451.5034,477.94,459.95" style="stroke:#181818;stroke-width:1;"/></g><!--link RequestRegistrationController to RequestedRole--><g class="link" data-entity-1="ent0009" data-entity-2="ent0002" data-link-type="dependency" data-source-line="93" id="lnk25"><path codeLine="93" d="M412.74,172.17 C356.25,278.29 259.5,460 259.5,460 C259.5,460 257.1965,702.9303 256.1065,818.6403" fill="none" id="RequestRegistrationController-to-RequestedRole" style="stroke:#181818;stroke-width:1;stroke-dasharray:7,7;"/><polygon fill="#181818" points="256.05,824.64,260.1346,815.6781,256.0971,819.6402,252.135,815.6027,256.05,824.64" style="stroke:#181818;stroke-width:1;"/></g><!--link Repositories to Repositories--><g class="link" data-entity-1="ent0008" data-entity-2="ent0008" data-link-type="dependency" data-source-line="95" id="lnk26"><path codeLine="95" d="M1176.22,76.59 C1196.78,79.34 1211,85.98 1211,96.5 C1211,107.02 1202.727,112.8646 1182.167,115.6146" fill="none" id="Repositories-to-Repositories" style="stroke:#181818;stroke-width:1;"/><polygon fill="#181818" points="1176.22,116.41,1185.6709,119.1815,1181.1759,115.7471,1184.6103,111.2521,1176.22,116.41" style="stroke:#181818;stroke-width:1;"/><text fill="#000000" font-family="sans-serif" font-size="13" lengthAdjust="spacing" textLength="48.4199" x="1217" y="102.0698">instance</text><text fill="#000000" font-family="sans-serif" font-size="13" lengthAdjust="spacing" textLength="7.23" x="1183.8659" y="115.2763">1</text></g><!--link Repositories to RegistrationRequestRepository--><g class="link" data-entity-1="ent0008" data-entity-2="ent0006" data-link-type="dependency" data-source-line="96" id="lnk27"><path codeLine="96" d="M958.59,155.1 C918.26,179.32 880.5,202 880.5,202 C880.5,202 854.5098,220.705 820.1498,245.435" fill="none" id="Repositories-to-RegistrationRequestRepository" style="stroke:#181818;stroke-width:1;"/><polygon fill="#181818" points="815.28,248.94,824.9214,246.9291,819.3382,246.0192,820.2481,240.436,815.28,248.94" style="stroke:#181818;stroke-width:1;"/><text fill="#000000" font-family="sans-serif" font-size="13" lengthAdjust="spacing" textLength="174.8652" x="881.5" y="216.0698">registrationRequestRepository</text><text fill="#000000" font-family="sans-serif" font-size="13" lengthAdjust="spacing" textLength="7.23" x="819.0283" y="237.9941">1</text></g><!--link Repositories to InstitutionRepository--><g class="link" data-entity-1="ent0008" data-entity-2="ent0007" data-link-type="dependency" data-source-line="97" id="lnk28"><path codeLine="97" d="M1060.07,155.21 C1064.03,196.24 1068.6342,243.8277 1071.8642,277.3277" fill="none" id="Repositories-to-InstitutionRepository" style="stroke:#181818;stroke-width:1;"/><polygon fill="#181818" points="1072.44,283.3,1075.5578,273.9577,1071.9601,278.3231,1067.5947,274.7254,1072.44,283.3" style="stroke:#181818;stroke-width:1;"/><text fill="#000000" font-family="sans-serif" font-size="13" lengthAdjust="spacing" textLength="117.0571" x="1066.5" y="216.0698">institutionRepository</text><text fill="#000000" font-family="sans-serif" font-size="13" lengthAdjust="spacing" textLength="7.23" x="1064.0476" y="272.6608">1</text></g><!--link RegistrationRequestRepository to RegistrationRequest--><g class="link" data-entity-1="ent0006" data-entity-2="ent0004" data-link-type="dependency" data-source-line="99" id="lnk29"><path codeLine="99" d="M662.86,383.15 C647.62,399.78 635.5,413 635.5,413 C635.5,413 624.3386,428.1393 604.4486,455.1393" fill="none" id="RegistrationRequestRepository-to-RegistrationRequest" style="stroke:#181818;stroke-width:1;"/><polygon fill="#181818" points="600.89,459.97,609.4485,455.0963,603.8555,455.9444,603.0075,450.3515,600.89,459.97" style="stroke:#181818;stroke-width:1;"/><text fill="#000000" font-family="sans-serif" font-size="13" lengthAdjust="spacing" textLength="119.228" x="636.5" y="427.0698">registrationRequests</text><text fill="#000000" font-family="sans-serif" font-size="13" lengthAdjust="spacing" textLength="5.0591" x="601.8256" y="449.3028">*</text></g><!--link InstitutionRepository to Institution--><g class="link" data-entity-1="ent0007" data-entity-2="ent0005" data-link-type="dependency" data-source-line="101" id="lnk30"><path codeLine="101" d="M1071.95,348.7 C1066.1,401.06 1055.0769,499.5472 1048.6569,556.9472" fill="none" id="InstitutionRepository-to-Institution" style="stroke:#181818;stroke-width:1;"/><polygon fill="#181818" points="1047.99,562.91,1052.9656,554.4104,1048.5458,557.941,1045.0152,553.5212,1047.99,562.91" style="stroke:#181818;stroke-width:1;"/><text fill="#000000" font-family="sans-serif" font-size="13" lengthAdjust="spacing" textLength="61.4199" x="1064.5" y="427.0698">institutions</text><text fill="#000000" font-family="sans-serif" font-size="13" lengthAdjust="spacing" textLength="5.0591" x="1043.3694" y="552.0785">*</text></g><!--link RegistrationRequest to RequestedRole--><g class="link" data-entity-1="ent0004" data-entity-2="ent0002" data-link-type="dependency" data-source-line="103" id="lnk31"><path codeLine="103" d="M371.63,748.22 C348.14,775.39 328.7644,797.7914 309.2744,820.3314" fill="none" id="RegistrationRequest-to-RequestedRole" style="stroke:#181818;stroke-width:1;"/><polygon fill="#181818" points="305.35,824.87,314.2624,820.6784,308.6204,821.0878,308.2109,815.4458,305.35,824.87" style="stroke:#181818;stroke-width:1;"/><text fill="#000000" font-family="sans-serif" font-size="13" lengthAdjust="spacing" textLength="84.5571" x="341.5" y="792.0698">requestedRole</text><text fill="#000000" font-family="sans-serif" font-size="13" lengthAdjust="spacing" textLength="7.23" x="304.5701" y="814.1423">1</text></g><!--link RegistrationRequest to RequestStatus--><g class="link" data-entity-1="ent0004" data-entity-2="ent0003" data-link-type="dependency" data-source-line="104" id="lnk32"><path codeLine="104" d="M495.5,748.22 C495.5,779.1 495.5,803.68 495.5,827.84" fill="none" id="RegistrationRequest-to-RequestStatus" style="stroke:#181818;stroke-width:1;"/><polygon fill="#181818" points="495.5,833.84,499.5,824.84,495.5,828.84,491.5,824.84,495.5,833.84" style="stroke:#181818;stroke-width:1;"/><text fill="#000000" font-family="sans-serif" font-size="13" lengthAdjust="spacing" textLength="34.6836" x="496.5" y="792.0698">status</text><text fill="#000000" font-family="sans-serif" font-size="13" lengthAdjust="spacing" textLength="7.23" x="487.9944" y="823.1933">1</text></g><?plantuml-src rLPDRwCm4BtpAwnUsjtIghtcK2bBKPSgeLL8BgkLAXScO1LirZRDPgF-zng749Cu9DhJRavuvitCcm-FSoxU22qnnmKg66Lnnba1IF8AdAscnF4RJY6IonmGXrXYckOcG6GuOGj2KpJ7kJ0rEQ4WboMWakNB-k2SMvICI-OOLd6EXHXAoSbh9I686Ot87q0tZWEqAj04VbKW92GJfWYj7AH-pq-ZO1fumz7ByC4FfrhcASaFFzJVZq-pIJWS1T5QvK-_1rxquZsDny5qwlilOt_ypPyu7zqGaSIo4fiGVdWVX0_wU-Xv_lFKlzU7YV_eU_L1MMlgoZmbGd8i2QEDgyR9bIgWFjzZ2MY0HYp6UVtTQ2akQd6aSgTf8vFuTv3i2g709DyLbYhuWl4zCDLCS1uaG2MHIm_p9AoAL-1x7ZW8SLZDDwL_PeBKFWy20YfKfAgBqQ1BMtakwiJTTQhkEZctJSVTkgrRxlwag2SbTpS9ZTzZxbgvVcdoUCSvILHRL6lmnQwm9X6L49CvYHj0stepxzNfJUqRdGcKDMV6but7InHpg7dy-tN4IM9ZoVTbUqK-rSnMUal9Kf06G9WzQz44HDiqKzXCm2LQ2RKHIFonyOPf3ArIoNgxPmAjNBkS6kkjGuzHoLcUgskvQczI3wfBp6YyEC1aA_yFvajLYZArGpb9CudOlByMEgyEEqI44gZR1--GQFLSFNv8GAvUE4YGca5yhLw31DLXcc2lJ4e5Kj6i3THkPa9PCvelqI83YcG6hTCrYoRupfFL4wjtghJFQGQRx6hNw_ObQ45aPhvTIEW7xLhBGbPJvGZ7CQkeQQVLXA9PT7DhqZeucRD0JQHgY5rrVNUaDqx_i6lxxMKyXjRmle8TjxStzw_YdcHbZ6LT36CRNTsXizkpxeOQgDwiLyyEjWNtFI43n8zKn-BIlbhNHFOBvVGpq4w_MddQsGd7iHFOUEh-sJ182IiNerBcGXXq5yGfbiqVn45piPnF?></g></svg>