<svg xmlns="http://www.w3.org/2000/svg" xmlns:xlink="http://www.w3.org/1999/xlink" contentStyleType="text/css" data-diagram-type="SEQUENCE" height="423px" preserveAspectRatio="none" style="width:351px;height:423px;background:#FFFFFF;" version="1.1" viewBox="0 0 351 423" width="351px" zoomAndPan="magnify"><defs/><g><g><title>Administrator</title><rect fill="#FFFFFF" height="231.4102" style="stroke:#181818;stroke-width:1;" width="10" x="44.2344" y="92.1514"/></g><g><title>.System</title><rect fill="#FFFFFF" height="29.9263" style="stroke:#181818;stroke-width:1;" width="10" x="307.7432" y="114.0776"/></g><g><title>.System</title><rect fill="#FFFFFF" height="29.9263" style="stroke:#181818;stroke-width:1;" width="10" x="307.7432" y="173.9302"/></g><g><title>.System</title><rect fill="#FFFFFF" height="29.9263" style="stroke:#181818;stroke-width:1;" width="10" x="307.7432" y="233.7827"/></g><g><title>.System</title><rect fill="#FFFFFF" height="29.9263" style="stroke:#181818;stroke-width:1;" width="10" x="307.7432" y="293.6353"/></g><g><title>Administrator</title><rect fill="#000000" fill-opacity="0.00000" height="259.4102" width="8" x="45.2344" y="82.1514"/><line style="stroke:#181818;stroke-width:0.5;stroke-dasharray:5,5;" x1="49" x2="49" y1="82.1514" y2="341.5615"/></g><g><title>.System</title><rect fill="#000000" fill-opacity="0.00000" height="259.4102" width="8" x="308.7432" y="82.1514"/><line style="stroke:#181818;stroke-width:0.5;stroke-dasharray:5,5;" x1="312.4604" x2="312.4604" y1="82.1514" y2="341.5615"/></g><g class="participant participant-head" data-participant="Admin"><text fill="#000000" font-family="sans-serif" font-size="14" lengthAdjust="spacing" textLength="82.4688" x="5" y="79.0752">Administrator</text><ellipse cx="49.2344" cy="13.5" fill="#E3E3E3" rx="8" ry="8" style="stroke:#181818;stroke-width:0.5;"/><path d="M49.2344,21.5 L49.2344,48.5 M36.2344,29.5 L62.2344,29.5 M49.2344,48.5 L36.2344,63.5 M49.2344,48.5 L62.2344,63.5" fill="none" style="stroke:#181818;stroke-width:0.5;"/></g><g class="participant participant-tail" data-participant="Admin"><text fill="#000000" font-family="sans-serif" font-size="14" lengthAdjust="spacing" textLength="82.4688" x="5" y="354.6367">Administrator</text><ellipse cx="49.2344" cy="366.2129" fill="#E3E3E3" rx="8" ry="8" style="stroke:#181818;stroke-width:0.5;"/><path d="M49.2344,374.2129 L49.2344,401.2129 M36.2344,382.2129 L62.2344,382.2129 M49.2344,401.2129 L36.2344,416.2129 M49.2344,401.2129 L62.2344,416.2129" fill="none" style="stroke:#181818;stroke-width:0.5;"/></g><g class="participant participant-head" data-participant="System"><rect fill="#E3E3E3" height="31.1514" rx="2.5" ry="2.5" style="stroke:#181818;stroke-width:0.5;" width="64.5654" x="280.4604" y="50"/><text fill="#000000" font-family="sans-serif" font-size="14" lengthAdjust="spacing" textLength="50.5654" x="287.4604" y="71.0752">:System</text></g><g class="participant participant-tail" data-participant="System"><rect fill="#E3E3E3" height="31.1514" rx="2.5" ry="2.5" style="stroke:#181818;stroke-width:0.5;" width="64.5654" x="280.4604" y="340.5615"/><text fill="#000000" font-family="sans-serif" font-size="14" lengthAdjust="spacing" textLength="50.5654" x="287.4604" y="361.6367">:System</text></g><g><title>Administrator</title><rect fill="#FFFFFF" height="231.4102" style="stroke:#181818;stroke-width:1;" width="10" x="44.2344" y="92.1514"/></g><g><title>.System</title><rect fill="#FFFFFF" height="29.9263" style="stroke:#181818;stroke-width:1;" width="10" x="307.7432" y="114.0776"/></g><g><title>.System</title><rect fill="#FFFFFF" height="29.9263" style="stroke:#181818;stroke-width:1;" width="10" x="307.7432" y="173.9302"/></g><g><title>.System</title><rect fill="#FFFFFF" height="29.9263" style="stroke:#181818;stroke-width:1;" width="10" x="307.7432" y="233.7827"/></g><g><title>.System</title><rect fill="#FFFFFF" height="29.9263" style="stroke:#181818;stroke-width:1;" width="10" x="307.7432" y="293.6353"/></g><g class="message" data-participant-1="Admin" data-participant-2="System"><polygon fill="#181818" points="295.7432,110.0776,305.7432,114.0776,295.7432,118.0776,299.7432,114.0776" style="stroke:#181818;stroke-width:1;"/><line style="stroke:#181818;stroke-width:1;" x1="54.2344" x2="301.7432" y1="114.0776" y2="114.0776"/><text fill="#000000" font-family="sans-serif" font-size="13" font-weight="bold" lengthAdjust="spacing" textLength="7.23" x="61.2344" y="109.2212">1</text><text fill="#000000" font-family="sans-serif" font-size="13" lengthAdjust="spacing" textLength="203.7534" x="72.4644" y="109.2212">asks to review registration requests</text></g><g class="message" data-participant-1="System" data-participant-2="Admin"><polygon fill="#181818" points="65.2344,140.0039,55.2344,144.0039,65.2344,148.0039,61.2344,144.0039" style="stroke:#181818;stroke-width:1;"/><line style="stroke:#181818;stroke-width:1;stroke-dasharray:2,2;" x1="59.2344" x2="311.7432" y1="144.0039" y2="144.0039"/><text fill="#000000" font-family="sans-serif" font-size="13" font-weight="bold" lengthAdjust="spacing" textLength="7.23" x="71.2344" y="139.1475">2</text><text fill="#000000" font-family="sans-serif" font-size="13" lengthAdjust="spacing" textLength="208.1206" x="82.4644" y="139.1475">shows pending registration requests</text></g><g class="message" data-participant-1="Admin" data-participant-2="System"><polygon fill="#181818" points="295.7432,169.9302,305.7432,173.9302,295.7432,177.9302,299.7432,173.9302" style="stroke:#181818;stroke-width:1;"/><line style="stroke:#181818;stroke-width:1;" x1="54.2344" x2="301.7432" y1="173.9302" y2="173.9302"/><text fill="#000000" font-family="sans-serif" font-size="13" font-weight="bold" lengthAdjust="spacing" textLength="7.23" x="61.2344" y="169.0737">3</text><text fill="#000000" font-family="sans-serif" font-size="13" lengthAdjust="spacing" textLength="166.1943" x="72.4644" y="169.0737">selects a registration request</text></g><g class="message" data-participant-1="System" data-participant-2="Admin"><polygon fill="#181818" points="65.2344,199.8564,55.2344,203.8564,65.2344,207.8564,61.2344,203.8564" style="stroke:#181818;stroke-width:1;"/><line style="stroke:#181818;stroke-width:1;stroke-dasharray:2,2;" x1="59.2344" x2="311.7432" y1="203.8564" y2="203.8564"/><text fill="#000000" font-family="sans-serif" font-size="13" font-weight="bold" lengthAdjust="spacing" textLength="7.23" x="71.2344" y="199">4</text><text fill="#000000" font-family="sans-serif" font-size="13" lengthAdjust="spacing" textLength="125.0107" x="82.4644" y="199">shows request details</text></g><g class="message" data-participant-1="Admin" data-participant-2="System"><polygon fill="#181818" points="295.7432,229.7827,305.7432,233.7827,295.7432,237.7827,299.7432,233.7827" style="stroke:#181818;stroke-width:1;"/><line style="stroke:#181818;stroke-width:1;" x1="54.2344" x2="301.7432" y1="233.7827" y2="233.7827"/><text fill="#000000" font-family="sans-serif" font-size="13" font-weight="bold" lengthAdjust="spacing" textLength="7.23" x="61.2344" y="228.9263">5</text><text fill="#000000" font-family="sans-serif" font-size="13" lengthAdjust="spacing" textLength="223.2788" x="72.4644" y="228.9263">accepts/rejects the registration request</text></g><g class="message" data-participant-1="System" data-participant-2="Admin"><polygon fill="#181818" points="65.2344,259.709,55.2344,263.709,65.2344,267.709,61.2344,263.709" style="stroke:#181818;stroke-width:1;"/><line style="stroke:#181818;stroke-width:1;stroke-dasharray:2,2;" x1="59.2344" x2="311.7432" y1="263.709" y2="263.709"/><text fill="#000000" font-family="sans-serif" font-size="13" font-weight="bold" lengthAdjust="spacing" textLength="7.23" x="71.2344" y="258.8525">6</text><text fill="#000000" font-family="sans-serif" font-size="13" lengthAdjust="spacing" textLength="119.9326" x="82.4644" y="258.8525">asks for confirmation</text></g><g class="message" data-participant-1="Admin" data-participant-2="System"><polygon fill="#181818" points="295.7432,289.6353,305.7432,293.6353,295.7432,297.6353,299.7432,293.6353" style="stroke:#181818;stroke-width:1;"/><line style="stroke:#181818;stroke-width:1;" x1="54.2344" x2="301.7432" y1="293.6353" y2="293.6353"/><text fill="#000000" font-family="sans-serif" font-size="13" font-weight="bold" lengthAdjust="spacing" textLength="7.23" x="61.2344" y="288.7788">7</text><text fill="#000000" font-family="sans-serif" font-size="13" lengthAdjust="spacing" textLength="100.4263" x="72.4644" y="288.7788">confirms decision</text></g><g class="message" data-participant-1="System" data-participant-2="Admin"><polygon fill="#181818" points="60.2344,319.5615,50.2344,323.5615,60.2344,327.5615,56.2344,323.5615" style="stroke:#181818;stroke-width:1;"/><line style="stroke:#181818;stroke-width:1;stroke-dasharray:2,2;" x1="54.2344" x2="311.7432" y1="323.5615" y2="323.5615"/><text fill="#000000" font-family="sans-serif" font-size="13" font-weight="bold" lengthAdjust="spacing" textLength="7.23" x="66.2344" y="318.7051">8</text><text fill="#000000" font-family="sans-serif" font-size="13" lengthAdjust="spacing" textLength="155.3589" x="77.4644" y="318.7051">displays operation success</text></g><!--SRC=[hP8zRiCm38LtduBm7dJFKA1do0bOcNROwAyY7SEt3oihGO0cGufg4IdnVNgK92UE6Gi622acTomf46YPgPFRJaPtmeaEkdg2GaunJlw-G8uuf8NZ12DweQx3MLESmoSLYvsc0lt743YoQ45BUq21kj8PGTbnngZGxm-hA8MwlOLLpsTKQlKTsAWXxDvR4UnDS1BGPFREJ8jDqtOMfsZ9zqoYKgKtt9KFRJJKpgWRVczzfKKWKnn-UdlE7EWXzRTB8M_N9u0FON_qrzJcGf7zYuxGESegRuM-gZCzqlzugmyosikx54SkeT9UyzQKOWh7SfM_Oc9WoHvNWPIfzIEpTInFR-bkQVjl5m00]--></g></svg>