<?plantuml 1.2026.2?><svg xmlns="http://www.w3.org/2000/svg" xmlns:xlink="http://www.w3.org/1999/xlink" contentStyleType="text/css" data-diagram-type="CLASS" height="1274px" preserveAspectRatio="none" style="width:1486px;height:1274px;background:#FFFFFF;" version="1.1" viewBox="0 0 1486 1274" width="1486px" zoomAndPan="magnify"><defs/><g><!--class DeclarationStatus--><g class="entity" data-qualified-name="DeclarationStatus" data-source-line="9" id="ent0002"><rect fill="#F1F1F1" height="99.4541" rx="2.5" ry="2.5" style="stroke:#181818;stroke-width:0.5;" width="142.5029" x="493.5" y="1160"/><ellipse cx="508.5" cy="1176" fill="#EB937F" rx="11" ry="11" style="stroke:#181818;stroke-width:1;"/><path d="M507.3594,1176.7969 L507.3594,1179.2969 L511.6875,1179.2969 L511.6875,1178.375 Q511.6875,1177.7656 511.9219,1177.5 Q512.1719,1177.2344 512.5469,1177.2344 Q512.9219,1177.2344 513.1563,1177.5 Q513.3906,1177.7656 513.3906,1178.375 L513.3906,1181 L505.3906,1181 Q504.7656,1181 504.5,1180.7656 Q504.25,1180.5313 504.25,1180.1406 Q504.25,1179.7656 504.5156,1179.5313 Q504.7813,1179.2969 505.3906,1179.2969 L505.6563,1179.2969 L505.6563,1172.6406 L505.3906,1172.6406 Q504.7656,1172.6406 504.5,1172.4063 Q504.25,1172.1719 504.25,1171.7813 Q504.25,1171.4063 504.5,1171.1719 Q504.7656,1170.9375 505.3906,1170.9375 L513.0156,1170.9375 L513.0156,1173.5313 Q513.0156,1174.1406 512.7813,1174.4063 Q512.5625,1174.6563 512.1719,1174.6563 Q511.7969,1174.6563 511.5625,1174.4063 Q511.3281,1174.1406 511.3281,1173.5313 L511.3281,1172.6406 L507.3594,1172.6406 L507.3594,1175.0938 L508.8438,1175.0938 Q508.8438,1174.4375 508.9688,1174.25 Q509.2344,1173.8438 509.7031,1173.8438 Q510.0781,1173.8438 510.3125,1174.1094 Q510.5469,1174.3594 510.5469,1174.9688 L510.5469,1176.9375 Q510.5469,1177.4844 510.4219,1177.6719 Q510.1563,1178.0625 509.7031,1178.0625 Q509.2344,1178.0625 508.9688,1177.6563 Q508.8438,1177.4688 508.8438,1176.7969 L507.3594,1176.7969 Z " fill="#000000"/><text fill="#000000" font-family="sans-serif" font-size="14" lengthAdjust="spacing" textLength="110.5029" x="522.5" y="1181.4995">DeclarationStatus</text><line style="stroke:#181818;stroke-width:0.5;" x1="494.5" x2="635.0029" y1="1192" y2="1192"/><text fill="#000000" font-family="sans-serif" font-size="14" lengthAdjust="spacing" textLength="80.8896" x="499.5" y="1210.0752">SUBMITTED</text><text fill="#000000" font-family="sans-serif" font-size="14" lengthAdjust="spacing" textLength="77.7998" x="499.5" y="1227.2266">VALIDATED</text><text fill="#000000" font-family="sans-serif" font-size="14" lengthAdjust="spacing" textLength="73.8965" x="499.5" y="1244.3779">REJECTED</text><line style="stroke:#181818;stroke-width:0.5;" x1="494.5" x2="635.0029" y1="1251.4541" y2="1251.4541"/></g><!--class ValidationVerdict--><g class="entity" data-qualified-name="ValidationVerdict" data-source-line="15" id="ent0003"><rect fill="#F1F1F1" height="82.3027" rx="2.5" ry="2.5" style="stroke:#181818;stroke-width:0.5;" width="137.0615" x="1127.5" y="796.5"/><ellipse cx="1142.5" cy="812.5" fill="#EB937F" rx="11" ry="11" style="stroke:#181818;stroke-width:1;"/><path d="M1141.3594,813.2969 L1141.3594,815.7969 L1145.6875,815.7969 L1145.6875,814.875 Q1145.6875,814.2656 1145.9219,814 Q1146.1719,813.7344 1146.5469,813.7344 Q1146.9219,813.7344 1147.1563,814 Q1147.3906,814.2656 1147.3906,814.875 L1147.3906,817.5 L1139.3906,817.5 Q1138.7656,817.5 1138.5,817.2656 Q1138.25,817.0313 1138.25,816.6406 Q1138.25,816.2656 1138.5156,816.0313 Q1138.7813,815.7969 1139.3906,815.7969 L1139.6563,815.7969 L1139.6563,809.1406 L1139.3906,809.1406 Q1138.7656,809.1406 1138.5,808.9063 Q1138.25,808.6719 1138.25,808.2813 Q1138.25,807.9063 1138.5,807.6719 Q1138.7656,807.4375 1139.3906,807.4375 L1147.0156,807.4375 L1147.0156,810.0313 Q1147.0156,810.6406 1146.7813,810.9063 Q1146.5625,811.1563 1146.1719,811.1563 Q1145.7969,811.1563 1145.5625,810.9063 Q1145.3281,810.6406 1145.3281,810.0313 L1145.3281,809.1406 L1141.3594,809.1406 L1141.3594,811.5938 L1142.8438,811.5938 Q1142.8438,810.9375 1142.9688,810.75 Q1143.2344,810.3438 1143.7031,810.3438 Q1144.0781,810.3438 1144.3125,810.6094 Q1144.5469,810.8594 1144.5469,811.4688 L1144.5469,813.4375 Q1144.5469,813.9844 1144.4219,814.1719 Q1144.1563,814.5625 1143.7031,814.5625 Q1143.2344,814.5625 1142.9688,814.1563 Q1142.8438,813.9688 1142.8438,813.2969 L1141.3594,813.2969 Z " fill="#000000"/><text fill="#000000" font-family="sans-serif" font-size="14" lengthAdjust="spacing" textLength="105.0615" x="1156.5" y="817.9995">ValidationVerdict</text><line style="stroke:#181818;stroke-width:0.5;" x1="1128.5" x2="1263.5615" y1="828.5" y2="828.5"/><text fill="#000000" font-family="sans-serif" font-size="14" lengthAdjust="spacing" textLength="77.7998" x="1133.5" y="846.5752">APPROVED</text><text fill="#000000" font-family="sans-serif" font-size="14" lengthAdjust="spacing" textLength="73.8965" x="1133.5" y="863.7266">REJECTED</text><line style="stroke:#181818;stroke-width:0.5;" x1="1128.5" x2="1263.5615" y1="870.8027" y2="870.8027"/></g><!--class ApplicationSession--><g class="entity" data-qualified-name="ApplicationSession" data-source-line="20" id="ent0004"><rect fill="#F1F1F1" height="99.4541" rx="2.5" ry="2.5" style="stroke:#181818;stroke-width:0.5;" width="150.2959" x="74" y="266"/><ellipse cx="89" cy="282" fill="#ADD1B2" rx="11" ry="11" style="stroke:#181818;stroke-width:1;"/><path d="M91.7656,277.875 Q91.9219,277.6563 92.1094,277.5469 Q92.2969,277.4375 92.5156,277.4375 Q92.8906,277.4375 93.125,277.7031 Q93.3594,277.9531 93.3594,278.5625 L93.3594,280.0156 Q93.3594,280.625 93.125,280.8906 Q92.8906,281.1563 92.5156,281.1563 Q92.1719,281.1563 91.9688,280.9531 Q91.7656,280.7656 91.6563,280.25 Q91.6094,279.8906 91.4219,279.7031 Q91.0938,279.3281 90.4844,279.1094 Q89.875,278.8906 89.25,278.8906 Q88.4844,278.8906 87.8438,279.2188 Q87.2188,279.5469 86.7188,280.2969 Q86.2344,281.0469 86.2344,282.0781 L86.2344,283.1719 Q86.2344,284.4063 87.125,285.2344 Q88.0156,286.0469 89.6094,286.0469 Q90.5469,286.0469 91.2031,285.7969 Q91.5938,285.6406 92.0156,285.2031 Q92.2813,284.9375 92.4219,284.8594 Q92.5781,284.7813 92.7813,284.7813 Q93.1094,284.7813 93.3594,285.0469 Q93.625,285.2969 93.625,285.6406 Q93.625,285.9844 93.2813,286.3906 Q92.7813,286.9688 91.9844,287.2969 Q90.9063,287.75 89.6094,287.75 Q88.0938,287.75 86.8906,287.125 Q85.9063,286.625 85.2188,285.5625 Q84.5313,284.4844 84.5313,283.2031 L84.5313,282.0469 Q84.5313,280.7188 85.1406,279.5781 Q85.7656,278.4219 86.8594,277.8125 Q87.9531,277.1875 89.1875,277.1875 Q89.9219,277.1875 90.5625,277.3594 Q91.2188,277.5156 91.7656,277.875 Z " fill="#000000"/><text fill="#000000" font-family="sans-serif" font-size="14" lengthAdjust="spacing" textLength="118.2959" x="103" y="287.4995">ApplicationSession</text><line style="stroke:#181818;stroke-width:0.5;" x1="75" x2="223.2959" y1="298" y2="298"/><line style="stroke:#181818;stroke-width:0.5;" x1="75" x2="223.2959" y1="306" y2="306"/><text fill="#000000" font-family="sans-serif" font-size="14" lengthAdjust="spacing" textLength="132.2822" x="80" y="324.0752">-ApplicationSession()</text><text fill="#000000" font-family="sans-serif" font-size="14" lengthAdjust="spacing" text-decoration="underline" textLength="89.8857" x="80" y="341.2266">+getInstance()</text><text fill="#000000" font-family="sans-serif" font-size="14" lengthAdjust="spacing" textLength="133.4512" x="80" y="358.3779">+getCurrentSession()</text></g><!--class UserSession--><g class="entity" data-qualified-name="UserSession" data-source-line="26" id="ent0005"><rect fill="#F1F1F1" height="65.1514" rx="2.5" ry="2.5" style="stroke:#181818;stroke-width:0.5;" width="113.5273" x="7" y="450.5"/><ellipse cx="22.9729" cy="466.5" fill="#ADD1B2" rx="11" ry="11" style="stroke:#181818;stroke-width:1;"/><path d="M25.7386,462.375 Q25.8948,462.1563 26.0823,462.0469 Q26.2698,461.9375 26.4886,461.9375 Q26.8636,461.9375 27.0979,462.2031 Q27.3323,462.4531 27.3323,463.0625 L27.3323,464.5156 Q27.3323,465.125 27.0979,465.3906 Q26.8636,465.6563 26.4886,465.6563 Q26.1448,465.6563 25.9417,465.4531 Q25.7386,465.2656 25.6292,464.75 Q25.5823,464.3906 25.3948,464.2031 Q25.0667,463.8281 24.4573,463.6094 Q23.8479,463.3906 23.2229,463.3906 Q22.4573,463.3906 21.8167,463.7188 Q21.1917,464.0469 20.6917,464.7969 Q20.2073,465.5469 20.2073,466.5781 L20.2073,467.6719 Q20.2073,468.9063 21.0979,469.7344 Q21.9886,470.5469 23.5823,470.5469 Q24.5198,470.5469 25.1761,470.2969 Q25.5667,470.1406 25.9886,469.7031 Q26.2542,469.4375 26.3948,469.3594 Q26.5511,469.2813 26.7542,469.2813 Q27.0823,469.2813 27.3323,469.5469 Q27.5979,469.7969 27.5979,470.1406 Q27.5979,470.4844 27.2542,470.8906 Q26.7542,471.4688 25.9573,471.7969 Q24.8792,472.25 23.5823,472.25 Q22.0667,472.25 20.8636,471.625 Q19.8792,471.125 19.1917,470.0625 Q18.5042,468.9844 18.5042,467.7031 L18.5042,466.5469 Q18.5042,465.2188 19.1136,464.0781 Q19.7386,462.9219 20.8323,462.3125 Q21.9261,461.6875 23.1604,461.6875 Q23.8948,461.6875 24.5354,461.8594 Q25.1917,462.0156 25.7386,462.375 Z " fill="#000000"/><text fill="#000000" font-family="sans-serif" font-size="14" lengthAdjust="spacing" textLength="79.3652" x="37.1892" y="471.9995">UserSession</text><line style="stroke:#181818;stroke-width:0.5;" x1="8" x2="119.5273" y1="482.5" y2="482.5"/><line style="stroke:#181818;stroke-width:0.5;" x1="8" x2="119.5273" y1="490.5" y2="490.5"/><text fill="#000000" font-family="sans-serif" font-size="14" lengthAdjust="spacing" textLength="101.5273" x="13" y="508.5752">+getUserEmail()</text></g><!--class EthicsCommitteeMember--><g class="entity" data-qualified-name="EthicsCommitteeMember" data-source-line="30" id="ent0006"><rect fill="#F1F1F1" height="82.3027" rx="2.5" ry="2.5" style="stroke:#181818;stroke-width:0.5;" width="466.8223" x="618.5" y="442"/><ellipse cx="769.0854" cy="458" fill="#ADD1B2" rx="11" ry="11" style="stroke:#181818;stroke-width:1;"/><path d="M771.8511,453.875 Q772.0073,453.6563 772.1948,453.5469 Q772.3823,453.4375 772.6011,453.4375 Q772.9761,453.4375 773.2104,453.7031 Q773.4448,453.9531 773.4448,454.5625 L773.4448,456.0156 Q773.4448,456.625 773.2104,456.8906 Q772.9761,457.1563 772.6011,457.1563 Q772.2573,457.1563 772.0542,456.9531 Q771.8511,456.7656 771.7417,456.25 Q771.6948,455.8906 771.5073,455.7031 Q771.1792,455.3281 770.5698,455.1094 Q769.9604,454.8906 769.3354,454.8906 Q768.5698,454.8906 767.9292,455.2188 Q767.3042,455.5469 766.8042,456.2969 Q766.3198,457.0469 766.3198,458.0781 L766.3198,459.1719 Q766.3198,460.4063 767.2104,461.2344 Q768.1011,462.0469 769.6948,462.0469 Q770.6323,462.0469 771.2886,461.7969 Q771.6792,461.6406 772.1011,461.2031 Q772.3667,460.9375 772.5073,460.8594 Q772.6636,460.7813 772.8667,460.7813 Q773.1948,460.7813 773.4448,461.0469 Q773.7104,461.2969 773.7104,461.6406 Q773.7104,461.9844 773.3667,462.3906 Q772.8667,462.9688 772.0698,463.2969 Q770.9917,463.75 769.6948,463.75 Q768.1792,463.75 766.9761,463.125 Q765.9917,462.625 765.3042,461.5625 Q764.6167,460.4844 764.6167,459.2031 L764.6167,458.0469 Q764.6167,456.7188 765.2261,455.5781 Q765.8511,454.4219 766.9448,453.8125 Q768.0386,453.1875 769.2729,453.1875 Q770.0073,453.1875 770.6479,453.3594 Q771.3042,453.5156 771.8511,453.875 Z " fill="#000000"/><text fill="#000000" font-family="sans-serif" font-size="14" lengthAdjust="spacing" textLength="157.1514" x="789.5854" y="463.4995">EthicsCommitteeMember</text><line style="stroke:#181818;stroke-width:0.5;" x1="619.5" x2="1084.3223" y1="474" y2="474"/><line style="stroke:#181818;stroke-width:0.5;" x1="619.5" x2="1084.3223" y1="482" y2="482"/><text fill="#000000" font-family="sans-serif" font-size="14" lengthAdjust="spacing" textLength="454.8223" x="624.5" y="500.0752">+validateDeclaration(declaration, verdict, targetReference, commentText)</text><text fill="#000000" font-family="sans-serif" font-size="14" lengthAdjust="spacing" textLength="157.9854" x="624.5" y="517.2266">-addValidation(validation)</text></g><!--class Declaration--><g class="entity" data-qualified-name="Declaration" data-source-line="35" id="ent0007"><rect fill="#F1F1F1" height="99.4541" rx="2.5" ry="2.5" style="stroke:#181818;stroke-width:0.5;" width="190.9717" x="814.5" y="975"/><ellipse cx="870.3291" cy="991" fill="#ADD1B2" rx="11" ry="11" style="stroke:#181818;stroke-width:1;"/><path d="M873.0947,986.875 Q873.251,986.6563 873.4385,986.5469 Q873.626,986.4375 873.8447,986.4375 Q874.2197,986.4375 874.4541,986.7031 Q874.6885,986.9531 874.6885,987.5625 L874.6885,989.0156 Q874.6885,989.625 874.4541,989.8906 Q874.2197,990.1563 873.8447,990.1563 Q873.501,990.1563 873.2979,989.9531 Q873.0947,989.7656 872.9854,989.25 Q872.9385,988.8906 872.751,988.7031 Q872.4229,988.3281 871.8135,988.1094 Q871.2041,987.8906 870.5791,987.8906 Q869.8135,987.8906 869.1729,988.2188 Q868.5479,988.5469 868.0479,989.2969 Q867.5635,990.0469 867.5635,991.0781 L867.5635,992.1719 Q867.5635,993.4063 868.4541,994.2344 Q869.3447,995.0469 870.9385,995.0469 Q871.876,995.0469 872.5322,994.7969 Q872.9229,994.6406 873.3447,994.2031 Q873.6104,993.9375 873.751,993.8594 Q873.9072,993.7813 874.1104,993.7813 Q874.4385,993.7813 874.6885,994.0469 Q874.9541,994.2969 874.9541,994.6406 Q874.9541,994.9844 874.6104,995.3906 Q874.1104,995.9688 873.3135,996.2969 Q872.2354,996.75 870.9385,996.75 Q869.4229,996.75 868.2197,996.125 Q867.2354,995.625 866.5479,994.5625 Q865.8604,993.4844 865.8604,992.2031 L865.8604,991.0469 Q865.8604,989.7188 866.4697,988.5781 Q867.0947,987.4219 868.1885,986.8125 Q869.2822,986.1875 870.5166,986.1875 Q871.251,986.1875 871.8916,986.3594 Q872.5479,986.5156 873.0947,986.875 Z " fill="#000000"/><text fill="#000000" font-family="sans-serif" font-size="14" lengthAdjust="spacing" textLength="70.8135" x="890.8291" y="996.4995">Declaration</text><line style="stroke:#181818;stroke-width:0.5;" x1="815.5" x2="1004.4717" y1="1007" y2="1007"/><text fill="#000000" font-family="sans-serif" font-size="14" lengthAdjust="spacing" textLength="178.9717" x="820.5" y="1025.0752">-submissionDate : LocalDate</text><line style="stroke:#181818;stroke-width:0.5;" x1="815.5" x2="1004.4717" y1="1032.1514" y2="1032.1514"/><text fill="#000000" font-family="sans-serif" font-size="14" lengthAdjust="spacing" textLength="68.0928" x="820.5" y="1050.2266">+approve()</text><text fill="#000000" font-family="sans-serif" font-size="14" lengthAdjust="spacing" textLength="51.7344" x="820.5" y="1067.3779">+reject()</text></g><!--class Validation--><g class="entity" data-qualified-name="Validation" data-source-line="42" id="ent0008"><rect fill="#F1F1F1" height="99.4541" rx="2.5" ry="2.5" style="stroke:#181818;stroke-width:0.5;" width="326.8086" x="688.5" y="601"/><ellipse cx="816.9097" cy="617" fill="#ADD1B2" rx="11" ry="11" style="stroke:#181818;stroke-width:1;"/><path d="M819.6753,612.875 Q819.8315,612.6563 820.019,612.5469 Q820.2065,612.4375 820.4253,612.4375 Q820.8003,612.4375 821.0347,612.7031 Q821.269,612.9531 821.269,613.5625 L821.269,615.0156 Q821.269,615.625 821.0347,615.8906 Q820.8003,616.1563 820.4253,616.1563 Q820.0815,616.1563 819.8784,615.9531 Q819.6753,615.7656 819.5659,615.25 Q819.519,614.8906 819.3315,614.7031 Q819.0034,614.3281 818.394,614.1094 Q817.7847,613.8906 817.1597,613.8906 Q816.394,613.8906 815.7534,614.2188 Q815.1284,614.5469 814.6284,615.2969 Q814.144,616.0469 814.144,617.0781 L814.144,618.1719 Q814.144,619.4063 815.0347,620.2344 Q815.9253,621.0469 817.519,621.0469 Q818.4565,621.0469 819.1128,620.7969 Q819.5034,620.6406 819.9253,620.2031 Q820.1909,619.9375 820.3315,619.8594 Q820.4878,619.7813 820.6909,619.7813 Q821.019,619.7813 821.269,620.0469 Q821.5347,620.2969 821.5347,620.6406 Q821.5347,620.9844 821.1909,621.3906 Q820.6909,621.9688 819.894,622.2969 Q818.8159,622.75 817.519,622.75 Q816.0034,622.75 814.8003,622.125 Q813.8159,621.625 813.1284,620.5625 Q812.4409,619.4844 812.4409,618.2031 L812.4409,617.0469 Q812.4409,615.7188 813.0503,614.5781 Q813.6753,613.4219 814.769,612.8125 Q815.8628,612.1875 817.0972,612.1875 Q817.8315,612.1875 818.4722,612.3594 Q819.1284,612.5156 819.6753,612.875 Z " fill="#000000"/><text fill="#000000" font-family="sans-serif" font-size="14" lengthAdjust="spacing" textLength="61.4893" x="837.4097" y="622.4995">Validation</text><line style="stroke:#181818;stroke-width:0.5;" x1="689.5" x2="1014.3086" y1="633" y2="633"/><text fill="#000000" font-family="sans-serif" font-size="14" lengthAdjust="spacing" textLength="168.0957" x="694.5" y="651.0752">-validationDate : LocalDate</text><line style="stroke:#181818;stroke-width:0.5;" x1="689.5" x2="1014.3086" y1="658.1514" y2="658.1514"/><text fill="#000000" font-family="sans-serif" font-size="14" lengthAdjust="spacing" textLength="196.4922" x="694.5" y="676.2266">+Validation(declaration, verdict)</text><text fill="#000000" font-family="sans-serif" font-size="14" lengthAdjust="spacing" textLength="314.8086" x="694.5" y="693.3779">+addAnnotation(text, targetReference, declaration)</text></g><!--class Annotation--><g class="entity" data-qualified-name="Annotation" data-source-line="49" id="ent0009"><rect fill="#F1F1F1" height="116.6055" rx="2.5" ry="2.5" style="stroke:#181818;stroke-width:0.5;" width="303.4502" x="408.5" y="779"/><ellipse cx="522.5029" cy="795" fill="#ADD1B2" rx="11" ry="11" style="stroke:#181818;stroke-width:1;"/><path d="M525.2686,790.875 Q525.4248,790.6563 525.6123,790.5469 Q525.7998,790.4375 526.0186,790.4375 Q526.3936,790.4375 526.6279,790.7031 Q526.8623,790.9531 526.8623,791.5625 L526.8623,793.0156 Q526.8623,793.625 526.6279,793.8906 Q526.3936,794.1563 526.0186,794.1563 Q525.6748,794.1563 525.4717,793.9531 Q525.2686,793.7656 525.1592,793.25 Q525.1123,792.8906 524.9248,792.7031 Q524.5967,792.3281 523.9873,792.1094 Q523.3779,791.8906 522.7529,791.8906 Q521.9873,791.8906 521.3467,792.2188 Q520.7217,792.5469 520.2217,793.2969 Q519.7373,794.0469 519.7373,795.0781 L519.7373,796.1719 Q519.7373,797.4063 520.6279,798.2344 Q521.5186,799.0469 523.1123,799.0469 Q524.0498,799.0469 524.7061,798.7969 Q525.0967,798.6406 525.5186,798.2031 Q525.7842,797.9375 525.9248,797.8594 Q526.0811,797.7813 526.2842,797.7813 Q526.6123,797.7813 526.8623,798.0469 Q527.1279,798.2969 527.1279,798.6406 Q527.1279,798.9844 526.7842,799.3906 Q526.2842,799.9688 525.4873,800.2969 Q524.4092,800.75 523.1123,800.75 Q521.5967,800.75 520.3936,800.125 Q519.4092,799.625 518.7217,798.5625 Q518.0342,797.4844 518.0342,796.2031 L518.0342,795.0469 Q518.0342,793.7188 518.6436,792.5781 Q519.2686,791.4219 520.3623,790.8125 Q521.4561,790.1875 522.6904,790.1875 Q523.4248,790.1875 524.0654,790.3594 Q524.7217,790.5156 525.2686,790.875 Z " fill="#000000"/><text fill="#000000" font-family="sans-serif" font-size="14" lengthAdjust="spacing" textLength="66.9443" x="543.0029" y="800.4995">Annotation</text><line style="stroke:#181818;stroke-width:0.5;" x1="409.5" x2="710.9502" y1="811" y2="811"/><text fill="#000000" font-family="sans-serif" font-size="14" lengthAdjust="spacing" textLength="75.4688" x="414.5" y="829.0752">-text : String</text><text fill="#000000" font-family="sans-serif" font-size="14" lengthAdjust="spacing" textLength="153.2959" x="414.5" y="846.2266">-targetReference : String</text><text fill="#000000" font-family="sans-serif" font-size="14" lengthAdjust="spacing" textLength="189.8613" x="414.5" y="863.3779">-creationDate : LocalDateTime</text><line style="stroke:#181818;stroke-width:0.5;" x1="409.5" x2="710.9502" y1="870.4541" y2="870.4541"/><text fill="#000000" font-family="sans-serif" font-size="14" lengthAdjust="spacing" textLength="291.4502" x="414.5" y="888.5293">+Annotation(text, targetReference, declaration)</text></g><!--class Subsidy--><g class="entity" data-qualified-name="Subsidy" data-source-line="57" id="ent0010"><rect fill="#F1F1F1" height="82.3027" rx="2.5" ry="2.5" style="stroke:#181818;stroke-width:0.5;" width="117.0684" x="671.5" y="1168.5"/><ellipse cx="702.3678" cy="1184.5" fill="#ADD1B2" rx="11" ry="11" style="stroke:#181818;stroke-width:1;"/><path d="M705.1334,1180.375 Q705.2896,1180.1563 705.4771,1180.0469 Q705.6646,1179.9375 705.8834,1179.9375 Q706.2584,1179.9375 706.4928,1180.2031 Q706.7271,1180.4531 706.7271,1181.0625 L706.7271,1182.5156 Q706.7271,1183.125 706.4928,1183.3906 Q706.2584,1183.6563 705.8834,1183.6563 Q705.5396,1183.6563 705.3365,1183.4531 Q705.1334,1183.2656 705.024,1182.75 Q704.9771,1182.3906 704.7896,1182.2031 Q704.4615,1181.8281 703.8521,1181.6094 Q703.2428,1181.3906 702.6178,1181.3906 Q701.8521,1181.3906 701.2115,1181.7188 Q700.5865,1182.0469 700.0865,1182.7969 Q699.6021,1183.5469 699.6021,1184.5781 L699.6021,1185.6719 Q699.6021,1186.9063 700.4928,1187.7344 Q701.3834,1188.5469 702.9771,1188.5469 Q703.9146,1188.5469 704.5709,1188.2969 Q704.9615,1188.1406 705.3834,1187.7031 Q705.649,1187.4375 705.7896,1187.3594 Q705.9459,1187.2813 706.149,1187.2813 Q706.4771,1187.2813 706.7271,1187.5469 Q706.9928,1187.7969 706.9928,1188.1406 Q706.9928,1188.4844 706.649,1188.8906 Q706.149,1189.4688 705.3521,1189.7969 Q704.274,1190.25 702.9771,1190.25 Q701.4615,1190.25 700.2584,1189.625 Q699.274,1189.125 698.5865,1188.0625 Q697.899,1186.9844 697.899,1185.7031 L697.899,1184.5469 Q697.899,1183.2188 698.5084,1182.0781 Q699.1334,1180.9219 700.2271,1180.3125 Q701.3209,1179.6875 702.5553,1179.6875 Q703.2896,1179.6875 703.9303,1179.8594 Q704.5865,1180.0156 705.1334,1180.375 Z " fill="#000000"/><text fill="#000000" font-family="sans-serif" font-size="14" lengthAdjust="spacing" textLength="49.8066" x="719.8939" y="1189.9995">Subsidy</text><line style="stroke:#181818;stroke-width:0.5;" x1="672.5" x2="787.5684" y1="1200.5" y2="1200.5"/><text fill="#000000" font-family="sans-serif" font-size="14" lengthAdjust="spacing" textLength="105.0684" x="677.5" y="1218.5752">-amount : double</text><text fill="#000000" font-family="sans-serif" font-size="14" lengthAdjust="spacing" textLength="92.5996" x="677.5" y="1235.7266">-nature : String</text><line style="stroke:#181818;stroke-width:0.5;" x1="672.5" x2="787.5684" y1="1242.8027" y2="1242.8027"/></g><!--class Asset--><g class="entity" data-qualified-name="Asset" data-source-line="62" id="ent0011"><rect fill="#F1F1F1" height="82.3027" rx="2.5" ry="2.5" style="stroke:#181818;stroke-width:0.5;" width="172.3301" x="824" y="1168.5"/><ellipse cx="888.4082" cy="1184.5" fill="#ADD1B2" rx="11" ry="11" style="stroke:#181818;stroke-width:1;"/><path d="M891.1738,1180.375 Q891.3301,1180.1563 891.5176,1180.0469 Q891.7051,1179.9375 891.9238,1179.9375 Q892.2988,1179.9375 892.5332,1180.2031 Q892.7676,1180.4531 892.7676,1181.0625 L892.7676,1182.5156 Q892.7676,1183.125 892.5332,1183.3906 Q892.2988,1183.6563 891.9238,1183.6563 Q891.5801,1183.6563 891.377,1183.4531 Q891.1738,1183.2656 891.0645,1182.75 Q891.0176,1182.3906 890.8301,1182.2031 Q890.502,1181.8281 889.8926,1181.6094 Q889.2832,1181.3906 888.6582,1181.3906 Q887.8926,1181.3906 887.252,1181.7188 Q886.627,1182.0469 886.127,1182.7969 Q885.6426,1183.5469 885.6426,1184.5781 L885.6426,1185.6719 Q885.6426,1186.9063 886.5332,1187.7344 Q887.4238,1188.5469 889.0176,1188.5469 Q889.9551,1188.5469 890.6113,1188.2969 Q891.002,1188.1406 891.4238,1187.7031 Q891.6895,1187.4375 891.8301,1187.3594 Q891.9863,1187.2813 892.1895,1187.2813 Q892.5176,1187.2813 892.7676,1187.5469 Q893.0332,1187.7969 893.0332,1188.1406 Q893.0332,1188.4844 892.6895,1188.8906 Q892.1895,1189.4688 891.3926,1189.7969 Q890.3145,1190.25 889.0176,1190.25 Q887.502,1190.25 886.2988,1189.625 Q885.3145,1189.125 884.627,1188.0625 Q883.9395,1186.9844 883.9395,1185.7031 L883.9395,1184.5469 Q883.9395,1183.2188 884.5488,1182.0781 Q885.1738,1180.9219 886.2676,1180.3125 Q887.3613,1179.6875 888.5957,1179.6875 Q889.3301,1179.6875 889.9707,1179.8594 Q890.627,1180.0156 891.1738,1180.375 Z " fill="#000000"/><text fill="#000000" font-family="sans-serif" font-size="14" lengthAdjust="spacing" textLength="35.0137" x="908.9082" y="1189.9995">Asset</text><line style="stroke:#181818;stroke-width:0.5;" x1="825" x2="995.3301" y1="1200.5" y2="1200.5"/><text fill="#000000" font-family="sans-serif" font-size="14" lengthAdjust="spacing" textLength="160.3301" x="830" y="1218.5752">-acquisitionValue : double</text><text fill="#000000" font-family="sans-serif" font-size="14" lengthAdjust="spacing" textLength="136.9648" x="830" y="1235.7266">-marketValue : double</text><line style="stroke:#181818;stroke-width:0.5;" x1="825" x2="995.3301" y1="1242.8027" y2="1242.8027"/></g><!--class Position--><g class="entity" data-qualified-name="Position" data-source-line="67" id="ent0012"><rect fill="#F1F1F1" height="99.4541" rx="2.5" ry="2.5" style="stroke:#181818;stroke-width:0.5;" width="152.8613" x="1031.5" y="1160"/><ellipse cx="1078.7773" cy="1176" fill="#ADD1B2" rx="11" ry="11" style="stroke:#181818;stroke-width:1;"/><path d="M1081.543,1171.875 Q1081.6992,1171.6563 1081.8867,1171.5469 Q1082.0742,1171.4375 1082.293,1171.4375 Q1082.668,1171.4375 1082.9023,1171.7031 Q1083.1367,1171.9531 1083.1367,1172.5625 L1083.1367,1174.0156 Q1083.1367,1174.625 1082.9023,1174.8906 Q1082.668,1175.1563 1082.293,1175.1563 Q1081.9492,1175.1563 1081.7461,1174.9531 Q1081.543,1174.7656 1081.4336,1174.25 Q1081.3867,1173.8906 1081.1992,1173.7031 Q1080.8711,1173.3281 1080.2617,1173.1094 Q1079.6523,1172.8906 1079.0273,1172.8906 Q1078.2617,1172.8906 1077.6211,1173.2188 Q1076.9961,1173.5469 1076.4961,1174.2969 Q1076.0117,1175.0469 1076.0117,1176.0781 L1076.0117,1177.1719 Q1076.0117,1178.4063 1076.9023,1179.2344 Q1077.793,1180.0469 1079.3867,1180.0469 Q1080.3242,1180.0469 1080.9805,1179.7969 Q1081.3711,1179.6406 1081.793,1179.2031 Q1082.0586,1178.9375 1082.1992,1178.8594 Q1082.3555,1178.7813 1082.5586,1178.7813 Q1082.8867,1178.7813 1083.1367,1179.0469 Q1083.4023,1179.2969 1083.4023,1179.6406 Q1083.4023,1179.9844 1083.0586,1180.3906 Q1082.5586,1180.9688 1081.7617,1181.2969 Q1080.6836,1181.75 1079.3867,1181.75 Q1077.8711,1181.75 1076.668,1181.125 Q1075.6836,1180.625 1074.9961,1179.5625 Q1074.3086,1178.4844 1074.3086,1177.2031 L1074.3086,1176.0469 Q1074.3086,1174.7188 1074.918,1173.5781 Q1075.543,1172.4219 1076.6367,1171.8125 Q1077.7305,1171.1875 1078.9648,1171.1875 Q1079.6992,1171.1875 1080.3398,1171.3594 Q1080.9961,1171.5156 1081.543,1171.875 Z " fill="#000000"/><text fill="#000000" font-family="sans-serif" font-size="14" lengthAdjust="spacing" textLength="49.8066" x="1099.2773" y="1181.4995">Position</text><line style="stroke:#181818;stroke-width:0.5;" x1="1032.5" x2="1183.3613" y1="1192" y2="1192"/><text fill="#000000" font-family="sans-serif" font-size="14" lengthAdjust="spacing" textLength="136.1719" x="1037.5" y="1210.0752">-startDate : LocalDate</text><text fill="#000000" font-family="sans-serif" font-size="14" lengthAdjust="spacing" textLength="132.3027" x="1037.5" y="1227.2266">-endDate : LocalDate</text><text fill="#000000" font-family="sans-serif" font-size="14" lengthAdjust="spacing" textLength="140.8613" x="1037.5" y="1244.3779">-remuneration : double</text><line style="stroke:#181818;stroke-width:0.5;" x1="1032.5" x2="1183.3613" y1="1251.4541" y2="1251.4541"/></g><!--class SecurityHolding--><g class="entity" data-qualified-name="SecurityHolding" data-source-line="73" id="ent0013"><rect fill="#F1F1F1" height="116.6055" rx="2.5" ry="2.5" style="stroke:#181818;stroke-width:0.5;" width="148.9648" x="1219.5" y="1151"/><ellipse cx="1243.0126" cy="1167" fill="#ADD1B2" rx="11" ry="11" style="stroke:#181818;stroke-width:1;"/><path d="M1245.7783,1162.875 Q1245.9345,1162.6563 1246.122,1162.5469 Q1246.3095,1162.4375 1246.5283,1162.4375 Q1246.9033,1162.4375 1247.1376,1162.7031 Q1247.372,1162.9531 1247.372,1163.5625 L1247.372,1165.0156 Q1247.372,1165.625 1247.1376,1165.8906 Q1246.9033,1166.1563 1246.5283,1166.1563 Q1246.1845,1166.1563 1245.9814,1165.9531 Q1245.7783,1165.7656 1245.6689,1165.25 Q1245.622,1164.8906 1245.4345,1164.7031 Q1245.1064,1164.3281 1244.497,1164.1094 Q1243.8876,1163.8906 1243.2626,1163.8906 Q1242.497,1163.8906 1241.8564,1164.2188 Q1241.2314,1164.5469 1240.7314,1165.2969 Q1240.247,1166.0469 1240.247,1167.0781 L1240.247,1168.1719 Q1240.247,1169.4063 1241.1376,1170.2344 Q1242.0283,1171.0469 1243.622,1171.0469 Q1244.5595,1171.0469 1245.2158,1170.7969 Q1245.6064,1170.6406 1246.0283,1170.2031 Q1246.2939,1169.9375 1246.4345,1169.8594 Q1246.5908,1169.7813 1246.7939,1169.7813 Q1247.122,1169.7813 1247.372,1170.0469 Q1247.6376,1170.2969 1247.6376,1170.6406 Q1247.6376,1170.9844 1247.2939,1171.3906 Q1246.7939,1171.9688 1245.997,1172.2969 Q1244.9189,1172.75 1243.622,1172.75 Q1242.1064,1172.75 1240.9033,1172.125 Q1239.9189,1171.625 1239.2314,1170.5625 Q1238.5439,1169.4844 1238.5439,1168.2031 L1238.5439,1167.0469 Q1238.5439,1165.7188 1239.1533,1164.5781 Q1239.7783,1163.4219 1240.872,1162.8125 Q1241.9658,1162.1875 1243.2001,1162.1875 Q1243.9345,1162.1875 1244.5751,1162.3594 Q1245.2314,1162.5156 1245.7783,1162.875 Z " fill="#000000"/><text fill="#000000" font-family="sans-serif" font-size="14" lengthAdjust="spacing" textLength="98.0479" x="1258.9043" y="1172.4995">SecurityHolding</text><line style="stroke:#181818;stroke-width:0.5;" x1="1220.5" x2="1367.4648" y1="1183" y2="1183"/><text fill="#000000" font-family="sans-serif" font-size="14" lengthAdjust="spacing" textLength="74.6895" x="1225.5" y="1201.0752">-title : String</text><text fill="#000000" font-family="sans-serif" font-size="14" lengthAdjust="spacing" textLength="136.9648" x="1225.5" y="1218.2266">-marketValue : double</text><text fill="#000000" font-family="sans-serif" font-size="14" lengthAdjust="spacing" textLength="91.834" x="1225.5" y="1235.3779">-stake : double</text><text fill="#000000" font-family="sans-serif" font-size="14" lengthAdjust="spacing" textLength="128.4268" x="1225.5" y="1252.5293">-percentage : double</text><line style="stroke:#181818;stroke-width:0.5;" x1="1220.5" x2="1367.4648" y1="1259.6055" y2="1259.6055"/></g><!--class DeclarationRepository--><g class="entity" data-qualified-name="DeclarationRepository" data-source-line="80" id="ent0014"><rect fill="#F1F1F1" height="65.1514" rx="2.5" ry="2.5" style="stroke:#181818;stroke-width:0.5;" width="189.8096" x="1234" y="283"/><ellipse cx="1258.0356" cy="299" fill="#ADD1B2" rx="11" ry="11" style="stroke:#181818;stroke-width:1;"/><path d="M1260.8012,294.875 Q1260.9575,294.6563 1261.145,294.5469 Q1261.3325,294.4375 1261.5512,294.4375 Q1261.9262,294.4375 1262.1606,294.7031 Q1262.395,294.9531 1262.395,295.5625 L1262.395,297.0156 Q1262.395,297.625 1262.1606,297.8906 Q1261.9262,298.1563 1261.5512,298.1563 Q1261.2075,298.1563 1261.0043,297.9531 Q1260.8012,297.7656 1260.6918,297.25 Q1260.645,296.8906 1260.4575,296.7031 Q1260.1293,296.3281 1259.52,296.1094 Q1258.9106,295.8906 1258.2856,295.8906 Q1257.52,295.8906 1256.8793,296.2188 Q1256.2543,296.5469 1255.7543,297.2969 Q1255.27,298.0469 1255.27,299.0781 L1255.27,300.1719 Q1255.27,301.4063 1256.1606,302.2344 Q1257.0512,303.0469 1258.645,303.0469 Q1259.5825,303.0469 1260.2387,302.7969 Q1260.6293,302.6406 1261.0512,302.2031 Q1261.3168,301.9375 1261.4575,301.8594 Q1261.6137,301.7813 1261.8168,301.7813 Q1262.145,301.7813 1262.395,302.0469 Q1262.6606,302.2969 1262.6606,302.6406 Q1262.6606,302.9844 1262.3168,303.3906 Q1261.8168,303.9688 1261.02,304.2969 Q1259.9418,304.75 1258.645,304.75 Q1257.1293,304.75 1255.9262,304.125 Q1254.9418,303.625 1254.2543,302.5625 Q1253.5668,301.4844 1253.5668,300.2031 L1253.5668,299.0469 Q1253.5668,297.7188 1254.1762,296.5781 Q1254.8012,295.4219 1255.895,294.8125 Q1256.9887,294.1875 1258.2231,294.1875 Q1258.9575,294.1875 1259.5981,294.3594 Q1260.2543,294.5156 1260.8012,294.875 Z " fill="#000000"/><text fill="#000000" font-family="sans-serif" font-size="14" lengthAdjust="spacing" textLength="137.7305" x="1274.0435" y="304.4995">DeclarationRepository</text><line style="stroke:#181818;stroke-width:0.5;" x1="1235" x2="1422.8096" y1="315" y2="315"/><line style="stroke:#181818;stroke-width:0.5;" x1="1235" x2="1422.8096" y1="323" y2="323"/><text fill="#000000" font-family="sans-serif" font-size="14" lengthAdjust="spacing" textLength="177.8096" x="1240" y="341.0752">+getSubmittedDeclarations()</text></g><!--class UserRepository--><g class="entity" data-qualified-name="UserRepository" data-source-line="84" id="ent0015"><rect fill="#F1F1F1" height="65.1514" rx="2.5" ry="2.5" style="stroke:#181818;stroke-width:0.5;" width="290.9131" x="778.5" y="283"/><ellipse cx="871.4688" cy="299" fill="#ADD1B2" rx="11" ry="11" style="stroke:#181818;stroke-width:1;"/><path d="M874.2344,294.875 Q874.3906,294.6563 874.5781,294.5469 Q874.7656,294.4375 874.9844,294.4375 Q875.3594,294.4375 875.5938,294.7031 Q875.8281,294.9531 875.8281,295.5625 L875.8281,297.0156 Q875.8281,297.625 875.5938,297.8906 Q875.3594,298.1563 874.9844,298.1563 Q874.6406,298.1563 874.4375,297.9531 Q874.2344,297.7656 874.125,297.25 Q874.0781,296.8906 873.8906,296.7031 Q873.5625,296.3281 872.9531,296.1094 Q872.3438,295.8906 871.7188,295.8906 Q870.9531,295.8906 870.3125,296.2188 Q869.6875,296.5469 869.1875,297.2969 Q868.7031,298.0469 868.7031,299.0781 L868.7031,300.1719 Q868.7031,301.4063 869.5938,302.2344 Q870.4844,303.0469 872.0781,303.0469 Q873.0156,303.0469 873.6719,302.7969 Q874.0625,302.6406 874.4844,302.2031 Q874.75,301.9375 874.8906,301.8594 Q875.0469,301.7813 875.25,301.7813 Q875.5781,301.7813 875.8281,302.0469 Q876.0938,302.2969 876.0938,302.6406 Q876.0938,302.9844 875.75,303.3906 Q875.25,303.9688 874.4531,304.2969 Q873.375,304.75 872.0781,304.75 Q870.5625,304.75 869.3594,304.125 Q868.375,303.625 867.6875,302.5625 Q867,301.4844 867,300.2031 L867,299.0469 Q867,297.7188 867.6094,296.5781 Q868.2344,295.4219 869.3281,294.8125 Q870.4219,294.1875 871.6563,294.1875 Q872.3906,294.1875 873.0313,294.3594 Q873.6875,294.5156 874.2344,294.875 Z " fill="#000000"/><text fill="#000000" font-family="sans-serif" font-size="14" lengthAdjust="spacing" textLength="96.4756" x="891.9688" y="304.4995">UserRepository</text><line style="stroke:#181818;stroke-width:0.5;" x1="779.5" x2="1068.4131" y1="315" y2="315"/><line style="stroke:#181818;stroke-width:0.5;" x1="779.5" x2="1068.4131" y1="323" y2="323"/><text fill="#000000" font-family="sans-serif" font-size="14" lengthAdjust="spacing" textLength="278.9131" x="784.5" y="341.0752">+getEthicsCommitteeMemberByEmail(email)</text></g><!--class Repositories--><g class="entity" data-qualified-name="Repositories" data-source-line="88" id="ent0016"><rect fill="#F1F1F1" height="116.6055" rx="2.5" ry="2.5" style="stroke:#181818;stroke-width:0.5;" width="186.6924" x="1165.5" y="46.5"/><ellipse cx="1215.6895" cy="62.5" fill="#ADD1B2" rx="11" ry="11" style="stroke:#181818;stroke-width:1;"/><path d="M1218.4551,58.375 Q1218.6113,58.1563 1218.7988,58.0469 Q1218.9863,57.9375 1219.2051,57.9375 Q1219.5801,57.9375 1219.8145,58.2031 Q1220.0488,58.4531 1220.0488,59.0625 L1220.0488,60.5156 Q1220.0488,61.125 1219.8145,61.3906 Q1219.5801,61.6563 1219.2051,61.6563 Q1218.8613,61.6563 1218.6582,61.4531 Q1218.4551,61.2656 1218.3457,60.75 Q1218.2988,60.3906 1218.1113,60.2031 Q1217.7832,59.8281 1217.1738,59.6094 Q1216.5645,59.3906 1215.9395,59.3906 Q1215.1738,59.3906 1214.5332,59.7188 Q1213.9082,60.0469 1213.4082,60.7969 Q1212.9238,61.5469 1212.9238,62.5781 L1212.9238,63.6719 Q1212.9238,64.9063 1213.8145,65.7344 Q1214.7051,66.5469 1216.2988,66.5469 Q1217.2363,66.5469 1217.8926,66.2969 Q1218.2832,66.1406 1218.7051,65.7031 Q1218.9707,65.4375 1219.1113,65.3594 Q1219.2676,65.2813 1219.4707,65.2813 Q1219.7988,65.2813 1220.0488,65.5469 Q1220.3145,65.7969 1220.3145,66.1406 Q1220.3145,66.4844 1219.9707,66.8906 Q1219.4707,67.4688 1218.6738,67.7969 Q1217.5957,68.25 1216.2988,68.25 Q1214.7832,68.25 1213.5801,67.625 Q1212.5957,67.125 1211.9082,66.0625 Q1211.2207,64.9844 1211.2207,63.7031 L1211.2207,62.5469 Q1211.2207,61.2188 1211.8301,60.0781 Q1212.4551,58.9219 1213.5488,58.3125 Q1214.6426,57.6875 1215.877,57.6875 Q1216.6113,57.6875 1217.252,57.8594 Q1217.9082,58.0156 1218.4551,58.375 Z " fill="#000000"/><text fill="#000000" font-family="sans-serif" font-size="14" lengthAdjust="spacing" textLength="77.8135" x="1236.1895" y="67.9995">Repositories</text><line style="stroke:#181818;stroke-width:0.5;" x1="1166.5" x2="1351.1924" y1="78.5" y2="78.5"/><line style="stroke:#181818;stroke-width:0.5;" x1="1166.5" x2="1351.1924" y1="86.5" y2="86.5"/><text fill="#000000" font-family="sans-serif" font-size="14" lengthAdjust="spacing" textLength="91.7998" x="1171.5" y="104.5752">-Repositories()</text><text fill="#000000" font-family="sans-serif" font-size="14" lengthAdjust="spacing" text-decoration="underline" textLength="89.8857" x="1171.5" y="121.7266">+getInstance()</text><text fill="#000000" font-family="sans-serif" font-size="14" lengthAdjust="spacing" textLength="174.6924" x="1171.5" y="138.8779">+getDeclarationRepository()</text><text fill="#000000" font-family="sans-serif" font-size="14" lengthAdjust="spacing" textLength="133.4375" x="1171.5" y="156.0293">+getUserRepository()</text></g><!--class ValidateDeclarationController--><g class="entity" data-qualified-name="ValidateDeclarationController" data-source-line="95" id="ent0017"><rect fill="#F1F1F1" height="168.0596" rx="2.5" ry="2.5" style="stroke:#181818;stroke-width:0.5;" width="327.5195" x="561" y="21"/><ellipse cx="629.4619" cy="37" fill="#ADD1B2" rx="11" ry="11" style="stroke:#181818;stroke-width:1;"/><path d="M632.2275,32.875 Q632.3838,32.6563 632.5713,32.5469 Q632.7588,32.4375 632.9775,32.4375 Q633.3525,32.4375 633.5869,32.7031 Q633.8213,32.9531 633.8213,33.5625 L633.8213,35.0156 Q633.8213,35.625 633.5869,35.8906 Q633.3525,36.1563 632.9775,36.1563 Q632.6338,36.1563 632.4307,35.9531 Q632.2275,35.7656 632.1182,35.25 Q632.0713,34.8906 631.8838,34.7031 Q631.5557,34.3281 630.9463,34.1094 Q630.3369,33.8906 629.7119,33.8906 Q628.9463,33.8906 628.3057,34.2188 Q627.6807,34.5469 627.1807,35.2969 Q626.6963,36.0469 626.6963,37.0781 L626.6963,38.1719 Q626.6963,39.4063 627.5869,40.2344 Q628.4775,41.0469 630.0713,41.0469 Q631.0088,41.0469 631.665,40.7969 Q632.0557,40.6406 632.4775,40.2031 Q632.7432,39.9375 632.8838,39.8594 Q633.04,39.7813 633.2432,39.7813 Q633.5713,39.7813 633.8213,40.0469 Q634.0869,40.2969 634.0869,40.6406 Q634.0869,40.9844 633.7432,41.3906 Q633.2432,41.9688 632.4463,42.2969 Q631.3682,42.75 630.0713,42.75 Q628.5557,42.75 627.3525,42.125 Q626.3682,41.625 625.6807,40.5625 Q624.9932,39.4844 624.9932,38.2031 L624.9932,37.0469 Q624.9932,35.7188 625.6025,34.5781 Q626.2275,33.4219 627.3213,32.8125 Q628.415,32.1875 629.6494,32.1875 Q630.3838,32.1875 631.0244,32.3594 Q631.6807,32.5156 632.2275,32.875 Z " fill="#000000"/><text fill="#000000" font-family="sans-serif" font-size="14" lengthAdjust="spacing" textLength="182.0957" x="649.9619" y="42.4995">ValidateDeclarationController</text><line style="stroke:#181818;stroke-width:0.5;" x1="562" x2="887.5195" y1="53" y2="53"/><text fill="#000000" font-family="sans-serif" font-size="14" lengthAdjust="spacing" textLength="155.6338" x="567" y="71.0752">-declaration : Declaration</text><line style="stroke:#181818;stroke-width:0.5;" x1="562" x2="887.5195" y1="78.1514" y2="78.1514"/><text fill="#000000" font-family="sans-serif" font-size="14" lengthAdjust="spacing" textLength="199.5957" x="567" y="96.2266">+ValidateDeclarationController()</text><text fill="#000000" font-family="sans-serif" font-size="14" lengthAdjust="spacing" textLength="177.8096" x="567" y="113.3779">+getSubmittedDeclarations()</text><text fill="#000000" font-family="sans-serif" font-size="14" lengthAdjust="spacing" textLength="193.375" x="567" y="130.5293">+selectDeclaration(declaration)</text><text fill="#000000" font-family="sans-serif" font-size="14" lengthAdjust="spacing" textLength="138.9063" x="567" y="147.6807">+approveDeclaration()</text><text fill="#000000" font-family="sans-serif" font-size="14" lengthAdjust="spacing" textLength="315.5195" x="567" y="164.832">+rejectDeclaration(targetReference, commentText)</text><text fill="#000000" font-family="sans-serif" font-size="14" lengthAdjust="spacing" textLength="273.0684" x="567" y="181.9834">-getEthicsCommitteeMemberFromSession()</text></g><g class="entity" data-qualified-name="GMN18" data-source-line="107" id="ent0019"><path d="M924,84 L924,101 L889.13,105 L924,109 L924,125.8525 A0,0 0 0 0 924,125.8525 L1129.9834,125.8525 A0,0 0 0 0 1129.9834,125.8525 L1129.9834,94 L1119.9834,84 L924,84 A0,0 0 0 0 924,84" fill="#FEFFDD" style="stroke:#181818;stroke-width:0.5;"/><path d="M1119.9834,84 L1119.9834,94 L1129.9834,94 L1119.9834,84" fill="#FEFFDD" style="stroke:#181818;stroke-width:0.5;"/><text fill="#000000" font-family="sans-serif" font-size="13" lengthAdjust="spacing" textLength="184.9834" x="930" y="102.0698">The selected Declaration is kept</text><text fill="#000000" font-family="sans-serif" font-size="13" lengthAdjust="spacing" textLength="164.0107" x="930" y="117.9961">temporarily by the controller.</text></g><g class="entity" data-qualified-name="GMN21" data-source-line="112" id="ent0022"><path d="M1194,462 L1194,503.8525 A0,0 0 0 0 1194,503.8525 L1354.4707,503.8525 A0,0 0 0 0 1354.4707,503.8525 L1354.4707,472 L1344.4707,462 L1284.79,462 L1318.53,348.02 L1276.79,462 L1194,462 A0,0 0 0 0 1194,462" fill="#FEFFDD" style="stroke:#181818;stroke-width:0.5;"/><path d="M1344.4707,462 L1344.4707,472 L1354.4707,472 L1344.4707,462" fill="#FEFFDD" style="stroke:#181818;stroke-width:0.5;"/><text fill="#000000" font-family="sans-serif" font-size="13" lengthAdjust="spacing" textLength="139.4707" x="1200" y="480.0698">Used to obtain the list of</text><text fill="#000000" font-family="sans-serif" font-size="13" lengthAdjust="spacing" textLength="133.6816" x="1200" y="495.9961">submitted declarations.</text></g><g class="entity" data-qualified-name="GMN24" data-source-line="117" id="ent0025"><path d="M747,777 L747,898.4839 A0,0 0 0 0 747,898.4839 L956.6206,898.4839 A0,0 0 0 0 956.6206,898.4839 L956.6206,787 L946.6206,777 L856,777 L852,700.11 L848,777 L747,777 A0,0 0 0 0 747,777" fill="#FEFFDD" style="stroke:#181818;stroke-width:0.5;"/><path d="M946.6206,777 L946.6206,787 L956.6206,787 L946.6206,777" fill="#FEFFDD" style="stroke:#181818;stroke-width:0.5;"/><text fill="#000000" font-family="sans-serif" font-size="13" lengthAdjust="spacing" textLength="163.2744" x="753" y="795.0698">If the verdict is APPROVED,</text><text fill="#000000" font-family="sans-serif" font-size="13" lengthAdjust="spacing" textLength="162.6143" x="753" y="810.9961">no annotations are required.</text><text fill="#000000" font-family="sans-serif" font-size="13" lengthAdjust="spacing" textLength="3.6118" x="753" y="826.9224">&#160;</text><text fill="#000000" font-family="sans-serif" font-size="13" lengthAdjust="spacing" textLength="159.6499" x="753" y="842.8486">If the verdict is REJECTED,</text><text fill="#000000" font-family="sans-serif" font-size="13" lengthAdjust="spacing" textLength="188.6206" x="753" y="858.7749">at least one annotation/comment</text><text fill="#000000" font-family="sans-serif" font-size="13" lengthAdjust="spacing" textLength="143.7871" x="753" y="874.7012">with a target section/item</text><text fill="#000000" font-family="sans-serif" font-size="13" lengthAdjust="spacing" textLength="104.7744" x="753" y="890.6274">must be recorded.</text></g><!--class ValidateDeclarationUI--><g class="entity" data-qualified-name="ValidateDeclarationUI" data-source-line="126" id="ent0027"><rect fill="#F1F1F1" height="48" rx="2.5" ry="2.5" style="stroke:#181818;stroke-width:0.5;" width="167.4063" x="358.5" y="81"/><ellipse cx="373.5" cy="97" fill="#ADD1B2" rx="11" ry="11" style="stroke:#181818;stroke-width:1;"/><path d="M376.2656,92.875 Q376.4219,92.6563 376.6094,92.5469 Q376.7969,92.4375 377.0156,92.4375 Q377.3906,92.4375 377.625,92.7031 Q377.8594,92.9531 377.8594,93.5625 L377.8594,95.0156 Q377.8594,95.625 377.625,95.8906 Q377.3906,96.1563 377.0156,96.1563 Q376.6719,96.1563 376.4688,95.9531 Q376.2656,95.7656 376.1563,95.25 Q376.1094,94.8906 375.9219,94.7031 Q375.5938,94.3281 374.9844,94.1094 Q374.375,93.8906 373.75,93.8906 Q372.9844,93.8906 372.3438,94.2188 Q371.7188,94.5469 371.2188,95.2969 Q370.7344,96.0469 370.7344,97.0781 L370.7344,98.1719 Q370.7344,99.4063 371.625,100.2344 Q372.5156,101.0469 374.1094,101.0469 Q375.0469,101.0469 375.7031,100.7969 Q376.0938,100.6406 376.5156,100.2031 Q376.7813,99.9375 376.9219,99.8594 Q377.0781,99.7813 377.2813,99.7813 Q377.6094,99.7813 377.8594,100.0469 Q378.125,100.2969 378.125,100.6406 Q378.125,100.9844 377.7813,101.3906 Q377.2813,101.9688 376.4844,102.2969 Q375.4063,102.75 374.1094,102.75 Q372.5938,102.75 371.3906,102.125 Q370.4063,101.625 369.7188,100.5625 Q369.0313,99.4844 369.0313,98.2031 L369.0313,97.0469 Q369.0313,95.7188 369.6406,94.5781 Q370.2656,93.4219 371.3594,92.8125 Q372.4531,92.1875 373.6875,92.1875 Q374.4219,92.1875 375.0625,92.3594 Q375.7188,92.5156 376.2656,92.875 Z " fill="#000000"/><text fill="#000000" font-family="sans-serif" font-size="14" lengthAdjust="spacing" textLength="135.4063" x="387.5" y="102.4995">ValidateDeclarationUI</text><line style="stroke:#181818;stroke-width:0.5;" x1="359.5" x2="524.9063" y1="113" y2="113"/><line style="stroke:#181818;stroke-width:0.5;" x1="359.5" x2="524.9063" y1="121" y2="121"/></g><!--link ValidateDeclarationUI to ValidateDeclarationController--><g class="link" data-entity-1="ent0027" data-entity-2="ent0017" data-link-type="dependency" data-source-line="129" id="lnk28"><path codeLine="129" d="M525.51,105 C532.14,105 536.33,105 536.33,105 C536.33,105 540.73,105 554.63,105" fill="none" id="ValidateDeclarationUI-to-ValidateDeclarationController" style="stroke:#181818;stroke-width:1;stroke-dasharray:7,7;"/><polygon fill="#181818" points="560.63,105,551.63,101,555.63,105,551.63,109,560.63,105" style="stroke:#181818;stroke-width:1;"/></g><!--link ValidateDeclarationController to Repositories--><g class="link" data-entity-1="ent0017" data-entity-2="ent0016" data-link-type="dependency" data-source-line="131" id="lnk29"><path codeLine="131" d="M889.29,23.47 C910.22,13.09 924.5,6 924.5,6 C924.5,6 1130.5,6 1130.5,6 C1130.5,6 1150.3472,21.2879 1178.0172,42.6079" fill="none" id="ValidateDeclarationController-to-Repositories" style="stroke:#181818;stroke-width:1;stroke-dasharray:7,7;"/><polygon fill="#181818" points="1182.77,46.27,1178.0822,37.6083,1178.8093,43.2183,1173.1994,43.9454,1182.77,46.27" style="stroke:#181818;stroke-width:1;"/></g><!--link ValidateDeclarationController to DeclarationRepository--><g class="link" data-entity-1="ent0017" data-entity-2="ent0014" data-link-type="dependency" data-source-line="132" id="lnk30"><path codeLine="132" d="M889.22,180.89 C900.2,185.9 907,189 907,189 C907,189 1160,219 1160,219 C1160,219 1218.7466,252.1977 1267.9666,280.0177" fill="none" id="ValidateDeclarationController-to-DeclarationRepository" style="stroke:#181818;stroke-width:1;stroke-dasharray:7,7;"/><polygon fill="#181818" points="1273.19,282.97,1267.3232,275.0592,1268.8372,280.5097,1263.3867,282.0237,1273.19,282.97" style="stroke:#181818;stroke-width:1;"/></g><!--link ValidateDeclarationController to UserRepository--><g class="link" data-entity-1="ent0017" data-entity-2="ent0015" data-link-type="dependency" data-source-line="133" id="lnk31"><path codeLine="133" d="M804.22,189 C835.65,221.94 865.7678,253.4793 889.5578,278.4093" fill="none" id="ValidateDeclarationController-to-UserRepository" style="stroke:#181818;stroke-width:1;stroke-dasharray:7,7;"/><polygon fill="#181818" points="893.7,282.75,890.3805,273.4774,890.2481,279.1327,884.5928,279.0004,893.7,282.75" style="stroke:#181818;stroke-width:1;"/></g><!--link ValidateDeclarationController to ApplicationSession--><g class="link" data-entity-1="ent0017" data-entity-2="ent0004" data-link-type="dependency" data-source-line="134" id="lnk32"><path codeLine="134" d="M560.78,180.89 C549.8,185.9 543,189 543,189 C543,189 329,219 329,219 C329,219 278.7204,245.6783 229.3304,271.8783" fill="none" id="ValidateDeclarationController-to-ApplicationSession" style="stroke:#181818;stroke-width:1;stroke-dasharray:7,7;"/><polygon fill="#181818" points="224.03,274.69,233.8551,274.006,228.447,272.3469,230.1061,266.9388,224.03,274.69" style="stroke:#181818;stroke-width:1;"/></g><!--link ValidateDeclarationController to UserSession--><g class="link" data-entity-1="ent0017" data-entity-2="ent0005" data-link-type="dependency" data-source-line="135" id="lnk33"><path codeLine="135" d="M560.78,180.89 C549.8,185.9 543,189 543,189 C543,189 291,219 291,219 C291,219 56,266 56,266 C56,266 56,365 56,365 C56,365 59.0606,409.704 61.4306,444.354" fill="none" id="ValidateDeclarationController-to-UserSession" style="stroke:#181818;stroke-width:1;stroke-dasharray:7,7;"/><polygon fill="#181818" points="61.84,450.34,65.2165,441.088,61.4988,445.3517,57.2352,441.6339,61.84,450.34" style="stroke:#181818;stroke-width:1;"/></g><!--link ValidateDeclarationController to Declaration--><g class="link" data-entity-1="ent0017" data-entity-2="ent0007" data-link-type="dependency" data-source-line="136" id="lnk34"><path codeLine="136" d="M577.7,189 C474.52,247.15 355,314.5 355,314.5 C355,314.5 355,314.5 355,838.5 C355,838.5 391,898 391,898 C391,898 658.4082,962.6595 808.3682,998.9295" fill="none" id="ValidateDeclarationController-to-Declaration" style="stroke:#181818;stroke-width:1;stroke-dasharray:7,7;"/><polygon fill="#181818" points="814.2,1000.34,806.3926,994.3363,809.3401,999.1646,804.5119,1002.1121,814.2,1000.34" style="stroke:#181818;stroke-width:1;"/></g><!--link ValidateDeclarationController to EthicsCommitteeMember--><g class="link" data-entity-1="ent0017" data-entity-2="ent0006" data-link-type="dependency" data-source-line="137" id="lnk35"><path codeLine="137" d="M736.54,189.02 C747.07,264.77 761,365 761,365 C761,365 790.677,403.1534 816.997,437.0034" fill="none" id="ValidateDeclarationController-to-EthicsCommitteeMember" style="stroke:#181818;stroke-width:1;stroke-dasharray:7,7;"/><polygon fill="#181818" points="820.68,441.74,818.3133,432.1797,817.6109,437.7928,811.9978,437.0903,820.68,441.74" style="stroke:#181818;stroke-width:1;"/></g><!--link ValidateDeclarationController to ValidationVerdict--><g class="link" data-entity-1="ent0017" data-entity-2="ent0003" data-link-type="dependency" data-source-line="138" id="lnk36"><path codeLine="138" d="M889.22,180.89 C900.2,185.9 907,189 907,189 C907,189 1087,266 1087,266 C1087,266 1162.3935,660.6367 1187.2135,790.4867" fill="none" id="ValidateDeclarationController-to-ValidationVerdict" style="stroke:#181818;stroke-width:1;stroke-dasharray:7,7;"/><polygon fill="#181818" points="1188.34,796.38,1190.5792,786.7891,1187.4013,791.4689,1182.7214,788.291,1188.34,796.38" style="stroke:#181818;stroke-width:1;"/></g><!--link Repositories to Repositories--><g class="link" data-entity-1="ent0016" data-entity-2="ent0016" data-link-type="dependency" data-source-line="140" id="lnk37"><path codeLine="140" d="M1352.56,82.8 C1372.81,84.97 1387.5,92.37 1387.5,105 C1387.5,117.63 1378.7758,124.3907 1358.5258,126.5607" fill="none" id="Repositories-to-Repositories" style="stroke:#181818;stroke-width:1;"/><polygon fill="#181818" points="1352.56,127.2,1361.935,130.2183,1357.5315,126.6672,1361.0826,122.2638,1352.56,127.2" style="stroke:#181818;stroke-width:1;"/><text fill="#000000" font-family="sans-serif" font-size="13" lengthAdjust="spacing" textLength="48.4199" x="1393.5" y="110.5698">instance</text><text fill="#000000" font-family="sans-serif" font-size="13" lengthAdjust="spacing" textLength="7.23" x="1360.3159" y="126.4939">1</text></g><!--link Repositories to DeclarationRepository--><g class="link" data-entity-1="ent0016" data-entity-2="ent0014" data-link-type="dependency" data-source-line="141" id="lnk38"><path codeLine="141" d="M1295.33,163.82 C1312.8,191.63 1330,219 1330,219 C1330,219 1330,236 1330,236 C1330,236 1329.7545,254.8405 1329.4845,276.5705" fill="none" id="Repositories-to-DeclarationRepository" style="stroke:#181818;stroke-width:1;"/><polygon fill="#181818" points="1329.41,282.57,1333.5215,273.6204,1329.4721,277.5704,1325.5221,273.521,1329.41,282.57" style="stroke:#181818;stroke-width:1;"/><text fill="#000000" font-family="sans-serif" font-size="13" lengthAdjust="spacing" textLength="125.7344" x="1331" y="233.0698">declarationRepository</text><text fill="#000000" font-family="sans-serif" font-size="13" lengthAdjust="spacing" textLength="7.23" x="1321.816" y="272.381">1</text></g><!--link Repositories to UserRepository--><g class="link" data-entity-1="ent0016" data-entity-2="ent0015" data-link-type="dependency" data-source-line="142" id="lnk39"><path codeLine="142" d="M1181.91,163.65 C1162.97,177.81 1148,189 1148,189 C1148,189 1051.8246,242.8875 985.4746,280.0575" fill="none" id="Repositories-to-UserRepository" style="stroke:#181818;stroke-width:1;"/><polygon fill="#181818" points="980.24,282.99,990.0468,282.081,984.6021,280.5463,986.1369,275.1016,980.24,282.99" style="stroke:#181818;stroke-width:1;"/><text fill="#000000" font-family="sans-serif" font-size="13" lengthAdjust="spacing" textLength="87.4263" x="1094" y="233.0698">userRepository</text><text fill="#000000" font-family="sans-serif" font-size="13" lengthAdjust="spacing" textLength="7.23" x="985.4728" y="271.8971">1</text></g><!--link ApplicationSession to ApplicationSession--><g class="link" data-entity-1="ent0004" data-entity-2="ent0004" data-link-type="dependency" data-source-line="144" id="lnk40"><path codeLine="144" d="M224.06,299.15 C243.94,300.08 259,305.53 259,315.5 C259,325.47 249.9334,330.6396 230.0534,331.5696" fill="none" id="ApplicationSession-to-ApplicationSession" style="stroke:#181818;stroke-width:1;"/><polygon fill="#181818" points="224.06,331.85,233.2371,335.4251,229.0545,331.6164,232.8632,327.4338,224.06,331.85" style="stroke:#181818;stroke-width:1;"/><text fill="#000000" font-family="sans-serif" font-size="13" lengthAdjust="spacing" textLength="48.4199" x="265" y="321.0698">instance</text><text fill="#000000" font-family="sans-serif" font-size="13" lengthAdjust="spacing" textLength="7.23" x="232.1581" y="330.8568">1</text></g><!--link ApplicationSession to UserSession--><g class="link" data-entity-1="ent0004" data-entity-2="ent0005" data-link-type="dependency" data-source-line="145" id="lnk41"><path codeLine="145" d="M123.96,365.26 C109.85,392.72 95.3917,420.893 83.0317,444.953" fill="none" id="ApplicationSession-to-UserSession" style="stroke:#181818;stroke-width:1;stroke-dasharray:7,7;"/><polygon fill="#181818" points="80.29,450.29,87.9605,444.1123,82.5747,445.8425,80.8445,440.4568,80.29,450.29" style="stroke:#181818;stroke-width:1;"/></g><!--link DeclarationRepository to Declaration--><g class="link" data-entity-1="ent0014" data-entity-2="ent0007" data-link-type="dependency" data-source-line="147" id="lnk42"><path codeLine="147" d="M1343.85,348.02 C1366.49,396.04 1407,482 1407,482 C1407,482 1407,482 1407,838.5 C1407,838.5 1282,898 1282,898 C1282,898 1121.7053,952.0822 1011.4853,989.2622" fill="none" id="DeclarationRepository-to-Declaration" style="stroke:#181818;stroke-width:1;"/><polygon fill="#181818" points="1005.8,991.18,1015.6064,992.0935,1010.5377,989.5818,1013.0494,984.5132,1005.8,991.18" style="stroke:#181818;stroke-width:1;"/><text fill="#000000" font-family="sans-serif" font-size="13" lengthAdjust="spacing" textLength="70.0972" x="1408" y="656.0698">declarations</text><text fill="#000000" font-family="sans-serif" font-size="13" lengthAdjust="spacing" textLength="5.0591" x="1013.3294" y="986.1426">*</text></g><!--link UserRepository to EthicsCommitteeMember--><g class="link" data-entity-1="ent0015" data-entity-2="ent0006" data-link-type="dependency" data-source-line="148" id="lnk43"><path codeLine="148" d="M910.29,348.02 C898.7,374.65 884.4225,407.4576 871.8825,436.2976" fill="none" id="UserRepository-to-EthicsCommitteeMember" style="stroke:#181818;stroke-width:1;"/><polygon fill="#181818" points="869.49,441.8,876.747,435.1415,871.4837,437.2147,869.4105,431.9515,869.49,441.8" style="stroke:#181818;stroke-width:1;"/><text fill="#000000" font-family="sans-serif" font-size="13" lengthAdjust="spacing" textLength="150.9854" x="889" y="409.0698">ethicsCommitteeMembers</text><text fill="#000000" font-family="sans-serif" font-size="13" lengthAdjust="spacing" textLength="5.0591" x="867.1812" y="431.2507">*</text></g><!--link EthicsCommitteeMember to Validation--><g class="link" data-entity-1="ent0006" data-entity-2="ent0008" data-link-type="dependency" data-source-line="150" id="lnk44"><path codeLine="150" d="M852,524.06 C852,547.21 852,570.5 852,594.96" fill="none" id="EthicsCommitteeMember-to-Validation" style="stroke:#181818;stroke-width:1;"/><polygon fill="#181818" points="852,600.96,856,591.96,852,595.96,848,591.96,852,600.96" style="stroke:#181818;stroke-width:1;"/><text fill="#000000" font-family="sans-serif" font-size="13" lengthAdjust="spacing" textLength="61.4263" x="853" y="568.0698">validations</text><text fill="#000000" font-family="sans-serif" font-size="13" lengthAdjust="spacing" textLength="5.0591" x="846.6215" y="589.9767">*</text></g><!--link Validation to Declaration--><g class="link" data-entity-1="ent0008" data-entity-2="ent0007" data-link-type="dependency" data-source-line="152" id="lnk45"><path codeLine="152" d="M899.56,700.02 C934.17,735.34 975,777 975,777 C975,777 975,898 975,898 C975,898 956.179,934.332 937.889,969.652" fill="none" id="Validation-to-Declaration" style="stroke:#181818;stroke-width:1;"/><polygon fill="#181818" points="935.13,974.98,942.8206,968.8273,937.4292,970.54,935.7166,965.1486,935.13,974.98" style="stroke:#181818;stroke-width:1;"/><text fill="#000000" font-family="sans-serif" font-size="13" lengthAdjust="spacing" textLength="63.5972" x="976" y="843.0698">declaration</text><text fill="#000000" font-family="sans-serif" font-size="13" lengthAdjust="spacing" textLength="7.23" x="931.5979" y="963.9999">1</text></g><!--link Validation to ValidationVerdict--><g class="link" data-entity-1="ent0008" data-entity-2="ent0003" data-link-type="dependency" data-source-line="153" id="lnk46"><path codeLine="153" d="M969.63,700.1 C1008.5,716.16 1042,730 1042,730 C1042,730 1089.2352,762.6672 1132.8452,792.8272" fill="none" id="Validation-to-ValidationVerdict" style="stroke:#181818;stroke-width:1;"/><polygon fill="#181818" points="1137.78,796.24,1132.653,787.8308,1133.6676,793.396,1128.1025,794.4106,1137.78,796.24" style="stroke:#181818;stroke-width:1;"/><text fill="#000000" font-family="sans-serif" font-size="13" lengthAdjust="spacing" textLength="38.2891" x="1065" y="744.0698">verdict</text><text fill="#000000" font-family="sans-serif" font-size="13" lengthAdjust="spacing" textLength="7.23" x="1119.8011" y="785.68">1</text></g><!--link Validation to Annotation--><g class="link" data-entity-1="ent0008" data-entity-2="ent0009" data-link-type="dependency" data-source-line="154" id="lnk47"><path codeLine="154" d="M775.28,700.11 C737.18,724.25 695.9486,750.3691 656.0586,775.6391" fill="none" id="Validation-to-Annotation" style="stroke:#181818;stroke-width:1;"/><polygon fill="#181818" points="650.99,778.85,660.7334,777.4127,655.2138,776.1743,656.4522,770.6546,650.99,778.85" style="stroke:#181818;stroke-width:1;"/><text fill="#000000" font-family="sans-serif" font-size="13" lengthAdjust="spacing" textLength="67.2217" x="725" y="744.0698">annotations</text><text fill="#000000" font-family="sans-serif" font-size="13" lengthAdjust="spacing" textLength="5.0591" x="657.8546" y="768.1197">*</text></g><!--link Annotation to Declaration--><g class="link" data-entity-1="ent0009" data-entity-2="ent0007" data-link-type="dependency" data-source-line="156" id="lnk48"><path codeLine="156" d="M668.82,896.02 C716.68,921.32 766.9853,947.9064 812.7353,972.0864" fill="none" id="Annotation-to-Declaration" style="stroke:#181818;stroke-width:1;"/><polygon fill="#181818" points="818.04,974.89,811.9521,967.1481,813.6194,972.5536,808.2139,974.221,818.04,974.89" style="stroke:#181818;stroke-width:1;"/><text fill="#000000" font-family="sans-serif" font-size="13" lengthAdjust="spacing" textLength="77.3018" x="756" y="942.0698">commentsOn</text><text fill="#000000" font-family="sans-serif" font-size="13" lengthAdjust="spacing" textLength="21.6836" x="784.5961" y="966.0283">0..1</text></g><!--link Declaration to DeclarationStatus--><g class="link" data-entity-1="ent0007" data-entity-2="ent0002" data-link-type="dependency" data-source-line="158" id="lnk49"><path codeLine="158" d="M814.31,1072.41 C741.6,1108.06 654,1151 654,1151 C654,1151 651.9993,1152.2934 641.8793,1158.8334" fill="none" id="Declaration-to-DeclarationStatus" style="stroke:#181818;stroke-width:1;"/><polygon fill="#181818" points="636.84,1162.09,646.57,1160.5646,641.0394,1159.3762,642.2279,1153.8455,636.84,1162.09" style="stroke:#181818;stroke-width:1;"/><text fill="#000000" font-family="sans-serif" font-size="13" lengthAdjust="spacing" textLength="34.6836" x="746" y="1118.0698">status</text><text fill="#000000" font-family="sans-serif" font-size="13" lengthAdjust="spacing" textLength="7.23" x="644.0555" y="1154.9487">1</text></g><!--link Declaration to Subsidy--><g class="link" data-entity-1="ent0007" data-entity-2="ent0010" data-link-type="dependency" data-source-line="159" id="lnk50"><path codeLine="159" d="M862.24,1074.06 C833.28,1103.5 800.9871,1136.3221 773.6771,1164.0921" fill="none" id="Declaration-to-Subsidy" style="stroke:#181818;stroke-width:1;"/><polygon fill="#181818" points="769.47,1168.37,778.6325,1164.7578,772.9759,1164.8051,772.9286,1159.1484,769.47,1168.37" style="stroke:#181818;stroke-width:1;"/><text fill="#000000" font-family="sans-serif" font-size="13" lengthAdjust="spacing" textLength="54.1963" x="831" y="1118.0698">subsidies</text><text fill="#000000" font-family="sans-serif" font-size="13" lengthAdjust="spacing" textLength="5.0591" x="771.2855" y="1157.5312">*</text></g><!--link Declaration to Asset--><g class="link" data-entity-1="ent0007" data-entity-2="ent0011" data-link-type="dependency" data-source-line="160" id="lnk51"><path codeLine="160" d="M910,1074.06 C910,1103.5 910,1134.6 910,1162.37" fill="none" id="Declaration-to-Asset" style="stroke:#181818;stroke-width:1;"/><polygon fill="#181818" points="910,1168.37,914,1159.37,910,1163.37,906,1159.37,910,1168.37" style="stroke:#181818;stroke-width:1;"/><text fill="#000000" font-family="sans-serif" font-size="13" lengthAdjust="spacing" textLength="37.5718" x="911" y="1118.0698">assets</text><text fill="#000000" font-family="sans-serif" font-size="13" lengthAdjust="spacing" textLength="5.0591" x="904.5141" y="1157.5312">*</text></g><!--link Declaration to Position--><g class="link" data-entity-1="ent0007" data-entity-2="ent0012" data-link-type="dependency" data-source-line="161" id="lnk52"><path codeLine="161" d="M962.54,1074.06 C991.18,1100.53 1022.1232,1129.1382 1050.8032,1155.6382" fill="none" id="Declaration-to-Position" style="stroke:#181818;stroke-width:1;"/><polygon fill="#181818" points="1055.21,1159.71,1051.3143,1150.6643,1051.5377,1156.3168,1045.8852,1156.5401,1055.21,1159.71" style="stroke:#181818;stroke-width:1;"/><text fill="#000000" font-family="sans-serif" font-size="13" lengthAdjust="spacing" textLength="51.3081" x="1010" y="1118.0698">positions</text><text fill="#000000" font-family="sans-serif" font-size="13" lengthAdjust="spacing" textLength="5.0591" x="1041.7589" y="1149.0434">*</text></g><!--link Declaration to SecurityHolding--><g class="link" data-entity-1="ent0007" data-entity-2="ent0013" data-link-type="dependency" data-source-line="162" id="lnk53"><path codeLine="162" d="M1005.61,1066.59 C1090.77,1103.19 1202,1151 1202,1151 C1202,1151 1203.9948,1152.2355 1214.2148,1158.6355" fill="none" id="Declaration-to-SecurityHolding" style="stroke:#181818;stroke-width:1;"/><polygon fill="#181818" points="1219.3,1161.82,1213.7952,1153.6532,1215.0623,1159.1663,1209.5492,1160.4334,1219.3,1161.82" style="stroke:#181818;stroke-width:1;"/><text fill="#000000" font-family="sans-serif" font-size="13" lengthAdjust="spacing" textLength="95.3735" x="1132" y="1118.0698">securityHoldings</text><text fill="#000000" font-family="sans-serif" font-size="13" lengthAdjust="spacing" textLength="5.0591" x="1206.3436" y="1154.2675">*</text></g><?plantuml-src dLTDRziu4BthLn2zDDactlQgGm4tSL4lMZI8dTmfQc9pJP5QaahNBVhVTqX952NHYR4v91BdwyqCvsdorXouhAcc5QcKL6olLGN4wWQoGL9JTg0xsDYZ0AA1MIft8bOmUrgg7rpko1CL9fO8Bi4UQo2r4aVtahrD29MsAekicA36BAtLl6Wih9cI6_uJoFii0zbKv1PGGLFByTnIsnZoAoFuitduz6sztQvk_TlZyklwTjc_tQ_-Mjsubz-TaqSgUEbzF88kERETa-NTtVttnuIL1qMMTIquQsE3CVYdixjEY2uklUWT-MKG9sU_oGxiMkABP124U7RJQ0tI3cOXteC1FGxa3Tpngg9SnBehk-VCtAYgujO2V8Eg01sidjk48QhUHJayNv7djWvNn5AD8UxX2H0KWol2q2N2syA_zh9BbfRbKC6Bv_0OmOa2XHgPfgYup-OMeP2SV5MC2lUSTJ1fNMlrF5H7mzzuu-8qXxZ1xH3_bDi8R2hfFXgcjPHIsLRJOiA9SaGE8bY3NO3bx17C1Y-otFLdOszJCTEGp6FBgv3B_qMuQGh3osE0HolLI0UmL4s10zsUIfme7U4Q4ZG6x63C_ccuuNw0g6XWwgQY-W1s8Wg-xbHhEbmCpC7EcjVAG9Od91ggHa9tn-PHDi0QpUtnYnAbOwVG5sx5hF99m07SONPOWsOu54YCYSZHtR-7sYMhz34Uu8qR19pICj8qqy5FcoR7_DEnfGDmloCtmGK74_AF3y_cg6HAiS8OSM9YO-gvKT9g9KGWgEluqc958zt93AVTn4XE5RTLC22GKKxGuEMOXcAjCIF5adC8yrJZFkCNTyJxEDlubUMxlINgwUMSlUlj7hgKe1nnBZVa0BNrIXQgMccgkJYIuaWish3WPe5Vn9Auk5tqGbchAXS-sNJl4RjT4gk8AYpbqdiKt3ZCNcpw5iHjDIz46WZQsw-VlCkEdbqk_OVvoikb8ZJGe25Kkyq46Kb3kSXEUEY_vgq7Qea0wX1BY7pzsVNEw_pWTazenwzOPUOrE5RJYwi6pGk_4obTkiX3UYTl_iCQRppsEIrQV7obvTdBmuJsyNI_fetgwHQ_RZSUzpCCvllHcL7Eruv9utNjv3oUOJTR7RDiHBFN7ycR3s_6r9iJtd7gHBTJJdymydXwec8dNKo-63bfnXtA4hjhPvgGH80JqcbhiZH-3-sFKNRZd4msGTrRf7VPd43gt6HPMh_t5gsCURGicZ1DlXRpLep1ffJd_qRaFUNCr158j2JcCO5XSmQ9Ltw_MComTDHaleyBdaBU_MEKkzq57-Rg2ARV1tF7rlZa-2Abrov-YDVzJQk4VIudTVTu8kPa9SiTgyOd9liF?></g></svg>