<?plantuml 1.2026.2?><svg xmlns="http://www.w3.org/2000/svg" xmlns:xlink="http://www.w3.org/1999/xlink" contentStyleType="text/css" data-diagram-type="CLASS" height="1390px" preserveAspectRatio="none" style="width:1808px;height:1390px;background:#FFFFFF;" version="1.1" viewBox="0 0 1808 1390" width="1808px" zoomAndPan="magnify"><defs/><g><!--class DeclarationStatus--><g class="entity" data-qualified-name="DeclarationStatus" data-source-line="14" id="ent0002"><rect fill="#F1F1F1" height="99.4541" rx="2.5" ry="2.5" style="stroke:#181818;stroke-width:0.5;" width="142.5029" x="683.5" y="1276"/><ellipse cx="698.5" cy="1292" fill="#EB937F" rx="11" ry="11" style="stroke:#181818;stroke-width:1;"/><path d="M697.3594,1292.7969 L697.3594,1295.2969 L701.6875,1295.2969 L701.6875,1294.375 Q701.6875,1293.7656 701.9219,1293.5 Q702.1719,1293.2344 702.5469,1293.2344 Q702.9219,1293.2344 703.1563,1293.5 Q703.3906,1293.7656 703.3906,1294.375 L703.3906,1297 L695.3906,1297 Q694.7656,1297 694.5,1296.7656 Q694.25,1296.5313 694.25,1296.1406 Q694.25,1295.7656 694.5156,1295.5313 Q694.7813,1295.2969 695.3906,1295.2969 L695.6563,1295.2969 L695.6563,1288.6406 L695.3906,1288.6406 Q694.7656,1288.6406 694.5,1288.4063 Q694.25,1288.1719 694.25,1287.7813 Q694.25,1287.4063 694.5,1287.1719 Q694.7656,1286.9375 695.3906,1286.9375 L703.0156,1286.9375 L703.0156,1289.5313 Q703.0156,1290.1406 702.7813,1290.4063 Q702.5625,1290.6563 702.1719,1290.6563 Q701.7969,1290.6563 701.5625,1290.4063 Q701.3281,1290.1406 701.3281,1289.5313 L701.3281,1288.6406 L697.3594,1288.6406 L697.3594,1291.0938 L698.8438,1291.0938 Q698.8438,1290.4375 698.9688,1290.25 Q699.2344,1289.8438 699.7031,1289.8438 Q700.0781,1289.8438 700.3125,1290.1094 Q700.5469,1290.3594 700.5469,1290.9688 L700.5469,1292.9375 Q700.5469,1293.4844 700.4219,1293.6719 Q700.1563,1294.0625 699.7031,1294.0625 Q699.2344,1294.0625 698.9688,1293.6563 Q698.8438,1293.4688 698.8438,1292.7969 L697.3594,1292.7969 Z " fill="#000000"/><text fill="#000000" font-family="sans-serif" font-size="14" lengthAdjust="spacing" textLength="110.5029" x="712.5" y="1297.4995">DeclarationStatus</text><line style="stroke:#181818;stroke-width:0.5;" x1="684.5" x2="825.0029" y1="1308" y2="1308"/><text fill="#000000" font-family="sans-serif" font-size="14" lengthAdjust="spacing" textLength="80.8896" x="689.5" y="1326.0752">SUBMITTED</text><text fill="#000000" font-family="sans-serif" font-size="14" lengthAdjust="spacing" textLength="77.7998" x="689.5" y="1343.2266">VALIDATED</text><text fill="#000000" font-family="sans-serif" font-size="14" lengthAdjust="spacing" textLength="73.8965" x="689.5" y="1360.3779">REJECTED</text><line style="stroke:#181818;stroke-width:0.5;" x1="684.5" x2="825.0029" y1="1367.4541" y2="1367.4541"/></g><!--class ValidationVerdict--><g class="entity" data-qualified-name="ValidationVerdict" data-source-line="20" id="ent0003"><rect fill="#F1F1F1" height="82.3027" rx="2.5" ry="2.5" style="stroke:#181818;stroke-width:0.5;" width="137.0615" x="1538.5" y="912.5"/><ellipse cx="1553.5" cy="928.5" fill="#EB937F" rx="11" ry="11" style="stroke:#181818;stroke-width:1;"/><path d="M1552.3594,929.2969 L1552.3594,931.7969 L1556.6875,931.7969 L1556.6875,930.875 Q1556.6875,930.2656 1556.9219,930 Q1557.1719,929.7344 1557.5469,929.7344 Q1557.9219,929.7344 1558.1563,930 Q1558.3906,930.2656 1558.3906,930.875 L1558.3906,933.5 L1550.3906,933.5 Q1549.7656,933.5 1549.5,933.2656 Q1549.25,933.0313 1549.25,932.6406 Q1549.25,932.2656 1549.5156,932.0313 Q1549.7813,931.7969 1550.3906,931.7969 L1550.6563,931.7969 L1550.6563,925.1406 L1550.3906,925.1406 Q1549.7656,925.1406 1549.5,924.9063 Q1549.25,924.6719 1549.25,924.2813 Q1549.25,923.9063 1549.5,923.6719 Q1549.7656,923.4375 1550.3906,923.4375 L1558.0156,923.4375 L1558.0156,926.0313 Q1558.0156,926.6406 1557.7813,926.9063 Q1557.5625,927.1563 1557.1719,927.1563 Q1556.7969,927.1563 1556.5625,926.9063 Q1556.3281,926.6406 1556.3281,926.0313 L1556.3281,925.1406 L1552.3594,925.1406 L1552.3594,927.5938 L1553.8438,927.5938 Q1553.8438,926.9375 1553.9688,926.75 Q1554.2344,926.3438 1554.7031,926.3438 Q1555.0781,926.3438 1555.3125,926.6094 Q1555.5469,926.8594 1555.5469,927.4688 L1555.5469,929.4375 Q1555.5469,929.9844 1555.4219,930.1719 Q1555.1563,930.5625 1554.7031,930.5625 Q1554.2344,930.5625 1553.9688,930.1563 Q1553.8438,929.9688 1553.8438,929.2969 L1552.3594,929.2969 Z " fill="#000000"/><text fill="#000000" font-family="sans-serif" font-size="14" lengthAdjust="spacing" textLength="105.0615" x="1567.5" y="933.9995">ValidationVerdict</text><line style="stroke:#181818;stroke-width:0.5;" x1="1539.5" x2="1674.5615" y1="944.5" y2="944.5"/><text fill="#000000" font-family="sans-serif" font-size="14" lengthAdjust="spacing" textLength="77.7998" x="1544.5" y="962.5752">APPROVED</text><text fill="#000000" font-family="sans-serif" font-size="14" lengthAdjust="spacing" textLength="73.8965" x="1544.5" y="979.7266">REJECTED</text><line style="stroke:#181818;stroke-width:0.5;" x1="1539.5" x2="1674.5615" y1="986.8027" y2="986.8027"/></g><!--class ApplicationSession--><g class="entity" data-qualified-name="ApplicationSession" data-source-line="25" id="ent0004"><rect fill="#F1F1F1" height="99.4541" rx="2.5" ry="2.5" style="stroke:#181818;stroke-width:0.5;" width="150.2959" x="238" y="271"/><ellipse cx="253" cy="287" fill="#ADD1B2" rx="11" ry="11" style="stroke:#181818;stroke-width:1;"/><path d="M255.7656,282.875 Q255.9219,282.6563 256.1094,282.5469 Q256.2969,282.4375 256.5156,282.4375 Q256.8906,282.4375 257.125,282.7031 Q257.3594,282.9531 257.3594,283.5625 L257.3594,285.0156 Q257.3594,285.625 257.125,285.8906 Q256.8906,286.1563 256.5156,286.1563 Q256.1719,286.1563 255.9688,285.9531 Q255.7656,285.7656 255.6563,285.25 Q255.6094,284.8906 255.4219,284.7031 Q255.0938,284.3281 254.4844,284.1094 Q253.875,283.8906 253.25,283.8906 Q252.4844,283.8906 251.8438,284.2188 Q251.2188,284.5469 250.7188,285.2969 Q250.2344,286.0469 250.2344,287.0781 L250.2344,288.1719 Q250.2344,289.4063 251.125,290.2344 Q252.0156,291.0469 253.6094,291.0469 Q254.5469,291.0469 255.2031,290.7969 Q255.5938,290.6406 256.0156,290.2031 Q256.2813,289.9375 256.4219,289.8594 Q256.5781,289.7813 256.7813,289.7813 Q257.1094,289.7813 257.3594,290.0469 Q257.625,290.2969 257.625,290.6406 Q257.625,290.9844 257.2813,291.3906 Q256.7813,291.9688 255.9844,292.2969 Q254.9063,292.75 253.6094,292.75 Q252.0938,292.75 250.8906,292.125 Q249.9063,291.625 249.2188,290.5625 Q248.5313,289.4844 248.5313,288.2031 L248.5313,287.0469 Q248.5313,285.7188 249.1406,284.5781 Q249.7656,283.4219 250.8594,282.8125 Q251.9531,282.1875 253.1875,282.1875 Q253.9219,282.1875 254.5625,282.3594 Q255.2188,282.5156 255.7656,282.875 Z " fill="#000000"/><text fill="#000000" font-family="sans-serif" font-size="14" lengthAdjust="spacing" textLength="118.2959" x="267" y="292.4995">ApplicationSession</text><line style="stroke:#181818;stroke-width:0.5;" x1="239" x2="387.2959" y1="303" y2="303"/><line style="stroke:#181818;stroke-width:0.5;" x1="239" x2="387.2959" y1="311" y2="311"/><text fill="#000000" font-family="sans-serif" font-size="14" lengthAdjust="spacing" textLength="132.2822" x="244" y="329.0752">-ApplicationSession()</text><text fill="#000000" font-family="sans-serif" font-size="14" lengthAdjust="spacing" text-decoration="underline" textLength="89.8857" x="244" y="346.2266">+getInstance()</text><text fill="#000000" font-family="sans-serif" font-size="14" lengthAdjust="spacing" textLength="133.4512" x="244" y="363.3779">+getCurrentSession()</text></g><!--class UserSession--><g class="entity" data-qualified-name="UserSession" data-source-line="31" id="ent0005"><rect fill="#F1F1F1" height="65.1514" rx="2.5" ry="2.5" style="stroke:#181818;stroke-width:0.5;" width="113.5273" x="249" y="474"/><ellipse cx="264.9729" cy="490" fill="#ADD1B2" rx="11" ry="11" style="stroke:#181818;stroke-width:1;"/><path d="M267.7386,485.875 Q267.8948,485.6563 268.0823,485.5469 Q268.2698,485.4375 268.4886,485.4375 Q268.8636,485.4375 269.0979,485.7031 Q269.3323,485.9531 269.3323,486.5625 L269.3323,488.0156 Q269.3323,488.625 269.0979,488.8906 Q268.8636,489.1563 268.4886,489.1563 Q268.1448,489.1563 267.9417,488.9531 Q267.7386,488.7656 267.6292,488.25 Q267.5823,487.8906 267.3948,487.7031 Q267.0667,487.3281 266.4573,487.1094 Q265.8479,486.8906 265.2229,486.8906 Q264.4573,486.8906 263.8167,487.2188 Q263.1917,487.5469 262.6917,488.2969 Q262.2073,489.0469 262.2073,490.0781 L262.2073,491.1719 Q262.2073,492.4063 263.0979,493.2344 Q263.9886,494.0469 265.5823,494.0469 Q266.5198,494.0469 267.1761,493.7969 Q267.5667,493.6406 267.9886,493.2031 Q268.2542,492.9375 268.3948,492.8594 Q268.5511,492.7813 268.7542,492.7813 Q269.0823,492.7813 269.3323,493.0469 Q269.5979,493.2969 269.5979,493.6406 Q269.5979,493.9844 269.2542,494.3906 Q268.7542,494.9688 267.9573,495.2969 Q266.8792,495.75 265.5823,495.75 Q264.0667,495.75 262.8636,495.125 Q261.8792,494.625 261.1917,493.5625 Q260.5042,492.4844 260.5042,491.2031 L260.5042,490.0469 Q260.5042,488.7188 261.1136,487.5781 Q261.7386,486.4219 262.8323,485.8125 Q263.9261,485.1875 265.1604,485.1875 Q265.8948,485.1875 266.5354,485.3594 Q267.1917,485.5156 267.7386,485.875 Z " fill="#000000"/><text fill="#000000" font-family="sans-serif" font-size="14" lengthAdjust="spacing" textLength="79.3652" x="279.1892" y="495.4995">UserSession</text><line style="stroke:#181818;stroke-width:0.5;" x1="250" x2="361.5273" y1="506" y2="506"/><line style="stroke:#181818;stroke-width:0.5;" x1="250" x2="361.5273" y1="514" y2="514"/><text fill="#000000" font-family="sans-serif" font-size="14" lengthAdjust="spacing" textLength="101.5273" x="255" y="532.0752">+getUserEmail()</text></g><!--class EthicsCommitteeMember--><g class="entity" data-qualified-name="EthicsCommitteeMember" data-source-line="35" id="ent0006"><rect fill="#F1F1F1" height="82.3027" rx="2.5" ry="2.5" style="stroke:#181818;stroke-width:0.5;" width="466.8223" x="877.5" y="465.5"/><ellipse cx="1028.0854" cy="481.5" fill="#ADD1B2" rx="11" ry="11" style="stroke:#181818;stroke-width:1;"/><path d="M1030.8511,477.375 Q1031.0073,477.1563 1031.1948,477.0469 Q1031.3823,476.9375 1031.6011,476.9375 Q1031.9761,476.9375 1032.2104,477.2031 Q1032.4448,477.4531 1032.4448,478.0625 L1032.4448,479.5156 Q1032.4448,480.125 1032.2104,480.3906 Q1031.9761,480.6563 1031.6011,480.6563 Q1031.2573,480.6563 1031.0542,480.4531 Q1030.8511,480.2656 1030.7417,479.75 Q1030.6948,479.3906 1030.5073,479.2031 Q1030.1792,478.8281 1029.5698,478.6094 Q1028.9604,478.3906 1028.3354,478.3906 Q1027.5698,478.3906 1026.9292,478.7188 Q1026.3042,479.0469 1025.8042,479.7969 Q1025.3198,480.5469 1025.3198,481.5781 L1025.3198,482.6719 Q1025.3198,483.9063 1026.2104,484.7344 Q1027.1011,485.5469 1028.6948,485.5469 Q1029.6323,485.5469 1030.2886,485.2969 Q1030.6792,485.1406 1031.1011,484.7031 Q1031.3667,484.4375 1031.5073,484.3594 Q1031.6636,484.2813 1031.8667,484.2813 Q1032.1948,484.2813 1032.4448,484.5469 Q1032.7104,484.7969 1032.7104,485.1406 Q1032.7104,485.4844 1032.3667,485.8906 Q1031.8667,486.4688 1031.0698,486.7969 Q1029.9917,487.25 1028.6948,487.25 Q1027.1792,487.25 1025.9761,486.625 Q1024.9917,486.125 1024.3042,485.0625 Q1023.6167,483.9844 1023.6167,482.7031 L1023.6167,481.5469 Q1023.6167,480.2188 1024.2261,479.0781 Q1024.8511,477.9219 1025.9448,477.3125 Q1027.0386,476.6875 1028.2729,476.6875 Q1029.0073,476.6875 1029.6479,476.8594 Q1030.3042,477.0156 1030.8511,477.375 Z " fill="#000000"/><text fill="#000000" font-family="sans-serif" font-size="14" lengthAdjust="spacing" textLength="157.1514" x="1048.5854" y="486.9995">EthicsCommitteeMember</text><line style="stroke:#181818;stroke-width:0.5;" x1="878.5" x2="1343.3223" y1="497.5" y2="497.5"/><line style="stroke:#181818;stroke-width:0.5;" x1="878.5" x2="1343.3223" y1="505.5" y2="505.5"/><text fill="#000000" font-family="sans-serif" font-size="14" lengthAdjust="spacing" textLength="454.8223" x="883.5" y="523.5752">+validateDeclaration(declaration, verdict, targetReference, commentText)</text><text fill="#000000" font-family="sans-serif" font-size="14" lengthAdjust="spacing" textLength="157.9854" x="883.5" y="540.7266">-addValidation(validation)</text></g><!--class Declaration--><g class="entity" data-qualified-name="Declaration" data-source-line="40" id="ent0007"><rect fill="#F1F1F1" height="99.4541" rx="2.5" ry="2.5" style="stroke:#181818;stroke-width:0.5;" width="190.9717" x="1004.5" y="1091"/><ellipse cx="1060.3291" cy="1107" fill="#ADD1B2" rx="11" ry="11" style="stroke:#181818;stroke-width:1;"/><path d="M1063.0947,1102.875 Q1063.251,1102.6563 1063.4385,1102.5469 Q1063.626,1102.4375 1063.8447,1102.4375 Q1064.2197,1102.4375 1064.4541,1102.7031 Q1064.6885,1102.9531 1064.6885,1103.5625 L1064.6885,1105.0156 Q1064.6885,1105.625 1064.4541,1105.8906 Q1064.2197,1106.1563 1063.8447,1106.1563 Q1063.501,1106.1563 1063.2979,1105.9531 Q1063.0947,1105.7656 1062.9854,1105.25 Q1062.9385,1104.8906 1062.751,1104.7031 Q1062.4229,1104.3281 1061.8135,1104.1094 Q1061.2041,1103.8906 1060.5791,1103.8906 Q1059.8135,1103.8906 1059.1729,1104.2188 Q1058.5479,1104.5469 1058.0479,1105.2969 Q1057.5635,1106.0469 1057.5635,1107.0781 L1057.5635,1108.1719 Q1057.5635,1109.4063 1058.4541,1110.2344 Q1059.3447,1111.0469 1060.9385,1111.0469 Q1061.876,1111.0469 1062.5322,1110.7969 Q1062.9229,1110.6406 1063.3447,1110.2031 Q1063.6104,1109.9375 1063.751,1109.8594 Q1063.9072,1109.7813 1064.1104,1109.7813 Q1064.4385,1109.7813 1064.6885,1110.0469 Q1064.9541,1110.2969 1064.9541,1110.6406 Q1064.9541,1110.9844 1064.6104,1111.3906 Q1064.1104,1111.9688 1063.3135,1112.2969 Q1062.2354,1112.75 1060.9385,1112.75 Q1059.4229,1112.75 1058.2197,1112.125 Q1057.2354,1111.625 1056.5479,1110.5625 Q1055.8604,1109.4844 1055.8604,1108.2031 L1055.8604,1107.0469 Q1055.8604,1105.7188 1056.4697,1104.5781 Q1057.0947,1103.4219 1058.1885,1102.8125 Q1059.2822,1102.1875 1060.5166,1102.1875 Q1061.251,1102.1875 1061.8916,1102.3594 Q1062.5479,1102.5156 1063.0947,1102.875 Z " fill="#000000"/><text fill="#000000" font-family="sans-serif" font-size="14" lengthAdjust="spacing" textLength="70.8135" x="1080.8291" y="1112.4995">Declaration</text><line style="stroke:#181818;stroke-width:0.5;" x1="1005.5" x2="1194.4717" y1="1123" y2="1123"/><text fill="#000000" font-family="sans-serif" font-size="14" lengthAdjust="spacing" textLength="178.9717" x="1010.5" y="1141.0752">-submissionDate : LocalDate</text><line style="stroke:#181818;stroke-width:0.5;" x1="1005.5" x2="1194.4717" y1="1148.1514" y2="1148.1514"/><text fill="#000000" font-family="sans-serif" font-size="14" lengthAdjust="spacing" textLength="68.0928" x="1010.5" y="1166.2266">+approve()</text><text fill="#000000" font-family="sans-serif" font-size="14" lengthAdjust="spacing" textLength="51.7344" x="1010.5" y="1183.3779">+reject()</text></g><!--class Validation--><g class="entity" data-qualified-name="Validation" data-source-line="47" id="ent0008"><rect fill="#F1F1F1" height="99.4541" rx="2.5" ry="2.5" style="stroke:#181818;stroke-width:0.5;" width="326.8086" x="938.5" y="677.5"/><ellipse cx="1066.9097" cy="693.5" fill="#ADD1B2" rx="11" ry="11" style="stroke:#181818;stroke-width:1;"/><path d="M1069.6753,689.375 Q1069.8315,689.1563 1070.019,689.0469 Q1070.2065,688.9375 1070.4253,688.9375 Q1070.8003,688.9375 1071.0347,689.2031 Q1071.269,689.4531 1071.269,690.0625 L1071.269,691.5156 Q1071.269,692.125 1071.0347,692.3906 Q1070.8003,692.6563 1070.4253,692.6563 Q1070.0815,692.6563 1069.8784,692.4531 Q1069.6753,692.2656 1069.5659,691.75 Q1069.519,691.3906 1069.3315,691.2031 Q1069.0034,690.8281 1068.394,690.6094 Q1067.7847,690.3906 1067.1597,690.3906 Q1066.394,690.3906 1065.7534,690.7188 Q1065.1284,691.0469 1064.6284,691.7969 Q1064.144,692.5469 1064.144,693.5781 L1064.144,694.6719 Q1064.144,695.9063 1065.0347,696.7344 Q1065.9253,697.5469 1067.519,697.5469 Q1068.4565,697.5469 1069.1128,697.2969 Q1069.5034,697.1406 1069.9253,696.7031 Q1070.1909,696.4375 1070.3315,696.3594 Q1070.4878,696.2813 1070.6909,696.2813 Q1071.019,696.2813 1071.269,696.5469 Q1071.5347,696.7969 1071.5347,697.1406 Q1071.5347,697.4844 1071.1909,697.8906 Q1070.6909,698.4688 1069.894,698.7969 Q1068.8159,699.25 1067.519,699.25 Q1066.0034,699.25 1064.8003,698.625 Q1063.8159,698.125 1063.1284,697.0625 Q1062.4409,695.9844 1062.4409,694.7031 L1062.4409,693.5469 Q1062.4409,692.2188 1063.0503,691.0781 Q1063.6753,689.9219 1064.769,689.3125 Q1065.8628,688.6875 1067.0972,688.6875 Q1067.8315,688.6875 1068.4722,688.8594 Q1069.1284,689.0156 1069.6753,689.375 Z " fill="#000000"/><text fill="#000000" font-family="sans-serif" font-size="14" lengthAdjust="spacing" textLength="61.4893" x="1087.4097" y="698.9995">Validation</text><line style="stroke:#181818;stroke-width:0.5;" x1="939.5" x2="1264.3086" y1="709.5" y2="709.5"/><text fill="#000000" font-family="sans-serif" font-size="14" lengthAdjust="spacing" textLength="168.0957" x="944.5" y="727.5752">-validationDate : LocalDate</text><line style="stroke:#181818;stroke-width:0.5;" x1="939.5" x2="1264.3086" y1="734.6514" y2="734.6514"/><text fill="#000000" font-family="sans-serif" font-size="14" lengthAdjust="spacing" textLength="196.4922" x="944.5" y="752.7266">+Validation(declaration, verdict)</text><text fill="#000000" font-family="sans-serif" font-size="14" lengthAdjust="spacing" textLength="314.8086" x="944.5" y="769.8779">+addAnnotation(text, targetReference, declaration)</text></g><!--class Annotation--><g class="entity" data-qualified-name="Annotation" data-source-line="54" id="ent0009"><rect fill="#F1F1F1" height="116.6055" rx="2.5" ry="2.5" style="stroke:#181818;stroke-width:0.5;" width="303.4502" x="1200.5" y="895"/><ellipse cx="1314.5029" cy="911" fill="#ADD1B2" rx="11" ry="11" style="stroke:#181818;stroke-width:1;"/><path d="M1317.2686,906.875 Q1317.4248,906.6563 1317.6123,906.5469 Q1317.7998,906.4375 1318.0186,906.4375 Q1318.3936,906.4375 1318.6279,906.7031 Q1318.8623,906.9531 1318.8623,907.5625 L1318.8623,909.0156 Q1318.8623,909.625 1318.6279,909.8906 Q1318.3936,910.1563 1318.0186,910.1563 Q1317.6748,910.1563 1317.4717,909.9531 Q1317.2686,909.7656 1317.1592,909.25 Q1317.1123,908.8906 1316.9248,908.7031 Q1316.5967,908.3281 1315.9873,908.1094 Q1315.3779,907.8906 1314.7529,907.8906 Q1313.9873,907.8906 1313.3467,908.2188 Q1312.7217,908.5469 1312.2217,909.2969 Q1311.7373,910.0469 1311.7373,911.0781 L1311.7373,912.1719 Q1311.7373,913.4063 1312.6279,914.2344 Q1313.5186,915.0469 1315.1123,915.0469 Q1316.0498,915.0469 1316.7061,914.7969 Q1317.0967,914.6406 1317.5186,914.2031 Q1317.7842,913.9375 1317.9248,913.8594 Q1318.0811,913.7813 1318.2842,913.7813 Q1318.6123,913.7813 1318.8623,914.0469 Q1319.1279,914.2969 1319.1279,914.6406 Q1319.1279,914.9844 1318.7842,915.3906 Q1318.2842,915.9688 1317.4873,916.2969 Q1316.4092,916.75 1315.1123,916.75 Q1313.5967,916.75 1312.3936,916.125 Q1311.4092,915.625 1310.7217,914.5625 Q1310.0342,913.4844 1310.0342,912.2031 L1310.0342,911.0469 Q1310.0342,909.7188 1310.6436,908.5781 Q1311.2686,907.4219 1312.3623,906.8125 Q1313.4561,906.1875 1314.6904,906.1875 Q1315.4248,906.1875 1316.0654,906.3594 Q1316.7217,906.5156 1317.2686,906.875 Z " fill="#000000"/><text fill="#000000" font-family="sans-serif" font-size="14" lengthAdjust="spacing" textLength="66.9443" x="1335.0029" y="916.4995">Annotation</text><line style="stroke:#181818;stroke-width:0.5;" x1="1201.5" x2="1502.9502" y1="927" y2="927"/><text fill="#000000" font-family="sans-serif" font-size="14" lengthAdjust="spacing" textLength="75.4688" x="1206.5" y="945.0752">-text : String</text><text fill="#000000" font-family="sans-serif" font-size="14" lengthAdjust="spacing" textLength="153.2959" x="1206.5" y="962.2266">-targetReference : String</text><text fill="#000000" font-family="sans-serif" font-size="14" lengthAdjust="spacing" textLength="189.8613" x="1206.5" y="979.3779">-creationDate : LocalDateTime</text><line style="stroke:#181818;stroke-width:0.5;" x1="1201.5" x2="1502.9502" y1="986.4541" y2="986.4541"/><text fill="#000000" font-family="sans-serif" font-size="14" lengthAdjust="spacing" textLength="291.4502" x="1206.5" y="1004.5293">+Annotation(text, targetReference, declaration)</text></g><!--class SubmittedDeclarationDTO--><g class="entity" data-qualified-name="SubmittedDeclarationDTO" data-source-line="62" id="ent0010"><rect fill="#FFFFFF" height="109.3066" rx="2.5" ry="2.5" style="stroke:#181818;stroke-width:0.5;" width="195.3994" x="59.5" y="672.5"/><ellipse cx="74.5" cy="693.4263" fill="#ADD1B2" rx="11" ry="11" style="stroke:#181818;stroke-width:1;"/><path d="M77.2656,689.3013 Q77.4219,689.0825 77.6094,688.9731 Q77.7969,688.8638 78.0156,688.8638 Q78.3906,688.8638 78.625,689.1294 Q78.8594,689.3794 78.8594,689.9888 L78.8594,691.4419 Q78.8594,692.0513 78.625,692.3169 Q78.3906,692.5825 78.0156,692.5825 Q77.6719,692.5825 77.4688,692.3794 Q77.2656,692.1919 77.1563,691.6763 Q77.1094,691.3169 76.9219,691.1294 Q76.5938,690.7544 75.9844,690.5356 Q75.375,690.3169 74.75,690.3169 Q73.9844,690.3169 73.3438,690.645 Q72.7188,690.9731 72.2188,691.7231 Q71.7344,692.4731 71.7344,693.5044 L71.7344,694.5981 Q71.7344,695.8325 72.625,696.6606 Q73.5156,697.4731 75.1094,697.4731 Q76.0469,697.4731 76.7031,697.2231 Q77.0938,697.0669 77.5156,696.6294 Q77.7813,696.3638 77.9219,696.2856 Q78.0781,696.2075 78.2813,696.2075 Q78.6094,696.2075 78.8594,696.4731 Q79.125,696.7231 79.125,697.0669 Q79.125,697.4106 78.7813,697.8169 Q78.2813,698.395 77.4844,698.7231 Q76.4063,699.1763 75.1094,699.1763 Q73.5938,699.1763 72.3906,698.5513 Q71.4063,698.0513 70.7188,696.9888 Q70.0313,695.9106 70.0313,694.6294 L70.0313,693.4731 Q70.0313,692.145 70.6406,691.0044 Q71.2656,689.8481 72.3594,689.2388 Q73.4531,688.6138 74.6875,688.6138 Q75.4219,688.6138 76.0625,688.7856 Q76.7188,688.9419 77.2656,689.3013 Z " fill="#000000"/><text fill="#000000" font-family="sans-serif" font-size="12" font-style="italic" lengthAdjust="spacing" textLength="38.6777" x="150.8608" y="689.5645">&#171;DTO&#187;</text><text fill="#000000" font-family="sans-serif" font-size="14" lengthAdjust="spacing" textLength="163.3994" x="88.5" y="706.2764">SubmittedDeclarationDTO</text><line style="stroke:#181818;stroke-width:0.5;" x1="60.5" x2="253.8994" y1="714.3525" y2="714.3525"/><text fill="#000000" font-family="sans-serif" font-size="14" lengthAdjust="spacing" textLength="136.582" x="65.5" y="732.4277">+declarationId : String</text><text fill="#000000" font-family="sans-serif" font-size="14" lengthAdjust="spacing" textLength="182.4854" x="65.5" y="749.5791">+submissionDate : LocalDate</text><text fill="#000000" font-family="sans-serif" font-size="14" lengthAdjust="spacing" textLength="167.6992" x="65.5" y="766.7305">+status : DeclarationStatus</text><line style="stroke:#181818;stroke-width:0.5;" x1="60.5" x2="253.8994" y1="773.8066" y2="773.8066"/></g><!--class DeclarationDetailsDTO--><g class="entity" data-qualified-name="DeclarationDetailsDTO" data-source-line="68" id="ent0011"><rect fill="#FFFFFF" height="177.9121" rx="2.5" ry="2.5" style="stroke:#181818;stroke-width:0.5;" width="209.2646" x="289.5" y="638"/><ellipse cx="319.8479" cy="658.9263" fill="#ADD1B2" rx="11" ry="11" style="stroke:#181818;stroke-width:1;"/><path d="M322.6135,654.8013 Q322.7698,654.5825 322.9573,654.4731 Q323.1448,654.3638 323.3635,654.3638 Q323.7385,654.3638 323.9729,654.6294 Q324.2073,654.8794 324.2073,655.4888 L324.2073,656.9419 Q324.2073,657.5513 323.9729,657.8169 Q323.7385,658.0825 323.3635,658.0825 Q323.0198,658.0825 322.8167,657.8794 Q322.6135,657.6919 322.5042,657.1763 Q322.4573,656.8169 322.2698,656.6294 Q321.9417,656.2544 321.3323,656.0356 Q320.7229,655.8169 320.0979,655.8169 Q319.3323,655.8169 318.6917,656.145 Q318.0667,656.4731 317.5667,657.2231 Q317.0823,657.9731 317.0823,659.0044 L317.0823,660.0981 Q317.0823,661.3325 317.9729,662.1606 Q318.8635,662.9731 320.4573,662.9731 Q321.3948,662.9731 322.051,662.7231 Q322.4417,662.5669 322.8635,662.1294 Q323.1292,661.8638 323.2698,661.7856 Q323.426,661.7075 323.6292,661.7075 Q323.9573,661.7075 324.2073,661.9731 Q324.4729,662.2231 324.4729,662.5669 Q324.4729,662.9106 324.1292,663.3169 Q323.6292,663.895 322.8323,664.2231 Q321.7542,664.6763 320.4573,664.6763 Q318.9417,664.6763 317.7385,664.0513 Q316.7542,663.5513 316.0667,662.4888 Q315.3792,661.4106 315.3792,660.1294 L315.3792,658.9731 Q315.3792,657.645 315.9885,656.5044 Q316.6135,655.3481 317.7073,654.7388 Q318.801,654.1138 320.0354,654.1138 Q320.7698,654.1138 321.4104,654.2856 Q322.0667,654.4419 322.6135,654.8013 Z " fill="#000000"/><text fill="#000000" font-family="sans-serif" font-size="12" font-style="italic" lengthAdjust="spacing" textLength="38.6777" x="389.4988" y="655.0645">&#171;DTO&#187;</text><text fill="#000000" font-family="sans-serif" font-size="14" lengthAdjust="spacing" textLength="143.1582" x="337.2585" y="671.7764">DeclarationDetailsDTO</text><line style="stroke:#181818;stroke-width:0.5;" x1="290.5" x2="497.7646" y1="679.8525" y2="679.8525"/><text fill="#000000" font-family="sans-serif" font-size="14" lengthAdjust="spacing" textLength="136.582" x="295.5" y="697.9277">+declarationId : String</text><text fill="#000000" font-family="sans-serif" font-size="14" lengthAdjust="spacing" textLength="182.4854" x="295.5" y="715.0791">+submissionDate : LocalDate</text><text fill="#000000" font-family="sans-serif" font-size="14" lengthAdjust="spacing" textLength="167.6992" x="295.5" y="732.2305">+status : DeclarationStatus</text><text fill="#000000" font-family="sans-serif" font-size="14" lengthAdjust="spacing" textLength="152.9199" x="295.5" y="749.3818">+subsidies : List&lt;String&gt;</text><text fill="#000000" font-family="sans-serif" font-size="14" lengthAdjust="spacing" textLength="135.0166" x="295.5" y="766.5332">+assets : List&lt;String&gt;</text><text fill="#000000" font-family="sans-serif" font-size="14" lengthAdjust="spacing" textLength="149.8096" x="295.5" y="783.6846">+positions : List&lt;String&gt;</text><text fill="#000000" font-family="sans-serif" font-size="14" lengthAdjust="spacing" textLength="197.2646" x="295.5" y="800.8359">+securityHoldings : List&lt;String&gt;</text><line style="stroke:#181818;stroke-width:0.5;" x1="290.5" x2="497.7646" y1="807.9121" y2="807.9121"/></g><!--class ValidationDecisionDTO--><g class="entity" data-qualified-name="ValidationDecisionDTO" data-source-line="78" id="ent0012"><rect fill="#FFFFFF" height="109.3066" rx="2.5" ry="2.5" style="stroke:#181818;stroke-width:0.5;" width="178.1406" x="654" y="266"/><ellipse cx="669.6346" cy="286.9263" fill="#ADD1B2" rx="11" ry="11" style="stroke:#181818;stroke-width:1;"/><path d="M672.4002,282.8013 Q672.5564,282.5825 672.7439,282.4731 Q672.9314,282.3638 673.1502,282.3638 Q673.5252,282.3638 673.7596,282.6294 Q673.9939,282.8794 673.9939,283.4888 L673.9939,284.9419 Q673.9939,285.5513 673.7596,285.8169 Q673.5252,286.0825 673.1502,286.0825 Q672.8064,286.0825 672.6033,285.8794 Q672.4002,285.6919 672.2908,285.1763 Q672.2439,284.8169 672.0564,284.6294 Q671.7283,284.2544 671.1189,284.0356 Q670.5096,283.8169 669.8846,283.8169 Q669.1189,283.8169 668.4783,284.145 Q667.8533,284.4731 667.3533,285.2231 Q666.8689,285.9731 666.8689,287.0044 L666.8689,288.0981 Q666.8689,289.3325 667.7596,290.1606 Q668.6502,290.9731 670.2439,290.9731 Q671.1814,290.9731 671.8377,290.7231 Q672.2283,290.5669 672.6502,290.1294 Q672.9158,289.8638 673.0564,289.7856 Q673.2127,289.7075 673.4158,289.7075 Q673.7439,289.7075 673.9939,289.9731 Q674.2596,290.2231 674.2596,290.5669 Q674.2596,290.9106 673.9158,291.3169 Q673.4158,291.895 672.6189,292.2231 Q671.5408,292.6763 670.2439,292.6763 Q668.7283,292.6763 667.5252,292.0513 Q666.5408,291.5513 665.8533,290.4888 Q665.1658,289.4106 665.1658,288.1294 L665.1658,286.9731 Q665.1658,285.645 665.7752,284.5044 Q666.4002,283.3481 667.4939,282.7388 Q668.5877,282.1138 669.8221,282.1138 Q670.5564,282.1138 671.1971,282.2856 Q671.8533,282.4419 672.4002,282.8013 Z " fill="#000000"/><text fill="#000000" font-family="sans-serif" font-size="12" font-style="italic" lengthAdjust="spacing" textLength="38.6777" x="736.802" y="283.0645">&#171;DTO&#187;</text><text fill="#000000" font-family="sans-serif" font-size="14" lengthAdjust="spacing" textLength="144.7305" x="683.7756" y="299.7764">ValidationDecisionDTO</text><line style="stroke:#181818;stroke-width:0.5;" x1="655" x2="831.1406" y1="307.8525" y2="307.8525"/><text fill="#000000" font-family="sans-serif" font-size="14" lengthAdjust="spacing" textLength="166.1406" x="660" y="325.9277">+verdict : ValidationVerdict</text><text fill="#000000" font-family="sans-serif" font-size="14" lengthAdjust="spacing" textLength="156.8096" x="660" y="343.0791">+targetReference : String</text><text fill="#000000" font-family="sans-serif" font-size="14" lengthAdjust="spacing" textLength="141.2168" x="660" y="360.2305">+commentText : String</text><line style="stroke:#181818;stroke-width:0.5;" x1="655" x2="831.1406" y1="367.3066" y2="367.3066"/></g><!--class ValidationResultDTO--><g class="entity" data-qualified-name="ValidationResultDTO" data-source-line="84" id="ent0013"><rect fill="#FFFFFF" height="126.458" rx="2.5" ry="2.5" style="stroke:#181818;stroke-width:0.5;" width="179.6992" x="534" y="664"/><ellipse cx="556.639" cy="684.9263" fill="#ADD1B2" rx="11" ry="11" style="stroke:#181818;stroke-width:1;"/><path d="M559.4046,680.8013 Q559.5609,680.5825 559.7484,680.4731 Q559.9359,680.3638 560.1546,680.3638 Q560.5296,680.3638 560.764,680.6294 Q560.9984,680.8794 560.9984,681.4888 L560.9984,682.9419 Q560.9984,683.5513 560.764,683.8169 Q560.5296,684.0825 560.1546,684.0825 Q559.8109,684.0825 559.6078,683.8794 Q559.4046,683.6919 559.2953,683.1763 Q559.2484,682.8169 559.0609,682.6294 Q558.7328,682.2544 558.1234,682.0356 Q557.514,681.8169 556.889,681.8169 Q556.1234,681.8169 555.4828,682.145 Q554.8578,682.4731 554.3578,683.2231 Q553.8734,683.9731 553.8734,685.0044 L553.8734,686.0981 Q553.8734,687.3325 554.764,688.1606 Q555.6546,688.9731 557.2484,688.9731 Q558.1859,688.9731 558.8421,688.7231 Q559.2328,688.5669 559.6546,688.1294 Q559.9203,687.8638 560.0609,687.7856 Q560.2171,687.7075 560.4203,687.7075 Q560.7484,687.7075 560.9984,687.9731 Q561.264,688.2231 561.264,688.5669 Q561.264,688.9106 560.9203,689.3169 Q560.4203,689.895 559.6234,690.2231 Q558.5453,690.6763 557.2484,690.6763 Q555.7328,690.6763 554.5296,690.0513 Q553.5453,689.5513 552.8578,688.4888 Q552.1703,687.4106 552.1703,686.1294 L552.1703,684.9731 Q552.1703,683.645 552.7796,682.5044 Q553.4046,681.3481 554.4984,680.7388 Q555.5921,680.1138 556.8265,680.1138 Q557.5609,680.1138 558.2015,680.2856 Q558.8578,680.4419 559.4046,680.8013 Z " fill="#000000"/><text fill="#000000" font-family="sans-serif" font-size="12" font-style="italic" lengthAdjust="spacing" textLength="38.6777" x="618.3595" y="681.0645">&#171;DTO&#187;</text><text fill="#000000" font-family="sans-serif" font-size="14" lengthAdjust="spacing" textLength="130.7236" x="572.3366" y="697.7764">ValidationResultDTO</text><line style="stroke:#181818;stroke-width:0.5;" x1="535" x2="712.6992" y1="705.8525" y2="705.8525"/><text fill="#000000" font-family="sans-serif" font-size="14" lengthAdjust="spacing" textLength="136.582" x="540" y="723.9277">+declarationId : String</text><text fill="#000000" font-family="sans-serif" font-size="14" lengthAdjust="spacing" textLength="167.6992" x="540" y="741.0791">+status : DeclarationStatus</text><text fill="#000000" font-family="sans-serif" font-size="14" lengthAdjust="spacing" textLength="166.1406" x="540" y="758.2305">+verdict : ValidationVerdict</text><text fill="#000000" font-family="sans-serif" font-size="14" lengthAdjust="spacing" textLength="113.2236" x="540" y="775.3818">+message : String</text><line style="stroke:#181818;stroke-width:0.5;" x1="535" x2="712.6992" y1="782.458" y2="782.458"/></g><!--class DeclarationMapper--><g class="entity" data-qualified-name="DeclarationMapper" data-source-line="91" id="ent0014"><rect fill="#FFFFFF" height="109.3066" rx="2.5" ry="2.5" style="stroke:#181818;stroke-width:0.5;" width="444.2432" x="398" y="452"/><ellipse cx="556.7305" cy="472.9263" fill="#ADD1B2" rx="11" ry="11" style="stroke:#181818;stroke-width:1;"/><path d="M559.4961,468.8013 Q559.6523,468.5825 559.8398,468.4731 Q560.0273,468.3638 560.2461,468.3638 Q560.6211,468.3638 560.8555,468.6294 Q561.0898,468.8794 561.0898,469.4888 L561.0898,470.9419 Q561.0898,471.5513 560.8555,471.8169 Q560.6211,472.0825 560.2461,472.0825 Q559.9023,472.0825 559.6992,471.8794 Q559.4961,471.6919 559.3867,471.1763 Q559.3398,470.8169 559.1523,470.6294 Q558.8242,470.2544 558.2148,470.0356 Q557.6055,469.8169 556.9805,469.8169 Q556.2148,469.8169 555.5742,470.145 Q554.9492,470.4731 554.4492,471.2231 Q553.9648,471.9731 553.9648,473.0044 L553.9648,474.0981 Q553.9648,475.3325 554.8555,476.1606 Q555.7461,476.9731 557.3398,476.9731 Q558.2773,476.9731 558.9336,476.7231 Q559.3242,476.5669 559.7461,476.1294 Q560.0117,475.8638 560.1523,475.7856 Q560.3086,475.7075 560.5117,475.7075 Q560.8398,475.7075 561.0898,475.9731 Q561.3555,476.2231 561.3555,476.5669 Q561.3555,476.9106 561.0117,477.3169 Q560.5117,477.895 559.7148,478.2231 Q558.6367,478.6763 557.3398,478.6763 Q555.8242,478.6763 554.6211,478.0513 Q553.6367,477.5513 552.9492,476.4888 Q552.2617,475.4106 552.2617,474.1294 L552.2617,472.9731 Q552.2617,471.645 552.8711,470.5044 Q553.4961,469.3481 554.5898,468.7388 Q555.6836,468.1138 556.918,468.1138 Q557.6523,468.1138 558.293,468.2856 Q558.9492,468.4419 559.4961,468.8013 Z " fill="#000000"/><text fill="#000000" font-family="sans-serif" font-size="12" font-style="italic" lengthAdjust="spacing" textLength="54.0352" x="609.354" y="469.0645">&#171;Mapper&#187;</text><text fill="#000000" font-family="sans-serif" font-size="14" lengthAdjust="spacing" textLength="118.2822" x="577.2305" y="485.7764">DeclarationMapper</text><line style="stroke:#181818;stroke-width:0.5;" x1="399" x2="841.2432" y1="493.8525" y2="493.8525"/><line style="stroke:#181818;stroke-width:0.5;" x1="399" x2="841.2432" y1="501.8525" y2="501.8525"/><text fill="#000000" font-family="sans-serif" font-size="14" lengthAdjust="spacing" textLength="432.2432" x="404" y="519.9277">+toSubmittedDTOList(declarations) : List&lt;SubmittedDeclarationDTO&gt;</text><text fill="#000000" font-family="sans-serif" font-size="14" lengthAdjust="spacing" textLength="324.8369" x="404" y="537.0791">+toDetailsDTO(declaration) : DeclarationDetailsDTO</text><text fill="#000000" font-family="sans-serif" font-size="14" lengthAdjust="spacing" textLength="376.2227" x="404" y="554.2305">+toResultDTO(declaration, validation) : ValidationResultDTO</text></g><!--class Subsidy--><g class="entity" data-qualified-name="Subsidy" data-source-line="97" id="ent0015"><rect fill="#F1F1F1" height="82.3027" rx="2.5" ry="2.5" style="stroke:#181818;stroke-width:0.5;" width="117.0684" x="861.5" y="1284.5"/><ellipse cx="892.3678" cy="1300.5" fill="#ADD1B2" rx="11" ry="11" style="stroke:#181818;stroke-width:1;"/><path d="M895.1334,1296.375 Q895.2896,1296.1563 895.4771,1296.0469 Q895.6646,1295.9375 895.8834,1295.9375 Q896.2584,1295.9375 896.4928,1296.2031 Q896.7271,1296.4531 896.7271,1297.0625 L896.7271,1298.5156 Q896.7271,1299.125 896.4928,1299.3906 Q896.2584,1299.6563 895.8834,1299.6563 Q895.5396,1299.6563 895.3365,1299.4531 Q895.1334,1299.2656 895.024,1298.75 Q894.9771,1298.3906 894.7896,1298.2031 Q894.4615,1297.8281 893.8521,1297.6094 Q893.2428,1297.3906 892.6178,1297.3906 Q891.8521,1297.3906 891.2115,1297.7188 Q890.5865,1298.0469 890.0865,1298.7969 Q889.6021,1299.5469 889.6021,1300.5781 L889.6021,1301.6719 Q889.6021,1302.9063 890.4928,1303.7344 Q891.3834,1304.5469 892.9771,1304.5469 Q893.9146,1304.5469 894.5709,1304.2969 Q894.9615,1304.1406 895.3834,1303.7031 Q895.649,1303.4375 895.7896,1303.3594 Q895.9459,1303.2813 896.149,1303.2813 Q896.4771,1303.2813 896.7271,1303.5469 Q896.9928,1303.7969 896.9928,1304.1406 Q896.9928,1304.4844 896.649,1304.8906 Q896.149,1305.4688 895.3521,1305.7969 Q894.274,1306.25 892.9771,1306.25 Q891.4615,1306.25 890.2584,1305.625 Q889.274,1305.125 888.5865,1304.0625 Q887.899,1302.9844 887.899,1301.7031 L887.899,1300.5469 Q887.899,1299.2188 888.5084,1298.0781 Q889.1334,1296.9219 890.2271,1296.3125 Q891.3209,1295.6875 892.5553,1295.6875 Q893.2896,1295.6875 893.9303,1295.8594 Q894.5865,1296.0156 895.1334,1296.375 Z " fill="#000000"/><text fill="#000000" font-family="sans-serif" font-size="14" lengthAdjust="spacing" textLength="49.8066" x="909.8939" y="1305.9995">Subsidy</text><line style="stroke:#181818;stroke-width:0.5;" x1="862.5" x2="977.5684" y1="1316.5" y2="1316.5"/><text fill="#000000" font-family="sans-serif" font-size="14" lengthAdjust="spacing" textLength="105.0684" x="867.5" y="1334.5752">-amount : double</text><text fill="#000000" font-family="sans-serif" font-size="14" lengthAdjust="spacing" textLength="92.5996" x="867.5" y="1351.7266">-nature : String</text><line style="stroke:#181818;stroke-width:0.5;" x1="862.5" x2="977.5684" y1="1358.8027" y2="1358.8027"/></g><!--class Asset--><g class="entity" data-qualified-name="Asset" data-source-line="102" id="ent0016"><rect fill="#F1F1F1" height="82.3027" rx="2.5" ry="2.5" style="stroke:#181818;stroke-width:0.5;" width="172.3301" x="1014" y="1284.5"/><ellipse cx="1078.4082" cy="1300.5" fill="#ADD1B2" rx="11" ry="11" style="stroke:#181818;stroke-width:1;"/><path d="M1081.1738,1296.375 Q1081.3301,1296.1563 1081.5176,1296.0469 Q1081.7051,1295.9375 1081.9238,1295.9375 Q1082.2988,1295.9375 1082.5332,1296.2031 Q1082.7676,1296.4531 1082.7676,1297.0625 L1082.7676,1298.5156 Q1082.7676,1299.125 1082.5332,1299.3906 Q1082.2988,1299.6563 1081.9238,1299.6563 Q1081.5801,1299.6563 1081.377,1299.4531 Q1081.1738,1299.2656 1081.0645,1298.75 Q1081.0176,1298.3906 1080.8301,1298.2031 Q1080.502,1297.8281 1079.8926,1297.6094 Q1079.2832,1297.3906 1078.6582,1297.3906 Q1077.8926,1297.3906 1077.252,1297.7188 Q1076.627,1298.0469 1076.127,1298.7969 Q1075.6426,1299.5469 1075.6426,1300.5781 L1075.6426,1301.6719 Q1075.6426,1302.9063 1076.5332,1303.7344 Q1077.4238,1304.5469 1079.0176,1304.5469 Q1079.9551,1304.5469 1080.6113,1304.2969 Q1081.002,1304.1406 1081.4238,1303.7031 Q1081.6895,1303.4375 1081.8301,1303.3594 Q1081.9863,1303.2813 1082.1895,1303.2813 Q1082.5176,1303.2813 1082.7676,1303.5469 Q1083.0332,1303.7969 1083.0332,1304.1406 Q1083.0332,1304.4844 1082.6895,1304.8906 Q1082.1895,1305.4688 1081.3926,1305.7969 Q1080.3145,1306.25 1079.0176,1306.25 Q1077.502,1306.25 1076.2988,1305.625 Q1075.3145,1305.125 1074.627,1304.0625 Q1073.9395,1302.9844 1073.9395,1301.7031 L1073.9395,1300.5469 Q1073.9395,1299.2188 1074.5488,1298.0781 Q1075.1738,1296.9219 1076.2676,1296.3125 Q1077.3613,1295.6875 1078.5957,1295.6875 Q1079.3301,1295.6875 1079.9707,1295.8594 Q1080.627,1296.0156 1081.1738,1296.375 Z " fill="#000000"/><text fill="#000000" font-family="sans-serif" font-size="14" lengthAdjust="spacing" textLength="35.0137" x="1098.9082" y="1305.9995">Asset</text><line style="stroke:#181818;stroke-width:0.5;" x1="1015" x2="1185.3301" y1="1316.5" y2="1316.5"/><text fill="#000000" font-family="sans-serif" font-size="14" lengthAdjust="spacing" textLength="160.3301" x="1020" y="1334.5752">-acquisitionValue : double</text><text fill="#000000" font-family="sans-serif" font-size="14" lengthAdjust="spacing" textLength="136.9648" x="1020" y="1351.7266">-marketValue : double</text><line style="stroke:#181818;stroke-width:0.5;" x1="1015" x2="1185.3301" y1="1358.8027" y2="1358.8027"/></g><!--class Position--><g class="entity" data-qualified-name="Position" data-source-line="107" id="ent0017"><rect fill="#F1F1F1" height="99.4541" rx="2.5" ry="2.5" style="stroke:#181818;stroke-width:0.5;" width="152.8613" x="1221.5" y="1276"/><ellipse cx="1268.7773" cy="1292" fill="#ADD1B2" rx="11" ry="11" style="stroke:#181818;stroke-width:1;"/><path d="M1271.543,1287.875 Q1271.6992,1287.6563 1271.8867,1287.5469 Q1272.0742,1287.4375 1272.293,1287.4375 Q1272.668,1287.4375 1272.9023,1287.7031 Q1273.1367,1287.9531 1273.1367,1288.5625 L1273.1367,1290.0156 Q1273.1367,1290.625 1272.9023,1290.8906 Q1272.668,1291.1563 1272.293,1291.1563 Q1271.9492,1291.1563 1271.7461,1290.9531 Q1271.543,1290.7656 1271.4336,1290.25 Q1271.3867,1289.8906 1271.1992,1289.7031 Q1270.8711,1289.3281 1270.2617,1289.1094 Q1269.6523,1288.8906 1269.0273,1288.8906 Q1268.2617,1288.8906 1267.6211,1289.2188 Q1266.9961,1289.5469 1266.4961,1290.2969 Q1266.0117,1291.0469 1266.0117,1292.0781 L1266.0117,1293.1719 Q1266.0117,1294.4063 1266.9023,1295.2344 Q1267.793,1296.0469 1269.3867,1296.0469 Q1270.3242,1296.0469 1270.9805,1295.7969 Q1271.3711,1295.6406 1271.793,1295.2031 Q1272.0586,1294.9375 1272.1992,1294.8594 Q1272.3555,1294.7813 1272.5586,1294.7813 Q1272.8867,1294.7813 1273.1367,1295.0469 Q1273.4023,1295.2969 1273.4023,1295.6406 Q1273.4023,1295.9844 1273.0586,1296.3906 Q1272.5586,1296.9688 1271.7617,1297.2969 Q1270.6836,1297.75 1269.3867,1297.75 Q1267.8711,1297.75 1266.668,1297.125 Q1265.6836,1296.625 1264.9961,1295.5625 Q1264.3086,1294.4844 1264.3086,1293.2031 L1264.3086,1292.0469 Q1264.3086,1290.7188 1264.918,1289.5781 Q1265.543,1288.4219 1266.6367,1287.8125 Q1267.7305,1287.1875 1268.9648,1287.1875 Q1269.6992,1287.1875 1270.3398,1287.3594 Q1270.9961,1287.5156 1271.543,1287.875 Z " fill="#000000"/><text fill="#000000" font-family="sans-serif" font-size="14" lengthAdjust="spacing" textLength="49.8066" x="1289.2773" y="1297.4995">Position</text><line style="stroke:#181818;stroke-width:0.5;" x1="1222.5" x2="1373.3613" y1="1308" y2="1308"/><text fill="#000000" font-family="sans-serif" font-size="14" lengthAdjust="spacing" textLength="136.1719" x="1227.5" y="1326.0752">-startDate : LocalDate</text><text fill="#000000" font-family="sans-serif" font-size="14" lengthAdjust="spacing" textLength="132.3027" x="1227.5" y="1343.2266">-endDate : LocalDate</text><text fill="#000000" font-family="sans-serif" font-size="14" lengthAdjust="spacing" textLength="140.8613" x="1227.5" y="1360.3779">-remuneration : double</text><line style="stroke:#181818;stroke-width:0.5;" x1="1222.5" x2="1373.3613" y1="1367.4541" y2="1367.4541"/></g><!--class SecurityHolding--><g class="entity" data-qualified-name="SecurityHolding" data-source-line="113" id="ent0018"><rect fill="#F1F1F1" height="116.6055" rx="2.5" ry="2.5" style="stroke:#181818;stroke-width:0.5;" width="148.9648" x="1409.5" y="1267"/><ellipse cx="1433.0126" cy="1283" fill="#ADD1B2" rx="11" ry="11" style="stroke:#181818;stroke-width:1;"/><path d="M1435.7783,1278.875 Q1435.9345,1278.6563 1436.122,1278.5469 Q1436.3095,1278.4375 1436.5283,1278.4375 Q1436.9033,1278.4375 1437.1376,1278.7031 Q1437.372,1278.9531 1437.372,1279.5625 L1437.372,1281.0156 Q1437.372,1281.625 1437.1376,1281.8906 Q1436.9033,1282.1563 1436.5283,1282.1563 Q1436.1845,1282.1563 1435.9814,1281.9531 Q1435.7783,1281.7656 1435.6689,1281.25 Q1435.622,1280.8906 1435.4345,1280.7031 Q1435.1064,1280.3281 1434.497,1280.1094 Q1433.8876,1279.8906 1433.2626,1279.8906 Q1432.497,1279.8906 1431.8564,1280.2188 Q1431.2314,1280.5469 1430.7314,1281.2969 Q1430.247,1282.0469 1430.247,1283.0781 L1430.247,1284.1719 Q1430.247,1285.4063 1431.1376,1286.2344 Q1432.0283,1287.0469 1433.622,1287.0469 Q1434.5595,1287.0469 1435.2158,1286.7969 Q1435.6064,1286.6406 1436.0283,1286.2031 Q1436.2939,1285.9375 1436.4345,1285.8594 Q1436.5908,1285.7813 1436.7939,1285.7813 Q1437.122,1285.7813 1437.372,1286.0469 Q1437.6376,1286.2969 1437.6376,1286.6406 Q1437.6376,1286.9844 1437.2939,1287.3906 Q1436.7939,1287.9688 1435.997,1288.2969 Q1434.9189,1288.75 1433.622,1288.75 Q1432.1064,1288.75 1430.9033,1288.125 Q1429.9189,1287.625 1429.2314,1286.5625 Q1428.5439,1285.4844 1428.5439,1284.2031 L1428.5439,1283.0469 Q1428.5439,1281.7188 1429.1533,1280.5781 Q1429.7783,1279.4219 1430.872,1278.8125 Q1431.9658,1278.1875 1433.2001,1278.1875 Q1433.9345,1278.1875 1434.5751,1278.3594 Q1435.2314,1278.5156 1435.7783,1278.875 Z " fill="#000000"/><text fill="#000000" font-family="sans-serif" font-size="14" lengthAdjust="spacing" textLength="98.0479" x="1448.9043" y="1288.4995">SecurityHolding</text><line style="stroke:#181818;stroke-width:0.5;" x1="1410.5" x2="1557.4648" y1="1299" y2="1299"/><text fill="#000000" font-family="sans-serif" font-size="14" lengthAdjust="spacing" textLength="74.6895" x="1415.5" y="1317.0752">-title : String</text><text fill="#000000" font-family="sans-serif" font-size="14" lengthAdjust="spacing" textLength="136.9648" x="1415.5" y="1334.2266">-marketValue : double</text><text fill="#000000" font-family="sans-serif" font-size="14" lengthAdjust="spacing" textLength="91.834" x="1415.5" y="1351.3779">-stake : double</text><text fill="#000000" font-family="sans-serif" font-size="14" lengthAdjust="spacing" textLength="128.4268" x="1415.5" y="1368.5293">-percentage : double</text><line style="stroke:#181818;stroke-width:0.5;" x1="1410.5" x2="1557.4648" y1="1375.6055" y2="1375.6055"/></g><!--class DeclarationRepository--><g class="entity" data-qualified-name="DeclarationRepository" data-source-line="120" id="ent0019"><rect fill="#F1F1F1" height="65.1514" rx="2.5" ry="2.5" style="stroke:#181818;stroke-width:0.5;" width="189.8096" x="1510" y="288"/><ellipse cx="1534.0356" cy="304" fill="#ADD1B2" rx="11" ry="11" style="stroke:#181818;stroke-width:1;"/><path d="M1536.8012,299.875 Q1536.9575,299.6563 1537.145,299.5469 Q1537.3325,299.4375 1537.5512,299.4375 Q1537.9262,299.4375 1538.1606,299.7031 Q1538.395,299.9531 1538.395,300.5625 L1538.395,302.0156 Q1538.395,302.625 1538.1606,302.8906 Q1537.9262,303.1563 1537.5512,303.1563 Q1537.2075,303.1563 1537.0043,302.9531 Q1536.8012,302.7656 1536.6918,302.25 Q1536.645,301.8906 1536.4575,301.7031 Q1536.1293,301.3281 1535.52,301.1094 Q1534.9106,300.8906 1534.2856,300.8906 Q1533.52,300.8906 1532.8793,301.2188 Q1532.2543,301.5469 1531.7543,302.2969 Q1531.27,303.0469 1531.27,304.0781 L1531.27,305.1719 Q1531.27,306.4063 1532.1606,307.2344 Q1533.0512,308.0469 1534.645,308.0469 Q1535.5825,308.0469 1536.2387,307.7969 Q1536.6293,307.6406 1537.0512,307.2031 Q1537.3168,306.9375 1537.4575,306.8594 Q1537.6137,306.7813 1537.8168,306.7813 Q1538.145,306.7813 1538.395,307.0469 Q1538.6606,307.2969 1538.6606,307.6406 Q1538.6606,307.9844 1538.3168,308.3906 Q1537.8168,308.9688 1537.02,309.2969 Q1535.9418,309.75 1534.645,309.75 Q1533.1293,309.75 1531.9262,309.125 Q1530.9418,308.625 1530.2543,307.5625 Q1529.5668,306.4844 1529.5668,305.2031 L1529.5668,304.0469 Q1529.5668,302.7188 1530.1762,301.5781 Q1530.8012,300.4219 1531.895,299.8125 Q1532.9887,299.1875 1534.2231,299.1875 Q1534.9575,299.1875 1535.5981,299.3594 Q1536.2543,299.5156 1536.8012,299.875 Z " fill="#000000"/><text fill="#000000" font-family="sans-serif" font-size="14" lengthAdjust="spacing" textLength="137.7305" x="1550.0435" y="309.4995">DeclarationRepository</text><line style="stroke:#181818;stroke-width:0.5;" x1="1511" x2="1698.8096" y1="320" y2="320"/><line style="stroke:#181818;stroke-width:0.5;" x1="1511" x2="1698.8096" y1="328" y2="328"/><text fill="#000000" font-family="sans-serif" font-size="14" lengthAdjust="spacing" textLength="177.8096" x="1516" y="346.0752">+getSubmittedDeclarations()</text></g><!--class UserRepository--><g class="entity" data-qualified-name="UserRepository" data-source-line="124" id="ent0020"><rect fill="#F1F1F1" height="65.1514" rx="2.5" ry="2.5" style="stroke:#181818;stroke-width:0.5;" width="290.9131" x="1009.5" y="288"/><ellipse cx="1102.4688" cy="304" fill="#ADD1B2" rx="11" ry="11" style="stroke:#181818;stroke-width:1;"/><path d="M1105.2344,299.875 Q1105.3906,299.6563 1105.5781,299.5469 Q1105.7656,299.4375 1105.9844,299.4375 Q1106.3594,299.4375 1106.5938,299.7031 Q1106.8281,299.9531 1106.8281,300.5625 L1106.8281,302.0156 Q1106.8281,302.625 1106.5938,302.8906 Q1106.3594,303.1563 1105.9844,303.1563 Q1105.6406,303.1563 1105.4375,302.9531 Q1105.2344,302.7656 1105.125,302.25 Q1105.0781,301.8906 1104.8906,301.7031 Q1104.5625,301.3281 1103.9531,301.1094 Q1103.3438,300.8906 1102.7188,300.8906 Q1101.9531,300.8906 1101.3125,301.2188 Q1100.6875,301.5469 1100.1875,302.2969 Q1099.7031,303.0469 1099.7031,304.0781 L1099.7031,305.1719 Q1099.7031,306.4063 1100.5938,307.2344 Q1101.4844,308.0469 1103.0781,308.0469 Q1104.0156,308.0469 1104.6719,307.7969 Q1105.0625,307.6406 1105.4844,307.2031 Q1105.75,306.9375 1105.8906,306.8594 Q1106.0469,306.7813 1106.25,306.7813 Q1106.5781,306.7813 1106.8281,307.0469 Q1107.0938,307.2969 1107.0938,307.6406 Q1107.0938,307.9844 1106.75,308.3906 Q1106.25,308.9688 1105.4531,309.2969 Q1104.375,309.75 1103.0781,309.75 Q1101.5625,309.75 1100.3594,309.125 Q1099.375,308.625 1098.6875,307.5625 Q1098,306.4844 1098,305.2031 L1098,304.0469 Q1098,302.7188 1098.6094,301.5781 Q1099.2344,300.4219 1100.3281,299.8125 Q1101.4219,299.1875 1102.6563,299.1875 Q1103.3906,299.1875 1104.0313,299.3594 Q1104.6875,299.5156 1105.2344,299.875 Z " fill="#000000"/><text fill="#000000" font-family="sans-serif" font-size="14" lengthAdjust="spacing" textLength="96.4756" x="1122.9688" y="309.4995">UserRepository</text><line style="stroke:#181818;stroke-width:0.5;" x1="1010.5" x2="1299.4131" y1="320" y2="320"/><line style="stroke:#181818;stroke-width:0.5;" x1="1010.5" x2="1299.4131" y1="328" y2="328"/><text fill="#000000" font-family="sans-serif" font-size="14" lengthAdjust="spacing" textLength="278.9131" x="1015.5" y="346.0752">+getEthicsCommitteeMemberByEmail(email)</text></g><!--class Repositories--><g class="entity" data-qualified-name="Repositories" data-source-line="128" id="ent0021"><rect fill="#F1F1F1" height="116.6055" rx="2.5" ry="2.5" style="stroke:#181818;stroke-width:0.5;" width="186.6924" x="1385.5" y="46.5"/><ellipse cx="1435.6895" cy="62.5" fill="#ADD1B2" rx="11" ry="11" style="stroke:#181818;stroke-width:1;"/><path d="M1438.4551,58.375 Q1438.6113,58.1563 1438.7988,58.0469 Q1438.9863,57.9375 1439.2051,57.9375 Q1439.5801,57.9375 1439.8145,58.2031 Q1440.0488,58.4531 1440.0488,59.0625 L1440.0488,60.5156 Q1440.0488,61.125 1439.8145,61.3906 Q1439.5801,61.6563 1439.2051,61.6563 Q1438.8613,61.6563 1438.6582,61.4531 Q1438.4551,61.2656 1438.3457,60.75 Q1438.2988,60.3906 1438.1113,60.2031 Q1437.7832,59.8281 1437.1738,59.6094 Q1436.5645,59.3906 1435.9395,59.3906 Q1435.1738,59.3906 1434.5332,59.7188 Q1433.9082,60.0469 1433.4082,60.7969 Q1432.9238,61.5469 1432.9238,62.5781 L1432.9238,63.6719 Q1432.9238,64.9063 1433.8145,65.7344 Q1434.7051,66.5469 1436.2988,66.5469 Q1437.2363,66.5469 1437.8926,66.2969 Q1438.2832,66.1406 1438.7051,65.7031 Q1438.9707,65.4375 1439.1113,65.3594 Q1439.2676,65.2813 1439.4707,65.2813 Q1439.7988,65.2813 1440.0488,65.5469 Q1440.3145,65.7969 1440.3145,66.1406 Q1440.3145,66.4844 1439.9707,66.8906 Q1439.4707,67.4688 1438.6738,67.7969 Q1437.5957,68.25 1436.2988,68.25 Q1434.7832,68.25 1433.5801,67.625 Q1432.5957,67.125 1431.9082,66.0625 Q1431.2207,64.9844 1431.2207,63.7031 L1431.2207,62.5469 Q1431.2207,61.2188 1431.8301,60.0781 Q1432.4551,58.9219 1433.5488,58.3125 Q1434.6426,57.6875 1435.877,57.6875 Q1436.6113,57.6875 1437.252,57.8594 Q1437.9082,58.0156 1438.4551,58.375 Z " fill="#000000"/><text fill="#000000" font-family="sans-serif" font-size="14" lengthAdjust="spacing" textLength="77.8135" x="1456.1895" y="67.9995">Repositories</text><line style="stroke:#181818;stroke-width:0.5;" x1="1386.5" x2="1571.1924" y1="78.5" y2="78.5"/><line style="stroke:#181818;stroke-width:0.5;" x1="1386.5" x2="1571.1924" y1="86.5" y2="86.5"/><text fill="#000000" font-family="sans-serif" font-size="14" lengthAdjust="spacing" textLength="91.7998" x="1391.5" y="104.5752">-Repositories()</text><text fill="#000000" font-family="sans-serif" font-size="14" lengthAdjust="spacing" text-decoration="underline" textLength="89.8857" x="1391.5" y="121.7266">+getInstance()</text><text fill="#000000" font-family="sans-serif" font-size="14" lengthAdjust="spacing" textLength="174.6924" x="1391.5" y="138.8779">+getDeclarationRepository()</text><text fill="#000000" font-family="sans-serif" font-size="14" lengthAdjust="spacing" textLength="133.4375" x="1391.5" y="156.0293">+getUserRepository()</text></g><!--class ValidateDeclarationController--><g class="entity" data-qualified-name="ValidateDeclarationController" data-source-line="135" id="ent0022"><rect fill="#F1F1F1" height="168.0596" rx="2.5" ry="2.5" style="stroke:#181818;stroke-width:0.5;" width="403.0156" x="690.5" y="21"/><ellipse cx="796.71" cy="37" fill="#ADD1B2" rx="11" ry="11" style="stroke:#181818;stroke-width:1;"/><path d="M799.4756,32.875 Q799.6318,32.6563 799.8193,32.5469 Q800.0068,32.4375 800.2256,32.4375 Q800.6006,32.4375 800.835,32.7031 Q801.0693,32.9531 801.0693,33.5625 L801.0693,35.0156 Q801.0693,35.625 800.835,35.8906 Q800.6006,36.1563 800.2256,36.1563 Q799.8818,36.1563 799.6787,35.9531 Q799.4756,35.7656 799.3662,35.25 Q799.3193,34.8906 799.1318,34.7031 Q798.8037,34.3281 798.1943,34.1094 Q797.585,33.8906 796.96,33.8906 Q796.1943,33.8906 795.5537,34.2188 Q794.9287,34.5469 794.4287,35.2969 Q793.9443,36.0469 793.9443,37.0781 L793.9443,38.1719 Q793.9443,39.4063 794.835,40.2344 Q795.7256,41.0469 797.3193,41.0469 Q798.2568,41.0469 798.9131,40.7969 Q799.3037,40.6406 799.7256,40.2031 Q799.9912,39.9375 800.1318,39.8594 Q800.2881,39.7813 800.4912,39.7813 Q800.8193,39.7813 801.0693,40.0469 Q801.335,40.2969 801.335,40.6406 Q801.335,40.9844 800.9912,41.3906 Q800.4912,41.9688 799.6943,42.2969 Q798.6162,42.75 797.3193,42.75 Q795.8037,42.75 794.6006,42.125 Q793.6162,41.625 792.9287,40.5625 Q792.2412,39.4844 792.2412,38.2031 L792.2412,37.0469 Q792.2412,35.7188 792.8506,34.5781 Q793.4756,33.4219 794.5693,32.8125 Q795.6631,32.1875 796.8975,32.1875 Q797.6318,32.1875 798.2725,32.3594 Q798.9287,32.5156 799.4756,32.875 Z " fill="#000000"/><text fill="#000000" font-family="sans-serif" font-size="14" lengthAdjust="spacing" textLength="182.0957" x="817.21" y="42.4995">ValidateDeclarationController</text><line style="stroke:#181818;stroke-width:0.5;" x1="691.5" x2="1092.5156" y1="53" y2="53"/><text fill="#000000" font-family="sans-serif" font-size="14" lengthAdjust="spacing" textLength="155.6338" x="696.5" y="71.0752">-declaration : Declaration</text><line style="stroke:#181818;stroke-width:0.5;" x1="691.5" x2="1092.5156" y1="78.1514" y2="78.1514"/><text fill="#000000" font-family="sans-serif" font-size="14" lengthAdjust="spacing" textLength="199.5957" x="696.5" y="96.2266">+ValidateDeclarationController()</text><text fill="#000000" font-family="sans-serif" font-size="14" lengthAdjust="spacing" textLength="391.0156" x="696.5" y="113.3779">+getSubmittedDeclarations() : List&lt;SubmittedDeclarationDTO&gt;</text><text fill="#000000" font-family="sans-serif" font-size="14" lengthAdjust="spacing" textLength="359.8779" x="696.5" y="130.5293">+selectDeclaration(declarationId) : DeclarationDetailsDTO</text><text fill="#000000" font-family="sans-serif" font-size="14" lengthAdjust="spacing" textLength="362.2158" x="696.5" y="147.6807">+approveDeclaration(decisionDTO) : ValidationResultDTO</text><text fill="#000000" font-family="sans-serif" font-size="14" lengthAdjust="spacing" textLength="345.8574" x="696.5" y="164.832">+rejectDeclaration(decisionDTO) : ValidationResultDTO</text><text fill="#000000" font-family="sans-serif" font-size="14" lengthAdjust="spacing" textLength="273.0684" x="696.5" y="181.9834">-getEthicsCommitteeMemberFromSession()</text></g><g class="entity" data-qualified-name="GMN23" data-source-line="147" id="ent0024"><path d="M1129,84 L1129,125.8525 L1334.9834,125.8525 L1334.9834,94 L1324.9834,84 L1129,84" fill="#FEFFDD" style="stroke:#181818;stroke-width:0.5;"/><path d="M1324.9834,84 L1324.9834,94 L1334.9834,94 L1324.9834,84" fill="#FEFFDD" style="stroke:#181818;stroke-width:1;"/><text fill="#000000" font-family="sans-serif" font-size="13" lengthAdjust="spacing" textLength="184.9834" x="1135" y="102.0698">The selected Declaration is kept</text><text fill="#000000" font-family="sans-serif" font-size="13" lengthAdjust="spacing" textLength="164.0107" x="1135" y="117.9961">temporarily by the controller.</text></g><g class="entity" data-qualified-name="GMN26" data-source-line="152" id="ent0027"><path d="M1516,485.5 L1516,527.3525 A0,0 0 0 0 1516,527.3525 L1676.4707,527.3525 A0,0 0 0 0 1676.4707,527.3525 L1676.4707,495.5 L1666.4707,485.5 L1600.99,485.5 L1603.45,353.13 L1592.99,485.5 L1516,485.5 A0,0 0 0 0 1516,485.5" fill="#FEFFDD" style="stroke:#181818;stroke-width:0.5;"/><path d="M1666.4707,485.5 L1666.4707,495.5 L1676.4707,495.5 L1666.4707,485.5" fill="#FEFFDD" style="stroke:#181818;stroke-width:0.5;"/><text fill="#000000" font-family="sans-serif" font-size="13" lengthAdjust="spacing" textLength="139.4707" x="1522" y="503.5698">Used to obtain the list of</text><text fill="#000000" font-family="sans-serif" font-size="13" lengthAdjust="spacing" textLength="133.6816" x="1522" y="519.4961">submitted declarations.</text></g><g class="entity" data-qualified-name="GMN29" data-source-line="157" id="ent0030"><path d="M820,893 L820,1014.4839 A0,0 0 0 0 820,1014.4839 L1029.6206,1014.4839 A0,0 0 0 0 1029.6206,1014.4839 L1029.6206,903 L1019.6206,893 L976.16,893 L1063.59,776.71 L968.16,893 L820,893 A0,0 0 0 0 820,893" fill="#FEFFDD" style="stroke:#181818;stroke-width:0.5;"/><path d="M1019.6206,893 L1019.6206,903 L1029.6206,903 L1019.6206,893" fill="#FEFFDD" style="stroke:#181818;stroke-width:0.5;"/><text fill="#000000" font-family="sans-serif" font-size="13" lengthAdjust="spacing" textLength="163.2744" x="826" y="911.0698">If the verdict is APPROVED,</text><text fill="#000000" font-family="sans-serif" font-size="13" lengthAdjust="spacing" textLength="162.6143" x="826" y="926.9961">no annotations are required.</text><text fill="#000000" font-family="sans-serif" font-size="13" lengthAdjust="spacing" textLength="3.6118" x="826" y="942.9224">&#160;</text><text fill="#000000" font-family="sans-serif" font-size="13" lengthAdjust="spacing" textLength="159.6499" x="826" y="958.8486">If the verdict is REJECTED,</text><text fill="#000000" font-family="sans-serif" font-size="13" lengthAdjust="spacing" textLength="188.6206" x="826" y="974.7749">at least one annotation/comment</text><text fill="#000000" font-family="sans-serif" font-size="13" lengthAdjust="spacing" textLength="143.7871" x="826" y="990.7012">with a target section/item</text><text fill="#000000" font-family="sans-serif" font-size="13" lengthAdjust="spacing" textLength="104.7744" x="826" y="1006.6274">must be recorded.</text></g><!--class ValidateDeclarationUI--><g class="entity" data-qualified-name="ValidateDeclarationUI" data-source-line="166" id="ent0032"><rect fill="#F1F1F1" height="48" rx="2.5" ry="2.5" style="stroke:#181818;stroke-width:0.5;" width="167.4063" x="488.5" y="81"/><ellipse cx="503.5" cy="97" fill="#ADD1B2" rx="11" ry="11" style="stroke:#181818;stroke-width:1;"/><path d="M506.2656,92.875 Q506.4219,92.6563 506.6094,92.5469 Q506.7969,92.4375 507.0156,92.4375 Q507.3906,92.4375 507.625,92.7031 Q507.8594,92.9531 507.8594,93.5625 L507.8594,95.0156 Q507.8594,95.625 507.625,95.8906 Q507.3906,96.1563 507.0156,96.1563 Q506.6719,96.1563 506.4688,95.9531 Q506.2656,95.7656 506.1563,95.25 Q506.1094,94.8906 505.9219,94.7031 Q505.5938,94.3281 504.9844,94.1094 Q504.375,93.8906 503.75,93.8906 Q502.9844,93.8906 502.3438,94.2188 Q501.7188,94.5469 501.2188,95.2969 Q500.7344,96.0469 500.7344,97.0781 L500.7344,98.1719 Q500.7344,99.4063 501.625,100.2344 Q502.5156,101.0469 504.1094,101.0469 Q505.0469,101.0469 505.7031,100.7969 Q506.0938,100.6406 506.5156,100.2031 Q506.7813,99.9375 506.9219,99.8594 Q507.0781,99.7813 507.2813,99.7813 Q507.6094,99.7813 507.8594,100.0469 Q508.125,100.2969 508.125,100.6406 Q508.125,100.9844 507.7813,101.3906 Q507.2813,101.9688 506.4844,102.2969 Q505.4063,102.75 504.1094,102.75 Q502.5938,102.75 501.3906,102.125 Q500.4063,101.625 499.7188,100.5625 Q499.0313,99.4844 499.0313,98.2031 L499.0313,97.0469 Q499.0313,95.7188 499.6406,94.5781 Q500.2656,93.4219 501.3594,92.8125 Q502.4531,92.1875 503.6875,92.1875 Q504.4219,92.1875 505.0625,92.3594 Q505.7188,92.5156 506.2656,92.875 Z " fill="#000000"/><text fill="#000000" font-family="sans-serif" font-size="14" lengthAdjust="spacing" textLength="135.4063" x="517.5" y="102.4995">ValidateDeclarationUI</text><line style="stroke:#181818;stroke-width:0.5;" x1="489.5" x2="654.9063" y1="113" y2="113"/><line style="stroke:#181818;stroke-width:0.5;" x1="489.5" x2="654.9063" y1="121" y2="121"/></g><!--link ValidateDeclarationController to GMN23--><g class="link" data-entity-1="ent0022" data-entity-2="ent0024" data-link-type="association" data-source-line="147" id="lnk25"><path d="M1093.51,105 C1108.15,105 1118.67,105 1118.67,105 C1118.67,105 1122.49,105 1128.72,105" fill="none" id="ValidateDeclarationController-GMN23" style="stroke:#181818;stroke-width:1;stroke-dasharray:7,7;"/></g><!--link ValidateDeclarationUI to ValidateDeclarationController--><g class="link" data-entity-1="ent0032" data-entity-2="ent0022" data-link-type="dependency" data-source-line="169" id="lnk33"><path codeLine="169" d="M655.52,105 C669.02,105 678.67,105 678.67,105 C678.67,105 677.24,105 684.49,105" fill="none" id="ValidateDeclarationUI-to-ValidateDeclarationController" style="stroke:#181818;stroke-width:1;stroke-dasharray:7,7;"/><polygon fill="#181818" points="690.49,105,681.49,101,685.49,105,681.49,109,690.49,105" style="stroke:#181818;stroke-width:1;"/></g><!--link ValidateDeclarationController to Repositories--><g class="link" data-entity-1="ent0022" data-entity-2="ent0021" data-link-type="dependency" data-source-line="171" id="lnk34"><path codeLine="171" d="M1093.69,20.93 C1115.23,11.95 1129.5,6 1129.5,6 C1129.5,6 1335.5,6 1335.5,6 C1335.5,6 1358.0314,21.5426 1388.9314,42.8626" fill="none" id="ValidateDeclarationController-to-Repositories" style="stroke:#181818;stroke-width:1;stroke-dasharray:7,7;"/><polygon fill="#181818" points="1393.87,46.27,1388.7338,37.8665,1389.7545,43.4305,1384.1905,44.4512,1393.87,46.27" style="stroke:#181818;stroke-width:1;"/></g><!--link ValidateDeclarationController to DeclarationRepository--><g class="link" data-entity-1="ent0022" data-entity-2="ent0019" data-link-type="dependency" data-source-line="172" id="lnk35"><path codeLine="172" d="M1093.62,182.07 C1105.05,186.38 1112,189 1112,189 C1112,189 1399,219 1399,219 C1399,219 1474.5776,255.869 1534.9976,285.349" fill="none" id="ValidateDeclarationController-to-DeclarationRepository" style="stroke:#181818;stroke-width:1;stroke-dasharray:7,7;"/><polygon fill="#181818" points="1540.39,287.98,1534.0555,280.4385,1535.8964,285.7875,1530.5474,287.6284,1540.39,287.98" style="stroke:#181818;stroke-width:1;"/></g><!--link ValidateDeclarationController to UserRepository--><g class="link" data-entity-1="ent0022" data-entity-2="ent0020" data-link-type="dependency" data-source-line="173" id="lnk36"><path codeLine="173" d="M994.44,189.16 C1037.13,223.81 1079.4613,258.179 1111.5213,284.199" fill="none" id="ValidateDeclarationController-to-UserRepository" style="stroke:#181818;stroke-width:1;stroke-dasharray:7,7;"/><polygon fill="#181818" points="1116.18,287.98,1111.7126,279.2026,1112.2977,284.8291,1106.6712,285.4143,1116.18,287.98" style="stroke:#181818;stroke-width:1;"/></g><!--link ValidateDeclarationController to ApplicationSession--><g class="link" data-entity-1="ent0022" data-entity-2="ent0004" data-link-type="dependency" data-source-line="174" id="lnk37"><path codeLine="174" d="M690.18,182.49 C679.47,186.55 673,189 673,189 C673,189 548,219 548,219 C548,219 462.2968,255.651 393.5168,285.061" fill="none" id="ValidateDeclarationController-to-ApplicationSession" style="stroke:#181818;stroke-width:1;stroke-dasharray:7,7;"/><polygon fill="#181818" points="388,287.42,397.8479,287.5594,392.5973,285.4542,394.7026,280.2037,388,287.42" style="stroke:#181818;stroke-width:1;"/></g><!--link ValidateDeclarationController to UserSession--><g class="link" data-entity-1="ent0022" data-entity-2="ent0005" data-link-type="dependency" data-source-line="175" id="lnk38"><path codeLine="175" d="M759.13,189.05 C696.79,228.01 636,266 636,266 C636,266 443.946,405.386 354.336,470.416" fill="none" id="ValidateDeclarationController-to-UserSession" style="stroke:#181818;stroke-width:1;stroke-dasharray:7,7;"/><polygon fill="#181818" points="349.48,473.94,359.1134,471.8913,353.5267,471.0033,354.4147,465.4166,349.48,473.94" style="stroke:#181818;stroke-width:1;"/></g><!--link ValidateDeclarationController to Declaration--><g class="link" data-entity-1="ent0022" data-entity-2="ent0007" data-link-type="dependency" data-source-line="176" id="lnk39"><path codeLine="176" d="M690.18,182.49 C679.47,186.55 673,189 673,189 C673,189 220,266 220,266 C220,266 6,319.5 6,319.5 C6,319.5 6,319.5 6,954.5 C6,954.5 731.874,1077.2495 998.434,1122.3295" fill="none" id="ValidateDeclarationController-to-Declaration" style="stroke:#181818;stroke-width:1;stroke-dasharray:7,7;"/><polygon fill="#181818" points="1004.35,1123.33,996.143,1117.8853,999.42,1122.4963,994.809,1125.7732,1004.35,1123.33" style="stroke:#181818;stroke-width:1;"/></g><!--link ValidateDeclarationController to EthicsCommitteeMember--><g class="link" data-entity-1="ent0022" data-entity-2="ent0006" data-link-type="dependency" data-source-line="177" id="lnk40"><path codeLine="177" d="M922.96,189.27 C952.32,268.27 992,375 992,375 C992,375 1035.3167,422.507 1070.2867,460.847" fill="none" id="ValidateDeclarationController-to-EthicsCommitteeMember" style="stroke:#181818;stroke-width:1;stroke-dasharray:7,7;"/><polygon fill="#181818" points="1074.33,465.28,1071.2203,455.935,1070.9605,461.5858,1065.3097,461.3261,1074.33,465.28" style="stroke:#181818;stroke-width:1;"/></g><!--link ValidateDeclarationController to ValidationVerdict--><g class="link" data-entity-1="ent0022" data-entity-2="ent0003" data-link-type="dependency" data-source-line="178" id="lnk41"><path codeLine="178" d="M1093.62,182.07 C1105.05,186.38 1112,189 1112,189 C1112,189 1318,266 1318,266 C1318,266 1525.9618,760.0101 1587.7818,906.8401" fill="none" id="ValidateDeclarationController-to-ValidationVerdict" style="stroke:#181818;stroke-width:1;stroke-dasharray:7,7;"/><polygon fill="#181818" points="1590.11,912.37,1590.3042,902.5231,1588.1698,907.7618,1582.9311,905.6274,1590.11,912.37" style="stroke:#181818;stroke-width:1;"/></g><!--link ValidateDeclarationController to DeclarationMapper--><g class="link" data-entity-1="ent0022" data-entity-2="ent0014" data-link-type="dependency" data-source-line="179" id="lnk42"><path codeLine="179" d="M879,189.27 C866.66,268.27 850,375 850,375 C850,375 783.1981,412.8984 719.7681,448.8984" fill="none" id="ValidateDeclarationController-to-DeclarationMapper" style="stroke:#181818;stroke-width:1;stroke-dasharray:7,7;"/><polygon fill="#181818" points="714.55,451.86,724.3516,450.8964,718.8985,449.392,720.4028,443.9389,714.55,451.86" style="stroke:#181818;stroke-width:1;"/></g><!--link ValidateDeclarationController to ValidationDecisionDTO--><g class="link" data-entity-1="ent0022" data-entity-2="ent0012" data-link-type="dependency" data-source-line="180" id="lnk43"><path codeLine="180" d="M833.97,189.16 C815.99,214.91 800.1041,237.6799 783.9041,260.8899" fill="none" id="ValidateDeclarationController-to-ValidationDecisionDTO" style="stroke:#181818;stroke-width:1;stroke-dasharray:7,7;"/><polygon fill="#181818" points="780.47,265.81,788.9012,260.7193,783.3317,261.7099,782.3411,256.1405,780.47,265.81" style="stroke:#181818;stroke-width:1;"/></g><!--link Repositories to Repositories--><g class="link" data-entity-1="ent0021" data-entity-2="ent0021" data-link-type="dependency" data-source-line="182" id="lnk44"><path codeLine="182" d="M1572.56,82.8 C1592.81,84.97 1607.5,92.37 1607.5,105 C1607.5,117.63 1598.7758,124.3907 1578.5258,126.5607" fill="none" id="Repositories-to-Repositories" style="stroke:#181818;stroke-width:1;"/><polygon fill="#181818" points="1572.56,127.2,1581.935,130.2183,1577.5315,126.6672,1581.0826,122.2638,1572.56,127.2" style="stroke:#181818;stroke-width:1;"/><text fill="#000000" font-family="sans-serif" font-size="13" lengthAdjust="spacing" textLength="48.4199" x="1613.5" y="110.5698">instance</text><text fill="#000000" font-family="sans-serif" font-size="13" lengthAdjust="spacing" textLength="7.23" x="1580.3159" y="126.4939">1</text></g><!--link Repositories to DeclarationRepository--><g class="link" data-entity-1="ent0021" data-entity-2="ent0019" data-link-type="dependency" data-source-line="183" id="lnk45"><path codeLine="183" d="M1525.05,163.82 C1547.2,191.63 1569,219 1569,219 C1569,219 1581.1266,252.8515 1591.6866,282.3315" fill="none" id="Repositories-to-DeclarationRepository" style="stroke:#181818;stroke-width:1;"/><polygon fill="#181818" points="1593.71,287.98,1594.4407,278.1583,1592.0239,283.2729,1586.9093,280.8561,1593.71,287.98" style="stroke:#181818;stroke-width:1;"/><text fill="#000000" font-family="sans-serif" font-size="13" lengthAdjust="spacing" textLength="125.7344" x="1576" y="233.0698">declarationRepository</text><text fill="#000000" font-family="sans-serif" font-size="13" lengthAdjust="spacing" textLength="7.23" x="1583.5207" y="277.3802">1</text></g><!--link Repositories to UserRepository--><g class="link" data-entity-1="ent0021" data-entity-2="ent0020" data-link-type="dependency" data-source-line="184" id="lnk46"><path codeLine="184" d="M1391.32,163.78 C1330.79,203.66 1257.5901,251.8987 1208.1001,284.5087" fill="none" id="Repositories-to-UserRepository" style="stroke:#181818;stroke-width:1;"/><polygon fill="#181818" points="1203.09,287.81,1212.8061,286.1982,1207.2651,285.0589,1208.4044,279.518,1203.09,287.81" style="stroke:#181818;stroke-width:1;"/><text fill="#000000" font-family="sans-serif" font-size="13" lengthAdjust="spacing" textLength="87.4263" x="1308" y="233.0698">userRepository</text><text fill="#000000" font-family="sans-serif" font-size="13" lengthAdjust="spacing" textLength="7.23" x="1205.8787" y="277.173">1</text></g><!--link ApplicationSession to ApplicationSession--><g class="link" data-entity-1="ent0004" data-entity-2="ent0004" data-link-type="dependency" data-source-line="186" id="lnk47"><path codeLine="186" d="M388.06,303.4 C407.94,304.38 423,310.08 423,320.5 C423,330.92 413.9327,336.3246 394.0527,337.3046" fill="none" id="ApplicationSession-to-ApplicationSession" style="stroke:#181818;stroke-width:1;"/><polygon fill="#181818" points="388.06,337.6,397.246,341.152,393.0539,337.3538,396.8521,333.1617,388.06,337.6" style="stroke:#181818;stroke-width:1;"/><text fill="#000000" font-family="sans-serif" font-size="13" lengthAdjust="spacing" textLength="48.4199" x="429" y="326.0698">instance</text><text fill="#000000" font-family="sans-serif" font-size="13" lengthAdjust="spacing" textLength="7.23" x="396.1581" y="336.6842">1</text></g><!--link ApplicationSession to UserSession--><g class="link" data-entity-1="ent0004" data-entity-2="ent0005" data-link-type="dependency" data-source-line="187" id="lnk48"><path codeLine="187" d="M311.14,370.33 C309.89,403.12 308.5195,439.3744 307.4295,467.8444" fill="none" id="ApplicationSession-to-UserSession" style="stroke:#181818;stroke-width:1;stroke-dasharray:7,7;"/><polygon fill="#181818" points="307.2,473.84,311.5414,464.9996,307.3913,468.8437,303.5472,464.6936,307.2,473.84" style="stroke:#181818;stroke-width:1;"/></g><!--link DeclarationRepository to Declaration--><g class="link" data-entity-1="ent0019" data-entity-2="ent0007" data-link-type="dependency" data-source-line="189" id="lnk49"><path codeLine="189" d="M1626.54,353.09 C1652.88,391.71 1694,452 1694,452 C1694,452 1729,505.5 1729,505.5 C1729,505.5 1729,505.5 1729,954.5 C1729,954.5 1693,1014 1693,1014 C1693,1014 1369.2,1082.5276 1201.48,1118.0276" fill="none" id="DeclarationRepository-to-Declaration" style="stroke:#181818;stroke-width:1;"/><polygon fill="#181818" points="1195.61,1119.27,1205.2432,1121.3196,1200.5016,1118.2346,1203.5866,1113.493,1195.61,1119.27" style="stroke:#181818;stroke-width:1;"/><text fill="#000000" font-family="sans-serif" font-size="13" lengthAdjust="spacing" textLength="70.0972" x="1730" y="732.5698">declarations</text><text fill="#000000" font-family="sans-serif" font-size="13" lengthAdjust="spacing" textLength="5.0591" x="1203.4316" y="1115.0692">*</text></g><!--link UserRepository to EthicsCommitteeMember--><g class="link" data-entity-1="ent0020" data-entity-2="ent0006" data-link-type="dependency" data-source-line="190" id="lnk50"><path codeLine="190" d="M1147.44,353.13 C1140.02,384.16 1130.0644,425.7643 1122.0144,459.4543" fill="none" id="UserRepository-to-EthicsCommitteeMember" style="stroke:#181818;stroke-width:1;"/><polygon fill="#181818" points="1120.62,465.29,1126.6021,457.466,1121.782,460.4269,1118.8211,455.6068,1120.62,465.29" style="stroke:#181818;stroke-width:1;"/><text fill="#000000" font-family="sans-serif" font-size="13" lengthAdjust="spacing" textLength="150.9854" x="1135" y="419.0698">ethicsCommitteeMembers</text><text fill="#000000" font-family="sans-serif" font-size="13" lengthAdjust="spacing" textLength="5.0591" x="1116.9093" y="454.7389">*</text></g><!--link EthicsCommitteeMember to Validation--><g class="link" data-entity-1="ent0006" data-entity-2="ent0008" data-link-type="dependency" data-source-line="192" id="lnk51"><path codeLine="192" d="M1109.35,547.58 C1107.84,584.17 1105.8572,632.3451 1104.2472,671.3951" fill="none" id="EthicsCommitteeMember-to-Validation" style="stroke:#181818;stroke-width:1;"/><polygon fill="#181818" points="1104,677.39,1108.3674,668.5624,1104.206,672.3942,1100.3741,668.2329,1104,677.39" style="stroke:#181818;stroke-width:1;"/><text fill="#000000" font-family="sans-serif" font-size="13" lengthAdjust="spacing" textLength="61.4263" x="1108" y="605.0698">validations</text><text fill="#000000" font-family="sans-serif" font-size="13" lengthAdjust="spacing" textLength="5.0591" x="1098.9426" y="666.751">*</text></g><!--link Validation to Declaration--><g class="link" data-entity-1="ent0008" data-entity-2="ent0007" data-link-type="dependency" data-source-line="194" id="lnk52"><path codeLine="194" d="M1101.76,776.82 C1101.38,856.02 1100.6488,1005.5901 1100.2688,1084.7401" fill="none" id="Validation-to-Declaration" style="stroke:#181818;stroke-width:1;"/><polygon fill="#181818" points="1100.24,1090.74,1104.2832,1081.7593,1100.264,1085.7401,1096.2833,1081.7209,1100.24,1090.74" style="stroke:#181818;stroke-width:1;"/><text fill="#000000" font-family="sans-serif" font-size="13" lengthAdjust="spacing" textLength="63.5972" x="1102" y="959.0698">declaration</text><text fill="#000000" font-family="sans-serif" font-size="13" lengthAdjust="spacing" textLength="7.23" x="1092.7606" y="1080.078">1</text></g><!--link Validation to ValidationVerdict--><g class="link" data-entity-1="ent0008" data-entity-2="ent0003" data-link-type="dependency" data-source-line="195" id="lnk53"><path codeLine="195" d="M1184.71,776.55 C1250.65,815.25 1332,863 1332,863 C1332,863 1521,893 1521,893 C1521,893 1528.665,898.3074 1544.225,909.0674" fill="none" id="Validation-to-ValidationVerdict" style="stroke:#181818;stroke-width:1;"/><polygon fill="#181818" points="1549.16,912.48,1544.0326,904.0711,1545.0475,909.6361,1539.4825,910.6511,1549.16,912.48" style="stroke:#181818;stroke-width:1;"/><text fill="#000000" font-family="sans-serif" font-size="13" lengthAdjust="spacing" textLength="38.2891" x="1333" y="860.0698">verdict</text><text fill="#000000" font-family="sans-serif" font-size="13" lengthAdjust="spacing" textLength="7.23" x="1530.866" y="901.6614">1</text></g><!--link Validation to Annotation--><g class="link" data-entity-1="ent0008" data-entity-2="ent0009" data-link-type="dependency" data-source-line="196" id="lnk54"><path codeLine="196" d="M1137.74,776.74 C1166.1,815.41 1201,863 1201,863 C1201,863 1220.2786,874.4306 1249.4986,891.7506" fill="none" id="Validation-to-Annotation" style="stroke:#181818;stroke-width:1;"/><polygon fill="#181818" points="1254.66,894.81,1248.9575,886.78,1250.3588,892.2605,1244.8783,893.6618,1254.66,894.81" style="stroke:#181818;stroke-width:1;"/><text fill="#000000" font-family="sans-serif" font-size="13" lengthAdjust="spacing" textLength="67.2217" x="1202" y="860.0698">annotations</text><text fill="#000000" font-family="sans-serif" font-size="13" lengthAdjust="spacing" textLength="5.0591" x="1236.2177" y="884.0743">*</text></g><!--link Annotation to Declaration--><g class="link" data-entity-1="ent0009" data-entity-2="ent0007" data-link-type="dependency" data-source-line="198" id="lnk55"><path codeLine="198" d="M1273.65,1012.02 C1239.26,1037.27 1204.1568,1063.0396 1171.2568,1087.1896" fill="none" id="Annotation-to-Declaration" style="stroke:#181818;stroke-width:1;"/><polygon fill="#181818" points="1166.42,1090.74,1176.0421,1088.6389,1170.4507,1087.7813,1171.3082,1082.1899,1166.42,1090.74" style="stroke:#181818;stroke-width:1;"/><text fill="#000000" font-family="sans-serif" font-size="13" lengthAdjust="spacing" textLength="77.3018" x="1227" y="1058.0698">commentsOn</text><text fill="#000000" font-family="sans-serif" font-size="13" lengthAdjust="spacing" textLength="21.6836" x="1154.0373" y="1080.078">0..1</text></g><!--link DeclarationMapper to Declaration--><g class="link" data-entity-1="ent0014" data-entity-2="ent0007" data-link-type="dependency" data-source-line="200" id="lnk56"><path codeLine="200" d="M666.2,561.33 C697.05,597.28 732,638 732,638 C732,638 803,1014 803,1014 C803,1014 912.0432,1060.0744 998.8632,1096.7644" fill="none" id="DeclarationMapper-to-Declaration" style="stroke:#181818;stroke-width:1;stroke-dasharray:7,7;"/><polygon fill="#181818" points="1004.39,1099.1,997.6569,1091.9121,999.7844,1097.1537,994.5428,1099.2811,1004.39,1099.1" style="stroke:#181818;stroke-width:1;"/></g><!--link DeclarationMapper to Validation--><g class="link" data-entity-1="ent0014" data-entity-2="ent0008" data-link-type="dependency" data-source-line="201" id="lnk57"><path codeLine="201" d="M738.22,561.09 C816.68,596.66 913.3652,640.493 989.4352,674.973" fill="none" id="DeclarationMapper-to-Validation" style="stroke:#181818;stroke-width:1;stroke-dasharray:7,7;"/><polygon fill="#181818" points="994.9,677.45,988.3541,670.0912,990.346,675.3858,985.0514,677.3777,994.9,677.45" style="stroke:#181818;stroke-width:1;"/></g><!--link DeclarationMapper to SubmittedDeclarationDTO--><g class="link" data-entity-1="ent0014" data-entity-2="ent0010" data-link-type="dependency" data-source-line="202" id="lnk58"><path codeLine="202" d="M477.2,561.05 C381.16,597.07 272,638 272,638 C272,638 255.9139,650.3024 231.9739,668.6324" fill="none" id="DeclarationMapper-to-SubmittedDeclarationDTO" style="stroke:#181818;stroke-width:1;stroke-dasharray:7,7;"/><polygon fill="#181818" points="227.21,672.28,236.7876,669.9846,231.18,669.2403,231.9242,663.6327,227.21,672.28" style="stroke:#181818;stroke-width:1;"/></g><!--link DeclarationMapper to DeclarationDetailsDTO--><g class="link" data-entity-1="ent0014" data-entity-2="ent0011" data-link-type="dependency" data-source-line="203" id="lnk59"><path codeLine="203" d="M564.42,561.23 C540.51,584.35 516.2335,607.8294 489.3635,633.8094" fill="none" id="DeclarationMapper-to-DeclarationDetailsDTO" style="stroke:#181818;stroke-width:1;stroke-dasharray:7,7;"/><polygon fill="#181818" points="485.05,637.98,494.3006,634.5997,488.6446,634.5045,488.7398,628.8484,485.05,637.98" style="stroke:#181818;stroke-width:1;"/></g><!--link DeclarationMapper to ValidationResultDTO--><g class="link" data-entity-1="ent0014" data-entity-2="ent0013" data-link-type="dependency" data-source-line="204" id="lnk60"><path codeLine="204" d="M620.98,561.23 C621.55,592.32 622.1607,625.571 622.7507,657.961" fill="none" id="DeclarationMapper-to-ValidationResultDTO" style="stroke:#181818;stroke-width:1;stroke-dasharray:7,7;"/><polygon fill="#181818" points="622.86,663.96,626.6954,654.8886,622.7689,658.9608,618.6968,655.0343,622.86,663.96" style="stroke:#181818;stroke-width:1;"/></g><!--link Declaration to DeclarationStatus--><g class="link" data-entity-1="ent0007" data-entity-2="ent0002" data-link-type="dependency" data-source-line="206" id="lnk61"><path codeLine="206" d="M1004.31,1188.41 C931.6,1224.06 844,1267 844,1267 C844,1267 841.9993,1268.2934 831.8793,1274.8334" fill="none" id="Declaration-to-DeclarationStatus" style="stroke:#181818;stroke-width:1;"/><polygon fill="#181818" points="826.84,1278.09,836.57,1276.5646,831.0394,1275.3762,832.2279,1269.8455,826.84,1278.09" style="stroke:#181818;stroke-width:1;"/><text fill="#000000" font-family="sans-serif" font-size="13" lengthAdjust="spacing" textLength="34.6836" x="935" y="1234.0698">status</text><text fill="#000000" font-family="sans-serif" font-size="13" lengthAdjust="spacing" textLength="7.23" x="834.0555" y="1270.9487">1</text></g><!--link Declaration to Subsidy--><g class="link" data-entity-1="ent0007" data-entity-2="ent0015" data-link-type="dependency" data-source-line="207" id="lnk62"><path codeLine="207" d="M1052.24,1190.06 C1023.28,1219.5 990.9871,1252.3221 963.6771,1280.0921" fill="none" id="Declaration-to-Subsidy" style="stroke:#181818;stroke-width:1;"/><polygon fill="#181818" points="959.47,1284.37,968.6325,1280.7578,962.9759,1280.8051,962.9286,1275.1484,959.47,1284.37" style="stroke:#181818;stroke-width:1;"/><text fill="#000000" font-family="sans-serif" font-size="13" lengthAdjust="spacing" textLength="54.1963" x="1021" y="1234.0698">subsidies</text><text fill="#000000" font-family="sans-serif" font-size="13" lengthAdjust="spacing" textLength="5.0591" x="961.2855" y="1273.5312">*</text></g><!--link Declaration to Asset--><g class="link" data-entity-1="ent0007" data-entity-2="ent0016" data-link-type="dependency" data-source-line="208" id="lnk63"><path codeLine="208" d="M1100,1190.06 C1100,1219.5 1100,1250.6 1100,1278.37" fill="none" id="Declaration-to-Asset" style="stroke:#181818;stroke-width:1;"/><polygon fill="#181818" points="1100,1284.37,1104,1275.37,1100,1279.37,1096,1275.37,1100,1284.37" style="stroke:#181818;stroke-width:1;"/><text fill="#000000" font-family="sans-serif" font-size="13" lengthAdjust="spacing" textLength="37.5718" x="1101" y="1234.0698">assets</text><text fill="#000000" font-family="sans-serif" font-size="13" lengthAdjust="spacing" textLength="5.0591" x="1094.5141" y="1273.5312">*</text></g><!--link Declaration to Position--><g class="link" data-entity-1="ent0007" data-entity-2="ent0017" data-link-type="dependency" data-source-line="209" id="lnk64"><path codeLine="209" d="M1152.54,1190.06 C1181.18,1216.53 1212.1232,1245.1382 1240.8032,1271.6382" fill="none" id="Declaration-to-Position" style="stroke:#181818;stroke-width:1;"/><polygon fill="#181818" points="1245.21,1275.71,1241.3143,1266.6643,1241.5377,1272.3168,1235.8852,1272.5401,1245.21,1275.71" style="stroke:#181818;stroke-width:1;"/><text fill="#000000" font-family="sans-serif" font-size="13" lengthAdjust="spacing" textLength="51.3081" x="1200" y="1234.0698">positions</text><text fill="#000000" font-family="sans-serif" font-size="13" lengthAdjust="spacing" textLength="5.0591" x="1231.7589" y="1265.0434">*</text></g><!--link Declaration to SecurityHolding--><g class="link" data-entity-1="ent0007" data-entity-2="ent0018" data-link-type="dependency" data-source-line="210" id="lnk65"><path codeLine="210" d="M1195.61,1182.59 C1280.77,1219.19 1392,1267 1392,1267 C1392,1267 1393.9948,1268.2355 1404.2148,1274.6355" fill="none" id="Declaration-to-SecurityHolding" style="stroke:#181818;stroke-width:1;"/><polygon fill="#181818" points="1409.3,1277.82,1403.7952,1269.6532,1405.0623,1275.1663,1399.5492,1276.4334,1409.3,1277.82" style="stroke:#181818;stroke-width:1;"/><text fill="#000000" font-family="sans-serif" font-size="13" lengthAdjust="spacing" textLength="95.3735" x="1322" y="1234.0698">securityHoldings</text><text fill="#000000" font-family="sans-serif" font-size="13" lengthAdjust="spacing" textLength="5.0591" x="1396.3436" y="1270.2675">*</text></g><?plantuml-src lLXBSzis4BxpLs1oYLq_cbuv7it8aZfLnnvxBDazG-HQGaq2B00wLJFvxrcI802Ie2Jdq1mI4VlwTh4lvBDwOxoWakOa5rmaEobo85gM43bAGPCtkeMLtcT092IQyctcCwWTJSLNnhVabMRAfsICWzuNG0gHxQkFw7E0AAGMaIULP5IfgTQIRKeDoqJm5ViFo9S13_aM4VnpYm2tKfGydObCo9kR-VfXCY5_xPY6CCCzBGgGbkTx504lSp87L2kfPcXHKrss1bRFj_VBzNenhxzUfdVB-RJzUbhykPXL7wsI5vgnjDRn0Z9bYJPAfe-FJmyl0Qd6bMbHP2nfR8DI-8-HkmgGpivhqWNvfX0dIxwJBUWbnm-UW2NYsQoK4hXsOjRUimBPDLGBLCUBdBBCvrte7KlKJEGvqnhW7l8DI2lrtZWCNlJEKlVxahmtSRWacaeqyGIlWA0Ik2G9gaHuQ_XNdnjdQPgw29wzsvyU7C-GZP4gDpchlPaZ51AJEv7GhFeT6PXuvLAyk-X8-1jpsNVJsRLgdVqnjHxOaDEjDNHhohdG3QT6XmFXy1Hui9oSXLN98vWLbWZVjcTTRNro8Y7envhbrfUVHRYgWe-PaNetWpL8safiCyMJNgPTW1U7Rj0mD2KP3yiqc1fpq9Z6wd_5OJKebZAeUEwOqZUD_acR2ag17g4LGh5AtmXPGL9AflT_Y2p5um5N89KH95CZzs5o5BKCcfRXE9XK5txzEb80n1EeCjCVlufZaJxkG8uj3eTN09sdina7n9iBBJmjN6wl7wfO-rMkpkq5X2jWOjMuRFGLd7TzSqnMpaQkrrrSN-muRzaxnOdPkBUzW-Ou2AkGfQBSP61EEKPLXi8qhRBL2IV_bAn9KJHQGbzDJkKRw1x9wdeqsUswDkQN3fRP5G6UZb0av2K7Cm26LbRT8d5Da-biq1Q3W2sujy4XfaU26T-aLD-oTvLFK9Uoa7j_keRIHFMdSbWqE8DlzysiXkflJurLKJMXrd__yEG58kYIpz1571Yd_bum4rnBaMLsUxZo6q2t67e3Dgp6Hp8It1DBL466wy383hDCZrMgsIvwyctd7IjIVnFv2T6hqSJu7HVvpjA7WnsNTxRTQI9U3yUqLhtUWGa9f9s5Yodo1aNJNZNaXP1KicnFDdkYKIQnQgvn7Kv9PTTOtmYjHLwP3oPLhH6pASMkHyG6uyjhZHbU7WhLPDNUePyswe0b5xbQVlbQgsp71lhIRkMNDPqBGkqEf0YLrOC7Evw4z3eQqT2kyeq6gaa6j4BCmTFrgvcKDSzNfdU4cjbQpVIQ0nyYUKtEInJVr4yj8TFAidDljBAUbrXHUCzXqlNao9L7XuiLvVtkSOmRsSDNV5oksqvE41W-ZawqSZgttvIESmVhyGIvuGRp8MJDwl8XEzvg64MTaN4r8Pz--zGT8p5XPZxqU0rpUFZ5VgLw5njKqPj-CIcxsH057ib6D43n00Ue_JI8mlXhQBzqlElwfA8UwbOY_6YE2OJELHI5-LjjtjiqzhO_PIktZiNmAhfWGyp3_w-8s_OsO4SWtciqzfibNewZrCnVhgy7M4mRL0_TW9i5l5ziOGwlfuSPHYRzSOFUL3zcsWrYdpLq0wls4TEyPeRi6DHsHu_Tsp78ropZiNb21bdiZXsxnsJOPczDZWUlo-W7?></g></svg>