<svg xmlns="http://www.w3.org/2000/svg" xmlns:xlink="http://www.w3.org/1999/xlink" contentStyleType="text/css" data-diagram-type="DESCRIPTION" height="833px" preserveAspectRatio="none" style="width:481px;height:833px;background:#FFFFFF;" version="1.1" viewBox="0 0 481 833" width="481px" zoomAndPan="magnify"><defs/><g><!--entity FutureUser--><g class="entity" data-entity="FutureUser" data-source-line="4" data-uid="ent0002" id="entity_FutureUser"><ellipse cx="88.4551" cy="759" fill="#F1F1F1" rx="8" ry="8" style="stroke:#181818;stroke-width:0.5;"/><path d="M88.4551,767 L88.4551,794 M75.4551,775 L101.4551,775 M88.4551,794 L75.4551,809 M88.4551,794 L101.4551,809" fill="none" style="stroke:#181818;stroke-width:0.5;"/><text fill="#000000" font-family="sans-serif" font-size="14" lengthAdjust="spacing" textLength="73.9102" x="51.5" y="824.5752">Future User</text></g><!--entity PoliticalAgent--><g class="entity" data-entity="PoliticalAgent" data-source-line="5" data-uid="ent0003" id="entity_PoliticalAgent"><ellipse cx="88.3584" cy="610" fill="#F1F1F1" rx="8" ry="8" style="stroke:#181818;stroke-width:0.5;"/><path d="M88.3584,618 L88.3584,645 M75.3584,626 L101.3584,626 M88.3584,645 L75.3584,660 M88.3584,645 L101.3584,660" fill="none" style="stroke:#181818;stroke-width:0.5;"/><text fill="#000000" font-family="sans-serif" font-size="14" lengthAdjust="spacing" textLength="88.7168" x="44" y="675.5752">Political Agent</text></g><!--entity Citizen--><g class="entity" data-entity="Citizen" data-source-line="6" data-uid="ent0004" id="entity_Citizen"><ellipse cx="88.3965" cy="357" fill="#F1F1F1" rx="8" ry="8" style="stroke:#181818;stroke-width:0.5;"/><path d="M88.3965,365 L88.3965,392 M75.3965,373 L101.3965,373 M88.3965,392 L75.3965,407 M88.3965,392 L101.3965,407" fill="none" style="stroke:#181818;stroke-width:0.5;"/><text fill="#000000" font-family="sans-serif" font-size="14" lengthAdjust="spacing" textLength="42.793" x="67" y="422.5752">Citizen</text></g><!--entity Journalist--><g class="entity" data-entity="Journalist" data-source-line="7" data-uid="ent0005" id="entity_Journalist"><ellipse cx="88.4585" cy="491" fill="#F1F1F1" rx="8" ry="8" style="stroke:#181818;stroke-width:0.5;"/><path d="M88.4585,499 L88.4585,526 M75.4585,507 L101.4585,507 M88.4585,526 L75.4585,541 M88.4585,526 L101.4585,541" fill="none" style="stroke:#181818;stroke-width:0.5;"/><text fill="#000000" font-family="sans-serif" font-size="14" lengthAdjust="spacing" textLength="59.917" x="58.5" y="556.5752">Journalist</text></g><!--entity EthicsCommittee--><g class="entity" data-entity="EthicsCommittee" data-source-line="8" data-uid="ent0006" id="entity_EthicsCommittee"><ellipse cx="88.4653" cy="240" fill="#F1F1F1" rx="8" ry="8" style="stroke:#181818;stroke-width:0.5;"/><path d="M88.4653,248 L88.4653,275 M75.4653,256 L101.4653,256 M88.4653,275 L75.4653,290 M88.4653,275 L101.4653,290" fill="none" style="stroke:#181818;stroke-width:0.5;"/><text fill="#000000" font-family="sans-serif" font-size="14" lengthAdjust="spacing" textLength="164.9307" x="6" y="305.5752">Ethics Committee Member</text></g><!--entity Administrator--><g class="entity" data-entity="Administrator" data-source-line="9" data-uid="ent0007" id="entity_Administrator"><ellipse cx="88.7344" cy="45" fill="#F1F1F1" rx="8" ry="8" style="stroke:#181818;stroke-width:0.5;"/><path d="M88.7344,53 L88.7344,80 M75.7344,61 L101.7344,61 M88.7344,80 L75.7344,95 M88.7344,80 L101.7344,95" fill="none" style="stroke:#181818;stroke-width:0.5;"/><text fill="#000000" font-family="sans-serif" font-size="14" lengthAdjust="spacing" textLength="82.4688" x="47.5" y="110.5752">Administrator</text></g><!--entity UC01--><g class="entity" data-entity="UC01" data-source-line="12" data-uid="ent0008" id="entity_UC01"><ellipse cx="353.0387" cy="788.9077" fill="#F1F1F1" rx="117.5387" ry="25.9077" style="stroke:#181818;stroke-width:0.5;"/><text fill="#000000" font-family="sans-serif" font-size="14" lengthAdjust="spacing" textLength="212.4199" x="246.8287" y="793.9834">UC01 - User Registration Request</text></g><!--entity UC02--><g class="entity" data-entity="UC02" data-source-line="13" data-uid="ent0009" id="entity_UC02"><ellipse cx="353.2477" cy="32.8495" fill="#F1F1F1" rx="122.2477" ry="26.8495" style="stroke:#181818;stroke-width:0.5;"/><text fill="#000000" font-family="sans-serif" font-size="14" lengthAdjust="spacing" textLength="222.5439" x="241.9757" y="37.9252">UC02 - Approve/Reject Registration</text></g><!--entity UC03--><g class="entity" data-entity="UC03" data-source-line="14" data-uid="ent0010" id="entity_UC03"><ellipse cx="352.9446" cy="629.9889" fill="#F1F1F1" rx="85.4446" ry="19.4889" style="stroke:#181818;stroke-width:0.5;"/><text fill="#000000" font-family="sans-serif" font-size="14" lengthAdjust="spacing" textLength="140.834" x="282.5276" y="635.0646">UC03 - List Institutions</text></g><!--entity UC04--><g class="entity" data-entity="UC04" data-source-line="15" data-uid="ent0011" id="entity_UC04"><ellipse cx="353.1133" cy="117.0227" fill="#F1F1F1" rx="95.6133" ry="21.5227" style="stroke:#181818;stroke-width:0.5;"/><text fill="#000000" font-family="sans-serif" font-size="14" lengthAdjust="spacing" textLength="164.1787" x="271.0239" y="122.0983">UC04 - Register Institution</text></g><!--entity UC06--><g class="entity" data-entity="UC06" data-source-line="16" data-uid="ent0012" id="entity_UC06"><ellipse cx="353.1479" cy="706.2296" fill="#F1F1F1" rx="96.6479" ry="21.7296" style="stroke:#181818;stroke-width:0.5;"/><text fill="#000000" font-family="sans-serif" font-size="14" lengthAdjust="spacing" textLength="166.5098" x="269.893" y="711.3053">UC06 - Submit Declaration</text></g><!--entity UC08--><g class="entity" data-entity="UC08" data-source-line="17" data-uid="ent0013" id="entity_UC08"><ellipse cx="352.782" cy="195.8564" fill="#F1F1F1" rx="99.782" ry="22.3564" style="stroke:#181818;stroke-width:0.5;"/><text fill="#000000" font-family="sans-serif" font-size="14" lengthAdjust="spacing" textLength="173.5303" x="266.0168" y="200.9321">UC08 - Validate Declaration</text></g><!--entity UC09--><g class="entity" data-entity="UC09" data-source-line="18" data-uid="ent0014" id="entity_UC09"><ellipse cx="353.0948" cy="279.119" fill="#F1F1F1" rx="113.5948" ry="25.119" style="stroke:#181818;stroke-width:0.5;"/><text fill="#000000" font-family="sans-serif" font-size="14" lengthAdjust="spacing" textLength="203.8887" x="251.1504" y="284.1946">UC09 - View Integrated Situation</text></g><!--entity UC10--><g class="entity" data-entity="UC10" data-source-line="19" data-uid="ent0015" id="entity_UC10"><ellipse cx="353.1044" cy="531.1209" fill="#F1F1F1" rx="116.1044" ry="25.6209" style="stroke:#181818;stroke-width:0.5;"/><text fill="#000000" font-family="sans-serif" font-size="14" lengthAdjust="spacing" textLength="209.3232" x="248.4428" y="536.1966">UC10 - Analyse Income Evolution</text></g><!--entity UC11--><g class="entity" data-entity="UC11" data-source-line="20" data-uid="ent0016" id="entity_UC11"><ellipse cx="353.0813" cy="452.1163" fill="#F1F1F1" rx="78.5813" ry="18.1163" style="stroke:#181818;stroke-width:0.5;"/><text fill="#000000" font-family="sans-serif" font-size="14" lengthAdjust="spacing" textLength="124.4824" x="290.8401" y="457.1919">UC11 - View Assets</text></g><!--entity UC12--><g class="entity" data-entity="UC12" data-source-line="21" data-uid="ent0017" id="entity_UC12"><ellipse cx="353.2045" cy="378.0409" fill="#F1F1F1" rx="93.2045" ry="21.0409" style="stroke:#181818;stroke-width:0.5;"/><text fill="#000000" font-family="sans-serif" font-size="14" lengthAdjust="spacing" textLength="158.7236" x="273.8427" y="383.1166">UC12 - Submit Complaint</text></g><!--link FutureUser to UC01--><g class="link" data-entity-1="FutureUser" data-entity-2="UC01" data-source-line="24" data-uid="lnk18" id="link_FutureUser_UC01"><path d="M125.72,789 C154.27,789 189.76,789 229.43,789" fill="none" id="FutureUser-to-UC01" style="stroke:#181818;stroke-width:1;"/><polygon fill="#181818" points="235.43,789,226.43,785,230.43,789,226.43,793,235.43,789" style="stroke:#181818;stroke-width:1;"/></g><!--link Administrator to UC02--><g class="link" data-entity-1="Administrator" data-entity-2="UC02" data-source-line="26" data-uid="lnk19" id="link_Administrator_UC02"><path d="M129.65,68.58 C162.61,63.3 204.7755,56.5586 247.8055,49.6686" fill="none" id="Administrator-to-UC02" style="stroke:#181818;stroke-width:1;"/><polygon fill="#181818" points="253.73,48.72,244.2108,46.1933,248.7929,49.5105,245.4756,54.0926,253.73,48.72" style="stroke:#181818;stroke-width:1;"/></g><!--link Administrator to UC04--><g class="link" data-entity-1="Administrator" data-entity-2="UC04" data-source-line="27" data-uid="lnk20" id="link_Administrator_UC04"><path d="M129.65,81.42 C168.07,87.57 221.1154,96.062 268.6754,103.672" fill="none" id="Administrator-to-UC04" style="stroke:#181818;stroke-width:1;"/><polygon fill="#181818" points="274.6,104.62,266.345,99.2483,269.6628,103.83,265.0811,107.1478,274.6,104.62" style="stroke:#181818;stroke-width:1;"/></g><!--link PoliticalAgent to UC03--><g class="link" data-entity-1="PoliticalAgent" data-entity-2="UC03" data-source-line="29" data-uid="lnk21" id="link_PoliticalAgent_UC03"><path d="M133.14,638.34 C169.88,636.94 217.4744,635.1294 262.4344,633.4094" fill="none" id="PoliticalAgent-to-UC03" style="stroke:#181818;stroke-width:1;"/><polygon fill="#181818" points="268.43,633.18,259.2837,629.527,263.4337,633.3711,259.5895,637.5211,268.43,633.18" style="stroke:#181818;stroke-width:1;"/></g><!--link PoliticalAgent to UC06--><g class="link" data-entity-1="PoliticalAgent" data-entity-2="UC06" data-source-line="30" data-uid="lnk22" id="link_PoliticalAgent_UC06"><path d="M133.14,650.97 C175.42,661.6 234.2012,676.3765 282.2712,688.4665" fill="none" id="PoliticalAgent-to-UC06" style="stroke:#181818;stroke-width:1;"/><polygon fill="#181818" points="288.09,689.93,280.3375,683.8556,283.241,688.7104,278.3862,691.614,288.09,689.93" style="stroke:#181818;stroke-width:1;"/></g><!--link EthicsCommittee to UC08--><g class="link" data-entity-1="EthicsCommittee" data-entity-2="UC08" data-source-line="32" data-uid="lnk23" id="link_EthicsCommittee_UC08"><path d="M171.12,246.99 C209.35,236.21 248.3848,225.207 283.8448,215.217" fill="none" id="EthicsCommittee-to-UC08" style="stroke:#181818;stroke-width:1;"/><polygon fill="#181818" points="289.62,213.59,279.8725,212.1804,284.8073,214.9459,282.0419,219.8807,289.62,213.59" style="stroke:#181818;stroke-width:1;"/></g><!--link EthicsCommittee to UC09--><g class="link" data-entity-1="EthicsCommittee" data-entity-2="UC09" data-source-line="33" data-uid="lnk24" id="link_EthicsCommittee_UC09"><path d="M171.12,272.8 C193.09,273.55 211.2435,274.1741 234.5435,274.9741" fill="none" id="EthicsCommittee-to-UC09" style="stroke:#181818;stroke-width:1;"/><polygon fill="#181818" points="240.54,275.18,231.6826,270.8735,235.5429,275.0084,231.408,278.8688,240.54,275.18" style="stroke:#181818;stroke-width:1;"/></g><!--link Journalist to UC10--><g class="link" data-entity-1="Journalist" data-entity-2="UC10" data-source-line="35" data-uid="lnk25" id="link_Journalist_UC10"><path d="M118.6,522.11 C147.76,523.22 188.5444,524.7713 232.5944,526.4513" fill="none" id="Journalist-to-UC10" style="stroke:#181818;stroke-width:1;"/><polygon fill="#181818" points="238.59,526.68,229.749,522.3399,233.5936,526.4894,229.4441,530.3341,238.59,526.68" style="stroke:#181818;stroke-width:1;"/></g><!--link Journalist to UC11--><g class="link" data-entity-1="Journalist" data-entity-2="UC11" data-source-line="36" data-uid="lnk26" id="link_Journalist_UC11"><path d="M118.6,513.35 C162.51,501.81 240.5571,481.2952 294.8871,467.0152" fill="none" id="Journalist-to-UC11" style="stroke:#181818;stroke-width:1;"/><polygon fill="#181818" points="300.69,465.49,290.9688,463.9092,295.8542,466.761,293.0025,471.6464,300.69,465.49" style="stroke:#181818;stroke-width:1;"/></g><!--link Citizen to UC11--><g class="link" data-entity-1="Citizen" data-entity-2="UC11" data-source-line="38" data-uid="lnk27" id="link_Citizen_UC11"><path d="M110.1,392.1 C150.41,402.08 235.0159,423.0278 293.1659,437.4278" fill="none" id="Citizen-to-UC11" style="stroke:#181818;stroke-width:1;"/><polygon fill="#181818" points="298.99,438.87,291.2154,432.8239,294.1366,437.6681,289.2924,440.5893,298.99,438.87" style="stroke:#181818;stroke-width:1;"/></g><!--link Citizen to UC12--><g class="link" data-entity-1="Citizen" data-entity-2="UC12" data-source-line="39" data-uid="lnk28" id="link_Citizen_UC12"><path d="M110.1,386.29 C142.37,385.19 200.7735,383.1856 255.0135,381.3256" fill="none" id="Citizen-to-UC12" style="stroke:#181818;stroke-width:1;"/><polygon fill="#181818" points="261.01,381.12,251.8782,377.4308,256.0129,381.2914,252.1524,385.4261,261.01,381.12" style="stroke:#181818;stroke-width:1;"/></g><!--SRC=[TPFBRi8m44Nt_eeHUrGI489DfOXIYQgLAX3TcsGQN2KsjITKxTTtyZ31F7QPE-ScrpDEWPy4PC2gV4-GAOifAQE5a2aP2uFdYYgBi7Le1o0Tj7LTUkBT58fKAWj8SjJKK2UjaJovOEqFTKDqpxxrOYghPQ5Sw-zB3onfhrAscR9KH8ZmXkMkozJsJYrlIR9IQNw5bLmsOA088Ig7gNG8W-rY5C6mEIMiCMyH7WCNtnLseMeeiCHiIGu7QuxuiCOldbnWzgOuC8tPzCeChBGZHLLDEe-E0tJ2QFj2ZdM6UteIq5EcDzMEPm1Fc1Oo334Ds1cp7ppVJ1BUecS1FQzfXJ-SWJ1d4ZFOS9R0CZ-tHADwDBp1NwvNEZKbml9eYlFuqIXmHFuZYND8VY9HCF4exi_8wpuKKcc_coZcXVQt4uR3ntPZ8jYwr-FRyaI8yExwnlYEFXNYulhvpknUOov4VxyxaOTnhN7sxZVfbGiX5ly0]--></g></svg>