<?plantuml 1.2026.2?><svg xmlns="http://www.w3.org/2000/svg" xmlns:xlink="http://www.w3.org/1999/xlink" contentStyleType="text/css" data-diagram-type="CLASS" height="783.2px" preserveAspectRatio="none" style="width:1259px;height:783px;background:#FFFFFF;" version="1.1" viewBox="0 0 1259 783" width="1259.2px" zoomAndPan="magnify"><defs/><g><!--class AnalyseIncomeEvolutionUI--><g class="entity" data-qualified-name="AnalyseIncomeEvolutionUI" data-source-line="7" id="ent0002"><rect fill="#F1F1F1" height="53.2969" rx="2" ry="2" style="stroke:#181818;stroke-width:0.4;" width="159.4477" x="182.4" y="27.6"/><ellipse cx="194.4" cy="40.4" fill="#C2C2C2" rx="8.8" ry="8.8" style="stroke:#181818;stroke-width:0.8;"/><path d="M196.6125,37.1 Q196.7375,36.925 196.8875,36.8375 Q197.0375,36.75 197.2125,36.75 Q197.5125,36.75 197.7,36.9625 Q197.8875,37.1625 197.8875,37.65 L197.8875,38.8125 Q197.8875,39.3 197.7,39.5125 Q197.5125,39.725 197.2125,39.725 Q196.9375,39.725 196.775,39.5625 Q196.6125,39.4125 196.525,39 Q196.4875,38.7125 196.3375,38.5625 Q196.075,38.2625 195.5875,38.0875 Q195.1,37.9125 194.6,37.9125 Q193.9875,37.9125 193.475,38.175 Q192.975,38.4375 192.575,39.0375 Q192.1875,39.6375 192.1875,40.4625 L192.1875,41.3375 Q192.1875,42.325 192.9,42.9875 Q193.6125,43.6375 194.8875,43.6375 Q195.6375,43.6375 196.1625,43.4375 Q196.475,43.3125 196.8125,42.9625 Q197.025,42.75 197.1375,42.6875 Q197.2625,42.625 197.425,42.625 Q197.6875,42.625 197.8875,42.8375 Q198.1,43.0375 198.1,43.3125 Q198.1,43.5875 197.825,43.9125 Q197.425,44.375 196.7875,44.6375 Q195.925,45 194.8875,45 Q193.675,45 192.7125,44.5 Q191.925,44.1 191.375,43.25 Q190.825,42.3875 190.825,41.3625 L190.825,40.4375 Q190.825,39.375 191.3125,38.4625 Q191.8125,37.5375 192.6875,37.05 Q193.5625,36.55 194.55,36.55 Q195.1375,36.55 195.65,36.6875 Q196.175,36.8125 196.6125,37.1 Z " fill="#000000"/><text fill="#000000" font-family="sans-serif" font-size="11.2" lengthAdjust="spacing" textLength="133.8477" x="205.6" y="45.0375">AnalyseIncomeEvolutionUI</text><line style="stroke:#181818;stroke-width:0.4;" x1="183.2" x2="341.0477" y1="53.2" y2="53.2"/><line style="stroke:#181818;stroke-width:0.4;" x1="183.2" x2="341.0477" y1="59.6" y2="59.6"/><text fill="#000000" font-family="sans-serif" font-size="11.2" lengthAdjust="spacing" textLength="30.1875" x="187.2" y="74.8859">+run()</text></g><!--class AnalyseIncomeEvolutionController--><g class="entity" data-qualified-name="AnalyseIncomeEvolutionController" data-source-line="11" id="ent0003"><rect fill="#F1F1F1" height="97.9875" rx="2" ry="2" style="stroke:#181818;stroke-width:0.4;" width="298.1641" x="369.6" y="5.6"/><ellipse cx="429.6824" cy="18.4" fill="#C2C2C2" rx="8.8" ry="8.8" style="stroke:#181818;stroke-width:0.8;"/><path d="M431.8949,15.1 Q432.0199,14.925 432.1699,14.8375 Q432.3199,14.75 432.4949,14.75 Q432.7949,14.75 432.9824,14.9625 Q433.1699,15.1625 433.1699,15.65 L433.1699,16.8125 Q433.1699,17.3 432.9824,17.5125 Q432.7949,17.725 432.4949,17.725 Q432.2199,17.725 432.0574,17.5625 Q431.8949,17.4125 431.8074,17 Q431.7699,16.7125 431.6199,16.5625 Q431.3574,16.2625 430.8699,16.0875 Q430.3824,15.9125 429.8824,15.9125 Q429.2699,15.9125 428.7574,16.175 Q428.2574,16.4375 427.8574,17.0375 Q427.4699,17.6375 427.4699,18.4625 L427.4699,19.3375 Q427.4699,20.325 428.1824,20.9875 Q428.8949,21.6375 430.1699,21.6375 Q430.9199,21.6375 431.4449,21.4375 Q431.7574,21.3125 432.0949,20.9625 Q432.3074,20.75 432.4199,20.6875 Q432.5449,20.625 432.7074,20.625 Q432.9699,20.625 433.1699,20.8375 Q433.3824,21.0375 433.3824,21.3125 Q433.3824,21.5875 433.1074,21.9125 Q432.7074,22.375 432.0699,22.6375 Q431.2074,23 430.1699,23 Q428.9574,23 427.9949,22.5 Q427.2074,22.1 426.6574,21.25 Q426.1074,20.3875 426.1074,19.3625 L426.1074,18.4375 Q426.1074,17.375 426.5949,16.4625 Q427.0949,15.5375 427.9699,15.05 Q428.8449,14.55 429.8324,14.55 Q430.4199,14.55 430.9324,14.6875 Q431.4574,14.8125 431.8949,15.1 Z " fill="#000000"/><text fill="#000000" font-family="sans-serif" font-size="11.2" lengthAdjust="spacing" textLength="171.1992" x="446.0824" y="23.0375">AnalyseIncomeEvolutionController</text><line style="stroke:#181818;stroke-width:0.4;" x1="370.4" x2="666.9641" y1="31.2" y2="31.2"/><line style="stroke:#181818;stroke-width:0.4;" x1="370.4" x2="666.9641" y1="37.6" y2="37.6"/><text fill="#000000" font-family="sans-serif" font-size="11.2" lengthAdjust="spacing" textLength="185.1992" x="374.4" y="52.8859">+AnalyseIncomeEvolutionController()</text><text fill="#000000" font-family="sans-serif" font-size="11.2" lengthAdjust="spacing" textLength="103.0313" x="374.4" y="67.7828">+getPoliticalAgents()</text><text fill="#000000" font-family="sans-serif" font-size="11.2" lengthAdjust="spacing" textLength="288.5641" x="374.4" y="82.6797">+getIncomeEvolution(politicalAgentId, startDate, endDate)</text><text fill="#000000" font-family="sans-serif" font-size="11.2" lengthAdjust="spacing" textLength="170.5813" x="374.4" y="97.5766">-getPoliticalAgent(politicalAgentId)</text></g><!--class ApplicationSession--><g class="entity" data-qualified-name="ApplicationSession" data-source-line="18" id="ent0004"><rect fill="#F1F1F1" height="83.0906" rx="2" ry="2" style="stroke:#181818;stroke-width:0.4;" width="120.2367" x="237.2" y="166.4"/><ellipse cx="249.2" cy="179.2" fill="#C2C2C2" rx="8.8" ry="8.8" style="stroke:#181818;stroke-width:0.8;"/><path d="M251.4125,175.9 Q251.5375,175.725 251.6875,175.6375 Q251.8375,175.55 252.0125,175.55 Q252.3125,175.55 252.5,175.7625 Q252.6875,175.9625 252.6875,176.45 L252.6875,177.6125 Q252.6875,178.1 252.5,178.3125 Q252.3125,178.525 252.0125,178.525 Q251.7375,178.525 251.575,178.3625 Q251.4125,178.2125 251.325,177.8 Q251.2875,177.5125 251.1375,177.3625 Q250.875,177.0625 250.3875,176.8875 Q249.9,176.7125 249.4,176.7125 Q248.7875,176.7125 248.275,176.975 Q247.775,177.2375 247.375,177.8375 Q246.9875,178.4375 246.9875,179.2625 L246.9875,180.1375 Q246.9875,181.125 247.7,181.7875 Q248.4125,182.4375 249.6875,182.4375 Q250.4375,182.4375 250.9625,182.2375 Q251.275,182.1125 251.6125,181.7625 Q251.825,181.55 251.9375,181.4875 Q252.0625,181.425 252.225,181.425 Q252.4875,181.425 252.6875,181.6375 Q252.9,181.8375 252.9,182.1125 Q252.9,182.3875 252.625,182.7125 Q252.225,183.175 251.5875,183.4375 Q250.725,183.8 249.6875,183.8 Q248.475,183.8 247.5125,183.3 Q246.725,182.9 246.175,182.05 Q245.625,181.1875 245.625,180.1625 L245.625,179.2375 Q245.625,178.175 246.1125,177.2625 Q246.6125,176.3375 247.4875,175.85 Q248.3625,175.35 249.35,175.35 Q249.9375,175.35 250.45,175.4875 Q250.975,175.6125 251.4125,175.9 Z " fill="#000000"/><text fill="#000000" font-family="sans-serif" font-size="11.2" lengthAdjust="spacing" textLength="94.6367" x="260.4" y="183.8375">ApplicationSession</text><line style="stroke:#181818;stroke-width:0.4;" x1="238" x2="356.6367" y1="192" y2="192"/><line style="stroke:#181818;stroke-width:0.4;" x1="238" x2="356.6367" y1="198.4" y2="198.4"/><text fill="#000000" font-family="sans-serif" font-size="11.2" lengthAdjust="spacing" textLength="105.8258" x="242" y="213.6859">-ApplicationSession()</text><text fill="#000000" font-family="sans-serif" font-size="11.2" lengthAdjust="spacing" text-decoration="underline" textLength="71.9086" x="242" y="228.5828">+getInstance()</text><text fill="#000000" font-family="sans-serif" font-size="11.2" lengthAdjust="spacing" textLength="106.7609" x="242" y="243.4797">+getCurrentSession()</text></g><!--class UserSession--><g class="entity" data-qualified-name="UserSession" data-source-line="24" id="ent0005"><rect fill="#F1F1F1" height="53.2969" rx="2" ry="2" style="stroke:#181818;stroke-width:0.4;" width="89.0922" x="336.8" y="342.4"/><ellipse cx="348.8" cy="355.2" fill="#C2C2C2" rx="8.8" ry="8.8" style="stroke:#181818;stroke-width:0.8;"/><path d="M351.0125,351.9 Q351.1375,351.725 351.2875,351.6375 Q351.4375,351.55 351.6125,351.55 Q351.9125,351.55 352.1,351.7625 Q352.2875,351.9625 352.2875,352.45 L352.2875,353.6125 Q352.2875,354.1 352.1,354.3125 Q351.9125,354.525 351.6125,354.525 Q351.3375,354.525 351.175,354.3625 Q351.0125,354.2125 350.925,353.8 Q350.8875,353.5125 350.7375,353.3625 Q350.475,353.0625 349.9875,352.8875 Q349.5,352.7125 349,352.7125 Q348.3875,352.7125 347.875,352.975 Q347.375,353.2375 346.975,353.8375 Q346.5875,354.4375 346.5875,355.2625 L346.5875,356.1375 Q346.5875,357.125 347.3,357.7875 Q348.0125,358.4375 349.2875,358.4375 Q350.0375,358.4375 350.5625,358.2375 Q350.875,358.1125 351.2125,357.7625 Q351.425,357.55 351.5375,357.4875 Q351.6625,357.425 351.825,357.425 Q352.0875,357.425 352.2875,357.6375 Q352.5,357.8375 352.5,358.1125 Q352.5,358.3875 352.225,358.7125 Q351.825,359.175 351.1875,359.4375 Q350.325,359.8 349.2875,359.8 Q348.075,359.8 347.1125,359.3 Q346.325,358.9 345.775,358.05 Q345.225,357.1875 345.225,356.1625 L345.225,355.2375 Q345.225,354.175 345.7125,353.2625 Q346.2125,352.3375 347.0875,351.85 Q347.9625,351.35 348.95,351.35 Q349.5375,351.35 350.05,351.4875 Q350.575,351.6125 351.0125,351.9 Z " fill="#000000"/><text fill="#000000" font-family="sans-serif" font-size="11.2" lengthAdjust="spacing" textLength="63.4922" x="360" y="359.8375">UserSession</text><line style="stroke:#181818;stroke-width:0.4;" x1="337.6" x2="425.0922" y1="368" y2="368"/><line style="stroke:#181818;stroke-width:0.4;" x1="337.6" x2="425.0922" y1="374.4" y2="374.4"/><text fill="#000000" font-family="sans-serif" font-size="11.2" lengthAdjust="spacing" textLength="68.8023" x="341.6" y="389.6859">+isLoggedIn()</text></g><!--class Repositories--><g class="entity" data-qualified-name="Repositories" data-source-line="28" id="ent0006"><rect fill="#F1F1F1" height="97.9875" rx="2" ry="2" style="stroke:#181818;stroke-width:0.4;" width="160.5648" x="729.6" y="5.6"/><ellipse cx="775.357" cy="18.4" fill="#C2C2C2" rx="8.8" ry="8.8" style="stroke:#181818;stroke-width:0.8;"/><path d="M777.5695,15.1 Q777.6945,14.925 777.8445,14.8375 Q777.9945,14.75 778.1695,14.75 Q778.4695,14.75 778.657,14.9625 Q778.8445,15.1625 778.8445,15.65 L778.8445,16.8125 Q778.8445,17.3 778.657,17.5125 Q778.4695,17.725 778.1695,17.725 Q777.8945,17.725 777.732,17.5625 Q777.5695,17.4125 777.482,17 Q777.4445,16.7125 777.2945,16.5625 Q777.032,16.2625 776.5445,16.0875 Q776.057,15.9125 775.557,15.9125 Q774.9445,15.9125 774.432,16.175 Q773.932,16.4375 773.532,17.0375 Q773.1445,17.6375 773.1445,18.4625 L773.1445,19.3375 Q773.1445,20.325 773.857,20.9875 Q774.5695,21.6375 775.8445,21.6375 Q776.5945,21.6375 777.1195,21.4375 Q777.432,21.3125 777.7695,20.9625 Q777.982,20.75 778.0945,20.6875 Q778.2195,20.625 778.382,20.625 Q778.6445,20.625 778.8445,20.8375 Q779.057,21.0375 779.057,21.3125 Q779.057,21.5875 778.782,21.9125 Q778.382,22.375 777.7445,22.6375 Q776.882,23 775.8445,23 Q774.632,23 773.6695,22.5 Q772.882,22.1 772.332,21.25 Q771.782,20.3875 771.782,19.3625 L771.782,18.4375 Q771.782,17.375 772.2695,16.4625 Q772.7695,15.5375 773.6445,15.05 Q774.5195,14.55 775.507,14.55 Q776.0945,14.55 776.607,14.6875 Q777.132,14.8125 777.5695,15.1 Z " fill="#000000"/><text fill="#000000" font-family="sans-serif" font-size="11.2" lengthAdjust="spacing" textLength="62.2508" x="791.757" y="23.0375">Repositories</text><line style="stroke:#181818;stroke-width:0.4;" x1="730.4" x2="889.3648" y1="31.2" y2="31.2"/><line style="stroke:#181818;stroke-width:0.4;" x1="730.4" x2="889.3648" y1="37.6" y2="37.6"/><text fill="#000000" font-family="sans-serif" font-size="11.2" lengthAdjust="spacing" textLength="73.4398" x="734.4" y="52.8859">-Repositories()</text><text fill="#000000" font-family="sans-serif" font-size="11.2" lengthAdjust="spacing" text-decoration="underline" textLength="71.9086" x="734.4" y="67.7828">+getInstance()</text><text fill="#000000" font-family="sans-serif" font-size="11.2" lengthAdjust="spacing" textLength="150.9648" x="734.4" y="82.6797">+getPoliticalAgentRepository()</text><text fill="#000000" font-family="sans-serif" font-size="11.2" lengthAdjust="spacing" textLength="139.7539" x="734.4" y="97.5766">+getDeclarationRepository()</text></g><!--class PoliticalAgentRepository--><g class="entity" data-qualified-name="PoliticalAgentRepository" data-source-line="35" id="ent0007"><rect fill="#F1F1F1" height="68.1938" rx="2" ry="2" style="stroke:#181818;stroke-width:0.4;" width="146.9953" x="736.4" y="174"/><ellipse cx="748.4" cy="186.8" fill="#C2C2C2" rx="8.8" ry="8.8" style="stroke:#181818;stroke-width:0.8;"/><path d="M750.6125,183.5 Q750.7375,183.325 750.8875,183.2375 Q751.0375,183.15 751.2125,183.15 Q751.5125,183.15 751.7,183.3625 Q751.8875,183.5625 751.8875,184.05 L751.8875,185.2125 Q751.8875,185.7 751.7,185.9125 Q751.5125,186.125 751.2125,186.125 Q750.9375,186.125 750.775,185.9625 Q750.6125,185.8125 750.525,185.4 Q750.4875,185.1125 750.3375,184.9625 Q750.075,184.6625 749.5875,184.4875 Q749.1,184.3125 748.6,184.3125 Q747.9875,184.3125 747.475,184.575 Q746.975,184.8375 746.575,185.4375 Q746.1875,186.0375 746.1875,186.8625 L746.1875,187.7375 Q746.1875,188.725 746.9,189.3875 Q747.6125,190.0375 748.8875,190.0375 Q749.6375,190.0375 750.1625,189.8375 Q750.475,189.7125 750.8125,189.3625 Q751.025,189.15 751.1375,189.0875 Q751.2625,189.025 751.425,189.025 Q751.6875,189.025 751.8875,189.2375 Q752.1,189.4375 752.1,189.7125 Q752.1,189.9875 751.825,190.3125 Q751.425,190.775 750.7875,191.0375 Q749.925,191.4 748.8875,191.4 Q747.675,191.4 746.7125,190.9 Q745.925,190.5 745.375,189.65 Q744.825,188.7875 744.825,187.7625 L744.825,186.8375 Q744.825,185.775 745.3125,184.8625 Q745.8125,183.9375 746.6875,183.45 Q747.5625,182.95 748.55,182.95 Q749.1375,182.95 749.65,183.0875 Q750.175,183.2125 750.6125,183.5 Z " fill="#000000"/><text fill="#000000" font-family="sans-serif" font-size="11.2" lengthAdjust="spacing" textLength="121.3953" x="759.6" y="191.4375">PoliticalAgentRepository</text><line style="stroke:#181818;stroke-width:0.4;" x1="737.2" x2="882.5953" y1="199.6" y2="199.6"/><line style="stroke:#181818;stroke-width:0.4;" x1="737.2" x2="882.5953" y1="206" y2="206"/><text fill="#000000" font-family="sans-serif" font-size="11.2" lengthAdjust="spacing" textLength="115.4781" x="741.2" y="221.2859">+getAllPoliticalAgents()</text><text fill="#000000" font-family="sans-serif" font-size="11.2" lengthAdjust="spacing" textLength="60.6977" x="741.2" y="236.1828">+getById(id)</text></g><!--class DeclarationRepository--><g class="entity" data-qualified-name="DeclarationRepository" data-source-line="40" id="ent0008"><rect fill="#F1F1F1" height="53.2969" rx="2" ry="2" style="stroke:#181818;stroke-width:0.4;" width="341.7445" x="912" y="181.2"/><ellipse cx="1024.3801" cy="194" fill="#C2C2C2" rx="8.8" ry="8.8" style="stroke:#181818;stroke-width:0.8;"/><path d="M1026.5926,190.7 Q1026.7176,190.525 1026.8676,190.4375 Q1027.0176,190.35 1027.1926,190.35 Q1027.4926,190.35 1027.6801,190.5625 Q1027.8676,190.7625 1027.8676,191.25 L1027.8676,192.4125 Q1027.8676,192.9 1027.6801,193.1125 Q1027.4926,193.325 1027.1926,193.325 Q1026.9176,193.325 1026.7551,193.1625 Q1026.5926,193.0125 1026.5051,192.6 Q1026.4676,192.3125 1026.3176,192.1625 Q1026.0551,191.8625 1025.5676,191.6875 Q1025.0801,191.5125 1024.5801,191.5125 Q1023.9676,191.5125 1023.4551,191.775 Q1022.9551,192.0375 1022.5551,192.6375 Q1022.1676,193.2375 1022.1676,194.0625 L1022.1676,194.9375 Q1022.1676,195.925 1022.8801,196.5875 Q1023.5926,197.2375 1024.8676,197.2375 Q1025.6176,197.2375 1026.1426,197.0375 Q1026.4551,196.9125 1026.7926,196.5625 Q1027.0051,196.35 1027.1176,196.2875 Q1027.2426,196.225 1027.4051,196.225 Q1027.6676,196.225 1027.8676,196.4375 Q1028.0801,196.6375 1028.0801,196.9125 Q1028.0801,197.1875 1027.8051,197.5125 Q1027.4051,197.975 1026.7676,198.2375 Q1025.9051,198.6 1024.8676,198.6 Q1023.6551,198.6 1022.6926,198.1 Q1021.9051,197.7 1021.3551,196.85 Q1020.8051,195.9875 1020.8051,194.9625 L1020.8051,194.0375 Q1020.8051,192.975 1021.2926,192.0625 Q1021.7926,191.1375 1022.6676,190.65 Q1023.5426,190.15 1024.5301,190.15 Q1025.1176,190.15 1025.6301,190.2875 Q1026.1551,190.4125 1026.5926,190.7 Z " fill="#000000"/><text fill="#000000" font-family="sans-serif" font-size="11.2" lengthAdjust="spacing" textLength="110.1844" x="1040.7801" y="198.6375">DeclarationRepository</text><line style="stroke:#181818;stroke-width:0.4;" x1="912.8" x2="1252.9445" y1="206.8" y2="206.8"/><line style="stroke:#181818;stroke-width:0.4;" x1="912.8" x2="1252.9445" y1="213.2" y2="213.2"/><text fill="#000000" font-family="sans-serif" font-size="11.2" lengthAdjust="spacing" textLength="332.1445" x="916.8" y="228.4859">+findByPoliticalAgentAndPeriod(politicalAgent, startDate, endDate)</text></g><!--class PoliticalAgent--><g class="entity" data-qualified-name="PoliticalAgent" data-source-line="44" id="ent0009"><rect fill="#F1F1F1" height="97.9875" rx="2" ry="2" style="stroke:#181818;stroke-width:0.4;" width="99.8563" x="609.6" y="320.4"/><ellipse cx="624.4775" cy="333.2" fill="#C2C2C2" rx="8.8" ry="8.8" style="stroke:#181818;stroke-width:0.8;"/><path d="M626.69,329.9 Q626.815,329.725 626.965,329.6375 Q627.115,329.55 627.29,329.55 Q627.59,329.55 627.7775,329.7625 Q627.965,329.9625 627.965,330.45 L627.965,331.6125 Q627.965,332.1 627.7775,332.3125 Q627.59,332.525 627.29,332.525 Q627.015,332.525 626.8525,332.3625 Q626.69,332.2125 626.6025,331.8 Q626.565,331.5125 626.415,331.3625 Q626.1525,331.0625 625.665,330.8875 Q625.1775,330.7125 624.6775,330.7125 Q624.065,330.7125 623.5525,330.975 Q623.0525,331.2375 622.6525,331.8375 Q622.265,332.4375 622.265,333.2625 L622.265,334.1375 Q622.265,335.125 622.9775,335.7875 Q623.69,336.4375 624.965,336.4375 Q625.715,336.4375 626.24,336.2375 Q626.5525,336.1125 626.89,335.7625 Q627.1025,335.55 627.215,335.4875 Q627.34,335.425 627.5025,335.425 Q627.765,335.425 627.965,335.6375 Q628.1775,335.8375 628.1775,336.1125 Q628.1775,336.3875 627.9025,336.7125 Q627.5025,337.175 626.865,337.4375 Q626.0025,337.8 624.965,337.8 Q623.7525,337.8 622.79,337.3 Q622.0025,336.9 621.4525,336.05 Q620.9025,335.1875 620.9025,334.1625 L620.9025,333.2375 Q620.9025,332.175 621.39,331.2625 Q621.89,330.3375 622.765,329.85 Q623.64,329.35 624.6275,329.35 Q625.215,329.35 625.7275,329.4875 Q626.2525,329.6125 626.69,329.9 Z " fill="#000000"/><text fill="#000000" font-family="sans-serif" font-size="11.2" lengthAdjust="spacing" textLength="67.8617" x="636.317" y="337.8375">PoliticalAgent</text><line style="stroke:#181818;stroke-width:0.4;" x1="610.4" x2="708.6563" y1="346" y2="346"/><text fill="#000000" font-family="sans-serif" font-size="11.2" lengthAdjust="spacing" textLength="70.3391" x="614.4" y="361.2859">-name : String</text><text fill="#000000" font-family="sans-serif" font-size="11.2" lengthAdjust="spacing" textLength="66.6039" x="614.4" y="376.1828">-taxId : String</text><text fill="#000000" font-family="sans-serif" font-size="11.2" lengthAdjust="spacing" textLength="69.0867" x="614.4" y="391.0797">-email : String</text><text fill="#000000" font-family="sans-serif" font-size="11.2" lengthAdjust="spacing" textLength="90.2563" x="614.4" y="405.9766">-password : String</text><line style="stroke:#181818;stroke-width:0.4;" x1="610.4" x2="708.6563" y1="411.9875" y2="411.9875"/></g><!--class Declaration--><g class="entity" data-qualified-name="Declaration" data-source-line="51" id="ent0010"><rect fill="#F1F1F1" height="127.7813" rx="2" ry="2" style="stroke:#181818;stroke-width:0.4;" width="152.7773" x="583.2" y="488.8"/><ellipse cx="627.8633" cy="501.6" fill="#C2C2C2" rx="8.8" ry="8.8" style="stroke:#181818;stroke-width:0.8;"/><path d="M630.0758,498.3 Q630.2008,498.125 630.3508,498.0375 Q630.5008,497.95 630.6758,497.95 Q630.9758,497.95 631.1633,498.1625 Q631.3508,498.3625 631.3508,498.85 L631.3508,500.0125 Q631.3508,500.5 631.1633,500.7125 Q630.9758,500.925 630.6758,500.925 Q630.4008,500.925 630.2383,500.7625 Q630.0758,500.6125 629.9883,500.2 Q629.9508,499.9125 629.8008,499.7625 Q629.5383,499.4625 629.0508,499.2875 Q628.5633,499.1125 628.0633,499.1125 Q627.4508,499.1125 626.9383,499.375 Q626.4383,499.6375 626.0383,500.2375 Q625.6508,500.8375 625.6508,501.6625 L625.6508,502.5375 Q625.6508,503.525 626.3633,504.1875 Q627.0758,504.8375 628.3508,504.8375 Q629.1008,504.8375 629.6258,504.6375 Q629.9383,504.5125 630.2758,504.1625 Q630.4883,503.95 630.6008,503.8875 Q630.7258,503.825 630.8883,503.825 Q631.1508,503.825 631.3508,504.0375 Q631.5633,504.2375 631.5633,504.5125 Q631.5633,504.7875 631.2883,505.1125 Q630.8883,505.575 630.2508,505.8375 Q629.3883,506.2 628.3508,506.2 Q627.1383,506.2 626.1758,505.7 Q625.3883,505.3 624.8383,504.45 Q624.2883,503.5875 624.2883,502.5625 L624.2883,501.6375 Q624.2883,500.575 624.7758,499.6625 Q625.2758,498.7375 626.1508,498.25 Q627.0258,497.75 628.0133,497.75 Q628.6008,497.75 629.1133,497.8875 Q629.6383,498.0125 630.0758,498.3 Z " fill="#000000"/><text fill="#000000" font-family="sans-serif" font-size="11.2" lengthAdjust="spacing" textLength="56.6508" x="644.2633" y="506.2375">Declaration</text><line style="stroke:#181818;stroke-width:0.4;" x1="584" x2="735.1773" y1="514.4" y2="514.4"/><text fill="#000000" font-family="sans-serif" font-size="11.2" lengthAdjust="spacing" textLength="143.1773" x="588" y="529.6859">-submissionDate : LocalDate</text><line style="stroke:#181818;stroke-width:0.4;" x1="584" x2="735.1773" y1="535.6969" y2="535.6969"/><text fill="#000000" font-family="sans-serif" font-size="11.2" lengthAdjust="spacing" textLength="111.1195" x="588" y="550.9828">+getSubmissionDate()</text><text fill="#000000" font-family="sans-serif" font-size="11.2" lengthAdjust="spacing" textLength="54.4688" x="588" y="565.8797">+getType()</text><text fill="#000000" font-family="sans-serif" font-size="11.2" lengthAdjust="spacing" textLength="131.0422" x="588" y="580.7766">+getTotalPositionIncome()</text><text fill="#000000" font-family="sans-serif" font-size="11.2" lengthAdjust="spacing" textLength="131.0422" x="588" y="595.6734">+getTotalSubsidyIncome()</text><text fill="#000000" font-family="sans-serif" font-size="11.2" lengthAdjust="spacing" textLength="91.1969" x="588" y="610.5703">+getTotalIncome()</text></g><!--class Position--><g class="entity" data-qualified-name="Position" data-source-line="61" id="ent0011"><rect fill="#F1F1F1" height="97.9875" rx="2" ry="2" style="stroke:#181818;stroke-width:0.4;" width="122.2891" x="462.4" y="680"/><ellipse cx="500.2219" cy="692.8" fill="#C2C2C2" rx="8.8" ry="8.8" style="stroke:#181818;stroke-width:0.8;"/><path d="M502.4344,689.5 Q502.5594,689.325 502.7094,689.2375 Q502.8594,689.15 503.0344,689.15 Q503.3344,689.15 503.5219,689.3625 Q503.7094,689.5625 503.7094,690.05 L503.7094,691.2125 Q503.7094,691.7 503.5219,691.9125 Q503.3344,692.125 503.0344,692.125 Q502.7594,692.125 502.5969,691.9625 Q502.4344,691.8125 502.3469,691.4 Q502.3094,691.1125 502.1594,690.9625 Q501.8969,690.6625 501.4094,690.4875 Q500.9219,690.3125 500.4219,690.3125 Q499.8094,690.3125 499.2969,690.575 Q498.7969,690.8375 498.3969,691.4375 Q498.0094,692.0375 498.0094,692.8625 L498.0094,693.7375 Q498.0094,694.725 498.7219,695.3875 Q499.4344,696.0375 500.7094,696.0375 Q501.4594,696.0375 501.9844,695.8375 Q502.2969,695.7125 502.6344,695.3625 Q502.8469,695.15 502.9594,695.0875 Q503.0844,695.025 503.2469,695.025 Q503.5094,695.025 503.7094,695.2375 Q503.9219,695.4375 503.9219,695.7125 Q503.9219,695.9875 503.6469,696.3125 Q503.2469,696.775 502.6094,697.0375 Q501.7469,697.4 500.7094,697.4 Q499.4969,697.4 498.5344,696.9 Q497.7469,696.5 497.1969,695.65 Q496.6469,694.7875 496.6469,693.7625 L496.6469,692.8375 Q496.6469,691.775 497.1344,690.8625 Q497.6344,689.9375 498.5094,689.45 Q499.3844,688.95 500.3719,688.95 Q500.9594,688.95 501.4719,689.0875 Q501.9969,689.2125 502.4344,689.5 Z " fill="#000000"/><text fill="#000000" font-family="sans-serif" font-size="11.2" lengthAdjust="spacing" textLength="39.8453" x="516.6219" y="697.4375">Position</text><line style="stroke:#181818;stroke-width:0.4;" x1="463.2" x2="583.8891" y1="705.6" y2="705.6"/><text fill="#000000" font-family="sans-serif" font-size="11.2" lengthAdjust="spacing" textLength="108.9375" x="467.2" y="720.8859">-startDate : LocalDate</text><text fill="#000000" font-family="sans-serif" font-size="11.2" lengthAdjust="spacing" textLength="105.8422" x="467.2" y="735.7828">-endDate : LocalDate</text><text fill="#000000" font-family="sans-serif" font-size="11.2" lengthAdjust="spacing" textLength="112.6891" x="467.2" y="750.6797">-remuneration : double</text><line style="stroke:#181818;stroke-width:0.4;" x1="463.2" x2="583.8891" y1="756.6906" y2="756.6906"/><text fill="#000000" font-family="sans-serif" font-size="11.2" lengthAdjust="spacing" textLength="99.9195" x="467.2" y="771.9766">+getRemuneration()</text></g><!--class Subsidy--><g class="entity" data-qualified-name="Subsidy" data-source-line="69" id="ent0012"><rect fill="#F1F1F1" height="83.0906" rx="2" ry="2" style="stroke:#181818;stroke-width:0.4;" width="93.6547" x="612.8" y="687.2"/><ellipse cx="637.4942" cy="700" fill="#C2C2C2" rx="8.8" ry="8.8" style="stroke:#181818;stroke-width:0.8;"/><path d="M639.7067,696.7 Q639.8317,696.525 639.9817,696.4375 Q640.1317,696.35 640.3067,696.35 Q640.6067,696.35 640.7942,696.5625 Q640.9817,696.7625 640.9817,697.25 L640.9817,698.4125 Q640.9817,698.9 640.7942,699.1125 Q640.6067,699.325 640.3067,699.325 Q640.0317,699.325 639.8692,699.1625 Q639.7067,699.0125 639.6192,698.6 Q639.5817,698.3125 639.4317,698.1625 Q639.1692,697.8625 638.6817,697.6875 Q638.1942,697.5125 637.6942,697.5125 Q637.0817,697.5125 636.5692,697.775 Q636.0692,698.0375 635.6692,698.6375 Q635.2817,699.2375 635.2817,700.0625 L635.2817,700.9375 Q635.2817,701.925 635.9942,702.5875 Q636.7067,703.2375 637.9817,703.2375 Q638.7317,703.2375 639.2567,703.0375 Q639.5692,702.9125 639.9067,702.5625 Q640.1192,702.35 640.2317,702.2875 Q640.3567,702.225 640.5192,702.225 Q640.7817,702.225 640.9817,702.4375 Q641.1942,702.6375 641.1942,702.9125 Q641.1942,703.1875 640.9192,703.5125 Q640.5192,703.975 639.8817,704.2375 Q639.0192,704.6 637.9817,704.6 Q636.7692,704.6 635.8067,704.1 Q635.0192,703.7 634.4692,702.85 Q633.9192,701.9875 633.9192,700.9625 L633.9192,700.0375 Q633.9192,698.975 634.4067,698.0625 Q634.9067,697.1375 635.7817,696.65 Q636.6567,696.15 637.6442,696.15 Q638.2317,696.15 638.7442,696.2875 Q639.2692,696.4125 639.7067,696.7 Z " fill="#000000"/><text fill="#000000" font-family="sans-serif" font-size="11.2" lengthAdjust="spacing" textLength="39.8453" x="651.5152" y="704.6375">Subsidy</text><line style="stroke:#181818;stroke-width:0.4;" x1="613.6" x2="705.6547" y1="712.8" y2="712.8"/><text fill="#000000" font-family="sans-serif" font-size="11.2" lengthAdjust="spacing" textLength="84.0547" x="617.6" y="728.0859">-amount : double</text><text fill="#000000" font-family="sans-serif" font-size="11.2" lengthAdjust="spacing" textLength="74.0797" x="617.6" y="742.9828">-nature : String</text><line style="stroke:#181818;stroke-width:0.4;" x1="613.6" x2="705.6547" y1="748.9938" y2="748.9938"/><text fill="#000000" font-family="sans-serif" font-size="11.2" lengthAdjust="spacing" textLength="68.168" x="617.6" y="764.2797">+getAmount()</text></g><!--class PoliticalAgentMapper--><g class="entity" data-qualified-name="PoliticalAgentMapper" data-source-line="76" id="ent0013"><rect fill="#F1F1F1" height="68.1938" rx="2" ry="2" style="stroke:#181818;stroke-width:0.4;" width="146.2313" x="561.6" y="174"/><ellipse cx="580.2575" cy="186.8" fill="#C2C2C2" rx="8.8" ry="8.8" style="stroke:#181818;stroke-width:0.8;"/><path d="M582.47,183.5 Q582.595,183.325 582.745,183.2375 Q582.895,183.15 583.07,183.15 Q583.37,183.15 583.5575,183.3625 Q583.745,183.5625 583.745,184.05 L583.745,185.2125 Q583.745,185.7 583.5575,185.9125 Q583.37,186.125 583.07,186.125 Q582.795,186.125 582.6325,185.9625 Q582.47,185.8125 582.3825,185.4 Q582.345,185.1125 582.195,184.9625 Q581.9325,184.6625 581.445,184.4875 Q580.9575,184.3125 580.4575,184.3125 Q579.845,184.3125 579.3325,184.575 Q578.8325,184.8375 578.4325,185.4375 Q578.045,186.0375 578.045,186.8625 L578.045,187.7375 Q578.045,188.725 578.7575,189.3875 Q579.47,190.0375 580.745,190.0375 Q581.495,190.0375 582.02,189.8375 Q582.3325,189.7125 582.67,189.3625 Q582.8825,189.15 582.995,189.0875 Q583.12,189.025 583.2825,189.025 Q583.545,189.025 583.745,189.2375 Q583.9575,189.4375 583.9575,189.7125 Q583.9575,189.9875 583.6825,190.3125 Q583.2825,190.775 582.645,191.0375 Q581.7825,191.4 580.745,191.4 Q579.5325,191.4 578.57,190.9 Q577.7825,190.5 577.2325,189.65 Q576.6825,188.7875 576.6825,187.7625 L576.6825,186.8375 Q576.6825,185.775 577.17,184.8625 Q577.67,183.9375 578.545,183.45 Q579.42,182.95 580.4075,182.95 Q580.995,182.95 581.5075,183.0875 Q582.0325,183.2125 582.47,183.5 Z " fill="#000000"/><text fill="#000000" font-family="sans-serif" font-size="11.2" lengthAdjust="spacing" textLength="105.8367" x="592.937" y="191.4375">PoliticalAgentMapper</text><line style="stroke:#181818;stroke-width:0.4;" x1="562.4" x2="707.0313" y1="199.6" y2="199.6"/><line style="stroke:#181818;stroke-width:0.4;" x1="562.4" x2="707.0313" y1="206" y2="206"/><text fill="#000000" font-family="sans-serif" font-size="11.2" lengthAdjust="spacing" textLength="136.6313" x="566.4" y="221.2859">+toDTOList(politicalAgents)</text><text fill="#000000" font-family="sans-serif" font-size="11.2" lengthAdjust="spacing" textLength="113.6023" x="566.4" y="236.1828">+toDTO(politicalAgent)</text></g><!--class IncomeEvolutionMapper--><g class="entity" data-qualified-name="IncomeEvolutionMapper" data-source-line="81" id="ent0014"><rect fill="#F1F1F1" height="68.1938" rx="2" ry="2" style="stroke:#181818;stroke-width:0.4;" width="146.3773" x="5.6" y="174"/><ellipse cx="17.6" cy="186.8" fill="#C2C2C2" rx="8.8" ry="8.8" style="stroke:#181818;stroke-width:0.8;"/><path d="M19.8125,183.5 Q19.9375,183.325 20.0875,183.2375 Q20.2375,183.15 20.4125,183.15 Q20.7125,183.15 20.9,183.3625 Q21.0875,183.5625 21.0875,184.05 L21.0875,185.2125 Q21.0875,185.7 20.9,185.9125 Q20.7125,186.125 20.4125,186.125 Q20.1375,186.125 19.975,185.9625 Q19.8125,185.8125 19.725,185.4 Q19.6875,185.1125 19.5375,184.9625 Q19.275,184.6625 18.7875,184.4875 Q18.3,184.3125 17.8,184.3125 Q17.1875,184.3125 16.675,184.575 Q16.175,184.8375 15.775,185.4375 Q15.3875,186.0375 15.3875,186.8625 L15.3875,187.7375 Q15.3875,188.725 16.1,189.3875 Q16.8125,190.0375 18.0875,190.0375 Q18.8375,190.0375 19.3625,189.8375 Q19.675,189.7125 20.0125,189.3625 Q20.225,189.15 20.3375,189.0875 Q20.4625,189.025 20.625,189.025 Q20.8875,189.025 21.0875,189.2375 Q21.3,189.4375 21.3,189.7125 Q21.3,189.9875 21.025,190.3125 Q20.625,190.775 19.9875,191.0375 Q19.125,191.4 18.0875,191.4 Q16.875,191.4 15.9125,190.9 Q15.125,190.5 14.575,189.65 Q14.025,188.7875 14.025,187.7625 L14.025,186.8375 Q14.025,185.775 14.5125,184.8625 Q15.0125,183.9375 15.8875,183.45 Q16.7625,182.95 17.75,182.95 Q18.3375,182.95 18.85,183.0875 Q19.375,183.2125 19.8125,183.5 Z " fill="#000000"/><text fill="#000000" font-family="sans-serif" font-size="11.2" lengthAdjust="spacing" textLength="120.7773" x="28.8" y="191.4375">IncomeEvolutionMapper</text><line style="stroke:#181818;stroke-width:0.4;" x1="6.4" x2="151.1773" y1="199.6" y2="199.6"/><line style="stroke:#181818;stroke-width:0.4;" x1="6.4" x2="151.1773" y1="206" y2="206"/><text fill="#000000" font-family="sans-serif" font-size="11.2" lengthAdjust="spacing" textLength="124.8023" x="10.4" y="221.2859">+toDTOList(declarations)</text><text fill="#000000" font-family="sans-serif" font-size="11.2" lengthAdjust="spacing" textLength="101.7734" x="10.4" y="236.1828">+toDTO(declaration)</text></g><!--class PoliticalAgentDTO--><g class="entity" data-qualified-name="PoliticalAgentDTO" data-source-line="86" id="ent0015"><rect fill="#F1F1F1" height="68.1938" rx="2" ry="2" style="stroke:#181818;stroke-width:0.4;" width="117.1031" x="462" y="335.2"/><ellipse cx="474" cy="348" fill="#C2C2C2" rx="8.8" ry="8.8" style="stroke:#181818;stroke-width:0.8;"/><path d="M476.2125,344.7 Q476.3375,344.525 476.4875,344.4375 Q476.6375,344.35 476.8125,344.35 Q477.1125,344.35 477.3,344.5625 Q477.4875,344.7625 477.4875,345.25 L477.4875,346.4125 Q477.4875,346.9 477.3,347.1125 Q477.1125,347.325 476.8125,347.325 Q476.5375,347.325 476.375,347.1625 Q476.2125,347.0125 476.125,346.6 Q476.0875,346.3125 475.9375,346.1625 Q475.675,345.8625 475.1875,345.6875 Q474.7,345.5125 474.2,345.5125 Q473.5875,345.5125 473.075,345.775 Q472.575,346.0375 472.175,346.6375 Q471.7875,347.2375 471.7875,348.0625 L471.7875,348.9375 Q471.7875,349.925 472.5,350.5875 Q473.2125,351.2375 474.4875,351.2375 Q475.2375,351.2375 475.7625,351.0375 Q476.075,350.9125 476.4125,350.5625 Q476.625,350.35 476.7375,350.2875 Q476.8625,350.225 477.025,350.225 Q477.2875,350.225 477.4875,350.4375 Q477.7,350.6375 477.7,350.9125 Q477.7,351.1875 477.425,351.5125 Q477.025,351.975 476.3875,352.2375 Q475.525,352.6 474.4875,352.6 Q473.275,352.6 472.3125,352.1 Q471.525,351.7 470.975,350.85 Q470.425,349.9875 470.425,348.9625 L470.425,348.0375 Q470.425,346.975 470.9125,346.0625 Q471.4125,345.1375 472.2875,344.65 Q473.1625,344.15 474.15,344.15 Q474.7375,344.15 475.25,344.2875 Q475.775,344.4125 476.2125,344.7 Z " fill="#000000"/><text fill="#000000" font-family="sans-serif" font-size="11.2" lengthAdjust="spacing" textLength="91.5031" x="485.2" y="352.6375">PoliticalAgentDTO</text><line style="stroke:#181818;stroke-width:0.4;" x1="462.8" x2="578.3031" y1="360.8" y2="360.8"/><text fill="#000000" font-family="sans-serif" font-size="11.2" lengthAdjust="spacing" textLength="53.8508" x="466.8" y="376.0859">+id : String</text><text fill="#000000" font-family="sans-serif" font-size="11.2" lengthAdjust="spacing" textLength="73.15" x="466.8" y="390.9828">+name : String</text><line style="stroke:#181818;stroke-width:0.4;" x1="462.8" x2="578.3031" y1="396.9938" y2="396.9938"/></g><!--class IncomeEvolutionDTO--><g class="entity" data-qualified-name="IncomeEvolutionDTO" data-source-line="91" id="ent0016"><rect fill="#F1F1F1" height="112.8844" rx="2" ry="2" style="stroke:#181818;stroke-width:0.4;" width="186.7164" x="112" y="312.8"/><ellipse cx="148.7363" cy="325.6" fill="#C2C2C2" rx="8.8" ry="8.8" style="stroke:#181818;stroke-width:0.8;"/><path d="M150.9488,322.3 Q151.0738,322.125 151.2238,322.0375 Q151.3738,321.95 151.5488,321.95 Q151.8488,321.95 152.0363,322.1625 Q152.2238,322.3625 152.2238,322.85 L152.2238,324.0125 Q152.2238,324.5 152.0363,324.7125 Q151.8488,324.925 151.5488,324.925 Q151.2738,324.925 151.1113,324.7625 Q150.9488,324.6125 150.8613,324.2 Q150.8238,323.9125 150.6738,323.7625 Q150.4113,323.4625 149.9238,323.2875 Q149.4363,323.1125 148.9363,323.1125 Q148.3238,323.1125 147.8113,323.375 Q147.3113,323.6375 146.9113,324.2375 Q146.5238,324.8375 146.5238,325.6625 L146.5238,326.5375 Q146.5238,327.525 147.2363,328.1875 Q147.9488,328.8375 149.2238,328.8375 Q149.9738,328.8375 150.4988,328.6375 Q150.8113,328.5125 151.1488,328.1625 Q151.3613,327.95 151.4738,327.8875 Q151.5988,327.825 151.7613,327.825 Q152.0238,327.825 152.2238,328.0375 Q152.4363,328.2375 152.4363,328.5125 Q152.4363,328.7875 152.1613,329.1125 Q151.7613,329.575 151.1238,329.8375 Q150.2613,330.2 149.2238,330.2 Q148.0113,330.2 147.0488,329.7 Q146.2613,329.3 145.7113,328.45 Q145.1613,327.5875 145.1613,326.5625 L145.1613,325.6375 Q145.1613,324.575 145.6488,323.6625 Q146.1488,322.7375 147.0238,322.25 Q147.8988,321.75 148.8863,321.75 Q149.4738,321.75 149.9863,321.8875 Q150.5113,322.0125 150.9488,322.3 Z " fill="#000000"/><text fill="#000000" font-family="sans-serif" font-size="11.2" lengthAdjust="spacing" textLength="106.4438" x="165.1363" y="330.2375">IncomeEvolutionDTO</text><line style="stroke:#181818;stroke-width:0.4;" x1="112.8" x2="297.9164" y1="338.4" y2="338.4"/><text fill="#000000" font-family="sans-serif" font-size="11.2" lengthAdjust="spacing" textLength="145.9883" x="116.8" y="353.6859">+submissionDate : LocalDate</text><text fill="#000000" font-family="sans-serif" font-size="11.2" lengthAdjust="spacing" textLength="177.1164" x="116.8" y="368.5828">+declarationType : DeclarationType</text><text fill="#000000" font-family="sans-serif" font-size="11.2" lengthAdjust="spacing" textLength="124.8406" x="116.8" y="383.4797">+positionIncome : double</text><text fill="#000000" font-family="sans-serif" font-size="11.2" lengthAdjust="spacing" textLength="124.2117" x="116.8" y="398.3766">+subsidyIncome : double</text><text fill="#000000" font-family="sans-serif" font-size="11.2" lengthAdjust="spacing" textLength="107.4063" x="116.8" y="413.2734">+totalIncome : double</text><line style="stroke:#181818;stroke-width:0.4;" x1="112.8" x2="297.9164" y1="419.2844" y2="419.2844"/></g><!--class DeclarationType--><g class="entity" data-qualified-name="DeclarationType" data-source-line="99" id="ent0017"><rect fill="#F1F1F1" height="83.0906" rx="2" ry="2" style="stroke:#181818;stroke-width:0.4;" width="107.15" x="734.8" y="687.2"/><ellipse cx="746.8" cy="700" fill="#ABABAB" rx="8.8" ry="8.8" style="stroke:#181818;stroke-width:0.8;"/><path d="M745.8875,700.6375 L745.8875,702.6375 L749.35,702.6375 L749.35,701.9 Q749.35,701.4125 749.5375,701.2 Q749.7375,700.9875 750.0375,700.9875 Q750.3375,700.9875 750.525,701.2 Q750.7125,701.4125 750.7125,701.9 L750.7125,704 L744.3125,704 Q743.8125,704 743.6,703.8125 Q743.4,703.625 743.4,703.3125 Q743.4,703.0125 743.6125,702.825 Q743.825,702.6375 744.3125,702.6375 L744.525,702.6375 L744.525,697.3125 L744.3125,697.3125 Q743.8125,697.3125 743.6,697.125 Q743.4,696.9375 743.4,696.625 Q743.4,696.325 743.6,696.1375 Q743.8125,695.95 744.3125,695.95 L750.4125,695.95 L750.4125,698.025 Q750.4125,698.5125 750.225,698.725 Q750.05,698.925 749.7375,698.925 Q749.4375,698.925 749.25,698.725 Q749.0625,698.5125 749.0625,698.025 L749.0625,697.3125 L745.8875,697.3125 L745.8875,699.275 L747.075,699.275 Q747.075,698.75 747.175,698.6 Q747.3875,698.275 747.7625,698.275 Q748.0625,698.275 748.25,698.4875 Q748.4375,698.6875 748.4375,699.175 L748.4375,700.75 Q748.4375,701.1875 748.3375,701.3375 Q748.125,701.65 747.7625,701.65 Q747.3875,701.65 747.175,701.325 Q747.075,701.175 747.075,700.6375 L745.8875,700.6375 Z " fill="#000000"/><text fill="#000000" font-family="sans-serif" font-size="11.2" lengthAdjust="spacing" textLength="81.55" x="758" y="704.6375">DeclarationType</text><line style="stroke:#181818;stroke-width:0.4;" x1="735.6" x2="841.15" y1="712.8" y2="712.8"/><text fill="#000000" font-family="sans-serif" font-size="11.2" lengthAdjust="spacing" textLength="37.9641" x="739.6" y="728.0859">INITIAL</text><text fill="#000000" font-family="sans-serif" font-size="11.2" lengthAdjust="spacing" textLength="54.1461" x="739.6" y="742.9828">REGULAR</text><text fill="#000000" font-family="sans-serif" font-size="11.2" lengthAdjust="spacing" textLength="78.4219" x="739.6" y="757.8797">EXCEPTIONAL</text><line style="stroke:#181818;stroke-width:0.4;" x1="735.6" x2="841.15" y1="763.8906" y2="763.8906"/></g><!--link AnalyseIncomeEvolutionUI to AnalyseIncomeEvolutionController--><g class="link" data-entity-1="ent0002" data-entity-2="ent0003" data-link-type="dependency" data-source-line="105" id="lnk18"><path codeLine="105" d="M341.72,54.4 C345.408,54.4 347.6,54.4 347.6,54.4 C347.6,54.4 352.128,54.4 364.624,54.4" fill="none" id="AnalyseIncomeEvolutionUI-to-AnalyseIncomeEvolutionController" style="stroke:#181818;stroke-width:0.8;stroke-dasharray:5.6,5.6;"/><polygon fill="#181818" points="369.424,54.4,362.224,51.2,365.424,54.4,362.224,57.6,369.424,54.4" style="stroke:#181818;stroke-width:0.8;"/></g><!--link AnalyseIncomeEvolutionController to Repositories--><g class="link" data-entity-1="ent0003" data-entity-2="ent0006" data-link-type="dependency" data-source-line="107" id="lnk19"><path codeLine="107" d="M668.096,54.4 C691.072,54.4 712.936,54.4 712.936,54.4 C712.936,54.4 714.784,54.4 724.6,54.4" fill="none" id="AnalyseIncomeEvolutionController-to-Repositories" style="stroke:#181818;stroke-width:0.8;stroke-dasharray:5.6,5.6;"/><polygon fill="#181818" points="729.4,54.4,722.2,51.2,725.4,54.4,722.2,57.6,729.4,54.4" style="stroke:#181818;stroke-width:0.8;"/></g><!--link AnalyseIncomeEvolutionController to ApplicationSession--><g class="link" data-entity-1="ent0003" data-entity-2="ent0004" data-link-type="dependency" data-source-line="108" id="lnk20"><path codeLine="108" d="M448.688,103.296 C419.136,123.56 389.07,144.1805 360.758,163.6045" fill="none" id="AnalyseIncomeEvolutionController-to-ApplicationSession" style="stroke:#181818;stroke-width:0.8;stroke-dasharray:5.6,5.6;"/><polygon fill="#181818" points="356.8,166.32,364.5474,164.8855,360.0984,164.0571,360.9267,159.6081,356.8,166.32" style="stroke:#181818;stroke-width:0.8;"/></g><!--link AnalyseIncomeEvolutionController to UserSession--><g class="link" data-entity-1="ent0003" data-entity-2="ent0005" data-link-type="dependency" data-source-line="109" id="lnk21"><path codeLine="109" d="M497.6,103.448 C468.128,170.544 417.715,285.2856 394.619,337.8456" fill="none" id="AnalyseIncomeEvolutionController-to-UserSession" style="stroke:#181818;stroke-width:0.8;stroke-dasharray:5.6,5.6;"/><polygon fill="#181818" points="392.688,342.24,398.5142,336.9357,394.2972,338.578,392.6549,334.361,392.688,342.24" style="stroke:#181818;stroke-width:0.8;"/></g><!--link AnalyseIncomeEvolutionController to PoliticalAgentRepository--><g class="link" data-entity-1="ent0003" data-entity-2="ent0007" data-link-type="dependency" data-source-line="110" id="lnk22"><path codeLine="110" d="M610.936,103.296 C655.008,126.296 702.4168,151.0428 742.0648,171.7388" fill="none" id="AnalyseIncomeEvolutionController-to-PoliticalAgentRepository" style="stroke:#181818;stroke-width:0.8;stroke-dasharray:5.6,5.6;"/><polygon fill="#181818" points="746.32,173.96,741.418,167.7915,742.774,172.109,738.4565,173.465,746.32,173.96" style="stroke:#181818;stroke-width:0.8;"/></g><!--link AnalyseIncomeEvolutionController to DeclarationRepository--><g class="link" data-entity-1="ent0003" data-entity-2="ent0008" data-link-type="dependency" data-source-line="111" id="lnk23"><path codeLine="111" d="M668.08,100.904 C736.912,121.984 803.6,142.4 803.6,142.4 C803.6,142.4 888.3403,162.0669 965.9723,180.0829" fill="none" id="AnalyseIncomeEvolutionController-to-DeclarationRepository" style="stroke:#181818;stroke-width:0.8;stroke-dasharray:5.6,5.6;"/><polygon fill="#181818" points="970.648,181.168,964.3578,176.4232,966.7515,180.2638,962.911,182.6575,970.648,181.168" style="stroke:#181818;stroke-width:0.8;"/></g><!--link AnalyseIncomeEvolutionController to PoliticalAgentMapper--><g class="link" data-entity-1="ent0003" data-entity-2="ent0013" data-link-type="dependency" data-source-line="112" id="lnk24"><path codeLine="112" d="M555.504,103.296 C573.024,126.256 590.6477,149.3444 606.4317,170.0244" fill="none" id="AnalyseIncomeEvolutionController-to-PoliticalAgentMapper" style="stroke:#181818;stroke-width:0.8;stroke-dasharray:5.6,5.6;"/><polygon fill="#181818" points="609.344,173.84,607.5194,166.1751,606.9171,170.6603,602.4319,170.0581,609.344,173.84" style="stroke:#181818;stroke-width:0.8;"/></g><!--link AnalyseIncomeEvolutionController to IncomeEvolutionMapper--><g class="link" data-entity-1="ent0003" data-entity-2="ent0014" data-link-type="dependency" data-source-line="113" id="lnk25"><path codeLine="113" d="M369.512,99.104 C360.872,101.648 355.6,103.2 355.6,103.2 C355.6,103.2 174,127.2 174,127.2 C174,127.2 148.1787,148.8959 122.0187,170.8799" fill="none" id="AnalyseIncomeEvolutionController-to-IncomeEvolutionMapper" style="stroke:#181818;stroke-width:0.8;stroke-dasharray:5.6,5.6;"/><polygon fill="#181818" points="118.344,173.968,125.9148,171.7856,121.4063,171.3946,121.7973,166.886,118.344,173.968" style="stroke:#181818;stroke-width:0.8;"/></g><!--link AnalyseIncomeEvolutionController to PoliticalAgentDTO--><g class="link" data-entity-1="ent0003" data-entity-2="ent0015" data-link-type="dependency" data-source-line="114" id="lnk26"><path codeLine="114" d="M519.048,103.448 C519.376,167.624 519.9191,274.6161 520.2071,330.2161" fill="none" id="AnalyseIncomeEvolutionController-to-PoliticalAgentDTO" style="stroke:#181818;stroke-width:0.8;stroke-dasharray:5.6,5.6;"/><polygon fill="#181818" points="520.232,335.016,523.3947,327.7995,520.2113,331.0161,516.9947,327.8327,520.232,335.016" style="stroke:#181818;stroke-width:0.8;"/></g><!--link AnalyseIncomeEvolutionController to IncomeEvolutionDTO--><g class="link" data-entity-1="ent0003" data-entity-2="ent0016" data-link-type="dependency" data-source-line="115" id="lnk27"><path codeLine="115" d="M390.904,103.248 C310.848,133.32 222.8,166.4 222.8,166.4 C222.8,166.4 215.6806,248.0981 210.4726,307.8821" fill="none" id="AnalyseIncomeEvolutionController-to-IncomeEvolutionDTO" style="stroke:#181818;stroke-width:0.8;stroke-dasharray:5.6,5.6;"/><polygon fill="#181818" points="210.056,312.664,213.8688,305.7689,210.4031,308.6791,207.4929,305.2135,210.056,312.664" style="stroke:#181818;stroke-width:0.8;"/></g><!--link ApplicationSession to ApplicationSession--><g class="link" data-entity-1="ent0004" data-entity-2="ent0004" data-link-type="dependency" data-source-line="117" id="lnk28"><path codeLine="117" d="M357.248,194.616 C373.152,195.384 385.2,199.84 385.2,208 C385.2,216.16 377.9464,220.3845 362.0424,221.1525" fill="none" id="ApplicationSession-to-ApplicationSession" style="stroke:#181818;stroke-width:0.8;"/><polygon fill="#181818" points="357.248,221.384,364.594,224.233,361.2433,221.1911,364.2853,217.8404,357.248,221.384" style="stroke:#181818;stroke-width:0.8;"/><text fill="#000000" font-family="sans-serif" font-size="10.4" lengthAdjust="spacing" textLength="38.7359" x="390" y="212.4227">instance</text><text fill="#000000" font-family="sans-serif" font-size="10.4" lengthAdjust="spacing" textLength="5.784" x="363.7265" y="219.7033">1</text></g><!--link ApplicationSession to UserSession--><g class="link" data-entity-1="ent0004" data-entity-2="ent0005" data-link-type="dependency" data-source-line="118" id="lnk29"><path codeLine="118" d="M318.72,249.696 C334.08,278.88 352.044,313.0086 365.26,338.1126" fill="none" id="ApplicationSession-to-UserSession" style="stroke:#181818;stroke-width:0.8;stroke-dasharray:5.6,5.6;"/><polygon fill="#181818" points="367.496,342.36,366.9735,334.4983,365.6326,338.8205,361.3104,337.4796,367.496,342.36" style="stroke:#181818;stroke-width:0.8;"/></g><!--link Repositories to Repositories--><g class="link" data-entity-1="ent0006" data-entity-2="ent0006" data-link-type="dependency" data-source-line="120" id="lnk30"><path codeLine="120" d="M890.6,39.992 C906.816,41.592 918.4,46.392 918.4,54.4 C918.4,62.408 911.5928,66.7367 895.3768,68.3367" fill="none" id="Repositories-to-Repositories" style="stroke:#181818;stroke-width:0.8;"/><polygon fill="#181818" points="890.6,68.808,898.0794,71.2856,894.5807,68.4152,897.451,64.9165,890.6,68.808" style="stroke:#181818;stroke-width:0.8;"/><text fill="#000000" font-family="sans-serif" font-size="10.4" lengthAdjust="spacing" textLength="38.7359" x="923.2" y="58.8227">instance</text><text fill="#000000" font-family="sans-serif" font-size="10.4" lengthAdjust="spacing" textLength="5.784" x="896.4788" y="66.9602">1</text></g><!--link Repositories to PoliticalAgentRepository--><g class="link" data-entity-1="ent0006" data-entity-2="ent0007" data-link-type="dependency" data-source-line="121" id="lnk31"><path codeLine="121" d="M810,103.296 C810,126.256 810,148.36 810,169.04" fill="none" id="Repositories-to-PoliticalAgentRepository" style="stroke:#181818;stroke-width:0.8;"/><polygon fill="#181818" points="810,173.84,813.2,166.64,810,169.84,806.8,166.64,810,173.84" style="stroke:#181818;stroke-width:0.8;"/><text fill="#000000" font-family="sans-serif" font-size="10.4" lengthAdjust="spacing" textLength="111.5715" x="810.8" y="139.2227">politicalAgentRepository</text><text fill="#000000" font-family="sans-serif" font-size="10.4" lengthAdjust="spacing" textLength="5.784" x="803.9847" y="164.9378">1</text></g><!--link Repositories to DeclarationRepository--><g class="link" data-entity-1="ent0006" data-entity-2="ent0008" data-link-type="dependency" data-source-line="122" id="lnk32"><path codeLine="122" d="M890.744,100.192 C938.032,126.536 991.9029,156.5518 1031.7349,178.7438" fill="none" id="Repositories-to-DeclarationRepository" style="stroke:#181818;stroke-width:0.8;"/><polygon fill="#181818" points="1035.928,181.08,1031.1957,174.7803,1032.4337,179.1332,1028.0809,180.3712,1035.928,181.08" style="stroke:#181818;stroke-width:0.8;"/><text fill="#000000" font-family="sans-serif" font-size="10.4" lengthAdjust="spacing" textLength="100.5875" x="962.8" y="139.2227">declarationRepository</text><text fill="#000000" font-family="sans-serif" font-size="10.4" lengthAdjust="spacing" textLength="5.784" x="1020.5527" y="172.1168">1</text></g><!--link PoliticalAgentRepository to PoliticalAgent--><g class="link" data-entity-1="ent0007" data-entity-2="ent0009" data-link-type="dependency" data-source-line="124" id="lnk33"><path codeLine="124" d="M778.472,242.256 C757.192,264.832 732.0756,291.4903 708.3636,316.6583" fill="none" id="PoliticalAgentRepository-to-PoliticalAgent" style="stroke:#181818;stroke-width:0.8;"/><polygon fill="#181818" points="705.072,320.152,712.3384,317.1059,707.815,317.2406,707.6802,312.7171,705.072,320.152" style="stroke:#181818;stroke-width:0.8;"/><text fill="#000000" font-family="sans-serif" font-size="10.4" lengthAdjust="spacing" textLength="67.0617" x="748.4" y="285.6227">politicalAgents</text><text fill="#000000" font-family="sans-serif" font-size="10.4" lengthAdjust="spacing" textLength="4.0473" x="706.1095" y="311.3083">*</text></g><!--link DeclarationRepository to Declaration--><g class="link" data-entity-1="ent0008" data-entity-2="ent0010" data-link-type="dependency" data-source-line="125" id="lnk34"><path codeLine="125" d="M1050.64,234.88 C984.096,288.848 833.4082,411.0486 739.7602,486.9926" fill="none" id="DeclarationRepository-to-Declaration" style="stroke:#181818;stroke-width:0.8;"/><polygon fill="#181818" points="736.032,490.016,743.6398,487.9664,739.1388,487.4965,739.6087,482.9955,736.032,490.016" style="stroke:#181818;stroke-width:0.8;"/><text fill="#000000" font-family="sans-serif" font-size="10.4" lengthAdjust="spacing" textLength="56.0777" x="954" y="373.6227">declarations</text><text fill="#000000" font-family="sans-serif" font-size="10.4" lengthAdjust="spacing" textLength="4.0473" x="742.2848" y="482.1117">*</text></g><!--link PoliticalAgent to Declaration--><g class="link" data-entity-1="ent0009" data-entity-2="ent0010" data-link-type="dependency" data-source-line="127" id="lnk35"><path codeLine="127" d="M659.6,418.056 C659.6,439.648 659.6,460.616 659.6,483.768" fill="none" id="PoliticalAgent-to-Declaration" style="stroke:#181818;stroke-width:0.8;"/><polygon fill="#181818" points="659.6,488.568,662.8,481.368,659.6,484.568,656.4,481.368,659.6,488.568" style="stroke:#181818;stroke-width:0.8;"/><polygon fill="#000000" points="663.6,461.3164,665.9511,454.0803,661.2489,454.0803,663.6,461.3164" style="stroke:#000000;stroke-width:0.8;"/><text fill="#000000" font-family="sans-serif" font-size="10.4" lengthAdjust="spacing" textLength="35.8313" x="670.8" y="461.6227">submits</text><text fill="#000000" font-family="sans-serif" font-size="10.4" lengthAdjust="spacing" textLength="5.784" x="653.6787" y="436.0523">1</text><text fill="#000000" font-family="sans-serif" font-size="10.4" lengthAdjust="spacing" textLength="15.6102" x="643.7424" y="479.8845">0..*</text></g><!--link Declaration to DeclarationType--><g class="link" data-entity-1="ent0010" data-entity-2="ent0017" data-link-type="dependency" data-source-line="129" id="lnk36"><path codeLine="129" d="M706.28,616.808 C723.56,640.208 739.828,662.2352 755.276,683.1472" fill="none" id="Declaration-to-DeclarationType" style="stroke:#181818;stroke-width:0.8;"/><polygon fill="#181818" points="758.128,687.008,756.4238,679.3154,755.7513,683.7907,751.2761,683.1181,758.128,687.008" style="stroke:#181818;stroke-width:0.8;"/><text fill="#000000" font-family="sans-serif" font-size="10.4" lengthAdjust="spacing" textLength="19.6574" x="732.4" y="652.8227">type</text><text fill="#000000" font-family="sans-serif" font-size="10.4" lengthAdjust="spacing" textLength="5.784" x="748.0997" y="678.1241">1</text></g><!--reverse link Declaration to Position--><g class="link" data-entity-1="ent0010" data-entity-2="ent0011" data-link-type="composition" data-source-line="130" id="lnk37"><path codeLine="130" d="M604.4093,624.3789 C588.2173,645.1469 576.392,660.304 561.208,679.776" fill="none" id="Declaration-backto-Position" style="stroke:#181818;stroke-width:0.8;"/><polygon fill="#181818" points="610.312,616.808,604.837,618.6259,604.4093,624.3789,609.8843,622.561,610.312,616.808" style="stroke:#181818;stroke-width:0.8;"/><polygon fill="#000000" points="593.1402,651.6706,599.4441,647.4104,595.736,644.5187,593.1402,651.6706" style="stroke:#000000;stroke-width:0.8;"/><text fill="#000000" font-family="sans-serif" font-size="10.4" lengthAdjust="spacing" textLength="38.7359" x="602.8" y="652.8227">contains</text><text fill="#000000" font-family="sans-serif" font-size="10.4" lengthAdjust="spacing" textLength="5.784" x="600.2446" y="634.1351">1</text><text fill="#000000" font-family="sans-serif" font-size="10.4" lengthAdjust="spacing" textLength="15.6102" x="549.5078" y="670.9351">0..*</text></g><!--reverse link Declaration to Subsidy--><g class="link" data-entity-1="ent0010" data-entity-2="ent0012" data-link-type="composition" data-source-line="131" id="lnk38"><path codeLine="131" d="M659.6,626.408 C659.6,649.808 659.6,666.096 659.6,687.008" fill="none" id="Declaration-backto-Subsidy" style="stroke:#181818;stroke-width:0.8;"/><polygon fill="#181818" points="659.6,616.808,656.4,621.608,659.6,626.408,662.8,621.608,659.6,616.808" style="stroke:#181818;stroke-width:0.8;"/><polygon fill="#000000" points="663.6,652.5164,665.9511,645.2803,661.2489,645.2803,663.6,652.5164" style="stroke:#000000;stroke-width:0.8;"/><text fill="#000000" font-family="sans-serif" font-size="10.4" lengthAdjust="spacing" textLength="38.7359" x="670.8" y="652.8227">contains</text><text fill="#000000" font-family="sans-serif" font-size="10.4" lengthAdjust="spacing" textLength="5.784" x="653.7683" y="634.1351">1</text><text fill="#000000" font-family="sans-serif" font-size="10.4" lengthAdjust="spacing" textLength="15.6102" x="643.4026" y="678.1241">0..*</text></g><!--link PoliticalAgentMapper to PoliticalAgent--><g class="link" data-entity-1="ent0013" data-entity-2="ent0009" data-link-type="dependency" data-source-line="133" id="lnk39"><path codeLine="133" d="M640,242.256 C643.504,264.832 647.4548,290.241 651.3668,315.409" fill="none" id="PoliticalAgentMapper-to-PoliticalAgent" style="stroke:#181818;stroke-width:0.8;stroke-dasharray:5.6,5.6;"/><polygon fill="#181818" points="652.104,320.152,654.1602,312.5459,651.4896,316.1995,647.8361,313.5289,652.104,320.152" style="stroke:#181818;stroke-width:0.8;"/></g><!--link PoliticalAgentMapper to PoliticalAgentDTO--><g class="link" data-entity-1="ent0013" data-entity-2="ent0015" data-link-type="dependency" data-source-line="134" id="lnk40"><path codeLine="134" d="M610.816,242.256 C591.296,269.496 566.6602,303.8586 547.1482,331.0826" fill="none" id="PoliticalAgentMapper-to-PoliticalAgentDTO" style="stroke:#181818;stroke-width:0.8;stroke-dasharray:5.6,5.6;"/><polygon fill="#181818" points="544.352,334.984,551.1473,330.996,546.6822,331.7328,545.9454,327.2677,544.352,334.984" style="stroke:#181818;stroke-width:0.8;"/></g><!--link IncomeEvolutionMapper to Declaration--><g class="link" data-entity-1="ent0014" data-entity-2="ent0010" data-link-type="dependency" data-source-line="136" id="lnk41"><path codeLine="136" d="M81.76,242.2 C87.144,303.016 98,425.6 98,425.6 C98,425.6 424.6211,499.1142 578.3011,533.6982" fill="none" id="IncomeEvolutionMapper-to-Declaration" style="stroke:#181818;stroke-width:0.8;stroke-dasharray:5.6,5.6;"/><polygon fill="#181818" points="582.984,534.752,576.6622,530.0493,579.0816,533.8738,575.2571,536.2932,582.984,534.752" style="stroke:#181818;stroke-width:0.8;"/></g><!--link IncomeEvolutionMapper to IncomeEvolutionDTO--><g class="link" data-entity-1="ent0014" data-entity-2="ent0016" data-link-type="dependency" data-source-line="137" id="lnk42"><path codeLine="137" d="M105.296,242.256 C121.44,262.64 139.4915,285.4375 158.0915,308.9175" fill="none" id="IncomeEvolutionMapper-to-IncomeEvolutionDTO" style="stroke:#181818;stroke-width:0.8;stroke-dasharray:5.6,5.6;"/><polygon fill="#181818" points="161.072,312.68,159.1096,305.0492,158.5882,309.5446,154.0929,309.0233,161.072,312.68" style="stroke:#181818;stroke-width:0.8;"/></g><?plantuml-src dLPDJ-Cm4BtdLrYS-2fYhpqW5Lgj8dK1jKNQgqbCi73io7QMpIB--qu-cemTfrJqqiJpvitppDWJyyPbGJNDIQwaIbwroXcnkcIHwIq5JTvenhQs4enebbWgCu41vfMcwftBZBnGOR15SCbiLJ1IA57LByYM26hCmbhDdqlBuaJ9BV_7o7KKDHQoa5HKXiKo0KshFqgKbYlv59EFYC3lWkXIdfv5duVnTqfQhOHWklVx2WYaBJ1Zzb49Rdb2nI9ZqXfiylnF2mSQfvV4MAhjabfsIPXCwuVMVJPc7ddZZHM504iTPCkCWRzkAxE0gLVu0T61yBEL2YyoOLZ-NQarH1hS-dXFXcatq0NXPgsoZAMnWzomGXbkbURCz9hmuj5gt6pq51N6B1b4rSrc7K0lPugatmMGB8GuKDFRAavFEKv-C6XF-C9bUbkvX0kPFZBDLUhLDDmF4-BxR4eA1t9Ejd1CPDQjMVetJlr5bbCk_CK2cD-LHk3GnlfWfdpEULFuMXmuhHK8gf-Z8KTR1uIpjuEJxhmhIo7Ra3C0jyTbP0OsmzDgmjelepIrT8FcVL8TkLrEsYm7B9hbfMJTzkSaLUMpm9lS83iEtydjezDSbL2jdc5VD5jgL3RKVWr-kcb_qQ90LvLLozt3cXl_VZ1d6E0P4RbtHqsofqCpUDJ8CYaQSCD5uJNcXTV1Kz8mnu4sR058LDrpW5YwAnskS7hFhL8JPcWztsY7zXjC89x9ClUZTSBZ-tWNBzRDysRrysczs3JFgzztgyTT_70FDc2Od6jNDr-EfYblDEM01T_0HpZKSKTpv3W_D2gESvYwee_p3bx6tmdS7eJZF8Ddw3j1eSM_5R7sYm8V0RCRSlBZ9FHvC2Uycx4XFxzmaJF6ErPd3V6vs0uyENZdf9WgU90eF6td-C0ZYcWoRiDtxWiRoJ5HEE3U7Sz8HuJnOpVg6xVhgwkHPtEXMKDk8XmmjElkEgk_cHre3JkVpVRq_HIS4_XkjXJA0-G77FPpoy57mTapRjnZSKsZXaUETteFe0BD_ny0?></g></svg>