<?plantuml 1.2026.2?><svg xmlns="http://www.w3.org/2000/svg" xmlns:xlink="http://www.w3.org/1999/xlink" contentStyleType="text/css" data-diagram-type="CLASS" height="971px" preserveAspectRatio="none" style="width:1644px;height:971px;background:#FFFFFF;" version="1.1" viewBox="0 0 1644 971" width="1644px" zoomAndPan="magnify"><defs/><g><!--class AnalyseIncomeEvolutionUI--><g class="entity" data-qualified-name="AnalyseIncomeEvolutionUI" data-source-line="7" id="ent0002"><rect fill="#F1F1F1" height="65.6094" rx="2.5" ry="2.5" style="stroke:#181818;stroke-width:0.5;" width="199.3096" x="298.5" y="42"/><ellipse cx="313.5" cy="58" fill="#C2C2C2" rx="11" ry="11" style="stroke:#181818;stroke-width:1;"/><path d="M316.2656,53.875 Q316.4219,53.6563 316.6094,53.5469 Q316.7969,53.4375 317.0156,53.4375 Q317.3906,53.4375 317.625,53.7031 Q317.8594,53.9531 317.8594,54.5625 L317.8594,56.0156 Q317.8594,56.625 317.625,56.8906 Q317.3906,57.1563 317.0156,57.1563 Q316.6719,57.1563 316.4688,56.9531 Q316.2656,56.7656 316.1563,56.25 Q316.1094,55.8906 315.9219,55.7031 Q315.5938,55.3281 314.9844,55.1094 Q314.375,54.8906 313.75,54.8906 Q312.9844,54.8906 312.3438,55.2188 Q311.7188,55.5469 311.2188,56.2969 Q310.7344,57.0469 310.7344,58.0781 L310.7344,59.1719 Q310.7344,60.4063 311.625,61.2344 Q312.5156,62.0469 314.1094,62.0469 Q315.0469,62.0469 315.7031,61.7969 Q316.0938,61.6406 316.5156,61.2031 Q316.7813,60.9375 316.9219,60.8594 Q317.0781,60.7813 317.2813,60.7813 Q317.6094,60.7813 317.8594,61.0469 Q318.125,61.2969 318.125,61.6406 Q318.125,61.9844 317.7813,62.3906 Q317.2813,62.9688 316.4844,63.2969 Q315.4063,63.75 314.1094,63.75 Q312.5938,63.75 311.3906,63.125 Q310.4063,62.625 309.7188,61.5625 Q309.0313,60.4844 309.0313,59.2031 L309.0313,58.0469 Q309.0313,56.7188 309.6406,55.5781 Q310.2656,54.4219 311.3594,53.8125 Q312.4531,53.1875 313.6875,53.1875 Q314.4219,53.1875 315.0625,53.3594 Q315.7188,53.5156 316.2656,53.875 Z " fill="#000000"/><text fill="#000000" font-family="sans-serif" font-size="14" lengthAdjust="spacing" textLength="167.3096" x="327.5" y="63.7285">AnalyseIncomeEvolutionUI</text><line style="stroke:#181818;stroke-width:0.5;" x1="299.5" x2="496.8096" y1="74" y2="74"/><line style="stroke:#181818;stroke-width:0.5;" x1="299.5" x2="496.8096" y1="82" y2="82"/><text fill="#000000" font-family="sans-serif" font-size="14" lengthAdjust="spacing" textLength="37.7344" x="304.5" y="100.5332">+run()</text></g><!--class AnalyseIncomeEvolutionController--><g class="entity" data-qualified-name="AnalyseIncomeEvolutionController" data-source-line="11" id="ent0003"><rect fill="#F1F1F1" height="136.0469" rx="2.5" ry="2.5" style="stroke:#181818;stroke-width:0.5;" width="372.7051" x="532.5" y="7"/><ellipse cx="607.603" cy="23" fill="#C2C2C2" rx="11" ry="11" style="stroke:#181818;stroke-width:1;"/><path d="M610.3687,18.875 Q610.5249,18.6563 610.7124,18.5469 Q610.8999,18.4375 611.1187,18.4375 Q611.4937,18.4375 611.728,18.7031 Q611.9624,18.9531 611.9624,19.5625 L611.9624,21.0156 Q611.9624,21.625 611.728,21.8906 Q611.4937,22.1563 611.1187,22.1563 Q610.7749,22.1563 610.5718,21.9531 Q610.3687,21.7656 610.2593,21.25 Q610.2124,20.8906 610.0249,20.7031 Q609.6968,20.3281 609.0874,20.1094 Q608.478,19.8906 607.853,19.8906 Q607.0874,19.8906 606.4468,20.2188 Q605.8218,20.5469 605.3218,21.2969 Q604.8374,22.0469 604.8374,23.0781 L604.8374,24.1719 Q604.8374,25.4063 605.728,26.2344 Q606.6187,27.0469 608.2124,27.0469 Q609.1499,27.0469 609.8062,26.7969 Q610.1968,26.6406 610.6187,26.2031 Q610.8843,25.9375 611.0249,25.8594 Q611.1812,25.7813 611.3843,25.7813 Q611.7124,25.7813 611.9624,26.0469 Q612.228,26.2969 612.228,26.6406 Q612.228,26.9844 611.8843,27.3906 Q611.3843,27.9688 610.5874,28.2969 Q609.5093,28.75 608.2124,28.75 Q606.6968,28.75 605.4937,28.125 Q604.5093,27.625 603.8218,26.5625 Q603.1343,25.4844 603.1343,24.2031 L603.1343,23.0469 Q603.1343,21.7188 603.7437,20.5781 Q604.3687,19.4219 605.4624,18.8125 Q606.5562,18.1875 607.7905,18.1875 Q608.5249,18.1875 609.1655,18.3594 Q609.8218,18.5156 610.3687,18.875 Z " fill="#000000"/><text fill="#000000" font-family="sans-serif" font-size="14" lengthAdjust="spacing" textLength="213.999" x="628.103" y="28.7285">AnalyseIncomeEvolutionController</text><line style="stroke:#181818;stroke-width:0.5;" x1="533.5" x2="904.2051" y1="39" y2="39"/><line style="stroke:#181818;stroke-width:0.5;" x1="533.5" x2="904.2051" y1="47" y2="47"/><text fill="#000000" font-family="sans-serif" font-size="14" lengthAdjust="spacing" textLength="231.499" x="538.5" y="65.5332">+AnalyseIncomeEvolutionController()</text><text fill="#000000" font-family="sans-serif" font-size="14" lengthAdjust="spacing" textLength="128.7891" x="538.5" y="83.1426">+getPoliticalAgents()</text><text fill="#000000" font-family="sans-serif" font-size="14" lengthAdjust="spacing" textLength="360.7051" x="538.5" y="100.752">+getIncomeEvolution(politicalAgentId, startDate, endDate)</text><text fill="#000000" font-family="sans-serif" font-size="14" lengthAdjust="spacing" textLength="213.2266" x="538.5" y="118.3613">-getPoliticalAgent(politicalAgentId)</text><text fill="#000000" font-family="sans-serif" font-size="14" lengthAdjust="spacing" textLength="255.2334" x="538.5" y="135.9707">-validateDateInterval(startDate, endDate)</text></g><!--class ApplicationSession--><g class="entity" data-qualified-name="ApplicationSession" data-source-line="19" id="ent0004"><rect fill="#F1F1F1" height="100.8281" rx="2.5" ry="2.5" style="stroke:#181818;stroke-width:0.5;" width="150.2959" x="367" y="221"/><ellipse cx="382" cy="237" fill="#C2C2C2" rx="11" ry="11" style="stroke:#181818;stroke-width:1;"/><path d="M384.7656,232.875 Q384.9219,232.6563 385.1094,232.5469 Q385.2969,232.4375 385.5156,232.4375 Q385.8906,232.4375 386.125,232.7031 Q386.3594,232.9531 386.3594,233.5625 L386.3594,235.0156 Q386.3594,235.625 386.125,235.8906 Q385.8906,236.1563 385.5156,236.1563 Q385.1719,236.1563 384.9688,235.9531 Q384.7656,235.7656 384.6563,235.25 Q384.6094,234.8906 384.4219,234.7031 Q384.0938,234.3281 383.4844,234.1094 Q382.875,233.8906 382.25,233.8906 Q381.4844,233.8906 380.8438,234.2188 Q380.2188,234.5469 379.7188,235.2969 Q379.2344,236.0469 379.2344,237.0781 L379.2344,238.1719 Q379.2344,239.4063 380.125,240.2344 Q381.0156,241.0469 382.6094,241.0469 Q383.5469,241.0469 384.2031,240.7969 Q384.5938,240.6406 385.0156,240.2031 Q385.2813,239.9375 385.4219,239.8594 Q385.5781,239.7813 385.7813,239.7813 Q386.1094,239.7813 386.3594,240.0469 Q386.625,240.2969 386.625,240.6406 Q386.625,240.9844 386.2813,241.3906 Q385.7813,241.9688 384.9844,242.2969 Q383.9063,242.75 382.6094,242.75 Q381.0938,242.75 379.8906,242.125 Q378.9063,241.625 378.2188,240.5625 Q377.5313,239.4844 377.5313,238.2031 L377.5313,237.0469 Q377.5313,235.7188 378.1406,234.5781 Q378.7656,233.4219 379.8594,232.8125 Q380.9531,232.1875 382.1875,232.1875 Q382.9219,232.1875 383.5625,232.3594 Q384.2188,232.5156 384.7656,232.875 Z " fill="#000000"/><text fill="#000000" font-family="sans-serif" font-size="14" lengthAdjust="spacing" textLength="118.2959" x="396" y="242.7285">ApplicationSession</text><line style="stroke:#181818;stroke-width:0.5;" x1="368" x2="516.2959" y1="253" y2="253"/><line style="stroke:#181818;stroke-width:0.5;" x1="368" x2="516.2959" y1="261" y2="261"/><text fill="#000000" font-family="sans-serif" font-size="14" lengthAdjust="spacing" textLength="132.2822" x="373" y="279.5332">-ApplicationSession()</text><text fill="#000000" font-family="sans-serif" font-size="14" lengthAdjust="spacing" text-decoration="underline" textLength="89.8857" x="373" y="297.1426">+getInstance()</text><text fill="#000000" font-family="sans-serif" font-size="14" lengthAdjust="spacing" textLength="133.4512" x="373" y="314.752">+getCurrentSession()</text></g><!--class UserSession--><g class="entity" data-qualified-name="UserSession" data-source-line="25" id="ent0005"><rect fill="#F1F1F1" height="65.6094" rx="2.5" ry="2.5" style="stroke:#181818;stroke-width:0.5;" width="174.2578" x="502" y="435"/><ellipse cx="545.3017" cy="451" fill="#C2C2C2" rx="11" ry="11" style="stroke:#181818;stroke-width:1;"/><path d="M548.0673,446.875 Q548.2235,446.6563 548.411,446.5469 Q548.5985,446.4375 548.8173,446.4375 Q549.1923,446.4375 549.4267,446.7031 Q549.661,446.9531 549.661,447.5625 L549.661,449.0156 Q549.661,449.625 549.4267,449.8906 Q549.1923,450.1563 548.8173,450.1563 Q548.4735,450.1563 548.2704,449.9531 Q548.0673,449.7656 547.9579,449.25 Q547.911,448.8906 547.7235,448.7031 Q547.3954,448.3281 546.786,448.1094 Q546.1767,447.8906 545.5517,447.8906 Q544.786,447.8906 544.1454,448.2188 Q543.5204,448.5469 543.0204,449.2969 Q542.536,450.0469 542.536,451.0781 L542.536,452.1719 Q542.536,453.4063 543.4267,454.2344 Q544.3173,455.0469 545.911,455.0469 Q546.8485,455.0469 547.5048,454.7969 Q547.8954,454.6406 548.3173,454.2031 Q548.5829,453.9375 548.7235,453.8594 Q548.8798,453.7813 549.0829,453.7813 Q549.411,453.7813 549.661,454.0469 Q549.9267,454.2969 549.9267,454.6406 Q549.9267,454.9844 549.5829,455.3906 Q549.0829,455.9688 548.286,456.2969 Q547.2079,456.75 545.911,456.75 Q544.3954,456.75 543.1923,456.125 Q542.2079,455.625 541.5204,454.5625 Q540.8329,453.4844 540.8329,452.2031 L540.8329,451.0469 Q540.8329,449.7188 541.4423,448.5781 Q542.0673,447.4219 543.161,446.8125 Q544.2548,446.1875 545.4892,446.1875 Q546.2235,446.1875 546.8642,446.3594 Q547.5204,446.5156 548.0673,446.875 Z " fill="#000000"/><text fill="#000000" font-family="sans-serif" font-size="14" lengthAdjust="spacing" textLength="79.3652" x="565.5909" y="456.7285">UserSession</text><line style="stroke:#181818;stroke-width:0.5;" x1="503" x2="675.2578" y1="467" y2="467"/><line style="stroke:#181818;stroke-width:0.5;" x1="503" x2="675.2578" y1="475" y2="475"/><text fill="#000000" font-family="sans-serif" font-size="14" lengthAdjust="spacing" textLength="162.2578" x="508" y="493.5332">+isLoggedInAsJournalist()</text></g><!--class Repositories--><g class="entity" data-qualified-name="Repositories" data-source-line="29" id="ent0006"><rect fill="#F1F1F1" height="118.4375" rx="2.5" ry="2.5" style="stroke:#181818;stroke-width:0.5;" width="200.7061" x="982.5" y="16"/><ellipse cx="1039.6963" cy="32" fill="#C2C2C2" rx="11" ry="11" style="stroke:#181818;stroke-width:1;"/><path d="M1042.4619,27.875 Q1042.6182,27.6563 1042.8057,27.5469 Q1042.9932,27.4375 1043.2119,27.4375 Q1043.5869,27.4375 1043.8213,27.7031 Q1044.0557,27.9531 1044.0557,28.5625 L1044.0557,30.0156 Q1044.0557,30.625 1043.8213,30.8906 Q1043.5869,31.1563 1043.2119,31.1563 Q1042.8682,31.1563 1042.665,30.9531 Q1042.4619,30.7656 1042.3525,30.25 Q1042.3057,29.8906 1042.1182,29.7031 Q1041.79,29.3281 1041.1807,29.1094 Q1040.5713,28.8906 1039.9463,28.8906 Q1039.1807,28.8906 1038.54,29.2188 Q1037.915,29.5469 1037.415,30.2969 Q1036.9307,31.0469 1036.9307,32.0781 L1036.9307,33.1719 Q1036.9307,34.4063 1037.8213,35.2344 Q1038.7119,36.0469 1040.3057,36.0469 Q1041.2432,36.0469 1041.8994,35.7969 Q1042.29,35.6406 1042.7119,35.2031 Q1042.9775,34.9375 1043.1182,34.8594 Q1043.2744,34.7813 1043.4775,34.7813 Q1043.8057,34.7813 1044.0557,35.0469 Q1044.3213,35.2969 1044.3213,35.6406 Q1044.3213,35.9844 1043.9775,36.3906 Q1043.4775,36.9688 1042.6807,37.2969 Q1041.6025,37.75 1040.3057,37.75 Q1038.79,37.75 1037.5869,37.125 Q1036.6025,36.625 1035.915,35.5625 Q1035.2275,34.4844 1035.2275,33.2031 L1035.2275,32.0469 Q1035.2275,30.7188 1035.8369,29.5781 Q1036.4619,28.4219 1037.5557,27.8125 Q1038.6494,27.1875 1039.8838,27.1875 Q1040.6182,27.1875 1041.2588,27.3594 Q1041.915,27.5156 1042.4619,27.875 Z " fill="#000000"/><text fill="#000000" font-family="sans-serif" font-size="14" lengthAdjust="spacing" textLength="77.8135" x="1060.1963" y="37.7285">Repositories</text><line style="stroke:#181818;stroke-width:0.5;" x1="983.5" x2="1182.2061" y1="48" y2="48"/><line style="stroke:#181818;stroke-width:0.5;" x1="983.5" x2="1182.2061" y1="56" y2="56"/><text fill="#000000" font-family="sans-serif" font-size="14" lengthAdjust="spacing" textLength="91.7998" x="988.5" y="74.5332">-Repositories()</text><text fill="#000000" font-family="sans-serif" font-size="14" lengthAdjust="spacing" text-decoration="underline" textLength="89.8857" x="988.5" y="92.1426">+getInstance()</text><text fill="#000000" font-family="sans-serif" font-size="14" lengthAdjust="spacing" textLength="188.7061" x="988.5" y="109.752">+getPoliticalAgentRepository()</text><text fill="#000000" font-family="sans-serif" font-size="14" lengthAdjust="spacing" textLength="174.6924" x="988.5" y="127.3613">+getDeclarationRepository()</text></g><!--class PoliticalAgentRepository--><g class="entity" data-qualified-name="PoliticalAgentRepository" data-source-line="36" id="ent0007"><rect fill="#F1F1F1" height="83.2188" rx="2.5" ry="2.5" style="stroke:#181818;stroke-width:0.5;" width="183.7441" x="991" y="230"/><ellipse cx="1006" cy="246" fill="#C2C2C2" rx="11" ry="11" style="stroke:#181818;stroke-width:1;"/><path d="M1008.7656,241.875 Q1008.9219,241.6563 1009.1094,241.5469 Q1009.2969,241.4375 1009.5156,241.4375 Q1009.8906,241.4375 1010.125,241.7031 Q1010.3594,241.9531 1010.3594,242.5625 L1010.3594,244.0156 Q1010.3594,244.625 1010.125,244.8906 Q1009.8906,245.1563 1009.5156,245.1563 Q1009.1719,245.1563 1008.9688,244.9531 Q1008.7656,244.7656 1008.6563,244.25 Q1008.6094,243.8906 1008.4219,243.7031 Q1008.0938,243.3281 1007.4844,243.1094 Q1006.875,242.8906 1006.25,242.8906 Q1005.4844,242.8906 1004.8438,243.2188 Q1004.2188,243.5469 1003.7188,244.2969 Q1003.2344,245.0469 1003.2344,246.0781 L1003.2344,247.1719 Q1003.2344,248.4063 1004.125,249.2344 Q1005.0156,250.0469 1006.6094,250.0469 Q1007.5469,250.0469 1008.2031,249.7969 Q1008.5938,249.6406 1009.0156,249.2031 Q1009.2813,248.9375 1009.4219,248.8594 Q1009.5781,248.7813 1009.7813,248.7813 Q1010.1094,248.7813 1010.3594,249.0469 Q1010.625,249.2969 1010.625,249.6406 Q1010.625,249.9844 1010.2813,250.3906 Q1009.7813,250.9688 1008.9844,251.2969 Q1007.9063,251.75 1006.6094,251.75 Q1005.0938,251.75 1003.8906,251.125 Q1002.9063,250.625 1002.2188,249.5625 Q1001.5313,248.4844 1001.5313,247.2031 L1001.5313,246.0469 Q1001.5313,244.7188 1002.1406,243.5781 Q1002.7656,242.4219 1003.8594,241.8125 Q1004.9531,241.1875 1006.1875,241.1875 Q1006.9219,241.1875 1007.5625,241.3594 Q1008.2188,241.5156 1008.7656,241.875 Z " fill="#000000"/><text fill="#000000" font-family="sans-serif" font-size="14" lengthAdjust="spacing" textLength="151.7441" x="1020" y="251.7285">PoliticalAgentRepository</text><line style="stroke:#181818;stroke-width:0.5;" x1="992" x2="1173.7441" y1="262" y2="262"/><line style="stroke:#181818;stroke-width:0.5;" x1="992" x2="1173.7441" y1="270" y2="270"/><text fill="#000000" font-family="sans-serif" font-size="14" lengthAdjust="spacing" textLength="144.3477" x="997" y="288.5332">+getAllPoliticalAgents()</text><text fill="#000000" font-family="sans-serif" font-size="14" lengthAdjust="spacing" textLength="75.8721" x="997" y="306.1426">+getById(id)</text></g><!--class DeclarationRepository--><g class="entity" data-qualified-name="DeclarationRepository" data-source-line="41" id="ent0008"><rect fill="#F1F1F1" height="65.6094" rx="2.5" ry="2.5" style="stroke:#181818;stroke-width:0.5;" width="427.1807" x="1210.5" y="238.5"/><ellipse cx="1350.9751" cy="254.5" fill="#C2C2C2" rx="11" ry="11" style="stroke:#181818;stroke-width:1;"/><path d="M1353.7407,250.375 Q1353.897,250.1563 1354.0845,250.0469 Q1354.272,249.9375 1354.4907,249.9375 Q1354.8657,249.9375 1355.1001,250.2031 Q1355.3345,250.4531 1355.3345,251.0625 L1355.3345,252.5156 Q1355.3345,253.125 1355.1001,253.3906 Q1354.8657,253.6563 1354.4907,253.6563 Q1354.147,253.6563 1353.9438,253.4531 Q1353.7407,253.2656 1353.6313,252.75 Q1353.5845,252.3906 1353.397,252.2031 Q1353.0688,251.8281 1352.4595,251.6094 Q1351.8501,251.3906 1351.2251,251.3906 Q1350.4595,251.3906 1349.8188,251.7188 Q1349.1938,252.0469 1348.6938,252.7969 Q1348.2095,253.5469 1348.2095,254.5781 L1348.2095,255.6719 Q1348.2095,256.9063 1349.1001,257.7344 Q1349.9907,258.5469 1351.5845,258.5469 Q1352.522,258.5469 1353.1782,258.2969 Q1353.5688,258.1406 1353.9907,257.7031 Q1354.2563,257.4375 1354.397,257.3594 Q1354.5532,257.2813 1354.7563,257.2813 Q1355.0845,257.2813 1355.3345,257.5469 Q1355.6001,257.7969 1355.6001,258.1406 Q1355.6001,258.4844 1355.2563,258.8906 Q1354.7563,259.4688 1353.9595,259.7969 Q1352.8813,260.25 1351.5845,260.25 Q1350.0688,260.25 1348.8657,259.625 Q1347.8813,259.125 1347.1938,258.0625 Q1346.5063,256.9844 1346.5063,255.7031 L1346.5063,254.5469 Q1346.5063,253.2188 1347.1157,252.0781 Q1347.7407,250.9219 1348.8345,250.3125 Q1349.9282,249.6875 1351.1626,249.6875 Q1351.897,249.6875 1352.5376,249.8594 Q1353.1938,250.0156 1353.7407,250.375 Z " fill="#000000"/><text fill="#000000" font-family="sans-serif" font-size="14" lengthAdjust="spacing" textLength="137.7305" x="1371.4751" y="260.2285">DeclarationRepository</text><line style="stroke:#181818;stroke-width:0.5;" x1="1211.5" x2="1636.6807" y1="270.5" y2="270.5"/><line style="stroke:#181818;stroke-width:0.5;" x1="1211.5" x2="1636.6807" y1="278.5" y2="278.5"/><text fill="#000000" font-family="sans-serif" font-size="14" lengthAdjust="spacing" textLength="415.1807" x="1216.5" y="297.0332">+findByPoliticalAgentAndPeriod(politicalAgent, startDate, endDate)</text></g><!--class PoliticalAgent--><g class="entity" data-qualified-name="PoliticalAgent" data-source-line="45" id="ent0009"><rect fill="#F1F1F1" height="136.0469" rx="2.5" ry="2.5" style="stroke:#181818;stroke-width:0.5;" width="124.8203" x="953.5" y="400"/><ellipse cx="972.0969" cy="416" fill="#C2C2C2" rx="11" ry="11" style="stroke:#181818;stroke-width:1;"/><path d="M974.8625,411.875 Q975.0188,411.6563 975.2063,411.5469 Q975.3938,411.4375 975.6125,411.4375 Q975.9875,411.4375 976.2219,411.7031 Q976.4563,411.9531 976.4563,412.5625 L976.4563,414.0156 Q976.4563,414.625 976.2219,414.8906 Q975.9875,415.1563 975.6125,415.1563 Q975.2688,415.1563 975.0657,414.9531 Q974.8625,414.7656 974.7532,414.25 Q974.7063,413.8906 974.5188,413.7031 Q974.1907,413.3281 973.5813,413.1094 Q972.9719,412.8906 972.3469,412.8906 Q971.5813,412.8906 970.9407,413.2188 Q970.3157,413.5469 969.8157,414.2969 Q969.3313,415.0469 969.3313,416.0781 L969.3313,417.1719 Q969.3313,418.4063 970.2219,419.2344 Q971.1125,420.0469 972.7063,420.0469 Q973.6438,420.0469 974.3,419.7969 Q974.6907,419.6406 975.1125,419.2031 Q975.3782,418.9375 975.5188,418.8594 Q975.675,418.7813 975.8782,418.7813 Q976.2063,418.7813 976.4563,419.0469 Q976.7219,419.2969 976.7219,419.6406 Q976.7219,419.9844 976.3782,420.3906 Q975.8782,420.9688 975.0813,421.2969 Q974.0032,421.75 972.7063,421.75 Q971.1907,421.75 969.9875,421.125 Q969.0032,420.625 968.3157,419.5625 Q967.6282,418.4844 967.6282,417.2031 L967.6282,416.0469 Q967.6282,414.7188 968.2375,413.5781 Q968.8625,412.4219 969.9563,411.8125 Q971.05,411.1875 972.2844,411.1875 Q973.0188,411.1875 973.6594,411.3594 Q974.3157,411.5156 974.8625,411.875 Z " fill="#000000"/><text fill="#000000" font-family="sans-serif" font-size="14" lengthAdjust="spacing" textLength="84.8271" x="986.8962" y="421.7285">PoliticalAgent</text><line style="stroke:#181818;stroke-width:0.5;" x1="954.5" x2="1077.3203" y1="432" y2="432"/><text fill="#000000" font-family="sans-serif" font-size="14" lengthAdjust="spacing" textLength="63.7998" x="959.5" y="450.5332">-id : String</text><text fill="#000000" font-family="sans-serif" font-size="14" lengthAdjust="spacing" textLength="87.9238" x="959.5" y="468.1426">-name : String</text><text fill="#000000" font-family="sans-serif" font-size="14" lengthAdjust="spacing" textLength="83.2549" x="959.5" y="485.752">-taxId : String</text><text fill="#000000" font-family="sans-serif" font-size="14" lengthAdjust="spacing" textLength="86.3584" x="959.5" y="503.3613">-email : String</text><text fill="#000000" font-family="sans-serif" font-size="14" lengthAdjust="spacing" textLength="112.8203" x="959.5" y="520.9707">-password : String</text><line style="stroke:#181818;stroke-width:0.5;" x1="954.5" x2="1077.3203" y1="528.0469" y2="528.0469"/></g><!--class Declaration--><g class="entity" data-qualified-name="Declaration" data-source-line="53" id="ent0010"><rect fill="#F1F1F1" height="153.6563" rx="2.5" ry="2.5" style="stroke:#181818;stroke-width:0.5;" width="190.9717" x="920.5" y="614"/><ellipse cx="976.3291" cy="630" fill="#C2C2C2" rx="11" ry="11" style="stroke:#181818;stroke-width:1;"/><path d="M979.0947,625.875 Q979.251,625.6563 979.4385,625.5469 Q979.626,625.4375 979.8447,625.4375 Q980.2197,625.4375 980.4541,625.7031 Q980.6885,625.9531 980.6885,626.5625 L980.6885,628.0156 Q980.6885,628.625 980.4541,628.8906 Q980.2197,629.1563 979.8447,629.1563 Q979.501,629.1563 979.2979,628.9531 Q979.0947,628.7656 978.9854,628.25 Q978.9385,627.8906 978.751,627.7031 Q978.4229,627.3281 977.8135,627.1094 Q977.2041,626.8906 976.5791,626.8906 Q975.8135,626.8906 975.1729,627.2188 Q974.5479,627.5469 974.0479,628.2969 Q973.5635,629.0469 973.5635,630.0781 L973.5635,631.1719 Q973.5635,632.4063 974.4541,633.2344 Q975.3447,634.0469 976.9385,634.0469 Q977.876,634.0469 978.5322,633.7969 Q978.9229,633.6406 979.3447,633.2031 Q979.6104,632.9375 979.751,632.8594 Q979.9072,632.7813 980.1104,632.7813 Q980.4385,632.7813 980.6885,633.0469 Q980.9541,633.2969 980.9541,633.6406 Q980.9541,633.9844 980.6104,634.3906 Q980.1104,634.9688 979.3135,635.2969 Q978.2354,635.75 976.9385,635.75 Q975.4229,635.75 974.2197,635.125 Q973.2354,634.625 972.5479,633.5625 Q971.8604,632.4844 971.8604,631.2031 L971.8604,630.0469 Q971.8604,628.7188 972.4697,627.5781 Q973.0947,626.4219 974.1885,625.8125 Q975.2822,625.1875 976.5166,625.1875 Q977.251,625.1875 977.8916,625.3594 Q978.5479,625.5156 979.0947,625.875 Z " fill="#000000"/><text fill="#000000" font-family="sans-serif" font-size="14" lengthAdjust="spacing" textLength="70.8135" x="996.8291" y="635.7285">Declaration</text><line style="stroke:#181818;stroke-width:0.5;" x1="921.5" x2="1110.4717" y1="646" y2="646"/><text fill="#000000" font-family="sans-serif" font-size="14" lengthAdjust="spacing" textLength="178.9717" x="926.5" y="664.5332">-submissionDate : LocalDate</text><line style="stroke:#181818;stroke-width:0.5;" x1="921.5" x2="1110.4717" y1="671.6094" y2="671.6094"/><text fill="#000000" font-family="sans-serif" font-size="14" lengthAdjust="spacing" textLength="138.8994" x="926.5" y="690.1426">+getSubmissionDate()</text><text fill="#000000" font-family="sans-serif" font-size="14" lengthAdjust="spacing" textLength="68.0859" x="926.5" y="707.752">+getType()</text><text fill="#000000" font-family="sans-serif" font-size="14" lengthAdjust="spacing" textLength="163.8027" x="926.5" y="725.3613">+getTotalPositionIncome()</text><text fill="#000000" font-family="sans-serif" font-size="14" lengthAdjust="spacing" textLength="163.8027" x="926.5" y="742.9707">+getTotalSubsidyIncome()</text><text fill="#000000" font-family="sans-serif" font-size="14" lengthAdjust="spacing" textLength="113.9961" x="926.5" y="760.5801">+getTotalIncome()</text></g><!--class Position--><g class="entity" data-qualified-name="Position" data-source-line="63" id="ent0011"><rect fill="#F1F1F1" height="118.4375" rx="2.5" ry="2.5" style="stroke:#181818;stroke-width:0.5;" width="152.8613" x="769.5" y="846"/><ellipse cx="816.7773" cy="862" fill="#C2C2C2" rx="11" ry="11" style="stroke:#181818;stroke-width:1;"/><path d="M819.543,857.875 Q819.6992,857.6563 819.8867,857.5469 Q820.0742,857.4375 820.293,857.4375 Q820.668,857.4375 820.9023,857.7031 Q821.1367,857.9531 821.1367,858.5625 L821.1367,860.0156 Q821.1367,860.625 820.9023,860.8906 Q820.668,861.1563 820.293,861.1563 Q819.9492,861.1563 819.7461,860.9531 Q819.543,860.7656 819.4336,860.25 Q819.3867,859.8906 819.1992,859.7031 Q818.8711,859.3281 818.2617,859.1094 Q817.6523,858.8906 817.0273,858.8906 Q816.2617,858.8906 815.6211,859.2188 Q814.9961,859.5469 814.4961,860.2969 Q814.0117,861.0469 814.0117,862.0781 L814.0117,863.1719 Q814.0117,864.4063 814.9023,865.2344 Q815.793,866.0469 817.3867,866.0469 Q818.3242,866.0469 818.9805,865.7969 Q819.3711,865.6406 819.793,865.2031 Q820.0586,864.9375 820.1992,864.8594 Q820.3555,864.7813 820.5586,864.7813 Q820.8867,864.7813 821.1367,865.0469 Q821.4023,865.2969 821.4023,865.6406 Q821.4023,865.9844 821.0586,866.3906 Q820.5586,866.9688 819.7617,867.2969 Q818.6836,867.75 817.3867,867.75 Q815.8711,867.75 814.668,867.125 Q813.6836,866.625 812.9961,865.5625 Q812.3086,864.4844 812.3086,863.2031 L812.3086,862.0469 Q812.3086,860.7188 812.918,859.5781 Q813.543,858.4219 814.6367,857.8125 Q815.7305,857.1875 816.9648,857.1875 Q817.6992,857.1875 818.3398,857.3594 Q818.9961,857.5156 819.543,857.875 Z " fill="#000000"/><text fill="#000000" font-family="sans-serif" font-size="14" lengthAdjust="spacing" textLength="49.8066" x="837.2773" y="867.7285">Position</text><line style="stroke:#181818;stroke-width:0.5;" x1="770.5" x2="921.3613" y1="878" y2="878"/><text fill="#000000" font-family="sans-serif" font-size="14" lengthAdjust="spacing" textLength="136.1719" x="775.5" y="896.5332">-startDate : LocalDate</text><text fill="#000000" font-family="sans-serif" font-size="14" lengthAdjust="spacing" textLength="132.3027" x="775.5" y="914.1426">-endDate : LocalDate</text><text fill="#000000" font-family="sans-serif" font-size="14" lengthAdjust="spacing" textLength="140.8613" x="775.5" y="931.752">-remuneration : double</text><line style="stroke:#181818;stroke-width:0.5;" x1="770.5" x2="921.3613" y1="938.8281" y2="938.8281"/><text fill="#000000" font-family="sans-serif" font-size="14" lengthAdjust="spacing" textLength="124.8994" x="775.5" y="957.3613">+getRemuneration()</text></g><!--class Subsidy--><g class="entity" data-qualified-name="Subsidy" data-source-line="71" id="ent0012"><rect fill="#F1F1F1" height="100.8281" rx="2.5" ry="2.5" style="stroke:#181818;stroke-width:0.5;" width="117.0684" x="957.5" y="854.5"/><ellipse cx="988.3678" cy="870.5" fill="#C2C2C2" rx="11" ry="11" style="stroke:#181818;stroke-width:1;"/><path d="M991.1334,866.375 Q991.2896,866.1563 991.4771,866.0469 Q991.6646,865.9375 991.8834,865.9375 Q992.2584,865.9375 992.4928,866.2031 Q992.7271,866.4531 992.7271,867.0625 L992.7271,868.5156 Q992.7271,869.125 992.4928,869.3906 Q992.2584,869.6563 991.8834,869.6563 Q991.5396,869.6563 991.3365,869.4531 Q991.1334,869.2656 991.024,868.75 Q990.9771,868.3906 990.7896,868.2031 Q990.4615,867.8281 989.8521,867.6094 Q989.2428,867.3906 988.6178,867.3906 Q987.8521,867.3906 987.2115,867.7188 Q986.5865,868.0469 986.0865,868.7969 Q985.6021,869.5469 985.6021,870.5781 L985.6021,871.6719 Q985.6021,872.9063 986.4928,873.7344 Q987.3834,874.5469 988.9771,874.5469 Q989.9146,874.5469 990.5709,874.2969 Q990.9615,874.1406 991.3834,873.7031 Q991.649,873.4375 991.7896,873.3594 Q991.9459,873.2813 992.149,873.2813 Q992.4771,873.2813 992.7271,873.5469 Q992.9928,873.7969 992.9928,874.1406 Q992.9928,874.4844 992.649,874.8906 Q992.149,875.4688 991.3521,875.7969 Q990.274,876.25 988.9771,876.25 Q987.4615,876.25 986.2584,875.625 Q985.274,875.125 984.5865,874.0625 Q983.899,872.9844 983.899,871.7031 L983.899,870.5469 Q983.899,869.2188 984.5084,868.0781 Q985.1334,866.9219 986.2271,866.3125 Q987.3209,865.6875 988.5553,865.6875 Q989.2896,865.6875 989.9303,865.8594 Q990.5865,866.0156 991.1334,866.375 Z " fill="#000000"/><text fill="#000000" font-family="sans-serif" font-size="14" lengthAdjust="spacing" textLength="49.8066" x="1005.8939" y="876.2285">Subsidy</text><line style="stroke:#181818;stroke-width:0.5;" x1="958.5" x2="1073.5684" y1="886.5" y2="886.5"/><text fill="#000000" font-family="sans-serif" font-size="14" lengthAdjust="spacing" textLength="105.0684" x="963.5" y="905.0332">-amount : double</text><text fill="#000000" font-family="sans-serif" font-size="14" lengthAdjust="spacing" textLength="92.5996" x="963.5" y="922.6426">-nature : String</text><line style="stroke:#181818;stroke-width:0.5;" x1="958.5" x2="1073.5684" y1="929.7188" y2="929.7188"/><text fill="#000000" font-family="sans-serif" font-size="14" lengthAdjust="spacing" textLength="85.21" x="963.5" y="948.252">+getAmount()</text></g><!--class PoliticalAgentMapper--><g class="entity" data-qualified-name="PoliticalAgentMapper" data-source-line="78" id="ent0013"><rect fill="#F1F1F1" height="83.2188" rx="2.5" ry="2.5" style="stroke:#181818;stroke-width:0.5;" width="182.7891" x="772.5" y="230"/><ellipse cx="795.8219" cy="246" fill="#C2C2C2" rx="11" ry="11" style="stroke:#181818;stroke-width:1;"/><path d="M798.5875,241.875 Q798.7438,241.6563 798.9313,241.5469 Q799.1188,241.4375 799.3375,241.4375 Q799.7125,241.4375 799.9469,241.7031 Q800.1813,241.9531 800.1813,242.5625 L800.1813,244.0156 Q800.1813,244.625 799.9469,244.8906 Q799.7125,245.1563 799.3375,245.1563 Q798.9938,245.1563 798.7907,244.9531 Q798.5875,244.7656 798.4782,244.25 Q798.4313,243.8906 798.2438,243.7031 Q797.9157,243.3281 797.3063,243.1094 Q796.6969,242.8906 796.0719,242.8906 Q795.3063,242.8906 794.6657,243.2188 Q794.0407,243.5469 793.5407,244.2969 Q793.0563,245.0469 793.0563,246.0781 L793.0563,247.1719 Q793.0563,248.4063 793.9469,249.2344 Q794.8375,250.0469 796.4313,250.0469 Q797.3688,250.0469 798.025,249.7969 Q798.4157,249.6406 798.8375,249.2031 Q799.1032,248.9375 799.2438,248.8594 Q799.4,248.7813 799.6032,248.7813 Q799.9313,248.7813 800.1813,249.0469 Q800.4469,249.2969 800.4469,249.6406 Q800.4469,249.9844 800.1032,250.3906 Q799.6032,250.9688 798.8063,251.2969 Q797.7282,251.75 796.4313,251.75 Q794.9157,251.75 793.7125,251.125 Q792.7282,250.625 792.0407,249.5625 Q791.3532,248.4844 791.3532,247.2031 L791.3532,246.0469 Q791.3532,244.7188 791.9625,243.5781 Q792.5875,242.4219 793.6813,241.8125 Q794.775,241.1875 796.0094,241.1875 Q796.7438,241.1875 797.3844,241.3594 Q798.0407,241.5156 798.5875,241.875 Z " fill="#000000"/><text fill="#000000" font-family="sans-serif" font-size="14" lengthAdjust="spacing" textLength="132.2959" x="811.6712" y="251.7285">PoliticalAgentMapper</text><line style="stroke:#181818;stroke-width:0.5;" x1="773.5" x2="954.2891" y1="262" y2="262"/><line style="stroke:#181818;stroke-width:0.5;" x1="773.5" x2="954.2891" y1="270" y2="270"/><text fill="#000000" font-family="sans-serif" font-size="14" lengthAdjust="spacing" textLength="170.7891" x="778.5" y="288.5332">+toDTOList(politicalAgents)</text><text fill="#000000" font-family="sans-serif" font-size="14" lengthAdjust="spacing" textLength="142.0029" x="778.5" y="306.1426">+toDTO(politicalAgent)</text></g><!--class IncomeEvolutionMapper--><g class="entity" data-qualified-name="IncomeEvolutionMapper" data-source-line="83" id="ent0014"><rect fill="#F1F1F1" height="100.8281" rx="2.5" ry="2.5" style="stroke:#181818;stroke-width:0.5;" width="253.6094" x="7" y="221"/><ellipse cx="54.0688" cy="237" fill="#C2C2C2" rx="11" ry="11" style="stroke:#181818;stroke-width:1;"/><path d="M56.8345,232.875 Q56.9907,232.6563 57.1782,232.5469 Q57.3657,232.4375 57.5845,232.4375 Q57.9595,232.4375 58.1938,232.7031 Q58.4282,232.9531 58.4282,233.5625 L58.4282,235.0156 Q58.4282,235.625 58.1938,235.8906 Q57.9595,236.1563 57.5845,236.1563 Q57.2407,236.1563 57.0376,235.9531 Q56.8345,235.7656 56.7251,235.25 Q56.6782,234.8906 56.4907,234.7031 Q56.1626,234.3281 55.5532,234.1094 Q54.9438,233.8906 54.3188,233.8906 Q53.5532,233.8906 52.9126,234.2188 Q52.2876,234.5469 51.7876,235.2969 Q51.3032,236.0469 51.3032,237.0781 L51.3032,238.1719 Q51.3032,239.4063 52.1938,240.2344 Q53.0845,241.0469 54.6782,241.0469 Q55.6157,241.0469 56.272,240.7969 Q56.6626,240.6406 57.0845,240.2031 Q57.3501,239.9375 57.4907,239.8594 Q57.647,239.7813 57.8501,239.7813 Q58.1782,239.7813 58.4282,240.0469 Q58.6938,240.2969 58.6938,240.6406 Q58.6938,240.9844 58.3501,241.3906 Q57.8501,241.9688 57.0532,242.2969 Q55.9751,242.75 54.6782,242.75 Q53.1626,242.75 51.9595,242.125 Q50.9751,241.625 50.2876,240.5625 Q49.6001,239.4844 49.6001,238.2031 L49.6001,237.0469 Q49.6001,235.7188 50.2095,234.5781 Q50.8345,233.4219 51.9282,232.8125 Q53.022,232.1875 54.2563,232.1875 Q54.9907,232.1875 55.6313,232.3594 Q56.2876,232.5156 56.8345,232.875 Z " fill="#000000"/><text fill="#000000" font-family="sans-serif" font-size="14" lengthAdjust="spacing" textLength="150.9717" x="74.5688" y="242.7285">IncomeEvolutionMapper</text><line style="stroke:#181818;stroke-width:0.5;" x1="8" x2="259.6094" y1="253" y2="253"/><line style="stroke:#181818;stroke-width:0.5;" x1="8" x2="259.6094" y1="261" y2="261"/><text fill="#000000" font-family="sans-serif" font-size="14" lengthAdjust="spacing" textLength="241.6094" x="13" y="279.5332">+toChronologicalDTOList(declarations)</text><text fill="#000000" font-family="sans-serif" font-size="14" lengthAdjust="spacing" textLength="127.2168" x="13" y="297.1426">+toDTO(declaration)</text><text fill="#000000" font-family="sans-serif" font-size="14" lengthAdjust="spacing" textLength="231.0889" x="13" y="314.752">-sortBySubmissionDate(declarations)</text></g><!--class PoliticalAgentDTO--><g class="entity" data-qualified-name="PoliticalAgentDTO" data-source-line="89" id="ent0015"><rect fill="#F1F1F1" height="83.2188" rx="2.5" ry="2.5" style="stroke:#181818;stroke-width:0.5;" width="146.3789" x="730" y="426.5"/><ellipse cx="745" cy="442.5" fill="#C2C2C2" rx="11" ry="11" style="stroke:#181818;stroke-width:1;"/><path d="M747.7656,438.375 Q747.9219,438.1563 748.1094,438.0469 Q748.2969,437.9375 748.5156,437.9375 Q748.8906,437.9375 749.125,438.2031 Q749.3594,438.4531 749.3594,439.0625 L749.3594,440.5156 Q749.3594,441.125 749.125,441.3906 Q748.8906,441.6563 748.5156,441.6563 Q748.1719,441.6563 747.9688,441.4531 Q747.7656,441.2656 747.6563,440.75 Q747.6094,440.3906 747.4219,440.2031 Q747.0938,439.8281 746.4844,439.6094 Q745.875,439.3906 745.25,439.3906 Q744.4844,439.3906 743.8438,439.7188 Q743.2188,440.0469 742.7188,440.7969 Q742.2344,441.5469 742.2344,442.5781 L742.2344,443.6719 Q742.2344,444.9063 743.125,445.7344 Q744.0156,446.5469 745.6094,446.5469 Q746.5469,446.5469 747.2031,446.2969 Q747.5938,446.1406 748.0156,445.7031 Q748.2813,445.4375 748.4219,445.3594 Q748.5781,445.2813 748.7813,445.2813 Q749.1094,445.2813 749.3594,445.5469 Q749.625,445.7969 749.625,446.1406 Q749.625,446.4844 749.2813,446.8906 Q748.7813,447.4688 747.9844,447.7969 Q746.9063,448.25 745.6094,448.25 Q744.0938,448.25 742.8906,447.625 Q741.9063,447.125 741.2188,446.0625 Q740.5313,444.9844 740.5313,443.7031 L740.5313,442.5469 Q740.5313,441.2188 741.1406,440.0781 Q741.7656,438.9219 742.8594,438.3125 Q743.9531,437.6875 745.1875,437.6875 Q745.9219,437.6875 746.5625,437.8594 Q747.2188,438.0156 747.7656,438.375 Z " fill="#000000"/><text fill="#000000" font-family="sans-serif" font-size="14" lengthAdjust="spacing" textLength="114.3789" x="759" y="448.2285">PoliticalAgentDTO</text><line style="stroke:#181818;stroke-width:0.5;" x1="731" x2="875.3789" y1="458.5" y2="458.5"/><text fill="#000000" font-family="sans-serif" font-size="14" lengthAdjust="spacing" textLength="67.3135" x="736" y="477.0332">+id : String</text><text fill="#000000" font-family="sans-serif" font-size="14" lengthAdjust="spacing" textLength="91.4375" x="736" y="494.6426">+name : String</text><line style="stroke:#181818;stroke-width:0.5;" x1="731" x2="875.3789" y1="501.7188" y2="501.7188"/></g><!--class IncomeEvolutionDTO--><g class="entity" data-qualified-name="IncomeEvolutionDTO" data-source-line="94" id="ent0016"><rect fill="#F1F1F1" height="136.0469" rx="2.5" ry="2.5" style="stroke:#181818;stroke-width:0.5;" width="233.3955" x="194.5" y="400"/><ellipse cx="240.4204" cy="416" fill="#C2C2C2" rx="11" ry="11" style="stroke:#181818;stroke-width:1;"/><path d="M243.186,411.875 Q243.3423,411.6563 243.5298,411.5469 Q243.7173,411.4375 243.936,411.4375 Q244.311,411.4375 244.5454,411.7031 Q244.7798,411.9531 244.7798,412.5625 L244.7798,414.0156 Q244.7798,414.625 244.5454,414.8906 Q244.311,415.1563 243.936,415.1563 Q243.5923,415.1563 243.3892,414.9531 Q243.186,414.7656 243.0767,414.25 Q243.0298,413.8906 242.8423,413.7031 Q242.5142,413.3281 241.9048,413.1094 Q241.2954,412.8906 240.6704,412.8906 Q239.9048,412.8906 239.2642,413.2188 Q238.6392,413.5469 238.1392,414.2969 Q237.6548,415.0469 237.6548,416.0781 L237.6548,417.1719 Q237.6548,418.4063 238.5454,419.2344 Q239.436,420.0469 241.0298,420.0469 Q241.9673,420.0469 242.6235,419.7969 Q243.0142,419.6406 243.436,419.2031 Q243.7017,418.9375 243.8423,418.8594 Q243.9985,418.7813 244.2017,418.7813 Q244.5298,418.7813 244.7798,419.0469 Q245.0454,419.2969 245.0454,419.6406 Q245.0454,419.9844 244.7017,420.3906 Q244.2017,420.9688 243.4048,421.2969 Q242.3267,421.75 241.0298,421.75 Q239.5142,421.75 238.311,421.125 Q237.3267,420.625 236.6392,419.5625 Q235.9517,418.4844 235.9517,417.2031 L235.9517,416.0469 Q235.9517,414.7188 236.561,413.5781 Q237.186,412.4219 238.2798,411.8125 Q239.3735,411.1875 240.6079,411.1875 Q241.3423,411.1875 241.9829,411.3594 Q242.6392,411.5156 243.186,411.875 Z " fill="#000000"/><text fill="#000000" font-family="sans-serif" font-size="14" lengthAdjust="spacing" textLength="133.0547" x="260.9204" y="421.7285">IncomeEvolutionDTO</text><line style="stroke:#181818;stroke-width:0.5;" x1="195.5" x2="426.8955" y1="432" y2="432"/><text fill="#000000" font-family="sans-serif" font-size="14" lengthAdjust="spacing" textLength="182.4854" x="200.5" y="450.5332">+submissionDate : LocalDate</text><text fill="#000000" font-family="sans-serif" font-size="14" lengthAdjust="spacing" textLength="221.3955" x="200.5" y="468.1426">+declarationType : DeclarationType</text><text fill="#000000" font-family="sans-serif" font-size="14" lengthAdjust="spacing" textLength="156.0508" x="200.5" y="485.752">+positionIncome : double</text><text fill="#000000" font-family="sans-serif" font-size="14" lengthAdjust="spacing" textLength="155.2646" x="200.5" y="503.3613">+subsidyIncome : double</text><text fill="#000000" font-family="sans-serif" font-size="14" lengthAdjust="spacing" textLength="134.2578" x="200.5" y="520.9707">+totalIncome : double</text><line style="stroke:#181818;stroke-width:0.5;" x1="195.5" x2="426.8955" y1="528.0469" y2="528.0469"/></g><!--class DeclarationType--><g class="entity" data-qualified-name="DeclarationType" data-source-line="102" id="ent0017"><rect fill="#F1F1F1" height="100.8281" rx="2.5" ry="2.5" style="stroke:#181818;stroke-width:0.5;" width="133.9375" x="1110" y="854.5"/><ellipse cx="1125" cy="870.5" fill="#ABABAB" rx="11" ry="11" style="stroke:#181818;stroke-width:1;"/><path d="M1123.8594,871.2969 L1123.8594,873.7969 L1128.1875,873.7969 L1128.1875,872.875 Q1128.1875,872.2656 1128.4219,872 Q1128.6719,871.7344 1129.0469,871.7344 Q1129.4219,871.7344 1129.6563,872 Q1129.8906,872.2656 1129.8906,872.875 L1129.8906,875.5 L1121.8906,875.5 Q1121.2656,875.5 1121,875.2656 Q1120.75,875.0313 1120.75,874.6406 Q1120.75,874.2656 1121.0156,874.0313 Q1121.2813,873.7969 1121.8906,873.7969 L1122.1563,873.7969 L1122.1563,867.1406 L1121.8906,867.1406 Q1121.2656,867.1406 1121,866.9063 Q1120.75,866.6719 1120.75,866.2813 Q1120.75,865.9063 1121,865.6719 Q1121.2656,865.4375 1121.8906,865.4375 L1129.5156,865.4375 L1129.5156,868.0313 Q1129.5156,868.6406 1129.2813,868.9063 Q1129.0625,869.1563 1128.6719,869.1563 Q1128.2969,869.1563 1128.0625,868.9063 Q1127.8281,868.6406 1127.8281,868.0313 L1127.8281,867.1406 L1123.8594,867.1406 L1123.8594,869.5938 L1125.3438,869.5938 Q1125.3438,868.9375 1125.4688,868.75 Q1125.7344,868.3438 1126.2031,868.3438 Q1126.5781,868.3438 1126.8125,868.6094 Q1127.0469,868.8594 1127.0469,869.4688 L1127.0469,871.4375 Q1127.0469,871.9844 1126.9219,872.1719 Q1126.6563,872.5625 1126.2031,872.5625 Q1125.7344,872.5625 1125.4688,872.1563 Q1125.3438,871.9688 1125.3438,871.2969 L1123.8594,871.2969 Z " fill="#000000"/><text fill="#000000" font-family="sans-serif" font-size="14" lengthAdjust="spacing" textLength="101.9375" x="1139" y="876.2285">DeclarationType</text><line style="stroke:#181818;stroke-width:0.5;" x1="1111" x2="1242.9375" y1="886.5" y2="886.5"/><text fill="#000000" font-family="sans-serif" font-size="14" lengthAdjust="spacing" textLength="47.4551" x="1116" y="905.0332">INITIAL</text><text fill="#000000" font-family="sans-serif" font-size="14" lengthAdjust="spacing" textLength="67.6826" x="1116" y="922.6426">REGULAR</text><text fill="#000000" font-family="sans-serif" font-size="14" lengthAdjust="spacing" textLength="98.0273" x="1116" y="940.252">EXCEPTIONAL</text><line style="stroke:#181818;stroke-width:0.5;" x1="1111" x2="1242.9375" y1="947.3281" y2="947.3281"/></g><!--link AnalyseIncomeEvolutionUI to AnalyseIncomeEvolutionController--><g class="link" data-entity-1="ent0002" data-entity-2="ent0003" data-link-type="dependency" data-source-line="108" id="lnk18"><path codeLine="108" d="M497.65,75 C502.26,75 505,75 505,75 C505,75 510.66,75 526.28,75" fill="none" id="AnalyseIncomeEvolutionUI-to-AnalyseIncomeEvolutionController" style="stroke:#181818;stroke-width:1;stroke-dasharray:7,7;"/><polygon fill="#181818" points="532.28,75,523.28,71,527.28,75,523.28,79,532.28,75" style="stroke:#181818;stroke-width:1;"/></g><!--link AnalyseIncomeEvolutionController to Repositories--><g class="link" data-entity-1="ent0003" data-entity-2="ent0006" data-link-type="dependency" data-source-line="110" id="lnk19"><path codeLine="110" d="M905.62,75 C934.34,75 961.67,75 961.67,75 C961.67,75 963.98,75 976.25,75" fill="none" id="AnalyseIncomeEvolutionController-to-Repositories" style="stroke:#181818;stroke-width:1;stroke-dasharray:7,7;"/><polygon fill="#181818" points="982.25,75,973.25,71,977.25,75,973.25,79,982.25,75" style="stroke:#181818;stroke-width:1;"/></g><!--link AnalyseIncomeEvolutionController to ApplicationSession--><g class="link" data-entity-1="ent0003" data-entity-2="ent0004" data-link-type="dependency" data-source-line="111" id="lnk20"><path codeLine="111" d="M623.28,143.21 C587,168.68 551.2903,193.762 517.7103,217.342" fill="none" id="AnalyseIncomeEvolutionController-to-ApplicationSession" style="stroke:#181818;stroke-width:1;stroke-dasharray:7,7;"/><polygon fill="#181818" points="512.8,220.79,522.4641,218.8915,516.8919,217.9166,517.8668,212.3444,512.8,220.79" style="stroke:#181818;stroke-width:1;"/></g><!--link AnalyseIncomeEvolutionController to UserSession--><g class="link" data-entity-1="ent0003" data-entity-2="ent0005" data-link-type="dependency" data-source-line="112" id="lnk21"><path codeLine="112" d="M696.65,143.22 C668.41,228.15 622.8333,365.2366 601.6533,428.9266" fill="none" id="AnalyseIncomeEvolutionController-to-UserSession" style="stroke:#181818;stroke-width:1;stroke-dasharray:7,7;"/><polygon fill="#181818" points="599.76,434.62,606.3956,427.3421,601.3378,429.8755,598.8044,424.8176,599.76,434.62" style="stroke:#181818;stroke-width:1;"/></g><!--link AnalyseIncomeEvolutionController to PoliticalAgentRepository--><g class="link" data-entity-1="ent0003" data-entity-2="ent0007" data-link-type="dependency" data-source-line="113" id="lnk22"><path codeLine="113" d="M844.52,143.07 C898.59,171.96 954.7384,201.9617 1001.7184,227.0717" fill="none" id="AnalyseIncomeEvolutionController-to-PoliticalAgentRepository" style="stroke:#181818;stroke-width:1;stroke-dasharray:7,7;"/><polygon fill="#181818" points="1007.01,229.9,1000.9581,222.1299,1002.6003,227.5431,997.1871,229.1853,1007.01,229.9" style="stroke:#181818;stroke-width:1;"/></g><!--link AnalyseIncomeEvolutionController to DeclarationRepository--><g class="link" data-entity-1="ent0003" data-entity-2="ent0008" data-link-type="dependency" data-source-line="114" id="lnk23"><path codeLine="114" d="M905.6,136.28 C991.64,164.07 1075,191 1075,191 C1075,191 1180.5399,215.0372 1277.4599,237.1172" fill="none" id="AnalyseIncomeEvolutionController-to-DeclarationRepository" style="stroke:#181818;stroke-width:1;stroke-dasharray:7,7;"/><polygon fill="#181818" points="1283.31,238.45,1275.4233,232.5508,1278.4349,237.3394,1273.6463,240.3509,1283.31,238.45" style="stroke:#181818;stroke-width:1;"/></g><!--link AnalyseIncomeEvolutionController to PoliticalAgentMapper--><g class="link" data-entity-1="ent0003" data-entity-2="ent0013" data-link-type="dependency" data-source-line="115" id="lnk24"><path codeLine="115" d="M769.1,143.21 C790.63,172.09 811.4938,200.0697 830.1838,225.1397" fill="none" id="AnalyseIncomeEvolutionController-to-PoliticalAgentMapper" style="stroke:#181818;stroke-width:1;stroke-dasharray:7,7;"/><polygon fill="#181818" points="833.77,229.95,831.5976,220.3437,830.7815,225.9414,825.1839,225.1253,833.77,229.95" style="stroke:#181818;stroke-width:1;"/></g><!--link AnalyseIncomeEvolutionController to IncomeEvolutionMapper--><g class="link" data-entity-1="ent0003" data-entity-2="ent0014" data-link-type="dependency" data-source-line="116" id="lnk25"><path codeLine="116" d="M532.39,137.29 C521.59,140.84 515,143 515,143 C515,143 288,173 288,173 C288,173 255.47,193.6014 217.42,217.6814" fill="none" id="AnalyseIncomeEvolutionController-to-IncomeEvolutionMapper" style="stroke:#181818;stroke-width:1;stroke-dasharray:7,7;"/><polygon fill="#181818" points="212.35,220.89,222.0941,219.4572,216.575,218.2162,217.816,212.6971,212.35,220.89" style="stroke:#181818;stroke-width:1;"/></g><!--link AnalyseIncomeEvolutionController to PoliticalAgentDTO--><g class="link" data-entity-1="ent0003" data-entity-2="ent0015" data-link-type="dependency" data-source-line="117" id="lnk26"><path codeLine="117" d="M728.84,143.22 C739.5,216.06 755,322 755,322 C755,322 773.4138,377.6442 787.6138,420.5242" fill="none" id="AnalyseIncomeEvolutionController-to-PoliticalAgentDTO" style="stroke:#181818;stroke-width:1;stroke-dasharray:7,7;"/><polygon fill="#181818" points="789.5,426.22,790.4679,416.4188,787.9282,421.4735,782.8735,418.9338,789.5,426.22" style="stroke:#181818;stroke-width:1;"/></g><!--link AnalyseIncomeEvolutionController to IncomeEvolutionDTO--><g class="link" data-entity-1="ent0003" data-entity-2="ent0016" data-link-type="dependency" data-source-line="118" id="lnk27"><path codeLine="118" d="M547.81,143.09 C450.94,181.05 349,221 349,221 C349,221 333.5458,321.0103 322.2958,393.8503" fill="none" id="AnalyseIncomeEvolutionController-to-IncomeEvolutionDTO" style="stroke:#181818;stroke-width:1;stroke-dasharray:7,7;"/><polygon fill="#181818" points="321.38,399.78,326.7069,391.496,322.1432,394.8386,318.8006,390.2749,321.38,399.78" style="stroke:#181818;stroke-width:1;"/></g><!--link ApplicationSession to ApplicationSession--><g class="link" data-entity-1="ent0004" data-entity-2="ent0004" data-link-type="dependency" data-source-line="120" id="lnk28"><path codeLine="120" d="M517.06,255.15 C536.94,256.08 552,261.53 552,271.5 C552,281.47 542.9334,286.6396 523.0534,287.5696" fill="none" id="ApplicationSession-to-ApplicationSession" style="stroke:#181818;stroke-width:1;"/><polygon fill="#181818" points="517.06,287.85,526.2371,291.4251,522.0545,287.6164,525.8632,283.4338,517.06,287.85" style="stroke:#181818;stroke-width:1;"/><text fill="#000000" font-family="sans-serif" font-size="13" lengthAdjust="spacing" textLength="48.4199" x="558" y="276.9951">instance</text><text fill="#000000" font-family="sans-serif" font-size="13" lengthAdjust="spacing" textLength="7.23" x="525.1581" y="286.2332">1</text></g><!--link ApplicationSession to UserSession--><g class="link" data-entity-1="ent0004" data-entity-2="ent0005" data-link-type="dependency" data-source-line="121" id="lnk29"><path codeLine="121" d="M479.47,322.08 C506.27,357.54 537.9323,399.4333 561.1123,430.1033" fill="none" id="ApplicationSession-to-UserSession" style="stroke:#181818;stroke-width:1;stroke-dasharray:7,7;"/><polygon fill="#181818" points="564.73,434.89,562.4946,425.2982,561.7152,430.9011,556.1123,430.1218,564.73,434.89" style="stroke:#181818;stroke-width:1;"/></g><!--link Repositories to Repositories--><g class="link" data-entity-1="ent0006" data-entity-2="ent0006" data-link-type="dependency" data-source-line="123" id="lnk30"><path codeLine="123" d="M1183.75,55.91 C1204.02,58.03 1218.5,64.39 1218.5,75 C1218.5,85.61 1209.9875,91.3459 1189.7175,93.4659" fill="none" id="Repositories-to-Repositories" style="stroke:#181818;stroke-width:1;"/><polygon fill="#181818" points="1183.75,94.09,1193.1173,97.1321,1188.7229,93.5699,1192.2851,89.1755,1183.75,94.09" style="stroke:#181818;stroke-width:1;"/><text fill="#000000" font-family="sans-serif" font-size="13" lengthAdjust="spacing" textLength="48.4199" x="1224.5" y="80.4951">instance</text><text fill="#000000" font-family="sans-serif" font-size="13" lengthAdjust="spacing" textLength="7.23" x="1191.0985" y="92.3619">1</text></g><!--link Repositories to PoliticalAgentRepository--><g class="link" data-entity-1="ent0006" data-entity-2="ent0007" data-link-type="dependency" data-source-line="124" id="lnk31"><path codeLine="124" d="M1083,134.09 C1083,164.99 1083,196.21 1083,223.97" fill="none" id="Repositories-to-PoliticalAgentRepository" style="stroke:#181818;stroke-width:1;"/><polygon fill="#181818" points="1083,229.97,1087,220.97,1083,224.97,1079,220.97,1083,229.97" style="stroke:#181818;stroke-width:1;"/><text fill="#000000" font-family="sans-serif" font-size="13" lengthAdjust="spacing" textLength="139.4644" x="1084" y="187.4951">politicalAgentRepository</text><text fill="#000000" font-family="sans-serif" font-size="13" lengthAdjust="spacing" textLength="7.23" x="1075.4605" y="219.2727">1</text></g><!--link Repositories to DeclarationRepository--><g class="link" data-entity-1="ent0006" data-entity-2="ent0008" data-link-type="dependency" data-source-line="125" id="lnk32"><path codeLine="125" d="M1183.93,133.57 C1244.02,167.84 1312.8281,207.0874 1362.6581,235.5074" fill="none" id="Repositories-to-DeclarationRepository" style="stroke:#181818;stroke-width:1;"/><polygon fill="#181818" points="1367.87,238.48,1362.0338,230.5466,1363.5267,236.0029,1358.0704,237.4958,1367.87,238.48" style="stroke:#181818;stroke-width:1;"/><text fill="#000000" font-family="sans-serif" font-size="13" lengthAdjust="spacing" textLength="125.7344" x="1285" y="187.4951">declarationRepository</text><text fill="#000000" font-family="sans-serif" font-size="13" lengthAdjust="spacing" textLength="7.23" x="1348.5764" y="227.5913">1</text></g><!--link PoliticalAgentRepository to PoliticalAgent--><g class="link" data-entity-1="ent0007" data-entity-2="ent0009" data-link-type="dependency" data-source-line="127" id="lnk33"><path codeLine="127" d="M1068.95,313.27 C1060.32,338.34 1051.0052,365.3875 1041.0752,394.1975" fill="none" id="PoliticalAgentRepository-to-PoliticalAgent" style="stroke:#181818;stroke-width:1;"/><polygon fill="#181818" points="1039.12,399.87,1045.8344,392.6647,1040.7493,395.1429,1038.2711,390.0578,1039.12,399.87" style="stroke:#181818;stroke-width:1;"/><text fill="#000000" font-family="sans-serif" font-size="13" lengthAdjust="spacing" textLength="83.8271" x="1056" y="366.4951">politicalAgents</text><text fill="#000000" font-family="sans-serif" font-size="13" lengthAdjust="spacing" textLength="5.0591" x="1036.3884" y="389.0551">*</text></g><!--link DeclarationRepository to Declaration--><g class="link" data-entity-1="ent0008" data-entity-2="ent0010" data-link-type="dependency" data-source-line="128" id="lnk34"><path codeLine="128" d="M1392.66,304.57 C1328.47,370.25 1184.7038,517.3691 1094.5038,609.6591" fill="none" id="DeclarationRepository-to-Declaration" style="stroke:#181818;stroke-width:1;"/><polygon fill="#181818" points="1090.31,613.95,1099.4613,610.3094,1093.8048,610.3742,1093.74,604.7177,1090.31,613.95" style="stroke:#181818;stroke-width:1;"/><text fill="#000000" font-family="sans-serif" font-size="13" lengthAdjust="spacing" textLength="70.0972" x="1294" y="473.4951">declarations</text><text fill="#000000" font-family="sans-serif" font-size="13" lengthAdjust="spacing" textLength="5.0591" x="1092.3831" y="603.1072">*</text></g><!--link PoliticalAgent to Declaration--><g class="link" data-entity-1="ent0009" data-entity-2="ent0010" data-link-type="dependency" data-source-line="130" id="lnk35"><path codeLine="130" d="M1016,536.21 C1016,560.72 1016,582.6 1016,607.83" fill="none" id="PoliticalAgent-to-Declaration" style="stroke:#181818;stroke-width:1;"/><polygon fill="#181818" points="1016,613.83,1020,604.83,1016,608.83,1012,604.83,1016,613.83" style="stroke:#181818;stroke-width:1;"/><polygon fill="#000000" points="1021,580.1758,1023.9389,571.1307,1018.0611,571.1307,1021,580.1758" style="stroke:#000000;stroke-width:1;"/><text fill="#000000" font-family="sans-serif" font-size="13" lengthAdjust="spacing" textLength="44.7891" x="1030" y="580.4951">submits</text><text fill="#000000" font-family="sans-serif" font-size="13" lengthAdjust="spacing" textLength="7.23" x="1008.6602" y="557.58">1</text><text fill="#000000" font-family="sans-serif" font-size="13" lengthAdjust="spacing" textLength="19.5127" x="996.1203" y="603.2405">0..*</text></g><!--link Declaration to DeclarationType--><g class="link" data-entity-1="ent0010" data-entity-2="ent0017" data-link-type="dependency" data-source-line="132" id="lnk36"><path codeLine="132" d="M1073.9,768.24 C1095.62,796.85 1116.1114,823.8216 1135.5514,849.4216" fill="none" id="Declaration-to-DeclarationType" style="stroke:#181818;stroke-width:1;"/><polygon fill="#181818" points="1139.18,854.2,1136.9227,844.6133,1136.1562,850.218,1130.5515,849.4515,1139.18,854.2" style="stroke:#181818;stroke-width:1;"/><text fill="#000000" font-family="sans-serif" font-size="13" lengthAdjust="spacing" textLength="24.5718" x="1107" y="812.4951">type</text><text fill="#000000" font-family="sans-serif" font-size="13" lengthAdjust="spacing" textLength="7.23" x="1126.3899" y="843.4632">1</text></g><!--reverse link Declaration to Position--><g class="link" data-entity-1="ent0010" data-entity-2="ent0011" data-link-type="composition" data-source-line="133" id="lnk37"><path codeLine="133" d="M947.3616,777.6008 C926.8916,803.1208 911.93,821.79 892.74,845.71" fill="none" id="Declaration-backto-Position" style="stroke:#181818;stroke-width:1;"/><polygon fill="#181818" points="954.87,768.24,947.9955,770.4176,947.3616,777.6008,954.236,775.4232,954.87,768.24" style="stroke:#181818;stroke-width:1;"/><polygon fill="#000000" points="932.8718,811.0764,940.8234,805.8588,936.238,802.1814,932.8718,811.0764" style="stroke:#000000;stroke-width:1;"/><text fill="#000000" font-family="sans-serif" font-size="13" lengthAdjust="spacing" textLength="48.4199" x="945" y="812.4951">contains</text><text fill="#000000" font-family="sans-serif" font-size="13" lengthAdjust="spacing" textLength="7.23" x="942.327" y="789.0903">1</text><text fill="#000000" font-family="sans-serif" font-size="13" lengthAdjust="spacing" textLength="19.5127" x="878.3183" y="834.9989">0..*</text></g><!--reverse link Declaration to Subsidy--><g class="link" data-entity-1="ent0010" data-entity-2="ent0012" data-link-type="composition" data-source-line="134" id="lnk38"><path codeLine="134" d="M1016,780.24 C1016,808.85 1016,828.6 1016,854.2" fill="none" id="Declaration-backto-Subsidy" style="stroke:#181818;stroke-width:1;"/><polygon fill="#181818" points="1016,768.24,1012,774.24,1016,780.24,1020,774.24,1016,768.24" style="stroke:#181818;stroke-width:1;"/><polygon fill="#000000" points="1021,812.1758,1023.9389,803.1307,1018.0611,803.1307,1021,812.1758" style="stroke:#000000;stroke-width:1;"/><text fill="#000000" font-family="sans-serif" font-size="13" lengthAdjust="spacing" textLength="48.4199" x="1030" y="812.4951">contains</text><text fill="#000000" font-family="sans-serif" font-size="13" lengthAdjust="spacing" textLength="7.23" x="1008.7103" y="789.0903">1</text><text fill="#000000" font-family="sans-serif" font-size="13" lengthAdjust="spacing" textLength="19.5127" x="995.6953" y="843.4632">0..*</text></g><!--link PoliticalAgentMapper to PoliticalAgent--><g class="link" data-entity-1="ent0013" data-entity-2="ent0009" data-link-type="dependency" data-source-line="136" id="lnk39"><path codeLine="136" d="M895.86,313.27 C915.45,338.34 937.3249,366.3328 959.8449,395.1428" fill="none" id="PoliticalAgentMapper-to-PoliticalAgent" style="stroke:#181818;stroke-width:1;stroke-dasharray:7,7;"/><polygon fill="#181818" points="963.54,399.87,961.1488,390.3158,960.4607,395.9307,954.8459,395.2426,963.54,399.87" style="stroke:#181818;stroke-width:1;"/></g><!--link PoliticalAgentMapper to PoliticalAgentDTO--><g class="link" data-entity-1="ent0013" data-entity-2="ent0015" data-link-type="dependency" data-source-line="137" id="lnk40"><path codeLine="137" d="M851.21,313.27 C840.8,346.47 827.9761,387.3752 817.5661,420.5552" fill="none" id="PoliticalAgentMapper-to-PoliticalAgentDTO" style="stroke:#181818;stroke-width:1;stroke-dasharray:7,7;"/><polygon fill="#181818" points="815.77,426.28,822.2808,418.8901,817.2668,421.5093,814.6476,416.4953,815.77,426.28" style="stroke:#181818;stroke-width:1;"/></g><!--link IncomeEvolutionMapper to Declaration--><g class="link" data-entity-1="ent0014" data-entity-2="ent0010" data-link-type="dependency" data-source-line="139" id="lnk41"><path codeLine="139" d="M142.09,322.06 C154.54,398.39 177,536 177,536 C177,536 694.1186,630.9167 914.2586,671.3267" fill="none" id="IncomeEvolutionMapper-to-Declaration" style="stroke:#181818;stroke-width:1;stroke-dasharray:7,7;"/><polygon fill="#181818" points="920.16,672.41,912.0301,666.8508,915.2422,671.5073,910.5857,674.7193,920.16,672.41" style="stroke:#181818;stroke-width:1;"/></g><!--link IncomeEvolutionMapper to IncomeEvolutionDTO--><g class="link" data-entity-1="ent0014" data-entity-2="ent0016" data-link-type="dependency" data-source-line="140" id="lnk42"><path codeLine="140" d="M179.12,322.08 C200.63,345.72 222.6409,369.9131 245.8909,395.4531" fill="none" id="IncomeEvolutionMapper-to-IncomeEvolutionDTO" style="stroke:#181818;stroke-width:1;stroke-dasharray:7,7;"/><polygon fill="#181818" points="249.93,399.89,246.8293,390.542,246.5641,396.1926,240.9135,395.9274,249.93,399.89" style="stroke:#181818;stroke-width:1;"/></g><?plantuml-src dLRBJkCm5DtdAonMvL74RBj02cqrogW3g2tIRDt410l7Zcm79eFuzxbvsuvJAhffudlEkGzV-qQzKfvZYJEK2IxY5oaoWhGiIA1wIuxZLvoIdIuPGPB46lEKcG3rWXFnJdcAdZ5JfeLHJdIP4vGBLbOlXYrcMAbGQqaFXIPHBFYE_YFe9WXg2mevPgKY4OyXflMRO8McWZz5w2D0yBj4ik2py-3pE7ufk9Q2CI9xtbT046s0AT6FWb5DOyp2b72jJ9F3d-KMD4gkaD9OwXNMv0eHdbGF3Nq-LXwnE-GRPZG1PiMEk2OI5cO-uQ4EUSv0g8ffHvI2lpRpkSVK9_G1ck3_iyaCNdXCp6oNXPGGs43h_Jqf8cr7buYgZKXJaaGyLBz48Q7YL6cJjIMvK5GBIOdgupCNJuxCBcGlKPgO5G6liaxS0lJXJ8dq6O58oDYHThWhesH64qFJwxGNVAOykIjjmP0dZqHIaJZju6-bYU3xQj84BT0EpXTFsnMEuNGxQnh_ZKP0ac7AtCKSVBqBQO1zgVRkLN78QDqMLRX0sWW8iNeEXghjB91PpprS6zQxq1Zg3rK4S7FsHcPGKpGf9wpzib6uHcw8kIkp5MvRawRk7eiaMS59c_u29Q8uC3F9hM4ttRVXzjvn9WhOlrwXspHTI6FRZ8QiyTDj_1ldkN7lQR7QFsogSsXtbpet0OxH47Skl97w4gO75qoa5RbpbGoTuVWnBDrbfuI4S-JqXAqmaIe83fUFqywNJjzF9MHg76dU1c14LNKg85RsIelBhOwrzxPsCpIiQzH3qmuc29xm8dEzjO57zz4-2ZVrytRzysaJRkldzP_b-d4VFTo33HGcH-lrxPVJSOfj35fGCM_o4mYLtz5iEerdZ9_J25DN_MbixwN-7SVDyJcDwJrvtt4ABVujZnKly7nOp6_HsOyptoV70j5sLljuxiO5rkT0gsgj6NesjWLF3l05ogSst2ladzeByy0R4i6atrhlmWri58uA_0uxkZbPhI2KwxkElgRTN5-FcFM5fXMw3Ko7lgpRwwpwRBUW5UnYFk_a-zcvGF3fhZ5i3uWV8NJJpi87tearRjnJSNMZ-WULStgFe3pD_ny0?></g></svg>