<?xml version="1.0" encoding="us-ascii" standalone="no"?><svg xmlns="http://www.w3.org/2000/svg" xmlns:xlink="http://www.w3.org/1999/xlink" contentStyleType="text/css" height="528px" preserveAspectRatio="none" style="width:382px;height:528px;background:#FFFFFF;" version="1.1" viewBox="0 0 382 528" width="382px" zoomAndPan="magnify"><defs/><g><text fill="#000000" font-family="sans-serif" font-size="14" font-weight="bold" lengthAdjust="spacing" textLength="206" x="81.25" y="24.5332">US12 - Domain Model Excerpt</text><!--class Citizen--><g id="elem_Citizen"><rect codeLine="2" fill="#F1F1F1" height="65.6094" id="Citizen" rx="2.5" ry="2.5" style="stroke:#181818;stroke-width:0.5;" width="125" x="80.5" y="63.1094"/><ellipse cx="118.45" cy="79.1094" fill="#ADD1B2" rx="11" ry="11" style="stroke:#181818;stroke-width:1.0;"/><path d="M121.2156,74.9844 Q121.3719,74.7656 121.5594,74.6563 Q121.7469,74.5469 121.9656,74.5469 Q122.3406,74.5469 122.575,74.8047 Q122.8094,75.0625 122.8094,75.6719 L122.8094,77.125 Q122.8094,77.7344 122.575,78 Q122.3406,78.2656 121.9656,78.2656 Q121.6219,78.2656 121.4188,78.0625 Q121.2156,77.875 121.1063,77.3594 Q121.0594,77 120.8719,76.8125 Q120.5438,76.4375 119.9344,76.2188 Q119.325,76 118.7,76 Q117.9344,76 117.3016,76.3281 Q116.6688,76.6563 116.1766,77.4063 Q115.6844,78.1563 115.6844,79.1875 L115.6844,80.2813 Q115.6844,81.5156 116.575,82.3359 Q117.4656,83.1563 119.0594,83.1563 Q119.9969,83.1563 120.6531,82.9063 Q121.0438,82.75 121.4656,82.3125 Q121.7313,82.0469 121.8797,81.9688 Q122.0281,81.8906 122.2313,81.8906 Q122.5594,81.8906 122.8172,82.1484 Q123.075,82.4063 123.075,82.75 Q123.075,83.0938 122.7313,83.5 Q122.2313,84.0781 121.4344,84.4063 Q120.3563,84.8594 119.0594,84.8594 Q117.5438,84.8594 116.3406,84.2344 Q115.3563,83.7344 114.6688,82.6641 Q113.9813,81.5938 113.9813,80.3125 L113.9813,79.1563 Q113.9813,77.8281 114.5984,76.6797 Q115.2156,75.5313 116.3094,74.9141 Q117.4031,74.2969 118.6375,74.2969 Q119.3719,74.2969 120.0203,74.4609 Q120.6688,74.625 121.2156,74.9844 Z " fill="#000000"/><text fill="#000000" font-family="sans-serif" font-size="14" lengthAdjust="spacing" textLength="42" x="137.55" y="84.8379">Citizen</text><line style="stroke:#181818;stroke-width:0.5;" x1="81.5" x2="204.5" y1="95.1094" y2="95.1094"/><ellipse cx="91.5" cy="109.4141" fill="none" rx="3" ry="3" style="stroke:#038048;stroke-width:1.0;"/><text fill="#000000" font-family="sans-serif" font-size="14" lengthAdjust="spacing" textLength="99" x="100.5" y="113.6426">citizenId : String</text><line style="stroke:#181818;stroke-width:0.5;" x1="81.5" x2="204.5" y1="120.7188" y2="120.7188"/></g><!--class PoliticalAgent--><g id="elem_PoliticalAgent"><rect codeLine="6" fill="#F1F1F1" height="83.2188" id="PoliticalAgent" rx="2.5" ry="2.5" style="stroke:#181818;stroke-width:0.5;" width="122" x="7" y="438.6094"/><ellipse cx="24.25" cy="454.6094" fill="#ADD1B2" rx="11" ry="11" style="stroke:#181818;stroke-width:1.0;"/><path d="M27.0156,450.4844 Q27.1719,450.2656 27.3594,450.1563 Q27.5469,450.0469 27.7656,450.0469 Q28.1406,450.0469 28.375,450.3047 Q28.6094,450.5625 28.6094,451.1719 L28.6094,452.625 Q28.6094,453.2344 28.375,453.5 Q28.1406,453.7656 27.7656,453.7656 Q27.4219,453.7656 27.2188,453.5625 Q27.0156,453.375 26.9063,452.8594 Q26.8594,452.5 26.6719,452.3125 Q26.3438,451.9375 25.7344,451.7188 Q25.125,451.5 24.5,451.5 Q23.7344,451.5 23.1016,451.8281 Q22.4688,452.1563 21.9766,452.9063 Q21.4844,453.6563 21.4844,454.6875 L21.4844,455.7813 Q21.4844,457.0156 22.375,457.8359 Q23.2656,458.6563 24.8594,458.6563 Q25.7969,458.6563 26.4531,458.4063 Q26.8438,458.25 27.2656,457.8125 Q27.5313,457.5469 27.6797,457.4688 Q27.8281,457.3906 28.0313,457.3906 Q28.3594,457.3906 28.6172,457.6484 Q28.875,457.9063 28.875,458.25 Q28.875,458.5938 28.5313,459 Q28.0313,459.5781 27.2344,459.9063 Q26.1563,460.3594 24.8594,460.3594 Q23.3438,460.3594 22.1406,459.7344 Q21.1563,459.2344 20.4688,458.1641 Q19.7813,457.0938 19.7813,455.8125 L19.7813,454.6563 Q19.7813,453.3281 20.3984,452.1797 Q21.0156,451.0313 22.1094,450.4141 Q23.2031,449.7969 24.4375,449.7969 Q25.1719,449.7969 25.8203,449.9609 Q26.4688,450.125 27.0156,450.4844 Z " fill="#000000"/><text fill="#000000" font-family="sans-serif" font-size="14" lengthAdjust="spacing" textLength="85" x="38.75" y="460.3379">PoliticalAgent</text><line style="stroke:#181818;stroke-width:0.5;" x1="8" x2="128" y1="470.6094" y2="470.6094"/><ellipse cx="18" cy="484.9141" fill="none" rx="3" ry="3" style="stroke:#038048;stroke-width:1.0;"/><text fill="#000000" font-family="sans-serif" font-size="14" lengthAdjust="spacing" textLength="96" x="27" y="489.1426">agentId : String</text><ellipse cx="18" cy="502.5234" fill="none" rx="3" ry="3" style="stroke:#038048;stroke-width:1.0;"/><text fill="#000000" font-family="sans-serif" font-size="14" lengthAdjust="spacing" textLength="84" x="27" y="506.752">name : String</text><line style="stroke:#181818;stroke-width:0.5;" x1="8" x2="128" y1="513.8281" y2="513.8281"/></g><!--class PoliticalRole--><g id="elem_PoliticalRole"><rect codeLine="11" fill="#F1F1F1" height="83.2188" id="PoliticalRole" rx="2.5" ry="2.5" style="stroke:#181818;stroke-width:0.5;" width="110" x="164" y="438.6094"/><ellipse cx="179.45" cy="454.6094" fill="#ADD1B2" rx="11" ry="11" style="stroke:#181818;stroke-width:1.0;"/><path d="M182.2156,450.4844 Q182.3719,450.2656 182.5594,450.1563 Q182.7469,450.0469 182.9656,450.0469 Q183.3406,450.0469 183.575,450.3047 Q183.8094,450.5625 183.8094,451.1719 L183.8094,452.625 Q183.8094,453.2344 183.575,453.5 Q183.3406,453.7656 182.9656,453.7656 Q182.6219,453.7656 182.4188,453.5625 Q182.2156,453.375 182.1063,452.8594 Q182.0594,452.5 181.8719,452.3125 Q181.5438,451.9375 180.9344,451.7188 Q180.325,451.5 179.7,451.5 Q178.9344,451.5 178.3016,451.8281 Q177.6688,452.1563 177.1766,452.9063 Q176.6844,453.6563 176.6844,454.6875 L176.6844,455.7813 Q176.6844,457.0156 177.575,457.8359 Q178.4656,458.6563 180.0594,458.6563 Q180.9969,458.6563 181.6531,458.4063 Q182.0438,458.25 182.4656,457.8125 Q182.7313,457.5469 182.8797,457.4688 Q183.0281,457.3906 183.2313,457.3906 Q183.5594,457.3906 183.8172,457.6484 Q184.075,457.9063 184.075,458.25 Q184.075,458.5938 183.7313,459 Q183.2313,459.5781 182.4344,459.9063 Q181.3563,460.3594 180.0594,460.3594 Q178.5438,460.3594 177.3406,459.7344 Q176.3563,459.2344 175.6688,458.1641 Q174.9813,457.0938 174.9813,455.8125 L174.9813,454.6563 Q174.9813,453.3281 175.5984,452.1797 Q176.2156,451.0313 177.3094,450.4141 Q178.4031,449.7969 179.6375,449.7969 Q180.3719,449.7969 181.0203,449.9609 Q181.6688,450.125 182.2156,450.4844 Z " fill="#000000"/><text fill="#000000" font-family="sans-serif" font-size="14" lengthAdjust="spacing" textLength="77" x="193.55" y="460.3379">PoliticalRole</text><line style="stroke:#181818;stroke-width:0.5;" x1="165" x2="273" y1="470.6094" y2="470.6094"/><ellipse cx="175" cy="484.9141" fill="none" rx="3" ry="3" style="stroke:#038048;stroke-width:1.0;"/><text fill="#000000" font-family="sans-serif" font-size="14" lengthAdjust="spacing" textLength="84" x="184" y="489.1426">roleId : String</text><ellipse cx="175" cy="502.5234" fill="none" rx="3" ry="3" style="stroke:#038048;stroke-width:1.0;"/><text fill="#000000" font-family="sans-serif" font-size="14" lengthAdjust="spacing" textLength="84" x="184" y="506.752">name : String</text><line style="stroke:#181818;stroke-width:0.5;" x1="165" x2="273" y1="513.8281" y2="513.8281"/></g><!--class Complaint--><g id="elem_Complaint"><rect codeLine="16" fill="#F1F1F1" height="136.0469" id="Complaint" rx="2.5" ry="2.5" style="stroke:#181818;stroke-width:0.5;" width="202" x="42" y="224.6094"/><ellipse cx="107.25" cy="240.6094" fill="#ADD1B2" rx="11" ry="11" style="stroke:#181818;stroke-width:1.0;"/><path d="M110.0156,236.4844 Q110.1719,236.2656 110.3594,236.1563 Q110.5469,236.0469 110.7656,236.0469 Q111.1406,236.0469 111.375,236.3047 Q111.6094,236.5625 111.6094,237.1719 L111.6094,238.625 Q111.6094,239.2344 111.375,239.5 Q111.1406,239.7656 110.7656,239.7656 Q110.4219,239.7656 110.2188,239.5625 Q110.0156,239.375 109.9063,238.8594 Q109.8594,238.5 109.6719,238.3125 Q109.3438,237.9375 108.7344,237.7188 Q108.125,237.5 107.5,237.5 Q106.7344,237.5 106.1016,237.8281 Q105.4688,238.1563 104.9766,238.9063 Q104.4844,239.6563 104.4844,240.6875 L104.4844,241.7813 Q104.4844,243.0156 105.375,243.8359 Q106.2656,244.6563 107.8594,244.6563 Q108.7969,244.6563 109.4531,244.4063 Q109.8438,244.25 110.2656,243.8125 Q110.5313,243.5469 110.6797,243.4688 Q110.8281,243.3906 111.0313,243.3906 Q111.3594,243.3906 111.6172,243.6484 Q111.875,243.9063 111.875,244.25 Q111.875,244.5938 111.5313,245 Q111.0313,245.5781 110.2344,245.9063 Q109.1563,246.3594 107.8594,246.3594 Q106.3438,246.3594 105.1406,245.7344 Q104.1563,245.2344 103.4688,244.1641 Q102.7813,243.0938 102.7813,241.8125 L102.7813,240.6563 Q102.7813,239.3281 103.3984,238.1797 Q104.0156,237.0313 105.1094,236.4141 Q106.2031,235.7969 107.4375,235.7969 Q108.1719,235.7969 108.8203,235.9609 Q109.4688,236.125 110.0156,236.4844 Z " fill="#000000"/><text fill="#000000" font-family="sans-serif" font-size="14" lengthAdjust="spacing" textLength="63" x="127.75" y="246.3379">Complaint</text><line style="stroke:#181818;stroke-width:0.5;" x1="43" x2="243" y1="256.6094" y2="256.6094"/><ellipse cx="53" cy="270.9141" fill="none" rx="3" ry="3" style="stroke:#038048;stroke-width:1.0;"/><text fill="#000000" font-family="sans-serif" font-size="14" lengthAdjust="spacing" textLength="120" x="62" y="275.1426">complaintId : String</text><ellipse cx="53" cy="288.5234" fill="none" rx="3" ry="3" style="stroke:#038048;stroke-width:1.0;"/><text fill="#000000" font-family="sans-serif" font-size="14" lengthAdjust="spacing" textLength="155" x="62" y="292.752">incidentDate : LocalDate</text><ellipse cx="53" cy="306.1328" fill="none" rx="3" ry="3" style="stroke:#038048;stroke-width:1.0;"/><text fill="#000000" font-family="sans-serif" font-size="14" lengthAdjust="spacing" textLength="176" x="62" y="310.3613">submissionDate : LocalDate</text><ellipse cx="53" cy="323.7422" fill="none" rx="3" ry="3" style="stroke:#038048;stroke-width:1.0;"/><text fill="#000000" font-family="sans-serif" font-size="14" lengthAdjust="spacing" textLength="118" x="62" y="327.9707">description : String</text><ellipse cx="53" cy="341.3516" fill="none" rx="3" ry="3" style="stroke:#038048;stroke-width:1.0;"/><text fill="#000000" font-family="sans-serif" font-size="14" lengthAdjust="spacing" textLength="153" x="62" y="345.5801">status : ComplaintStatus</text><line style="stroke:#181818;stroke-width:0.5;" x1="43" x2="243" y1="352.6563" y2="352.6563"/></g><!--class ComplaintStatus--><g id="elem_ComplaintStatus"><rect codeLine="24" fill="#F1F1F1" height="100.8281" id="ComplaintStatus" rx="2.5" ry="2.5" style="stroke:#181818;stroke-width:0.5;" width="135" x="240.5" y="45.6094"/><ellipse cx="255.5" cy="61.6094" fill="#EB937F" rx="11" ry="11" style="stroke:#181818;stroke-width:1.0;"/><path d="M254.3594,62.4063 L254.3594,64.9063 L258.6875,64.9063 L258.6875,63.9844 Q258.6875,63.375 258.9297,63.1094 Q259.1719,62.8438 259.5469,62.8438 Q259.9219,62.8438 260.1563,63.1094 Q260.3906,63.375 260.3906,63.9844 L260.3906,66.6094 L252.3906,66.6094 Q251.7656,66.6094 251.5078,66.375 Q251.25,66.1406 251.25,65.75 Q251.25,65.375 251.5156,65.1406 Q251.7813,64.9063 252.3906,64.9063 L252.6563,64.9063 L252.6563,58.25 L252.3906,58.25 Q251.7656,58.25 251.5078,58.0156 Q251.25,57.7813 251.25,57.3906 Q251.25,57.0156 251.5078,56.7813 Q251.7656,56.5469 252.3906,56.5469 L260.0156,56.5469 L260.0156,59.1406 Q260.0156,59.75 259.7891,60.0078 Q259.5625,60.2656 259.1719,60.2656 Q258.7969,60.2656 258.5625,60.0078 Q258.3281,59.75 258.3281,59.1406 L258.3281,58.25 L254.3594,58.25 L254.3594,60.7031 L255.8438,60.7031 Q255.8438,60.0469 255.9688,59.8594 Q256.2344,59.4531 256.7031,59.4531 Q257.0781,59.4531 257.3125,59.7109 Q257.5469,59.9688 257.5469,60.5781 L257.5469,62.5469 Q257.5469,63.0938 257.4219,63.2813 Q257.1563,63.6719 256.7031,63.6719 Q256.2344,63.6719 255.9688,63.2656 Q255.8438,63.0781 255.8438,62.4063 L254.3594,62.4063 Z " fill="#000000"/><text fill="#000000" font-family="sans-serif" font-size="14" lengthAdjust="spacing" textLength="103" x="269.5" y="67.3379">ComplaintStatus</text><line style="stroke:#181818;stroke-width:0.5;" x1="241.5" x2="374.5" y1="77.6094" y2="77.6094"/><text fill="#000000" font-family="sans-serif" font-size="14" lengthAdjust="spacing" textLength="78" x="246.5" y="96.1426">SUBMITTED</text><text fill="#000000" font-family="sans-serif" font-size="14" lengthAdjust="spacing" textLength="108" x="246.5" y="113.752">UNDER_REVIEW</text><text fill="#000000" font-family="sans-serif" font-size="14" lengthAdjust="spacing" textLength="57" x="246.5" y="131.3613">CLOSED</text><line style="stroke:#181818;stroke-width:0.5;" x1="241.5" x2="374.5" y1="138.4375" y2="138.4375"/></g><!--link Citizen to Complaint--><g id="link_Citizen_Complaint"><path codeLine="30" d="M143,129.2294 C143,155.0194 143,192.1094 143,224.3394 " fill="none" id="Citizen-Complaint" style="stroke:#181818;stroke-width:1.0;"/><polygon fill="#000000" points="148,190.7852,150.9389,181.7401,145.0611,181.7401,148,190.7852" style="stroke:#000000;stroke-width:1.0;"/><text fill="#000000" font-family="sans-serif" font-size="13" lengthAdjust="spacing" textLength="46" x="157" y="191.1045">submits</text><text fill="#000000" font-family="sans-serif" font-size="13" lengthAdjust="spacing" textLength="7" x="135.3766" y="150.1151">1</text><text fill="#000000" font-family="sans-serif" font-size="13" lengthAdjust="spacing" textLength="20" x="121.9688" y="213.9849">0..*</text></g><!--link Complaint to PoliticalAgent--><g id="link_Complaint_PoliticalAgent"><path codeLine="31" d="M115.82,360.8394 C105.29,386.8694 93.6,415.7994 84.41,438.5294 " fill="none" id="Complaint-PoliticalAgent" style="stroke:#181818;stroke-width:1.0;"/><polygon fill="#000000" points="107.1259,404.4206,113.2409,397.1366,107.7915,394.9334,107.1259,404.4206" style="stroke:#000000;stroke-width:1.0;"/><text fill="#000000" font-family="sans-serif" font-size="13" lengthAdjust="spacing" textLength="40" x="118" y="405.1045">reports</text><text fill="#000000" font-family="sans-serif" font-size="13" lengthAdjust="spacing" textLength="7" x="105.6561" y="382.2114">1</text><text fill="#000000" font-family="sans-serif" font-size="13" lengthAdjust="spacing" textLength="7" x="79.5482" y="427.8238">1</text></g><!--link Complaint to PoliticalRole--><g id="link_Complaint_PoliticalRole"><path codeLine="32" d="M170.55,360.8394 C181.21,386.8694 193.06,415.7994 202.38,438.5294 " fill="none" id="Complaint-PoliticalRole" style="stroke:#181818;stroke-width:1.0;"/><polygon fill="#000000" points="196.8956,404.4119,196.186,394.9278,190.7469,397.1563,196.8956,404.4119" style="stroke:#000000;stroke-width:1.0;"/><text fill="#000000" font-family="sans-serif" font-size="13" lengthAdjust="spacing" textLength="35" x="204" y="405.1045">in role</text><text fill="#000000" font-family="sans-serif" font-size="13" lengthAdjust="spacing" textLength="7" x="166.0302" y="382.2114">1</text><text fill="#000000" font-family="sans-serif" font-size="13" lengthAdjust="spacing" textLength="7" x="192.0476" y="427.8238">1</text></g><!--SRC=[ZLB1IiGm4BttAuOUbIwknnu4RNCexAeqMprAJCCII9EIJ44K_zr9Tgjh4TbJPjwyD_EI2Meq2Zg-leO2QZS8RM7hUcM0lKdbHuHC6X42L1hrkxBmaG5SoaFIz502Hw_jFllCZiH7PwWgXRdTAui7leZXAPimAmRrdxnrP2ofFKNdYIitZ8QkS1mhvtIXrbRgdXpL0cENZQDnCOwrCBqEEWJjx5_LNWNfzOXK_jKneC0f4FJjW2SaMbDs6fPuyiUxksspsx6Qukw-PkrBovuQzanfjNdWX9DwVlTydKDHG7wrMbta9nSj8Jd603VP3pgpwLZiemIlHkVFuAS5b40V8Yw0w5y0]--></g></svg>