<svg xmlns="http://www.w3.org/2000/svg" xmlns:xlink="http://www.w3.org/1999/xlink" contentStyleType="text/css" data-diagram-type="SEQUENCE" height="393px" preserveAspectRatio="none" style="width:434px;height:393px;background:#FFFFFF;" version="1.1" viewBox="0 0 434 393" width="434px" zoomAndPan="magnify"><defs/><g><g><title>Future User</title><rect fill="#FFFFFF" height="201.4839" style="stroke:#181818;stroke-width:1;" width="10" x="39.9551" y="92.1514"/></g><g><title>.System</title><rect fill="#FFFFFF" height="29.9263" style="stroke:#181818;stroke-width:1;" width="10" x="390.8501" y="114.0776"/></g><g><title>.System</title><rect fill="#FFFFFF" height="29.9263" style="stroke:#181818;stroke-width:1;" width="10" x="390.8501" y="173.9302"/></g><g><title>.System</title><rect fill="#FFFFFF" height="59.8525" style="stroke:#181818;stroke-width:1;" width="10" x="390.8501" y="233.7827"/></g><g><title>Future User</title><rect fill="#000000" fill-opacity="0.00000" height="229.4839" width="8" x="40.9551" y="82.1514"/><line style="stroke:#181818;stroke-width:0.5;stroke-dasharray:5,5;" x1="44" x2="44" y1="82.1514" y2="311.6353"/></g><g><title>.System</title><rect fill="#000000" fill-opacity="0.00000" height="229.4839" width="8" x="391.8501" y="82.1514"/><line style="stroke:#181818;stroke-width:0.5;stroke-dasharray:5,5;" x1="395.5674" x2="395.5674" y1="82.1514" y2="311.6353"/></g><g class="participant participant-head" data-participant="User"><text fill="#000000" font-family="sans-serif" font-size="14" lengthAdjust="spacing" textLength="73.9102" x="5" y="79.0752">Future User</text><ellipse cx="44.9551" cy="13.5" fill="#E3E3E3" rx="8" ry="8" style="stroke:#181818;stroke-width:0.5;"/><path d="M44.9551,21.5 L44.9551,48.5 M31.9551,29.5 L57.9551,29.5 M44.9551,48.5 L31.9551,63.5 M44.9551,48.5 L57.9551,63.5" fill="none" style="stroke:#181818;stroke-width:0.5;"/></g><g class="participant participant-tail" data-participant="User"><text fill="#000000" font-family="sans-serif" font-size="14" lengthAdjust="spacing" textLength="73.9102" x="5" y="324.7104">Future User</text><ellipse cx="44.9551" cy="336.2866" fill="#E3E3E3" rx="8" ry="8" style="stroke:#181818;stroke-width:0.5;"/><path d="M44.9551,344.2866 L44.9551,371.2866 M31.9551,352.2866 L57.9551,352.2866 M44.9551,371.2866 L31.9551,386.2866 M44.9551,371.2866 L57.9551,386.2866" fill="none" style="stroke:#181818;stroke-width:0.5;"/></g><g class="participant participant-head" data-participant="System"><rect fill="#E3E3E3" height="31.1514" rx="2.5" ry="2.5" style="stroke:#181818;stroke-width:0.5;" width="64.5654" x="363.5674" y="50"/><text fill="#000000" font-family="sans-serif" font-size="14" lengthAdjust="spacing" textLength="50.5654" x="370.5674" y="71.0752">:System</text></g><g class="participant participant-tail" data-participant="System"><rect fill="#E3E3E3" height="31.1514" rx="2.5" ry="2.5" style="stroke:#181818;stroke-width:0.5;" width="64.5654" x="363.5674" y="310.6353"/><text fill="#000000" font-family="sans-serif" font-size="14" lengthAdjust="spacing" textLength="50.5654" x="370.5674" y="331.7104">:System</text></g><g><title>Future User</title><rect fill="#FFFFFF" height="201.4839" style="stroke:#181818;stroke-width:1;" width="10" x="39.9551" y="92.1514"/></g><g><title>.System</title><rect fill="#FFFFFF" height="29.9263" style="stroke:#181818;stroke-width:1;" width="10" x="390.8501" y="114.0776"/></g><g><title>.System</title><rect fill="#FFFFFF" height="29.9263" style="stroke:#181818;stroke-width:1;" width="10" x="390.8501" y="173.9302"/></g><g><title>.System</title><rect fill="#FFFFFF" height="59.8525" style="stroke:#181818;stroke-width:1;" width="10" x="390.8501" y="233.7827"/></g><g class="message" data-participant-1="User" data-participant-2="System"><polygon fill="#181818" points="378.8501,110.0776,388.8501,114.0776,378.8501,118.0776,382.8501,114.0776" style="stroke:#181818;stroke-width:1;"/><line style="stroke:#181818;stroke-width:1;" x1="49.9551" x2="384.8501" y1="114.0776" y2="114.0776"/><text fill="#000000" font-family="sans-serif" font-size="13" font-weight="bold" lengthAdjust="spacing" textLength="7.23" x="56.9551" y="109.2212">1</text><text fill="#000000" font-family="sans-serif" font-size="13" lengthAdjust="spacing" textLength="174.1289" x="68.1851" y="109.2212">asks to register in the platform</text></g><g class="message" data-participant-1="System" data-participant-2="User"><polygon fill="#181818" points="60.9551,140.0039,50.9551,144.0039,60.9551,148.0039,56.9551,144.0039" style="stroke:#181818;stroke-width:1;"/><line style="stroke:#181818;stroke-width:1;stroke-dasharray:2,2;" x1="54.9551" x2="394.8501" y1="144.0039" y2="144.0039"/><text fill="#000000" font-family="sans-serif" font-size="13" font-weight="bold" lengthAdjust="spacing" textLength="7.23" x="66.9551" y="139.1475">2</text><text fill="#000000" font-family="sans-serif" font-size="13" lengthAdjust="spacing" textLength="272.4097" x="78.1851" y="139.1475">presents registration form and available role list</text></g><g class="message" data-participant-1="User" data-participant-2="System"><polygon fill="#181818" points="378.8501,169.9302,388.8501,173.9302,378.8501,177.9302,382.8501,173.9302" style="stroke:#181818;stroke-width:1;"/><line style="stroke:#181818;stroke-width:1;" x1="49.9551" x2="384.8501" y1="173.9302" y2="173.9302"/><text fill="#000000" font-family="sans-serif" font-size="13" font-weight="bold" lengthAdjust="spacing" textLength="7.23" x="56.9551" y="169.0737">3</text><text fill="#000000" font-family="sans-serif" font-size="13" lengthAdjust="spacing" textLength="176.3252" x="68.1851" y="169.0737">submits data and selected role</text></g><g class="message" data-participant-1="System" data-participant-2="User"><polygon fill="#181818" points="60.9551,199.8564,50.9551,203.8564,60.9551,207.8564,56.9551,203.8564" style="stroke:#181818;stroke-width:1;"/><line style="stroke:#181818;stroke-width:1;stroke-dasharray:2,2;" x1="54.9551" x2="394.8501" y1="203.8564" y2="203.8564"/><text fill="#000000" font-family="sans-serif" font-size="13" font-weight="bold" lengthAdjust="spacing" textLength="7.23" x="66.9551" y="199">4</text><text fill="#000000" font-family="sans-serif" font-size="13" lengthAdjust="spacing" textLength="276.7769" x="78.1851" y="199">displays entered data and requests confirmation</text></g><g class="message" data-participant-1="User" data-participant-2="System"><polygon fill="#181818" points="378.8501,229.7827,388.8501,233.7827,378.8501,237.7827,382.8501,233.7827" style="stroke:#181818;stroke-width:1;"/><line style="stroke:#181818;stroke-width:1;" x1="49.9551" x2="384.8501" y1="233.7827" y2="233.7827"/><text fill="#000000" font-family="sans-serif" font-size="13" font-weight="bold" lengthAdjust="spacing" textLength="7.23" x="56.9551" y="228.9263">5</text><text fill="#000000" font-family="sans-serif" font-size="13" lengthAdjust="spacing" textLength="185.6943" x="68.1851" y="228.9263">confirms the registration request</text></g><g class="message" data-participant-1="System" data-participant-2="User"><polygon fill="#181818" points="60.9551,259.709,50.9551,263.709,60.9551,267.709,56.9551,263.709" style="stroke:#181818;stroke-width:1;"/><line style="stroke:#181818;stroke-width:1;stroke-dasharray:2,2;" x1="54.9551" x2="389.8501" y1="263.709" y2="263.709"/><text fill="#000000" font-family="sans-serif" font-size="13" font-weight="bold" lengthAdjust="spacing" textLength="7.23" x="66.9551" y="258.8525">6</text><text fill="#000000" font-family="sans-serif" font-size="13" lengthAdjust="spacing" textLength="296.9624" x="78.1851" y="258.8525">informs that the request was successfully submitted</text></g><g class="message" data-participant-1="System" data-participant-2="User"><polygon fill="#181818" points="55.9551,289.6353,45.9551,293.6353,55.9551,297.6353,51.9551,293.6353" style="stroke:#181818;stroke-width:1;"/><line style="stroke:#181818;stroke-width:1;stroke-dasharray:2,2;" x1="49.9551" x2="394.8501" y1="293.6353" y2="293.6353"/><text fill="#000000" font-family="sans-serif" font-size="13" font-weight="bold" lengthAdjust="spacing" textLength="7.23" x="61.9551" y="288.7788">7</text><text fill="#000000" font-family="sans-serif" font-size="13" lengthAdjust="spacing" textLength="305.665" x="73.1851" y="288.7788">notifies that access is pending administrator approval</text></g><!--SRC=[bP9DRWCX38NtSmeh-rmWYovxWQW7SC0piS9ViKaqjw-7e2YjsafXWIpm-tWya0kdWXKZn9ooEzSS2RGsckInKz1TSA6Zhe6WabDCItXka3FwVEEqm8n1Q9gmQKujdgXQxJHNsBqtRPNWGwZk0AKNaycL7HTC2hl3SHMbs7VlPHVp5VMkcoQmiLMmVnijSB3sYu1cSxQmBLNW17ecA05rpZLsrGCqo336eEmDsC47A9M4aihWLLJE2JOGOFA0L-I0fos9R5EmbWxpzFE8tzrAEqKskaV53XGA5YdvpdlHgsUnMwu2PfYgCHxKIf-DnCvnESrSOx_5IqQ7K7gMtx8Ox1UzSjeot72eWzanSBFtbkOSYSmjX7L4P97yGqjPUMOQEEngO852oMyV4NtaTBTilmzBgVcAuQy0dfOs_XS0]--></g></svg>