<svg xmlns="http://www.w3.org/2000/svg" xmlns:xlink="http://www.w3.org/1999/xlink" contentStyleType="text/css" data-diagram-type="SEQUENCE" height="920px" preserveAspectRatio="none" style="width:378px;height:920px;background:#FFFFFF;" version="1.1" viewBox="0 0 378 920" width="378px" zoomAndPan="magnify"><defs/><g><g><title>Political</title><rect fill="#FFFFFF" height="697.4023" style="stroke:#181818;stroke-width:1;" width="10" x="42.1206" y="112.2422"/></g><g><title>.System</title><rect fill="#FFFFFF" height="31.291" style="stroke:#181818;stroke-width:1;" width="10" x="325.1548" y="135.5332"/></g><g><title>.System</title><rect fill="#FFFFFF" height="31.291" style="stroke:#181818;stroke-width:1;" width="10" x="325.1548" y="198.1152"/></g><g><title>.System</title><rect fill="#FFFFFF" height="31.291" style="stroke:#181818;stroke-width:1;" width="10" x="325.1548" y="286.9883"/></g><g><title>.System</title><rect fill="#FFFFFF" height="31.291" style="stroke:#181818;stroke-width:1;" width="10" x="325.1548" y="414.1523"/></g><g><title>.System</title><rect fill="#FFFFFF" height="31.291" style="stroke:#181818;stroke-width:1;" width="10" x="325.1548" y="541.3164"/></g><g><title>.System</title><rect fill="#FFFFFF" height="31.291" style="stroke:#181818;stroke-width:1;" width="10" x="325.1548" y="668.4805"/></g><g><title>.System</title><rect fill="#FFFFFF" height="31.291" style="stroke:#181818;stroke-width:1;" width="10" x="325.1548" y="769.3535"/></g><rect fill="none" height="81.873" style="stroke:#000000;stroke-width:1.5;" width="362.4375" x="10" y="244.4063"/><rect fill="none" height="81.873" style="stroke:#000000;stroke-width:1.5;" width="362.4375" x="10" y="371.5703"/><rect fill="none" height="81.873" style="stroke:#000000;stroke-width:1.5;" width="362.4375" x="10" y="498.7344"/><rect fill="none" height="81.873" style="stroke:#000000;stroke-width:1.5;" width="362.4375" x="10" y="625.8984"/><g><title>Political</title><rect fill="#000000" fill-opacity="0.00000" height="716.4023" width="8" x="43.1206" y="102.2422"/><line style="stroke:#181818;stroke-width:0.5;stroke-dasharray:5,5;" x1="47" x2="47" y1="102.2422" y2="818.6445"/></g><g><title>.System</title><rect fill="#000000" fill-opacity="0.00000" height="716.4023" width="8" x="326.1548" y="102.2422"/><line style="stroke:#181818;stroke-width:0.5;stroke-dasharray:5,5;" x1="329.8721" x2="329.8721" y1="102.2422" y2="818.6445"/></g><g class="participant participant-head" data-participant="PoliticalAgent"><text fill="#000000" font-family="sans-serif" font-size="14" lengthAdjust="spacing" textLength="48.2412" x="20" y="80.1074">Political</text><text fill="#000000" font-family="sans-serif" font-size="14" lengthAdjust="spacing" textLength="36.5859" x="25.8276" y="98.7285">Agent</text><ellipse cx="47.1206" cy="13.5" fill="#E3E3E3" rx="8" ry="8" style="stroke:#181818;stroke-width:0.5;"/><path d="M47.1206,21.5 L47.1206,48.5 M34.1206,29.5 L60.1206,29.5 M47.1206,48.5 L34.1206,63.5 M47.1206,48.5 L60.1206,63.5" fill="none" style="stroke:#181818;stroke-width:0.5;"/></g><g class="participant participant-tail" data-participant="PoliticalAgent"><text fill="#000000" font-family="sans-serif" font-size="14" lengthAdjust="spacing" textLength="48.2412" x="20" y="832.752">Political</text><text fill="#000000" font-family="sans-serif" font-size="14" lengthAdjust="spacing" textLength="36.5859" x="25.8276" y="851.373">Agent</text><ellipse cx="47.1206" cy="863.3867" fill="#E3E3E3" rx="8" ry="8" style="stroke:#181818;stroke-width:0.5;"/><path d="M47.1206,871.3867 L47.1206,898.3867 M34.1206,879.3867 L60.1206,879.3867 M47.1206,898.3867 L34.1206,913.3867 M47.1206,898.3867 L60.1206,913.3867" fill="none" style="stroke:#181818;stroke-width:0.5;"/></g><g class="participant participant-head" data-participant="System"><rect fill="#E3E3E3" height="32.6211" rx="2.5" ry="2.5" style="stroke:#181818;stroke-width:0.5;" width="64.5654" x="297.8721" y="68.6211"/><text fill="#000000" font-family="sans-serif" font-size="14" lengthAdjust="spacing" textLength="50.5654" x="304.8721" y="90.7285">:System</text></g><g class="participant participant-tail" data-participant="System"><rect fill="#E3E3E3" height="32.6211" rx="2.5" ry="2.5" style="stroke:#181818;stroke-width:0.5;" width="64.5654" x="297.8721" y="817.6445"/><text fill="#000000" font-family="sans-serif" font-size="14" lengthAdjust="spacing" textLength="50.5654" x="304.8721" y="839.752">:System</text></g><g><title>Political</title><rect fill="#FFFFFF" height="697.4023" style="stroke:#181818;stroke-width:1;" width="10" x="42.1206" y="112.2422"/></g><g><title>.System</title><rect fill="#FFFFFF" height="31.291" style="stroke:#181818;stroke-width:1;" width="10" x="325.1548" y="135.5332"/></g><g><title>.System</title><rect fill="#FFFFFF" height="31.291" style="stroke:#181818;stroke-width:1;" width="10" x="325.1548" y="198.1152"/></g><g><title>.System</title><rect fill="#FFFFFF" height="31.291" style="stroke:#181818;stroke-width:1;" width="10" x="325.1548" y="286.9883"/></g><g><title>.System</title><rect fill="#FFFFFF" height="31.291" style="stroke:#181818;stroke-width:1;" width="10" x="325.1548" y="414.1523"/></g><g><title>.System</title><rect fill="#FFFFFF" height="31.291" style="stroke:#181818;stroke-width:1;" width="10" x="325.1548" y="541.3164"/></g><g><title>.System</title><rect fill="#FFFFFF" height="31.291" style="stroke:#181818;stroke-width:1;" width="10" x="325.1548" y="668.4805"/></g><g><title>.System</title><rect fill="#FFFFFF" height="31.291" style="stroke:#181818;stroke-width:1;" width="10" x="325.1548" y="769.3535"/></g><g class="message" data-participant-1="PoliticalAgent" data-participant-2="System"><polygon fill="#181818" points="313.1548,131.5332,323.1548,135.5332,313.1548,139.5332,317.1548,135.5332" style="stroke:#181818;stroke-width:1;"/><line style="stroke:#181818;stroke-width:1;" x1="52.1206" x2="319.1548" y1="135.5332" y2="135.5332"/><text fill="#000000" font-family="sans-serif" font-size="13" font-weight="bold" lengthAdjust="spacing" textLength="7.23" x="59.1206" y="130.2705">1</text><text fill="#000000" font-family="sans-serif" font-size="13" lengthAdjust="spacing" textLength="161.1353" x="70.3506" y="130.2705">asks to submit a declaration</text></g><g class="message" data-participant-1="System" data-participant-2="PoliticalAgent"><polygon fill="#181818" points="63.1206,162.8242,53.1206,166.8242,63.1206,170.8242,59.1206,166.8242" style="stroke:#181818;stroke-width:1;"/><line style="stroke:#181818;stroke-width:1;stroke-dasharray:2,2;" x1="57.1206" x2="329.1548" y1="166.8242" y2="166.8242"/><text fill="#000000" font-family="sans-serif" font-size="13" font-weight="bold" lengthAdjust="spacing" textLength="7.23" x="69.1206" y="161.5615">2</text><text fill="#000000" font-family="sans-serif" font-size="13" lengthAdjust="spacing" textLength="145.2534" x="80.3506" y="161.5615">requests declaration type</text></g><g class="message" data-participant-1="PoliticalAgent" data-participant-2="System"><polygon fill="#181818" points="313.1548,194.1152,323.1548,198.1152,313.1548,202.1152,317.1548,198.1152" style="stroke:#181818;stroke-width:1;"/><line style="stroke:#181818;stroke-width:1;" x1="52.1206" x2="319.1548" y1="198.1152" y2="198.1152"/><text fill="#000000" font-family="sans-serif" font-size="13" font-weight="bold" lengthAdjust="spacing" textLength="7.23" x="59.1206" y="192.8525">3</text><text fill="#000000" font-family="sans-serif" font-size="13" lengthAdjust="spacing" textLength="135.8525" x="70.3506" y="192.8525">selects declaration type</text></g><g class="message" data-participant-1="System" data-participant-2="PoliticalAgent"><polygon fill="#181818" points="63.1206,225.4063,53.1206,229.4063,63.1206,233.4063,59.1206,229.4063" style="stroke:#181818;stroke-width:1;"/><line style="stroke:#181818;stroke-width:1;stroke-dasharray:2,2;" x1="57.1206" x2="329.1548" y1="229.4063" y2="229.4063"/><text fill="#000000" font-family="sans-serif" font-size="13" font-weight="bold" lengthAdjust="spacing" textLength="7.23" x="69.1206" y="224.1436">4</text><text fill="#000000" font-family="sans-serif" font-size="13" lengthAdjust="spacing" textLength="133.6943" x="80.3506" y="224.1436">requests positions data</text></g><path d="M10,244.4063 L82.4346,244.4063 L82.4346,253.6973 L72.4346,263.6973 L10,263.6973 L10,244.4063" fill="#EEEEEE" style="stroke:#000000;stroke-width:1.5;"/><rect fill="none" height="81.873" style="stroke:#000000;stroke-width:1.5;" width="362.4375" x="10" y="244.4063"/><text fill="#000000" font-family="sans-serif" font-size="13" font-weight="bold" lengthAdjust="spacing" textLength="27.4346" x="25" y="259.4346">loop</text><text fill="#000000" font-family="sans-serif" font-size="11" font-weight="bold" lengthAdjust="spacing" textLength="95.9438" x="97.4346" y="258.2764">[for each position]</text><g class="message" data-participant-1="PoliticalAgent" data-participant-2="System"><polygon fill="#181818" points="313.1548,282.9883,323.1548,286.9883,313.1548,290.9883,317.1548,286.9883" style="stroke:#181818;stroke-width:1;"/><line style="stroke:#181818;stroke-width:1;" x1="52.1206" x2="319.1548" y1="286.9883" y2="286.9883"/><text fill="#000000" font-family="sans-serif" font-size="13" font-weight="bold" lengthAdjust="spacing" textLength="7.23" x="59.1206" y="281.7256">5</text><text fill="#000000" font-family="sans-serif" font-size="13" lengthAdjust="spacing" textLength="113.4644" x="70.3506" y="281.7256">enters position data</text></g><g class="message" data-participant-1="System" data-participant-2="PoliticalAgent"><polygon fill="#181818" points="63.1206,314.2793,53.1206,318.2793,63.1206,322.2793,59.1206,318.2793" style="stroke:#181818;stroke-width:1;"/><line style="stroke:#181818;stroke-width:1;stroke-dasharray:2,2;" x1="57.1206" x2="329.1548" y1="318.2793" y2="318.2793"/><text fill="#000000" font-family="sans-serif" font-size="13" font-weight="bold" lengthAdjust="spacing" textLength="7.23" x="69.1206" y="313.0166">6</text><text fill="#000000" font-family="sans-serif" font-size="13" lengthAdjust="spacing" textLength="99.728" x="80.3506" y="313.0166">validates position</text></g><g class="message" data-participant-1="System" data-participant-2="PoliticalAgent"><polygon fill="#181818" points="63.1206,352.5703,53.1206,356.5703,63.1206,360.5703,59.1206,356.5703" style="stroke:#181818;stroke-width:1;"/><line style="stroke:#181818;stroke-width:1;stroke-dasharray:2,2;" x1="57.1206" x2="329.1548" y1="356.5703" y2="356.5703"/><text fill="#000000" font-family="sans-serif" font-size="13" font-weight="bold" lengthAdjust="spacing" textLength="7.23" x="69.1206" y="351.3076">7</text><text fill="#000000" font-family="sans-serif" font-size="13" lengthAdjust="spacing" textLength="136.5825" x="80.3506" y="351.3076">requests subsidies data</text></g><path d="M10,371.5703 L82.4346,371.5703 L82.4346,380.8613 L72.4346,390.8613 L10,390.8613 L10,371.5703" fill="#EEEEEE" style="stroke:#000000;stroke-width:1.5;"/><rect fill="none" height="81.873" style="stroke:#000000;stroke-width:1.5;" width="362.4375" x="10" y="371.5703"/><text fill="#000000" font-family="sans-serif" font-size="13" font-weight="bold" lengthAdjust="spacing" textLength="27.4346" x="25" y="386.5986">loop</text><text fill="#000000" font-family="sans-serif" font-size="11" font-weight="bold" lengthAdjust="spacing" textLength="94.7407" x="97.4346" y="385.4404">[for each subsidy]</text><g class="message" data-participant-1="PoliticalAgent" data-participant-2="System"><polygon fill="#181818" points="313.1548,410.1523,323.1548,414.1523,313.1548,418.1523,317.1548,414.1523" style="stroke:#181818;stroke-width:1;"/><line style="stroke:#181818;stroke-width:1;" x1="52.1206" x2="319.1548" y1="414.1523" y2="414.1523"/><text fill="#000000" font-family="sans-serif" font-size="13" font-weight="bold" lengthAdjust="spacing" textLength="7.23" x="59.1206" y="408.8896">8</text><text fill="#000000" font-family="sans-serif" font-size="13" lengthAdjust="spacing" textLength="112.7344" x="70.3506" y="408.8896">enters subsidy data</text></g><g class="message" data-participant-1="System" data-participant-2="PoliticalAgent"><polygon fill="#181818" points="63.1206,441.4434,53.1206,445.4434,63.1206,449.4434,59.1206,445.4434" style="stroke:#181818;stroke-width:1;"/><line style="stroke:#181818;stroke-width:1;stroke-dasharray:2,2;" x1="57.1206" x2="329.1548" y1="445.4434" y2="445.4434"/><text fill="#000000" font-family="sans-serif" font-size="13" font-weight="bold" lengthAdjust="spacing" textLength="7.23" x="69.1206" y="440.1807">9</text><text fill="#000000" font-family="sans-serif" font-size="13" lengthAdjust="spacing" textLength="98.998" x="80.3506" y="440.1807">validates subsidy</text></g><g class="message" data-participant-1="System" data-participant-2="PoliticalAgent"><polygon fill="#181818" points="63.1206,479.7344,53.1206,483.7344,63.1206,487.7344,59.1206,483.7344" style="stroke:#181818;stroke-width:1;"/><line style="stroke:#181818;stroke-width:1;stroke-dasharray:2,2;" x1="57.1206" x2="329.1548" y1="483.7344" y2="483.7344"/><text fill="#000000" font-family="sans-serif" font-size="13" font-weight="bold" lengthAdjust="spacing" textLength="14.46" x="69.1206" y="478.4717">10</text><text fill="#000000" font-family="sans-serif" font-size="13" lengthAdjust="spacing" textLength="119.958" x="87.5806" y="478.4717">requests assets data</text></g><path d="M10,498.7344 L82.4346,498.7344 L82.4346,508.0254 L72.4346,518.0254 L10,518.0254 L10,498.7344" fill="#EEEEEE" style="stroke:#000000;stroke-width:1.5;"/><rect fill="none" height="81.873" style="stroke:#000000;stroke-width:1.5;" width="362.4375" x="10" y="498.7344"/><text fill="#000000" font-family="sans-serif" font-size="13" font-weight="bold" lengthAdjust="spacing" textLength="27.4346" x="25" y="513.7627">loop</text><text fill="#000000" font-family="sans-serif" font-size="11" font-weight="bold" lengthAdjust="spacing" textLength="81.3076" x="97.4346" y="512.6045">[for each asset]</text><g class="message" data-participant-1="PoliticalAgent" data-participant-2="System"><polygon fill="#181818" points="313.1548,537.3164,323.1548,541.3164,313.1548,545.3164,317.1548,541.3164" style="stroke:#181818;stroke-width:1;"/><line style="stroke:#181818;stroke-width:1;" x1="52.1206" x2="319.1548" y1="541.3164" y2="541.3164"/><text fill="#000000" font-family="sans-serif" font-size="13" font-weight="bold" lengthAdjust="spacing" textLength="14.46" x="59.1206" y="536.0537">11</text><text fill="#000000" font-family="sans-serif" font-size="13" lengthAdjust="spacing" textLength="99.728" x="77.5806" y="536.0537">enters asset data</text></g><g class="message" data-participant-1="System" data-participant-2="PoliticalAgent"><polygon fill="#181818" points="63.1206,568.6074,53.1206,572.6074,63.1206,576.6074,59.1206,572.6074" style="stroke:#181818;stroke-width:1;"/><line style="stroke:#181818;stroke-width:1;stroke-dasharray:2,2;" x1="57.1206" x2="329.1548" y1="572.6074" y2="572.6074"/><text fill="#000000" font-family="sans-serif" font-size="13" font-weight="bold" lengthAdjust="spacing" textLength="14.46" x="69.1206" y="567.3447">12</text><text fill="#000000" font-family="sans-serif" font-size="13" lengthAdjust="spacing" textLength="85.9917" x="87.5806" y="567.3447">validates asset</text></g><g class="message" data-participant-1="System" data-participant-2="PoliticalAgent"><polygon fill="#181818" points="63.1206,606.8984,53.1206,610.8984,63.1206,614.8984,59.1206,610.8984" style="stroke:#181818;stroke-width:1;"/><line style="stroke:#181818;stroke-width:1;stroke-dasharray:2,2;" x1="57.1206" x2="329.1548" y1="610.8984" y2="610.8984"/><text fill="#000000" font-family="sans-serif" font-size="13" font-weight="bold" lengthAdjust="spacing" textLength="14.46" x="69.1206" y="605.6357">13</text><text fill="#000000" font-family="sans-serif" font-size="13" lengthAdjust="spacing" textLength="158.9834" x="87.5806" y="605.6357">requests participations data</text></g><path d="M10,625.8984 L82.4346,625.8984 L82.4346,635.1895 L72.4346,645.1895 L10,645.1895 L10,625.8984" fill="#EEEEEE" style="stroke:#000000;stroke-width:1.5;"/><rect fill="none" height="81.873" style="stroke:#000000;stroke-width:1.5;" width="362.4375" x="10" y="625.8984"/><text fill="#000000" font-family="sans-serif" font-size="13" font-weight="bold" lengthAdjust="spacing" textLength="27.4346" x="25" y="640.9268">loop</text><text fill="#000000" font-family="sans-serif" font-size="11" font-weight="bold" lengthAdjust="spacing" textLength="119.1792" x="97.4346" y="639.7686">[for each participation]</text><g class="message" data-participant-1="PoliticalAgent" data-participant-2="System"><polygon fill="#181818" points="313.1548,664.4805,323.1548,668.4805,313.1548,672.4805,317.1548,668.4805" style="stroke:#181818;stroke-width:1;"/><line style="stroke:#181818;stroke-width:1;" x1="52.1206" x2="319.1548" y1="668.4805" y2="668.4805"/><text fill="#000000" font-family="sans-serif" font-size="13" font-weight="bold" lengthAdjust="spacing" textLength="14.46" x="59.1206" y="663.2178">14</text><text fill="#000000" font-family="sans-serif" font-size="13" lengthAdjust="spacing" textLength="138.7534" x="77.5806" y="663.2178">enters participation data</text></g><g class="message" data-participant-1="System" data-participant-2="PoliticalAgent"><polygon fill="#181818" points="63.1206,695.7715,53.1206,699.7715,63.1206,703.7715,59.1206,699.7715" style="stroke:#181818;stroke-width:1;"/><line style="stroke:#181818;stroke-width:1;stroke-dasharray:2,2;" x1="57.1206" x2="329.1548" y1="699.7715" y2="699.7715"/><text fill="#000000" font-family="sans-serif" font-size="13" font-weight="bold" lengthAdjust="spacing" textLength="14.46" x="69.1206" y="694.5088">15</text><text fill="#000000" font-family="sans-serif" font-size="13" lengthAdjust="spacing" textLength="125.0171" x="87.5806" y="694.5088">validates participation</text></g><g class="message" data-participant-1="System" data-participant-2="PoliticalAgent"><polygon fill="#181818" points="63.1206,734.0625,53.1206,738.0625,63.1206,742.0625,59.1206,738.0625" style="stroke:#181818;stroke-width:1;"/><line style="stroke:#181818;stroke-width:1;stroke-dasharray:2,2;" x1="57.1206" x2="329.1548" y1="738.0625" y2="738.0625"/><text fill="#000000" font-family="sans-serif" font-size="13" font-weight="bold" lengthAdjust="spacing" textLength="14.46" x="69.1206" y="732.7998">16</text><text fill="#000000" font-family="sans-serif" font-size="13" lengthAdjust="spacing" textLength="235.5742" x="87.5806" y="732.7998">shows all data and requests confirmation</text></g><g class="message" data-participant-1="PoliticalAgent" data-participant-2="System"><polygon fill="#181818" points="313.1548,765.3535,323.1548,769.3535,313.1548,773.3535,317.1548,769.3535" style="stroke:#181818;stroke-width:1;"/><line style="stroke:#181818;stroke-width:1;" x1="52.1206" x2="319.1548" y1="769.3535" y2="769.3535"/><text fill="#000000" font-family="sans-serif" font-size="13" font-weight="bold" lengthAdjust="spacing" textLength="14.46" x="59.1206" y="764.0908">17</text><text fill="#000000" font-family="sans-serif" font-size="13" lengthAdjust="spacing" textLength="116.3271" x="77.5806" y="764.0908">confirms declaration</text></g><g class="message" data-participant-1="System" data-participant-2="PoliticalAgent"><polygon fill="#181818" points="63.1206,796.6445,53.1206,800.6445,63.1206,804.6445,59.1206,800.6445" style="stroke:#181818;stroke-width:1;"/><line style="stroke:#181818;stroke-width:1;stroke-dasharray:2,2;" x1="57.1206" x2="329.1548" y1="800.6445" y2="800.6445"/><text fill="#000000" font-family="sans-serif" font-size="13" font-weight="bold" lengthAdjust="spacing" textLength="14.46" x="69.1206" y="795.3818">18</text><text fill="#000000" font-family="sans-serif" font-size="13" lengthAdjust="spacing" textLength="155.3589" x="87.5806" y="795.3818">displays operation success</text></g><!--SRC=[hLH1ZeCm3Bpp2gltVg27bVO7A_Mw5pUu43KasTXinU_N1HOeHGYrvPJ4dl5COimNwoCchA0AFfWoXOf0KaqP3v68ve857QLn18cCe2_SD85BpCFL-WBEw9Yo36i9lgvEb7Hj92JOVGLdnHfqt_wp82yxG8RXi3tAb4rtDg8Ns1sE3GjLRLwtRBdiBmhDWTdz7lOVFGGE2hymI02kJvKLGCZ9E9KjDlYHyBz23zihmuppeDP_QcBXAGD84odBwO5eHH6JqqjSe7bEJGniRnnAY89BMbm84Sxw2XegX_mCz5kHgNjA8tt7ViFC-MzdQqf_qLa54z-NVXHAFj_eMH-JRMwfzpnps4MRZGRxx7VucnP-nHuoaonxQqCRdRMvx_0r5dt5rV1xJxfrtflJbAqDEiMyfKiVH3pXcijmrOjphbK4wFFn8apmPvkgZdzjKlI9_FpCoYr7Xmr3YDIF6gwD8UQ5GV47]--></g></svg>