<?xml version="1.0" encoding="us-ascii" standalone="no"?><svg xmlns="http://www.w3.org/2000/svg" xmlns:xlink="http://www.w3.org/1999/xlink" contentStyleType="text/css" height="714px" preserveAspectRatio="none" style="width:374px;height:714px;background:#FFFFFF;" version="1.1" viewBox="0 0 374 714" width="374px" zoomAndPan="magnify"><defs/><g><!--class User--><g id="elem_User"><rect codeLine="8" fill="#F1F1F1" height="88.4375" id="User" rx="2.5" ry="2.5" style="stroke:#181818;stroke-width:0.5;" width="47" x="223" y="7"/><text fill="#000000" font-family="sans-serif" font-size="14" lengthAdjust="spacing" textLength="29" x="232" y="26.5332">User</text><line style="stroke:#181818;stroke-width:0.5;" x1="224" x2="269" y1="34.6094" y2="34.6094"/><text fill="#000000" font-family="sans-serif" font-size="14" lengthAdjust="spacing" textLength="35" x="229" y="53.1426">name</text><text fill="#000000" font-family="sans-serif" font-size="14" lengthAdjust="spacing" textLength="33" x="229" y="70.752">email</text><text fill="#000000" font-family="sans-serif" font-size="14" lengthAdjust="spacing" textLength="24" x="229" y="88.3613">role</text></g><!--class PoliticalAgent--><g id="elem_PoliticalAgent"><rect codeLine="14" fill="#F1F1F1" height="70.8281" id="PoliticalAgent" rx="2.5" ry="2.5" style="stroke:#181818;stroke-width:0.5;" width="91" x="62" y="339"/><text fill="#000000" font-family="sans-serif" font-size="14" lengthAdjust="spacing" textLength="85" x="65" y="358.5332">PoliticalAgent</text><line style="stroke:#181818;stroke-width:0.5;" x1="63" x2="152" y1="366.6094" y2="366.6094"/><text fill="#000000" font-family="sans-serif" font-size="14" lengthAdjust="spacing" textLength="35" x="68" y="385.1426">name</text><text fill="#000000" font-family="sans-serif" font-size="14" lengthAdjust="spacing" textLength="33" x="68" y="402.752">email</text></g><!--class AssetsSnapshot--><g id="elem_AssetsSnapshot"><rect codeLine="19" fill="#F1F1F1" height="53.2188" id="AssetsSnapshot" rx="2.5" ry="2.5" style="stroke:#181818;stroke-width:0.5;" width="108" x="138.5" y="173"/><text fill="#000000" font-family="sans-serif" font-size="14" lengthAdjust="spacing" textLength="102" x="141.5" y="192.5332">AssetsSnapshot</text><line style="stroke:#181818;stroke-width:0.5;" x1="139.5" x2="245.5" y1="200.6094" y2="200.6094"/><text fill="#000000" font-family="sans-serif" font-size="14" lengthAdjust="spacing" textLength="91" x="144.5" y="219.1426">referenceDate</text></g><!--class DeclarationOfInterests--><g id="elem_DeclarationOfInterests"><rect codeLine="23" fill="#F1F1F1" height="70.8281" id="DeclarationOfInterests" rx="2.5" ry="2.5" style="stroke:#181818;stroke-width:0.5;" width="147" x="7" y="488"/><text fill="#000000" font-family="sans-serif" font-size="14" lengthAdjust="spacing" textLength="141" x="10" y="507.5332">DeclarationOfInterests</text><line style="stroke:#181818;stroke-width:0.5;" x1="8" x2="153" y1="515.6094" y2="515.6094"/><text fill="#000000" font-family="sans-serif" font-size="14" lengthAdjust="spacing" textLength="100" x="13" y="534.1426">submissionDate</text><text fill="#000000" font-family="sans-serif" font-size="14" lengthAdjust="spacing" textLength="27" x="13" y="551.752">type</text></g><!--class Asset--><g id="elem_Asset"><rect codeLine="28" fill="#F1F1F1" height="70.8281" id="Asset" rx="2.5" ry="2.5" style="stroke:#181818;stroke-width:0.5;" width="109" x="153" y="637"/><text fill="#000000" font-family="sans-serif" font-size="14" lengthAdjust="spacing" textLength="35" x="190" y="656.5332">Asset</text><line style="stroke:#181818;stroke-width:0.5;" x1="154" x2="261" y1="664.6094" y2="664.6094"/><text fill="#000000" font-family="sans-serif" font-size="14" lengthAdjust="spacing" textLength="27" x="159" y="683.1426">type</text><text fill="#000000" font-family="sans-serif" font-size="14" lengthAdjust="spacing" textLength="97" x="159" y="700.752">estimatedValue</text></g><!--class SensitiveDataPolicy--><g id="elem_SensitiveDataPolicy"><rect codeLine="33" fill="#F1F1F1" height="53.2188" id="SensitiveDataPolicy" rx="2.5" ry="2.5" style="stroke:#181818;stroke-width:0.5;" width="130" x="234.5" y="256"/><text fill="#000000" font-family="sans-serif" font-size="14" lengthAdjust="spacing" textLength="124" x="237.5" y="275.5332">SensitiveDataPolicy</text><line style="stroke:#181818;stroke-width:0.5;" x1="235.5" x2="363.5" y1="283.6094" y2="283.6094"/><text fill="#000000" font-family="sans-serif" font-size="14" lengthAdjust="spacing" textLength="86" x="240.5" y="302.1426">maskingLevel</text></g><!--link User to AssetsSnapshot--><g id="link_User_AssetsSnapshot"><path codeLine="37" d="M222.83,75.73 C211.27,89.01 198.57,106.58 192.5,125 C187.47,140.27 187.39,158.31 188.61,172.7 " fill="none" id="User-AssetsSnapshot" style="stroke:#181818;stroke-width:1.0;"/><polygon fill="#000000" points="195.8361,138.8908,201.6175,131.3393,196.0747,129.3832,195.8361,138.8908" style="stroke:#000000;stroke-width:1.0;"/><text fill="#000000" font-family="sans-serif" font-size="13" lengthAdjust="spacing" textLength="49" x="206.5" y="139.4951">consults</text><text fill="#000000" font-family="sans-serif" font-size="13" lengthAdjust="spacing" textLength="7" x="207.8488" y="78.1269">1</text><text fill="#000000" font-family="sans-serif" font-size="13" lengthAdjust="spacing" textLength="20" x="165.3979" y="162.163">0..*</text></g><!--link AssetsSnapshot to PoliticalAgent--><g id="link_AssetsSnapshot_PoliticalAgent"><path codeLine="38" d="M146.78,226.2 C136.15,234.35 126.04,244.34 119.5,256 C105.35,281.22 103.15,314.3 104.02,338.93 " fill="none" id="AssetsSnapshot-PoliticalAgent" style="stroke:#181818;stroke-width:1.0;"/><polygon fill="#000000" points="122.7267,287.3508,128.6825,279.936,123.1867,277.8513,122.7267,287.3508" style="stroke:#000000;stroke-width:1.0;"/><text fill="#000000" font-family="sans-serif" font-size="13" lengthAdjust="spacing" textLength="47" x="133.5" y="287.9951">refers to</text><text fill="#000000" font-family="sans-serif" font-size="13" lengthAdjust="spacing" textLength="7" x="128.3979" y="247.7348">1</text><text fill="#000000" font-family="sans-serif" font-size="13" lengthAdjust="spacing" textLength="7" x="95.6894" y="328.1695">1</text></g><!--link AssetsSnapshot to Asset--><g id="link_AssetsSnapshot_Asset"><path codeLine="39" d="M193.32,226.16 C195.84,305.44 203.52,546.59 206.4,636.88 " fill="none" id="AssetsSnapshot-Asset" style="stroke:#181818;stroke-width:1.0;"/><polygon fill="#000000" points="206.6592,454.1732,209.3087,445.0392,203.4338,445.2263,206.6592,454.1732" style="stroke:#000000;stroke-width:1.0;"/><text fill="#000000" font-family="sans-serif" font-size="13" lengthAdjust="spacing" textLength="37" x="215.5" y="454.4951">shows</text><text fill="#000000" font-family="sans-serif" font-size="13" lengthAdjust="spacing" textLength="7" x="185.7002" y="247.6856">1</text><text fill="#000000" font-family="sans-serif" font-size="13" lengthAdjust="spacing" textLength="20" x="184.2841" y="626.1099">0..*</text></g><!--link PoliticalAgent to DeclarationOfInterests--><g id="link_PoliticalAgent_DeclarationOfInterests"><path codeLine="41" d="M101.1,410.34 C96.8,433.77 91.15,464.53 86.85,487.91 " fill="none" id="PoliticalAgent-DeclarationOfInterests" style="stroke:#181818;stroke-width:1.0;"/><polygon fill="#000000" points="100.5966,454.0935,105.1214,445.7283,99.3403,444.6663,100.5966,454.0935" style="stroke:#000000;stroke-width:1.0;"/><text fill="#000000" font-family="sans-serif" font-size="13" lengthAdjust="spacing" textLength="46" x="110.5" y="454.4951">submits</text><text fill="#000000" font-family="sans-serif" font-size="13" lengthAdjust="spacing" textLength="7" x="92.3984" y="431.4151">1</text><text fill="#000000" font-family="sans-serif" font-size="13" lengthAdjust="spacing" textLength="20" x="66.1542" y="477.1457">0..*</text></g><!--link DeclarationOfInterests to Asset--><g id="link_DeclarationOfInterests_Asset"><path codeLine="42" d="M91.91,559.26 C98.15,574.92 106.99,592.99 118.5,607 C128.19,618.8 140.51,629.52 152.88,638.69 " fill="none" id="DeclarationOfInterests-Asset" style="stroke:#181818;stroke-width:1.0;"/><polygon fill="#000000" points="126.5445,602.142,123.3683,593.1775,118.7057,596.7565,126.5445,602.142" style="stroke:#000000;stroke-width:1.0;"/><text fill="#000000" font-family="sans-serif" font-size="13" lengthAdjust="spacing" textLength="48" x="132.5" y="603.4951">includes</text><text fill="#000000" font-family="sans-serif" font-size="13" lengthAdjust="spacing" textLength="7" x="86.2695" y="580.3214">1</text><text fill="#000000" font-family="sans-serif" font-size="13" lengthAdjust="spacing" textLength="20" x="125.0044" y="631.1214">0..*</text></g><!--link User to SensitiveDataPolicy--><g id="link_User_SensitiveDataPolicy"><path codeLine="44" d="M256.47,95.17 C267.41,142.56 284.62,217.08 293.6,255.96 " fill="none" id="User-SensitiveDataPolicy" style="stroke:#181818;stroke-width:1.0;"/><polygon fill="#000000" points="273.625,139.0476,274.4534,129.5732,268.7263,130.8957,273.625,139.0476" style="stroke:#000000;stroke-width:1.0;"/><text fill="#000000" font-family="sans-serif" font-size="13" lengthAdjust="spacing" textLength="85" x="281.5" y="139.4951">constrained by</text><text fill="#000000" font-family="sans-serif" font-size="13" lengthAdjust="spacing" textLength="7" x="250.5012" y="116.9729">1</text><text fill="#000000" font-family="sans-serif" font-size="13" lengthAdjust="spacing" textLength="7" x="284.3088" y="245.0522">1</text></g><!--link SensitiveDataPolicy to Asset--><g id="link_SensitiveDataPolicy_Asset"><path codeLine="45" d="M295.91,309.06 C287.8,364.23 266.19,498.32 233.5,607 C230.54,616.83 226.68,627.24 222.85,636.76 " fill="none" id="SensitiveDataPolicy-Asset" style="stroke:#181818;stroke-width:1.0;"/><polygon fill="#000000" points="278.412,454.056,283.2487,445.8672,277.5117,444.5881,278.412,454.056" style="stroke:#000000;stroke-width:1.0;"/><text fill="#000000" font-family="sans-serif" font-size="13" lengthAdjust="spacing" textLength="39" x="288.5" y="454.4951">masks</text><text fill="#000000" font-family="sans-serif" font-size="13" lengthAdjust="spacing" textLength="7" x="287.2704" y="330.5625">1</text><text fill="#000000" font-family="sans-serif" font-size="13" lengthAdjust="spacing" textLength="20" x="227.5239" y="626.2388">0..*</text></g><!--SRC=[TL3BQiD03BpxAnOV2mdfDOT289T0eGNJtfMrOY_PXrd92MxflrUxUU0OPoyIEpCQQUXeV0SHd7B11zt6u51nxB6WEzA1FaA35GyMLKJDu1ix9b0BTJWRtwW3M1eZsWBHXZcQVS-uqy5NvWVLgcXDZKgRg6LGxXro6segYYnHNuHH_HPAdWU7kK47nkOk1f7ztRYVmHes6kocGS_pgZjvGuHCbOUEsd0ZHpnWHAzn2pmQl4Mf4TW4_t7OUHOECLqrrE-T8H8iYz8N3nrEdAxaZEHjY8qJVlqDjX-HA_GaHvpI1f0EqiDLwY35sRpZ2VCPEPdojLIBXIfNo-LBERrfhIHdwgsi-bPCi9jGoYIszIK5KXoUoqP-8X3ed3oAoQX7zfCKrvS4yv9FAFEknclRrvYD7yAGCXVZ9GwEO3pMQZ-8ReusRvRIJqx_]--></g></svg>