<?xml version="1.0" encoding="us-ascii" standalone="no"?><svg xmlns="http://www.w3.org/2000/svg" xmlns:xlink="http://www.w3.org/1999/xlink" contentStyleType="text/css" height="972px" preserveAspectRatio="none" style="width:587px;height:972px;background:#FFFFFF;" version="1.1" viewBox="0 0 587 972" width="587px" zoomAndPan="magnify"><defs/><g><!--class Person--><g id="elem_Person"><rect codeLine="8" fill="#F1F1F1" height="106.0469" id="Person" rx="2.5" ry="2.5" style="stroke:#181818;stroke-width:0.5;" width="72" x="355" y="7"/><text fill="#000000" font-family="sans-serif" font-size="14" font-style="italic" lengthAdjust="spacing" textLength="45" x="368.5" y="26.5332">Person</text><line style="stroke:#181818;stroke-width:0.5;" x1="356" x2="426" y1="34.6094" y2="34.6094"/><text fill="#000000" font-family="sans-serif" font-size="14" lengthAdjust="spacing" textLength="35" x="361" y="53.1426">name</text><text fill="#000000" font-family="sans-serif" font-size="14" lengthAdjust="spacing" textLength="29" x="361" y="70.752">taxId</text><text fill="#000000" font-family="sans-serif" font-size="14" lengthAdjust="spacing" textLength="33" x="361" y="88.3613">email</text><text fill="#000000" font-family="sans-serif" font-size="14" lengthAdjust="spacing" textLength="60" x="361" y="105.9707">password</text></g><!--class Citizen--><g id="elem_Citizen"><rect codeLine="15" fill="#F1F1F1" height="35.6094" id="Citizen" rx="2.5" ry="2.5" style="stroke:#181818;stroke-width:0.5;" width="48" x="7" y="182.5"/><text fill="#000000" font-family="sans-serif" font-size="14" lengthAdjust="spacing" textLength="42" x="10" y="202.0332">Citizen</text><line style="stroke:#181818;stroke-width:0.5;" x1="8" x2="54" y1="210.1094" y2="210.1094"/></g><!--class Journalist--><g id="elem_Journalist"><rect codeLine="18" fill="#F1F1F1" height="53.2188" id="Journalist" rx="2.5" ry="2.5" style="stroke:#181818;stroke-width:0.5;" width="127" x="327.5" y="174"/><text fill="#000000" font-family="sans-serif" font-size="14" lengthAdjust="spacing" textLength="60" x="361" y="193.5332">Journalist</text><line style="stroke:#181818;stroke-width:0.5;" x1="328.5" x2="453.5" y1="201.6094" y2="201.6094"/><text fill="#000000" font-family="sans-serif" font-size="14" lengthAdjust="spacing" textLength="115" x="333.5" y="220.1426">pressCardNumber</text></g><!--class PoliticalAgent--><g id="elem_PoliticalAgent"><rect codeLine="22" fill="#F1F1F1" height="35.6094" id="PoliticalAgent" rx="2.5" ry="2.5" style="stroke:#181818;stroke-width:0.5;" width="91" x="489.5" y="182.5"/><text fill="#000000" font-family="sans-serif" font-size="14" lengthAdjust="spacing" textLength="85" x="492.5" y="202.0332">PoliticalAgent</text><line style="stroke:#181818;stroke-width:0.5;" x1="490.5" x2="579.5" y1="210.1094" y2="210.1094"/></g><!--class Declaration--><g id="elem_Declaration"><rect codeLine="25" fill="#F1F1F1" height="70.8281" id="Declaration" rx="2.5" ry="2.5" style="stroke:#181818;stroke-width:0.5;" width="112" x="335" y="305"/><text fill="#000000" font-family="sans-serif" font-size="14" lengthAdjust="spacing" textLength="72" x="355" y="324.5332">Declaration</text><line style="stroke:#181818;stroke-width:0.5;" x1="336" x2="446" y1="332.6094" y2="332.6094"/><text fill="#000000" font-family="sans-serif" font-size="14" lengthAdjust="spacing" textLength="100" x="341" y="351.1426">submissionDate</text><text fill="#000000" font-family="sans-serif" font-size="14" lengthAdjust="spacing" textLength="95" x="341" y="368.752">declarantName</text></g><!--class Section--><g id="elem_Section"><rect codeLine="30" fill="#F1F1F1" height="35.6094" id="Section" rx="2.5" ry="2.5" style="stroke:#181818;stroke-width:0.5;" width="53" x="364.5" y="437"/><text fill="#000000" font-family="sans-serif" font-size="14" font-style="italic" lengthAdjust="spacing" textLength="47" x="367.5" y="456.5332">Section</text><line style="stroke:#181818;stroke-width:0.5;" x1="365.5" x2="416.5" y1="464.6094" y2="464.6094"/></g><!--class AssetSection--><g id="elem_AssetSection"><rect codeLine="33" fill="#F1F1F1" height="35.6094" id="AssetSection" rx="2.5" ry="2.5" style="stroke:#181818;stroke-width:0.5;" width="88" x="347" y="534"/><text fill="#000000" font-family="sans-serif" font-size="14" lengthAdjust="spacing" textLength="82" x="350" y="553.5332">AssetSection</text><line style="stroke:#181818;stroke-width:0.5;" x1="348" x2="434" y1="561.6094" y2="561.6094"/></g><!--class Field--><g id="elem_Field"><rect codeLine="36" fill="#F1F1F1" height="35.6094" id="Field" rx="2.5" ry="2.5" style="stroke:#181818;stroke-width:0.5;" width="37" x="274.5" y="534"/><text fill="#000000" font-family="sans-serif" font-size="14" font-style="italic" lengthAdjust="spacing" textLength="31" x="277.5" y="553.5332">Field</text><line style="stroke:#181818;stroke-width:0.5;" x1="275.5" x2="310.5" y1="561.6094" y2="561.6094"/></g><!--class AssetField--><g id="elem_AssetField"><rect codeLine="39" fill="#F1F1F1" height="35.6094" id="AssetField" rx="2.5" ry="2.5" style="stroke:#181818;stroke-width:0.5;" width="72" x="277" y="631"/><text fill="#000000" font-family="sans-serif" font-size="14" lengthAdjust="spacing" textLength="66" x="280" y="650.5332">AssetField</text><line style="stroke:#181818;stroke-width:0.5;" x1="278" x2="348" y1="658.6094" y2="658.6094"/></g><!--class Property--><g id="elem_Property"><rect codeLine="42" fill="#F1F1F1" height="70.8281" id="Property" rx="2.5" ry="2.5" style="stroke:#181818;stroke-width:0.5;" width="115" x="255.5" y="728"/><text fill="#000000" font-family="sans-serif" font-size="14" lengthAdjust="spacing" textLength="54" x="286" y="747.5332">Property</text><line style="stroke:#181818;stroke-width:0.5;" x1="256.5" x2="369.5" y1="755.6094" y2="755.6094"/><text fill="#000000" font-family="sans-serif" font-size="14" lengthAdjust="spacing" textLength="103" x="261.5" y="774.1426">acquisitionValue</text><text fill="#000000" font-family="sans-serif" font-size="14" lengthAdjust="spacing" textLength="79" x="261.5" y="791.752">marketValue</text></g><!--class PropertyType--><g id="elem_PropertyType"><rect codeLine="47" fill="#F1F1F1" height="70.8281" id="PropertyType" rx="2.5" ry="2.5" style="stroke:#181818;stroke-width:0.5;" width="92" x="205" y="885.5"/><text fill="#000000" font-family="sans-serif" font-size="14" lengthAdjust="spacing" textLength="86" x="208" y="905.0332">PropertyType</text><line style="stroke:#181818;stroke-width:0.5;" x1="206" x2="296" y1="913.1094" y2="913.1094"/><text fill="#000000" font-family="sans-serif" font-size="14" lengthAdjust="spacing" textLength="46" x="211" y="931.6426">URBAN</text><text fill="#000000" font-family="sans-serif" font-size="14" lengthAdjust="spacing" textLength="46" x="211" y="949.252">RURAL</text></g><!--class Location--><g id="elem_Location"><rect codeLine="52" fill="#F1F1F1" height="88.4375" id="Location" rx="2.5" ry="2.5" style="stroke:#181818;stroke-width:0.5;" width="85" x="332.5" y="877"/><text fill="#000000" font-family="sans-serif" font-size="14" lengthAdjust="spacing" textLength="54" x="348" y="896.5332">Location</text><line style="stroke:#181818;stroke-width:0.5;" x1="333.5" x2="416.5" y1="904.6094" y2="904.6094"/><text fill="#000000" font-family="sans-serif" font-size="14" lengthAdjust="spacing" textLength="39" x="338.5" y="923.1426">parish</text><text fill="#000000" font-family="sans-serif" font-size="14" lengthAdjust="spacing" textLength="73" x="338.5" y="940.752">municipality</text><text fill="#000000" font-family="sans-serif" font-size="14" lengthAdjust="spacing" textLength="41" x="338.5" y="958.3613">district</text></g><g id="elem_GMN27"><path d="M90,179 L90,196.5 L55.06,200.5 L90,204.5 L90,221.7031 A0,0 0 0 0 90,221.7031 L292,221.7031 A0,0 0 0 0 292,221.7031 L292,189 L282,179 L90,179 A0,0 0 0 0 90,179 " fill="#FAFAFA" style="stroke:#181818;stroke-width:0.5;"/><path d="M282,179 L282,189 L292,189 L282,179 " fill="#FAFAFA" style="stroke:#181818;stroke-width:0.5;"/><text fill="#000000" font-family="sans-serif" font-size="13" lengthAdjust="spacing" textLength="178" x="96" y="197.4951">Displayed asset data is filtered</text><text fill="#000000" font-family="sans-serif" font-size="13" lengthAdjust="spacing" textLength="181" x="96" y="213.8467">according to role visibility rules.</text></g><!--reverse link Person to Citizen--><g id="link_Person_Citizen"><path codeLine="58" d="M337.2804,76.0722 C276.9504,93.4122 170.48,126.62 72,174 C66.41,176.69 60.63,179.95 55.23,183.24 " fill="none" id="Person-backto-Citizen" style="stroke:#181818;stroke-width:1.0;"/><polygon fill="none" points="354.58,71.1,335.623,70.3057,338.9378,81.8388,354.58,71.1" style="stroke:#181818;stroke-width:1.0;"/></g><!--reverse link Person to Journalist--><g id="link_Person_Journalist"><path codeLine="59" d="M391,131.36 C391,152.04 391,156.87 391,173.82 " fill="none" id="Person-backto-Journalist" style="stroke:#181818;stroke-width:1.0;"/><polygon fill="none" points="391,113.36,385,131.36,397,131.36,391,113.36" style="stroke:#181818;stroke-width:1.0;"/></g><!--reverse link Person to PoliticalAgent--><g id="link_Person_PoliticalAgent"><path codeLine="60" d="M440.3122,108.4289 C468.9722,135.9989 494.75,160.78 517.09,182.27 " fill="none" id="Person-backto-PoliticalAgent" style="stroke:#181818;stroke-width:1.0;"/><polygon fill="none" points="427.34,95.95,436.1526,112.7529,444.4718,104.1048,427.34,95.95" style="stroke:#181818;stroke-width:1.0;"/></g><!--reverse link Section to AssetSection--><g id="link_Section_AssetSection"><path codeLine="62" d="M391,491.42 C391,508.57 391,516.58 391,533.69 " fill="none" id="Section-backto-AssetSection" style="stroke:#181818;stroke-width:1.0;"/><polygon fill="none" points="391,473.42,385,491.42,397,491.42,391,473.42" style="stroke:#181818;stroke-width:1.0;"/></g><!--reverse link Field to AssetField--><g id="link_Field_AssetField"><path codeLine="63" d="M300.3777,588.034 C303.9877,605.184 305.75,613.58 309.35,630.69 " fill="none" id="Field-backto-AssetField" style="stroke:#181818;stroke-width:1.0;"/><polygon fill="none" points="296.67,570.42,294.5063,589.2699,306.249,586.7981,296.67,570.42" style="stroke:#181818;stroke-width:1.0;"/></g><!--link PoliticalAgent to Declaration--><g id="link_PoliticalAgent_Declaration"><path codeLine="65" d="M518.72,218.74 C504.33,233.84 482.62,256.23 463,275 C452.69,284.86 441.29,295.28 430.66,304.81 " fill="none" id="PoliticalAgent-Declaration" style="stroke:#181818;stroke-width:1.0;"/><polygon fill="#000000" points="483.4243,269.6707,491.9471,265.4501,487.8386,261.2466,483.4243,269.6707" style="stroke:#000000;stroke-width:1.0;"/><text fill="#000000" font-family="sans-serif" font-size="13" lengthAdjust="spacing" textLength="46" x="496" y="271.4951">submits</text><text fill="#000000" font-family="sans-serif" font-size="13" lengthAdjust="spacing" textLength="7" x="506.1569" y="239.7195">1</text><text fill="#000000" font-family="sans-serif" font-size="13" lengthAdjust="spacing" textLength="20" x="416.3139" y="294.0266">0..*</text></g><!--reverse link Declaration to Section--><g id="link_Declaration_Section"><path codeLine="66" d="M391,388.17 C391,408.31 391,420.81 391,436.87 " fill="none" id="Declaration-backto-Section" style="stroke:#181818;stroke-width:1.0;"/><polygon fill="#181818" points="391,376.17,387,382.17,391,388.17,395,382.17,391,376.17" style="stroke:#181818;stroke-width:1.0;"/><text fill="#000000" font-family="sans-serif" font-size="13" lengthAdjust="spacing" textLength="7" x="382.8844" y="426.1545">4</text></g><!--reverse link AssetSection to AssetField--><g id="link_AssetSection_AssetField"><path codeLine="67" d="M369.0788,579.6974 C355.0088,596.8474 341.26,613.58 327.22,630.69 " fill="none" id="AssetSection-backto-AssetField" style="stroke:#181818;stroke-width:1.0;"/><polygon fill="#181818" points="376.69,570.42,369.7919,572.5216,369.0788,579.6974,375.9768,577.5958,376.69,570.42" style="stroke:#181818;stroke-width:1.0;"/><text fill="#000000" font-family="sans-serif" font-size="13" lengthAdjust="spacing" textLength="5" x="325.8093" y="620.2413">*</text></g><!--reverse link AssetField to Property--><g id="link_AssetField_Property"><path codeLine="68" d="M313,679.09 C313,695.19 313,707.8 313,727.99 " fill="none" id="AssetField-backto-Property" style="stroke:#181818;stroke-width:1.0;"/><polygon fill="#181818" points="313,667.09,309,673.09,313,679.09,317,673.09,313,667.09" style="stroke:#181818;stroke-width:1.0;"/><text fill="#000000" font-family="sans-serif" font-size="13" lengthAdjust="spacing" textLength="7" x="305.3328" y="717.2409">1</text></g><!--link Property to PropertyType--><g id="link_Property_PropertyType"><path codeLine="69" d="M299.24,799.01 C289,824.69 277.3012,854.0263 267.0512,879.7463 " fill="none" id="Property-to-PropertyType" style="stroke:#181818;stroke-width:1.0;"/><polygon fill="#181818" points="264.83,885.32,271.8777,878.4403,266.681,880.6753,264.4461,875.4786,264.83,885.32" style="stroke:#181818;stroke-width:1.0;"/><text fill="#000000" font-family="sans-serif" font-size="13" lengthAdjust="spacing" textLength="7" x="259.7992" y="874.5385">1</text></g><!--link Property to Location--><g id="link_Property_Location"><path codeLine="70" d="M326.76,799.01 C335.93,822.01 348.05,852.4 357.84,876.97 " fill="none" id="Property-Location" style="stroke:#181818;stroke-width:1.0;"/><polygon fill="#000000" points="352.8516,842.8203,352.232,833.3299,346.772,835.5066,352.8516,842.8203" style="stroke:#000000;stroke-width:1.0;"/><text fill="#000000" font-family="sans-serif" font-size="13" lengthAdjust="spacing" textLength="56" x="360" y="843.4951">located in</text><text fill="#000000" font-family="sans-serif" font-size="13" lengthAdjust="spacing" textLength="7" x="321.5876" y="820.302">1</text><text fill="#000000" font-family="sans-serif" font-size="13" lengthAdjust="spacing" textLength="7" x="347.5473" y="866.166">1</text></g><!--link Citizen to Declaration--><g id="link_Citizen_Declaration"><path codeLine="72" d="M55.22,217.77 C60.62,221.05 66.41,224.31 72,227 C160.67,269.58 269.87,304.6 334.78,323.73 " fill="none" id="Citizen-Declaration" style="stroke:#181818;stroke-width:1.0;"/><polygon fill="#000000" points="193.6754,267.9479,186.2591,261.994,184.1759,267.4903,193.6754,267.9479" style="stroke:#000000;stroke-width:1.0;"/><text fill="#000000" font-family="sans-serif" font-size="13" lengthAdjust="spacing" textLength="49" x="198" y="271.4951">consults</text><text fill="#000000" font-family="sans-serif" font-size="13" lengthAdjust="spacing" textLength="7" x="63.0163" y="217.9767">1</text><text fill="#000000" font-family="sans-serif" font-size="13" lengthAdjust="spacing" textLength="20" x="307.1233" y="318.3913">0..*</text></g><!--link Journalist to Declaration--><g id="link_Journalist_Declaration"><path codeLine="73" d="M391,227.13 C391,249.04 391,280.74 391,304.9 " fill="none" id="Journalist-Declaration" style="stroke:#181818;stroke-width:1.0;"/><polygon fill="#000000" points="396,271.1758,398.9389,262.1307,393.0611,262.1307,396,271.1758" style="stroke:#000000;stroke-width:1.0;"/><text fill="#000000" font-family="sans-serif" font-size="13" lengthAdjust="spacing" textLength="49" x="405" y="271.4951">consults</text><text fill="#000000" font-family="sans-serif" font-size="13" lengthAdjust="spacing" textLength="7" x="383.1906" y="248.6487">1</text><text fill="#000000" font-family="sans-serif" font-size="13" lengthAdjust="spacing" textLength="20" x="369.0938" y="294.1338">0..*</text></g><!--SRC=[ZLHHQzj037w_Nt7aiP3ImPxAA6GDWuuIGhBkNRbJOf7pdNUIrsLR__jaEtRi1SRyObdI9-c-JsS-KgmWGsdB59ChSYhHIgxHy12fm1tXW5iv1RGPdK0yX7425-3JAyM3tKFWSSG5O5w8PDhLWayknItzH7jd2l9e7MMdXLgxH2cIPsDWnvB1IOUrQyoSelrbh3uHIcmDWHzFlhMm10gjLMdwQyhUl1dJOHz9j5i37boVKvqZ168vbwmoCZz2zgkwt66-PAvJKBY3i3XWb76D9UexWz0m5zUxafZLiGJf9lHTKfHLC_FRrRcsocDNOAYxO4QP-F_2V28C_WfnvLtdL66MqtauSDzgOcggVeLGT-ELa8yetRS2CTRbWFjogl2CVTbyNAnQQ_EoMJnVUZmdDoP0rIOkkifr94ULSYodZWabEvEJ1dnMyyFl-RnNP-Axo3DnJxKmfYUf3OvfCnqP5t_xhNsdOixUpQncpEvkRszc4ptlEos5xOCP-s-QzFUpNZOpqQeDQg5Hnv4oRLGRzlIQGP_v_64IQOY_HFiXzJMmVMz3OwAt57L2qs_ulmwabuxhq9vejFt_YJ0nYLvwEXHYqtxGR4bS1JZf7D0Sr7eGiCHsJq4mepVWd5x5vfSWoUQaFuxlkeCxQhR2vZeWt-hIUTkKDty0]--></g></svg>