<?xml version="1.0" encoding="us-ascii" standalone="no"?><svg xmlns="http://www.w3.org/2000/svg" xmlns:xlink="http://www.w3.org/1999/xlink" contentStyleType="text/css" height="586px" preserveAspectRatio="none" style="width:1412px;height:586px;background:#FFFFFF;" version="1.1" viewBox="0 0 1412 586" width="1412px" zoomAndPan="magnify"><defs/><g><rect fill="#FFFFFF" height="426.4375" style="stroke:#181818;stroke-width:1.0;" width="10" x="354" y="87.5703"/><rect fill="#FFFFFF" height="30.3516" style="stroke:#181818;stroke-width:1.0;" width="10" x="534" y="143.2734"/><rect fill="#FFFFFF" height="30.3516" style="stroke:#181818;stroke-width:1.0;" width="10" x="639" y="203.9766"/><rect fill="#FFFFFF" height="30.3516" style="stroke:#181818;stroke-width:1.0;" width="10" x="818" y="264.6797"/><rect fill="#FFFFFF" height="151.2734" style="stroke:#181818;stroke-width:1.0;" width="10" x="993" y="325.3828"/><rect fill="#FFFFFF" height="30.3516" style="stroke:#181818;stroke-width:1.0;" width="10" x="1322.5" y="415.9531"/><rect fill="none" height="382.0859" style="stroke:#000000;stroke-width:1.5;" width="1180.5" x="225.5" y="102.5703"/><line style="stroke:#181818;stroke-width:0.5;stroke-dasharray:5.0,5.0;" x1="358.5" x2="358.5" y1="55.2188" y2="532.0078"/><line style="stroke:#181818;stroke-width:0.5;stroke-dasharray:5.0,5.0;" x1="538.5" x2="538.5" y1="55.2188" y2="532.0078"/><line style="stroke:#181818;stroke-width:0.5;stroke-dasharray:5.0,5.0;" x1="643.5" x2="643.5" y1="55.2188" y2="532.0078"/><line style="stroke:#181818;stroke-width:0.5;stroke-dasharray:5.0,5.0;" x1="823" x2="823" y1="55.2188" y2="532.0078"/><line style="stroke:#181818;stroke-width:0.5;stroke-dasharray:5.0,5.0;" x1="998" x2="998" y1="55.2188" y2="532.0078"/><line style="stroke:#181818;stroke-width:0.5;stroke-dasharray:5.0,5.0;" x1="1327" x2="1327" y1="373.4922" y2="532.0078"/><rect fill="#E3E3E3" height="31.6094" rx="2.5" ry="2.5" style="stroke:#181818;stroke-width:0.5;" width="247" x="235.5" y="22.6094"/><text fill="#000000" font-family="sans-serif" font-size="14" lengthAdjust="spacing" textLength="233" x="242.5" y="44.1426">:ConsultIntegratedSituationController</text><rect fill="#E3E3E3" height="31.6094" rx="2.5" ry="2.5" style="stroke:#181818;stroke-width:0.5;" width="247" x="235.5" y="531.0078"/><text fill="#000000" font-family="sans-serif" font-size="14" lengthAdjust="spacing" textLength="233" x="242.5" y="552.541">:ConsultIntegratedSituationController</text><rect fill="#E3E3E3" height="31.6094" rx="2.5" ry="2.5" style="stroke:#181818;stroke-width:0.5;" width="93" x="492.5" y="22.6094"/><text fill="#000000" font-family="sans-serif" font-size="14" lengthAdjust="spacing" textLength="79" x="499.5" y="44.1426">Repositories</text><rect fill="#E3E3E3" height="31.6094" rx="2.5" ry="2.5" style="stroke:#181818;stroke-width:0.5;" width="93" x="492.5" y="531.0078"/><text fill="#000000" font-family="sans-serif" font-size="14" lengthAdjust="spacing" textLength="79" x="499.5" y="552.541">Repositories</text><rect fill="#E3E3E3" height="49.2188" rx="2.5" ry="2.5" style="stroke:#181818;stroke-width:0.5;" width="97" x="595.5" y="5"/><text fill="#000000" font-family="sans-serif" font-size="14" lengthAdjust="spacing" textLength="74" x="607" y="26.5332">repositories</text><text fill="#000000" font-family="sans-serif" font-size="14" lengthAdjust="spacing" textLength="83" x="602.5" y="44.1426">:Repositories</text><rect fill="#E3E3E3" height="49.2188" rx="2.5" ry="2.5" style="stroke:#181818;stroke-width:0.5;" width="97" x="595.5" y="531.0078"/><text fill="#000000" font-family="sans-serif" font-size="14" lengthAdjust="spacing" textLength="74" x="607" y="552.541">repositories</text><text fill="#000000" font-family="sans-serif" font-size="14" lengthAdjust="spacing" textLength="83" x="602.5" y="570.1504">:Repositories</text><rect fill="#E3E3E3" height="49.2188" rx="2.5" ry="2.5" style="stroke:#181818;stroke-width:0.5;" width="156" x="745" y="5"/><text fill="#000000" font-family="sans-serif" font-size="14" lengthAdjust="spacing" textLength="142" x="752" y="26.5332">declarationRepository:</text><text fill="#000000" font-family="sans-serif" font-size="14" lengthAdjust="spacing" textLength="140" x="753" y="44.1426">DeclarationRepository</text><rect fill="#E3E3E3" height="49.2188" rx="2.5" ry="2.5" style="stroke:#181818;stroke-width:0.5;" width="156" x="745" y="531.0078"/><text fill="#000000" font-family="sans-serif" font-size="14" lengthAdjust="spacing" textLength="142" x="752" y="552.541">declarationRepository:</text><text fill="#000000" font-family="sans-serif" font-size="14" lengthAdjust="spacing" textLength="140" x="753" y="570.1504">DeclarationRepository</text><rect fill="#E3E3E3" height="49.2188" rx="2.5" ry="2.5" style="stroke:#181818;stroke-width:0.5;" width="174" x="911" y="5"/><text fill="#000000" font-family="sans-serif" font-size="14" lengthAdjust="spacing" textLength="51" x="972.5" y="26.5332">member</text><text fill="#000000" font-family="sans-serif" font-size="14" lengthAdjust="spacing" textLength="160" x="918" y="44.1426">:EthicsCommitteeMember</text><rect fill="#E3E3E3" height="49.2188" rx="2.5" ry="2.5" style="stroke:#181818;stroke-width:0.5;" width="174" x="911" y="531.0078"/><text fill="#000000" font-family="sans-serif" font-size="14" lengthAdjust="spacing" textLength="51" x="972.5" y="552.541">member</text><text fill="#000000" font-family="sans-serif" font-size="14" lengthAdjust="spacing" textLength="160" x="918" y="570.1504">:EthicsCommitteeMember</text><rect fill="#E3E3E3" height="49.2188" rx="2.5" ry="2.5" style="stroke:#181818;stroke-width:0.5;" width="137" x="1259" y="531.0078"/><text fill="#000000" font-family="sans-serif" font-size="14" lengthAdjust="spacing" textLength="119" x="1268" y="552.541">integratedSituation</text><text fill="#000000" font-family="sans-serif" font-size="14" lengthAdjust="spacing" textLength="123" x="1266" y="570.1504">:IntegratedSituation</text><rect fill="#FFFFFF" height="426.4375" style="stroke:#181818;stroke-width:1.0;" width="10" x="354" y="87.5703"/><rect fill="#FFFFFF" height="30.3516" style="stroke:#181818;stroke-width:1.0;" width="10" x="534" y="143.2734"/><rect fill="#FFFFFF" height="30.3516" style="stroke:#181818;stroke-width:1.0;" width="10" x="639" y="203.9766"/><rect fill="#FFFFFF" height="30.3516" style="stroke:#181818;stroke-width:1.0;" width="10" x="818" y="264.6797"/><rect fill="#FFFFFF" height="151.2734" style="stroke:#181818;stroke-width:1.0;" width="10" x="993" y="325.3828"/><rect fill="#FFFFFF" height="30.3516" style="stroke:#181818;stroke-width:1.0;" width="10" x="1322.5" y="415.9531"/><polygon fill="#181818" points="342,83.5703,352,87.5703,342,91.5703,346,87.5703" style="stroke:#181818;stroke-width:1.0;"/><line style="stroke:#181818;stroke-width:1.0;" x1="0" x2="348" y1="87.5703" y2="87.5703"/><text fill="#000000" font-family="sans-serif" font-size="13" font-weight="bold" lengthAdjust="spacing" textLength="7" x="7" y="82.7139">8</text><text fill="#000000" font-family="sans-serif" font-size="13" lengthAdjust="spacing" textLength="324" x="18" y="82.7139">consultIntegratedSituation(politicalAgent, referenceDate)</text><path d="M225.5,102.5703 L433.5,102.5703 L433.5,110.9219 L423.5,120.9219 L225.5,120.9219 L225.5,102.5703 " fill="#EEEEEE" style="stroke:#000000;stroke-width:1.5;"/><rect fill="none" height="382.0859" style="stroke:#000000;stroke-width:1.5;" width="1180.5" x="225.5" y="102.5703"/><text fill="#000000" font-family="sans-serif" font-size="13" font-weight="bold" lengthAdjust="spacing" textLength="163" x="240.5" y="117.0654">Build Integrated Situation</text><polygon fill="#181818" points="522,139.2734,532,143.2734,522,147.2734,526,143.2734" style="stroke:#181818;stroke-width:1.0;"/><line style="stroke:#181818;stroke-width:1.0;" x1="364" x2="528" y1="143.2734" y2="143.2734"/><text fill="#000000" font-family="sans-serif" font-size="13" font-weight="bold" lengthAdjust="spacing" textLength="18" x="371" y="138.417">8.1</text><text fill="#000000" font-family="sans-serif" font-size="13" lengthAdjust="spacing" textLength="75" x="393" y="138.417">getInstance()</text><polygon fill="#181818" points="375,169.625,365,173.625,375,177.625,371,173.625" style="stroke:#181818;stroke-width:1.0;"/><line style="stroke:#181818;stroke-width:1.0;stroke-dasharray:2.0,2.0;" x1="369" x2="538" y1="173.625" y2="173.625"/><text fill="#000000" font-family="sans-serif" font-size="13" font-weight="bold" lengthAdjust="spacing" textLength="18" x="381" y="168.7686">8.2</text><text fill="#000000" font-family="sans-serif" font-size="13" lengthAdjust="spacing" textLength="67" x="403" y="168.7686">repositories</text><polygon fill="#181818" points="627,199.9766,637,203.9766,627,207.9766,631,203.9766" style="stroke:#181818;stroke-width:1.0;"/><line style="stroke:#181818;stroke-width:1.0;" x1="364" x2="633" y1="203.9766" y2="203.9766"/><text fill="#000000" font-family="sans-serif" font-size="13" font-weight="bold" lengthAdjust="spacing" textLength="18" x="371" y="199.1201">8.3</text><text fill="#000000" font-family="sans-serif" font-size="13" lengthAdjust="spacing" textLength="153" x="393" y="199.1201">getDeclarationRepository()</text><polygon fill="#181818" points="375,230.3281,365,234.3281,375,238.3281,371,234.3281" style="stroke:#181818;stroke-width:1.0;"/><line style="stroke:#181818;stroke-width:1.0;stroke-dasharray:2.0,2.0;" x1="369" x2="643" y1="234.3281" y2="234.3281"/><text fill="#000000" font-family="sans-serif" font-size="13" font-weight="bold" lengthAdjust="spacing" textLength="18" x="381" y="229.4717">8.4</text><text fill="#000000" font-family="sans-serif" font-size="13" lengthAdjust="spacing" textLength="125" x="403" y="229.4717">declarationRepository</text><polygon fill="#181818" points="806,260.6797,816,264.6797,806,268.6797,810,264.6797" style="stroke:#181818;stroke-width:1.0;"/><line style="stroke:#181818;stroke-width:1.0;" x1="364" x2="812" y1="264.6797" y2="264.6797"/><text fill="#000000" font-family="sans-serif" font-size="13" font-weight="bold" lengthAdjust="spacing" textLength="18" x="371" y="259.8232">8.5</text><text fill="#000000" font-family="sans-serif" font-size="13" lengthAdjust="spacing" textLength="413" x="393" y="259.8232">getDeclarationsByPoliticalAgentUntilDate(politicalAgent, referenceDate)</text><polygon fill="#181818" points="375,291.0313,365,295.0313,375,299.0313,371,295.0313" style="stroke:#181818;stroke-width:1.0;"/><line style="stroke:#181818;stroke-width:1.0;stroke-dasharray:2.0,2.0;" x1="369" x2="822" y1="295.0313" y2="295.0313"/><text fill="#000000" font-family="sans-serif" font-size="13" font-weight="bold" lengthAdjust="spacing" textLength="18" x="381" y="290.1748">8.6</text><text fill="#000000" font-family="sans-serif" font-size="13" lengthAdjust="spacing" textLength="70" x="403" y="290.1748">declarations</text><polygon fill="#181818" points="981,321.3828,991,325.3828,981,329.3828,985,325.3828" style="stroke:#181818;stroke-width:1.0;"/><line style="stroke:#181818;stroke-width:1.0;" x1="364" x2="987" y1="325.3828" y2="325.3828"/><text fill="#000000" font-family="sans-serif" font-size="13" font-weight="bold" lengthAdjust="spacing" textLength="18" x="371" y="320.5264">8.7</text><text fill="#000000" font-family="sans-serif" font-size="13" lengthAdjust="spacing" textLength="387" x="393" y="320.5264">buildIntegratedSituation(politicalAgent, declarations, referenceDate)</text><polygon fill="#181818" points="1247,351.7344,1257,355.7344,1247,359.7344,1251,355.7344" style="stroke:#181818;stroke-width:1.0;"/><line style="stroke:#181818;stroke-width:1.0;stroke-dasharray:2.0,2.0;" x1="1003" x2="1253" y1="355.7344" y2="355.7344"/><text fill="#000000" font-family="sans-serif" font-size="13" font-weight="bold" lengthAdjust="spacing" textLength="18" x="1010" y="350.8779">8.8</text><text fill="#000000" font-family="sans-serif" font-size="13" lengthAdjust="spacing" textLength="210" x="1032" y="350.8779">create(politicalAgent, referenceDate)</text><rect fill="#E3E3E3" height="49.2188" rx="2.5" ry="2.5" style="stroke:#181818;stroke-width:0.5;" width="137" x="1259" y="333.3828"/><text fill="#000000" font-family="sans-serif" font-size="14" lengthAdjust="spacing" textLength="119" x="1268" y="354.916">integratedSituation</text><text fill="#000000" font-family="sans-serif" font-size="14" lengthAdjust="spacing" textLength="123" x="1266" y="372.5254">:IntegratedSituation</text><polygon fill="#181818" points="1310.5,411.9531,1320.5,415.9531,1310.5,419.9531,1314.5,415.9531" style="stroke:#181818;stroke-width:1.0;"/><line style="stroke:#181818;stroke-width:1.0;" x1="1003" x2="1316.5" y1="415.9531" y2="415.9531"/><text fill="#000000" font-family="sans-serif" font-size="13" font-weight="bold" lengthAdjust="spacing" textLength="18" x="1010" y="411.0967">8.9</text><text fill="#000000" font-family="sans-serif" font-size="13" lengthAdjust="spacing" textLength="237" x="1032" y="411.0967">aggregateFromDeclarations(declarations)</text><polygon fill="#181818" points="1014,442.3047,1004,446.3047,1014,450.3047,1010,446.3047" style="stroke:#181818;stroke-width:1.0;"/><line style="stroke:#181818;stroke-width:1.0;stroke-dasharray:2.0,2.0;" x1="1008" x2="1326.5" y1="446.3047" y2="446.3047"/><text fill="#000000" font-family="sans-serif" font-size="13" font-weight="bold" lengthAdjust="spacing" textLength="25" x="1020" y="441.4482">8.10</text><text fill="#000000" font-family="sans-serif" font-size="13" lengthAdjust="spacing" textLength="108" x="1049" y="441.4482">integratedSituation</text><polygon fill="#181818" points="375,472.6563,365,476.6563,375,480.6563,371,476.6563" style="stroke:#181818;stroke-width:1.0;"/><line style="stroke:#181818;stroke-width:1.0;stroke-dasharray:2.0,2.0;" x1="369" x2="997" y1="476.6563" y2="476.6563"/><text fill="#000000" font-family="sans-serif" font-size="13" font-weight="bold" lengthAdjust="spacing" textLength="25" x="381" y="471.7998">8.11</text><text fill="#000000" font-family="sans-serif" font-size="13" lengthAdjust="spacing" textLength="108" x="410" y="471.7998">integratedSituation</text><polygon fill="#181818" points="11,510.0078,1,514.0078,11,518.0078,7,514.0078" style="stroke:#181818;stroke-width:1.0;"/><line style="stroke:#181818;stroke-width:1.0;stroke-dasharray:2.0,2.0;" x1="5" x2="358" y1="514.0078" y2="514.0078"/><text fill="#000000" font-family="sans-serif" font-size="13" font-weight="bold" lengthAdjust="spacing" textLength="7" x="17" y="509.1514">9</text><text fill="#000000" font-family="sans-serif" font-size="13" lengthAdjust="spacing" textLength="108" x="28" y="509.1514">integratedSituation</text><!--SRC=[bLHDQzmm4BtxLuYSDg4kzDOkfR0VRbZOtGIlSmi4HPveHMJ9I7BB_lkEvSMMOssIwYAGPjwyDsya-ofKJGsjIAMLPaUZAo3ED93O_gQcx9LoEBYJ16A0EQgu30FiaPRwhr2Sl51f8Kdms0acQgeSkPgljBADT1lbW1lge3m8rr0djC8RPxIKOAu8jMHLvDjnRWwrji9f8y3wa3oxlpkCOqmGywZcyPIdmsP_kysAk_qukGGcKKDBfayypH_LEdRkuTRPQllKOew1AgYUmM3zp1q5iojTLS8vW9q_zvcxRBVCyd6Qc3O5CIAjyWYRVP7TveiYMwEUuc5HR51FGXkdLTEM8T-Jz9Tl8vaJTh7jirfBWHoeN71GxWkQ-W8658CrnbsF4Rz-IoXpuW_UT0OHNDpefYRBHiYI30L8No7nKUtoP92KTm5PSK165aU8mUowZ-ehTFwIO7M9wQ0hzBkFBE4DH9p0C0OTbQZD5ta5GpHX6207NAFZTP5qW3-Xtu_TXBXTdkv7VZue9sJhv4S-JrGEintg6qh7bKLT6A0cKhftW1ZFxVnyPZx3OX-hEB-pKCAvPCi_zePkRjhtOk0_UXQYna4Had9kW6FUR_nNGyjceQ8nQ2yZ-jZ9cnKjd8PDZlmm8vJ0i_ZtSg6Fvpbu3pw0FdlYhq2LVWz-cH_-u6UQlWSRmFcFw1y0]--></g></svg>