<?xml version="1.0" encoding="us-ascii" standalone="no"?><svg xmlns="http://www.w3.org/2000/svg" xmlns:xlink="http://www.w3.org/1999/xlink" contentStyleType="text/css" height="404px" preserveAspectRatio="none" style="width:678px;height:404px;background:#FFFFFF;" version="1.1" viewBox="0 0 678 404" width="678px" zoomAndPan="magnify"><defs/><g><rect fill="#FFFFFF" height="244.8125" style="stroke:#181818;stroke-width:1.0;" width="10" x="143" y="87.5703"/><rect fill="#FFFFFF" height="30.3516" style="stroke:#181818;stroke-width:1.0;" width="10" x="323" y="143.2734"/><rect fill="#FFFFFF" height="30.3516" style="stroke:#181818;stroke-width:1.0;" width="10" x="428" y="203.9766"/><rect fill="#FFFFFF" height="30.3516" style="stroke:#181818;stroke-width:1.0;" width="10" x="572" y="264.6797"/><rect fill="none" height="200.4609" style="stroke:#000000;stroke-width:1.5;" width="658" x="14.5" y="102.5703"/><line style="stroke:#181818;stroke-width:0.5;stroke-dasharray:5.0,5.0;" x1="147.5" x2="147.5" y1="55.2188" y2="350.3828"/><line style="stroke:#181818;stroke-width:0.5;stroke-dasharray:5.0,5.0;" x1="327.5" x2="327.5" y1="55.2188" y2="350.3828"/><line style="stroke:#181818;stroke-width:0.5;stroke-dasharray:5.0,5.0;" x1="432.5" x2="432.5" y1="55.2188" y2="350.3828"/><line style="stroke:#181818;stroke-width:0.5;stroke-dasharray:5.0,5.0;" x1="576.5" x2="576.5" y1="55.2188" y2="350.3828"/><rect fill="#E3E3E3" height="31.6094" rx="2.5" ry="2.5" style="stroke:#181818;stroke-width:0.5;" width="247" x="24.5" y="22.6094"/><text fill="#000000" font-family="sans-serif" font-size="14" lengthAdjust="spacing" textLength="233" x="31.5" y="44.1426">:ConsultIntegratedSituationController</text><rect fill="#E3E3E3" height="31.6094" rx="2.5" ry="2.5" style="stroke:#181818;stroke-width:0.5;" width="247" x="24.5" y="349.3828"/><text fill="#000000" font-family="sans-serif" font-size="14" lengthAdjust="spacing" textLength="233" x="31.5" y="370.916">:ConsultIntegratedSituationController</text><rect fill="#E3E3E3" height="31.6094" rx="2.5" ry="2.5" style="stroke:#181818;stroke-width:0.5;" width="93" x="281.5" y="22.6094"/><text fill="#000000" font-family="sans-serif" font-size="14" lengthAdjust="spacing" textLength="79" x="288.5" y="44.1426">Repositories</text><rect fill="#E3E3E3" height="31.6094" rx="2.5" ry="2.5" style="stroke:#181818;stroke-width:0.5;" width="93" x="281.5" y="349.3828"/><text fill="#000000" font-family="sans-serif" font-size="14" lengthAdjust="spacing" textLength="79" x="288.5" y="370.916">Repositories</text><rect fill="#E3E3E3" height="49.2188" rx="2.5" ry="2.5" style="stroke:#181818;stroke-width:0.5;" width="97" x="384.5" y="5"/><text fill="#000000" font-family="sans-serif" font-size="14" lengthAdjust="spacing" textLength="74" x="396" y="26.5332">repositories</text><text fill="#000000" font-family="sans-serif" font-size="14" lengthAdjust="spacing" textLength="83" x="391.5" y="44.1426">:Repositories</text><rect fill="#E3E3E3" height="49.2188" rx="2.5" ry="2.5" style="stroke:#181818;stroke-width:0.5;" width="97" x="384.5" y="349.3828"/><text fill="#000000" font-family="sans-serif" font-size="14" lengthAdjust="spacing" textLength="74" x="396" y="370.916">repositories</text><text fill="#000000" font-family="sans-serif" font-size="14" lengthAdjust="spacing" textLength="83" x="391.5" y="388.5254">:Repositories</text><rect fill="#E3E3E3" height="49.2188" rx="2.5" ry="2.5" style="stroke:#181818;stroke-width:0.5;" width="171" x="491.5" y="5"/><text fill="#000000" font-family="sans-serif" font-size="14" lengthAdjust="spacing" textLength="152" x="501" y="26.5332">politicalAgentRepository</text><text fill="#000000" font-family="sans-serif" font-size="14" lengthAdjust="spacing" textLength="157" x="498.5" y="44.1426">:PoliticalAgentRepository</text><rect fill="#E3E3E3" height="49.2188" rx="2.5" ry="2.5" style="stroke:#181818;stroke-width:0.5;" width="171" x="491.5" y="349.3828"/><text fill="#000000" font-family="sans-serif" font-size="14" lengthAdjust="spacing" textLength="152" x="501" y="370.916">politicalAgentRepository</text><text fill="#000000" font-family="sans-serif" font-size="14" lengthAdjust="spacing" textLength="157" x="498.5" y="388.5254">:PoliticalAgentRepository</text><rect fill="#FFFFFF" height="244.8125" style="stroke:#181818;stroke-width:1.0;" width="10" x="143" y="87.5703"/><rect fill="#FFFFFF" height="30.3516" style="stroke:#181818;stroke-width:1.0;" width="10" x="323" y="143.2734"/><rect fill="#FFFFFF" height="30.3516" style="stroke:#181818;stroke-width:1.0;" width="10" x="428" y="203.9766"/><rect fill="#FFFFFF" height="30.3516" style="stroke:#181818;stroke-width:1.0;" width="10" x="572" y="264.6797"/><polygon fill="#181818" points="131,83.5703,141,87.5703,131,91.5703,135,87.5703" style="stroke:#181818;stroke-width:1.0;"/><line style="stroke:#181818;stroke-width:1.0;" x1="0" x2="137" y1="87.5703" y2="87.5703"/><text fill="#000000" font-family="sans-serif" font-size="13" font-weight="bold" lengthAdjust="spacing" textLength="7" x="7" y="82.7139">3</text><text fill="#000000" font-family="sans-serif" font-size="13" lengthAdjust="spacing" textLength="113" x="18" y="82.7139">getPoliticalAgents()</text><path d="M14.5,102.5703 L204.5,102.5703 L204.5,110.9219 L194.5,120.9219 L14.5,120.9219 L14.5,102.5703 " fill="#EEEEEE" style="stroke:#000000;stroke-width:1.5;"/><rect fill="none" height="200.4609" style="stroke:#000000;stroke-width:1.5;" width="658" x="14.5" y="102.5703"/><text fill="#000000" font-family="sans-serif" font-size="13" font-weight="bold" lengthAdjust="spacing" textLength="145" x="29.5" y="117.0654">Get Political Agent List</text><polygon fill="#181818" points="311,139.2734,321,143.2734,311,147.2734,315,143.2734" style="stroke:#181818;stroke-width:1.0;"/><line style="stroke:#181818;stroke-width:1.0;" x1="153" x2="317" y1="143.2734" y2="143.2734"/><text fill="#000000" font-family="sans-serif" font-size="13" font-weight="bold" lengthAdjust="spacing" textLength="18" x="160" y="138.417">3.1</text><text fill="#000000" font-family="sans-serif" font-size="13" lengthAdjust="spacing" textLength="75" x="182" y="138.417">getInstance()</text><polygon fill="#181818" points="164,169.625,154,173.625,164,177.625,160,173.625" style="stroke:#181818;stroke-width:1.0;"/><line style="stroke:#181818;stroke-width:1.0;stroke-dasharray:2.0,2.0;" x1="158" x2="327" y1="173.625" y2="173.625"/><text fill="#000000" font-family="sans-serif" font-size="13" font-weight="bold" lengthAdjust="spacing" textLength="18" x="170" y="168.7686">3.2</text><text fill="#000000" font-family="sans-serif" font-size="13" lengthAdjust="spacing" textLength="67" x="192" y="168.7686">repositories</text><polygon fill="#181818" points="416,199.9766,426,203.9766,416,207.9766,420,203.9766" style="stroke:#181818;stroke-width:1.0;"/><line style="stroke:#181818;stroke-width:1.0;" x1="153" x2="422" y1="203.9766" y2="203.9766"/><text fill="#000000" font-family="sans-serif" font-size="13" font-weight="bold" lengthAdjust="spacing" textLength="18" x="160" y="199.1201">3.3</text><text fill="#000000" font-family="sans-serif" font-size="13" lengthAdjust="spacing" textLength="168" x="182" y="199.1201">getPoliticalAgentRepository()</text><polygon fill="#181818" points="164,230.3281,154,234.3281,164,238.3281,160,234.3281" style="stroke:#181818;stroke-width:1.0;"/><line style="stroke:#181818;stroke-width:1.0;stroke-dasharray:2.0,2.0;" x1="158" x2="432" y1="234.3281" y2="234.3281"/><text fill="#000000" font-family="sans-serif" font-size="13" font-weight="bold" lengthAdjust="spacing" textLength="18" x="170" y="229.4717">3.4</text><text fill="#000000" font-family="sans-serif" font-size="13" lengthAdjust="spacing" textLength="140" x="192" y="229.4717">politicalAgentRepository</text><polygon fill="#181818" points="560,260.6797,570,264.6797,560,268.6797,564,264.6797" style="stroke:#181818;stroke-width:1.0;"/><line style="stroke:#181818;stroke-width:1.0;" x1="153" x2="566" y1="264.6797" y2="264.6797"/><text fill="#000000" font-family="sans-serif" font-size="13" font-weight="bold" lengthAdjust="spacing" textLength="18" x="160" y="259.8232">3.5</text><text fill="#000000" font-family="sans-serif" font-size="13" lengthAdjust="spacing" textLength="113" x="182" y="259.8232">getPoliticalAgents()</text><polygon fill="#181818" points="164,291.0313,154,295.0313,164,299.0313,160,295.0313" style="stroke:#181818;stroke-width:1.0;"/><line style="stroke:#181818;stroke-width:1.0;stroke-dasharray:2.0,2.0;" x1="158" x2="576" y1="295.0313" y2="295.0313"/><text fill="#000000" font-family="sans-serif" font-size="13" font-weight="bold" lengthAdjust="spacing" textLength="18" x="170" y="290.1748">3.6</text><text fill="#000000" font-family="sans-serif" font-size="13" lengthAdjust="spacing" textLength="99" x="192" y="290.1748">politicalAgentList</text><polygon fill="#181818" points="11,328.3828,1,332.3828,11,336.3828,7,332.3828" style="stroke:#181818;stroke-width:1.0;"/><line style="stroke:#181818;stroke-width:1.0;stroke-dasharray:2.0,2.0;" x1="5" x2="147" y1="332.3828" y2="332.3828"/><text fill="#000000" font-family="sans-serif" font-size="13" font-weight="bold" lengthAdjust="spacing" textLength="7" x="17" y="327.5264">4</text><text fill="#000000" font-family="sans-serif" font-size="13" lengthAdjust="spacing" textLength="99" x="28" y="327.5264">politicalAgentList</text><!--SRC=[VL9DQy904BtlhnWyjOSKIdkIKX0H4KJ5U2p8Dfd6nSrks9sq-E-xRcWogObp2TbvxysR3tzMff9Ebb1QOxEJioK2kHg5RpELpCwom9Gk6i5XHj8KcWFyIURsHva2lgJsA8IioPgw_4GdH82GobGb3S5aEhV6rvfMXh1maZ1F5TMIb3KXGyvgZMu2qiFyi5_tkNkih5TadK8V8Vl5RflsCOvXFinqc79CLvlbUd7ORlhaoceL_gIU5MYevLw2q6ua5KLdoyNcSBnAyyxXHGX8tcCZC8K2gI_Y7nvxwATd8JDIts4eJVCGed2shc2912qP8XlMofE8c6l48g5OxA-fjZ8-B2h3KEOFrUetamCM3J7f_F99jiWS_qaC6-W6FDHuDxrHQsn3DoQPEBCxjhjHwwp4JHFTGiSMTsERtG1tp9H6pSPD3jZaPtLDeSdZbntDQtnuIv8xoamndjKl]--></g></svg>