<?xml version="1.0" encoding="us-ascii" standalone="no"?><svg xmlns="http://www.w3.org/2000/svg" xmlns:xlink="http://www.w3.org/1999/xlink" contentStyleType="text/css" height="1346px" preserveAspectRatio="none" style="width:1551px;height:1346px;background:#FFFFFF;" version="1.1" viewBox="0 0 1551 1346" width="1551px" zoomAndPan="magnify"><defs/><g><!--class DeclarationType--><g id="elem_DeclarationType"><rect codeLine="8" fill="#F1F1F1" height="100.8281" id="DeclarationType" rx="2.5" ry="2.5" style="stroke:#181818;stroke-width:0.5;" width="136" x="1244.5" y="1129"/><ellipse cx="1259.5" cy="1145" fill="#EB937F" rx="11" ry="11" style="stroke:#181818;stroke-width:1.0;"/><path d="M1258.3594,1145.7969 L1258.3594,1148.2969 L1262.6875,1148.2969 L1262.6875,1147.375 Q1262.6875,1146.7656 1262.9297,1146.5 Q1263.1719,1146.2344 1263.5469,1146.2344 Q1263.9219,1146.2344 1264.1563,1146.5 Q1264.3906,1146.7656 1264.3906,1147.375 L1264.3906,1150 L1256.3906,1150 Q1255.7656,1150 1255.5078,1149.7656 Q1255.25,1149.5313 1255.25,1149.1406 Q1255.25,1148.7656 1255.5156,1148.5313 Q1255.7813,1148.2969 1256.3906,1148.2969 L1256.6563,1148.2969 L1256.6563,1141.6406 L1256.3906,1141.6406 Q1255.7656,1141.6406 1255.5078,1141.4063 Q1255.25,1141.1719 1255.25,1140.7813 Q1255.25,1140.4063 1255.5078,1140.1719 Q1255.7656,1139.9375 1256.3906,1139.9375 L1264.0156,1139.9375 L1264.0156,1142.5313 Q1264.0156,1143.1406 1263.7891,1143.3984 Q1263.5625,1143.6563 1263.1719,1143.6563 Q1262.7969,1143.6563 1262.5625,1143.3984 Q1262.3281,1143.1406 1262.3281,1142.5313 L1262.3281,1141.6406 L1258.3594,1141.6406 L1258.3594,1144.0938 L1259.8438,1144.0938 Q1259.8438,1143.4375 1259.9688,1143.25 Q1260.2344,1142.8438 1260.7031,1142.8438 Q1261.0781,1142.8438 1261.3125,1143.1016 Q1261.5469,1143.3594 1261.5469,1143.9688 L1261.5469,1145.9375 Q1261.5469,1146.4844 1261.4219,1146.6719 Q1261.1563,1147.0625 1260.7031,1147.0625 Q1260.2344,1147.0625 1259.9688,1146.6563 Q1259.8438,1146.4688 1259.8438,1145.7969 L1258.3594,1145.7969 Z " fill="#000000"/><text fill="#000000" font-family="sans-serif" font-size="14" lengthAdjust="spacing" textLength="104" x="1273.5" y="1150.7285">DeclarationType</text><line style="stroke:#181818;stroke-width:0.5;" x1="1245.5" x2="1379.5" y1="1161" y2="1161"/><text fill="#000000" font-family="sans-serif" font-size="14" lengthAdjust="spacing" textLength="44" x="1250.5" y="1179.5332">INITIAL</text><text fill="#000000" font-family="sans-serif" font-size="14" lengthAdjust="spacing" textLength="66" x="1250.5" y="1197.1426">REGULAR</text><text fill="#000000" font-family="sans-serif" font-size="14" lengthAdjust="spacing" textLength="94" x="1250.5" y="1214.752">EXCEPTIONAL</text><line style="stroke:#181818;stroke-width:0.5;" x1="1245.5" x2="1379.5" y1="1221.8281" y2="1221.8281"/></g><!--class DeclarationStatus--><g id="elem_DeclarationStatus"><rect codeLine="14" fill="#F1F1F1" height="100.8281" id="DeclarationStatus" rx="2.5" ry="2.5" style="stroke:#181818;stroke-width:0.5;" width="144" x="950.5" y="1129"/><ellipse cx="965.5" cy="1145" fill="#EB937F" rx="11" ry="11" style="stroke:#181818;stroke-width:1.0;"/><path d="M964.3594,1145.7969 L964.3594,1148.2969 L968.6875,1148.2969 L968.6875,1147.375 Q968.6875,1146.7656 968.9297,1146.5 Q969.1719,1146.2344 969.5469,1146.2344 Q969.9219,1146.2344 970.1563,1146.5 Q970.3906,1146.7656 970.3906,1147.375 L970.3906,1150 L962.3906,1150 Q961.7656,1150 961.5078,1149.7656 Q961.25,1149.5313 961.25,1149.1406 Q961.25,1148.7656 961.5156,1148.5313 Q961.7813,1148.2969 962.3906,1148.2969 L962.6563,1148.2969 L962.6563,1141.6406 L962.3906,1141.6406 Q961.7656,1141.6406 961.5078,1141.4063 Q961.25,1141.1719 961.25,1140.7813 Q961.25,1140.4063 961.5078,1140.1719 Q961.7656,1139.9375 962.3906,1139.9375 L970.0156,1139.9375 L970.0156,1142.5313 Q970.0156,1143.1406 969.7891,1143.3984 Q969.5625,1143.6563 969.1719,1143.6563 Q968.7969,1143.6563 968.5625,1143.3984 Q968.3281,1143.1406 968.3281,1142.5313 L968.3281,1141.6406 L964.3594,1141.6406 L964.3594,1144.0938 L965.8438,1144.0938 Q965.8438,1143.4375 965.9688,1143.25 Q966.2344,1142.8438 966.7031,1142.8438 Q967.0781,1142.8438 967.3125,1143.1016 Q967.5469,1143.3594 967.5469,1143.9688 L967.5469,1145.9375 Q967.5469,1146.4844 967.4219,1146.6719 Q967.1563,1147.0625 966.7031,1147.0625 Q966.2344,1147.0625 965.9688,1146.6563 Q965.8438,1146.4688 965.8438,1145.7969 L964.3594,1145.7969 Z " fill="#000000"/><text fill="#000000" font-family="sans-serif" font-size="14" lengthAdjust="spacing" textLength="112" x="979.5" y="1150.7285">DeclarationStatus</text><line style="stroke:#181818;stroke-width:0.5;" x1="951.5" x2="1093.5" y1="1161" y2="1161"/><text fill="#000000" font-family="sans-serif" font-size="14" lengthAdjust="spacing" textLength="78" x="956.5" y="1179.5332">SUBMITTED</text><text fill="#000000" font-family="sans-serif" font-size="14" lengthAdjust="spacing" textLength="76" x="956.5" y="1197.1426">VALIDATED</text><text fill="#000000" font-family="sans-serif" font-size="14" lengthAdjust="spacing" textLength="72" x="956.5" y="1214.752">REJECTED</text><line style="stroke:#181818;stroke-width:0.5;" x1="951.5" x2="1093.5" y1="1221.8281" y2="1221.8281"/></g><!--class ApplicationSession--><g id="elem_ApplicationSession"><rect codeLine="20" fill="#F1F1F1" height="100.8281" id="ApplicationSession" rx="2.5" ry="2.5" style="stroke:#181818;stroke-width:0.5;" width="151" x="122" y="235"/><ellipse cx="137" cy="251" fill="#ADD1B2" rx="11" ry="11" style="stroke:#181818;stroke-width:1.0;"/><path d="M139.7656,246.875 Q139.9219,246.6563 140.1094,246.5469 Q140.2969,246.4375 140.5156,246.4375 Q140.8906,246.4375 141.125,246.6953 Q141.3594,246.9531 141.3594,247.5625 L141.3594,249.0156 Q141.3594,249.625 141.125,249.8906 Q140.8906,250.1563 140.5156,250.1563 Q140.1719,250.1563 139.9688,249.9531 Q139.7656,249.7656 139.6563,249.25 Q139.6094,248.8906 139.4219,248.7031 Q139.0938,248.3281 138.4844,248.1094 Q137.875,247.8906 137.25,247.8906 Q136.4844,247.8906 135.8516,248.2188 Q135.2188,248.5469 134.7266,249.2969 Q134.2344,250.0469 134.2344,251.0781 L134.2344,252.1719 Q134.2344,253.4063 135.125,254.2266 Q136.0156,255.0469 137.6094,255.0469 Q138.5469,255.0469 139.2031,254.7969 Q139.5938,254.6406 140.0156,254.2031 Q140.2813,253.9375 140.4297,253.8594 Q140.5781,253.7813 140.7813,253.7813 Q141.1094,253.7813 141.3672,254.0391 Q141.625,254.2969 141.625,254.6406 Q141.625,254.9844 141.2813,255.3906 Q140.7813,255.9688 139.9844,256.2969 Q138.9063,256.75 137.6094,256.75 Q136.0938,256.75 134.8906,256.125 Q133.9063,255.625 133.2188,254.5547 Q132.5313,253.4844 132.5313,252.2031 L132.5313,251.0469 Q132.5313,249.7188 133.1484,248.5703 Q133.7656,247.4219 134.8594,246.8047 Q135.9531,246.1875 137.1875,246.1875 Q137.9219,246.1875 138.5703,246.3516 Q139.2188,246.5156 139.7656,246.875 Z " fill="#000000"/><text fill="#000000" font-family="sans-serif" font-size="14" lengthAdjust="spacing" textLength="119" x="151" y="256.7285">ApplicationSession</text><line style="stroke:#181818;stroke-width:0.5;" x1="123" x2="272" y1="267" y2="267"/><line style="stroke:#181818;stroke-width:0.5;" x1="123" x2="272" y1="275" y2="275"/><text fill="#000000" font-family="sans-serif" font-size="14" lengthAdjust="spacing" textLength="134" x="128" y="293.5332">-ApplicationSession()</text><text fill="#000000" font-family="sans-serif" font-size="14" lengthAdjust="spacing" text-decoration="underline" textLength="91" x="128" y="311.1426">+getInstance()</text><text fill="#000000" font-family="sans-serif" font-size="14" lengthAdjust="spacing" textLength="136" x="128" y="328.752">+getCurrentSession()</text></g><!--class UserSession--><g id="elem_UserSession"><rect codeLine="26" fill="#F1F1F1" height="65.6094" id="UserSession" rx="2.5" ry="2.5" style="stroke:#181818;stroke-width:0.5;" width="113" x="202" y="414"/><ellipse cx="217.9" cy="430" fill="#ADD1B2" rx="11" ry="11" style="stroke:#181818;stroke-width:1.0;"/><path d="M220.6656,425.875 Q220.8219,425.6563 221.0094,425.5469 Q221.1969,425.4375 221.4156,425.4375 Q221.7906,425.4375 222.025,425.6953 Q222.2594,425.9531 222.2594,426.5625 L222.2594,428.0156 Q222.2594,428.625 222.025,428.8906 Q221.7906,429.1563 221.4156,429.1563 Q221.0719,429.1563 220.8688,428.9531 Q220.6656,428.7656 220.5563,428.25 Q220.5094,427.8906 220.3219,427.7031 Q219.9938,427.3281 219.3844,427.1094 Q218.775,426.8906 218.15,426.8906 Q217.3844,426.8906 216.7516,427.2188 Q216.1188,427.5469 215.6266,428.2969 Q215.1344,429.0469 215.1344,430.0781 L215.1344,431.1719 Q215.1344,432.4063 216.025,433.2266 Q216.9156,434.0469 218.5094,434.0469 Q219.4469,434.0469 220.1031,433.7969 Q220.4938,433.6406 220.9156,433.2031 Q221.1813,432.9375 221.3297,432.8594 Q221.4781,432.7813 221.6813,432.7813 Q222.0094,432.7813 222.2672,433.0391 Q222.525,433.2969 222.525,433.6406 Q222.525,433.9844 222.1813,434.3906 Q221.6813,434.9688 220.8844,435.2969 Q219.8063,435.75 218.5094,435.75 Q216.9938,435.75 215.7906,435.125 Q214.8063,434.625 214.1188,433.5547 Q213.4313,432.4844 213.4313,431.2031 L213.4313,430.0469 Q213.4313,428.7188 214.0484,427.5703 Q214.6656,426.4219 215.7594,425.8047 Q216.8531,425.1875 218.0875,425.1875 Q218.8219,425.1875 219.4703,425.3516 Q220.1188,425.5156 220.6656,425.875 Z " fill="#000000"/><text fill="#000000" font-family="sans-serif" font-size="14" lengthAdjust="spacing" textLength="79" x="232.1" y="435.7285">UserSession</text><line style="stroke:#181818;stroke-width:0.5;" x1="203" x2="314" y1="446" y2="446"/><line style="stroke:#181818;stroke-width:0.5;" x1="203" x2="314" y1="454" y2="454"/><text fill="#000000" font-family="sans-serif" font-size="14" lengthAdjust="spacing" textLength="101" x="208" y="472.5332">+getUserEmail()</text></g><!--class EthicsCommitteeMember--><g id="elem_EthicsCommitteeMember"><rect codeLine="30" fill="#F1F1F1" height="65.6094" id="EthicsCommitteeMember" rx="2.5" ry="2.5" style="stroke:#181818;stroke-width:0.5;" width="447" x="371" y="414"/><ellipse cx="512.25" cy="430" fill="#ADD1B2" rx="11" ry="11" style="stroke:#181818;stroke-width:1.0;"/><path d="M515.0156,425.875 Q515.1719,425.6563 515.3594,425.5469 Q515.5469,425.4375 515.7656,425.4375 Q516.1406,425.4375 516.375,425.6953 Q516.6094,425.9531 516.6094,426.5625 L516.6094,428.0156 Q516.6094,428.625 516.375,428.8906 Q516.1406,429.1563 515.7656,429.1563 Q515.4219,429.1563 515.2188,428.9531 Q515.0156,428.7656 514.9063,428.25 Q514.8594,427.8906 514.6719,427.7031 Q514.3438,427.3281 513.7344,427.1094 Q513.125,426.8906 512.5,426.8906 Q511.7344,426.8906 511.1016,427.2188 Q510.4688,427.5469 509.9766,428.2969 Q509.4844,429.0469 509.4844,430.0781 L509.4844,431.1719 Q509.4844,432.4063 510.375,433.2266 Q511.2656,434.0469 512.8594,434.0469 Q513.7969,434.0469 514.4531,433.7969 Q514.8438,433.6406 515.2656,433.2031 Q515.5313,432.9375 515.6797,432.8594 Q515.8281,432.7813 516.0313,432.7813 Q516.3594,432.7813 516.6172,433.0391 Q516.875,433.2969 516.875,433.6406 Q516.875,433.9844 516.5313,434.3906 Q516.0313,434.9688 515.2344,435.2969 Q514.1563,435.75 512.8594,435.75 Q511.3438,435.75 510.1406,435.125 Q509.1563,434.625 508.4688,433.5547 Q507.7813,432.4844 507.7813,431.2031 L507.7813,430.0469 Q507.7813,428.7188 508.3984,427.5703 Q509.0156,426.4219 510.1094,425.8047 Q511.2031,425.1875 512.4375,425.1875 Q513.1719,425.1875 513.8203,425.3516 Q514.4688,425.5156 515.0156,425.875 Z " fill="#000000"/><text fill="#000000" font-family="sans-serif" font-size="14" lengthAdjust="spacing" textLength="156" x="532.75" y="435.7285">EthicsCommitteeMember</text><line style="stroke:#181818;stroke-width:0.5;" x1="372" x2="817" y1="446" y2="446"/><line style="stroke:#181818;stroke-width:0.5;" x1="372" x2="817" y1="454" y2="454"/><text fill="#000000" font-family="sans-serif" font-size="14" lengthAdjust="spacing" textLength="435" x="377" y="472.5332">+buildIntegratedSituation(politicalAgent, declarations, referenceDate)</text></g><!--class PoliticalAgent--><g id="elem_PoliticalAgent"><rect codeLine="34" fill="#F1F1F1" height="83.2188" id="PoliticalAgent" rx="2.5" ry="2.5" style="stroke:#181818;stroke-width:0.5;" width="117" x="888" y="807"/><ellipse cx="903" cy="823" fill="#ADD1B2" rx="11" ry="11" style="stroke:#181818;stroke-width:1.0;"/><path d="M905.7656,818.875 Q905.9219,818.6563 906.1094,818.5469 Q906.2969,818.4375 906.5156,818.4375 Q906.8906,818.4375 907.125,818.6953 Q907.3594,818.9531 907.3594,819.5625 L907.3594,821.0156 Q907.3594,821.625 907.125,821.8906 Q906.8906,822.1563 906.5156,822.1563 Q906.1719,822.1563 905.9688,821.9531 Q905.7656,821.7656 905.6563,821.25 Q905.6094,820.8906 905.4219,820.7031 Q905.0938,820.3281 904.4844,820.1094 Q903.875,819.8906 903.25,819.8906 Q902.4844,819.8906 901.8516,820.2188 Q901.2188,820.5469 900.7266,821.2969 Q900.2344,822.0469 900.2344,823.0781 L900.2344,824.1719 Q900.2344,825.4063 901.125,826.2266 Q902.0156,827.0469 903.6094,827.0469 Q904.5469,827.0469 905.2031,826.7969 Q905.5938,826.6406 906.0156,826.2031 Q906.2813,825.9375 906.4297,825.8594 Q906.5781,825.7813 906.7813,825.7813 Q907.1094,825.7813 907.3672,826.0391 Q907.625,826.2969 907.625,826.6406 Q907.625,826.9844 907.2813,827.3906 Q906.7813,827.9688 905.9844,828.2969 Q904.9063,828.75 903.6094,828.75 Q902.0938,828.75 900.8906,828.125 Q899.9063,827.625 899.2188,826.5547 Q898.5313,825.4844 898.5313,824.2031 L898.5313,823.0469 Q898.5313,821.7188 899.1484,820.5703 Q899.7656,819.4219 900.8594,818.8047 Q901.9531,818.1875 903.1875,818.1875 Q903.9219,818.1875 904.5703,818.3516 Q905.2188,818.5156 905.7656,818.875 Z " fill="#000000"/><text fill="#000000" font-family="sans-serif" font-size="14" lengthAdjust="spacing" textLength="85" x="917" y="828.7285">PoliticalAgent</text><line style="stroke:#181818;stroke-width:0.5;" x1="889" x2="1004" y1="839" y2="839"/><text fill="#000000" font-family="sans-serif" font-size="14" lengthAdjust="spacing" textLength="89" x="894" y="857.5332">-name : String</text><text fill="#000000" font-family="sans-serif" font-size="14" lengthAdjust="spacing" textLength="83" x="894" y="875.1426">-taxId : String</text><line style="stroke:#181818;stroke-width:0.5;" x1="889" x2="1004" y1="882.2188" y2="882.2188"/></g><!--class PoliticalMandate--><g id="elem_PoliticalMandate"><rect codeLine="39" fill="#F1F1F1" height="83.2188" id="PoliticalMandate" rx="2.5" ry="2.5" style="stroke:#181818;stroke-width:0.5;" width="151" x="787" y="968"/><ellipse cx="809.2" cy="984" fill="#ADD1B2" rx="11" ry="11" style="stroke:#181818;stroke-width:1.0;"/><path d="M811.9656,979.875 Q812.1219,979.6563 812.3094,979.5469 Q812.4969,979.4375 812.7156,979.4375 Q813.0906,979.4375 813.325,979.6953 Q813.5594,979.9531 813.5594,980.5625 L813.5594,982.0156 Q813.5594,982.625 813.325,982.8906 Q813.0906,983.1563 812.7156,983.1563 Q812.3719,983.1563 812.1688,982.9531 Q811.9656,982.7656 811.8563,982.25 Q811.8094,981.8906 811.6219,981.7031 Q811.2938,981.3281 810.6844,981.1094 Q810.075,980.8906 809.45,980.8906 Q808.6844,980.8906 808.0516,981.2188 Q807.4188,981.5469 806.9266,982.2969 Q806.4344,983.0469 806.4344,984.0781 L806.4344,985.1719 Q806.4344,986.4063 807.325,987.2266 Q808.2156,988.0469 809.8094,988.0469 Q810.7469,988.0469 811.4031,987.7969 Q811.7938,987.6406 812.2156,987.2031 Q812.4813,986.9375 812.6297,986.8594 Q812.7781,986.7813 812.9813,986.7813 Q813.3094,986.7813 813.5672,987.0391 Q813.825,987.2969 813.825,987.6406 Q813.825,987.9844 813.4813,988.3906 Q812.9813,988.9688 812.1844,989.2969 Q811.1063,989.75 809.8094,989.75 Q808.2938,989.75 807.0906,989.125 Q806.1063,988.625 805.4188,987.5547 Q804.7313,986.4844 804.7313,985.2031 L804.7313,984.0469 Q804.7313,982.7188 805.3484,981.5703 Q805.9656,980.4219 807.0594,979.8047 Q808.1531,979.1875 809.3875,979.1875 Q810.1219,979.1875 810.7703,979.3516 Q811.4188,979.5156 811.9656,979.875 Z " fill="#000000"/><text fill="#000000" font-family="sans-serif" font-size="14" lengthAdjust="spacing" textLength="103" x="824.8" y="989.7285">PoliticalMandate</text><line style="stroke:#181818;stroke-width:0.5;" x1="788" x2="937" y1="1000" y2="1000"/><text fill="#000000" font-family="sans-serif" font-size="14" lengthAdjust="spacing" textLength="139" x="793" y="1018.5332">-startDate : LocalDate</text><text fill="#000000" font-family="sans-serif" font-size="14" lengthAdjust="spacing" textLength="135" x="793" y="1036.1426">-endDate : LocalDate</text><line style="stroke:#181818;stroke-width:0.5;" x1="788" x2="937" y1="1043.2188" y2="1043.2188"/></g><!--class Role--><g id="elem_Role"><rect codeLine="44" fill="#F1F1F1" height="65.6094" id="Role" rx="2.5" ry="2.5" style="stroke:#181818;stroke-width:0.5;" width="139" x="776" y="1146.5"/><ellipse cx="826.75" cy="1162.5" fill="#ADD1B2" rx="11" ry="11" style="stroke:#181818;stroke-width:1.0;"/><path d="M829.5156,1158.375 Q829.6719,1158.1563 829.8594,1158.0469 Q830.0469,1157.9375 830.2656,1157.9375 Q830.6406,1157.9375 830.875,1158.1953 Q831.1094,1158.4531 831.1094,1159.0625 L831.1094,1160.5156 Q831.1094,1161.125 830.875,1161.3906 Q830.6406,1161.6563 830.2656,1161.6563 Q829.9219,1161.6563 829.7188,1161.4531 Q829.5156,1161.2656 829.4063,1160.75 Q829.3594,1160.3906 829.1719,1160.2031 Q828.8438,1159.8281 828.2344,1159.6094 Q827.625,1159.3906 827,1159.3906 Q826.2344,1159.3906 825.6016,1159.7188 Q824.9688,1160.0469 824.4766,1160.7969 Q823.9844,1161.5469 823.9844,1162.5781 L823.9844,1163.6719 Q823.9844,1164.9063 824.875,1165.7266 Q825.7656,1166.5469 827.3594,1166.5469 Q828.2969,1166.5469 828.9531,1166.2969 Q829.3438,1166.1406 829.7656,1165.7031 Q830.0313,1165.4375 830.1797,1165.3594 Q830.3281,1165.2813 830.5313,1165.2813 Q830.8594,1165.2813 831.1172,1165.5391 Q831.375,1165.7969 831.375,1166.1406 Q831.375,1166.4844 831.0313,1166.8906 Q830.5313,1167.4688 829.7344,1167.7969 Q828.6563,1168.25 827.3594,1168.25 Q825.8438,1168.25 824.6406,1167.625 Q823.6563,1167.125 822.9688,1166.0547 Q822.2813,1164.9844 822.2813,1163.7031 L822.2813,1162.5469 Q822.2813,1161.2188 822.8984,1160.0703 Q823.5156,1158.9219 824.6094,1158.3047 Q825.7031,1157.6875 826.9375,1157.6875 Q827.6719,1157.6875 828.3203,1157.8516 Q828.9688,1158.0156 829.5156,1158.375 Z " fill="#000000"/><text fill="#000000" font-family="sans-serif" font-size="14" lengthAdjust="spacing" textLength="29" x="847.25" y="1168.2285">Role</text><line style="stroke:#181818;stroke-width:0.5;" x1="777" x2="914" y1="1178.5" y2="1178.5"/><text fill="#000000" font-family="sans-serif" font-size="14" lengthAdjust="spacing" textLength="127" x="782" y="1197.0332">-designation : String</text><line style="stroke:#181818;stroke-width:0.5;" x1="777" x2="914" y1="1204.1094" y2="1204.1094"/></g><!--class Section--><g id="elem_Section"><rect codeLine="48" fill="#F1F1F1" height="48" id="Section" rx="2.5" ry="2.5" style="stroke:#181818;stroke-width:0.5;" width="79" x="1130" y="1155.5"/><ellipse cx="1145" cy="1171.5" fill="#A9DCDF" rx="11" ry="11" style="stroke:#181818;stroke-width:1.0;"/><path d="M1147.1875,1173.2656 L1143.0469,1173.2656 L1142.625,1174.2969 L1143.0469,1174.2969 Q1143.6563,1174.2969 1143.9219,1174.5313 Q1144.1875,1174.7656 1144.1875,1175.1563 Q1144.1875,1175.5313 1143.9219,1175.7656 Q1143.6563,1176 1143.0469,1176 L1140.75,1176 Q1140.1406,1176 1139.8828,1175.7656 Q1139.625,1175.5313 1139.625,1175.1406 Q1139.625,1174.7656 1139.8984,1174.5234 Q1140.1719,1174.2813 1140.7969,1174.2969 L1143.4688,1167.6406 L1142.3594,1167.6406 Q1141.75,1167.6406 1141.4844,1167.4063 Q1141.2188,1167.1719 1141.2188,1166.7813 Q1141.2188,1166.4063 1141.4844,1166.1719 Q1141.75,1165.9375 1142.3594,1165.9375 L1146.0313,1165.9375 L1149.4219,1174.2969 Q1150.0156,1174.2969 1150.2031,1174.4375 Q1150.5938,1174.7031 1150.5938,1175.1563 Q1150.5938,1175.5313 1150.3359,1175.7656 Q1150.0781,1176 1149.4688,1176 L1147.1719,1176 Q1146.5625,1176 1146.2969,1175.7656 Q1146.0313,1175.5313 1146.0313,1175.1406 Q1146.0313,1174.7656 1146.2969,1174.5313 Q1146.5625,1174.2969 1147.1719,1174.2969 L1147.5938,1174.2969 L1147.1875,1173.2656 Z M1146.4688,1171.5625 L1145.1094,1168.1875 L1143.7344,1171.5625 L1146.4688,1171.5625 Z " fill="#000000"/><text fill="#000000" font-family="sans-serif" font-size="14" font-style="italic" lengthAdjust="spacing" textLength="47" x="1159" y="1177.2285">Section</text><line style="stroke:#181818;stroke-width:0.5;" x1="1131" x2="1208" y1="1187.5" y2="1187.5"/><line style="stroke:#181818;stroke-width:0.5;" x1="1131" x2="1208" y1="1195.5" y2="1195.5"/></g><!--class IncomeSection--><g id="elem_IncomeSection"><rect codeLine="51" fill="#F1F1F1" height="48" id="IncomeSection" rx="2.5" ry="2.5" style="stroke:#181818;stroke-width:0.5;" width="124" x="874.5" y="1291"/><ellipse cx="889.5" cy="1307" fill="#ADD1B2" rx="11" ry="11" style="stroke:#181818;stroke-width:1.0;"/><path d="M892.2656,1302.875 Q892.4219,1302.6563 892.6094,1302.5469 Q892.7969,1302.4375 893.0156,1302.4375 Q893.3906,1302.4375 893.625,1302.6953 Q893.8594,1302.9531 893.8594,1303.5625 L893.8594,1305.0156 Q893.8594,1305.625 893.625,1305.8906 Q893.3906,1306.1563 893.0156,1306.1563 Q892.6719,1306.1563 892.4688,1305.9531 Q892.2656,1305.7656 892.1563,1305.25 Q892.1094,1304.8906 891.9219,1304.7031 Q891.5938,1304.3281 890.9844,1304.1094 Q890.375,1303.8906 889.75,1303.8906 Q888.9844,1303.8906 888.3516,1304.2188 Q887.7188,1304.5469 887.2266,1305.2969 Q886.7344,1306.0469 886.7344,1307.0781 L886.7344,1308.1719 Q886.7344,1309.4063 887.625,1310.2266 Q888.5156,1311.0469 890.1094,1311.0469 Q891.0469,1311.0469 891.7031,1310.7969 Q892.0938,1310.6406 892.5156,1310.2031 Q892.7813,1309.9375 892.9297,1309.8594 Q893.0781,1309.7813 893.2813,1309.7813 Q893.6094,1309.7813 893.8672,1310.0391 Q894.125,1310.2969 894.125,1310.6406 Q894.125,1310.9844 893.7813,1311.3906 Q893.2813,1311.9688 892.4844,1312.2969 Q891.4063,1312.75 890.1094,1312.75 Q888.5938,1312.75 887.3906,1312.125 Q886.4063,1311.625 885.7188,1310.5547 Q885.0313,1309.4844 885.0313,1308.2031 L885.0313,1307.0469 Q885.0313,1305.7188 885.6484,1304.5703 Q886.2656,1303.4219 887.3594,1302.8047 Q888.4531,1302.1875 889.6875,1302.1875 Q890.4219,1302.1875 891.0703,1302.3516 Q891.7188,1302.5156 892.2656,1302.875 Z " fill="#000000"/><text fill="#000000" font-family="sans-serif" font-size="14" lengthAdjust="spacing" textLength="92" x="903.5" y="1312.7285">IncomeSection</text><line style="stroke:#181818;stroke-width:0.5;" x1="875.5" x2="997.5" y1="1323" y2="1323"/><line style="stroke:#181818;stroke-width:0.5;" x1="875.5" x2="997.5" y1="1331" y2="1331"/></g><!--class AssetSection--><g id="elem_AssetSection"><rect codeLine="54" fill="#F1F1F1" height="48" id="AssetSection" rx="2.5" ry="2.5" style="stroke:#181818;stroke-width:0.5;" width="114" x="1033.5" y="1291"/><ellipse cx="1048.5" cy="1307" fill="#ADD1B2" rx="11" ry="11" style="stroke:#181818;stroke-width:1.0;"/><path d="M1051.2656,1302.875 Q1051.4219,1302.6563 1051.6094,1302.5469 Q1051.7969,1302.4375 1052.0156,1302.4375 Q1052.3906,1302.4375 1052.625,1302.6953 Q1052.8594,1302.9531 1052.8594,1303.5625 L1052.8594,1305.0156 Q1052.8594,1305.625 1052.625,1305.8906 Q1052.3906,1306.1563 1052.0156,1306.1563 Q1051.6719,1306.1563 1051.4688,1305.9531 Q1051.2656,1305.7656 1051.1563,1305.25 Q1051.1094,1304.8906 1050.9219,1304.7031 Q1050.5938,1304.3281 1049.9844,1304.1094 Q1049.375,1303.8906 1048.75,1303.8906 Q1047.9844,1303.8906 1047.3516,1304.2188 Q1046.7188,1304.5469 1046.2266,1305.2969 Q1045.7344,1306.0469 1045.7344,1307.0781 L1045.7344,1308.1719 Q1045.7344,1309.4063 1046.625,1310.2266 Q1047.5156,1311.0469 1049.1094,1311.0469 Q1050.0469,1311.0469 1050.7031,1310.7969 Q1051.0938,1310.6406 1051.5156,1310.2031 Q1051.7813,1309.9375 1051.9297,1309.8594 Q1052.0781,1309.7813 1052.2813,1309.7813 Q1052.6094,1309.7813 1052.8672,1310.0391 Q1053.125,1310.2969 1053.125,1310.6406 Q1053.125,1310.9844 1052.7813,1311.3906 Q1052.2813,1311.9688 1051.4844,1312.2969 Q1050.4063,1312.75 1049.1094,1312.75 Q1047.5938,1312.75 1046.3906,1312.125 Q1045.4063,1311.625 1044.7188,1310.5547 Q1044.0313,1309.4844 1044.0313,1308.2031 L1044.0313,1307.0469 Q1044.0313,1305.7188 1044.6484,1304.5703 Q1045.2656,1303.4219 1046.3594,1302.8047 Q1047.4531,1302.1875 1048.6875,1302.1875 Q1049.4219,1302.1875 1050.0703,1302.3516 Q1050.7188,1302.5156 1051.2656,1302.875 Z " fill="#000000"/><text fill="#000000" font-family="sans-serif" font-size="14" lengthAdjust="spacing" textLength="82" x="1062.5" y="1312.7285">AssetSection</text><line style="stroke:#181818;stroke-width:0.5;" x1="1034.5" x2="1146.5" y1="1323" y2="1323"/><line style="stroke:#181818;stroke-width:0.5;" x1="1034.5" x2="1146.5" y1="1331" y2="1331"/></g><!--class PositionSection--><g id="elem_PositionSection"><rect codeLine="57" fill="#F1F1F1" height="48" id="PositionSection" rx="2.5" ry="2.5" style="stroke:#181818;stroke-width:0.5;" width="129" x="1183" y="1291"/><ellipse cx="1198" cy="1307" fill="#ADD1B2" rx="11" ry="11" style="stroke:#181818;stroke-width:1.0;"/><path d="M1200.7656,1302.875 Q1200.9219,1302.6563 1201.1094,1302.5469 Q1201.2969,1302.4375 1201.5156,1302.4375 Q1201.8906,1302.4375 1202.125,1302.6953 Q1202.3594,1302.9531 1202.3594,1303.5625 L1202.3594,1305.0156 Q1202.3594,1305.625 1202.125,1305.8906 Q1201.8906,1306.1563 1201.5156,1306.1563 Q1201.1719,1306.1563 1200.9688,1305.9531 Q1200.7656,1305.7656 1200.6563,1305.25 Q1200.6094,1304.8906 1200.4219,1304.7031 Q1200.0938,1304.3281 1199.4844,1304.1094 Q1198.875,1303.8906 1198.25,1303.8906 Q1197.4844,1303.8906 1196.8516,1304.2188 Q1196.2188,1304.5469 1195.7266,1305.2969 Q1195.2344,1306.0469 1195.2344,1307.0781 L1195.2344,1308.1719 Q1195.2344,1309.4063 1196.125,1310.2266 Q1197.0156,1311.0469 1198.6094,1311.0469 Q1199.5469,1311.0469 1200.2031,1310.7969 Q1200.5938,1310.6406 1201.0156,1310.2031 Q1201.2813,1309.9375 1201.4297,1309.8594 Q1201.5781,1309.7813 1201.7813,1309.7813 Q1202.1094,1309.7813 1202.3672,1310.0391 Q1202.625,1310.2969 1202.625,1310.6406 Q1202.625,1310.9844 1202.2813,1311.3906 Q1201.7813,1311.9688 1200.9844,1312.2969 Q1199.9063,1312.75 1198.6094,1312.75 Q1197.0938,1312.75 1195.8906,1312.125 Q1194.9063,1311.625 1194.2188,1310.5547 Q1193.5313,1309.4844 1193.5313,1308.2031 L1193.5313,1307.0469 Q1193.5313,1305.7188 1194.1484,1304.5703 Q1194.7656,1303.4219 1195.8594,1302.8047 Q1196.9531,1302.1875 1198.1875,1302.1875 Q1198.9219,1302.1875 1199.5703,1302.3516 Q1200.2188,1302.5156 1200.7656,1302.875 Z " fill="#000000"/><text fill="#000000" font-family="sans-serif" font-size="14" lengthAdjust="spacing" textLength="97" x="1212" y="1312.7285">PositionSection</text><line style="stroke:#181818;stroke-width:0.5;" x1="1184" x2="1311" y1="1323" y2="1323"/><line style="stroke:#181818;stroke-width:0.5;" x1="1184" x2="1311" y1="1331" y2="1331"/></g><!--class ShareholdingSection--><g id="elem_ShareholdingSection"><rect codeLine="60" fill="#F1F1F1" height="48" id="ShareholdingSection" rx="2.5" ry="2.5" style="stroke:#181818;stroke-width:0.5;" width="163" x="1347" y="1291"/><ellipse cx="1362" cy="1307" fill="#ADD1B2" rx="11" ry="11" style="stroke:#181818;stroke-width:1.0;"/><path d="M1364.7656,1302.875 Q1364.9219,1302.6563 1365.1094,1302.5469 Q1365.2969,1302.4375 1365.5156,1302.4375 Q1365.8906,1302.4375 1366.125,1302.6953 Q1366.3594,1302.9531 1366.3594,1303.5625 L1366.3594,1305.0156 Q1366.3594,1305.625 1366.125,1305.8906 Q1365.8906,1306.1563 1365.5156,1306.1563 Q1365.1719,1306.1563 1364.9688,1305.9531 Q1364.7656,1305.7656 1364.6563,1305.25 Q1364.6094,1304.8906 1364.4219,1304.7031 Q1364.0938,1304.3281 1363.4844,1304.1094 Q1362.875,1303.8906 1362.25,1303.8906 Q1361.4844,1303.8906 1360.8516,1304.2188 Q1360.2188,1304.5469 1359.7266,1305.2969 Q1359.2344,1306.0469 1359.2344,1307.0781 L1359.2344,1308.1719 Q1359.2344,1309.4063 1360.125,1310.2266 Q1361.0156,1311.0469 1362.6094,1311.0469 Q1363.5469,1311.0469 1364.2031,1310.7969 Q1364.5938,1310.6406 1365.0156,1310.2031 Q1365.2813,1309.9375 1365.4297,1309.8594 Q1365.5781,1309.7813 1365.7813,1309.7813 Q1366.1094,1309.7813 1366.3672,1310.0391 Q1366.625,1310.2969 1366.625,1310.6406 Q1366.625,1310.9844 1366.2813,1311.3906 Q1365.7813,1311.9688 1364.9844,1312.2969 Q1363.9063,1312.75 1362.6094,1312.75 Q1361.0938,1312.75 1359.8906,1312.125 Q1358.9063,1311.625 1358.2188,1310.5547 Q1357.5313,1309.4844 1357.5313,1308.2031 L1357.5313,1307.0469 Q1357.5313,1305.7188 1358.1484,1304.5703 Q1358.7656,1303.4219 1359.8594,1302.8047 Q1360.9531,1302.1875 1362.1875,1302.1875 Q1362.9219,1302.1875 1363.5703,1302.3516 Q1364.2188,1302.5156 1364.7656,1302.875 Z " fill="#000000"/><text fill="#000000" font-family="sans-serif" font-size="14" lengthAdjust="spacing" textLength="131" x="1376" y="1312.7285">ShareholdingSection</text><line style="stroke:#181818;stroke-width:0.5;" x1="1348" x2="1509" y1="1323" y2="1323"/><line style="stroke:#181818;stroke-width:0.5;" x1="1348" x2="1509" y1="1331" y2="1331"/></g><!--class Declaration--><g id="elem_Declaration"><rect codeLine="63" fill="#F1F1F1" height="83.2188" id="Declaration" rx="2.5" ry="2.5" style="stroke:#181818;stroke-width:0.5;" width="215" x="1013" y="968"/><ellipse cx="1080.25" cy="984" fill="#ADD1B2" rx="11" ry="11" style="stroke:#181818;stroke-width:1.0;"/><path d="M1083.0156,979.875 Q1083.1719,979.6563 1083.3594,979.5469 Q1083.5469,979.4375 1083.7656,979.4375 Q1084.1406,979.4375 1084.375,979.6953 Q1084.6094,979.9531 1084.6094,980.5625 L1084.6094,982.0156 Q1084.6094,982.625 1084.375,982.8906 Q1084.1406,983.1563 1083.7656,983.1563 Q1083.4219,983.1563 1083.2188,982.9531 Q1083.0156,982.7656 1082.9063,982.25 Q1082.8594,981.8906 1082.6719,981.7031 Q1082.3438,981.3281 1081.7344,981.1094 Q1081.125,980.8906 1080.5,980.8906 Q1079.7344,980.8906 1079.1016,981.2188 Q1078.4688,981.5469 1077.9766,982.2969 Q1077.4844,983.0469 1077.4844,984.0781 L1077.4844,985.1719 Q1077.4844,986.4063 1078.375,987.2266 Q1079.2656,988.0469 1080.8594,988.0469 Q1081.7969,988.0469 1082.4531,987.7969 Q1082.8438,987.6406 1083.2656,987.2031 Q1083.5313,986.9375 1083.6797,986.8594 Q1083.8281,986.7813 1084.0313,986.7813 Q1084.3594,986.7813 1084.6172,987.0391 Q1084.875,987.2969 1084.875,987.6406 Q1084.875,987.9844 1084.5313,988.3906 Q1084.0313,988.9688 1083.2344,989.2969 Q1082.1563,989.75 1080.8594,989.75 Q1079.3438,989.75 1078.1406,989.125 Q1077.1563,988.625 1076.4688,987.5547 Q1075.7813,986.4844 1075.7813,985.2031 L1075.7813,984.0469 Q1075.7813,982.7188 1076.3984,981.5703 Q1077.0156,980.4219 1078.1094,979.8047 Q1079.2031,979.1875 1080.4375,979.1875 Q1081.1719,979.1875 1081.8203,979.3516 Q1082.4688,979.5156 1083.0156,979.875 Z " fill="#000000"/><text fill="#000000" font-family="sans-serif" font-size="14" lengthAdjust="spacing" textLength="72" x="1100.75" y="989.7285">Declaration</text><line style="stroke:#181818;stroke-width:0.5;" x1="1014" x2="1227" y1="1000" y2="1000"/><text fill="#000000" font-family="sans-serif" font-size="14" lengthAdjust="spacing" textLength="181" x="1019" y="1018.5332">-submissionDate : LocalDate</text><line style="stroke:#181818;stroke-width:0.5;" x1="1014" x2="1227" y1="1025.6094" y2="1025.6094"/><text fill="#000000" font-family="sans-serif" font-size="14" lengthAdjust="spacing" textLength="203" x="1019" y="1044.1426">+isApplicableOn(referenceDate)</text></g><!--class IntegratedSituation--><g id="elem_IntegratedSituation"><rect codeLine="69" fill="#F1F1F1" height="171.2656" id="IntegratedSituation" rx="2.5" ry="2.5" style="stroke:#181818;stroke-width:0.5;" width="332" x="428.5" y="558"/><ellipse cx="530.75" cy="574" fill="#ADD1B2" rx="11" ry="11" style="stroke:#181818;stroke-width:1.0;"/><path d="M533.5156,569.875 Q533.6719,569.6563 533.8594,569.5469 Q534.0469,569.4375 534.2656,569.4375 Q534.6406,569.4375 534.875,569.6953 Q535.1094,569.9531 535.1094,570.5625 L535.1094,572.0156 Q535.1094,572.625 534.875,572.8906 Q534.6406,573.1563 534.2656,573.1563 Q533.9219,573.1563 533.7188,572.9531 Q533.5156,572.7656 533.4063,572.25 Q533.3594,571.8906 533.1719,571.7031 Q532.8438,571.3281 532.2344,571.1094 Q531.625,570.8906 531,570.8906 Q530.2344,570.8906 529.6016,571.2188 Q528.9688,571.5469 528.4766,572.2969 Q527.9844,573.0469 527.9844,574.0781 L527.9844,575.1719 Q527.9844,576.4063 528.875,577.2266 Q529.7656,578.0469 531.3594,578.0469 Q532.2969,578.0469 532.9531,577.7969 Q533.3438,577.6406 533.7656,577.2031 Q534.0313,576.9375 534.1797,576.8594 Q534.3281,576.7813 534.5313,576.7813 Q534.8594,576.7813 535.1172,577.0391 Q535.375,577.2969 535.375,577.6406 Q535.375,577.9844 535.0313,578.3906 Q534.5313,578.9688 533.7344,579.2969 Q532.6563,579.75 531.3594,579.75 Q529.8438,579.75 528.6406,579.125 Q527.6563,578.625 526.9688,577.5547 Q526.2813,576.4844 526.2813,575.2031 L526.2813,574.0469 Q526.2813,572.7188 526.8984,571.5703 Q527.5156,570.4219 528.6094,569.8047 Q529.7031,569.1875 530.9375,569.1875 Q531.6719,569.1875 532.3203,569.3516 Q532.9688,569.5156 533.5156,569.875 Z " fill="#000000"/><text fill="#000000" font-family="sans-serif" font-size="14" lengthAdjust="spacing" textLength="119" x="551.25" y="579.7285">IntegratedSituation</text><line style="stroke:#181818;stroke-width:0.5;" x1="429.5" x2="759.5" y1="590" y2="590"/><text fill="#000000" font-family="sans-serif" font-size="14" lengthAdjust="spacing" textLength="172" x="434.5" y="608.5332">-referenceDate : LocalDate</text><text fill="#000000" font-family="sans-serif" font-size="14" lengthAdjust="spacing" textLength="132" x="434.5" y="626.1426">-totalIncome : double</text><text fill="#000000" font-family="sans-serif" font-size="14" lengthAdjust="spacing" textLength="208" x="434.5" y="643.752">-totalAssetsMarketValue : double</text><text fill="#000000" font-family="sans-serif" font-size="14" lengthAdjust="spacing" textLength="126" x="434.5" y="661.3613">-activePositions : int</text><text fill="#000000" font-family="sans-serif" font-size="14" lengthAdjust="spacing" textLength="214" x="434.5" y="678.9707">-totalShareholdingsValue : double</text><line style="stroke:#181818;stroke-width:0.5;" x1="429.5" x2="759.5" y1="686.0469" y2="686.0469"/><text fill="#000000" font-family="sans-serif" font-size="14" lengthAdjust="spacing" textLength="320" x="434.5" y="704.5801">+IntegratedSituation(politicalAgent, referenceDate)</text><text fill="#000000" font-family="sans-serif" font-size="14" lengthAdjust="spacing" textLength="272" x="434.5" y="722.1895">+aggregateFromDeclarations(declarations)</text></g><!--class DeclarationRepository--><g id="elem_DeclarationRepository"><rect codeLine="80" fill="#F1F1F1" height="65.6094" id="DeclarationRepository" rx="2.5" ry="2.5" style="stroke:#181818;stroke-width:0.5;" width="470" x="1074.5" y="252.5"/><ellipse cx="1235.25" cy="268.5" fill="#ADD1B2" rx="11" ry="11" style="stroke:#181818;stroke-width:1.0;"/><path d="M1238.0156,264.375 Q1238.1719,264.1563 1238.3594,264.0469 Q1238.5469,263.9375 1238.7656,263.9375 Q1239.1406,263.9375 1239.375,264.1953 Q1239.6094,264.4531 1239.6094,265.0625 L1239.6094,266.5156 Q1239.6094,267.125 1239.375,267.3906 Q1239.1406,267.6563 1238.7656,267.6563 Q1238.4219,267.6563 1238.2188,267.4531 Q1238.0156,267.2656 1237.9063,266.75 Q1237.8594,266.3906 1237.6719,266.2031 Q1237.3438,265.8281 1236.7344,265.6094 Q1236.125,265.3906 1235.5,265.3906 Q1234.7344,265.3906 1234.1016,265.7188 Q1233.4688,266.0469 1232.9766,266.7969 Q1232.4844,267.5469 1232.4844,268.5781 L1232.4844,269.6719 Q1232.4844,270.9063 1233.375,271.7266 Q1234.2656,272.5469 1235.8594,272.5469 Q1236.7969,272.5469 1237.4531,272.2969 Q1237.8438,272.1406 1238.2656,271.7031 Q1238.5313,271.4375 1238.6797,271.3594 Q1238.8281,271.2813 1239.0313,271.2813 Q1239.3594,271.2813 1239.6172,271.5391 Q1239.875,271.7969 1239.875,272.1406 Q1239.875,272.4844 1239.5313,272.8906 Q1239.0313,273.4688 1238.2344,273.7969 Q1237.1563,274.25 1235.8594,274.25 Q1234.3438,274.25 1233.1406,273.625 Q1232.1563,273.125 1231.4688,272.0547 Q1230.7813,270.9844 1230.7813,269.7031 L1230.7813,268.5469 Q1230.7813,267.2188 1231.3984,266.0703 Q1232.0156,264.9219 1233.1094,264.3047 Q1234.2031,263.6875 1235.4375,263.6875 Q1236.1719,263.6875 1236.8203,263.8516 Q1237.4688,264.0156 1238.0156,264.375 Z " fill="#000000"/><text fill="#000000" font-family="sans-serif" font-size="14" lengthAdjust="spacing" textLength="140" x="1255.75" y="274.2285">DeclarationRepository</text><line style="stroke:#181818;stroke-width:0.5;" x1="1075.5" x2="1543.5" y1="284.5" y2="284.5"/><line style="stroke:#181818;stroke-width:0.5;" x1="1075.5" x2="1543.5" y1="292.5" y2="292.5"/><text fill="#000000" font-family="sans-serif" font-size="14" lengthAdjust="spacing" textLength="458" x="1080.5" y="311.0332">+getDeclarationsByPoliticalAgentUntilDate(politicalAgent, referenceDate)</text></g><!--class PoliticalAgentRepository--><g id="elem_PoliticalAgentRepository"><rect codeLine="84" fill="#F1F1F1" height="65.6094" id="PoliticalAgentRepository" rx="2.5" ry="2.5" style="stroke:#181818;stroke-width:0.5;" width="185" x="854" y="252.5"/><ellipse cx="869" cy="268.5" fill="#ADD1B2" rx="11" ry="11" style="stroke:#181818;stroke-width:1.0;"/><path d="M871.7656,264.375 Q871.9219,264.1563 872.1094,264.0469 Q872.2969,263.9375 872.5156,263.9375 Q872.8906,263.9375 873.125,264.1953 Q873.3594,264.4531 873.3594,265.0625 L873.3594,266.5156 Q873.3594,267.125 873.125,267.3906 Q872.8906,267.6563 872.5156,267.6563 Q872.1719,267.6563 871.9688,267.4531 Q871.7656,267.2656 871.6563,266.75 Q871.6094,266.3906 871.4219,266.2031 Q871.0938,265.8281 870.4844,265.6094 Q869.875,265.3906 869.25,265.3906 Q868.4844,265.3906 867.8516,265.7188 Q867.2188,266.0469 866.7266,266.7969 Q866.2344,267.5469 866.2344,268.5781 L866.2344,269.6719 Q866.2344,270.9063 867.125,271.7266 Q868.0156,272.5469 869.6094,272.5469 Q870.5469,272.5469 871.2031,272.2969 Q871.5938,272.1406 872.0156,271.7031 Q872.2813,271.4375 872.4297,271.3594 Q872.5781,271.2813 872.7813,271.2813 Q873.1094,271.2813 873.3672,271.5391 Q873.625,271.7969 873.625,272.1406 Q873.625,272.4844 873.2813,272.8906 Q872.7813,273.4688 871.9844,273.7969 Q870.9063,274.25 869.6094,274.25 Q868.0938,274.25 866.8906,273.625 Q865.9063,273.125 865.2188,272.0547 Q864.5313,270.9844 864.5313,269.7031 L864.5313,268.5469 Q864.5313,267.2188 865.1484,266.0703 Q865.7656,264.9219 866.8594,264.3047 Q867.9531,263.6875 869.1875,263.6875 Q869.9219,263.6875 870.5703,263.8516 Q871.2188,264.0156 871.7656,264.375 Z " fill="#000000"/><text fill="#000000" font-family="sans-serif" font-size="14" lengthAdjust="spacing" textLength="153" x="883" y="274.2285">PoliticalAgentRepository</text><line style="stroke:#181818;stroke-width:0.5;" x1="855" x2="1038" y1="284.5" y2="284.5"/><line style="stroke:#181818;stroke-width:0.5;" x1="855" x2="1038" y1="292.5" y2="292.5"/><text fill="#000000" font-family="sans-serif" font-size="14" lengthAdjust="spacing" textLength="130" x="860" y="311.0332">+getPoliticalAgents()</text></g><!--class UserRepository--><g id="elem_UserRepository"><rect codeLine="88" fill="#F1F1F1" height="65.6094" id="UserRepository" rx="2.5" ry="2.5" style="stroke:#181818;stroke-width:0.5;" width="289" x="530" y="252.5"/><ellipse cx="621.75" cy="268.5" fill="#ADD1B2" rx="11" ry="11" style="stroke:#181818;stroke-width:1.0;"/><path d="M624.5156,264.375 Q624.6719,264.1563 624.8594,264.0469 Q625.0469,263.9375 625.2656,263.9375 Q625.6406,263.9375 625.875,264.1953 Q626.1094,264.4531 626.1094,265.0625 L626.1094,266.5156 Q626.1094,267.125 625.875,267.3906 Q625.6406,267.6563 625.2656,267.6563 Q624.9219,267.6563 624.7188,267.4531 Q624.5156,267.2656 624.4063,266.75 Q624.3594,266.3906 624.1719,266.2031 Q623.8438,265.8281 623.2344,265.6094 Q622.625,265.3906 622,265.3906 Q621.2344,265.3906 620.6016,265.7188 Q619.9688,266.0469 619.4766,266.7969 Q618.9844,267.5469 618.9844,268.5781 L618.9844,269.6719 Q618.9844,270.9063 619.875,271.7266 Q620.7656,272.5469 622.3594,272.5469 Q623.2969,272.5469 623.9531,272.2969 Q624.3438,272.1406 624.7656,271.7031 Q625.0313,271.4375 625.1797,271.3594 Q625.3281,271.2813 625.5313,271.2813 Q625.8594,271.2813 626.1172,271.5391 Q626.375,271.7969 626.375,272.1406 Q626.375,272.4844 626.0313,272.8906 Q625.5313,273.4688 624.7344,273.7969 Q623.6563,274.25 622.3594,274.25 Q620.8438,274.25 619.6406,273.625 Q618.6563,273.125 617.9688,272.0547 Q617.2813,270.9844 617.2813,269.7031 L617.2813,268.5469 Q617.2813,267.2188 617.8984,266.0703 Q618.5156,264.9219 619.6094,264.3047 Q620.7031,263.6875 621.9375,263.6875 Q622.6719,263.6875 623.3203,263.8516 Q623.9688,264.0156 624.5156,264.375 Z " fill="#000000"/><text fill="#000000" font-family="sans-serif" font-size="14" lengthAdjust="spacing" textLength="97" x="642.25" y="274.2285">UserRepository</text><line style="stroke:#181818;stroke-width:0.5;" x1="531" x2="818" y1="284.5" y2="284.5"/><line style="stroke:#181818;stroke-width:0.5;" x1="531" x2="818" y1="292.5" y2="292.5"/><text fill="#000000" font-family="sans-serif" font-size="14" lengthAdjust="spacing" textLength="277" x="536" y="311.0332">+getEthicsCommitteeMemberByEmail(email)</text></g><!--class Repositories--><g id="elem_Repositories"><rect codeLine="92" fill="#F1F1F1" height="136.0469" id="Repositories" rx="2.5" ry="2.5" style="stroke:#181818;stroke-width:0.5;" width="203" x="919" y="21"/><ellipse cx="976.75" cy="37" fill="#ADD1B2" rx="11" ry="11" style="stroke:#181818;stroke-width:1.0;"/><path d="M979.5156,32.875 Q979.6719,32.6563 979.8594,32.5469 Q980.0469,32.4375 980.2656,32.4375 Q980.6406,32.4375 980.875,32.6953 Q981.1094,32.9531 981.1094,33.5625 L981.1094,35.0156 Q981.1094,35.625 980.875,35.8906 Q980.6406,36.1563 980.2656,36.1563 Q979.9219,36.1563 979.7188,35.9531 Q979.5156,35.7656 979.4063,35.25 Q979.3594,34.8906 979.1719,34.7031 Q978.8438,34.3281 978.2344,34.1094 Q977.625,33.8906 977,33.8906 Q976.2344,33.8906 975.6016,34.2188 Q974.9688,34.5469 974.4766,35.2969 Q973.9844,36.0469 973.9844,37.0781 L973.9844,38.1719 Q973.9844,39.4063 974.875,40.2266 Q975.7656,41.0469 977.3594,41.0469 Q978.2969,41.0469 978.9531,40.7969 Q979.3438,40.6406 979.7656,40.2031 Q980.0313,39.9375 980.1797,39.8594 Q980.3281,39.7813 980.5313,39.7813 Q980.8594,39.7813 981.1172,40.0391 Q981.375,40.2969 981.375,40.6406 Q981.375,40.9844 981.0313,41.3906 Q980.5313,41.9688 979.7344,42.2969 Q978.6563,42.75 977.3594,42.75 Q975.8438,42.75 974.6406,42.125 Q973.6563,41.625 972.9688,40.5547 Q972.2813,39.4844 972.2813,38.2031 L972.2813,37.0469 Q972.2813,35.7188 972.8984,34.5703 Q973.5156,33.4219 974.6094,32.8047 Q975.7031,32.1875 976.9375,32.1875 Q977.6719,32.1875 978.3203,32.3516 Q978.9688,32.5156 979.5156,32.875 Z " fill="#000000"/><text fill="#000000" font-family="sans-serif" font-size="14" lengthAdjust="spacing" textLength="79" x="997.25" y="42.7285">Repositories</text><line style="stroke:#181818;stroke-width:0.5;" x1="920" x2="1121" y1="53" y2="53"/><line style="stroke:#181818;stroke-width:0.5;" x1="920" x2="1121" y1="61" y2="61"/><text fill="#000000" font-family="sans-serif" font-size="14" lengthAdjust="spacing" textLength="94" x="925" y="79.5332">-Repositories()</text><text fill="#000000" font-family="sans-serif" font-size="14" lengthAdjust="spacing" text-decoration="underline" textLength="91" x="925" y="97.1426">+getInstance()</text><text fill="#000000" font-family="sans-serif" font-size="14" lengthAdjust="spacing" textLength="178" x="925" y="114.752">+getDeclarationRepository()</text><text fill="#000000" font-family="sans-serif" font-size="14" lengthAdjust="spacing" textLength="191" x="925" y="132.3613">+getPoliticalAgentRepository()</text><text fill="#000000" font-family="sans-serif" font-size="14" lengthAdjust="spacing" textLength="135" x="925" y="149.9707">+getUserRepository()</text></g><!--class ConsultIntegratedSituationController--><g id="elem_ConsultIntegratedSituationController"><rect codeLine="100" fill="#F1F1F1" height="118.4375" id="ConsultIntegratedSituationController" rx="2.5" ry="2.5" style="stroke:#181818;stroke-width:0.5;" width="377" x="253" y="30"/><ellipse cx="322.75" cy="46" fill="#ADD1B2" rx="11" ry="11" style="stroke:#181818;stroke-width:1.0;"/><path d="M325.5156,41.875 Q325.6719,41.6563 325.8594,41.5469 Q326.0469,41.4375 326.2656,41.4375 Q326.6406,41.4375 326.875,41.6953 Q327.1094,41.9531 327.1094,42.5625 L327.1094,44.0156 Q327.1094,44.625 326.875,44.8906 Q326.6406,45.1563 326.2656,45.1563 Q325.9219,45.1563 325.7188,44.9531 Q325.5156,44.7656 325.4063,44.25 Q325.3594,43.8906 325.1719,43.7031 Q324.8438,43.3281 324.2344,43.1094 Q323.625,42.8906 323,42.8906 Q322.2344,42.8906 321.6016,43.2188 Q320.9688,43.5469 320.4766,44.2969 Q319.9844,45.0469 319.9844,46.0781 L319.9844,47.1719 Q319.9844,48.4063 320.875,49.2266 Q321.7656,50.0469 323.3594,50.0469 Q324.2969,50.0469 324.9531,49.7969 Q325.3438,49.6406 325.7656,49.2031 Q326.0313,48.9375 326.1797,48.8594 Q326.3281,48.7813 326.5313,48.7813 Q326.8594,48.7813 327.1172,49.0391 Q327.375,49.2969 327.375,49.6406 Q327.375,49.9844 327.0313,50.3906 Q326.5313,50.9688 325.7344,51.2969 Q324.6563,51.75 323.3594,51.75 Q321.8438,51.75 320.6406,51.125 Q319.6563,50.625 318.9688,49.5547 Q318.2813,48.4844 318.2813,47.2031 L318.2813,46.0469 Q318.2813,44.7188 318.8984,43.5703 Q319.5156,42.4219 320.6094,41.8047 Q321.7031,41.1875 322.9375,41.1875 Q323.6719,41.1875 324.3203,41.3516 Q324.9688,41.5156 325.5156,41.875 Z " fill="#000000"/><text fill="#000000" font-family="sans-serif" font-size="14" lengthAdjust="spacing" textLength="229" x="343.25" y="51.7285">ConsultIntegratedSituationController</text><line style="stroke:#181818;stroke-width:0.5;" x1="254" x2="629" y1="62" y2="62"/><line style="stroke:#181818;stroke-width:0.5;" x1="254" x2="629" y1="70" y2="70"/><text fill="#000000" font-family="sans-serif" font-size="14" lengthAdjust="spacing" textLength="247" x="259" y="88.5332">+ConsultIntegratedSituationController()</text><text fill="#000000" font-family="sans-serif" font-size="14" lengthAdjust="spacing" textLength="130" x="259" y="106.1426">+getPoliticalAgents()</text><text fill="#000000" font-family="sans-serif" font-size="14" lengthAdjust="spacing" textLength="365" x="259" y="123.752">+consultIntegratedSituation(politicalAgent, referenceDate)</text><text fill="#000000" font-family="sans-serif" font-size="14" lengthAdjust="spacing" textLength="274" x="259" y="141.3613">-getEthicsCommitteeMemberFromSession()</text></g><g id="elem_GMN22"><path d="M665.5,59.5 L665.5,118.5547 L883.5,118.5547 L883.5,69.5 L873.5,59.5 L665.5,59.5 " fill="#FEFFDD" style="stroke:#181818;stroke-width:0.5;"/><path d="M873.5,59.5 L873.5,69.5 L883.5,69.5 L873.5,59.5 " fill="#FEFFDD" style="stroke:#181818;stroke-width:1.0;"/><text fill="#000000" font-family="sans-serif" font-size="13" lengthAdjust="spacing" textLength="197" x="671.5" y="77.9951">The controller coordinates retrieval</text><text fill="#000000" font-family="sans-serif" font-size="13" lengthAdjust="spacing" textLength="187" x="671.5" y="94.3467">and consolidation for a read-only</text><text fill="#000000" font-family="sans-serif" font-size="13" lengthAdjust="spacing" textLength="100" x="671.5" y="110.6982">consultation flow.</text></g><g id="elem_GMN25"><path d="M1195,417.5 L1195,476.5547 A0,0 0 0 0 1195,476.5547 L1424,476.5547 A0,0 0 0 0 1424,476.5547 L1424,427.5 L1414,417.5 L1313.5,417.5 L1309.5,318.78 L1305.5,417.5 L1195,417.5 A0,0 0 0 0 1195,417.5 " fill="#FEFFDD" style="stroke:#181818;stroke-width:0.5;"/><path d="M1414,417.5 L1414,427.5 L1424,427.5 L1414,417.5 " fill="#FEFFDD" style="stroke:#181818;stroke-width:0.5;"/><text fill="#000000" font-family="sans-serif" font-size="13" lengthAdjust="spacing" textLength="208" x="1201" y="435.9951">Returns declarations of the selected</text><text fill="#000000" font-family="sans-serif" font-size="13" lengthAdjust="spacing" textLength="189" x="1201" y="452.3467">political agent with temporal filter</text><text fill="#000000" font-family="sans-serif" font-size="13" lengthAdjust="spacing" textLength="141" x="1201" y="468.6982">up to the reference date.</text></g><g id="elem_GMN28"><path d="M610,827 L610,869.7031 A0,0 0 0 0 610,869.7031 L853,869.7031 A0,0 0 0 0 853,869.7031 L853,837 L843,827 L721.58,827 L651.61,729.12 L713.58,827 L610,827 A0,0 0 0 0 610,827 " fill="#FEFFDD" style="stroke:#181818;stroke-width:0.5;"/><path d="M843,827 L843,837 L853,837 L843,827 " fill="#FEFFDD" style="stroke:#181818;stroke-width:0.5;"/><text fill="#000000" font-family="sans-serif" font-size="13" lengthAdjust="spacing" textLength="222" x="616" y="845.4951">Represents the consolidated snapshot</text><text fill="#000000" font-family="sans-serif" font-size="13" lengthAdjust="spacing" textLength="208" x="616" y="861.8467">valid for the selected reference date.</text></g><!--class ConsultIntegratedSituationUI--><g id="elem_ConsultIntegratedSituationUI"><rect codeLine="124" fill="#F1F1F1" height="65.6094" id="ConsultIntegratedSituationUI" rx="2.5" ry="2.5" style="stroke:#181818;stroke-width:0.5;" width="211" x="7" y="56"/><ellipse cx="22" cy="72" fill="#ADD1B2" rx="11" ry="11" style="stroke:#181818;stroke-width:1.0;"/><path d="M24.7656,67.875 Q24.9219,67.6563 25.1094,67.5469 Q25.2969,67.4375 25.5156,67.4375 Q25.8906,67.4375 26.125,67.6953 Q26.3594,67.9531 26.3594,68.5625 L26.3594,70.0156 Q26.3594,70.625 26.125,70.8906 Q25.8906,71.1563 25.5156,71.1563 Q25.1719,71.1563 24.9688,70.9531 Q24.7656,70.7656 24.6563,70.25 Q24.6094,69.8906 24.4219,69.7031 Q24.0938,69.3281 23.4844,69.1094 Q22.875,68.8906 22.25,68.8906 Q21.4844,68.8906 20.8516,69.2188 Q20.2188,69.5469 19.7266,70.2969 Q19.2344,71.0469 19.2344,72.0781 L19.2344,73.1719 Q19.2344,74.4063 20.125,75.2266 Q21.0156,76.0469 22.6094,76.0469 Q23.5469,76.0469 24.2031,75.7969 Q24.5938,75.6406 25.0156,75.2031 Q25.2813,74.9375 25.4297,74.8594 Q25.5781,74.7813 25.7813,74.7813 Q26.1094,74.7813 26.3672,75.0391 Q26.625,75.2969 26.625,75.6406 Q26.625,75.9844 26.2813,76.3906 Q25.7813,76.9688 24.9844,77.2969 Q23.9063,77.75 22.6094,77.75 Q21.0938,77.75 19.8906,77.125 Q18.9063,76.625 18.2188,75.5547 Q17.5313,74.4844 17.5313,73.2031 L17.5313,72.0469 Q17.5313,70.7188 18.1484,69.5703 Q18.7656,68.4219 19.8594,67.8047 Q20.9531,67.1875 22.1875,67.1875 Q22.9219,67.1875 23.5703,67.3516 Q24.2188,67.5156 24.7656,67.875 Z " fill="#000000"/><text fill="#000000" font-family="sans-serif" font-size="14" lengthAdjust="spacing" textLength="179" x="36" y="77.7285">ConsultIntegratedSituationUI</text><line style="stroke:#181818;stroke-width:0.5;" x1="8" x2="217" y1="88" y2="88"/><line style="stroke:#181818;stroke-width:0.5;" x1="8" x2="217" y1="96" y2="96"/><text fill="#000000" font-family="sans-serif" font-size="14" lengthAdjust="spacing" textLength="39" x="13" y="114.5332">+run()</text></g><!--link ConsultIntegratedSituationController to GMN22--><g id="link_ConsultIntegratedSituationController_GMN22"><path d="M630.2,89 C648.85,89 663.5,89 663.5,89 C663.5,89 664.18,89 665.43,89 " fill="none" id="ConsultIntegratedSituationController-GMN22" style="stroke:#181818;stroke-width:1.0;stroke-dasharray:7.0,7.0;"/></g><!--reverse link Section to IncomeSection--><g id="link_Section_IncomeSection"><path codeLine="128" d="M1129.413,1215.3165 C1114.533,1228.2465 1112.5,1230 1112.5,1230 C1112.5,1230 1037.15,1265.96 985.06,1290.82 " fill="none" id="Section-backto-IncomeSection" style="stroke:#181818;stroke-width:1.0;"/><polygon fill="none" points="1143,1203.51,1125.4775,1210.7875,1133.3485,1219.8455,1143,1203.51" style="stroke:#181818;stroke-width:1.0;"/></g><!--reverse link Section to AssetSection--><g id="link_Section_AssetSection"><path codeLine="129" d="M1146.5756,1219.2424 C1132.1656,1243.6024 1118.82,1266.14 1104.37,1290.56 " fill="none" id="Section-backto-AssetSection" style="stroke:#181818;stroke-width:1.0;"/><polygon fill="none" points="1155.74,1203.75,1141.4115,1216.1876,1151.7397,1222.2972,1155.74,1203.75" style="stroke:#181818;stroke-width:1.0;"/></g><!--reverse link Section to PositionSection--><g id="link_Section_PositionSection"><path codeLine="130" d="M1192.1692,1219.2925 C1206.3992,1243.6525 1219.54,1266.14 1233.81,1290.56 " fill="none" id="Section-backto-PositionSection" style="stroke:#181818;stroke-width:1.0;"/><polygon fill="none" points="1183.09,1203.75,1186.9884,1222.3189,1197.35,1216.2661,1183.09,1203.75" style="stroke:#181818;stroke-width:1.0;"/></g><!--reverse link Section to ShareholdingSection--><g id="link_Section_ShareholdingSection"><path codeLine="131" d="M1210.1515,1215.1952 C1225.3015,1228.1252 1227.5,1230 1227.5,1230 C1227.5,1230 1313.81,1266.07 1373.31,1290.94 " fill="none" id="Section-backto-ShareholdingSection" style="stroke:#181818;stroke-width:1.0;"/><polygon fill="none" points="1196.46,1203.51,1206.2564,1219.759,1214.0465,1210.6314,1196.46,1203.51" style="stroke:#181818;stroke-width:1.0;"/></g><!--link ConsultIntegratedSituationUI to ConsultIntegratedSituationController--><g id="link_ConsultIntegratedSituationUI_ConsultIntegratedSituationController"><path codeLine="133" d="M218,89 C220.66,89 222.17,89 222.17,89 C222.17,89 229.42,89 246.71,89 " fill="none" id="ConsultIntegratedSituationUI-to-ConsultIntegratedSituationController" style="stroke:#181818;stroke-width:1.0;stroke-dasharray:7.0,7.0;"/><polygon fill="#181818" points="252.71,89,243.71,85,247.71,89,243.71,93,252.71,89" style="stroke:#181818;stroke-width:1.0;"/></g><!--link ConsultIntegratedSituationController to Repositories--><g id="link_ConsultIntegratedSituationController_Repositories"><path codeLine="135" d="M601.37,29.9 C637.79,16.43 666,6 666,6 C666,6 884,6 884,6 C884,6 893.7435,11.9224 913.6735,24.0424 " fill="none" id="ConsultIntegratedSituationController-to-Repositories" style="stroke:#181818;stroke-width:1.0;stroke-dasharray:7.0,7.0;"/><polygon fill="#181818" points="918.8,27.16,913.1886,19.066,914.5279,24.562,909.0319,25.9013,918.8,27.16" style="stroke:#181818;stroke-width:1.0;"/></g><!--link ConsultIntegratedSituationController to PoliticalAgentRepository--><g id="link_ConsultIntegratedSituationController_PoliticalAgentRepository"><path codeLine="136" d="M599.6,148.04 C709.56,188.4 836.5,235 836.5,235 C836.5,235 848.6577,240.4794 869.8077,249.9894 " fill="none" id="ConsultIntegratedSituationController-to-PoliticalAgentRepository" style="stroke:#181818;stroke-width:1.0;stroke-dasharray:7.0,7.0;"/><polygon fill="#181818" points="875.28,252.45,868.712,245.111,870.7198,250.3995,865.4312,252.4073,875.28,252.45" style="stroke:#181818;stroke-width:1.0;"/></g><!--link ConsultIntegratedSituationController to DeclarationRepository--><g id="link_ConsultIntegratedSituationController_DeclarationRepository"><path codeLine="137" d="M621.01,148.1 C637.69,153.5 648.5,157 648.5,157 C648.5,157 852.5,187 852.5,187 C852.5,187 1020.1621,222.768 1153.3621,251.188 " fill="none" id="ConsultIntegratedSituationController-to-DeclarationRepository" style="stroke:#181818;stroke-width:1.0;stroke-dasharray:7.0,7.0;"/><polygon fill="#181818" points="1159.23,252.44,1151.2628,246.6501,1154.3401,251.3967,1149.5935,254.4739,1159.23,252.44" style="stroke:#181818;stroke-width:1.0;"/></g><!--link ConsultIntegratedSituationController to UserRepository--><g id="link_ConsultIntegratedSituationController_UserRepository"><path codeLine="138" d="M511.09,148.09 C551.99,182.23 597.5437,220.2653 631.4137,248.5353 " fill="none" id="ConsultIntegratedSituationController-to-UserRepository" style="stroke:#181818;stroke-width:1.0;stroke-dasharray:7.0,7.0;"/><polygon fill="#181818" points="636.02,252.38,631.6737,243.542,632.1814,249.1761,626.5474,249.6838,636.02,252.38" style="stroke:#181818;stroke-width:1.0;"/></g><!--link ConsultIntegratedSituationController to ApplicationSession--><g id="link_ConsultIntegratedSituationController_ApplicationSession"><path codeLine="139" d="M368.62,148.09 C333.94,175.74 297.5815,204.7198 264.3915,231.1798 " fill="none" id="ConsultIntegratedSituationController-to-ApplicationSession" style="stroke:#181818;stroke-width:1.0;stroke-dasharray:7.0,7.0;"/><polygon fill="#181818" points="259.7,234.92,269.2308,232.4373,263.6096,231.8031,264.2438,226.1819,259.7,234.92" style="stroke:#181818;stroke-width:1.0;"/></g><!--link ConsultIntegratedSituationController to UserSession--><g id="link_ConsultIntegratedSituationController_UserSession"><path codeLine="140" d="M424.44,148.3 C403.15,221.04 369.5,336 369.5,336 C369.5,336 327.9321,377.1969 295.1621,409.6669 " fill="none" id="ConsultIntegratedSituationController-to-UserSession" style="stroke:#181818;stroke-width:1.0;stroke-dasharray:7.0,7.0;"/><polygon fill="#181818" points="290.9,413.89,300.1085,410.3968,294.4518,410.3708,294.4778,404.714,290.9,413.89" style="stroke:#181818;stroke-width:1.0;"/></g><!--link ConsultIntegratedSituationController to EthicsCommitteeMember--><g id="link_ConsultIntegratedSituationController_EthicsCommitteeMember"><path codeLine="141" d="M458.33,148.3 C479.32,221.04 512.5,336 512.5,336 C512.5,336 542.7745,376.6092 566.9745,409.0792 " fill="none" id="ConsultIntegratedSituationController-to-EthicsCommitteeMember" style="stroke:#181818;stroke-width:1.0;stroke-dasharray:7.0,7.0;"/><polygon fill="#181818" points="570.56,413.89,568.3889,404.2834,567.5721,409.881,561.9745,409.0641,570.56,413.89" style="stroke:#181818;stroke-width:1.0;"/></g><!--link ConsultIntegratedSituationController to IntegratedSituation--><g id="link_ConsultIntegratedSituationController_IntegratedSituation"><path codeLine="142" d="M306.37,148.14 C212.62,188.48 104.5,235 104.5,235 C104.5,235 104.5,336 104.5,336 C104.5,336 184.5,480 184.5,480 C184.5,480 309.1022,529.379 422.7522,574.429 " fill="none" id="ConsultIntegratedSituationController-to-IntegratedSituation" style="stroke:#181818;stroke-width:1.0;stroke-dasharray:7.0,7.0;"/><polygon fill="#181818" points="428.33,576.64,421.4373,569.605,423.6819,574.7975,418.4894,577.042,428.33,576.64" style="stroke:#181818;stroke-width:1.0;"/></g><!--link Repositories to Repositories--><g id="link_Repositories_Repositories"><path codeLine="144" d="M1122.29,69.95 C1142.55,72.09 1157,78.44 1157,89 C1157,99.56 1148.5168,105.2797 1128.2568,107.4197 " fill="none" id="Repositories-to-Repositories" style="stroke:#181818;stroke-width:1.0;"/><polygon fill="#181818" points="1122.29,108.05,1131.6604,111.0825,1127.2623,107.5248,1130.82,103.1267,1122.29,108.05" style="stroke:#181818;stroke-width:1.0;"/><text fill="#000000" font-family="sans-serif" font-size="13" lengthAdjust="spacing" textLength="49" x="1163" y="94.4951">instance</text><text fill="#000000" font-family="sans-serif" font-size="13" lengthAdjust="spacing" textLength="7" x="1130.0222" y="106.3678">1</text></g><!--link Repositories to DeclarationRepository--><g id="link_Repositories_DeclarationRepository"><path codeLine="145" d="M1120.36,157.21 C1168.33,189.49 1218.5923,223.32 1256.9423,249.13 " fill="none" id="Repositories-to-DeclarationRepository" style="stroke:#181818;stroke-width:1.0;"/><polygon fill="#181818" points="1261.92,252.48,1256.6868,244.1365,1257.7719,249.6883,1252.2201,250.7734,1261.92,252.48" style="stroke:#181818;stroke-width:1.0;"/><text fill="#000000" font-family="sans-serif" font-size="13" lengthAdjust="spacing" textLength="125" x="1191.5" y="201.4951">declarationRepository</text><text fill="#000000" font-family="sans-serif" font-size="13" lengthAdjust="spacing" textLength="7" x="1244.3848" y="241.5913">1</text></g><!--link Repositories to PoliticalAgentRepository--><g id="link_Repositories_PoliticalAgentRepository"><path codeLine="146" d="M994.93,157.21 C982.65,189.49 970.6336,221.0622 960.8136,246.8722 " fill="none" id="Repositories-to-PoliticalAgentRepository" style="stroke:#181818;stroke-width:1.0;"/><polygon fill="#181818" points="958.68,252.48,965.619,245.4907,960.458,247.8068,958.1419,242.6459,958.68,252.48" style="stroke:#181818;stroke-width:1.0;"/><text fill="#000000" font-family="sans-serif" font-size="13" lengthAdjust="spacing" textLength="140" x="984.5" y="201.4951">politicalAgentRepository</text><text fill="#000000" font-family="sans-serif" font-size="13" lengthAdjust="spacing" textLength="7" x="953.4703" y="241.5913">1</text></g><!--link Repositories to UserRepository--><g id="link_Repositories_UserRepository"><path codeLine="147" d="M918.8,147.26 C908.37,153.13 901.5,157 901.5,157 C901.5,157 803.9612,211.7815 736.7212,249.5515 " fill="none" id="Repositories-to-UserRepository" style="stroke:#181818;stroke-width:1.0;"/><polygon fill="#181818" points="731.49,252.49,741.2958,251.5698,735.8493,250.0413,737.3778,244.5948,731.49,252.49" style="stroke:#181818;stroke-width:1.0;"/><text fill="#000000" font-family="sans-serif" font-size="13" lengthAdjust="spacing" textLength="87" x="847.5" y="201.4951">userRepository</text><text fill="#000000" font-family="sans-serif" font-size="13" lengthAdjust="spacing" textLength="7" x="735.5223" y="241.6033">1</text></g><!--link ApplicationSession to ApplicationSession--><g id="link_ApplicationSession_ApplicationSession"><path codeLine="149" d="M273.16,269.16 C293,270.13 308,275.57 308,285.5 C308,295.43 298.9928,300.577 279.1528,301.547 " fill="none" id="ApplicationSession-to-ApplicationSession" style="stroke:#181818;stroke-width:1.0;"/><polygon fill="#181818" points="273.16,301.84,282.3446,305.3957,278.154,301.5958,281.9539,297.4053,273.16,301.84" style="stroke:#181818;stroke-width:1.0;"/><text fill="#000000" font-family="sans-serif" font-size="13" lengthAdjust="spacing" textLength="49" x="314" y="290.9951">instance</text><text fill="#000000" font-family="sans-serif" font-size="13" lengthAdjust="spacing" textLength="7" x="280.9523" y="300.1818">1</text></g><!--link ApplicationSession to UserSession--><g id="link_ApplicationSession_UserSession"><path codeLine="150" d="M216.47,336.09 C226.12,361.33 235.4374,385.6956 243.9474,407.9556 " fill="none" id="ApplicationSession-to-UserSession" style="stroke:#181818;stroke-width:1.0;stroke-dasharray:7.0,7.0;"/><polygon fill="#181818" points="246.09,413.56,246.6124,403.725,244.3045,408.8897,239.1399,406.5818,246.09,413.56" style="stroke:#181818;stroke-width:1.0;"/></g><!--link PoliticalAgentRepository to PoliticalAgent--><g id="link_PoliticalAgentRepository_PoliticalAgent"><path codeLine="152" d="M946.5,318.68 C946.5,414.83 946.5,693.95 946.5,800.62 " fill="none" id="PoliticalAgentRepository-to-PoliticalAgent" style="stroke:#181818;stroke-width:1.0;"/><polygon fill="#181818" points="946.5,806.62,950.5,797.62,946.5,801.62,942.5,797.62,946.5,806.62" style="stroke:#181818;stroke-width:1.0;"/><text fill="#000000" font-family="sans-serif" font-size="13" lengthAdjust="spacing" textLength="85" x="947.5" y="524.4951">politicalAgents</text><text fill="#000000" font-family="sans-serif" font-size="13" lengthAdjust="spacing" textLength="5" x="941.1016" y="796.1761">*</text></g><!--link UserRepository to EthicsCommitteeMember--><g id="link_UserRepository_EthicsCommitteeMember"><path codeLine="153" d="M658.31,318.78 C644.43,346.45 627.2295,380.7465 613.3595,408.4065 " fill="none" id="UserRepository-to-EthicsCommitteeMember" style="stroke:#181818;stroke-width:1.0;"/><polygon fill="#181818" points="610.67,413.77,618.2799,407.5178,612.9112,409.3005,611.1286,403.9318,610.67,413.77" style="stroke:#181818;stroke-width:1.0;"/><text fill="#000000" font-family="sans-serif" font-size="13" lengthAdjust="spacing" textLength="152" x="635.5" y="380.4951">ethicsCommitteeMembers</text><text fill="#000000" font-family="sans-serif" font-size="13" lengthAdjust="spacing" textLength="5" x="608.3613" y="403.221">*</text></g><!--link DeclarationRepository to Declaration--><g id="link_DeclarationRepository_Declaration"><path codeLine="154" d="M1273.28,318.78 C1220.97,365.38 1130.5,446 1130.5,446 C1130.5,446 1130.5,446 1130.5,849.5 C1130.5,849.5 1126.3862,914.8718 1123.4262,961.9818 " fill="none" id="DeclarationRepository-to-Declaration" style="stroke:#181818;stroke-width:1.0;"/><polygon fill="#181818" points="1123.05,967.97,1127.6065,959.2385,1123.3635,962.9798,1119.6222,958.7369,1123.05,967.97" style="stroke:#181818;stroke-width:1.0;"/><text fill="#000000" font-family="sans-serif" font-size="13" lengthAdjust="spacing" textLength="70" x="1131.5" y="648.9951">declarations</text><text fill="#000000" font-family="sans-serif" font-size="13" lengthAdjust="spacing" textLength="5" x="1118.0583" y="957.2727">*</text></g><!--link PoliticalAgent to PoliticalMandate--><g id="link_PoliticalAgent_PoliticalMandate"><path codeLine="156" d="M899.28,890.1 C881.05,905.77 864.5,920 864.5,920 C864.5,920 864.074,938.6115 863.554,961.8815 " fill="none" id="PoliticalAgent-to-PoliticalMandate" style="stroke:#181818;stroke-width:1.0;"/><polygon fill="#181818" points="863.42,967.88,867.6201,958.9716,863.5317,962.8812,859.6221,958.7929,863.42,967.88" style="stroke:#181818;stroke-width:1.0;"/><text fill="#000000" font-family="sans-serif" font-size="13" lengthAdjust="spacing" textLength="57" x="865.5" y="934.4951">mandates</text><text fill="#000000" font-family="sans-serif" font-size="13" lengthAdjust="spacing" textLength="7" x="883.8795" y="911.8211">1</text><text fill="#000000" font-family="sans-serif" font-size="13" lengthAdjust="spacing" textLength="20" x="841.9161" y="957.1678">0..*</text></g><!--link PoliticalMandate to Role--><g id="link_PoliticalMandate_Role"><path codeLine="157" d="M858.38,1051.17 C855.43,1080.4 852.0942,1113.3005 849.3542,1140.3705 " fill="none" id="PoliticalMandate-to-Role" style="stroke:#181818;stroke-width:1.0;"/><polygon fill="#181818" points="848.75,1146.34,853.636,1137.7886,849.2535,1141.3654,845.6767,1136.9829,848.75,1146.34" style="stroke:#181818;stroke-width:1.0;"/><text fill="#000000" font-family="sans-serif" font-size="13" lengthAdjust="spacing" textLength="21" x="855.5" y="1095.4951">role</text><text fill="#000000" font-family="sans-serif" font-size="13" lengthAdjust="spacing" textLength="5" x="852.3249" y="1072.5919">*</text><text fill="#000000" font-family="sans-serif" font-size="13" lengthAdjust="spacing" textLength="7" x="841.6984" y="1135.4224">1</text></g><!--link PoliticalAgent to Declaration--><g id="link_PoliticalAgent_Declaration"><path codeLine="159" d="M985.98,890.12 C1008.58,913.39 1032.5,938 1032.5,938 C1032.5,938 1045.5774,948.4786 1065.1374,964.1486 " fill="none" id="PoliticalAgent-to-Declaration" style="stroke:#181818;stroke-width:1.0;"/><polygon fill="#181818" points="1069.82,967.9,1065.297,959.1512,1065.9178,964.7738,1060.2951,965.3947,1069.82,967.9" style="stroke:#181818;stroke-width:1.0;"/><text fill="#000000" font-family="sans-serif" font-size="13" lengthAdjust="spacing" textLength="70" x="1033.5" y="934.4951">declarations</text><text fill="#000000" font-family="sans-serif" font-size="13" lengthAdjust="spacing" textLength="7" x="984.9392" y="911.8444">1</text><text fill="#000000" font-family="sans-serif" font-size="13" lengthAdjust="spacing" textLength="20" x="1039.7699" y="957.1911">0..*</text></g><!--link Declaration to DeclarationType--><g id="link_Declaration_DeclarationType"><path codeLine="160" d="M1168.3,1051.1 C1186.75,1066.77 1203.5,1081 1203.5,1081 C1203.5,1081 1225.648,1100.8098 1252.568,1124.8898 " fill="none" id="Declaration-to-DeclarationType" style="stroke:#181818;stroke-width:1.0;"/><polygon fill="#181818" points="1257.04,1128.89,1252.9988,1119.9084,1253.3134,1125.5565,1247.6653,1125.871,1257.04,1128.89" style="stroke:#181818;stroke-width:1.0;"/><text fill="#000000" font-family="sans-serif" font-size="13" lengthAdjust="spacing" textLength="25" x="1222.5" y="1095.4951">type</text><text fill="#000000" font-family="sans-serif" font-size="13" lengthAdjust="spacing" textLength="7" x="1241.7488" y="1118.1799">1</text></g><!--link Declaration to DeclarationStatus--><g id="link_Declaration_DeclarationStatus"><path codeLine="161" d="M1096.78,1051.17 C1083.12,1074.57 1068.8943,1098.9679 1054.4443,1123.7279 " fill="none" id="Declaration-to-DeclarationStatus" style="stroke:#181818;stroke-width:1.0;"/><polygon fill="#181818" points="1051.42,1128.91,1059.4111,1123.1531,1053.9402,1124.5916,1052.5017,1119.1207,1051.42,1128.91" style="stroke:#181818;stroke-width:1.0;"/><text fill="#000000" font-family="sans-serif" font-size="13" lengthAdjust="spacing" textLength="36" x="1077.5" y="1095.4951">status</text><text fill="#000000" font-family="sans-serif" font-size="13" lengthAdjust="spacing" textLength="7" x="1047.9947" y="1118.2027">1</text></g><!--reverse link Declaration to Section--><g id="link_Declaration_Section"><path codeLine="162" d="M1135.7209,1062.6897 C1145.2409,1095.3197 1154.9,1128.44 1162.73,1155.27 " fill="none" id="Declaration-backto-Section" style="stroke:#181818;stroke-width:1.0;"/><polygon fill="#181818" points="1132.36,1051.17,1130.2006,1058.0502,1135.7209,1062.6897,1137.8804,1055.8095,1132.36,1051.17" style="stroke:#181818;stroke-width:1.0;"/><text fill="#000000" font-family="sans-serif" font-size="13" lengthAdjust="spacing" textLength="49" x="1145.5" y="1095.4951">sections</text><text fill="#000000" font-family="sans-serif" font-size="13" lengthAdjust="spacing" textLength="7" x="1153.0983" y="1144.5512">4</text></g><!--link EthicsCommitteeMember to IntegratedSituation--><g id="link_EthicsCommitteeMember_IntegratedSituation"><path codeLine="164" d="M594.5,480.12 C594.5,501.37 594.5,524.31 594.5,551.87 " fill="none" id="EthicsCommitteeMember-to-IntegratedSituation" style="stroke:#181818;stroke-width:1.0;"/><polygon fill="#181818" points="594.5,557.87,598.5,548.87,594.5,552.87,590.5,548.87,594.5,557.87" style="stroke:#181818;stroke-width:1.0;"/><text fill="#000000" font-family="sans-serif" font-size="13" lengthAdjust="spacing" textLength="77" x="595.5" y="524.4951">consultations</text><text fill="#000000" font-family="sans-serif" font-size="13" lengthAdjust="spacing" textLength="5" x="589.2773" y="547.03">*</text></g><!--link IntegratedSituation to PoliticalAgent--><g id="link_IntegratedSituation_PoliticalAgent"><path codeLine="165" d="M741.23,729.12 C792.73,758.82 842.4725,787.5024 882.5425,810.6124 " fill="none" id="IntegratedSituation-to-PoliticalAgent" style="stroke:#181818;stroke-width:1.0;"/><polygon fill="#181818" points="887.74,813.61,881.9421,805.6485,883.4087,811.112,877.9453,812.5786,887.74,813.61" style="stroke:#181818;stroke-width:1.0;"/><text fill="#000000" font-family="sans-serif" font-size="13" lengthAdjust="spacing" textLength="78" x="823.5" y="773.4951">politicalAgent</text><text fill="#000000" font-family="sans-serif" font-size="13" lengthAdjust="spacing" textLength="7" x="873.1521" y="805.886">1</text></g><!--link IntegratedSituation to Declaration--><g id="link_IntegratedSituation_Declaration"><path codeLine="166" d="M564.83,729.08 C550.98,768.57 537.5,807 537.5,807 C537.5,807 537.5,890 537.5,890 C537.5,890 955.5,968 955.5,968 C955.5,968 975.6127,972.9406 1006.9227,980.6206 " fill="none" id="IntegratedSituation-to-Declaration" style="stroke:#181818;stroke-width:1.0;stroke-dasharray:7.0,7.0;"/><polygon fill="#181818" points="1012.75,982.05,1004.962,976.0211,1007.894,980.8589,1003.0562,983.7908,1012.75,982.05" style="stroke:#181818;stroke-width:1.0;"/><text fill="#000000" font-family="sans-serif" font-size="13" lengthAdjust="spacing" textLength="53" x="538.5" y="853.9951">based on</text><text fill="#000000" font-family="sans-serif" font-size="13" lengthAdjust="spacing" textLength="5" x="999.998" y="977.0572">*</text></g><!--SRC=[bLTBRziu4BxhLn2vRDgjWowm9s5Hm77SGeka3VmezafBOua8HGearQots__U8INBb4GbQWuEnNbzy-0C-Pj-OgAYYfQab4AcXP8b4ADgY2wKYgPFD8UjEN4W2b93HSvz1btGJ3upaPCZvTgdS2R0d2eWbUGd-n5vn9HJhPV6A7Qe3IIf55ls7v3tKGIYBiaT88EYXacniog-HmJ_ai_9BbdUk_Lc_Mb_lzouzVgVrVfnbtpvZBGVOmrRGqsjMntR_Ur3ijkjxzpNr-LzShSyVstMVwzNzWELE81aMLMSfOqMq1h_jMeM0TBr6qVwdNpNQ96bFqWE9X7u8LBeYBYtgfK2OIvYdRsz1jKtv0JizhgaZFkyQrEmLAzaMJ9Z01wWF83gf0ururaY3EGO1CYspDGEwpLcWo4uofSvOdX7iakWz3jCyH4GMmftAEKPU-n9TK4G54ic9blCeyZRFKF_JRBBvbZ50nKPQk-KO82KiVPGw5uYWrstD13PYD9ft4X-qPA1PhbmVlICquCsYgQcAJconHfkejkfIKIAbHyWBBK64zX_b9erUH-HjWLLK4YUeVK0sQlAY_lreMGkvIDFsrmotHRRWSCNSJsLeq2sEoCzcK2SZJIKDu50QYPhDEMJN2Zq0rLFOBvINe-uCCBi6vmZev7CXF4r-97H0nMjdtFATU1y8qZpN46E6n-nXtanrjT-TRy9vc43bGKjrSa_SRwIsrE_-lV2C1Uxry1Dd9wmnJwF7dQ5i52m1zoUcbu1zjTJqwbWeBl2y3TdDx1W-7o6AOTzdhvNlhyh37hDJQ0Sa6AKvDnhT7EOfw5TV4udzSofmSLaDcn9zZgza7W25SiBG-Hn5dndOLU0nNXsFvLIuL522OruiDl1DyeT8tPNvmo2pfecS9IAKEIYsK8AVd9ShRij0vVFDpWtCsB1jH0FqXXPMep1T3SJ4qojyBJxnynA60IhWMC3XCmnTY74ise7o3Cp1J5GLbBXtf5nqxfPLzWkd7mNPMAdnGlm0h5hmLKAj4soqtU92MH42rhfGZOT2YF7CXSb7_SB05uhqttIbQUgsxIVfy5V_oyM_P7J9_b3fqyPZ9q-CJ1uekX5X3SVvXLVDEiueZQ_bSmKGgcfLZ5VGxWyPult-z1ykV45yDTi_h9GiBtC5myTawWt4nOVoDKVL_qvOUTuCm06l2rpU9B6VaVmWXjKCJaTOr9D5KTGqM1EngJkfpOANETRqG35ypn07MOnclJ2eNixT7Fad8u6yCzouNj-J22qhwDmGixA_0jeBqbww84BYnDxVtFZmpzVtsDIDYiTZMZMr3ahxfOU4wn4UCt62-XyKg3st2in9lQz-Hfh-noCxRi35ptsjzX9h_wywbu9oDIiC3pXF9m36xfynxqfgwCGJ_WGZAeZA6jhS9pK0zKulB0aVm80]--></g></svg>