<?xml version="1.0" encoding="us-ascii" standalone="no"?><svg xmlns="http://www.w3.org/2000/svg" xmlns:xlink="http://www.w3.org/1999/xlink" contentStyleType="text/css" height="1502px" preserveAspectRatio="none" style="width:2454px;height:1502px;background:#FFFFFF;" version="1.1" viewBox="0 0 2454 1502" width="2454px" zoomAndPan="magnify"><defs/><g><rect fill="#FFFFFF" height="1274.1875" style="stroke:#181818;stroke-width:1.0;" width="10" x="57.5" y="110.2188"/><rect fill="#FFFFFF" height="315.7734" style="stroke:#181818;stroke-width:1.0;" width="10" x="412.5" y="132.5703"/><rect fill="#FFFFFF" height="905.7109" style="stroke:#181818;stroke-width:1.0;" width="10" x="412.5" y="478.6953"/><rect fill="#FFFFFF" height="212.4609" style="stroke:#181818;stroke-width:1.0;" width="10" x="783.5" y="205.5313"/><rect fill="#FFFFFF" height="845.0078" style="stroke:#181818;stroke-width:1.0;" width="10" x="783.5" y="509.0469"/><rect fill="#FFFFFF" height="405.5703" style="stroke:#181818;stroke-width:1.0;" width="10" x="788.5" y="547.3984"/><rect fill="#FFFFFF" height="30.3516" style="stroke:#181818;stroke-width:1.0;" width="10" x="1075.5" y="235.8828"/><rect fill="#FFFFFF" height="30.3516" style="stroke:#181818;stroke-width:1.0;" width="10" x="1075.5" y="764.8594"/><rect fill="#FFFFFF" height="30.3516" style="stroke:#181818;stroke-width:1.0;" width="10" x="1075.5" y="990.3203"/><rect fill="#FFFFFF" height="30.3516" style="stroke:#181818;stroke-width:1.0;" width="10" x="1180.5" y="296.5859"/><rect fill="#FFFFFF" height="30.3516" style="stroke:#181818;stroke-width:1.0;" width="10" x="1180.5" y="825.5625"/><rect fill="#FFFFFF" height="30.3516" style="stroke:#181818;stroke-width:1.0;" width="10" x="1180.5" y="1051.0234"/><rect fill="#FFFFFF" height="30.3516" style="stroke:#181818;stroke-width:1.0;" width="10" x="1324.5" y="357.2891"/><rect fill="#FFFFFF" height="30.3516" style="stroke:#181818;stroke-width:1.0;" width="10" x="1486.5" y="582.75"/><rect fill="#FFFFFF" height="30.3516" style="stroke:#181818;stroke-width:1.0;" width="10" x="1631.5" y="643.4531"/><rect fill="#FFFFFF" height="30.3516" style="stroke:#181818;stroke-width:1.0;" width="10" x="1764.5" y="704.1563"/><rect fill="#FFFFFF" height="30.3516" style="stroke:#181818;stroke-width:1.0;" width="10" x="1886.5" y="886.2656"/><rect fill="#FFFFFF" height="151.2734" style="stroke:#181818;stroke-width:1.0;" width="10" x="2041" y="1172.4297"/><rect fill="#FFFFFF" height="30.3516" style="stroke:#181818;stroke-width:1.0;" width="10" x="2217" y="1111.7266"/><rect fill="#FFFFFF" height="30.3516" style="stroke:#181818;stroke-width:1.0;" width="10" x="2374.5" y="1263"/><line style="stroke:#181818;stroke-width:0.5;stroke-dasharray:5.0,5.0;" x1="62" x2="62" y1="100.2188" y2="1402.4063"/><line style="stroke:#181818;stroke-width:0.5;stroke-dasharray:5.0,5.0;" x1="417" x2="417" y1="100.2188" y2="1402.4063"/><line style="stroke:#181818;stroke-width:0.5;stroke-dasharray:5.0,5.0;" x1="788" x2="788" y1="171.875" y2="1402.4063"/><line style="stroke:#181818;stroke-width:0.5;stroke-dasharray:5.0,5.0;" x1="1080" x2="1080" y1="100.2188" y2="1402.4063"/><line style="stroke:#181818;stroke-width:0.5;stroke-dasharray:5.0,5.0;" x1="1185" x2="1185" y1="100.2188" y2="1402.4063"/><line style="stroke:#181818;stroke-width:0.5;stroke-dasharray:5.0,5.0;" x1="1329" x2="1329" y1="100.2188" y2="1402.4063"/><line style="stroke:#181818;stroke-width:0.5;stroke-dasharray:5.0,5.0;" x1="1491" x2="1491" y1="100.2188" y2="1402.4063"/><line style="stroke:#181818;stroke-width:0.5;stroke-dasharray:5.0,5.0;" x1="1636" x2="1636" y1="100.2188" y2="1402.4063"/><line style="stroke:#181818;stroke-width:0.5;stroke-dasharray:5.0,5.0;" x1="1769" x2="1769" y1="100.2188" y2="1402.4063"/><line style="stroke:#181818;stroke-width:0.5;stroke-dasharray:5.0,5.0;" x1="1891" x2="1891" y1="100.2188" y2="1402.4063"/><line style="stroke:#181818;stroke-width:0.5;stroke-dasharray:5.0,5.0;" x1="2046" x2="2046" y1="100.2188" y2="1402.4063"/><line style="stroke:#181818;stroke-width:0.5;stroke-dasharray:5.0,5.0;" x1="2222" x2="2222" y1="100.2188" y2="1402.4063"/><line style="stroke:#181818;stroke-width:0.5;stroke-dasharray:5.0,5.0;" x1="2379" x2="2379" y1="1220.5391" y2="1402.4063"/><text fill="#000000" font-family="sans-serif" font-size="14" lengthAdjust="spacing" textLength="109" x="5" y="79.5332">Ethics Committee</text><text fill="#000000" font-family="sans-serif" font-size="14" lengthAdjust="spacing" textLength="51" x="34" y="97.1426">Member</text><ellipse cx="62.5" cy="13.5" fill="#E2E2F0" rx="8" ry="8" style="stroke:#181818;stroke-width:0.5;"/><path d="M62.5,21.5 L62.5,48.5 M49.5,29.5 L75.5,29.5 M62.5,48.5 L49.5,63.5 M62.5,48.5 L75.5,63.5 " fill="none" style="stroke:#181818;stroke-width:0.5;"/><text fill="#000000" font-family="sans-serif" font-size="14" lengthAdjust="spacing" textLength="109" x="5" y="1415.9395">Ethics Committee</text><text fill="#000000" font-family="sans-serif" font-size="14" lengthAdjust="spacing" textLength="51" x="34" y="1433.5488">Member</text><ellipse cx="62.5" cy="1445.125" fill="#E2E2F0" rx="8" ry="8" style="stroke:#181818;stroke-width:0.5;"/><path d="M62.5,1453.125 L62.5,1480.125 M49.5,1461.125 L75.5,1461.125 M62.5,1480.125 L49.5,1495.125 M62.5,1480.125 L75.5,1495.125 " fill="none" style="stroke:#181818;stroke-width:0.5;"/><rect fill="#E2E2F0" height="31.6094" rx="2.5" ry="2.5" style="stroke:#181818;stroke-width:0.5;" width="197" x="319" y="67.6094"/><text fill="#000000" font-family="sans-serif" font-size="14" lengthAdjust="spacing" textLength="183" x="326" y="89.1426">:ConsultIntegratedSituationUI</text><rect fill="#E2E2F0" height="31.6094" rx="2.5" ry="2.5" style="stroke:#181818;stroke-width:0.5;" width="197" x="319" y="1401.4063"/><text fill="#000000" font-family="sans-serif" font-size="14" lengthAdjust="spacing" textLength="183" x="326" y="1422.9395">:ConsultIntegratedSituationUI</text><rect fill="#E2E2F0" height="31.6094" rx="2.5" ry="2.5" style="stroke:#181818;stroke-width:0.5;" width="247" x="665" y="1401.4063"/><text fill="#000000" font-family="sans-serif" font-size="14" lengthAdjust="spacing" textLength="233" x="672" y="1422.9395">:ConsultIntegratedSituationController</text><rect fill="#E2E2F0" height="31.6094" rx="2.5" ry="2.5" style="stroke:#181818;stroke-width:0.5;" width="93" x="1034" y="67.6094"/><text fill="#000000" font-family="sans-serif" font-size="14" lengthAdjust="spacing" textLength="79" x="1041" y="89.1426">Repositories</text><rect fill="#E2E2F0" height="31.6094" rx="2.5" ry="2.5" style="stroke:#181818;stroke-width:0.5;" width="93" x="1034" y="1401.4063"/><text fill="#000000" font-family="sans-serif" font-size="14" lengthAdjust="spacing" textLength="79" x="1041" y="1422.9395">Repositories</text><rect fill="#E2E2F0" height="49.2188" rx="2.5" ry="2.5" style="stroke:#181818;stroke-width:0.5;" width="97" x="1137" y="50"/><text fill="#000000" font-family="sans-serif" font-size="14" lengthAdjust="spacing" textLength="74" x="1148.5" y="71.5332">repositories</text><text fill="#000000" font-family="sans-serif" font-size="14" lengthAdjust="spacing" textLength="83" x="1144" y="89.1426">:Repositories</text><rect fill="#E2E2F0" height="49.2188" rx="2.5" ry="2.5" style="stroke:#181818;stroke-width:0.5;" width="97" x="1137" y="1401.4063"/><text fill="#000000" font-family="sans-serif" font-size="14" lengthAdjust="spacing" textLength="74" x="1148.5" y="1422.9395">repositories</text><text fill="#000000" font-family="sans-serif" font-size="14" lengthAdjust="spacing" textLength="83" x="1144" y="1440.5488">:Repositories</text><rect fill="#E2E2F0" height="49.2188" rx="2.5" ry="2.5" style="stroke:#181818;stroke-width:0.5;" width="171" x="1244" y="50"/><text fill="#000000" font-family="sans-serif" font-size="14" lengthAdjust="spacing" textLength="152" x="1253.5" y="71.5332">politicalAgentRepository</text><text fill="#000000" font-family="sans-serif" font-size="14" lengthAdjust="spacing" textLength="157" x="1251" y="89.1426">:PoliticalAgentRepository</text><rect fill="#E2E2F0" height="49.2188" rx="2.5" ry="2.5" style="stroke:#181818;stroke-width:0.5;" width="171" x="1244" y="1401.4063"/><text fill="#000000" font-family="sans-serif" font-size="14" lengthAdjust="spacing" textLength="152" x="1253.5" y="1422.9395">politicalAgentRepository</text><text fill="#000000" font-family="sans-serif" font-size="14" lengthAdjust="spacing" textLength="157" x="1251" y="1440.5488">:PoliticalAgentRepository</text><rect fill="#E2E2F0" height="31.6094" rx="2.5" ry="2.5" style="stroke:#181818;stroke-width:0.5;" width="133" x="1425" y="67.6094"/><text fill="#000000" font-family="sans-serif" font-size="14" lengthAdjust="spacing" textLength="119" x="1432" y="89.1426">ApplicationSession</text><rect fill="#E2E2F0" height="31.6094" rx="2.5" ry="2.5" style="stroke:#181818;stroke-width:0.5;" width="133" x="1425" y="1401.4063"/><text fill="#000000" font-family="sans-serif" font-size="14" lengthAdjust="spacing" textLength="119" x="1432" y="1422.9395">ApplicationSession</text><rect fill="#E2E2F0" height="49.2188" rx="2.5" ry="2.5" style="stroke:#181818;stroke-width:0.5;" width="137" x="1568" y="50"/><text fill="#000000" font-family="sans-serif" font-size="14" lengthAdjust="spacing" textLength="74" x="1599.5" y="71.5332">appSession</text><text fill="#000000" font-family="sans-serif" font-size="14" lengthAdjust="spacing" textLength="123" x="1575" y="89.1426">:ApplicationSession</text><rect fill="#E2E2F0" height="49.2188" rx="2.5" ry="2.5" style="stroke:#181818;stroke-width:0.5;" width="137" x="1568" y="1401.4063"/><text fill="#000000" font-family="sans-serif" font-size="14" lengthAdjust="spacing" textLength="74" x="1599.5" y="1422.9395">appSession</text><text fill="#000000" font-family="sans-serif" font-size="14" lengthAdjust="spacing" textLength="123" x="1575" y="1440.5488">:ApplicationSession</text><rect fill="#E2E2F0" height="49.2188" rx="2.5" ry="2.5" style="stroke:#181818;stroke-width:0.5;" width="109" x="1715" y="50"/><text fill="#000000" font-family="sans-serif" font-size="14" lengthAdjust="spacing" textLength="95" x="1722" y="71.5332">currentSession</text><text fill="#000000" font-family="sans-serif" font-size="14" lengthAdjust="spacing" textLength="83" x="1728" y="89.1426">:UserSession</text><rect fill="#E2E2F0" height="49.2188" rx="2.5" ry="2.5" style="stroke:#181818;stroke-width:0.5;" width="109" x="1715" y="1401.4063"/><text fill="#000000" font-family="sans-serif" font-size="14" lengthAdjust="spacing" textLength="95" x="1722" y="1422.9395">currentSession</text><text fill="#000000" font-family="sans-serif" font-size="14" lengthAdjust="spacing" textLength="83" x="1728" y="1440.5488">:UserSession</text><rect fill="#E2E2F0" height="49.2188" rx="2.5" ry="2.5" style="stroke:#181818;stroke-width:0.5;" width="115" x="1834" y="50"/><text fill="#000000" font-family="sans-serif" font-size="14" lengthAdjust="spacing" textLength="96" x="1843.5" y="71.5332">userRepository</text><text fill="#000000" font-family="sans-serif" font-size="14" lengthAdjust="spacing" textLength="101" x="1841" y="89.1426">:UserRepository</text><rect fill="#E2E2F0" height="49.2188" rx="2.5" ry="2.5" style="stroke:#181818;stroke-width:0.5;" width="115" x="1834" y="1401.4063"/><text fill="#000000" font-family="sans-serif" font-size="14" lengthAdjust="spacing" textLength="96" x="1843.5" y="1422.9395">userRepository</text><text fill="#000000" font-family="sans-serif" font-size="14" lengthAdjust="spacing" textLength="101" x="1841" y="1440.5488">:UserRepository</text><rect fill="#E2E2F0" height="49.2188" rx="2.5" ry="2.5" style="stroke:#181818;stroke-width:0.5;" width="174" x="1959" y="50"/><text fill="#000000" font-family="sans-serif" font-size="14" lengthAdjust="spacing" textLength="51" x="2020.5" y="71.5332">member</text><text fill="#000000" font-family="sans-serif" font-size="14" lengthAdjust="spacing" textLength="160" x="1966" y="89.1426">:EthicsCommitteeMember</text><rect fill="#E2E2F0" height="49.2188" rx="2.5" ry="2.5" style="stroke:#181818;stroke-width:0.5;" width="174" x="1959" y="1401.4063"/><text fill="#000000" font-family="sans-serif" font-size="14" lengthAdjust="spacing" textLength="51" x="2020.5" y="1422.9395">member</text><text fill="#000000" font-family="sans-serif" font-size="14" lengthAdjust="spacing" textLength="160" x="1966" y="1440.5488">:EthicsCommitteeMember</text><rect fill="#E2E2F0" height="49.2188" rx="2.5" ry="2.5" style="stroke:#181818;stroke-width:0.5;" width="158" x="2143" y="50"/><text fill="#000000" font-family="sans-serif" font-size="14" lengthAdjust="spacing" textLength="138" x="2153" y="71.5332">declarationRepository</text><text fill="#000000" font-family="sans-serif" font-size="14" lengthAdjust="spacing" textLength="144" x="2150" y="89.1426">:DeclarationRepository</text><rect fill="#E2E2F0" height="49.2188" rx="2.5" ry="2.5" style="stroke:#181818;stroke-width:0.5;" width="158" x="2143" y="1401.4063"/><text fill="#000000" font-family="sans-serif" font-size="14" lengthAdjust="spacing" textLength="138" x="2153" y="1422.9395">declarationRepository</text><text fill="#000000" font-family="sans-serif" font-size="14" lengthAdjust="spacing" textLength="144" x="2150" y="1440.5488">:DeclarationRepository</text><rect fill="#E2E2F0" height="49.2188" rx="2.5" ry="2.5" style="stroke:#181818;stroke-width:0.5;" width="137" x="2311" y="1401.4063"/><text fill="#000000" font-family="sans-serif" font-size="14" lengthAdjust="spacing" textLength="119" x="2320" y="1422.9395">integratedSituation</text><text fill="#000000" font-family="sans-serif" font-size="14" lengthAdjust="spacing" textLength="123" x="2318" y="1440.5488">:IntegratedSituation</text><rect fill="#FFFFFF" height="1274.1875" style="stroke:#181818;stroke-width:1.0;" width="10" x="57.5" y="110.2188"/><rect fill="#FFFFFF" height="315.7734" style="stroke:#181818;stroke-width:1.0;" width="10" x="412.5" y="132.5703"/><rect fill="#FFFFFF" height="905.7109" style="stroke:#181818;stroke-width:1.0;" width="10" x="412.5" y="478.6953"/><rect fill="#FFFFFF" height="212.4609" style="stroke:#181818;stroke-width:1.0;" width="10" x="783.5" y="205.5313"/><rect fill="#FFFFFF" height="845.0078" style="stroke:#181818;stroke-width:1.0;" width="10" x="783.5" y="509.0469"/><rect fill="#FFFFFF" height="405.5703" style="stroke:#181818;stroke-width:1.0;" width="10" x="788.5" y="547.3984"/><rect fill="#FFFFFF" height="30.3516" style="stroke:#181818;stroke-width:1.0;" width="10" x="1075.5" y="235.8828"/><rect fill="#FFFFFF" height="30.3516" style="stroke:#181818;stroke-width:1.0;" width="10" x="1075.5" y="764.8594"/><rect fill="#FFFFFF" height="30.3516" style="stroke:#181818;stroke-width:1.0;" width="10" x="1075.5" y="990.3203"/><rect fill="#FFFFFF" height="30.3516" style="stroke:#181818;stroke-width:1.0;" width="10" x="1180.5" y="296.5859"/><rect fill="#FFFFFF" height="30.3516" style="stroke:#181818;stroke-width:1.0;" width="10" x="1180.5" y="825.5625"/><rect fill="#FFFFFF" height="30.3516" style="stroke:#181818;stroke-width:1.0;" width="10" x="1180.5" y="1051.0234"/><rect fill="#FFFFFF" height="30.3516" style="stroke:#181818;stroke-width:1.0;" width="10" x="1324.5" y="357.2891"/><rect fill="#FFFFFF" height="30.3516" style="stroke:#181818;stroke-width:1.0;" width="10" x="1486.5" y="582.75"/><rect fill="#FFFFFF" height="30.3516" style="stroke:#181818;stroke-width:1.0;" width="10" x="1631.5" y="643.4531"/><rect fill="#FFFFFF" height="30.3516" style="stroke:#181818;stroke-width:1.0;" width="10" x="1764.5" y="704.1563"/><rect fill="#FFFFFF" height="30.3516" style="stroke:#181818;stroke-width:1.0;" width="10" x="1886.5" y="886.2656"/><rect fill="#FFFFFF" height="151.2734" style="stroke:#181818;stroke-width:1.0;" width="10" x="2041" y="1172.4297"/><rect fill="#FFFFFF" height="30.3516" style="stroke:#181818;stroke-width:1.0;" width="10" x="2217" y="1111.7266"/><rect fill="#FFFFFF" height="30.3516" style="stroke:#181818;stroke-width:1.0;" width="10" x="2374.5" y="1263"/><polygon fill="#181818" points="400.5,128.5703,410.5,132.5703,400.5,136.5703,404.5,132.5703" style="stroke:#181818;stroke-width:1.0;"/><line style="stroke:#181818;stroke-width:1.0;" x1="67.5" x2="406.5" y1="132.5703" y2="132.5703"/><text fill="#000000" font-family="sans-serif" font-size="13" font-weight="bold" lengthAdjust="spacing" textLength="7" x="74.5" y="127.7139">1</text><text fill="#000000" font-family="sans-serif" font-size="13" lengthAdjust="spacing" textLength="203" x="85.5" y="127.7139">asks to consult integrated situation</text><polygon fill="#181818" points="653,158.9219,663,162.9219,653,166.9219,657,162.9219" style="stroke:#181818;stroke-width:1.0;"/><line style="stroke:#181818;stroke-width:1.0;stroke-dasharray:2.0,2.0;" x1="422.5" x2="659" y1="162.9219" y2="162.9219"/><text fill="#000000" font-family="sans-serif" font-size="13" font-weight="bold" lengthAdjust="spacing" textLength="7" x="429.5" y="158.0654">2</text><text fill="#000000" font-family="sans-serif" font-size="13" lengthAdjust="spacing" textLength="44" x="440.5" y="158.0654">create()</text><rect fill="#E2E2F0" height="31.6094" rx="2.5" ry="2.5" style="stroke:#181818;stroke-width:0.5;" width="247" x="665" y="140.5703"/><text fill="#000000" font-family="sans-serif" font-size="14" lengthAdjust="spacing" textLength="233" x="672" y="162.1035">:ConsultIntegratedSituationController</text><polygon fill="#181818" points="771.5,201.5313,781.5,205.5313,771.5,209.5313,775.5,205.5313" style="stroke:#181818;stroke-width:1.0;"/><line style="stroke:#181818;stroke-width:1.0;" x1="422.5" x2="777.5" y1="205.5313" y2="205.5313"/><text fill="#000000" font-family="sans-serif" font-size="13" font-weight="bold" lengthAdjust="spacing" textLength="7" x="429.5" y="200.6748">3</text><text fill="#000000" font-family="sans-serif" font-size="13" lengthAdjust="spacing" textLength="113" x="440.5" y="200.6748">getPoliticalAgents()</text><polygon fill="#181818" points="1063.5,231.8828,1073.5,235.8828,1063.5,239.8828,1067.5,235.8828" style="stroke:#181818;stroke-width:1.0;"/><line style="stroke:#181818;stroke-width:1.0;" x1="793.5" x2="1069.5" y1="235.8828" y2="235.8828"/><text fill="#000000" font-family="sans-serif" font-size="13" font-weight="bold" lengthAdjust="spacing" textLength="7" x="800.5" y="231.0264">4</text><text fill="#000000" font-family="sans-serif" font-size="13" lengthAdjust="spacing" textLength="75" x="811.5" y="231.0264">getInstance()</text><polygon fill="#181818" points="804.5,262.2344,794.5,266.2344,804.5,270.2344,800.5,266.2344" style="stroke:#181818;stroke-width:1.0;"/><line style="stroke:#181818;stroke-width:1.0;stroke-dasharray:2.0,2.0;" x1="798.5" x2="1079.5" y1="266.2344" y2="266.2344"/><text fill="#000000" font-family="sans-serif" font-size="13" font-weight="bold" lengthAdjust="spacing" textLength="7" x="810.5" y="261.3779">5</text><text fill="#000000" font-family="sans-serif" font-size="13" lengthAdjust="spacing" textLength="67" x="821.5" y="261.3779">repositories</text><polygon fill="#181818" points="1168.5,292.5859,1178.5,296.5859,1168.5,300.5859,1172.5,296.5859" style="stroke:#181818;stroke-width:1.0;"/><line style="stroke:#181818;stroke-width:1.0;" x1="793.5" x2="1174.5" y1="296.5859" y2="296.5859"/><text fill="#000000" font-family="sans-serif" font-size="13" font-weight="bold" lengthAdjust="spacing" textLength="7" x="800.5" y="291.7295">6</text><text fill="#000000" font-family="sans-serif" font-size="13" lengthAdjust="spacing" textLength="168" x="811.5" y="291.7295">getPoliticalAgentRepository()</text><polygon fill="#181818" points="804.5,322.9375,794.5,326.9375,804.5,330.9375,800.5,326.9375" style="stroke:#181818;stroke-width:1.0;"/><line style="stroke:#181818;stroke-width:1.0;stroke-dasharray:2.0,2.0;" x1="798.5" x2="1184.5" y1="326.9375" y2="326.9375"/><text fill="#000000" font-family="sans-serif" font-size="13" font-weight="bold" lengthAdjust="spacing" textLength="7" x="810.5" y="322.0811">7</text><text fill="#000000" font-family="sans-serif" font-size="13" lengthAdjust="spacing" textLength="140" x="821.5" y="322.0811">politicalAgentRepository</text><polygon fill="#181818" points="1312.5,353.2891,1322.5,357.2891,1312.5,361.2891,1316.5,357.2891" style="stroke:#181818;stroke-width:1.0;"/><line style="stroke:#181818;stroke-width:1.0;" x1="793.5" x2="1318.5" y1="357.2891" y2="357.2891"/><text fill="#000000" font-family="sans-serif" font-size="13" font-weight="bold" lengthAdjust="spacing" textLength="7" x="800.5" y="352.4326">8</text><text fill="#000000" font-family="sans-serif" font-size="13" lengthAdjust="spacing" textLength="113" x="811.5" y="352.4326">getPoliticalAgents()</text><polygon fill="#181818" points="804.5,383.6406,794.5,387.6406,804.5,391.6406,800.5,387.6406" style="stroke:#181818;stroke-width:1.0;"/><line style="stroke:#181818;stroke-width:1.0;stroke-dasharray:2.0,2.0;" x1="798.5" x2="1328.5" y1="387.6406" y2="387.6406"/><text fill="#000000" font-family="sans-serif" font-size="13" font-weight="bold" lengthAdjust="spacing" textLength="7" x="810.5" y="382.7842">9</text><text fill="#000000" font-family="sans-serif" font-size="13" lengthAdjust="spacing" textLength="99" x="821.5" y="382.7842">politicalAgentList</text><polygon fill="#181818" points="433.5,413.9922,423.5,417.9922,433.5,421.9922,429.5,417.9922" style="stroke:#181818;stroke-width:1.0;"/><line style="stroke:#181818;stroke-width:1.0;stroke-dasharray:2.0,2.0;" x1="427.5" x2="787.5" y1="417.9922" y2="417.9922"/><text fill="#000000" font-family="sans-serif" font-size="13" font-weight="bold" lengthAdjust="spacing" textLength="14" x="439.5" y="413.1357">10</text><text fill="#000000" font-family="sans-serif" font-size="13" lengthAdjust="spacing" textLength="99" x="457.5" y="413.1357">politicalAgentList</text><polygon fill="#181818" points="78.5,444.3438,68.5,448.3438,78.5,452.3438,74.5,448.3438" style="stroke:#181818;stroke-width:1.0;"/><line style="stroke:#181818;stroke-width:1.0;stroke-dasharray:2.0,2.0;" x1="72.5" x2="416.5" y1="448.3438" y2="448.3438"/><text fill="#000000" font-family="sans-serif" font-size="13" font-weight="bold" lengthAdjust="spacing" textLength="14" x="84.5" y="443.4873">11</text><text fill="#000000" font-family="sans-serif" font-size="13" lengthAdjust="spacing" textLength="303" x="102.5" y="443.4873">shows political agent list and asks for reference date</text><polygon fill="#181818" points="400.5,474.6953,410.5,478.6953,400.5,482.6953,404.5,478.6953" style="stroke:#181818;stroke-width:1.0;"/><line style="stroke:#181818;stroke-width:1.0;" x1="67.5" x2="406.5" y1="478.6953" y2="478.6953"/><text fill="#000000" font-family="sans-serif" font-size="13" font-weight="bold" lengthAdjust="spacing" textLength="14" x="74.5" y="473.8389">12</text><text fill="#000000" font-family="sans-serif" font-size="13" lengthAdjust="spacing" textLength="277" x="92.5" y="473.8389">selects political agent and enters reference date</text><polygon fill="#181818" points="771.5,505.0469,781.5,509.0469,771.5,513.0469,775.5,509.0469" style="stroke:#181818;stroke-width:1.0;"/><line style="stroke:#181818;stroke-width:1.0;" x1="422.5" x2="777.5" y1="509.0469" y2="509.0469"/><text fill="#000000" font-family="sans-serif" font-size="13" font-weight="bold" lengthAdjust="spacing" textLength="14" x="429.5" y="504.1904">13</text><text fill="#000000" font-family="sans-serif" font-size="13" lengthAdjust="spacing" textLength="324" x="447.5" y="504.1904">consultIntegratedSituation(politicalAgent, referenceDate)</text><line style="stroke:#181818;stroke-width:1.0;" x1="793.5" x2="840.5" y1="534.3984" y2="534.3984"/><line style="stroke:#181818;stroke-width:1.0;" x1="840.5" x2="840.5" y1="534.3984" y2="547.3984"/><line style="stroke:#181818;stroke-width:1.0;" x1="799.5" x2="840.5" y1="547.3984" y2="547.3984"/><polygon fill="#181818" points="809.5,543.3984,799.5,547.3984,809.5,551.3984,805.5,547.3984" style="stroke:#181818;stroke-width:1.0;"/><text fill="#000000" font-family="sans-serif" font-size="13" font-weight="bold" lengthAdjust="spacing" textLength="14" x="805.5" y="529.542">14</text><text fill="#000000" font-family="sans-serif" font-size="13" lengthAdjust="spacing" textLength="250" x="823.5" y="529.542">getEthicsCommitteeMemberFromSession()</text><polygon fill="#181818" points="1474.5,578.75,1484.5,582.75,1474.5,586.75,1478.5,582.75" style="stroke:#181818;stroke-width:1.0;"/><line style="stroke:#181818;stroke-width:1.0;" x1="798.5" x2="1480.5" y1="582.75" y2="582.75"/><text fill="#000000" font-family="sans-serif" font-size="13" font-weight="bold" lengthAdjust="spacing" textLength="14" x="805.5" y="577.8936">15</text><text fill="#000000" font-family="sans-serif" font-size="13" lengthAdjust="spacing" textLength="75" x="823.5" y="577.8936">getInstance()</text><polygon fill="#181818" points="809.5,609.1016,799.5,613.1016,809.5,617.1016,805.5,613.1016" style="stroke:#181818;stroke-width:1.0;"/><line style="stroke:#181818;stroke-width:1.0;stroke-dasharray:2.0,2.0;" x1="803.5" x2="1490.5" y1="613.1016" y2="613.1016"/><text fill="#000000" font-family="sans-serif" font-size="13" font-weight="bold" lengthAdjust="spacing" textLength="14" x="815.5" y="608.2451">16</text><text fill="#000000" font-family="sans-serif" font-size="13" lengthAdjust="spacing" textLength="68" x="833.5" y="608.2451">appSession</text><polygon fill="#181818" points="1619.5,639.4531,1629.5,643.4531,1619.5,647.4531,1623.5,643.4531" style="stroke:#181818;stroke-width:1.0;"/><line style="stroke:#181818;stroke-width:1.0;" x1="798.5" x2="1625.5" y1="643.4531" y2="643.4531"/><text fill="#000000" font-family="sans-serif" font-size="13" font-weight="bold" lengthAdjust="spacing" textLength="14" x="805.5" y="638.5967">17</text><text fill="#000000" font-family="sans-serif" font-size="13" lengthAdjust="spacing" textLength="115" x="823.5" y="638.5967">getCurrentSession()</text><polygon fill="#181818" points="809.5,669.8047,799.5,673.8047,809.5,677.8047,805.5,673.8047" style="stroke:#181818;stroke-width:1.0;"/><line style="stroke:#181818;stroke-width:1.0;stroke-dasharray:2.0,2.0;" x1="803.5" x2="1635.5" y1="673.8047" y2="673.8047"/><text fill="#000000" font-family="sans-serif" font-size="13" font-weight="bold" lengthAdjust="spacing" textLength="14" x="815.5" y="668.9482">18</text><text fill="#000000" font-family="sans-serif" font-size="13" lengthAdjust="spacing" textLength="87" x="833.5" y="668.9482">currentSession</text><polygon fill="#181818" points="1752.5,700.1563,1762.5,704.1563,1752.5,708.1563,1756.5,704.1563" style="stroke:#181818;stroke-width:1.0;"/><line style="stroke:#181818;stroke-width:1.0;" x1="798.5" x2="1758.5" y1="704.1563" y2="704.1563"/><text fill="#000000" font-family="sans-serif" font-size="13" font-weight="bold" lengthAdjust="spacing" textLength="14" x="805.5" y="699.2998">19</text><text fill="#000000" font-family="sans-serif" font-size="13" lengthAdjust="spacing" textLength="86" x="823.5" y="699.2998">getUserEmail()</text><polygon fill="#181818" points="809.5,730.5078,799.5,734.5078,809.5,738.5078,805.5,734.5078" style="stroke:#181818;stroke-width:1.0;"/><line style="stroke:#181818;stroke-width:1.0;stroke-dasharray:2.0,2.0;" x1="803.5" x2="1768.5" y1="734.5078" y2="734.5078"/><text fill="#000000" font-family="sans-serif" font-size="13" font-weight="bold" lengthAdjust="spacing" textLength="14" x="815.5" y="729.6514">20</text><text fill="#000000" font-family="sans-serif" font-size="13" lengthAdjust="spacing" textLength="31" x="833.5" y="729.6514">email</text><polygon fill="#181818" points="1063.5,760.8594,1073.5,764.8594,1063.5,768.8594,1067.5,764.8594" style="stroke:#181818;stroke-width:1.0;"/><line style="stroke:#181818;stroke-width:1.0;" x1="798.5" x2="1069.5" y1="764.8594" y2="764.8594"/><text fill="#000000" font-family="sans-serif" font-size="13" font-weight="bold" lengthAdjust="spacing" textLength="14" x="805.5" y="760.0029">21</text><text fill="#000000" font-family="sans-serif" font-size="13" lengthAdjust="spacing" textLength="75" x="823.5" y="760.0029">getInstance()</text><polygon fill="#181818" points="809.5,791.2109,799.5,795.2109,809.5,799.2109,805.5,795.2109" style="stroke:#181818;stroke-width:1.0;"/><line style="stroke:#181818;stroke-width:1.0;stroke-dasharray:2.0,2.0;" x1="803.5" x2="1079.5" y1="795.2109" y2="795.2109"/><text fill="#000000" font-family="sans-serif" font-size="13" font-weight="bold" lengthAdjust="spacing" textLength="14" x="815.5" y="790.3545">22</text><text fill="#000000" font-family="sans-serif" font-size="13" lengthAdjust="spacing" textLength="67" x="833.5" y="790.3545">repositories</text><polygon fill="#181818" points="1168.5,821.5625,1178.5,825.5625,1168.5,829.5625,1172.5,825.5625" style="stroke:#181818;stroke-width:1.0;"/><line style="stroke:#181818;stroke-width:1.0;" x1="798.5" x2="1174.5" y1="825.5625" y2="825.5625"/><text fill="#000000" font-family="sans-serif" font-size="13" font-weight="bold" lengthAdjust="spacing" textLength="14" x="805.5" y="820.7061">23</text><text fill="#000000" font-family="sans-serif" font-size="13" lengthAdjust="spacing" textLength="115" x="823.5" y="820.7061">getUserRepository()</text><polygon fill="#181818" points="809.5,851.9141,799.5,855.9141,809.5,859.9141,805.5,855.9141" style="stroke:#181818;stroke-width:1.0;"/><line style="stroke:#181818;stroke-width:1.0;stroke-dasharray:2.0,2.0;" x1="803.5" x2="1184.5" y1="855.9141" y2="855.9141"/><text fill="#000000" font-family="sans-serif" font-size="13" font-weight="bold" lengthAdjust="spacing" textLength="14" x="815.5" y="851.0576">24</text><text fill="#000000" font-family="sans-serif" font-size="13" lengthAdjust="spacing" textLength="87" x="833.5" y="851.0576">userRepository</text><polygon fill="#181818" points="1874.5,882.2656,1884.5,886.2656,1874.5,890.2656,1878.5,886.2656" style="stroke:#181818;stroke-width:1.0;"/><line style="stroke:#181818;stroke-width:1.0;" x1="798.5" x2="1880.5" y1="886.2656" y2="886.2656"/><text fill="#000000" font-family="sans-serif" font-size="13" font-weight="bold" lengthAdjust="spacing" textLength="14" x="805.5" y="881.4092">25</text><text fill="#000000" font-family="sans-serif" font-size="13" lengthAdjust="spacing" textLength="253" x="823.5" y="881.4092">getEthicsCommitteeMemberByEmail(email)</text><polygon fill="#181818" points="809.5,912.6172,799.5,916.6172,809.5,920.6172,805.5,916.6172" style="stroke:#181818;stroke-width:1.0;"/><line style="stroke:#181818;stroke-width:1.0;stroke-dasharray:2.0,2.0;" x1="803.5" x2="1890.5" y1="916.6172" y2="916.6172"/><text fill="#000000" font-family="sans-serif" font-size="13" font-weight="bold" lengthAdjust="spacing" textLength="14" x="815.5" y="911.7607">26</text><text fill="#000000" font-family="sans-serif" font-size="13" lengthAdjust="spacing" textLength="47" x="833.5" y="911.7607">member</text><line style="stroke:#181818;stroke-width:1.0;stroke-dasharray:2.0,2.0;" x1="798.5" x2="840.5" y1="951.9688" y2="951.9688"/><line style="stroke:#181818;stroke-width:1.0;stroke-dasharray:2.0,2.0;" x1="840.5" x2="840.5" y1="951.9688" y2="964.9688"/><line style="stroke:#181818;stroke-width:1.0;stroke-dasharray:2.0,2.0;" x1="793.5" x2="840.5" y1="964.9688" y2="964.9688"/><polygon fill="#181818" points="803.5,960.9688,793.5,964.9688,803.5,968.9688,799.5,964.9688" style="stroke:#181818;stroke-width:1.0;"/><text fill="#000000" font-family="sans-serif" font-size="13" font-weight="bold" lengthAdjust="spacing" textLength="14" x="805.5" y="947.1123">27</text><text fill="#000000" font-family="sans-serif" font-size="13" lengthAdjust="spacing" textLength="47" x="823.5" y="947.1123">member</text><polygon fill="#181818" points="1063.5,986.3203,1073.5,990.3203,1063.5,994.3203,1067.5,990.3203" style="stroke:#181818;stroke-width:1.0;"/><line style="stroke:#181818;stroke-width:1.0;" x1="793.5" x2="1069.5" y1="990.3203" y2="990.3203"/><text fill="#000000" font-family="sans-serif" font-size="13" font-weight="bold" lengthAdjust="spacing" textLength="14" x="800.5" y="985.4639">28</text><text fill="#000000" font-family="sans-serif" font-size="13" lengthAdjust="spacing" textLength="75" x="818.5" y="985.4639">getInstance()</text><polygon fill="#181818" points="804.5,1016.6719,794.5,1020.6719,804.5,1024.6719,800.5,1020.6719" style="stroke:#181818;stroke-width:1.0;"/><line style="stroke:#181818;stroke-width:1.0;stroke-dasharray:2.0,2.0;" x1="798.5" x2="1079.5" y1="1020.6719" y2="1020.6719"/><text fill="#000000" font-family="sans-serif" font-size="13" font-weight="bold" lengthAdjust="spacing" textLength="14" x="810.5" y="1015.8154">29</text><text fill="#000000" font-family="sans-serif" font-size="13" lengthAdjust="spacing" textLength="67" x="828.5" y="1015.8154">repositories</text><polygon fill="#181818" points="1168.5,1047.0234,1178.5,1051.0234,1168.5,1055.0234,1172.5,1051.0234" style="stroke:#181818;stroke-width:1.0;"/><line style="stroke:#181818;stroke-width:1.0;" x1="793.5" x2="1174.5" y1="1051.0234" y2="1051.0234"/><text fill="#000000" font-family="sans-serif" font-size="13" font-weight="bold" lengthAdjust="spacing" textLength="14" x="800.5" y="1046.167">30</text><text fill="#000000" font-family="sans-serif" font-size="13" lengthAdjust="spacing" textLength="153" x="818.5" y="1046.167">getDeclarationRepository()</text><polygon fill="#181818" points="804.5,1077.375,794.5,1081.375,804.5,1085.375,800.5,1081.375" style="stroke:#181818;stroke-width:1.0;"/><line style="stroke:#181818;stroke-width:1.0;stroke-dasharray:2.0,2.0;" x1="798.5" x2="1184.5" y1="1081.375" y2="1081.375"/><text fill="#000000" font-family="sans-serif" font-size="13" font-weight="bold" lengthAdjust="spacing" textLength="14" x="810.5" y="1076.5186">31</text><text fill="#000000" font-family="sans-serif" font-size="13" lengthAdjust="spacing" textLength="125" x="828.5" y="1076.5186">declarationRepository</text><polygon fill="#181818" points="2205,1107.7266,2215,1111.7266,2205,1115.7266,2209,1111.7266" style="stroke:#181818;stroke-width:1.0;"/><line style="stroke:#181818;stroke-width:1.0;" x1="793.5" x2="2211" y1="1111.7266" y2="1111.7266"/><text fill="#000000" font-family="sans-serif" font-size="13" font-weight="bold" lengthAdjust="spacing" textLength="14" x="800.5" y="1106.8701">32</text><text fill="#000000" font-family="sans-serif" font-size="13" lengthAdjust="spacing" textLength="413" x="818.5" y="1106.8701">getDeclarationsByPoliticalAgentUntilDate(politicalAgent, referenceDate)</text><polygon fill="#181818" points="804.5,1138.0781,794.5,1142.0781,804.5,1146.0781,800.5,1142.0781" style="stroke:#181818;stroke-width:1.0;"/><line style="stroke:#181818;stroke-width:1.0;stroke-dasharray:2.0,2.0;" x1="798.5" x2="2221" y1="1142.0781" y2="1142.0781"/><text fill="#000000" font-family="sans-serif" font-size="13" font-weight="bold" lengthAdjust="spacing" textLength="14" x="810.5" y="1137.2217">33</text><text fill="#000000" font-family="sans-serif" font-size="13" lengthAdjust="spacing" textLength="70" x="828.5" y="1137.2217">declarations</text><polygon fill="#181818" points="2029,1168.4297,2039,1172.4297,2029,1176.4297,2033,1172.4297" style="stroke:#181818;stroke-width:1.0;"/><line style="stroke:#181818;stroke-width:1.0;" x1="793.5" x2="2035" y1="1172.4297" y2="1172.4297"/><text fill="#000000" font-family="sans-serif" font-size="13" font-weight="bold" lengthAdjust="spacing" textLength="14" x="800.5" y="1167.5732">34</text><text fill="#000000" font-family="sans-serif" font-size="13" lengthAdjust="spacing" textLength="387" x="818.5" y="1167.5732">buildIntegratedSituation(politicalAgent, declarations, referenceDate)</text><polygon fill="#181818" points="2299,1198.7813,2309,1202.7813,2299,1206.7813,2303,1202.7813" style="stroke:#181818;stroke-width:1.0;"/><line style="stroke:#181818;stroke-width:1.0;stroke-dasharray:2.0,2.0;" x1="2051" x2="2305" y1="1202.7813" y2="1202.7813"/><text fill="#000000" font-family="sans-serif" font-size="13" font-weight="bold" lengthAdjust="spacing" textLength="14" x="2058" y="1197.9248">35</text><text fill="#000000" font-family="sans-serif" font-size="13" lengthAdjust="spacing" textLength="210" x="2076" y="1197.9248">create(politicalAgent, referenceDate)</text><rect fill="#E2E2F0" height="49.2188" rx="2.5" ry="2.5" style="stroke:#181818;stroke-width:0.5;" width="137" x="2311" y="1180.4297"/><text fill="#000000" font-family="sans-serif" font-size="14" lengthAdjust="spacing" textLength="119" x="2320" y="1201.9629">integratedSituation</text><text fill="#000000" font-family="sans-serif" font-size="14" lengthAdjust="spacing" textLength="123" x="2318" y="1219.5723">:IntegratedSituation</text><polygon fill="#181818" points="2362.5,1259,2372.5,1263,2362.5,1267,2366.5,1263" style="stroke:#181818;stroke-width:1.0;"/><line style="stroke:#181818;stroke-width:1.0;" x1="2051" x2="2368.5" y1="1263" y2="1263"/><text fill="#000000" font-family="sans-serif" font-size="13" font-weight="bold" lengthAdjust="spacing" textLength="14" x="2058" y="1258.1436">36</text><text fill="#000000" font-family="sans-serif" font-size="13" lengthAdjust="spacing" textLength="237" x="2076" y="1258.1436">aggregateFromDeclarations(declarations)</text><polygon fill="#181818" points="2062,1289.3516,2052,1293.3516,2062,1297.3516,2058,1293.3516" style="stroke:#181818;stroke-width:1.0;"/><line style="stroke:#181818;stroke-width:1.0;stroke-dasharray:2.0,2.0;" x1="2056" x2="2378.5" y1="1293.3516" y2="1293.3516"/><text fill="#000000" font-family="sans-serif" font-size="13" font-weight="bold" lengthAdjust="spacing" textLength="14" x="2068" y="1288.4951">37</text><text fill="#000000" font-family="sans-serif" font-size="13" lengthAdjust="spacing" textLength="108" x="2086" y="1288.4951">integratedSituation</text><polygon fill="#181818" points="804.5,1319.7031,794.5,1323.7031,804.5,1327.7031,800.5,1323.7031" style="stroke:#181818;stroke-width:1.0;"/><line style="stroke:#181818;stroke-width:1.0;stroke-dasharray:2.0,2.0;" x1="798.5" x2="2045" y1="1323.7031" y2="1323.7031"/><text fill="#000000" font-family="sans-serif" font-size="13" font-weight="bold" lengthAdjust="spacing" textLength="14" x="810.5" y="1318.8467">38</text><text fill="#000000" font-family="sans-serif" font-size="13" lengthAdjust="spacing" textLength="108" x="828.5" y="1318.8467">integratedSituation</text><polygon fill="#181818" points="433.5,1350.0547,423.5,1354.0547,433.5,1358.0547,429.5,1354.0547" style="stroke:#181818;stroke-width:1.0;"/><line style="stroke:#181818;stroke-width:1.0;stroke-dasharray:2.0,2.0;" x1="427.5" x2="787.5" y1="1354.0547" y2="1354.0547"/><text fill="#000000" font-family="sans-serif" font-size="13" font-weight="bold" lengthAdjust="spacing" textLength="14" x="439.5" y="1349.1982">39</text><text fill="#000000" font-family="sans-serif" font-size="13" lengthAdjust="spacing" textLength="108" x="457.5" y="1349.1982">integratedSituation</text><polygon fill="#181818" points="73.5,1380.4063,63.5,1384.4063,73.5,1388.4063,69.5,1384.4063" style="stroke:#181818;stroke-width:1.0;"/><line style="stroke:#181818;stroke-width:1.0;stroke-dasharray:2.0,2.0;" x1="67.5" x2="416.5" y1="1384.4063" y2="1384.4063"/><text fill="#000000" font-family="sans-serif" font-size="13" font-weight="bold" lengthAdjust="spacing" textLength="14" x="79.5" y="1379.5498">40</text><text fill="#000000" font-family="sans-serif" font-size="13" lengthAdjust="spacing" textLength="251" x="97.5" y="1379.5498">shows integrated situation for selected date</text><!--SRC=[rLTDRzim3BtdLmYzh1kMFv33W3JnYW1f6jZEhK2Wsgehr5-Gv1NvzwDiDv9iINOtx31Vqjha8v_qA59V-1ijQynmWOggh99NLXK42TQGXVfIu-GDPoGIbvmWHXA1oopN3VWhJgjtMcRe1UUSB1Qu4LNP5C-4mT-9g1Yw2SGhJJZQL4L1XI3agNmWqk06OOuUWeUx83olD_5Zk5W0gA09hN4fqCrgKvMyoSMk52HZM90qegB1WbRbQTSwdtQpFU2BO5MUzs4tSRWtVKDILvn2mfJmrYGCZe-HQSCqcwToPNSvHxl3_Jw87m-cSrtb5Fx3-JeZfRZwNW3ewFZKWgxlWqDybj0cthgkS_2Hv2B2EVnqviVZEGgYQ3UCZ-kwjuE8qyuk6ad362Ife4wSC1rZSmf3cR4rYGQC3UeduqMtgn48OiotQ4K3BfsUhd8QYSbqIqcIWrGbKoFmrlQ-HTa6cxqbFXsB2c0iKcj1TeSuk0_NSR25XOnFwrWkXQm8-WkC1x97yEXlqF87Q1kj0EYD8r6XfDCrKZaW_X6kzRu2GqcW_W649G19gN_x1c098s1n-tLXM7G6y3aZmjGX1zCFooj-MpX8UrflG6crty7iIWu7HK8qVmEZgomqU3g0fKf8hpR3EYK3A7T2IiKsXchZlQbgfM1DMWkYfU-gToyLBPILb3eCfdRCeA6T8KC66g8p-JtbmfMs1ct9-4F87ZmDgnNNKBz6OQoWurJlNE4XB05H3eW8bsbNCI_GTXXv8N1G9GIb0BqOH88oSLST9pcqkd4GYG-_X74Rkgi4hskQE9lJhRaytnNy5knSLMWLY2fcwp7v4xfyVrYxj3AgS4D_ga5uQzrKdzQIaENHGJKDgeOryjBrfu7FINju8coCVZQJXkT4612odmrc4vr9ptKs6DjlDj-EekonGO5fxcCtRDisNaDqZH6H-3uYGtmdXUb6CgEPVAwXJ3ULoSPYpZ6J2Ky8oDDMp0bgaiOSqLm7Bi_1SNVf5DJkiuUT6jvil5GaZL4tsFcOA5071o-Oiy7yV-EBTMZz1xEBTMZ-gy7bEbIFYF2xYpd5d4f1SzduvhP5WxMQteTyLGfsfivTKf1MQjqC0LZF3StJEUrT3pgFLN-p6LBgGqi-jWk7FlP_OYrrP3kmxCvPnaW6ldAaqBVpLcVdEIciDoJReM5DOAallELgvZjEx7SppzhsMfaAeuNezyip4Vl0_cWajjqDsqcu6sVXjMiG7kNTtqj_0m00]--></g></svg>