<?xml version="1.0" encoding="us-ascii" standalone="no"?><svg xmlns="http://www.w3.org/2000/svg" xmlns:xlink="http://www.w3.org/1999/xlink" contentStyleType="text/css" height="731px" preserveAspectRatio="none" style="width:1059px;height:731px;background:#FFFFFF;" version="1.1" viewBox="0 0 1059 731" width="1059px" zoomAndPan="magnify"><defs/><g><rect fill="#FFFFFF" height="503.4609" style="stroke:#181818;stroke-width:1.0;" width="10" x="57.5" y="110.2188"/><rect fill="#FFFFFF" height="180.1094" style="stroke:#181818;stroke-width:1.0;" width="10" x="405.5" y="132.5703"/><rect fill="#FFFFFF" height="270.6484" style="stroke:#181818;stroke-width:1.0;" width="10" x="405.5" y="343.0313"/><rect fill="#FFFFFF" height="76.7969" style="stroke:#181818;stroke-width:1.0;" width="10" x="769.5" y="205.5313"/><rect fill="#FFFFFF" height="209.9453" style="stroke:#181818;stroke-width:1.0;" width="10" x="769.5" y="373.3828"/><rect fill="#FFFFFF" height="87.7969" style="stroke:#181818;stroke-width:1.0;" width="10" x="774.5" y="411.7344"/><line style="stroke:#181818;stroke-width:0.5;stroke-dasharray:5.0,5.0;" x1="62" x2="62" y1="100.2188" y2="631.6797"/><line style="stroke:#181818;stroke-width:0.5;stroke-dasharray:5.0,5.0;" x1="410" x2="410" y1="100.2188" y2="631.6797"/><line style="stroke:#181818;stroke-width:0.5;stroke-dasharray:5.0,5.0;" x1="774" x2="774" y1="171.875" y2="631.6797"/><text fill="#000000" font-family="sans-serif" font-size="14" lengthAdjust="spacing" textLength="109" x="5" y="79.5332">Ethics Committee</text><text fill="#000000" font-family="sans-serif" font-size="14" lengthAdjust="spacing" textLength="51" x="34" y="97.1426">Member</text><ellipse cx="62.5" cy="13.5" fill="#E3E3E3" rx="8" ry="8" style="stroke:#181818;stroke-width:0.5;"/><path d="M62.5,21.5 L62.5,48.5 M49.5,29.5 L75.5,29.5 M62.5,48.5 L49.5,63.5 M62.5,48.5 L75.5,63.5 " fill="none" style="stroke:#181818;stroke-width:0.5;"/><text fill="#000000" font-family="sans-serif" font-size="14" lengthAdjust="spacing" textLength="109" x="5" y="645.2129">Ethics Committee</text><text fill="#000000" font-family="sans-serif" font-size="14" lengthAdjust="spacing" textLength="51" x="34" y="662.8223">Member</text><ellipse cx="62.5" cy="674.3984" fill="#E3E3E3" rx="8" ry="8" style="stroke:#181818;stroke-width:0.5;"/><path d="M62.5,682.3984 L62.5,709.3984 M49.5,690.3984 L75.5,690.3984 M62.5,709.3984 L49.5,724.3984 M62.5,709.3984 L75.5,724.3984 " fill="none" style="stroke:#181818;stroke-width:0.5;"/><rect fill="#E3E3E3" height="31.6094" rx="2.5" ry="2.5" style="stroke:#181818;stroke-width:0.5;" width="197" x="312" y="67.6094"/><text fill="#000000" font-family="sans-serif" font-size="14" lengthAdjust="spacing" textLength="183" x="319" y="89.1426">:ConsultIntegratedSituationUI</text><rect fill="#E3E3E3" height="31.6094" rx="2.5" ry="2.5" style="stroke:#181818;stroke-width:0.5;" width="197" x="312" y="630.6797"/><text fill="#000000" font-family="sans-serif" font-size="14" lengthAdjust="spacing" textLength="183" x="319" y="652.2129">:ConsultIntegratedSituationUI</text><rect fill="#E3E3E3" height="31.6094" rx="2.5" ry="2.5" style="stroke:#181818;stroke-width:0.5;" width="247" x="651" y="630.6797"/><text fill="#000000" font-family="sans-serif" font-size="14" lengthAdjust="spacing" textLength="233" x="658" y="652.2129">:ConsultIntegratedSituationController</text><rect fill="#FFFFFF" height="503.4609" style="stroke:#181818;stroke-width:1.0;" width="10" x="57.5" y="110.2188"/><rect fill="#FFFFFF" height="180.1094" style="stroke:#181818;stroke-width:1.0;" width="10" x="405.5" y="132.5703"/><rect fill="#FFFFFF" height="270.6484" style="stroke:#181818;stroke-width:1.0;" width="10" x="405.5" y="343.0313"/><rect fill="#FFFFFF" height="76.7969" style="stroke:#181818;stroke-width:1.0;" width="10" x="769.5" y="205.5313"/><rect fill="#FFFFFF" height="209.9453" style="stroke:#181818;stroke-width:1.0;" width="10" x="769.5" y="373.3828"/><rect fill="#FFFFFF" height="87.7969" style="stroke:#181818;stroke-width:1.0;" width="10" x="774.5" y="411.7344"/><polygon fill="#181818" points="393.5,128.5703,403.5,132.5703,393.5,136.5703,397.5,132.5703" style="stroke:#181818;stroke-width:1.0;"/><line style="stroke:#181818;stroke-width:1.0;" x1="67.5" x2="399.5" y1="132.5703" y2="132.5703"/><text fill="#000000" font-family="sans-serif" font-size="13" font-weight="bold" lengthAdjust="spacing" textLength="7" x="74.5" y="127.7139">1</text><text fill="#000000" font-family="sans-serif" font-size="13" lengthAdjust="spacing" textLength="203" x="85.5" y="127.7139">asks to consult integrated situation</text><polygon fill="#181818" points="639,158.9219,649,162.9219,639,166.9219,643,162.9219" style="stroke:#181818;stroke-width:1.0;"/><line style="stroke:#181818;stroke-width:1.0;stroke-dasharray:2.0,2.0;" x1="415.5" x2="645" y1="162.9219" y2="162.9219"/><text fill="#000000" font-family="sans-serif" font-size="13" font-weight="bold" lengthAdjust="spacing" textLength="7" x="422.5" y="158.0654">2</text><text fill="#000000" font-family="sans-serif" font-size="13" lengthAdjust="spacing" textLength="44" x="433.5" y="158.0654">create()</text><rect fill="#E3E3E3" height="31.6094" rx="2.5" ry="2.5" style="stroke:#181818;stroke-width:0.5;" width="247" x="651" y="140.5703"/><text fill="#000000" font-family="sans-serif" font-size="14" lengthAdjust="spacing" textLength="233" x="658" y="162.1035">:ConsultIntegratedSituationController</text><polygon fill="#181818" points="757.5,201.5313,767.5,205.5313,757.5,209.5313,761.5,205.5313" style="stroke:#181818;stroke-width:1.0;"/><line style="stroke:#181818;stroke-width:1.0;" x1="415.5" x2="763.5" y1="205.5313" y2="205.5313"/><text fill="#000000" font-family="sans-serif" font-size="13" font-weight="bold" lengthAdjust="spacing" textLength="7" x="422.5" y="200.6748">3</text><text fill="#000000" font-family="sans-serif" font-size="13" lengthAdjust="spacing" textLength="113" x="433.5" y="200.6748">getPoliticalAgents()</text><rect fill="none" height="41.4453" style="stroke:#000000;stroke-width:1.5;" width="253" x="648" y="213.5313"/><path d="M648,213.5313 L710,213.5313 L710,221.5313 L700,231.5313 L648,231.5313 L648,213.5313 " fill="#EEEEEE" style="stroke:#000000;stroke-width:2.0;"/><text fill="#000000" font-family="sans-serif" font-size="13" font-weight="bold" lengthAdjust="spacing" textLength="17" x="661" y="229.0264">ref</text><text fill="#000000" font-family="sans-serif" font-size="12" lengthAdjust="spacing" textLength="122" x="713.5" y="247.9883">Get Political Agent List</text><polygon fill="#181818" points="426.5,278.3281,416.5,282.3281,426.5,286.3281,422.5,282.3281" style="stroke:#181818;stroke-width:1.0;"/><line style="stroke:#181818;stroke-width:1.0;stroke-dasharray:2.0,2.0;" x1="420.5" x2="773.5" y1="282.3281" y2="282.3281"/><text fill="#000000" font-family="sans-serif" font-size="13" font-weight="bold" lengthAdjust="spacing" textLength="7" x="432.5" y="277.4717">4</text><text fill="#000000" font-family="sans-serif" font-size="13" lengthAdjust="spacing" textLength="99" x="443.5" y="277.4717">politicalAgentList</text><polygon fill="#181818" points="78.5,308.6797,68.5,312.6797,78.5,316.6797,74.5,312.6797" style="stroke:#181818;stroke-width:1.0;"/><line style="stroke:#181818;stroke-width:1.0;stroke-dasharray:2.0,2.0;" x1="72.5" x2="409.5" y1="312.6797" y2="312.6797"/><text fill="#000000" font-family="sans-serif" font-size="13" font-weight="bold" lengthAdjust="spacing" textLength="7" x="84.5" y="307.8232">5</text><text fill="#000000" font-family="sans-serif" font-size="13" lengthAdjust="spacing" textLength="303" x="95.5" y="307.8232">shows political agent list and asks for reference date</text><polygon fill="#181818" points="393.5,339.0313,403.5,343.0313,393.5,347.0313,397.5,343.0313" style="stroke:#181818;stroke-width:1.0;"/><line style="stroke:#181818;stroke-width:1.0;" x1="67.5" x2="399.5" y1="343.0313" y2="343.0313"/><text fill="#000000" font-family="sans-serif" font-size="13" font-weight="bold" lengthAdjust="spacing" textLength="7" x="74.5" y="338.1748">6</text><text fill="#000000" font-family="sans-serif" font-size="13" lengthAdjust="spacing" textLength="277" x="85.5" y="338.1748">selects political agent and enters reference date</text><polygon fill="#181818" points="757.5,369.3828,767.5,373.3828,757.5,377.3828,761.5,373.3828" style="stroke:#181818;stroke-width:1.0;"/><line style="stroke:#181818;stroke-width:1.0;" x1="415.5" x2="763.5" y1="373.3828" y2="373.3828"/><text fill="#000000" font-family="sans-serif" font-size="13" font-weight="bold" lengthAdjust="spacing" textLength="7" x="422.5" y="368.5264">7</text><text fill="#000000" font-family="sans-serif" font-size="13" lengthAdjust="spacing" textLength="324" x="433.5" y="368.5264">consultIntegratedSituation(politicalAgent, referenceDate)</text><line style="stroke:#181818;stroke-width:1.0;" x1="779.5" x2="826.5" y1="398.7344" y2="398.7344"/><line style="stroke:#181818;stroke-width:1.0;" x1="826.5" x2="826.5" y1="398.7344" y2="411.7344"/><line style="stroke:#181818;stroke-width:1.0;" x1="785.5" x2="826.5" y1="411.7344" y2="411.7344"/><polygon fill="#181818" points="795.5,407.7344,785.5,411.7344,795.5,415.7344,791.5,411.7344" style="stroke:#181818;stroke-width:1.0;"/><text fill="#000000" font-family="sans-serif" font-size="13" font-weight="bold" lengthAdjust="spacing" textLength="7" x="791.5" y="393.8779">8</text><text fill="#000000" font-family="sans-serif" font-size="13" lengthAdjust="spacing" textLength="250" x="802.5" y="393.8779">getEthicsCommitteeMemberFromSession()</text><rect fill="none" height="41.4453" style="stroke:#000000;stroke-width:1.5;" width="253" x="648" y="424.7344"/><path d="M648,424.7344 L710,424.7344 L710,432.7344 L700,442.7344 L648,442.7344 L648,424.7344 " fill="#EEEEEE" style="stroke:#000000;stroke-width:2.0;"/><text fill="#000000" font-family="sans-serif" font-size="13" font-weight="bold" lengthAdjust="spacing" textLength="17" x="661" y="440.2295">ref</text><text fill="#000000" font-family="sans-serif" font-size="12" lengthAdjust="spacing" textLength="168" x="690.5" y="459.1914">Get Ethics Committee Member</text><line style="stroke:#181818;stroke-width:1.0;stroke-dasharray:2.0,2.0;" x1="784.5" x2="826.5" y1="498.5313" y2="498.5313"/><line style="stroke:#181818;stroke-width:1.0;stroke-dasharray:2.0,2.0;" x1="826.5" x2="826.5" y1="498.5313" y2="511.5313"/><line style="stroke:#181818;stroke-width:1.0;stroke-dasharray:2.0,2.0;" x1="779.5" x2="826.5" y1="511.5313" y2="511.5313"/><polygon fill="#181818" points="789.5,507.5313,779.5,511.5313,789.5,515.5313,785.5,511.5313" style="stroke:#181818;stroke-width:1.0;"/><text fill="#000000" font-family="sans-serif" font-size="13" font-weight="bold" lengthAdjust="spacing" textLength="7" x="791.5" y="493.6748">9</text><text fill="#000000" font-family="sans-serif" font-size="13" lengthAdjust="spacing" textLength="47" x="802.5" y="493.6748">member</text><rect fill="none" height="41.4453" style="stroke:#000000;stroke-width:1.5;" width="253" x="648" y="514.5313"/><path d="M648,514.5313 L710,514.5313 L710,522.5313 L700,532.5313 L648,532.5313 L648,514.5313 " fill="#EEEEEE" style="stroke:#000000;stroke-width:2.0;"/><text fill="#000000" font-family="sans-serif" font-size="13" font-weight="bold" lengthAdjust="spacing" textLength="17" x="661" y="530.0264">ref</text><text fill="#000000" font-family="sans-serif" font-size="12" lengthAdjust="spacing" textLength="137" x="706" y="548.9883">Build Integrated Situation</text><polygon fill="#181818" points="426.5,579.3281,416.5,583.3281,426.5,587.3281,422.5,583.3281" style="stroke:#181818;stroke-width:1.0;"/><line style="stroke:#181818;stroke-width:1.0;stroke-dasharray:2.0,2.0;" x1="420.5" x2="773.5" y1="583.3281" y2="583.3281"/><text fill="#000000" font-family="sans-serif" font-size="13" font-weight="bold" lengthAdjust="spacing" textLength="14" x="432.5" y="578.4717">10</text><text fill="#000000" font-family="sans-serif" font-size="13" lengthAdjust="spacing" textLength="108" x="450.5" y="578.4717">integratedSituation</text><polygon fill="#181818" points="73.5,609.6797,63.5,613.6797,73.5,617.6797,69.5,613.6797" style="stroke:#181818;stroke-width:1.0;"/><line style="stroke:#181818;stroke-width:1.0;stroke-dasharray:2.0,2.0;" x1="67.5" x2="409.5" y1="613.6797" y2="613.6797"/><text fill="#000000" font-family="sans-serif" font-size="13" font-weight="bold" lengthAdjust="spacing" textLength="14" x="79.5" y="608.8232">11</text><text fill="#000000" font-family="sans-serif" font-size="13" lengthAdjust="spacing" textLength="251" x="97.5" y="608.8232">shows integrated situation for selected date</text><!--SRC=[fLJ1JiCm3BttAwoT668_i0CIZ84cCO4sk26Xa7fTj3IP4XV4t-EcB6lQ5P38fMrYl_ViFDVlbDaB9qeehR5owso9GAx2pCUJlP0xKU2QFZM2Gqd25BeTuBSYjn_A5B0HscEMYOgigSetTFmkoJeOpMchf8UPBKj5XFXYbbW7Z41uMCwNr_FLwzNiwM6LPGnAIggzC0IZwSmQNsbQ6CB22S9yhQWIfAnvNeJavyMVC_Y4dDNwctRsjBeF0jKxXtLK0A_s3amkcGgcdBZpG1PaGmCgye0_48Ni2CmAmqQz66B2I3Nr-JcZIOSSSZPE0ffpFYsG7grMN9pGLmKQyXmPGnrkmBwZQmg1rhf3WfW88HFkbQSOX2QlquzOKMmFAqYP7AhV9t8Ip1nJa6xDIJUdx1hxuOzu889ApOWWM5reyuQjmpBHeP48EKDd7QP3RqzUbKVDTksJrFZyHETFeG_UMxmMEUYmixG_5qVy6uuR3xJxHB_R5cXc9uvECpYtFAfhzBuc7IS0mrVvisdQvkcEApIalVY3ZxhxqJJVLPJzz46x_Axokb8wXsFxOPqCtg39-tPM_IlydvzF_Gs2ZHilylQGYrkVoP_e2m00]--></g></svg>